G04*
G04 #@! TF.GenerationSoftware,Altium Limited,Altium Designer,19.0.10 (269)*
G04*
G04 Layer_Physical_Order=2*
G04 Layer_Color=32768*
%FSLAX44Y44*%
%MOMM*%
G71*
G01*
G75*
%ADD10C,0.1500*%
%ADD87C,1.7000*%
%ADD88C,1.5000*%
%ADD91C,1.6000*%
%ADD98C,1.0160*%
%ADD99C,3.5000*%
%ADD100C,1.4000*%
%ADD101C,2.1002*%
%ADD102C,3.7000*%
%ADD103C,2.1000*%
%ADD104C,1.3000*%
%ADD105C,0.9000*%
%ADD106C,0.6500*%
D10*
X0Y0D02*
X1600000D01*
Y1000000D01*
X0D02*
X1600000D01*
X0Y0D02*
Y1000000D01*
X-11500Y99900D02*
Y103900D01*
Y141900D02*
Y145900D01*
D87*
X67000Y898000D02*
D03*
Y828000D02*
D03*
Y727000D02*
D03*
Y657000D02*
D03*
Y813000D02*
D03*
Y743000D02*
D03*
X17978Y456396D02*
D03*
X33218Y329904D02*
D03*
Y430996D02*
D03*
X17978Y355304D02*
D03*
D88*
X455000Y45000D02*
D03*
X410000Y44996D02*
D03*
X455000Y200000D02*
D03*
X455000Y225400D02*
D03*
Y174600D02*
D03*
X500000Y200000D02*
D03*
X500000Y225400D02*
D03*
Y174600D02*
D03*
X410000Y199600D02*
D03*
X410000Y225000D02*
D03*
Y174200D02*
D03*
X55000Y539000D02*
D03*
Y513600D02*
D03*
X80400D02*
D03*
Y539000D02*
D03*
X131200D02*
D03*
Y513600D02*
D03*
X105800D02*
D03*
Y539000D02*
D03*
X55000Y630700D02*
D03*
Y605300D02*
D03*
X80400D02*
D03*
Y630700D02*
D03*
X131200D02*
D03*
Y605300D02*
D03*
X105800D02*
D03*
Y630700D02*
D03*
X1549000Y868600D02*
D03*
Y843200D02*
D03*
Y792400D02*
D03*
Y767000D02*
D03*
Y716200D02*
D03*
Y690800D02*
D03*
Y640000D02*
D03*
Y614600D02*
D03*
Y563800D02*
D03*
Y538400D02*
D03*
Y513000D02*
D03*
Y487600D02*
D03*
Y436800D02*
D03*
Y411400D02*
D03*
Y386000D02*
D03*
Y360600D02*
D03*
Y309800D02*
D03*
Y284400D02*
D03*
Y259000D02*
D03*
Y233600D02*
D03*
Y182800D02*
D03*
Y132000D02*
D03*
Y106600D02*
D03*
X1523600Y868600D02*
D03*
Y843200D02*
D03*
Y792400D02*
D03*
Y767000D02*
D03*
Y716200D02*
D03*
Y690800D02*
D03*
Y640000D02*
D03*
Y614600D02*
D03*
Y563800D02*
D03*
Y538400D02*
D03*
Y513000D02*
D03*
Y487600D02*
D03*
Y436800D02*
D03*
Y411400D02*
D03*
Y386000D02*
D03*
Y360600D02*
D03*
Y309800D02*
D03*
Y284400D02*
D03*
Y259000D02*
D03*
Y233600D02*
D03*
Y182800D02*
D03*
Y132000D02*
D03*
Y106600D02*
D03*
X1498200Y868600D02*
D03*
Y843200D02*
D03*
Y792400D02*
D03*
Y767000D02*
D03*
Y716200D02*
D03*
Y690800D02*
D03*
Y640000D02*
D03*
Y614600D02*
D03*
Y563800D02*
D03*
Y538400D02*
D03*
Y513000D02*
D03*
Y487600D02*
D03*
Y436800D02*
D03*
Y411400D02*
D03*
Y386000D02*
D03*
Y360600D02*
D03*
Y309800D02*
D03*
Y284400D02*
D03*
Y259000D02*
D03*
Y233600D02*
D03*
Y182800D02*
D03*
Y132000D02*
D03*
Y106600D02*
D03*
X410000Y90000D02*
D03*
X710000Y45000D02*
D03*
X500000Y90000D02*
D03*
X455000Y136000D02*
D03*
X410000D02*
D03*
X455000Y91000D02*
D03*
D91*
X155900Y399500D02*
D03*
X130500Y386800D02*
D03*
X155900Y424900D02*
D03*
X130500Y437600D02*
D03*
Y412200D02*
D03*
X155900Y374100D02*
D03*
Y348700D02*
D03*
X130500Y361400D02*
D03*
D98*
X0Y0D02*
X1600000D01*
Y1000000D01*
X0D02*
X1600000D01*
X0Y0D02*
Y1000000D01*
D99*
X160000Y50000D02*
D03*
X35000Y945000D02*
D03*
Y55000D02*
D03*
X1575000Y55500D02*
D03*
Y944500D02*
D03*
D100*
X42000Y840500D02*
D03*
Y669500D02*
D03*
Y755500D02*
D03*
D101*
X97480Y471890D02*
D03*
Y314410D02*
D03*
D102*
X67000Y450300D02*
D03*
Y336000D02*
D03*
D103*
X1104500Y920000D02*
D03*
X755500D02*
D03*
X1104500Y80000D02*
D03*
X755500D02*
D03*
Y920000D02*
D03*
X1104500D02*
D03*
X755500Y80000D02*
D03*
X1104500D02*
D03*
D104*
X41000Y243000D02*
D03*
Y263000D02*
D03*
Y203000D02*
D03*
Y223000D02*
D03*
Y183000D02*
D03*
D105*
X42000Y119000D02*
D03*
X51000D02*
D03*
X60000D02*
D03*
X69000D02*
D03*
X46500Y126800D02*
D03*
X55500D02*
D03*
X64500D02*
D03*
X73500D02*
D03*
X78000Y119000D02*
D03*
X82500Y126800D02*
D03*
D106*
X180000Y433750D02*
D03*
X281000Y427500D02*
D03*
X275000Y424000D02*
D03*
X940000Y550000D02*
D03*
X70000Y74000D02*
D03*
X920000Y470000D02*
D03*
X1445000Y192000D02*
D03*
X777600Y52500D02*
D03*
X790300D02*
D03*
X803000D02*
D03*
X815700D02*
D03*
X828400D02*
D03*
X841100D02*
D03*
X853800D02*
D03*
X942700D02*
D03*
X930000D02*
D03*
X917300D02*
D03*
X904600D02*
D03*
X879200D02*
D03*
X866500D02*
D03*
X1031600D02*
D03*
X1018900D02*
D03*
X993500D02*
D03*
X980800D02*
D03*
X968100D02*
D03*
X955400D02*
D03*
X1082400D02*
D03*
X1069700D02*
D03*
X1057000D02*
D03*
X1044300D02*
D03*
X777600Y107500D02*
D03*
X790300D02*
D03*
X803000D02*
D03*
X815700D02*
D03*
X828400D02*
D03*
X841100D02*
D03*
X853800D02*
D03*
X942700D02*
D03*
X930000D02*
D03*
X917300D02*
D03*
X904600D02*
D03*
X879200D02*
D03*
X866500D02*
D03*
X1031600D02*
D03*
X1018900D02*
D03*
X993500D02*
D03*
X980800D02*
D03*
X968100D02*
D03*
X955400D02*
D03*
X1082400D02*
D03*
X1069700D02*
D03*
X1057000D02*
D03*
X1044300D02*
D03*
X777600Y947500D02*
D03*
X790300D02*
D03*
X803000D02*
D03*
X815700D02*
D03*
X828400D02*
D03*
X841100D02*
D03*
X853800D02*
D03*
X942700D02*
D03*
X930000D02*
D03*
X917300D02*
D03*
X904600D02*
D03*
X891900D02*
D03*
X879200D02*
D03*
X866500D02*
D03*
X1031600D02*
D03*
X1018900D02*
D03*
X1006200D02*
D03*
X993500D02*
D03*
X980800D02*
D03*
X968100D02*
D03*
X955400D02*
D03*
X1082400D02*
D03*
X1069700D02*
D03*
X1057000D02*
D03*
X1044300D02*
D03*
Y892500D02*
D03*
X1057000D02*
D03*
X1069700D02*
D03*
X1082400D02*
D03*
X955400D02*
D03*
X968100D02*
D03*
X980800D02*
D03*
X993500D02*
D03*
X1006200D02*
D03*
X1018900D02*
D03*
X1031600D02*
D03*
X866500D02*
D03*
X879200D02*
D03*
X891900D02*
D03*
X904600D02*
D03*
X917300D02*
D03*
X930000D02*
D03*
X942700D02*
D03*
X853800D02*
D03*
X841100D02*
D03*
X828400D02*
D03*
X815700D02*
D03*
X803000D02*
D03*
X790300D02*
D03*
X777600D02*
D03*
X1380000Y200000D02*
D03*
X1375000D02*
D03*
X680000Y225000D02*
D03*
Y200000D02*
D03*
Y175000D02*
D03*
Y150000D02*
D03*
X835000Y140000D02*
D03*
X840000Y165000D02*
D03*
X760000D02*
D03*
X845000Y190000D02*
D03*
X850000Y215000D02*
D03*
X760000D02*
D03*
Y190000D02*
D03*
Y140000D02*
D03*
X920000Y620000D02*
D03*
X1050000Y510000D02*
D03*
X1030000D02*
D03*
X970000Y380000D02*
D03*
X930000D02*
D03*
X920000Y600000D02*
D03*
Y400000D02*
D03*
X810000Y530000D02*
D03*
X810000Y500000D02*
D03*
X930000D02*
D03*
X1370000Y200000D02*
D03*
X722000Y590000D02*
D03*
X820000D02*
D03*
X462000Y850000D02*
D03*
X392000Y959000D02*
D03*
X491000Y525000D02*
D03*
X110000Y841000D02*
D03*
Y756000D02*
D03*
Y670000D02*
D03*
X87000Y866000D02*
D03*
Y781000D02*
D03*
Y695000D02*
D03*
X378000Y787000D02*
D03*
Y887000D02*
D03*
X364000Y959000D02*
D03*
X175000Y547000D02*
D03*
X175000Y533000D02*
D03*
Y519000D02*
D03*
Y505000D02*
D03*
X175000Y638700D02*
D03*
X175000Y624700D02*
D03*
Y610700D02*
D03*
Y596700D02*
D03*
X821000Y358000D02*
D03*
X841000D02*
D03*
X845000Y642000D02*
D03*
X860000Y480000D02*
D03*
X262999Y538000D02*
D03*
X243000D02*
D03*
X208000D02*
D03*
X270000Y506000D02*
D03*
X315000Y470000D02*
D03*
X214000Y482000D02*
D03*
Y496000D02*
D03*
X332500Y470000D02*
D03*
X337500Y465000D02*
D03*
X276000Y297000D02*
D03*
X390000Y467500D02*
D03*
X395000Y462500D02*
D03*
X345000Y415000D02*
D03*
X350000Y420000D02*
D03*
X355000Y425000D02*
D03*
X360000Y430000D02*
D03*
X399000Y331000D02*
D03*
X398000Y385000D02*
D03*
X257000Y370000D02*
D03*
Y363000D02*
D03*
X200000Y86000D02*
D03*
Y80000D02*
D03*
Y74000D02*
D03*
X571000Y145000D02*
D03*
X635970Y120906D02*
D03*
X608000Y121000D02*
D03*
X233500Y49000D02*
D03*
X113000Y99000D02*
D03*
X920000Y440000D02*
D03*
X216000Y185000D02*
D03*
X95000Y263000D02*
D03*
Y243000D02*
D03*
Y223000D02*
D03*
Y203000D02*
D03*
X113000Y131000D02*
D03*
X208000Y127000D02*
D03*
X222000D02*
D03*
X1012000Y306000D02*
D03*
X1137000Y396000D02*
D03*
X1097000Y386800D02*
D03*
X853800Y94800D02*
D03*
Y65200D02*
D03*
X1012000Y294000D02*
D03*
X1021000Y269000D02*
D03*
X1082000Y344000D02*
D03*
X1094000D02*
D03*
X1040000Y420000D02*
D03*
X960000Y590000D02*
D03*
X980000Y580000D02*
D03*
X1020000Y510000D02*
D03*
X1010000D02*
D03*
X980000D02*
D03*
X910000D02*
D03*
X890000D02*
D03*
X880000D02*
D03*
X840000D02*
D03*
X830000D02*
D03*
X840000Y520000D02*
D03*
X950000D02*
D03*
X970000D02*
D03*
X990000D02*
D03*
X1010000D02*
D03*
X1020000D02*
D03*
X840000Y530000D02*
D03*
X860000D02*
D03*
X890000D02*
D03*
X910000D02*
D03*
X960000D02*
D03*
X1020000D02*
D03*
X840000Y540000D02*
D03*
X950000D02*
D03*
X960000D02*
D03*
X980000D02*
D03*
X1020000D02*
D03*
X830000Y550000D02*
D03*
X840000D02*
D03*
X910000D02*
D03*
X960000D02*
D03*
X970000D02*
D03*
X980000D02*
D03*
X990000D02*
D03*
X1020000D02*
D03*
X1030000D02*
D03*
X840000Y560000D02*
D03*
X850000D02*
D03*
X870000D02*
D03*
X920000D02*
D03*
X960000D02*
D03*
X970000D02*
D03*
X990000D02*
D03*
X1000000D02*
D03*
X1020000D02*
D03*
X850000Y570000D02*
D03*
X860000D02*
D03*
X900000D02*
D03*
X950000D02*
D03*
X990000D02*
D03*
X1000000D02*
D03*
X1010000D02*
D03*
X1020000D02*
D03*
X820000Y580000D02*
D03*
X840000D02*
D03*
X860000D02*
D03*
X870000D02*
D03*
X880000D02*
D03*
X890000D02*
D03*
X960000D02*
D03*
X1010000D02*
D03*
X1020000D02*
D03*
X830000Y590000D02*
D03*
X840000D02*
D03*
X850000D02*
D03*
X870000D02*
D03*
X880000D02*
D03*
X890000D02*
D03*
X900000D02*
D03*
X910000D02*
D03*
X950000D02*
D03*
X970000D02*
D03*
X980000D02*
D03*
X990000D02*
D03*
X1000000D02*
D03*
X1010000D02*
D03*
X1020000D02*
D03*
X1030000D02*
D03*
X850000Y600000D02*
D03*
X880000D02*
D03*
X970000D02*
D03*
X1010000D02*
D03*
Y610000D02*
D03*
Y400000D02*
D03*
X970000D02*
D03*
X960000D02*
D03*
X880000D02*
D03*
X840000D02*
D03*
X820000D02*
D03*
X1030000Y420000D02*
D03*
X1020000D02*
D03*
X860000D02*
D03*
X840000D02*
D03*
X830000D02*
D03*
X1020000Y430000D02*
D03*
X980000D02*
D03*
X890000D02*
D03*
X840000D02*
D03*
X1020000Y440000D02*
D03*
X1010000D02*
D03*
X970000D02*
D03*
X860000D02*
D03*
X850000D02*
D03*
X840000D02*
D03*
X1010000Y450000D02*
D03*
X900000D02*
D03*
X870000D02*
D03*
X850000D02*
D03*
X840000D02*
D03*
X1030000Y460000D02*
D03*
X1020000D02*
D03*
X1010000D02*
D03*
X960000D02*
D03*
X940000D02*
D03*
X850000D02*
D03*
X840000D02*
D03*
X830000D02*
D03*
X1010000Y470000D02*
D03*
X990000D02*
D03*
X950000D02*
D03*
X900000D02*
D03*
X870000D02*
D03*
X850000D02*
D03*
X840000D02*
D03*
X1010000Y480000D02*
D03*
X980000D02*
D03*
X940000D02*
D03*
X910000D02*
D03*
X890000D02*
D03*
X840000D02*
D03*
Y490000D02*
D03*
X900000D02*
D03*
X950000D02*
D03*
X980000D02*
D03*
X1000000D02*
D03*
X1010000D02*
D03*
X1020000D02*
D03*
X960000Y510000D02*
D03*
X920000Y490000D02*
D03*
X960000Y480000D02*
D03*
X900000Y520000D02*
D03*
X940000Y510000D02*
D03*
X990000Y490000D02*
D03*
X920000Y520000D02*
D03*
X930000Y520000D02*
D03*
X970000Y490000D02*
D03*
X900000Y540000D02*
D03*
X910000Y460000D02*
D03*
X970000Y580000D02*
D03*
X870000Y460000D02*
D03*
X880000Y440000D02*
D03*
X970000Y540000D02*
D03*
X1000000Y480000D02*
D03*
Y530000D02*
D03*
Y440000D02*
D03*
X940000Y430000D02*
D03*
X950000Y450000D02*
D03*
M02*
