G04*
G04 #@! TF.GenerationSoftware,Altium Limited,Altium Designer,19.0.10 (269)*
G04*
G04 Layer_Physical_Order=5*
G04 Layer_Color=128*
%FSLAX44Y44*%
%MOMM*%
G71*
G01*
G75*
%ADD10C,0.1500*%
%ADD13C,0.2500*%
%ADD87C,1.7000*%
%ADD88C,1.5000*%
%ADD91C,1.6000*%
%ADD98C,1.0160*%
%ADD99C,3.5000*%
%ADD100C,1.4000*%
%ADD101C,2.1002*%
%ADD102C,3.7000*%
%ADD103C,2.1000*%
%ADD104C,1.3000*%
%ADD105C,0.9000*%
%ADD106C,0.6500*%
%ADD108O,2.1000X1.1000*%
%ADD109C,0.7500*%
D10*
X0Y0D02*
X1600000D01*
Y1000000D01*
X0D02*
X1600000D01*
X0Y0D02*
Y1000000D01*
X-11500Y99900D02*
Y103900D01*
Y141900D02*
Y145900D01*
D13*
X735000Y94800D02*
Y431000D01*
X789000Y485000D01*
X895000D01*
Y505000D02*
Y525000D01*
Y465000D02*
Y485000D01*
X685000Y94800D02*
Y505000D01*
X895000D01*
X735000Y30000D02*
Y135000D01*
X685000Y30000D02*
X735000D01*
X685000D02*
Y155000D01*
X895000Y465000D02*
X945000D01*
X885000Y525000D02*
Y535000D01*
Y525000D02*
X895000D01*
X945000Y455000D02*
Y465000D01*
Y455000D02*
X965000D01*
Y535000D01*
X885000D02*
X965000D01*
D87*
X67000Y898000D02*
D03*
Y828000D02*
D03*
Y727000D02*
D03*
Y657000D02*
D03*
Y813000D02*
D03*
Y743000D02*
D03*
X33218Y430996D02*
D03*
X17978Y355304D02*
D03*
D88*
X541000Y90000D02*
D03*
X455000Y45000D02*
D03*
X410000Y44996D02*
D03*
X455000Y200000D02*
D03*
X455000Y225400D02*
D03*
Y174600D02*
D03*
X500000Y200000D02*
D03*
X500000Y225400D02*
D03*
Y174600D02*
D03*
X410000Y225000D02*
D03*
Y174200D02*
D03*
X55000Y539000D02*
D03*
Y513600D02*
D03*
X80400D02*
D03*
Y539000D02*
D03*
X131200D02*
D03*
Y513600D02*
D03*
X105800D02*
D03*
Y539000D02*
D03*
X55000Y630700D02*
D03*
Y605300D02*
D03*
X80400D02*
D03*
Y630700D02*
D03*
X131200D02*
D03*
Y605300D02*
D03*
X105800D02*
D03*
Y630700D02*
D03*
X1549000Y894000D02*
D03*
X1498200D02*
D03*
X1549000Y868600D02*
D03*
Y843200D02*
D03*
Y817800D02*
D03*
Y792400D02*
D03*
Y767000D02*
D03*
Y741600D02*
D03*
Y716200D02*
D03*
Y690800D02*
D03*
Y665400D02*
D03*
Y640000D02*
D03*
Y614600D02*
D03*
Y589200D02*
D03*
Y563800D02*
D03*
Y538400D02*
D03*
Y513000D02*
D03*
Y487600D02*
D03*
Y462200D02*
D03*
Y436800D02*
D03*
Y411400D02*
D03*
Y386000D02*
D03*
Y360600D02*
D03*
Y335200D02*
D03*
Y309800D02*
D03*
Y284400D02*
D03*
Y259000D02*
D03*
Y233600D02*
D03*
Y208200D02*
D03*
Y182800D02*
D03*
Y157400D02*
D03*
Y132000D02*
D03*
Y106600D02*
D03*
X1523600Y894000D02*
D03*
Y868600D02*
D03*
Y843200D02*
D03*
Y817800D02*
D03*
Y792400D02*
D03*
Y767000D02*
D03*
Y741600D02*
D03*
Y716200D02*
D03*
Y690800D02*
D03*
Y665400D02*
D03*
Y640000D02*
D03*
Y614600D02*
D03*
Y589200D02*
D03*
Y563800D02*
D03*
Y538400D02*
D03*
Y513000D02*
D03*
Y487600D02*
D03*
Y462200D02*
D03*
Y436800D02*
D03*
Y411400D02*
D03*
Y386000D02*
D03*
Y360600D02*
D03*
Y335200D02*
D03*
Y309800D02*
D03*
Y284400D02*
D03*
Y259000D02*
D03*
Y233600D02*
D03*
Y208200D02*
D03*
Y182800D02*
D03*
Y157400D02*
D03*
Y132000D02*
D03*
Y106600D02*
D03*
X1498200Y868600D02*
D03*
Y843200D02*
D03*
Y817800D02*
D03*
Y792400D02*
D03*
Y767000D02*
D03*
Y741600D02*
D03*
Y716200D02*
D03*
Y690800D02*
D03*
Y665400D02*
D03*
Y640000D02*
D03*
Y614600D02*
D03*
Y589200D02*
D03*
Y563800D02*
D03*
Y538400D02*
D03*
Y513000D02*
D03*
Y487600D02*
D03*
Y462200D02*
D03*
Y436800D02*
D03*
Y411400D02*
D03*
Y386000D02*
D03*
Y360600D02*
D03*
Y335200D02*
D03*
Y309800D02*
D03*
Y284400D02*
D03*
Y259000D02*
D03*
Y233600D02*
D03*
Y208200D02*
D03*
Y182800D02*
D03*
Y157400D02*
D03*
Y132000D02*
D03*
Y106600D02*
D03*
X1450000Y80000D02*
D03*
X500000Y90000D02*
D03*
X455000Y136000D02*
D03*
X410000D02*
D03*
X455000Y91000D02*
D03*
D91*
X155900Y399500D02*
D03*
X130500Y386800D02*
D03*
X155900Y424900D02*
D03*
X130500Y437600D02*
D03*
Y412200D02*
D03*
X155900Y374100D02*
D03*
Y348700D02*
D03*
X130500Y361400D02*
D03*
D98*
X0Y0D02*
X1600000D01*
Y1000000D01*
X0D02*
X1600000D01*
X0Y0D02*
Y1000000D01*
D99*
X160000Y50000D02*
D03*
X35000Y945000D02*
D03*
Y55000D02*
D03*
X1575000Y55500D02*
D03*
Y944500D02*
D03*
D100*
X42000Y885500D02*
D03*
Y840500D02*
D03*
Y714500D02*
D03*
Y669500D02*
D03*
Y800500D02*
D03*
Y755500D02*
D03*
D101*
X97480Y471890D02*
D03*
Y314410D02*
D03*
D102*
X67000Y450300D02*
D03*
Y336000D02*
D03*
D103*
X1104500Y920000D02*
D03*
X755500D02*
D03*
X1104500Y80000D02*
D03*
X755500D02*
D03*
Y920000D02*
D03*
X1104500D02*
D03*
X755500Y80000D02*
D03*
X1104500D02*
D03*
D104*
X41000Y243000D02*
D03*
X21000D02*
D03*
X41000Y263000D02*
D03*
Y203000D02*
D03*
Y223000D02*
D03*
X21000Y263000D02*
D03*
Y203000D02*
D03*
Y223000D02*
D03*
Y183000D02*
D03*
D105*
X33000Y119000D02*
D03*
X42000D02*
D03*
X51000D02*
D03*
X60000D02*
D03*
X69000D02*
D03*
X37500Y126800D02*
D03*
X46500D02*
D03*
X55500D02*
D03*
X64500D02*
D03*
X73500D02*
D03*
X78000Y119000D02*
D03*
X82500Y126800D02*
D03*
X87000Y119000D02*
D03*
X91500Y126800D02*
D03*
D106*
X180000Y433750D02*
D03*
X281000Y427500D02*
D03*
X275000Y424000D02*
D03*
X920000Y550000D02*
D03*
X70000Y74000D02*
D03*
X1445000Y192000D02*
D03*
X777600Y52500D02*
D03*
X790300D02*
D03*
X803000D02*
D03*
X815700D02*
D03*
X828400D02*
D03*
X841100D02*
D03*
X942700D02*
D03*
X930000D02*
D03*
X917300D02*
D03*
X904600D02*
D03*
X891900D02*
D03*
X879200D02*
D03*
X866500D02*
D03*
X1031600D02*
D03*
X1018900D02*
D03*
X1006200D02*
D03*
X993500D02*
D03*
X980800D02*
D03*
X968100D02*
D03*
X955400D02*
D03*
X1082400D02*
D03*
X1069700D02*
D03*
X1057000D02*
D03*
X1044300D02*
D03*
X777600Y107500D02*
D03*
X790300D02*
D03*
X803000D02*
D03*
X815700D02*
D03*
X828400D02*
D03*
X841100D02*
D03*
X942700D02*
D03*
X930000D02*
D03*
X917300D02*
D03*
X904600D02*
D03*
X891900D02*
D03*
X879200D02*
D03*
X866500D02*
D03*
X1031600D02*
D03*
X1018900D02*
D03*
X1006200D02*
D03*
X993500D02*
D03*
X980800D02*
D03*
X968100D02*
D03*
X955400D02*
D03*
X1082400D02*
D03*
X1069700D02*
D03*
X1057000D02*
D03*
X1044300D02*
D03*
X777600Y947500D02*
D03*
X790300D02*
D03*
X803000D02*
D03*
X815700D02*
D03*
X828400D02*
D03*
X841100D02*
D03*
X853800D02*
D03*
X942700D02*
D03*
X930000D02*
D03*
X917300D02*
D03*
X904600D02*
D03*
X891900D02*
D03*
X879200D02*
D03*
X866500D02*
D03*
X1031600D02*
D03*
X1018900D02*
D03*
X1006200D02*
D03*
X993500D02*
D03*
X980800D02*
D03*
X968100D02*
D03*
X955400D02*
D03*
X1082400D02*
D03*
X1069700D02*
D03*
X1057000D02*
D03*
X1044300D02*
D03*
Y892500D02*
D03*
X1057000D02*
D03*
X1069700D02*
D03*
X1082400D02*
D03*
X955400D02*
D03*
X968100D02*
D03*
X980800D02*
D03*
X993500D02*
D03*
X1006200D02*
D03*
X1018900D02*
D03*
X1031600D02*
D03*
X866500D02*
D03*
X879200D02*
D03*
X891900D02*
D03*
X904600D02*
D03*
X917300D02*
D03*
X930000D02*
D03*
X942700D02*
D03*
X853800D02*
D03*
X841100D02*
D03*
X828400D02*
D03*
X815700D02*
D03*
X803000D02*
D03*
X790300D02*
D03*
X777600D02*
D03*
X1380000Y200000D02*
D03*
X1375000D02*
D03*
X835000Y140000D02*
D03*
X840000Y165000D02*
D03*
X760000D02*
D03*
X845000Y190000D02*
D03*
X850000Y215000D02*
D03*
X760000D02*
D03*
X780000Y225000D02*
D03*
X760000Y190000D02*
D03*
X780000Y200000D02*
D03*
Y175000D02*
D03*
Y150000D02*
D03*
X760000Y140000D02*
D03*
X950000Y620000D02*
D03*
X1050000Y480000D02*
D03*
X1030000Y530000D02*
D03*
X1000000Y380000D02*
D03*
X900000D02*
D03*
X810000Y560000D02*
D03*
X810000Y470000D02*
D03*
X880000Y480000D02*
D03*
X1370000Y200000D02*
D03*
X722000Y575000D02*
D03*
X820000Y590000D02*
D03*
X462000Y850000D02*
D03*
X392000Y959000D02*
D03*
X491000Y525000D02*
D03*
X110000Y841000D02*
D03*
Y756000D02*
D03*
Y670000D02*
D03*
X370000Y750000D02*
D03*
Y850000D02*
D03*
X419000Y632000D02*
D03*
X406300D02*
D03*
X393600D02*
D03*
X380900D02*
D03*
X101000Y866000D02*
D03*
Y781000D02*
D03*
Y695000D02*
D03*
X406000Y787000D02*
D03*
X406000Y887000D02*
D03*
X436000Y959000D02*
D03*
X175000Y547000D02*
D03*
X175000Y533000D02*
D03*
Y519000D02*
D03*
Y505000D02*
D03*
X175000Y638700D02*
D03*
X175000Y624700D02*
D03*
Y610700D02*
D03*
Y596700D02*
D03*
X841000Y358000D02*
D03*
X825000Y642000D02*
D03*
X845000D02*
D03*
X860000Y470000D02*
D03*
X262999Y538000D02*
D03*
X224000D02*
D03*
X270000Y506000D02*
D03*
X315000Y470000D02*
D03*
X214000Y482000D02*
D03*
Y496000D02*
D03*
X332500Y470000D02*
D03*
X337500Y465000D02*
D03*
X276000Y313000D02*
D03*
X418000Y385000D02*
D03*
X390000Y467500D02*
D03*
X395000Y462500D02*
D03*
X345000Y415000D02*
D03*
X350000Y420000D02*
D03*
X355000Y425000D02*
D03*
X360000Y430000D02*
D03*
X371000Y331000D02*
D03*
X385000D02*
D03*
X348000Y333000D02*
D03*
X390000Y437500D02*
D03*
X327500Y410240D02*
D03*
X307500Y385000D02*
D03*
X362500Y410240D02*
D03*
X335000Y538000D02*
D03*
X351000Y530000D02*
D03*
X362500Y495000D02*
D03*
X379000Y498000D02*
D03*
X287000D02*
D03*
X292620Y473000D02*
D03*
X259000Y398000D02*
D03*
X243000Y370000D02*
D03*
Y384000D02*
D03*
X207000Y361000D02*
D03*
X214500Y334000D02*
D03*
Y348000D02*
D03*
X242500Y426000D02*
D03*
X200000Y86000D02*
D03*
Y80000D02*
D03*
Y74000D02*
D03*
X685000Y60000D02*
D03*
X675000D02*
D03*
X665000D02*
D03*
X655000D02*
D03*
X571000Y145000D02*
D03*
X626970Y121000D02*
D03*
X621970D02*
D03*
X616970D02*
D03*
X635970Y120906D02*
D03*
X608000Y121000D02*
D03*
X233500Y49000D02*
D03*
X247000Y103000D02*
D03*
X235500D02*
D03*
X210000Y44996D02*
D03*
X220500D02*
D03*
X113000Y99000D02*
D03*
X232000Y185000D02*
D03*
X105000Y141000D02*
D03*
X129000Y131000D02*
D03*
X166000Y95000D02*
D03*
X152000D02*
D03*
X113000Y131000D02*
D03*
X102000Y74000D02*
D03*
Y88000D02*
D03*
X1137000Y396000D02*
D03*
X891900Y94800D02*
D03*
Y65200D02*
D03*
X1006200D02*
D03*
Y92300D02*
D03*
X1038000Y269000D02*
D03*
X1012000Y294000D02*
D03*
X1109000Y269000D02*
D03*
X1110000Y344000D02*
D03*
X1097000Y405000D02*
D03*
X1040000Y420000D02*
D03*
X960000Y590000D02*
D03*
X980000Y580000D02*
D03*
X1020000Y510000D02*
D03*
X1010000D02*
D03*
X1000000D02*
D03*
X990000D02*
D03*
X900000D02*
D03*
X860000D02*
D03*
X840000D02*
D03*
Y520000D02*
D03*
X910000D02*
D03*
X940000D02*
D03*
X960000D02*
D03*
X990000D02*
D03*
X1010000D02*
D03*
X1020000D02*
D03*
X830000Y530000D02*
D03*
X840000D02*
D03*
X950000D02*
D03*
X1020000D02*
D03*
X840000Y540000D02*
D03*
X860000D02*
D03*
X880000D02*
D03*
X940000D02*
D03*
X950000D02*
D03*
X960000D02*
D03*
X980000D02*
D03*
X1020000D02*
D03*
X840000Y550000D02*
D03*
X860000D02*
D03*
X970000D02*
D03*
X980000D02*
D03*
X990000D02*
D03*
X1000000D02*
D03*
X1020000D02*
D03*
X840000Y560000D02*
D03*
X960000D02*
D03*
X970000D02*
D03*
X990000D02*
D03*
X1000000D02*
D03*
X1020000D02*
D03*
X830000Y570000D02*
D03*
X850000D02*
D03*
X860000D02*
D03*
X880000D02*
D03*
X920000D02*
D03*
X970000D02*
D03*
X1000000D02*
D03*
X1020000D02*
D03*
X1030000D02*
D03*
X820000Y580000D02*
D03*
X840000D02*
D03*
X850000D02*
D03*
X860000D02*
D03*
X870000D02*
D03*
X880000D02*
D03*
X890000D02*
D03*
X960000D02*
D03*
X1000000D02*
D03*
X1010000D02*
D03*
X1020000D02*
D03*
X840000Y590000D02*
D03*
X850000D02*
D03*
X870000D02*
D03*
X880000D02*
D03*
X890000D02*
D03*
X900000D02*
D03*
X910000D02*
D03*
X950000D02*
D03*
X970000D02*
D03*
X980000D02*
D03*
X990000D02*
D03*
X1000000D02*
D03*
X1010000D02*
D03*
X1020000D02*
D03*
X860000Y600000D02*
D03*
X900000D02*
D03*
X950000D02*
D03*
X990000D02*
D03*
X820000Y610000D02*
D03*
X1010000D02*
D03*
X1040000D02*
D03*
Y390000D02*
D03*
X820000D02*
D03*
X990000Y400000D02*
D03*
X960000D02*
D03*
X950000D02*
D03*
X900000D02*
D03*
X860000D02*
D03*
X820000D02*
D03*
X1010000Y410000D02*
D03*
X1020000Y420000D02*
D03*
X1010000D02*
D03*
X980000D02*
D03*
X880000D02*
D03*
X840000D02*
D03*
X1020000Y430000D02*
D03*
X960000D02*
D03*
X860000D02*
D03*
X850000D02*
D03*
X840000D02*
D03*
X1020000Y440000D02*
D03*
X1010000D02*
D03*
X970000D02*
D03*
X850000D02*
D03*
X840000D02*
D03*
X830000D02*
D03*
X1010000Y450000D02*
D03*
X880000D02*
D03*
X870000D02*
D03*
X850000D02*
D03*
X840000D02*
D03*
X1020000Y460000D02*
D03*
X1010000D02*
D03*
X1000000D02*
D03*
X990000D02*
D03*
X950000D02*
D03*
X900000D02*
D03*
X850000D02*
D03*
X840000D02*
D03*
X1010000Y470000D02*
D03*
X1000000D02*
D03*
X990000D02*
D03*
X980000D02*
D03*
X970000D02*
D03*
X940000D02*
D03*
X870000D02*
D03*
X850000D02*
D03*
X840000D02*
D03*
X1030000Y480000D02*
D03*
X1010000D02*
D03*
X990000D02*
D03*
X980000D02*
D03*
X970000D02*
D03*
X950000D02*
D03*
X900000D02*
D03*
X840000D02*
D03*
X830000D02*
D03*
X840000Y490000D02*
D03*
X910000D02*
D03*
X940000D02*
D03*
X960000D02*
D03*
X980000D02*
D03*
X1000000D02*
D03*
X1010000D02*
D03*
X1020000D02*
D03*
X920000Y480000D02*
D03*
X960000Y470000D02*
D03*
X950000Y510000D02*
D03*
X920000Y530000D02*
D03*
X970000Y510000D02*
D03*
X900000Y530000D02*
D03*
X910000Y470000D02*
D03*
X920000Y460000D02*
D03*
X970000Y530000D02*
D03*
X990000Y580000D02*
D03*
X910000Y540000D02*
D03*
X900000Y560000D02*
D03*
X950000D02*
D03*
X1000000Y520000D02*
D03*
Y450000D02*
D03*
X1010000Y560000D02*
D03*
X920000Y430000D02*
D03*
X830000Y580000D02*
D03*
Y470000D02*
D03*
X1030000Y440000D02*
D03*
D108*
X86500Y108600D02*
D03*
X38500D02*
D03*
Y137200D02*
D03*
X86500D02*
D03*
D109*
X163000Y176000D02*
D03*
Y156000D02*
D03*
X183000D02*
D03*
Y176000D02*
D03*
X173000Y166000D02*
D03*
M02*
