G04*
G04 #@! TF.GenerationSoftware,Altium Limited,Altium Designer,19.0.10 (269)*
G04*
G04 Layer_Physical_Order=4*
G04 Layer_Color=16440176*
%FSLAX44Y44*%
%MOMM*%
G71*
G01*
G75*
%ADD10C,0.1500*%
%ADD87C,1.7000*%
%ADD91C,1.6000*%
%ADD95C,0.7500*%
%ADD96C,0.5000*%
%ADD107C,1.2000*%
D10*
X740000Y485000D02*
X835000D01*
X660000Y565000D02*
X740000Y485000D01*
X157200Y565000D02*
X660000D01*
X740000Y495000D02*
X835000D01*
X665000Y570000D02*
X740000Y495000D01*
X136800Y570000D02*
X665000D01*
X740000Y505000D02*
X835000D01*
X670000Y575000D02*
X740000Y505000D01*
X116400Y575000D02*
X670000D01*
X740000Y515000D02*
X835000D01*
X675000Y580000D02*
X740000Y515000D01*
X96000Y580000D02*
X675000D01*
X740000Y525000D02*
X835000D01*
X680000Y585000D02*
X740000Y525000D01*
X186700Y585000D02*
X680000D01*
X740000Y535000D02*
X835000D01*
X685000Y590000D02*
X740000Y535000D01*
X195700Y590000D02*
X685000D01*
X780000Y600000D02*
X830000D01*
X755300Y624700D02*
X780000Y600000D01*
X240300Y624700D02*
X755300D01*
X781000Y590000D02*
X820000D01*
X750700Y620300D02*
X781000Y590000D01*
X234700Y620300D02*
X750700D01*
X780000Y580000D02*
X820000D01*
X744700Y615300D02*
X780000Y580000D01*
X229700Y615300D02*
X744700D01*
X775000Y575000D02*
X855000D01*
X739700Y610300D02*
X775000Y575000D01*
X224700Y610300D02*
X739700D01*
X775000Y565000D02*
X845000D01*
X734700Y605300D02*
X775000Y565000D01*
X219700Y605300D02*
X734700D01*
X175000Y639700D02*
X176000D01*
X775000Y555000D02*
X835000D01*
X730000Y600000D02*
X775000Y555000D01*
X213700Y600000D02*
X730000D01*
X775000Y545000D02*
X835000D01*
X725000Y595000D02*
X775000Y545000D01*
X204700Y595000D02*
X725000D01*
X835000Y515000D02*
X840000Y520000D01*
X55500Y88500D02*
X70000Y74000D01*
X55500Y88500D02*
Y126800D01*
X845000Y435000D02*
X850000Y440000D01*
X1082400Y107500D02*
Y107600D01*
X965000Y225000D02*
X1082400Y107600D01*
X1057000Y107500D02*
Y120200D01*
X1044300Y107500D02*
Y120200D01*
X1031600Y107500D02*
Y120200D01*
X960000Y590000D02*
Y620000D01*
X942700Y637300D02*
X960000Y620000D01*
X942700Y637300D02*
Y892500D01*
X835000Y585000D02*
Y595000D01*
X830000Y600000D02*
X835000Y595000D01*
X840000Y590000D02*
Y610000D01*
X810000Y640000D02*
X840000Y610000D01*
X235000Y640000D02*
X810000D01*
X845000Y595000D02*
Y614700D01*
X814700Y645000D02*
X845000Y614700D01*
X240000Y645000D02*
X814700D01*
X835000Y505000D02*
X840000Y510000D01*
X835000Y495000D02*
X840000Y490000D01*
X835000Y485000D02*
X840000Y480000D01*
X835000Y525000D02*
X840000Y530000D01*
X835000Y535000D02*
X840000Y540000D01*
X835000Y545000D02*
X840000Y550000D01*
X835000Y555000D02*
X840000Y560000D01*
X845000Y565000D02*
X850000Y570000D01*
X855000Y575000D02*
X860000Y570000D01*
X190000Y655000D02*
X229700Y615300D01*
X835000Y585000D02*
X840000Y580000D01*
X845000Y595000D02*
X850000Y590000D01*
X855000Y585000D02*
X860000Y580000D01*
X855000Y585000D02*
Y655000D01*
X660000Y850000D02*
X855000Y655000D01*
X462000Y850000D02*
X660000D01*
X975000Y428000D02*
Y572000D01*
X972000Y575000D02*
X975000Y572000D01*
X868000Y575000D02*
X972000D01*
X401000Y950000D02*
X602000Y950000D01*
X392000Y959000D02*
X401000Y950000D01*
X602000Y950000D02*
X865000Y687000D01*
X965000Y225000D02*
Y555000D01*
X955000Y222200D02*
X1057000Y120200D01*
X955000Y222200D02*
Y535000D01*
X945000Y219500D02*
X1044300Y120200D01*
X945000Y219500D02*
Y535000D01*
X935000Y216800D02*
Y240000D01*
Y216800D02*
X1031600Y120200D01*
X865000Y578000D02*
Y687000D01*
Y578000D02*
X868000Y575000D01*
X975000Y428000D02*
X978000Y425000D01*
X1035000D01*
X1040000Y420000D01*
X965000Y555000D02*
X970000Y560000D01*
X955000Y555000D02*
X960000Y560000D01*
X938000Y555000D02*
X955000D01*
X935000Y552000D02*
X938000Y555000D01*
X935000Y552000D02*
X935000Y240000D01*
X590000Y435000D02*
X845000D01*
X480000Y545000D02*
X590000Y435000D01*
X195000Y535000D02*
X205000Y545000D01*
X195000Y525000D02*
Y535000D01*
X176000Y506000D02*
X195000Y525000D01*
X185000Y534000D02*
X201000Y550000D01*
X185000Y529000D02*
Y534000D01*
X176000Y520000D02*
X185000Y529000D01*
X175000Y548000D02*
X176000D01*
X865000Y475000D02*
X870000Y470000D01*
X580000Y475000D02*
X865000D01*
X495000Y560000D02*
X580000Y475000D01*
X845000Y465000D02*
X850000Y470000D01*
X580000Y465000D02*
X845000D01*
X490000Y555000D02*
X580000Y465000D01*
X845000Y455000D02*
X850000Y460000D01*
X580000Y455000D02*
X845000D01*
X485000Y550000D02*
X580000Y455000D01*
X201000Y550000D02*
X485000D01*
X205000Y545000D02*
X480000D01*
X616000Y400000D02*
X820000D01*
X491000Y525000D02*
X616000Y400000D01*
X110000Y775000D02*
Y841000D01*
Y775000D02*
X240000Y645000D01*
X119000Y756000D02*
X235000Y640000D01*
X195000Y670000D02*
X240300Y624700D01*
X110000Y670000D02*
X195000D01*
X195000Y660000D02*
X234700Y620300D01*
X90000Y660000D02*
X195000D01*
X104700Y655000D02*
X190000D01*
X185000Y650000D02*
X224700Y610300D01*
X125100Y650000D02*
X185000D01*
X175000Y638700D02*
X213700Y600000D01*
X110000Y756000D02*
X119000D01*
X180000Y645000D02*
X219700Y605300D01*
X60700Y630700D02*
X90000Y660000D01*
X145500Y645000D02*
X180000D01*
X175000Y624700D02*
X204700Y595000D01*
X175000Y610700D02*
X195700Y590000D01*
X175000Y596700D02*
X186700Y585000D01*
X55000Y539000D02*
X96000Y580000D01*
X80400Y539000D02*
X116400Y575000D01*
X105800Y539000D02*
X136800Y570000D01*
X131200Y539000D02*
X157200Y565000D01*
X188000Y560000D02*
X495000D01*
X176000Y548000D02*
X188000Y560000D01*
X197000Y555000D02*
X490000D01*
X176000Y534000D02*
X197000Y555000D01*
X175000Y547000D02*
Y548000D01*
Y638700D02*
Y639700D01*
X55000Y630700D02*
X60700D01*
X131200D02*
X145500Y645000D01*
X105800Y630700D02*
X125100Y650000D01*
X80400Y630700D02*
X104700Y655000D01*
X955000Y535000D02*
X960000Y540000D01*
X945000Y535000D02*
X950000Y540000D01*
X890000Y580000D02*
X895000Y585000D01*
Y615000D01*
X904600Y624600D01*
Y892500D01*
X880000Y580000D02*
X885000Y585000D01*
Y615000D01*
X891900Y621900D01*
X870000Y580000D02*
X875000Y585000D01*
X891900Y621900D02*
Y892500D01*
X875000Y620000D02*
Y620000D01*
Y585000D02*
Y620000D01*
X879200Y624200D01*
Y892500D01*
X930000Y630000D02*
Y892500D01*
Y630000D02*
X945000Y615000D01*
Y595000D02*
Y615000D01*
Y595000D02*
X945000D01*
X950000Y590000D01*
X960000Y580000D02*
X965000Y585000D01*
Y615000D01*
X968100Y618100D01*
Y892500D01*
X980000Y580000D02*
X985000Y585000D01*
Y615000D01*
X993500Y623500D01*
Y892500D01*
X990000Y560000D02*
X995000Y565000D01*
Y572000D01*
X998000Y575000D01*
X1000000Y560000D02*
X1005000Y565000D01*
X1195000Y565000D02*
X1386700Y373300D01*
X1036000Y565000D02*
X1195000Y565000D01*
X1005000Y565000D02*
X1036000D01*
X1195100Y555000D02*
X1389600Y360500D01*
X1035000Y555000D02*
X1195100Y555000D01*
X990000Y550000D02*
X995000Y555000D01*
X1035000D01*
X980000Y550000D02*
X985000Y545000D01*
X1195000Y545000D02*
X1392100Y347900D01*
X1035000Y545000D02*
X1195000Y545000D01*
X985000Y545000D02*
X1035000D01*
X1195000Y535000D02*
X1407500Y322500D01*
X1025000Y535000D02*
X1195000Y535000D01*
X980000Y540000D02*
X985000Y535000D01*
X1025000Y535000D01*
X1195000Y525000D02*
X1422000Y298000D01*
X1044000Y525000D02*
X1195000Y525000D01*
X1010000Y520000D02*
X1015000Y525000D01*
X1044000D01*
X990000Y520000D02*
X995000Y515000D01*
X1195000Y575000D02*
X1384100Y385900D01*
X998000Y575000D02*
X1195000Y575000D01*
X1384100Y385900D02*
X1498100D01*
X1536300Y373300D02*
X1549000Y360600D01*
X1386700Y373300D02*
X1536300Y373300D01*
X1510900Y347900D02*
X1523600Y360600D01*
X1392100Y347900D02*
X1510900D01*
X1484500Y195500D02*
X1536300D01*
X1549000Y182800D01*
X1389600Y360500D02*
X1498100D01*
X995000Y465000D02*
X1215000Y465000D01*
X1484500Y195500D01*
X990000Y470000D02*
X995000Y465000D01*
X985000Y475000D02*
X1215000Y475000D01*
X980000Y480000D02*
X985000Y475000D01*
X980000Y490000D02*
X985000Y485000D01*
X995000Y515000D02*
X1038000D01*
X1215000Y475000D02*
X1469000Y221000D01*
X1510900Y322500D02*
X1523600Y309800D01*
X1407500Y322500D02*
X1510900D01*
X1469100Y220900D02*
X1536300D01*
X1549000Y233600D01*
X1453700Y246300D02*
X1536300D01*
X1549000Y259000D01*
X1438204Y271700D02*
X1536300D01*
X1549000Y284400D01*
X1422900Y297100D02*
X1536300D01*
X1549000Y309800D01*
X1464000Y226000D02*
X1469100Y220900D01*
X1450000Y250000D02*
X1453700Y246300D01*
X985000Y485000D02*
X1215000Y485000D01*
X1453000Y247000D01*
X1432000Y277904D02*
X1436904Y273000D01*
X1438204Y271700D01*
X1038000Y515000D02*
X1194904Y515000D01*
X1436904Y273000D01*
X1415000Y305000D02*
X1422900Y297100D01*
X0Y0D02*
X1600000D01*
Y1000000D01*
X0D02*
X1600000D01*
X0Y0D02*
Y1000000D01*
X-11500Y99900D02*
Y103900D01*
Y141900D02*
Y145900D01*
D87*
X55000Y539000D02*
D03*
X80400D02*
D03*
X131200D02*
D03*
X105800D02*
D03*
X55000Y630700D02*
D03*
X80400D02*
D03*
X131200D02*
D03*
X105800D02*
D03*
X1549000Y360600D02*
D03*
Y309800D02*
D03*
Y284400D02*
D03*
Y259000D02*
D03*
Y233600D02*
D03*
Y182800D02*
D03*
X1523600Y360600D02*
D03*
Y309800D02*
D03*
X1498200Y386000D02*
D03*
Y360600D02*
D03*
D91*
X1104500Y920000D02*
D03*
X755500D02*
D03*
X1104500Y80000D02*
D03*
X755500D02*
D03*
Y920000D02*
D03*
X1104500D02*
D03*
X755500Y80000D02*
D03*
X1104500D02*
D03*
D95*
X55500Y126800D02*
D03*
D96*
X70000Y74000D02*
D03*
X1031600Y107500D02*
D03*
X1082400D02*
D03*
X1057000D02*
D03*
X1044300D02*
D03*
X968100Y892500D02*
D03*
X993500D02*
D03*
X879200D02*
D03*
X891900D02*
D03*
X904600D02*
D03*
X930000D02*
D03*
X942700D02*
D03*
X820000Y590000D02*
D03*
X462000Y850000D02*
D03*
X392000Y959000D02*
D03*
X491000Y525000D02*
D03*
X110000Y841000D02*
D03*
Y756000D02*
D03*
Y670000D02*
D03*
X175000Y547000D02*
D03*
X175000Y533000D02*
D03*
Y519000D02*
D03*
Y505000D02*
D03*
X175000Y638700D02*
D03*
X175000Y624700D02*
D03*
Y610700D02*
D03*
Y596700D02*
D03*
X1040000Y420000D02*
D03*
X960000Y590000D02*
D03*
X980000Y580000D02*
D03*
X840000Y510000D02*
D03*
Y520000D02*
D03*
X990000D02*
D03*
X1010000D02*
D03*
X840000Y530000D02*
D03*
Y540000D02*
D03*
X950000D02*
D03*
X960000D02*
D03*
X980000D02*
D03*
X840000Y550000D02*
D03*
X980000D02*
D03*
X990000D02*
D03*
X840000Y560000D02*
D03*
X960000D02*
D03*
X970000D02*
D03*
X990000D02*
D03*
X1000000D02*
D03*
X850000Y570000D02*
D03*
X860000D02*
D03*
X820000Y580000D02*
D03*
X840000D02*
D03*
X860000D02*
D03*
X870000D02*
D03*
X880000D02*
D03*
X890000D02*
D03*
X960000D02*
D03*
X840000Y590000D02*
D03*
X850000D02*
D03*
X950000D02*
D03*
X820000Y400000D02*
D03*
X850000Y440000D02*
D03*
Y460000D02*
D03*
X990000Y470000D02*
D03*
X870000D02*
D03*
X850000D02*
D03*
X980000Y480000D02*
D03*
X840000D02*
D03*
Y490000D02*
D03*
X980000D02*
D03*
D107*
X67000Y828000D02*
D03*
Y727000D02*
D03*
Y813000D02*
D03*
Y743000D02*
D03*
M02*
