G04*
G04 #@! TF.GenerationSoftware,Altium Limited,Altium Designer,19.0.10 (269)*
G04*
G04 Layer_Physical_Order=1*
G04 Layer_Color=255*
%FSLAX44Y44*%
%MOMM*%
G71*
G01*
G75*
%ADD10C,0.1500*%
%ADD12C,0.2540*%
%ADD14C,0.5000*%
G04:AMPARAMS|DCode=57|XSize=0.75mm|YSize=0.9mm|CornerRadius=0.0938mm|HoleSize=0mm|Usage=FLASHONLY|Rotation=0.000|XOffset=0mm|YOffset=0mm|HoleType=Round|Shape=RoundedRectangle|*
%AMROUNDEDRECTD57*
21,1,0.7500,0.7125,0,0,0.0*
21,1,0.5625,0.9000,0,0,0.0*
1,1,0.1875,0.2813,-0.3563*
1,1,0.1875,-0.2813,-0.3563*
1,1,0.1875,-0.2813,0.3563*
1,1,0.1875,0.2813,0.3563*
%
%ADD57ROUNDEDRECTD57*%
G04:AMPARAMS|DCode=58|XSize=0.6mm|YSize=1.4mm|CornerRadius=0.15mm|HoleSize=0mm|Usage=FLASHONLY|Rotation=0.000|XOffset=0mm|YOffset=0mm|HoleType=Round|Shape=RoundedRectangle|*
%AMROUNDEDRECTD58*
21,1,0.6000,1.1000,0,0,0.0*
21,1,0.3000,1.4000,0,0,0.0*
1,1,0.3000,0.1500,-0.5500*
1,1,0.3000,-0.1500,-0.5500*
1,1,0.3000,-0.1500,0.5500*
1,1,0.3000,0.1500,0.5500*
%
%ADD58ROUNDEDRECTD58*%
G04:AMPARAMS|DCode=59|XSize=1mm|YSize=1.4mm|CornerRadius=0.25mm|HoleSize=0mm|Usage=FLASHONLY|Rotation=180.000|XOffset=0mm|YOffset=0mm|HoleType=Round|Shape=RoundedRectangle|*
%AMROUNDEDRECTD59*
21,1,1.0000,0.9000,0,0,180.0*
21,1,0.5000,1.4000,0,0,180.0*
1,1,0.5000,-0.2500,0.4500*
1,1,0.5000,0.2500,0.4500*
1,1,0.5000,0.2500,-0.4500*
1,1,0.5000,-0.2500,-0.4500*
%
%ADD59ROUNDEDRECTD59*%
G04:AMPARAMS|DCode=60|XSize=0.75mm|YSize=0.9mm|CornerRadius=0.0938mm|HoleSize=0mm|Usage=FLASHONLY|Rotation=90.000|XOffset=0mm|YOffset=0mm|HoleType=Round|Shape=RoundedRectangle|*
%AMROUNDEDRECTD60*
21,1,0.7500,0.7125,0,0,90.0*
21,1,0.5625,0.9000,0,0,90.0*
1,1,0.1875,0.3563,0.2813*
1,1,0.1875,0.3563,-0.2813*
1,1,0.1875,-0.3563,-0.2813*
1,1,0.1875,-0.3563,0.2813*
%
%ADD60ROUNDEDRECTD60*%
%ADD61R,1.1500X0.6000*%
G04:AMPARAMS|DCode=62|XSize=2.1mm|YSize=1.6mm|CornerRadius=0.2mm|HoleSize=0mm|Usage=FLASHONLY|Rotation=0.000|XOffset=0mm|YOffset=0mm|HoleType=Round|Shape=RoundedRectangle|*
%AMROUNDEDRECTD62*
21,1,2.1000,1.2000,0,0,0.0*
21,1,1.7000,1.6000,0,0,0.0*
1,1,0.4000,0.8500,-0.6000*
1,1,0.4000,-0.8500,-0.6000*
1,1,0.4000,-0.8500,0.6000*
1,1,0.4000,0.8500,0.6000*
%
%ADD62ROUNDEDRECTD62*%
%ADD63R,0.8000X1.3000*%
%ADD64R,4.9000X2.2000*%
%ADD65R,1.0000X0.6000*%
G04:AMPARAMS|DCode=66|XSize=1.1mm|YSize=1.35mm|CornerRadius=0.1375mm|HoleSize=0mm|Usage=FLASHONLY|Rotation=180.000|XOffset=0mm|YOffset=0mm|HoleType=Round|Shape=RoundedRectangle|*
%AMROUNDEDRECTD66*
21,1,1.1000,1.0750,0,0,180.0*
21,1,0.8250,1.3500,0,0,180.0*
1,1,0.2750,-0.4125,0.5375*
1,1,0.2750,0.4125,0.5375*
1,1,0.2750,0.4125,-0.5375*
1,1,0.2750,-0.4125,-0.5375*
%
%ADD66ROUNDEDRECTD66*%
G04:AMPARAMS|DCode=67|XSize=1.1mm|YSize=1.35mm|CornerRadius=0.1375mm|HoleSize=0mm|Usage=FLASHONLY|Rotation=270.000|XOffset=0mm|YOffset=0mm|HoleType=Round|Shape=RoundedRectangle|*
%AMROUNDEDRECTD67*
21,1,1.1000,1.0750,0,0,270.0*
21,1,0.8250,1.3500,0,0,270.0*
1,1,0.2750,-0.5375,-0.4125*
1,1,0.2750,-0.5375,0.4125*
1,1,0.2750,0.5375,0.4125*
1,1,0.2750,0.5375,-0.4125*
%
%ADD67ROUNDEDRECTD67*%
%ADD68R,0.8128X0.3048*%
%ADD69R,1.4986X2.2352*%
%ADD70R,2.2000X4.9000*%
G04:AMPARAMS|DCode=71|XSize=1.8mm|YSize=1.6mm|CornerRadius=0.2mm|HoleSize=0mm|Usage=FLASHONLY|Rotation=270.000|XOffset=0mm|YOffset=0mm|HoleType=Round|Shape=RoundedRectangle|*
%AMROUNDEDRECTD71*
21,1,1.8000,1.2000,0,0,270.0*
21,1,1.4000,1.6000,0,0,270.0*
1,1,0.4000,-0.6000,-0.7000*
1,1,0.4000,-0.6000,0.7000*
1,1,0.4000,0.6000,0.7000*
1,1,0.4000,0.6000,-0.7000*
%
%ADD71ROUNDEDRECTD71*%
G04:AMPARAMS|DCode=72|XSize=0.6mm|YSize=1.45mm|CornerRadius=0.15mm|HoleSize=0mm|Usage=FLASHONLY|Rotation=90.000|XOffset=0mm|YOffset=0mm|HoleType=Round|Shape=RoundedRectangle|*
%AMROUNDEDRECTD72*
21,1,0.6000,1.1500,0,0,90.0*
21,1,0.3000,1.4500,0,0,90.0*
1,1,0.3000,0.5750,0.1500*
1,1,0.3000,0.5750,-0.1500*
1,1,0.3000,-0.5750,-0.1500*
1,1,0.3000,-0.5750,0.1500*
%
%ADD72ROUNDEDRECTD72*%
%ADD73R,1.4750X0.3000*%
%ADD74R,0.3000X1.4750*%
G04:AMPARAMS|DCode=75|XSize=0.6mm|YSize=0.6mm|CornerRadius=0.075mm|HoleSize=0mm|Usage=FLASHONLY|Rotation=270.000|XOffset=0mm|YOffset=0mm|HoleType=Round|Shape=RoundedRectangle|*
%AMROUNDEDRECTD75*
21,1,0.6000,0.4500,0,0,270.0*
21,1,0.4500,0.6000,0,0,270.0*
1,1,0.1500,-0.2250,-0.2250*
1,1,0.1500,-0.2250,0.2250*
1,1,0.1500,0.2250,0.2250*
1,1,0.1500,0.2250,-0.2250*
%
%ADD75ROUNDEDRECTD75*%
%ADD76R,3.2000X3.2000*%
G04:AMPARAMS|DCode=77|XSize=0.9mm|YSize=0.28mm|CornerRadius=0.07mm|HoleSize=0mm|Usage=FLASHONLY|Rotation=0.000|XOffset=0mm|YOffset=0mm|HoleType=Round|Shape=RoundedRectangle|*
%AMROUNDEDRECTD77*
21,1,0.9000,0.1400,0,0,0.0*
21,1,0.7600,0.2800,0,0,0.0*
1,1,0.1400,0.3800,-0.0700*
1,1,0.1400,-0.3800,-0.0700*
1,1,0.1400,-0.3800,0.0700*
1,1,0.1400,0.3800,0.0700*
%
%ADD77ROUNDEDRECTD77*%
G04:AMPARAMS|DCode=78|XSize=0.9mm|YSize=0.28mm|CornerRadius=0.07mm|HoleSize=0mm|Usage=FLASHONLY|Rotation=90.000|XOffset=0mm|YOffset=0mm|HoleType=Round|Shape=RoundedRectangle|*
%AMROUNDEDRECTD78*
21,1,0.9000,0.1400,0,0,90.0*
21,1,0.7600,0.2800,0,0,90.0*
1,1,0.1400,0.0700,0.3800*
1,1,0.1400,0.0700,-0.3800*
1,1,0.1400,-0.0700,-0.3800*
1,1,0.1400,-0.0700,0.3800*
%
%ADD78ROUNDEDRECTD78*%
%ADD79C,0.5400*%
%ADD80R,1.2000X2.7000*%
G04:AMPARAMS|DCode=81|XSize=0.8mm|YSize=1.1mm|CornerRadius=0.1mm|HoleSize=0mm|Usage=FLASHONLY|Rotation=180.000|XOffset=0mm|YOffset=0mm|HoleType=Round|Shape=RoundedRectangle|*
%AMROUNDEDRECTD81*
21,1,0.8000,0.9000,0,0,180.0*
21,1,0.6000,1.1000,0,0,180.0*
1,1,0.2000,-0.3000,0.4500*
1,1,0.2000,0.3000,0.4500*
1,1,0.2000,0.3000,-0.4500*
1,1,0.2000,-0.3000,-0.4500*
%
%ADD81ROUNDEDRECTD81*%
%ADD82C,0.3500*%
%ADD83C,0.8000*%
%ADD84C,2.5000*%
%ADD85C,2.0000*%
%ADD86C,3.0000*%
%ADD87C,1.7000*%
%ADD88C,1.5000*%
%ADD89C,1.8000*%
%ADD90C,3.2000*%
%ADD91C,1.6000*%
G04:AMPARAMS|DCode=92|XSize=1.2192mm|YSize=1.7272mm|CornerRadius=0.3048mm|HoleSize=0mm|Usage=FLASHONLY|Rotation=270.000|XOffset=0mm|YOffset=0mm|HoleType=Round|Shape=RoundedRectangle|*
%AMROUNDEDRECTD92*
21,1,1.2192,1.1176,0,0,270.0*
21,1,0.6096,1.7272,0,0,270.0*
1,1,0.6096,-0.5588,-0.3048*
1,1,0.6096,-0.5588,0.3048*
1,1,0.6096,0.5588,0.3048*
1,1,0.6096,0.5588,-0.3048*
%
%ADD92ROUNDEDRECTD92*%
G04:AMPARAMS|DCode=93|XSize=1.2192mm|YSize=1.7272mm|CornerRadius=0mm|HoleSize=0mm|Usage=FLASHONLY|Rotation=270.000|XOffset=0mm|YOffset=0mm|HoleType=Round|Shape=Octagon|*
%AMOCTAGOND93*
4,1,8,0.8636,0.3048,0.8636,-0.3048,0.5588,-0.6096,-0.5588,-0.6096,-0.8636,-0.3048,-0.8636,0.3048,-0.5588,0.6096,0.5588,0.6096,0.8636,0.3048,0.0*
%
%ADD93OCTAGOND93*%

%ADD94O,2.0000X1.0000*%
%ADD95C,0.7500*%
%ADD96C,0.5000*%
%ADD97C,0.6000*%
G36*
X270000Y359000D02*
X254000D01*
Y373000D01*
X270000D01*
Y359000D01*
D02*
G37*
G36*
X753000Y230000D02*
X748000Y225000D01*
X753000Y220000D01*
Y218000D01*
X746000D01*
Y232000D01*
X753000D01*
Y230000D01*
D02*
G37*
G36*
X774000Y218000D02*
X767000D01*
X767000Y220000D01*
X772000Y225000D01*
X767000Y230000D01*
Y232000D01*
X774000D01*
Y218000D01*
D02*
G37*
G36*
X765000Y229000D02*
X768000Y226000D01*
Y224000D01*
X765000Y221000D01*
X765000Y218000D01*
X755000D01*
Y221000D01*
X752000Y224000D01*
X752000Y226000D01*
X755000Y229000D01*
Y232000D01*
X765000D01*
Y229000D01*
D02*
G37*
G36*
X753000Y205000D02*
X748000Y200000D01*
X753000Y195000D01*
Y193000D01*
X746000D01*
Y207000D01*
X753000D01*
Y205000D01*
D02*
G37*
G36*
X774000Y193000D02*
X767000D01*
X767000Y195000D01*
X772000Y200000D01*
X767000Y205000D01*
Y207000D01*
X774000D01*
Y193000D01*
D02*
G37*
G36*
X765000Y204000D02*
X768000Y201000D01*
Y199000D01*
X765000Y196000D01*
X765000Y193000D01*
X755000D01*
Y196000D01*
X752000Y199000D01*
X752000Y201000D01*
X755000Y204000D01*
Y207000D01*
X765000D01*
Y204000D01*
D02*
G37*
G36*
X753000Y180000D02*
X748000Y175000D01*
X753000Y170000D01*
Y168000D01*
X746000D01*
Y182000D01*
X753000D01*
Y180000D01*
D02*
G37*
G36*
X774000Y168000D02*
X767000D01*
X767000Y170000D01*
X772000Y175000D01*
X767000Y180000D01*
Y182000D01*
X774000D01*
Y168000D01*
D02*
G37*
G36*
X765000Y179000D02*
X768000Y176000D01*
Y174000D01*
X765000Y171000D01*
X765000Y168000D01*
X755000D01*
Y171000D01*
X752000Y174000D01*
X752000Y176000D01*
X755000Y179000D01*
Y182000D01*
X765000D01*
Y179000D01*
D02*
G37*
G36*
X1460000Y152000D02*
X1436000D01*
Y182000D01*
X1460000D01*
Y152000D01*
D02*
G37*
G36*
X1417000Y165000D02*
X1432000D01*
X1432000Y152000D01*
X1363000Y152000D01*
Y180000D01*
X1417000D01*
Y165000D01*
D02*
G37*
G36*
X753000Y155000D02*
X748000Y150000D01*
X753000Y145000D01*
Y143000D01*
X746000D01*
Y157000D01*
X753000D01*
Y155000D01*
D02*
G37*
G36*
X1483000Y182000D02*
Y170000D01*
X1559900Y170000D01*
Y143100D01*
X1559859Y143000D01*
X1477658D01*
X1477375Y143056D01*
X1466625D01*
X1466342Y143000D01*
X1421000D01*
Y150000D01*
X1462000D01*
Y182000D01*
X1483000Y182000D01*
D02*
G37*
G36*
X774000Y143000D02*
X767000D01*
X767000Y145000D01*
X772000Y150000D01*
X767000Y155000D01*
Y157000D01*
X774000D01*
Y143000D01*
D02*
G37*
G36*
X765000Y154000D02*
X768000Y151000D01*
Y149000D01*
X765000Y146000D01*
X765000Y143000D01*
X755000D01*
Y146000D01*
X752000Y149000D01*
X752000Y150999D01*
X755000Y154000D01*
Y157000D01*
X765000D01*
Y154000D01*
D02*
G37*
G36*
X555000Y123000D02*
X602000D01*
Y112000D01*
X602466D01*
Y111882D01*
X612000D01*
Y108624D01*
X579000D01*
X578943Y108600D01*
X575000D01*
X525000Y108600D01*
X525000Y123000D01*
Y187000D01*
X485000D01*
Y213000D01*
X555000D01*
Y123000D01*
D02*
G37*
G36*
X1560000Y95083D02*
X1559800Y95000D01*
X1537000Y95000D01*
X1537000Y115000D01*
X1529080D01*
X1528643Y115335D01*
X1526210Y116343D01*
X1523600Y116686D01*
X1520990Y116343D01*
X1518557Y115335D01*
X1518120Y115000D01*
X1503680D01*
X1503243Y115335D01*
X1500811Y116343D01*
X1498200Y116686D01*
X1495589Y116343D01*
X1493157Y115335D01*
X1492720Y115000D01*
X1363000D01*
X1363000Y141000D01*
X1560000D01*
Y95083D01*
D02*
G37*
G36*
X630000Y90000D02*
X604000D01*
Y101376D01*
X612000D01*
X613148Y101852D01*
X613199Y101976D01*
X613594D01*
Y102000D01*
X614000D01*
Y136000D01*
X607052D01*
X606813Y136048D01*
X601188D01*
X600948Y136000D01*
X598000D01*
Y125000D01*
X580000D01*
X580000Y143000D01*
X630000D01*
X630000Y90000D01*
D02*
G37*
G36*
X171000Y111000D02*
X145000D01*
Y91000D01*
X151606D01*
X152000Y90922D01*
X152394Y91000D01*
X165606D01*
X166000Y90922D01*
X166394Y91000D01*
X227000D01*
Y81000D01*
X240000D01*
X240000Y72000D01*
X198000D01*
X190000Y80000D01*
X125000D01*
Y115000D01*
X135000D01*
Y123000D01*
X171000D01*
Y111000D01*
D02*
G37*
G36*
X323000Y69000D02*
X253000D01*
Y101000D01*
X323000D01*
Y69000D01*
D02*
G37*
G36*
X251000Y61000D02*
X224000D01*
Y40000D01*
X206000D01*
Y69000D01*
X242000Y69000D01*
X242000Y83000D01*
X231000Y83000D01*
X231000Y107000D01*
X251000D01*
Y61000D01*
D02*
G37*
G36*
X690000Y77000D02*
Y55000D01*
X650000Y55000D01*
Y77000D01*
X690000Y77000D01*
D02*
G37*
G36*
X612000Y103000D02*
X602000D01*
Y88000D01*
X607000D01*
Y32000D01*
X579000D01*
Y107000D01*
X612000D01*
Y103000D01*
D02*
G37*
G36*
X696000Y81000D02*
X647000D01*
Y31600D01*
X614000D01*
Y88000D01*
X632000D01*
Y96896D01*
X641534D01*
Y97000D01*
X696000D01*
Y81000D01*
D02*
G37*
G36*
X323000Y30000D02*
X253000D01*
Y59000D01*
X323000D01*
Y30000D01*
D02*
G37*
D10*
X446000Y500100D02*
G03*
X443000Y503100I-3000J0D01*
G01*
D02*
G03*
X440000Y500100I0J-3000D01*
G01*
X434000D02*
G03*
X431000Y503100I-3000J0D01*
G01*
X477400Y515000D02*
G03*
X452000Y489600I0J-25400D01*
G01*
X446000D02*
G03*
X449000Y486600I3000J0D01*
G01*
X434000Y489600D02*
G03*
X437000Y486600I3000J0D01*
G01*
X431000Y503100D02*
G03*
X428000Y500100I0J-3000D01*
G01*
X422000Y489600D02*
G03*
X425000Y486600I3000J0D01*
G01*
X422000Y500100D02*
G03*
X419000Y503100I-3000J0D01*
G01*
D02*
G03*
X416000Y500100I0J-3000D01*
G01*
X413000Y452500D02*
G03*
X416000Y455500I0J3000D01*
G01*
X437000Y486600D02*
G03*
X440000Y489600I0J3000D01*
G01*
X425000Y486600D02*
G03*
X428000Y489600I0J3000D01*
G01*
X449000Y486600D02*
G03*
X452000Y489600I0J3000D01*
G01*
X539000Y490000D02*
G03*
X532172Y487172I0J-9657D01*
G01*
X466000Y435000D02*
G03*
X463000Y438000I-3000J0D01*
G01*
X454000Y435000D02*
G03*
X451000Y438000I-3000J0D01*
G01*
X463000D02*
G03*
X460000Y435000I0J-3000D01*
G01*
X442000D02*
G03*
X439000Y438000I-3000J0D01*
G01*
X451000D02*
G03*
X448000Y435000I0J-3000D01*
G01*
X466000Y430500D02*
G03*
X469000Y427500I3000J0D01*
G01*
D02*
G03*
X474975Y429975I0J8450D01*
G01*
X430000Y435000D02*
G03*
X427000Y438000I-3000J0D01*
G01*
X439000D02*
G03*
X436000Y435000I0J-3000D01*
G01*
X427000Y438000D02*
G03*
X424000Y435000I0J-3000D01*
G01*
X418000D02*
G03*
X415000Y438000I-3000J0D01*
G01*
D02*
G03*
X412000Y435000I0J-3000D01*
G01*
X406000Y430500D02*
G03*
X403000Y433500I-3000J0D01*
G01*
X406000Y430500D02*
G03*
X409000Y427500I3000J0D01*
G01*
X397000D02*
G03*
X400000Y430500I0J3000D01*
G01*
X457000Y427500D02*
G03*
X460000Y430500I0J3000D01*
G01*
X445000Y427500D02*
G03*
X448000Y430500I0J3000D01*
G01*
X454000D02*
G03*
X457000Y427500I3000J0D01*
G01*
X442000Y430500D02*
G03*
X445000Y427500I3000J0D01*
G01*
X430000Y430500D02*
G03*
X433000Y427500I3000J0D01*
G01*
X418000Y430500D02*
G03*
X421000Y427500I3000J0D01*
G01*
X433000D02*
G03*
X436000Y430500I0J3000D01*
G01*
X421000Y427500D02*
G03*
X424000Y430500I0J3000D01*
G01*
X409000Y427500D02*
G03*
X412000Y430500I0J3000D01*
G01*
X403000Y433500D02*
G03*
X400000Y430500I0J-3000D01*
G01*
X191000Y412000D02*
G03*
X190800Y412200I-200J0D01*
G01*
X157000Y426000D02*
G03*
X155900Y424900I0J-1100D01*
G01*
X183250Y449250D02*
G03*
X180750Y446750I0J-2500D01*
G01*
X173250Y449250D02*
G03*
X170750Y446750I0J-2500D01*
G01*
X175750D02*
G03*
X173250Y449250I-2500J0D01*
G01*
X178250Y442500D02*
G03*
X180750Y445000I0J2500D01*
G01*
X175750D02*
G03*
X178250Y442500I2500J0D01*
G01*
X258000Y436047D02*
G03*
X244797Y449250I-13203J0D01*
G01*
X258000Y422000D02*
G03*
X269000Y411000I11000J0D01*
G01*
X163250Y449250D02*
G03*
X160750Y446750I0J-2500D01*
G01*
X165750D02*
G03*
X163250Y449250I-2500J0D01*
G01*
X153250D02*
G03*
X150750Y446750I0J-2500D01*
G01*
X155750D02*
G03*
X153250Y449250I-2500J0D01*
G01*
X145750Y446750D02*
G03*
X143250Y449250I-2500J0D01*
G01*
X125650D02*
G03*
X122000Y445600I0J-3650D01*
G01*
X148250Y438000D02*
G03*
X150750Y440500I0J2500D01*
G01*
X145750D02*
G03*
X148250Y438000I2500J0D01*
G01*
X158250D02*
G03*
X160750Y440500I0J2500D01*
G01*
X155750Y440500D02*
G03*
X158250Y438000I2500J0D01*
G01*
X165750Y440500D02*
G03*
X168250Y438000I2500J0D01*
G01*
X168250D02*
G03*
X170750Y440500I0J2500D01*
G01*
X275000Y424000D02*
G03*
X276500Y422500I1500J0D01*
G01*
X130900Y438000D02*
G03*
X130500Y437600I0J-400D01*
G01*
X125103Y457000D02*
G03*
X114250Y446147I0J-10853D01*
G01*
Y437600D02*
G03*
X126950Y424900I12700J0D01*
G01*
X265750Y422000D02*
G03*
X269000Y418750I3250J0D01*
G01*
X265750Y435500D02*
G03*
X244250Y457000I-21500J0D01*
G01*
X86500Y153750D02*
G03*
X71500Y138750I0J-15000D01*
G01*
X86500Y158250D02*
G03*
X67000Y138750I0J-19500D01*
G01*
X41000Y670000D02*
X87000D01*
X477400Y515000D02*
X825000D01*
X446000Y489600D02*
Y500100D01*
X434000Y489600D02*
Y500100D01*
X440000Y489600D02*
Y500100D01*
X428000Y489600D02*
Y500100D01*
X422000Y489600D02*
Y500100D01*
X416000Y455500D02*
Y500100D01*
X377380Y452500D02*
X413000D01*
X539000Y490000D02*
X830000Y490000D01*
X474975Y429975D02*
X532172Y487172D01*
X466000Y430500D02*
Y435000D01*
X460000Y430500D02*
Y435000D01*
X454000Y430500D02*
Y435000D01*
X442000Y430500D02*
Y435000D01*
X448000Y430500D02*
Y435000D01*
X436000Y430500D02*
Y435000D01*
X424000Y430500D02*
Y435000D01*
X430000Y430500D02*
Y435000D01*
X418000Y430500D02*
Y435000D01*
X412000Y435000D02*
X412000Y435000D01*
X377380Y427500D02*
X397000D01*
X540000Y485000D02*
X825000D01*
X477500Y422500D02*
X540000Y485000D01*
X377380Y422500D02*
X477500D01*
X412000Y430500D02*
Y435000D01*
X457000Y442000D02*
X510000Y495000D01*
X377380Y432500D02*
X394000D01*
X403500Y442000D02*
X457000D01*
X394000Y432500D02*
X403500Y442000D01*
X424000Y520000D02*
X830000D01*
X405000Y501000D02*
X424000Y520000D01*
X405000Y460000D02*
Y501000D01*
X402500Y457500D02*
X405000Y460000D01*
X377380Y457500D02*
X402500D01*
X180000Y433750D02*
X186250Y440000D01*
X191000D01*
X179800Y398000D02*
X191000D01*
X155900Y374100D02*
X179800Y398000D01*
X130500Y412200D02*
X190800D01*
X157000Y426000D02*
X191000D01*
X126950Y424900D02*
X155900D01*
X419050Y620000D02*
Y632000D01*
X406350Y620000D02*
Y632000D01*
X393650Y620000D02*
Y632000D01*
X380950Y620000D02*
Y632000D01*
X173000Y166000D02*
X185500Y153500D01*
X155500Y148500D02*
X170500Y163500D01*
X235700Y412200D02*
Y425700D01*
X236000Y426000D01*
X242500D01*
X235200D02*
X236000D01*
X183250Y449250D02*
X244797D01*
X180750Y445000D02*
Y446750D01*
X180750Y445000D02*
X180750D01*
X175750Y446750D02*
X175750D01*
X175750Y445000D02*
Y446750D01*
X170750Y440500D02*
Y446750D01*
X269000Y411000D02*
X284750D01*
X258000Y422000D02*
Y436047D01*
X125650Y449250D02*
X143250D01*
X155750Y440500D02*
Y446750D01*
X150750Y440500D02*
Y446750D01*
X165750Y440500D02*
Y446750D01*
X160750Y440500D02*
Y446750D01*
X145750Y440500D02*
Y446750D01*
X122000Y437600D02*
Y445600D01*
X276500Y422500D02*
X292620D01*
X281000Y427500D02*
X292620D01*
X114250Y437600D02*
Y446147D01*
X286250Y412500D02*
X292620D01*
X284750Y411000D02*
X286250Y412500D01*
X280250Y418750D02*
X284750D01*
X276750D02*
X280250D01*
X286000Y417500D02*
X292620D01*
X284750Y418750D02*
X286000Y417500D01*
X269000Y418750D02*
X280250D01*
X265750Y422000D02*
Y435500D01*
X125103Y457000D02*
X244250D01*
X86500Y153750D02*
X147500D01*
X71500Y126250D02*
Y138750D01*
X70000Y74000D02*
X78000D01*
X920000Y470000D02*
X925000Y475000D01*
X915000Y495000D02*
X915000D01*
X925000Y505000D01*
Y505000D02*
Y505000D01*
X1470000Y140000D02*
X1478000Y132000D01*
X1445000Y192000D02*
X1453000D01*
X680000Y225000D02*
X711000D01*
X680000Y200000D02*
X711000D01*
X680000Y175000D02*
X710200D01*
X710600Y174600D01*
X680000Y150000D02*
X711000D01*
X710600Y174600D02*
X711000Y175000D01*
X835000Y140000D02*
X905000Y210000D01*
X834750Y139750D02*
X835000Y140000D01*
X822050Y147049D02*
X890000Y214999D01*
X845000Y190000D02*
X875000Y220000D01*
X809350Y154350D02*
X845000Y190000D01*
X850000Y215000D02*
X855000Y220000D01*
X796650Y161650D02*
X850000Y215000D01*
X759999Y225000D02*
X760000D01*
X759999Y215000D02*
Y225000D01*
X728000D02*
X728000D01*
X747000D01*
X773000D02*
X780000D01*
X711000D02*
X712000Y224000D01*
X759999Y200000D02*
X760000D01*
X759999Y190000D02*
Y200000D01*
X728000D02*
X728000D01*
X747000D01*
X773000D02*
X780000D01*
X711000D02*
X712000Y199000D01*
X759999Y175000D02*
X760000D01*
X759999Y165000D02*
Y175000D01*
X728000D02*
X728000D01*
X747000D01*
X773000D02*
X780000D01*
X711000D02*
X712000Y174000D01*
X711000Y150000D02*
X712000Y149000D01*
X773000Y150000D02*
X780000D01*
X728000D02*
X747000D01*
X728000D02*
X728000D01*
X759999Y140000D02*
Y150000D01*
X760000D01*
X328500Y173500D02*
X565000Y410000D01*
X198500Y173500D02*
X328500D01*
X565000Y410000D02*
X830000Y410000D01*
X560000Y415000D02*
X825000Y415000D01*
X560000Y425000D02*
X825000Y425000D01*
X1087000Y386800D02*
X1097000D01*
X1092000Y318000D02*
Y324000D01*
X41000Y756000D02*
X87000D01*
X41000Y841000D02*
X87000D01*
X324000Y179000D02*
X560000Y415000D01*
X338000Y203000D02*
X560000Y425000D01*
X332852Y208000D02*
X554926Y430074D01*
X1153200Y436800D02*
X1498200D01*
X1145000Y445000D02*
X1153200Y436800D01*
X1035000Y445000D02*
X1145000D01*
X955000Y650000D02*
X1025250Y720250D01*
X955000Y605000D02*
Y650000D01*
X1495000Y843200D02*
X1498200Y840000D01*
X1250900Y855900D02*
X1510900D01*
X1020000Y625000D02*
X1250900Y855900D01*
X1020000Y600000D02*
Y625000D01*
X1253600Y868600D02*
X1498200D01*
X1015000Y630000D02*
X1253600Y868600D01*
X1015000Y605000D02*
Y630000D01*
X209000Y179000D02*
X324000D01*
X204500Y183500D02*
X209000Y179000D01*
X56000Y496000D02*
X191000D01*
X35000Y475000D02*
X56000Y496000D01*
X35000Y453000D02*
Y475000D01*
X17978Y435978D02*
X35000Y453000D01*
X436000Y670000D02*
X765000D01*
X426000Y680000D02*
X436000Y670000D01*
X419050Y680000D02*
X426000D01*
X765000Y670000D02*
X815000Y620000D01*
X765000Y650000D02*
X815000Y600000D01*
X411700Y650000D02*
X765000D01*
X393700Y668000D02*
X411700Y650000D01*
X765000Y640000D02*
X810000Y595000D01*
X409000Y640000D02*
X765000D01*
X381000Y668000D02*
X409000Y640000D01*
X806000Y525000D02*
X825000D01*
X794000Y537000D02*
X806000Y525000D01*
X794000Y537000D02*
Y538600D01*
X446500Y850000D02*
X462000D01*
X391998Y950000D02*
X392000Y950002D01*
Y959000D01*
X840000Y600000D02*
Y610000D01*
X830000Y620000D02*
X840000Y610000D01*
X815000Y620000D02*
X830000D01*
X406350Y668000D02*
Y680000D01*
X825000Y615000D02*
X835000Y605000D01*
X810000Y615000D02*
X825000D01*
X765000Y660000D02*
X810000Y615000D01*
X380950Y668000D02*
Y680000D01*
X810000Y595000D02*
X825000D01*
X393650Y668000D02*
Y680000D01*
X815000Y600000D02*
X830000D01*
X414400Y660000D02*
X765000D01*
X406400Y668000D02*
X414400Y660000D01*
X394000Y767000D02*
Y778000D01*
Y743300D02*
Y767000D01*
X422000D01*
X444000Y750000D02*
X446500D01*
X427000Y767000D02*
X444000Y750000D01*
X365000Y714300D02*
X394000Y743300D01*
X365000Y610000D02*
Y714300D01*
Y610000D02*
X450000Y525000D01*
X491000D01*
X101000Y841000D02*
X110000D01*
X101000Y756000D02*
X110000D01*
X101000Y670000D02*
X110000D01*
X101000Y670000D02*
X101000Y670000D01*
X353500Y750000D02*
X370000D01*
X353500Y850000D02*
X370000D01*
X419999Y949999D02*
X420000Y950000D01*
X407999Y949999D02*
X419999D01*
X380000Y950000D02*
X391998D01*
X101000Y857000D02*
Y866000D01*
X87000Y857000D02*
Y866000D01*
X101000Y772000D02*
Y781000D01*
X87000Y772000D02*
Y781000D01*
X101000Y686000D02*
Y695000D01*
X87000Y686000D02*
Y695000D01*
X406000Y778000D02*
Y787000D01*
X378000Y778000D02*
Y787000D01*
X406000Y878000D02*
Y887000D01*
X378000Y878000D02*
Y887000D01*
X364000Y950000D02*
Y959000D01*
X436000Y959000D02*
X436000Y959000D01*
Y950000D02*
Y959000D01*
X394000Y870000D02*
Y878000D01*
X427000Y867000D02*
X444000Y850000D01*
X394000Y870000D02*
X397000Y867000D01*
X422000D02*
Y878000D01*
X397000Y867000D02*
X422000D01*
X427000D01*
X422000Y767000D02*
X427000D01*
X422000D02*
Y778000D01*
X422000Y778000D01*
X87000Y670000D02*
X101000D01*
X87000Y756000D02*
X101000D01*
X87000Y841000D02*
X101000D01*
X41000D02*
X41500Y840500D01*
X42000D01*
X167000Y547000D02*
X175000D01*
X167000Y533000D02*
X175000D01*
X167000Y519000D02*
X175000D01*
X167000Y505000D02*
X175000D01*
X167000Y638700D02*
X175000D01*
X167000Y624700D02*
X175000D01*
X167000Y610700D02*
X175000D01*
X167000Y596700D02*
X175000D01*
X131200Y605300D02*
X140600D01*
X146000Y610700D01*
X151000D01*
X105800Y605300D02*
X119400Y591700D01*
X140000D01*
X145000Y596700D01*
X151000D01*
X80400Y605300D02*
X91800Y616700D01*
X55000Y605300D02*
X69400Y619700D01*
X136000D01*
X143000Y626700D01*
Y636700D01*
X145000Y638700D01*
X151000D01*
X91800Y616700D02*
X138000D01*
X146000Y624700D01*
X151000D01*
X146000Y533000D02*
X151000D01*
X138000Y525000D02*
X146000Y533000D01*
X91800Y525000D02*
X138000D01*
X145000Y547000D02*
X151000D01*
X143000Y545000D02*
X145000Y547000D01*
X143000Y535000D02*
Y545000D01*
X136000Y528000D02*
X143000Y535000D01*
X69400Y528000D02*
X136000D01*
X55000Y513600D02*
X69400Y528000D01*
X80400Y513600D02*
X91800Y525000D01*
X145000Y505000D02*
X151000D01*
X140000Y500000D02*
X145000Y505000D01*
X119400Y500000D02*
X140000D01*
X105800Y513600D02*
X119400Y500000D01*
X146000Y519000D02*
X151000D01*
X140600Y513600D02*
X146000Y519000D01*
X131200Y513600D02*
X140600D01*
X174000Y488000D02*
X180000Y482000D01*
X58000Y488000D02*
X174000D01*
X45000Y475000D02*
X58000Y488000D01*
X821000Y358000D02*
Y369000D01*
X841000Y358000D02*
Y369000D01*
X845000Y631000D02*
Y642000D01*
X825000Y631000D02*
Y642000D01*
X845000Y605000D02*
Y629000D01*
X845000Y605000D02*
X845000Y605000D01*
X884829Y605000D02*
Y650171D01*
X860000Y470000D02*
Y470000D01*
Y470000D02*
X865000Y465000D01*
X262999Y530000D02*
Y538000D01*
X243000Y530000D02*
Y538000D01*
X224000Y528000D02*
Y538000D01*
X208000Y530000D02*
Y538000D01*
X262999Y506000D02*
X270000D01*
X242999D02*
X262999D01*
X226000D02*
X242999D01*
X208000Y514000D02*
X209000D01*
X215000Y508000D01*
X224000D01*
X226000Y506000D01*
X312500Y472500D02*
X315000Y470000D01*
X312500Y472500D02*
Y482380D01*
X207000Y482000D02*
X214000D01*
X207000Y496000D02*
X214000D01*
X332500Y470000D02*
Y482380D01*
X337500Y465000D02*
Y482380D01*
X45000Y442778D02*
Y475000D01*
X33218Y430996D02*
X45000Y442778D01*
X180000Y482000D02*
X191000D01*
X17978Y355304D02*
Y435978D01*
X377380Y467500D02*
X390000D01*
X377380Y462500D02*
X395000D01*
X342500Y417500D02*
X345000Y415000D01*
X342500Y417500D02*
Y482380D01*
X347500Y422500D02*
X350000Y420000D01*
X347500Y422500D02*
Y482380D01*
X352500Y427500D02*
X355000Y425000D01*
X352500Y427500D02*
Y482380D01*
X360000Y430000D02*
Y435000D01*
X357500Y437500D02*
X360000Y435000D01*
X357500Y437500D02*
Y482380D01*
X357120Y482000D02*
X357500Y482380D01*
X357000Y482000D02*
X357120D01*
X357000D02*
X357380Y482380D01*
X357500D01*
X510000Y505000D02*
X825000D01*
X452500Y447500D02*
X510000Y505000D01*
X377380Y447500D02*
X452500D01*
X510000Y495000D02*
X825000D01*
X550000Y435000D02*
X825000D01*
X479500Y364500D02*
X550000Y435000D01*
X399000Y364500D02*
X479500D01*
X550000Y445000D02*
X825000D01*
X473000Y368000D02*
X550000Y445000D01*
X349500Y368000D02*
X473000D01*
X545000Y450000D02*
X830000D01*
X466000Y371000D02*
X545000Y450000D01*
X354000Y371000D02*
X466000D01*
X540000Y455000D02*
X825000D01*
X459000Y374000D02*
X540000Y455000D01*
X358000Y374000D02*
X459000D01*
X540000Y465000D02*
X825000D01*
X452000Y377000D02*
X540000Y465000D01*
X362000Y377000D02*
X452000D01*
X540000Y475000D02*
X825000D01*
X445000Y380000D02*
X540000Y475000D01*
X365500Y380000D02*
X445000D01*
X346500Y364500D02*
X399000D01*
Y355000D02*
Y364500D01*
X371000Y355000D02*
X385000D01*
X370000D02*
X371000D01*
X363600Y361400D02*
X370000Y355000D01*
X337720Y361400D02*
X363600D01*
X322500Y376620D02*
X337720Y361400D01*
X322500Y376620D02*
Y397620D01*
X332500Y378500D02*
X346500Y364500D01*
X332500Y378500D02*
Y397620D01*
X337500Y380000D02*
X349500Y368000D01*
X342500Y382500D02*
X354000Y371000D01*
X347500Y384500D02*
X358000Y374000D01*
X337500Y380000D02*
Y397620D01*
X342500Y382500D02*
Y397620D01*
X352500Y386500D02*
X362000Y377000D01*
X352500Y386500D02*
Y397620D01*
X347500Y384500D02*
Y397620D01*
X357500Y388000D02*
X365500Y380000D01*
X357500Y388000D02*
Y397620D01*
X399000Y331000D02*
Y339000D01*
X371000Y331000D02*
Y339000D01*
X385000Y331000D02*
Y339000D01*
X219000Y398000D02*
X219000Y398000D01*
Y412000D01*
X235000Y370000D02*
X235000Y370000D01*
X235000Y384000D02*
X235000Y384000D01*
X191000D02*
X191000Y384000D01*
X207000Y412000D02*
X219000D01*
X207000Y398000D02*
X219000D01*
X207200Y334000D02*
X214500D01*
X207200Y348000D02*
X214500D01*
X235500Y412000D02*
X235700Y412200D01*
X235000Y412000D02*
X235500D01*
X219000Y426000D02*
Y440000D01*
X207000Y426000D02*
X219000D01*
X207600Y440000D02*
X219000D01*
X207600Y440000D02*
X207600Y440000D01*
X207000Y440000D02*
X207600D01*
X86500Y158250D02*
X147500D01*
X67000Y126250D02*
Y138750D01*
X636000Y114812D02*
Y120906D01*
X635970Y100000D02*
X668000D01*
X571000Y135000D02*
Y135400D01*
X670000Y108000D02*
Y115000D01*
Y102000D02*
Y108000D01*
X664094Y120906D02*
X670000Y115000D01*
X636000Y120906D02*
X664094D01*
X635970Y110080D02*
Y114906D01*
X648000Y108000D02*
X654000D01*
X645000Y105000D02*
X648000Y108000D01*
X637000Y105000D02*
X645000D01*
X637000Y105000D02*
X637000Y105000D01*
X635970Y105000D02*
X637000D01*
X668000Y100000D02*
X670000Y102000D01*
X635970Y99920D02*
Y100000D01*
X608000Y121000D02*
X608030D01*
X233500Y49000D02*
Y55700D01*
X278000Y125000D02*
X280000D01*
X222000Y98000D02*
Y103000D01*
X220000Y96000D02*
X222000Y98000D01*
X182000Y96000D02*
X220000D01*
X180001Y97999D02*
X182000Y96000D01*
X180001Y97999D02*
Y102999D01*
X194000Y103000D02*
X208000D01*
X232000Y185000D02*
Y194000D01*
X232000Y194000D01*
X198500Y183500D02*
X204500D01*
X45000Y203000D02*
X71000D01*
X45000Y223000D02*
X71000D01*
X45000Y243000D02*
X71000D01*
X45000Y263000D02*
X71000D01*
X45000Y263000D02*
X45000Y263000D01*
X41000Y263000D02*
X45000D01*
X87000Y263000D02*
X95000D01*
X87000Y243000D02*
X95000D01*
X87000Y223000D02*
X95000D01*
X87000Y203000D02*
X95000D01*
X830000Y410000D02*
X835000Y415000D01*
X555000Y430000D02*
X830000Y430000D01*
X189900Y203000D02*
X338000D01*
X166000Y208000D02*
X332852D01*
X155500Y197500D02*
X166000Y208000D01*
X155500Y191500D02*
Y197500D01*
X185993Y199093D02*
X189900Y203000D01*
X185993Y193000D02*
Y199093D01*
X185500Y192507D02*
X185993Y193000D01*
X185500Y191500D02*
Y192507D01*
X105000Y141000D02*
X113000D01*
X129000Y122000D02*
Y131000D01*
Y122000D02*
X129000Y122000D01*
X166000Y95000D02*
Y103000D01*
X152000Y95000D02*
Y103000D01*
X173000Y166000D02*
X175500Y168500D01*
Y191500D01*
X185500Y153500D02*
X190500Y148500D01*
X185500Y153500D02*
X198500D01*
X190500Y140500D02*
Y148500D01*
X170500Y163500D02*
X173000Y166000D01*
X170500Y140500D02*
Y163500D01*
X155500Y140500D02*
Y148500D01*
X155500Y140500D02*
X155500D01*
X208000Y119000D02*
Y127000D01*
X180500Y131500D02*
Y140500D01*
Y131500D02*
X193001Y118999D01*
X194000D01*
Y119000D01*
X175500Y128500D02*
X180001Y123999D01*
Y118999D02*
Y123999D01*
X222000Y119000D02*
Y127000D01*
X175500Y128500D02*
Y140500D01*
X60000Y119000D02*
X60000D01*
X60000D02*
X64500Y126800D01*
X60000Y119000D02*
X61000D01*
X71000Y88000D02*
X78000D01*
X69000Y90000D02*
X71000Y88000D01*
X69000Y90000D02*
Y119000D01*
X69000Y119000D01*
X94000Y74000D02*
X102000D01*
X94000Y88000D02*
X102000D01*
X1469000Y206000D02*
X1479000D01*
X1469000Y191000D02*
X1479000D01*
X1498000Y183000D02*
X1498200Y182800D01*
X1487000Y183000D02*
X1498000D01*
X1479000Y191000D02*
X1487000Y183000D01*
X1469000Y191000D02*
Y192000D01*
X1453000D02*
Y206000D01*
X1479000D02*
X1489500Y195500D01*
X1510900D01*
X1523600Y182800D01*
Y132000D02*
X1549000D01*
X1498200D02*
X1523600D01*
X1478000D02*
X1498200D01*
X1012000Y306000D02*
X1021000D01*
X1097000Y386800D02*
X1107000D01*
X1097000Y405000D02*
X1107000D01*
X1127000Y386800D02*
Y396000D01*
Y405000D01*
Y396000D02*
X1137000D01*
X1155900Y424100D02*
X1510900D01*
X1145000Y435000D02*
X1155900Y424100D01*
X1035000Y435000D02*
X1145000D01*
X891900Y94800D02*
Y107500D01*
Y52500D02*
Y65200D01*
X853800Y94800D02*
Y107500D01*
Y52500D02*
Y65200D01*
X1006200Y52500D02*
Y65200D01*
Y92300D02*
Y105000D01*
X925000Y200000D02*
Y395000D01*
X866500Y141500D02*
X925000Y200000D01*
X915000Y200000D02*
Y395000D01*
X847450Y132450D02*
X915000Y200000D01*
X910000Y400000D02*
X915000Y405000D01*
X866500Y107500D02*
Y141500D01*
X910000Y205000D02*
Y400000D01*
X905000Y210000D02*
Y395000D01*
X895000Y209999D02*
Y395000D01*
X828400Y143399D02*
X895000Y209999D01*
X890000Y400000D02*
X895000Y405000D01*
X890000Y214999D02*
Y400000D01*
X885000Y220000D02*
Y395000D01*
X815700Y150700D02*
X885000Y220000D01*
X875000Y220000D02*
Y395000D01*
X870000Y225000D02*
Y400000D01*
X803000Y158000D02*
X870000Y225000D01*
Y400000D02*
X875000Y405000D01*
X855000Y220000D02*
Y395000D01*
X850000Y225000D02*
Y400000D01*
X791000Y166000D02*
X850000Y225000D01*
X960000Y215005D02*
Y400000D01*
X879200Y134205D02*
X960000Y215005D01*
X879200Y107500D02*
Y134205D01*
X847450Y101150D02*
Y132450D01*
X841100Y94800D02*
X847450Y101150D01*
X841100Y52500D02*
Y94800D01*
Y136100D02*
X910000Y205000D01*
X955000Y220000D02*
Y395000D01*
X872850Y137850D02*
X955000Y220000D01*
X965000Y210000D02*
Y395000D01*
X885550Y130550D02*
X965000Y210000D01*
X975000Y210000D02*
Y395000D01*
X904600Y139600D02*
X975000Y210000D01*
X995000Y200000D02*
Y395000D01*
X923650Y128650D02*
X995000Y200000D01*
X980000Y205000D02*
Y400000D01*
X910950Y135950D02*
X980000Y205000D01*
X985000Y200000D02*
Y395000D01*
X917300Y132300D02*
X985000Y200000D01*
X923650Y101150D02*
Y128650D01*
X1005000Y200000D02*
Y395000D01*
X930000Y125000D02*
X1005000Y200000D01*
X930000Y107500D02*
Y125000D01*
X1135000Y425000D02*
X1161300Y398700D01*
X1035000Y425000D02*
X1135000D01*
X1035000Y405000D02*
X1067000D01*
Y386800D02*
Y405000D01*
X1038000Y269000D02*
Y280700D01*
X1037750Y280950D02*
X1038000Y280700D01*
X1012000Y294000D02*
X1021000D01*
Y269000D02*
Y278000D01*
X1109000Y269000D02*
Y278000D01*
X1079650Y306350D02*
X1092250D01*
X1066000Y320000D02*
X1079650Y306350D01*
X1066000Y320000D02*
Y335000D01*
X1104000Y322000D02*
X1109000D01*
X1101050Y319050D02*
X1104000Y322000D01*
X1092250Y319050D02*
X1101050D01*
X1110000Y335000D02*
Y344000D01*
X1082000Y335000D02*
Y344000D01*
X1094000Y335000D02*
Y344000D01*
Y326000D02*
Y335000D01*
X1092000Y324000D02*
X1094000Y326000D01*
X1092000Y318000D02*
X1092250Y318250D01*
Y319050D01*
X1025000Y380000D02*
X1055000Y350000D01*
Y305000D02*
Y350000D01*
Y305000D02*
X1079050Y280950D01*
X1029950Y319050D02*
X1037750D01*
X1021000Y322000D02*
X1021000Y322000D01*
X1027000D01*
X1029950Y319050D01*
X1037750Y306350D02*
X1046350D01*
X1050000Y310000D01*
Y345000D01*
X1021000Y322000D02*
Y364000D01*
Y293000D02*
X1021650Y293650D01*
X1037750D01*
X1021000Y293000D02*
Y294000D01*
X1020000Y375000D02*
X1050000Y345000D01*
X1020000Y375000D02*
Y400000D01*
X1079050Y280950D02*
X1092250D01*
X1025000Y380000D02*
Y395000D01*
X1050000Y365000D02*
X1105000D01*
X1030000Y385000D02*
X1050000Y365000D01*
X1030000Y385000D02*
Y400000D01*
X1109000Y294000D02*
Y306000D01*
X1108650Y293650D02*
X1109000Y294000D01*
X1092250Y293650D02*
X1108650D01*
X1109000Y306000D02*
X1115000D01*
X1120000Y311000D01*
Y350000D01*
X1105000Y365000D02*
X1120000Y350000D01*
X1087000Y405000D02*
X1097000D01*
X1015000Y370000D02*
X1021000Y364000D01*
X1015000Y370000D02*
Y395000D01*
X1035000Y415000D02*
X1040000Y420000D01*
X790300Y52500D02*
Y94800D01*
X796650Y101150D01*
Y161650D01*
X803000Y52500D02*
Y94800D01*
X809350Y101150D01*
Y154350D01*
X815700Y52500D02*
Y94800D01*
X822050Y101150D01*
Y147049D01*
X828400Y52500D02*
Y94800D01*
X834750Y101150D01*
Y139750D01*
X866500Y52500D02*
Y94800D01*
X872850Y101150D01*
Y137850D01*
X879200Y52500D02*
Y94800D01*
X885550Y101150D01*
Y130550D01*
X904600Y52500D02*
Y94800D01*
X910950Y101150D01*
Y135950D01*
X917300Y52500D02*
Y94800D01*
X923650Y101150D01*
X917300Y107500D02*
Y132300D01*
X841100Y107500D02*
Y136100D01*
X828400Y107500D02*
Y143399D01*
X815700Y107500D02*
Y150700D01*
X803000Y107500D02*
Y158000D01*
X791000Y108000D02*
Y166000D01*
X904600Y107500D02*
Y139600D01*
X790500Y107500D02*
X791000Y108000D01*
X790300Y107500D02*
X790500D01*
X955000Y585000D02*
X960000Y590000D01*
X985000Y575000D02*
Y575000D01*
X980000Y580000D02*
X985000Y575000D01*
X866500Y728500D02*
X925000Y670000D01*
Y605000D02*
Y670000D01*
X860150Y724850D02*
X915000Y670000D01*
Y605000D02*
Y670000D01*
X853800Y721239D02*
X910000Y665040D01*
Y600000D02*
Y665040D01*
Y600000D02*
X915000Y595000D01*
X860150Y724850D02*
Y898850D01*
X866500Y728500D02*
Y892500D01*
X847450Y717550D02*
X905000Y660000D01*
Y605000D02*
Y660000D01*
X895000Y605000D02*
Y660000D01*
X841100Y713900D02*
X895000Y660000D01*
X822050Y722950D02*
X890000Y655000D01*
Y600000D02*
Y655000D01*
X815700Y719300D02*
X884829Y650171D01*
X809350Y715650D02*
X875000Y650000D01*
X803000Y905200D02*
X809350Y898850D01*
Y715650D02*
Y898850D01*
X803000Y712000D02*
X870000Y645000D01*
Y600000D02*
Y645000D01*
X875000Y605000D02*
Y650000D01*
X865000Y605000D02*
Y640000D01*
X796650Y708350D02*
X865000Y640000D01*
X855000Y605000D02*
Y640000D01*
X790300Y704700D02*
X855000Y640000D01*
X790300Y704700D02*
Y892500D01*
X853800Y721239D02*
Y892500D01*
X841100Y713900D02*
Y892500D01*
X815700Y719300D02*
Y892500D01*
X803000Y712000D02*
Y892500D01*
X1006200Y731200D02*
Y892500D01*
X935000Y660000D02*
X1006200Y731200D01*
X935000Y605000D02*
Y660000D01*
X1012550Y727550D02*
Y898850D01*
X940000Y655000D02*
X1012550Y727550D01*
X940000Y600000D02*
Y655000D01*
X945000Y605000D02*
Y650000D01*
X1018900Y723900D01*
X965000Y640000D02*
X1037950Y712950D01*
X965000Y605000D02*
Y640000D01*
X960000Y645000D02*
X1031600Y716600D01*
X960000Y600000D02*
Y645000D01*
X1025250Y720250D02*
Y898850D01*
X1031600Y716600D02*
Y892500D01*
X1037950Y712950D02*
Y898850D01*
X1044300Y709300D02*
Y892500D01*
X975000Y640000D02*
X1044300Y709300D01*
X975000Y605000D02*
Y640000D01*
X980000Y600000D02*
Y635000D01*
X975000Y595000D02*
X980000Y600000D01*
X1050650Y705650D02*
Y898850D01*
X980000Y635000D02*
X1050650Y705650D01*
X1069700Y694700D02*
Y892500D01*
X1000000Y625000D02*
X1069700Y694700D01*
X1000000Y600000D02*
Y625000D01*
X1063350Y698350D02*
Y898850D01*
X995000Y630000D02*
X1063350Y698350D01*
X995000Y605000D02*
Y630000D01*
X1057000Y702000D02*
Y892500D01*
X985000Y630000D02*
X1057000Y702000D01*
X985000Y605000D02*
Y630000D01*
X1018900Y723900D02*
Y892500D01*
X1069700Y905200D02*
Y947500D01*
X1063350Y898850D02*
X1069700Y905200D01*
X1057000D02*
Y947500D01*
X1050650Y898850D02*
X1057000Y905200D01*
X1044300D02*
Y947500D01*
X1037950Y898850D02*
X1044300Y905200D01*
X1031600D02*
Y947500D01*
X1025250Y898850D02*
X1031600Y905200D01*
X1018900D02*
Y947500D01*
X1012550Y898850D02*
X1018900Y905200D01*
X853800D02*
X860150Y898850D01*
X853800Y905200D02*
Y947500D01*
X847450Y717550D02*
Y898850D01*
X841100Y905200D02*
X847450Y898850D01*
X841100Y905200D02*
Y947500D01*
X822050Y722950D02*
Y898850D01*
X815700Y905200D02*
X822050Y898850D01*
X815700Y905200D02*
Y947500D01*
X803000Y905200D02*
Y947500D01*
X790300Y905200D02*
Y947500D01*
Y905200D02*
X796650Y898850D01*
Y708350D02*
Y898850D01*
X1005000Y515000D02*
X1010000Y520000D01*
X1025000Y505000D02*
X1030000Y510000D01*
X1015000Y505000D02*
X1020000Y510000D01*
X1005000Y505000D02*
X1010000Y510000D01*
X995000Y505000D02*
X1000000Y510000D01*
X975000Y505000D02*
X980000Y510000D01*
X955000Y505000D02*
X960000Y510000D01*
X910000D02*
X915000Y505000D01*
X900000Y510000D02*
X905000Y505000D01*
X890000Y510000D02*
X895000Y505000D01*
X880000Y510000D02*
X885000Y505000D01*
X860000Y510000D02*
X865000Y505000D01*
X840000Y510000D02*
X845000Y505000D01*
X830000Y510000D02*
X835000Y505000D01*
X830000Y520000D02*
X835000Y515000D01*
X840000Y520000D02*
X845000Y515000D01*
X900000Y520000D02*
X905000Y515000D01*
X935000D02*
X940000Y520000D01*
X945000Y515000D02*
X950000Y520000D01*
X955000Y515000D02*
X960000Y520000D01*
X965000Y515000D02*
X970000Y520000D01*
X985000Y515000D02*
X990000Y520000D01*
X1015000Y515000D02*
X1020000Y520000D01*
X830000Y530000D02*
X835000Y525000D01*
X840000Y530000D02*
X845000Y525000D01*
X860000Y530000D02*
X865000Y525000D01*
X890000Y530000D02*
X895000Y525000D01*
X900000Y530000D02*
X905000Y525000D01*
X910000Y530000D02*
X915000Y525000D01*
X920000Y530000D02*
X924500Y525500D01*
X945000Y525000D02*
X950000Y530000D01*
X955000Y525000D02*
X960000Y530000D01*
X965000Y525000D02*
X970000Y530000D01*
X995000Y525000D02*
X1000000Y530000D01*
X1015000Y525000D02*
X1020000Y530000D01*
X1025000Y525000D02*
X1030000Y530000D01*
X840000Y540000D02*
X845000Y535000D01*
X880000Y540000D02*
X885000Y535000D01*
X900000Y540000D02*
X905000Y535000D01*
X945000D02*
X950000Y540000D01*
X955000Y535000D02*
X960000Y540000D01*
X965000Y535000D02*
X970000Y540000D01*
X975000Y535000D02*
X980000Y540000D01*
X1015000Y535000D02*
X1020000Y540000D01*
X830000Y550000D02*
X835000Y545000D01*
X840000Y550000D02*
X845000Y545000D01*
X860000Y550000D02*
X865000Y545000D01*
X910000Y550000D02*
X915000Y545000D01*
X935000D02*
X940000Y550000D01*
X955000Y545000D02*
X960000Y550000D01*
X965000Y545000D02*
X970000Y550000D01*
X975000Y545000D02*
X980000Y550000D01*
X985000Y545000D02*
X990000Y550000D01*
X995000Y545000D02*
X1000000Y550000D01*
X1015000Y545000D02*
X1020000Y550000D01*
X1025000Y545000D02*
X1030000Y550000D01*
X840000Y560000D02*
X845000Y555000D01*
X850000Y560000D02*
X855000Y555000D01*
X870000Y560000D02*
X875000Y555000D01*
X920000Y560000D02*
X925000Y555000D01*
X955000D02*
X960000Y560000D01*
X965000Y555000D02*
X970000Y560000D01*
X985000Y555000D02*
X990000Y560000D01*
X995000Y555000D02*
X1000000Y560000D01*
X1015000Y555000D02*
X1020000Y560000D01*
X830000Y570000D02*
X835000Y565000D01*
X850000Y570000D02*
X855000Y565000D01*
X860000Y570000D02*
X865000Y565000D01*
X880000Y570000D02*
X885000Y565000D01*
X900000Y570000D02*
X905000Y565000D01*
X920000Y570000D02*
X925000Y565000D01*
X945000D02*
X950000Y570000D01*
X965000Y565000D02*
X970000Y570000D01*
X985000Y565000D02*
X990000Y570000D01*
X995000Y565000D02*
X1000000Y570000D01*
X1005000Y565000D02*
X1010000Y570000D01*
X1015000Y565000D02*
X1020000Y570000D01*
X1025000Y565000D02*
X1030000Y570000D01*
X820000Y580000D02*
X825000Y575000D01*
X840000Y580000D02*
X845000Y575000D01*
X850000Y580000D02*
X855000Y575000D01*
X860000Y580000D02*
X865000Y575000D01*
X870000Y580000D02*
X875000Y575000D01*
X880000Y580000D02*
X885000Y575000D01*
X890000Y580000D02*
X895000Y575000D01*
X955000D02*
X960000Y580000D01*
X995000Y575000D02*
X1000000Y580000D01*
X1005000Y575000D02*
X1010000Y580000D01*
X1015000Y575000D02*
X1020000Y580000D01*
X820000Y590000D02*
X825000Y585000D01*
X830000Y590000D02*
X835000Y585000D01*
X840000Y590000D02*
X845000Y585000D01*
X850000Y590000D02*
X855000Y585000D01*
X870000Y590000D02*
X875000Y585000D01*
X880000Y590000D02*
X885000Y585000D01*
X890000Y590000D02*
X895000Y585000D01*
X900000Y590000D02*
X905000Y585000D01*
X910000Y590000D02*
X915000Y585000D01*
X945000D02*
X950000Y590000D01*
X965000Y585000D02*
X970000Y590000D01*
X975000Y585000D02*
X980000Y590000D01*
X985000Y585000D02*
X990000Y590000D01*
X995000Y585000D02*
X1000000Y590000D01*
X1005000Y585000D02*
X1010000Y590000D01*
X1015000Y585000D02*
X1020000Y590000D01*
X1025000Y585000D02*
X1030000Y590000D01*
X825000Y595000D02*
X825000Y595000D01*
X830000Y600000D02*
X835000Y595000D01*
X840000Y600000D02*
X845000Y595000D01*
X850000Y600000D02*
X855000Y595000D01*
X860000Y600000D02*
X865000Y595000D01*
X870000Y600000D02*
X875000Y595000D01*
X880000Y600000D02*
X885000Y595000D01*
X890000Y600000D02*
X895000Y595000D01*
X900000Y600000D02*
X905000Y595000D01*
X920000Y600000D02*
X925000Y595000D01*
X935000D02*
X940000Y600000D01*
X945000Y595000D02*
X950000Y600000D01*
X955000Y595000D02*
X960000Y600000D01*
X965000Y595000D02*
X970000Y600000D01*
X985000Y595000D02*
X990000Y600000D01*
X995000Y595000D02*
X1000000Y600000D01*
X1005000Y595000D02*
X1010000Y600000D01*
X1015000Y595000D02*
X1020000Y600000D01*
X1025000Y595000D02*
X1030000Y600000D01*
X820000Y610000D02*
X825000Y605000D01*
X985000D02*
X985000Y605000D01*
X995000Y605000D02*
X995000Y605000D01*
X1005000D02*
X1010000Y610000D01*
X1035000Y605000D02*
X1040000Y610000D01*
X1035000Y395000D02*
X1040000Y390000D01*
X820000D02*
X825000Y395000D01*
X1025000Y405000D02*
X1030000Y400000D01*
X1015000Y405000D02*
X1020000Y400000D01*
X1005000Y405000D02*
X1010000Y400000D01*
X985000Y405000D02*
X990000Y400000D01*
X975000Y405000D02*
X980000Y400000D01*
X965000Y405000D02*
X970000Y400000D01*
X955000Y405000D02*
X960000Y400000D01*
X945000Y405000D02*
X950000Y400000D01*
X920000D02*
X925000Y405000D01*
X900000Y400000D02*
X905000Y405000D01*
X880000Y400000D02*
X885000Y405000D01*
X860000Y400000D02*
X865000Y405000D01*
X850000Y400000D02*
X855000Y405000D01*
X840000Y400000D02*
X845000Y405000D01*
X820000Y400000D02*
X825000Y405000D01*
X1025000Y425000D02*
X1030000Y420000D01*
X1015000Y425000D02*
X1020000Y420000D01*
X1005000Y425000D02*
X1010000Y420000D01*
X975000Y425000D02*
X980000Y420000D01*
X880000D02*
X885000Y425000D01*
X860000Y420000D02*
X865000Y425000D01*
X840000Y420000D02*
X845000Y425000D01*
X830000Y420000D02*
X835000Y425000D01*
X1015000Y435000D02*
X1020000Y430000D01*
X975000Y435000D02*
X980000Y430000D01*
X955000Y435000D02*
X960000Y430000D01*
X935000Y435000D02*
X940000Y430000D01*
X890000D02*
X895000Y435000D01*
X850000Y430000D02*
X855000Y435000D01*
X840000Y430000D02*
X845000Y435000D01*
X830000Y430000D02*
X835000Y435000D01*
X1015000Y445000D02*
X1020000Y440000D01*
X1005000Y445000D02*
X1010000Y440000D01*
X995000Y445000D02*
X1000000Y440000D01*
X965000Y445000D02*
X970000Y440000D01*
X920000D02*
X925000Y445000D01*
X860000Y440000D02*
X865000Y445000D01*
X850000Y440000D02*
X855000Y445000D01*
X840000Y440000D02*
X845000Y445000D01*
X830000Y440000D02*
X835000Y445000D01*
X1005000Y455000D02*
X1010000Y450000D01*
X945000Y455000D02*
X950000Y450000D01*
X900000D02*
X905000Y455000D01*
X870000Y450000D02*
X875000Y455000D01*
X850000Y450000D02*
X855000Y455000D01*
X840000Y450000D02*
X845000Y455000D01*
X830000Y450000D02*
X835000Y455000D01*
X1025000Y465000D02*
X1030000Y460000D01*
X1015000Y465000D02*
X1020000Y460000D01*
X1005000Y465000D02*
X1010000Y460000D01*
X995000Y465000D02*
X1000000Y460000D01*
X985000Y465000D02*
X990000Y460000D01*
X955000Y465000D02*
X960000Y460000D01*
X935000Y465000D02*
X940000Y460000D01*
X910000D02*
X915000Y465000D01*
X870000Y460000D02*
X875000Y465000D01*
X850000Y460000D02*
X855000Y465000D01*
X840000Y460000D02*
X845000Y465000D01*
X830000Y460000D02*
X835000Y465000D01*
X1005000Y475000D02*
X1010000Y470000D01*
X985000Y475000D02*
X990000Y470000D01*
X975000Y475000D02*
X980000Y470000D01*
X965000Y475000D02*
X970000Y470000D01*
X955000Y475000D02*
X960000Y470000D01*
X945000Y475000D02*
X950000Y470000D01*
X935000Y475000D02*
X940000Y470000D01*
X910000D02*
X915000Y475000D01*
X900000Y470000D02*
X905000Y475000D01*
X870000Y470000D02*
X875000Y475000D01*
X850000Y470000D02*
X855000Y475000D01*
X840000Y470000D02*
X845000Y475000D01*
X1025000Y485000D02*
X1030000Y480000D01*
X1005000Y485000D02*
X1010000Y480000D01*
X995000Y485000D02*
X1000000Y480000D01*
X985000Y485000D02*
X990000Y480000D01*
X975000Y485000D02*
X980000Y480000D01*
X965000Y485000D02*
X970000Y480000D01*
X955000Y485000D02*
X960000Y480000D01*
X945000Y485000D02*
X950000Y480000D01*
X935000Y485000D02*
X940000Y480000D01*
X920000D02*
X925000Y485000D01*
X910000Y480000D02*
X915000Y485000D01*
X900000Y480000D02*
X905000Y485000D01*
X890000Y480000D02*
X895000Y485000D01*
X860000Y480000D02*
X865000Y485000D01*
X840000Y480000D02*
X845000Y485000D01*
X830000Y480000D02*
X835000Y485000D01*
X830000Y490000D02*
X835000Y495000D01*
X840000Y490000D02*
X845000Y495000D01*
X900000Y490000D02*
X905000Y495000D01*
X910000Y490000D02*
X915000Y495000D01*
X920000Y490000D02*
X925000Y495000D01*
X935000D02*
X940000Y490000D01*
X945000Y495000D02*
X950000Y490000D01*
X955000Y495000D02*
X960000Y490000D01*
X965000Y495000D02*
X970000Y490000D01*
X975000Y495000D02*
X980000Y490000D01*
X995000Y495000D02*
X1000000Y490000D01*
X1005000Y495000D02*
X1010000Y490000D01*
X1015000Y495000D02*
X1020000Y490000D01*
X910000Y520000D02*
X915000Y515000D01*
X915000Y515000D01*
X915000Y515000D02*
X915000D01*
X945000Y505000D02*
X950000Y510000D01*
X935000Y505000D02*
X940000Y510000D01*
X920000Y530000D02*
X925000Y525000D01*
X920000Y520000D02*
X925000Y515000D01*
X930000Y520000D02*
X935000Y525000D01*
X970000Y580000D02*
X975000Y575000D01*
X875000Y435000D02*
X880000Y440000D01*
X885000Y445000D02*
X885000D01*
X880000Y450000D02*
X885000Y445000D01*
X915000Y435000D02*
X920000Y430000D01*
X1510900Y830500D02*
X1523600Y843200D01*
X1510900Y779700D02*
X1523600Y792400D01*
X1510900Y754300D02*
X1523600Y767000D01*
X1510900Y703500D02*
X1523600Y716200D01*
X1206200D02*
X1498200D01*
X1510900Y678100D02*
X1523600Y690800D01*
X1510900Y627300D02*
X1523600Y640000D01*
X1165000Y640000D02*
X1498200Y640000D01*
X1156900Y601900D02*
X1510900Y601900D01*
X1523600Y614600D01*
X1175521Y614600D02*
X1498200Y614600D01*
X1510900Y551100D02*
X1523600Y563800D01*
X1510900Y525700D02*
X1523600Y538400D01*
X1510900Y500300D02*
X1523600Y513000D01*
X1510900Y474900D02*
X1523600Y487600D01*
X1025000Y605000D02*
X1025000Y605000D01*
Y620000D01*
X1030000Y600000D02*
Y615000D01*
X1510900Y855900D02*
X1523600Y868600D01*
X1495000Y843200D02*
X1498200D01*
X1030000Y615000D02*
X1245500Y830500D01*
X1510900D01*
X1035000Y595000D02*
Y595000D01*
X1045000D01*
X1035000Y585000D02*
X1045000D01*
X1025000Y575000D02*
X1030000Y580000D01*
X1050000D01*
X1035000Y575000D02*
X1055000D01*
X1035000Y555000D02*
X1060000D01*
X1025000D02*
X1030000Y560000D01*
X1057071D01*
X1035000Y515000D02*
X1035000Y515000D01*
X1080000D01*
X1025000Y535000D02*
X1030000Y540000D01*
X1025000Y515000D02*
X1030000Y520000D01*
X1045000Y595000D02*
X1242400Y792400D01*
X1498200D01*
X1045000Y585000D02*
X1239700Y779700D01*
X1510900D01*
X1050000Y580000D02*
X1237000Y767000D01*
X1498200D01*
X1055000Y575000D02*
X1234300Y754300D01*
X1510900D01*
X1035000Y565000D02*
X1055000D01*
X1206200Y716200D01*
X1057071Y560000D02*
X1200571Y703500D01*
X1510900D01*
X1025000Y620000D02*
X1248200Y843200D01*
X1495000D01*
X1195800Y690800D02*
X1498200D01*
X1060000Y555000D02*
X1195800Y690800D01*
X1035000Y545000D02*
X1060000D01*
X1193100Y678100D01*
X1510900D01*
X1030000Y540000D02*
X1065000D01*
X1165000Y640000D01*
X1035000Y535000D02*
X1070000D01*
X1162300Y627300D01*
X1510900Y627300D01*
X1035000Y525000D02*
X1070000D01*
X1159600Y614600D01*
X1175521D01*
X1030000Y520000D02*
X1075000D01*
X1156900Y601900D01*
X1025000Y495000D02*
X1030000Y490000D01*
X1035000Y505000D02*
X1035000Y505000D01*
X1080000D01*
X1035000Y495000D02*
X1080000D01*
X1030000Y490000D02*
X1085000D01*
X1080000Y515000D02*
X1128800Y563800D01*
X1498200D01*
X1080000Y505000D02*
X1126100Y551100D01*
X1510900D01*
X1080000Y495000D02*
X1123400Y538400D01*
X1498200D01*
X1085000Y490000D02*
X1120700Y525700D01*
X1510900D01*
X1034000Y475000D02*
X1035000D01*
X1080000D01*
X1118000Y513000D01*
X1498200D01*
X1015000Y475000D02*
X1020000Y470000D01*
X1085000D01*
X1115300Y500300D01*
X1510900D01*
X1035000Y465000D02*
X1035000Y465000D01*
X1090000D01*
X1112600Y487600D01*
X1498200D01*
X1510900Y424100D02*
X1523600Y411400D01*
X1510900Y398700D02*
X1523600Y386000D01*
X1035000Y455000D02*
X1035000Y455000D01*
X1090000D01*
X1025000Y445000D02*
X1030000Y440000D01*
X1090000Y455000D02*
X1109900Y474900D01*
X1510900D01*
X1025000Y455000D02*
X1030000Y450000D01*
X1510400D01*
X1523600Y436800D01*
X1498200D02*
X1499870D01*
X1025000Y435000D02*
X1030000Y430000D01*
X1140000D01*
X1158600Y411400D01*
X1498200D01*
X1161300Y398700D02*
X1510900D01*
X0Y0D02*
X1600000D01*
Y1000000D01*
X0D02*
X1600000D01*
X0Y0D02*
Y1000000D01*
X-11500Y99900D02*
Y103900D01*
Y141900D02*
Y145900D01*
D12*
X706000Y91000D02*
Y91000D01*
D14*
X1498200Y85800D02*
Y106600D01*
Y85800D02*
X1503000Y81000D01*
X1523600Y85600D02*
Y106600D01*
X1519000Y81000D02*
X1523600Y85600D01*
D57*
X207000Y412000D02*
D03*
X191000D02*
D03*
X728000Y150000D02*
D03*
X712000D02*
D03*
X728000Y175000D02*
D03*
X712000D02*
D03*
X728000Y200000D02*
D03*
X712000D02*
D03*
X728001Y225001D02*
D03*
X712001D02*
D03*
X436000Y950000D02*
D03*
X420000D02*
D03*
X380000D02*
D03*
X364000D02*
D03*
X394000Y878000D02*
D03*
X378000D02*
D03*
X394000Y778000D02*
D03*
X378000D02*
D03*
X422000Y878000D02*
D03*
X406000D02*
D03*
X422000Y778000D02*
D03*
X406000D02*
D03*
X654000Y108000D02*
D03*
X670000D02*
D03*
X232000Y194000D02*
D03*
X216000D02*
D03*
X1110000Y335000D02*
D03*
X1094000D02*
D03*
X167000Y519000D02*
D03*
X151000D02*
D03*
X167000Y610700D02*
D03*
X151000D02*
D03*
X167000Y505000D02*
D03*
X151000D02*
D03*
X167000Y596700D02*
D03*
X151000D02*
D03*
X167000Y533000D02*
D03*
X151000D02*
D03*
X167000Y624700D02*
D03*
X151000D02*
D03*
X167000Y547000D02*
D03*
X151000D02*
D03*
X167000Y638700D02*
D03*
X151000D02*
D03*
X1439000Y173000D02*
D03*
X1423000D02*
D03*
X604000Y130000D02*
D03*
X620000D02*
D03*
X690000Y91000D02*
D03*
X706000D02*
D03*
X262000Y125000D02*
D03*
X278000D02*
D03*
X1066000Y335000D02*
D03*
X1082000D02*
D03*
X407999Y949999D02*
D03*
X391999D02*
D03*
X219000Y398000D02*
D03*
X235000D02*
D03*
X219000Y440000D02*
D03*
X235000D02*
D03*
Y412000D02*
D03*
X219000D02*
D03*
X235000Y426000D02*
D03*
X219000D02*
D03*
X191000Y398000D02*
D03*
X207000D02*
D03*
X191000Y426000D02*
D03*
X207000D02*
D03*
X191000Y440000D02*
D03*
X207000D02*
D03*
X191000Y384000D02*
D03*
X207000D02*
D03*
X191000Y370000D02*
D03*
X207000D02*
D03*
X207000Y482000D02*
D03*
X191000D02*
D03*
X207000Y496000D02*
D03*
X191000D02*
D03*
X207000Y334000D02*
D03*
X191000D02*
D03*
Y348000D02*
D03*
X207000D02*
D03*
X283000Y366000D02*
D03*
X267000D02*
D03*
X235000Y370000D02*
D03*
X219000D02*
D03*
X235000Y384000D02*
D03*
X219000D02*
D03*
X267000Y398000D02*
D03*
X283000D02*
D03*
X412000Y412200D02*
D03*
X396000D02*
D03*
X71000Y203000D02*
D03*
X87000D02*
D03*
X71000Y223000D02*
D03*
X87000D02*
D03*
X71000Y243000D02*
D03*
X87000D02*
D03*
X71000Y263000D02*
D03*
X87000D02*
D03*
X1469000Y206000D02*
D03*
X1453000D02*
D03*
X1469000Y192000D02*
D03*
X1453000D02*
D03*
X1519000Y81000D02*
D03*
X1503000D02*
D03*
X78000Y74000D02*
D03*
X94000D02*
D03*
X113000Y108000D02*
D03*
X129000D02*
D03*
X78000Y88000D02*
D03*
X94000D02*
D03*
X113000Y141000D02*
D03*
X129000D02*
D03*
Y122000D02*
D03*
X113000D02*
D03*
D58*
X747000Y150000D02*
D03*
X773000D02*
D03*
X747000Y175000D02*
D03*
X773000D02*
D03*
X747000Y200000D02*
D03*
X773000D02*
D03*
X747000Y225000D02*
D03*
X773000D02*
D03*
D59*
X760000Y150000D02*
D03*
Y175000D02*
D03*
Y200000D02*
D03*
Y225000D02*
D03*
D60*
X87000Y841000D02*
D03*
Y857000D02*
D03*
Y670000D02*
D03*
Y686000D02*
D03*
Y756000D02*
D03*
Y772000D02*
D03*
X166000Y103000D02*
D03*
Y119000D02*
D03*
X152000Y103000D02*
D03*
Y119000D02*
D03*
X222000Y103000D02*
D03*
Y119000D02*
D03*
X208000Y103000D02*
D03*
Y119000D02*
D03*
X731000Y574000D02*
D03*
Y590000D02*
D03*
X101000Y857000D02*
D03*
Y841000D02*
D03*
Y686000D02*
D03*
Y670000D02*
D03*
Y772000D02*
D03*
Y756000D02*
D03*
X1109000Y306000D02*
D03*
Y322000D02*
D03*
X1021000Y322000D02*
D03*
Y306000D02*
D03*
Y294000D02*
D03*
Y278000D02*
D03*
X1109000D02*
D03*
Y294000D02*
D03*
X208000Y514000D02*
D03*
Y530000D02*
D03*
X285000Y313000D02*
D03*
Y297000D02*
D03*
X399000Y355000D02*
D03*
Y339000D02*
D03*
X371000D02*
D03*
Y355000D02*
D03*
X385000Y339000D02*
D03*
Y355000D02*
D03*
X319000Y522000D02*
D03*
Y506000D02*
D03*
X287000Y506000D02*
D03*
Y522000D02*
D03*
X365000D02*
D03*
Y506000D02*
D03*
X351000Y522000D02*
D03*
Y506000D02*
D03*
X379000D02*
D03*
Y522000D02*
D03*
X180001Y118999D02*
D03*
Y102999D02*
D03*
X194000Y119000D02*
D03*
Y103000D02*
D03*
D61*
X258500Y74700D02*
D03*
Y55700D02*
D03*
X233500D02*
D03*
Y65200D02*
D03*
Y74700D02*
D03*
D62*
X446500Y750000D02*
D03*
X353500D02*
D03*
X446500Y850000D02*
D03*
X353500D02*
D03*
D63*
X419050Y620000D02*
D03*
X406350D02*
D03*
Y680000D02*
D03*
X419050D02*
D03*
X393650D02*
D03*
X380950D02*
D03*
Y620000D02*
D03*
X393650D02*
D03*
D64*
X1391000Y127000D02*
D03*
Y163000D02*
D03*
X295000Y47200D02*
D03*
Y83200D02*
D03*
D65*
X1455000Y155500D02*
D03*
Y136500D02*
D03*
X1427000D02*
D03*
Y146000D02*
D03*
Y155500D02*
D03*
D66*
X1473000Y173000D02*
D03*
X1453000D02*
D03*
X239000Y92000D02*
D03*
X259000D02*
D03*
X1087000Y387000D02*
D03*
X1067000D02*
D03*
X845000Y631000D02*
D03*
X825000D02*
D03*
X1067000Y405000D02*
D03*
X1087000D02*
D03*
X1107000Y386800D02*
D03*
X1127000D02*
D03*
Y405000D02*
D03*
X1107000D02*
D03*
X821000Y369000D02*
D03*
X841000D02*
D03*
X263000Y382000D02*
D03*
X283000D02*
D03*
X418000Y396000D02*
D03*
X398000D02*
D03*
D67*
X1472000Y156000D02*
D03*
Y136000D02*
D03*
X571000Y115000D02*
D03*
Y135000D02*
D03*
X589000D02*
D03*
Y115000D02*
D03*
X675000Y71000D02*
D03*
Y91000D02*
D03*
X657000Y71000D02*
D03*
Y91000D02*
D03*
X216000Y57200D02*
D03*
Y77200D02*
D03*
X224000Y528000D02*
D03*
Y508000D02*
D03*
X303000D02*
D03*
Y528000D02*
D03*
X335000D02*
D03*
Y508000D02*
D03*
D68*
X608030Y114906D02*
D03*
Y110080D02*
D03*
Y105000D02*
D03*
Y99920D02*
D03*
Y95094D02*
D03*
X635970D02*
D03*
Y99920D02*
D03*
Y105000D02*
D03*
Y110080D02*
D03*
Y114906D02*
D03*
D69*
X622000Y105000D02*
D03*
D70*
X593000Y60000D02*
D03*
X629000D02*
D03*
D71*
X752000Y589400D02*
D03*
X794000Y538600D02*
D03*
Y589400D02*
D03*
X752000Y538600D02*
D03*
X348000Y296600D02*
D03*
X306000Y347400D02*
D03*
Y296600D02*
D03*
X348000Y347400D02*
D03*
D72*
X1092250Y280950D02*
D03*
Y293650D02*
D03*
Y306350D02*
D03*
Y319050D02*
D03*
X1037750Y280950D02*
D03*
Y293650D02*
D03*
Y306350D02*
D03*
Y319050D02*
D03*
D73*
X292620Y467500D02*
D03*
Y462500D02*
D03*
Y457500D02*
D03*
Y452500D02*
D03*
Y447500D02*
D03*
Y442500D02*
D03*
Y437500D02*
D03*
Y432500D02*
D03*
Y427500D02*
D03*
Y422500D02*
D03*
Y417500D02*
D03*
Y412500D02*
D03*
X377380D02*
D03*
Y417500D02*
D03*
Y422500D02*
D03*
Y427500D02*
D03*
Y432500D02*
D03*
Y437500D02*
D03*
Y442500D02*
D03*
Y447500D02*
D03*
Y452500D02*
D03*
Y457500D02*
D03*
Y462500D02*
D03*
Y467500D02*
D03*
D74*
X307500Y397620D02*
D03*
X312500D02*
D03*
X317500D02*
D03*
X322500D02*
D03*
X327500D02*
D03*
X332500D02*
D03*
X337500D02*
D03*
X342500D02*
D03*
X347500D02*
D03*
X352500D02*
D03*
X357500D02*
D03*
X362500D02*
D03*
Y482380D02*
D03*
X357500D02*
D03*
X352500D02*
D03*
X347500D02*
D03*
X342500D02*
D03*
X337500D02*
D03*
X332500D02*
D03*
X327500D02*
D03*
X322500D02*
D03*
X317500D02*
D03*
X312500D02*
D03*
X307500D02*
D03*
D75*
X242999Y530000D02*
D03*
Y506000D02*
D03*
X262999Y530000D02*
D03*
Y506000D02*
D03*
D76*
X173000Y166000D02*
D03*
D77*
X198500Y168500D02*
D03*
Y173500D02*
D03*
X147500Y168500D02*
D03*
Y173500D02*
D03*
X198500Y163500D02*
D03*
Y158500D02*
D03*
Y153500D02*
D03*
Y148500D02*
D03*
X147500Y163500D02*
D03*
Y148500D02*
D03*
Y153500D02*
D03*
Y158500D02*
D03*
X198500Y183500D02*
D03*
Y178500D02*
D03*
X147500D02*
D03*
Y183500D02*
D03*
D78*
X160500Y140500D02*
D03*
Y191500D02*
D03*
X165500Y140500D02*
D03*
X190500D02*
D03*
X185500D02*
D03*
X180500D02*
D03*
X175500D02*
D03*
X170500D02*
D03*
X155500D02*
D03*
X165500Y191500D02*
D03*
X170500D02*
D03*
X175500D02*
D03*
X180500D02*
D03*
X185500D02*
D03*
X190500D02*
D03*
X155500D02*
D03*
D79*
X1035000Y585000D02*
D03*
X1025000D02*
D03*
X1015000D02*
D03*
X1005000D02*
D03*
X995000D02*
D03*
X985000D02*
D03*
X975000D02*
D03*
X965000D02*
D03*
X955000D02*
D03*
X945000D02*
D03*
X935000D02*
D03*
X925000D02*
D03*
X915000D02*
D03*
X905000D02*
D03*
X895000D02*
D03*
X885000D02*
D03*
X875000D02*
D03*
X865000D02*
D03*
X855000D02*
D03*
X845000D02*
D03*
X835000D02*
D03*
X825000D02*
D03*
X1035000Y595000D02*
D03*
X1025000D02*
D03*
X1015000D02*
D03*
X1005000D02*
D03*
X995000D02*
D03*
X985000D02*
D03*
X975000D02*
D03*
X965000D02*
D03*
X955000D02*
D03*
X945000D02*
D03*
X935000D02*
D03*
X925000D02*
D03*
X915000D02*
D03*
X905000D02*
D03*
X895000D02*
D03*
X885000D02*
D03*
X875000D02*
D03*
X865000D02*
D03*
X855000D02*
D03*
X845000D02*
D03*
X835000D02*
D03*
X825000D02*
D03*
Y605000D02*
D03*
X835000D02*
D03*
X845000D02*
D03*
X855000D02*
D03*
X865000D02*
D03*
X875000D02*
D03*
X885000D02*
D03*
X895000D02*
D03*
X905000D02*
D03*
X915000D02*
D03*
X925000D02*
D03*
X935000D02*
D03*
X945000D02*
D03*
X955000D02*
D03*
X965000D02*
D03*
X975000D02*
D03*
X985000D02*
D03*
X995000D02*
D03*
X1005000D02*
D03*
X1015000D02*
D03*
X1025000D02*
D03*
X1035000D02*
D03*
X825000Y575000D02*
D03*
X835000D02*
D03*
X845000D02*
D03*
X855000D02*
D03*
X865000D02*
D03*
X875000D02*
D03*
X885000D02*
D03*
X895000D02*
D03*
X905000D02*
D03*
X915000D02*
D03*
X925000D02*
D03*
X935000D02*
D03*
X945000D02*
D03*
X955000D02*
D03*
X965000D02*
D03*
X975000D02*
D03*
X985000D02*
D03*
X995000D02*
D03*
X1005000D02*
D03*
X1015000D02*
D03*
X1025000D02*
D03*
X1035000D02*
D03*
X825000Y565000D02*
D03*
X835000D02*
D03*
X845000D02*
D03*
X855000D02*
D03*
X865000D02*
D03*
X875000D02*
D03*
X885000D02*
D03*
X895000D02*
D03*
X905000D02*
D03*
X915000D02*
D03*
X925000D02*
D03*
X935000D02*
D03*
X945000D02*
D03*
X955000D02*
D03*
X965000D02*
D03*
X975000D02*
D03*
X985000D02*
D03*
X995000D02*
D03*
X1005000D02*
D03*
X1015000D02*
D03*
X1025000D02*
D03*
X1035000D02*
D03*
X825000Y555000D02*
D03*
X835000D02*
D03*
X845000D02*
D03*
X855000D02*
D03*
X865000D02*
D03*
X875000D02*
D03*
X885000D02*
D03*
X895000D02*
D03*
X905000D02*
D03*
X915000D02*
D03*
X925000D02*
D03*
X935000D02*
D03*
X945000D02*
D03*
X955000D02*
D03*
X965000D02*
D03*
X975000D02*
D03*
X985000D02*
D03*
X995000D02*
D03*
X1005000D02*
D03*
X1015000D02*
D03*
X1025000D02*
D03*
X1035000D02*
D03*
X825000Y545000D02*
D03*
X835000D02*
D03*
X845000D02*
D03*
X855000D02*
D03*
X865000D02*
D03*
X875000D02*
D03*
X885000D02*
D03*
X895000D02*
D03*
X905000D02*
D03*
X915000D02*
D03*
X925000D02*
D03*
X935000D02*
D03*
X945000D02*
D03*
X955000D02*
D03*
X965000D02*
D03*
X975000D02*
D03*
X985000D02*
D03*
X995000D02*
D03*
X1005000D02*
D03*
X1015000D02*
D03*
X1025000D02*
D03*
X1035000D02*
D03*
X825000Y535000D02*
D03*
X835000D02*
D03*
X845000D02*
D03*
X855000D02*
D03*
X865000D02*
D03*
X875000D02*
D03*
X885000D02*
D03*
X895000D02*
D03*
X905000D02*
D03*
X915000D02*
D03*
X925000D02*
D03*
X935000D02*
D03*
X945000D02*
D03*
X955000D02*
D03*
X965000D02*
D03*
X975000D02*
D03*
X985000D02*
D03*
X995000D02*
D03*
X1005000D02*
D03*
X1015000D02*
D03*
X1025000D02*
D03*
X1035000D02*
D03*
X825000Y525000D02*
D03*
X835000D02*
D03*
X845000D02*
D03*
X855000D02*
D03*
X865000D02*
D03*
X875000D02*
D03*
X885000D02*
D03*
X895000D02*
D03*
X905000D02*
D03*
X915000D02*
D03*
X925000D02*
D03*
X935000D02*
D03*
X945000D02*
D03*
X955000D02*
D03*
X965000D02*
D03*
X975000D02*
D03*
X985000D02*
D03*
X995000D02*
D03*
X1005000D02*
D03*
X1015000D02*
D03*
X1025000D02*
D03*
X1035000D02*
D03*
X825000Y515000D02*
D03*
X835000D02*
D03*
X845000D02*
D03*
X855000D02*
D03*
X865000D02*
D03*
X875000D02*
D03*
X885000D02*
D03*
X895000D02*
D03*
X905000D02*
D03*
X915000D02*
D03*
X925000D02*
D03*
X935000D02*
D03*
X945000D02*
D03*
X955000D02*
D03*
X965000D02*
D03*
X975000D02*
D03*
X985000D02*
D03*
X995000D02*
D03*
X1005000D02*
D03*
X1015000D02*
D03*
X1025000D02*
D03*
X1035000D02*
D03*
X825000Y505000D02*
D03*
X835000D02*
D03*
X845000D02*
D03*
X855000D02*
D03*
X865000D02*
D03*
X875000D02*
D03*
X885000D02*
D03*
X895000D02*
D03*
X905000D02*
D03*
X915000D02*
D03*
X925000D02*
D03*
X935000D02*
D03*
X945000D02*
D03*
X955000D02*
D03*
X965000D02*
D03*
X975000D02*
D03*
X985000D02*
D03*
X995000D02*
D03*
X1005000D02*
D03*
X1015000D02*
D03*
X1025000D02*
D03*
X1035000D02*
D03*
X825000Y495000D02*
D03*
X835000D02*
D03*
X845000D02*
D03*
X855000D02*
D03*
X865000D02*
D03*
X875000D02*
D03*
X885000D02*
D03*
X895000D02*
D03*
X905000D02*
D03*
X915000D02*
D03*
X925000D02*
D03*
X935000D02*
D03*
X945000D02*
D03*
X955000D02*
D03*
X965000D02*
D03*
X975000D02*
D03*
X985000D02*
D03*
X995000D02*
D03*
X1005000D02*
D03*
X1015000D02*
D03*
X1025000D02*
D03*
X1035000D02*
D03*
X825000Y485000D02*
D03*
X835000D02*
D03*
X845000D02*
D03*
X855000D02*
D03*
X865000D02*
D03*
X875000D02*
D03*
X885000D02*
D03*
X895000D02*
D03*
X905000D02*
D03*
X915000D02*
D03*
X925000D02*
D03*
X935000D02*
D03*
X945000D02*
D03*
X955000D02*
D03*
X965000D02*
D03*
X975000D02*
D03*
X985000D02*
D03*
X995000D02*
D03*
X1005000D02*
D03*
X1015000D02*
D03*
X1025000D02*
D03*
X1035000D02*
D03*
X825000Y475000D02*
D03*
X835000D02*
D03*
X845000D02*
D03*
X855000D02*
D03*
X865000D02*
D03*
X875000D02*
D03*
X885000D02*
D03*
X895000D02*
D03*
X905000D02*
D03*
X915000D02*
D03*
X925000D02*
D03*
X935000D02*
D03*
X945000D02*
D03*
X955000D02*
D03*
X965000D02*
D03*
X975000D02*
D03*
X985000D02*
D03*
X995000D02*
D03*
X1005000D02*
D03*
X1015000D02*
D03*
X1025000D02*
D03*
X1035000D02*
D03*
X825000Y465000D02*
D03*
X835000D02*
D03*
X845000D02*
D03*
X855000D02*
D03*
X865000D02*
D03*
X875000D02*
D03*
X885000D02*
D03*
X895000D02*
D03*
X905000D02*
D03*
X915000D02*
D03*
X925000D02*
D03*
X935000D02*
D03*
X945000D02*
D03*
X955000D02*
D03*
X965000D02*
D03*
X975000D02*
D03*
X985000D02*
D03*
X995000D02*
D03*
X1005000D02*
D03*
X1015000D02*
D03*
X1025000D02*
D03*
X1035000D02*
D03*
X825000Y455000D02*
D03*
X835000D02*
D03*
X845000D02*
D03*
X855000D02*
D03*
X865000D02*
D03*
X875000D02*
D03*
X885000D02*
D03*
X895000D02*
D03*
X905000D02*
D03*
X915000D02*
D03*
X925000D02*
D03*
X935000D02*
D03*
X945000D02*
D03*
X955000D02*
D03*
X965000D02*
D03*
X975000D02*
D03*
X985000D02*
D03*
X995000D02*
D03*
X1005000D02*
D03*
X1015000D02*
D03*
X1025000D02*
D03*
X1035000D02*
D03*
X825000Y445000D02*
D03*
X835000D02*
D03*
X845000D02*
D03*
X855000D02*
D03*
X865000D02*
D03*
X875000D02*
D03*
X885000D02*
D03*
X895000D02*
D03*
X905000D02*
D03*
X915000D02*
D03*
X925000D02*
D03*
X935000D02*
D03*
X945000D02*
D03*
X955000D02*
D03*
X965000D02*
D03*
X975000D02*
D03*
X985000D02*
D03*
X995000D02*
D03*
X1005000D02*
D03*
X1015000D02*
D03*
X1025000D02*
D03*
X1035000D02*
D03*
X825000Y435000D02*
D03*
X835000D02*
D03*
X845000D02*
D03*
X855000D02*
D03*
X865000D02*
D03*
X875000D02*
D03*
X885000D02*
D03*
X895000D02*
D03*
X905000D02*
D03*
X915000D02*
D03*
X925000D02*
D03*
X935000D02*
D03*
X945000D02*
D03*
X955000D02*
D03*
X965000D02*
D03*
X975000D02*
D03*
X985000D02*
D03*
X995000D02*
D03*
X1005000D02*
D03*
X1015000D02*
D03*
X1025000D02*
D03*
X1035000D02*
D03*
X825000Y425000D02*
D03*
X835000D02*
D03*
X845000D02*
D03*
X855000D02*
D03*
X865000D02*
D03*
X875000D02*
D03*
X885000D02*
D03*
X895000D02*
D03*
X905000D02*
D03*
X915000D02*
D03*
X925000D02*
D03*
X935000D02*
D03*
X945000D02*
D03*
X955000D02*
D03*
X965000D02*
D03*
X975000D02*
D03*
X985000D02*
D03*
X995000D02*
D03*
X1005000D02*
D03*
X1015000D02*
D03*
X1025000D02*
D03*
X1035000D02*
D03*
X825000Y415000D02*
D03*
X835000D02*
D03*
X845000D02*
D03*
X855000D02*
D03*
X865000D02*
D03*
X875000D02*
D03*
X885000D02*
D03*
X895000D02*
D03*
X905000D02*
D03*
X915000D02*
D03*
X925000D02*
D03*
X935000D02*
D03*
X945000D02*
D03*
X955000D02*
D03*
X965000D02*
D03*
X975000D02*
D03*
X985000D02*
D03*
X995000D02*
D03*
X1005000D02*
D03*
X1015000D02*
D03*
X1025000D02*
D03*
X1035000D02*
D03*
X825000Y405000D02*
D03*
X835000D02*
D03*
X845000D02*
D03*
X855000D02*
D03*
X865000D02*
D03*
X875000D02*
D03*
X885000D02*
D03*
X895000D02*
D03*
X905000D02*
D03*
X915000D02*
D03*
X925000D02*
D03*
X935000D02*
D03*
X945000D02*
D03*
X955000D02*
D03*
X965000D02*
D03*
X975000D02*
D03*
X985000D02*
D03*
X995000D02*
D03*
X1005000D02*
D03*
X1015000D02*
D03*
X1025000D02*
D03*
X1035000D02*
D03*
X825000Y395000D02*
D03*
X835000D02*
D03*
X845000D02*
D03*
X855000D02*
D03*
X865000D02*
D03*
X875000D02*
D03*
X885000D02*
D03*
X895000D02*
D03*
X905000D02*
D03*
X915000D02*
D03*
X925000D02*
D03*
X935000D02*
D03*
X945000D02*
D03*
X955000D02*
D03*
X965000D02*
D03*
X975000D02*
D03*
X985000D02*
D03*
X995000D02*
D03*
X1005000D02*
D03*
X1015000D02*
D03*
X1025000D02*
D03*
X1035000D02*
D03*
D80*
X752500Y944500D02*
D03*
Y895500D02*
D03*
X1107500Y944500D02*
D03*
Y895500D02*
D03*
X752500Y104500D02*
D03*
Y55500D02*
D03*
X1107500Y104500D02*
D03*
Y55500D02*
D03*
D81*
X1082400Y892500D02*
D03*
Y947500D02*
D03*
X1069700D02*
D03*
X1031600D02*
D03*
X1069700Y892500D02*
D03*
X1057000D02*
D03*
X1044300D02*
D03*
X1031600D02*
D03*
X1057000Y947500D02*
D03*
X1044300D02*
D03*
X1018900D02*
D03*
X1006200D02*
D03*
X993500D02*
D03*
X980800D02*
D03*
X968100D02*
D03*
X955400D02*
D03*
X942700D02*
D03*
X930000D02*
D03*
X917300D02*
D03*
X904600D02*
D03*
X891900D02*
D03*
X879200D02*
D03*
X866500D02*
D03*
X853800D02*
D03*
X841100D02*
D03*
X828400D02*
D03*
X815700D02*
D03*
X803000D02*
D03*
X790300D02*
D03*
X777600D02*
D03*
D03*
X1018900Y892500D02*
D03*
X1006200D02*
D03*
X993500D02*
D03*
X980800D02*
D03*
X968100D02*
D03*
X955400D02*
D03*
X942700D02*
D03*
X930000D02*
D03*
X917300D02*
D03*
X904600D02*
D03*
X891900D02*
D03*
X879200D02*
D03*
X866500D02*
D03*
X853800D02*
D03*
X841100D02*
D03*
X828400D02*
D03*
X815700D02*
D03*
X803000D02*
D03*
X790300D02*
D03*
X777600D02*
D03*
D03*
X1082400Y52500D02*
D03*
Y107500D02*
D03*
X1069700D02*
D03*
X1031600D02*
D03*
X1069700Y52500D02*
D03*
X1057000D02*
D03*
X1044300D02*
D03*
X1031600D02*
D03*
X1057000Y107500D02*
D03*
X1044300D02*
D03*
X1018900D02*
D03*
X1006200D02*
D03*
X993500D02*
D03*
X980800D02*
D03*
X968100D02*
D03*
X955400D02*
D03*
X942700D02*
D03*
X930000D02*
D03*
X917300D02*
D03*
X904600D02*
D03*
X891900D02*
D03*
X879200D02*
D03*
X866500D02*
D03*
X853800D02*
D03*
X841100D02*
D03*
X828400D02*
D03*
X815700D02*
D03*
X803000D02*
D03*
X790300D02*
D03*
X777600D02*
D03*
D03*
X1018900Y52500D02*
D03*
X1006200D02*
D03*
X993500D02*
D03*
X980800D02*
D03*
X968100D02*
D03*
X955400D02*
D03*
X942700D02*
D03*
X930000D02*
D03*
X917300D02*
D03*
X904600D02*
D03*
X891900D02*
D03*
X879200D02*
D03*
X866500D02*
D03*
X853800D02*
D03*
X841100D02*
D03*
X828400D02*
D03*
X815700D02*
D03*
X803000D02*
D03*
X790300D02*
D03*
X777600D02*
D03*
D03*
D82*
X722000Y575000D02*
X740400D01*
X304000Y506000D02*
Y508000D01*
X287000Y506000D02*
X304000D01*
X266000Y382000D02*
Y397000D01*
X794000Y589000D02*
X795000Y588000D01*
X793000Y590000D02*
X794000Y589000D01*
X722000Y590000D02*
X793000D01*
X285000Y297000D02*
X348000D01*
Y296600D02*
Y297000D01*
X740400Y575000D02*
X752000Y563400D01*
Y538600D02*
Y563400D01*
X794000Y589000D02*
Y589400D01*
X280000Y522000D02*
X288000D01*
X277000Y519000D02*
X280000Y522000D01*
X277000Y458500D02*
Y519000D01*
Y458500D02*
X283000Y452500D01*
X276000Y313000D02*
X285000D01*
X276000Y297000D02*
X285000D01*
X418000Y385000D02*
Y396000D01*
X412000Y402000D02*
X418000Y396000D01*
X412000Y402000D02*
Y412200D01*
X306000Y347400D02*
Y366400D01*
X348000Y333000D02*
X348000Y333000D01*
Y347400D01*
X306000Y366400D02*
X317500Y377900D01*
Y397620D01*
X377380Y437500D02*
X390000D01*
X327500Y397620D02*
Y410240D01*
X307500Y385000D02*
Y397620D01*
X362500D02*
Y410240D01*
X335000Y528000D02*
Y538000D01*
X351000Y522000D02*
Y530000D01*
X283000Y366000D02*
Y382000D01*
X351000Y506000D02*
X365000D01*
X334000Y507000D02*
X335000Y508000D01*
X362500Y482380D02*
Y495000D01*
X362500Y482380D02*
X362500Y482380D01*
X379000Y498000D02*
Y506000D01*
X287000Y498000D02*
Y506000D01*
X292620Y467500D02*
Y473000D01*
Y462500D02*
Y467500D01*
Y457500D02*
Y462500D01*
X304000Y506000D02*
X304000Y506000D01*
X368000Y442500D02*
X377380D01*
X364000Y446500D02*
X368000Y442500D01*
X364000Y446500D02*
Y469000D01*
X389000Y494000D01*
Y520000D01*
X387000Y522000D02*
X389000Y520000D01*
X379000Y522000D02*
X387000D01*
X365000D02*
X379000D01*
X294000Y528000D02*
X303000D01*
X288000Y522000D02*
X294000Y528000D01*
X303000D02*
X313000D01*
X319000Y522000D01*
X283000Y452500D02*
X292620D01*
Y447500D02*
Y452500D01*
X335000Y506000D02*
X351000D01*
X333000D02*
X335000D01*
Y508000D01*
Y499000D02*
Y506000D01*
X365000D02*
X365000Y506000D01*
X319000Y506000D02*
X333000D01*
X334000Y507000D01*
X333000Y497000D02*
X335000Y499000D01*
X305000Y497000D02*
X333000D01*
X300000Y492000D02*
X305000Y497000D01*
X300000Y475000D02*
Y492000D01*
Y475000D02*
X307500Y467500D01*
Y447000D02*
Y467500D01*
X303000Y442500D02*
X307500Y447000D01*
X292620Y442500D02*
X303000D01*
X377380Y412500D02*
Y417500D01*
X398000Y385000D02*
Y396000D01*
X397000Y397000D02*
X398000Y396000D01*
X397000Y397000D02*
Y411200D01*
X396000Y412200D02*
X397000Y411200D01*
X395700Y412500D02*
X396000Y412200D01*
X377380Y412500D02*
X395700D01*
X259000Y398000D02*
X267000D01*
X266000Y397000D02*
X267000Y398000D01*
X263000Y382000D02*
X266000D01*
X283000Y358000D02*
Y366000D01*
X293000Y398000D02*
X307000Y412000D01*
X292620Y432500D02*
X307000D01*
Y434620D01*
Y412000D02*
Y432500D01*
X304120Y437500D02*
X307000Y434620D01*
X292620Y437500D02*
X304120D01*
X283000Y398000D02*
X293000D01*
X250000Y398000D02*
Y434500D01*
Y355000D02*
Y398000D01*
X235000D02*
X250000D01*
X225000Y355000D02*
X250000D01*
X219000Y361000D02*
X225000Y355000D01*
X283000Y382000D02*
Y398000D01*
X235000Y440000D02*
X244500D01*
X280000Y355000D02*
X283000Y358000D01*
X250000Y355000D02*
X280000D01*
X244500Y440000D02*
X250000Y434500D01*
X130500Y347430D02*
X131770Y348700D01*
X97480Y314410D02*
X130500Y347430D01*
Y361400D01*
X191000Y334000D02*
Y348000D01*
X190300Y348700D02*
X191000Y348000D01*
X155900Y348700D02*
X190300D01*
X131770D02*
X155900D01*
X140000Y371000D02*
X149600Y361400D01*
X140000Y371000D02*
Y377300D01*
X130500Y386800D02*
X140000Y377300D01*
X235000Y370000D02*
X243000D01*
X235000Y384000D02*
X243000D01*
X207000Y361000D02*
Y370000D01*
X219000Y361000D02*
Y370000D01*
Y384000D01*
X207000D02*
X219000D01*
X191000Y370000D02*
Y384000D01*
X182604Y370000D02*
X191000D01*
X174004Y361400D02*
X182604Y370000D01*
X149600Y361400D02*
X174004D01*
X608030Y121000D02*
Y125970D01*
Y116000D02*
Y121000D01*
X604000Y130000D02*
X608030Y125970D01*
X571000Y135400D02*
Y145000D01*
X233500Y74700D02*
X233600Y74600D01*
X113000Y108000D02*
Y122000D01*
Y99000D02*
Y108000D01*
X216000Y185000D02*
Y194000D01*
X207500D02*
X216000D01*
X205000Y191500D02*
X207500Y194000D01*
X190500Y191500D02*
X205000D01*
X136500Y148500D02*
X147500D01*
X129000Y141000D02*
X136500Y148500D01*
X165500Y119500D02*
X166000Y119000D01*
X165500Y119500D02*
Y140500D01*
X113000Y122000D02*
Y131000D01*
D83*
X1380000Y200000D02*
X1410000D01*
X1375000D02*
X1380000D01*
X1370000D02*
X1375000D01*
X480400Y245000D02*
X500000Y225400D01*
X440000Y245000D02*
X480400D01*
X432000Y237000D02*
X440000Y245000D01*
X432000Y225400D02*
Y237000D01*
X410000Y225000D02*
X432000D01*
Y156000D02*
Y225000D01*
X411000Y135000D02*
X432000Y156000D01*
X455000Y225400D02*
X477000Y203400D01*
Y155000D02*
Y203400D01*
X458000Y136000D02*
X477000Y155000D01*
X455000Y136000D02*
X458000D01*
X710000Y45000D02*
Y77200D01*
X706000Y81200D02*
X710000Y77200D01*
X706000Y81200D02*
Y91000D01*
X410000Y136000D02*
X411000Y135000D01*
X1410000Y200000D02*
X1423000Y187000D01*
X525000Y115000D02*
X571000D01*
X500000Y90000D02*
X525000Y115000D01*
X409200Y175000D02*
X410000Y174200D01*
X370000Y175000D02*
X409200D01*
X320000Y125000D02*
X370000Y175000D01*
X280000Y125000D02*
X320000D01*
X259000Y92000D02*
X262000Y95000D01*
Y125000D01*
X1423000Y173000D02*
Y187000D01*
D84*
X541000Y90000D02*
D03*
X455000Y45000D02*
D03*
X410000Y44996D02*
D03*
X97480Y471890D02*
D03*
Y314410D02*
D03*
X1450000Y80000D02*
D03*
X410000Y90000D02*
D03*
X710000Y45000D02*
D03*
X500000Y90000D02*
D03*
X455000Y136000D02*
D03*
X410000D02*
D03*
X455000Y91000D02*
D03*
D85*
Y200000D02*
D03*
X455000Y225400D02*
D03*
Y174600D02*
D03*
X500000Y200000D02*
D03*
X500000Y225400D02*
D03*
Y174600D02*
D03*
X410000Y199600D02*
D03*
X410000Y225000D02*
D03*
Y174200D02*
D03*
X17978Y456396D02*
D03*
X33218Y329904D02*
D03*
Y430996D02*
D03*
X17978Y355304D02*
D03*
D86*
X160000Y50000D02*
D03*
X35000Y945000D02*
D03*
Y55000D02*
D03*
X1575000Y55500D02*
D03*
Y944500D02*
D03*
D87*
X55000Y539000D02*
D03*
Y513600D02*
D03*
X80400D02*
D03*
Y539000D02*
D03*
X131200D02*
D03*
Y513600D02*
D03*
X105800D02*
D03*
Y539000D02*
D03*
X55000Y630700D02*
D03*
Y605300D02*
D03*
X80400D02*
D03*
Y630700D02*
D03*
X131200D02*
D03*
Y605300D02*
D03*
X105800D02*
D03*
Y630700D02*
D03*
X1549000Y894000D02*
D03*
X1498200D02*
D03*
X1549000Y868600D02*
D03*
Y843200D02*
D03*
Y817800D02*
D03*
Y792400D02*
D03*
Y767000D02*
D03*
Y741600D02*
D03*
Y716200D02*
D03*
Y690800D02*
D03*
Y665400D02*
D03*
Y640000D02*
D03*
Y614600D02*
D03*
Y589200D02*
D03*
Y563800D02*
D03*
Y538400D02*
D03*
Y513000D02*
D03*
Y487600D02*
D03*
Y462200D02*
D03*
Y436800D02*
D03*
Y411400D02*
D03*
Y386000D02*
D03*
Y360600D02*
D03*
Y335200D02*
D03*
Y309800D02*
D03*
Y284400D02*
D03*
Y259000D02*
D03*
Y233600D02*
D03*
Y208200D02*
D03*
Y182800D02*
D03*
Y157400D02*
D03*
Y132000D02*
D03*
Y106600D02*
D03*
X1523600Y894000D02*
D03*
Y868600D02*
D03*
Y843200D02*
D03*
Y817800D02*
D03*
Y792400D02*
D03*
Y767000D02*
D03*
Y741600D02*
D03*
Y716200D02*
D03*
Y690800D02*
D03*
Y665400D02*
D03*
Y640000D02*
D03*
Y614600D02*
D03*
Y589200D02*
D03*
Y563800D02*
D03*
Y538400D02*
D03*
Y513000D02*
D03*
Y487600D02*
D03*
Y462200D02*
D03*
Y436800D02*
D03*
Y411400D02*
D03*
Y386000D02*
D03*
Y360600D02*
D03*
Y335200D02*
D03*
Y309800D02*
D03*
Y284400D02*
D03*
Y259000D02*
D03*
Y233600D02*
D03*
Y208200D02*
D03*
Y182800D02*
D03*
Y157400D02*
D03*
Y132000D02*
D03*
Y106600D02*
D03*
X1498200Y868600D02*
D03*
Y843200D02*
D03*
Y817800D02*
D03*
Y792400D02*
D03*
Y767000D02*
D03*
Y741600D02*
D03*
Y716200D02*
D03*
Y690800D02*
D03*
Y665400D02*
D03*
Y640000D02*
D03*
Y614600D02*
D03*
Y589200D02*
D03*
Y563800D02*
D03*
Y538400D02*
D03*
Y513000D02*
D03*
Y487600D02*
D03*
Y462200D02*
D03*
Y436800D02*
D03*
Y411400D02*
D03*
Y386000D02*
D03*
Y360600D02*
D03*
Y335200D02*
D03*
Y309800D02*
D03*
Y284400D02*
D03*
Y259000D02*
D03*
Y233600D02*
D03*
Y208200D02*
D03*
Y182800D02*
D03*
Y157400D02*
D03*
Y132000D02*
D03*
Y106600D02*
D03*
D88*
X42000Y885500D02*
D03*
Y840500D02*
D03*
Y714500D02*
D03*
Y669500D02*
D03*
Y800500D02*
D03*
Y755500D02*
D03*
D89*
X67000Y898000D02*
D03*
Y828000D02*
D03*
Y727000D02*
D03*
Y657000D02*
D03*
Y813000D02*
D03*
Y743000D02*
D03*
X155900Y399500D02*
D03*
X130500Y386800D02*
D03*
X155900Y424900D02*
D03*
X130500Y437600D02*
D03*
Y412200D02*
D03*
X155900Y374100D02*
D03*
Y348700D02*
D03*
X130500Y361400D02*
D03*
D90*
X67000Y450300D02*
D03*
Y336000D02*
D03*
D91*
X1104500Y920000D02*
D03*
X755500D02*
D03*
X1104500Y80000D02*
D03*
X755500D02*
D03*
Y920000D02*
D03*
X1104500D02*
D03*
X755500Y80000D02*
D03*
X1104500D02*
D03*
D92*
X41000Y243000D02*
D03*
X21000D02*
D03*
X41000Y263000D02*
D03*
Y203000D02*
D03*
Y223000D02*
D03*
X21000Y263000D02*
D03*
Y203000D02*
D03*
Y223000D02*
D03*
Y183000D02*
D03*
D93*
X41000D02*
D03*
D94*
X86500Y108600D02*
D03*
X38500D02*
D03*
Y137200D02*
D03*
X86500D02*
D03*
D95*
X33000Y119000D02*
D03*
X42000D02*
D03*
X51000D02*
D03*
X60000D02*
D03*
X69000D02*
D03*
X37500Y126800D02*
D03*
X46500D02*
D03*
X55500D02*
D03*
X64500D02*
D03*
X73500D02*
D03*
X78000Y119000D02*
D03*
X82500Y126800D02*
D03*
X87000Y119000D02*
D03*
X91500Y126800D02*
D03*
D96*
X180000Y433750D02*
D03*
X281000Y427500D02*
D03*
X275000Y424000D02*
D03*
X940000Y550000D02*
D03*
X920000D02*
D03*
X70000Y74000D02*
D03*
X920000Y470000D02*
D03*
X1445000Y192000D02*
D03*
X777600Y52500D02*
D03*
X790300D02*
D03*
X803000D02*
D03*
X815700D02*
D03*
X828400D02*
D03*
X841100D02*
D03*
X853800D02*
D03*
X942700D02*
D03*
X930000D02*
D03*
X917300D02*
D03*
X904600D02*
D03*
X891900D02*
D03*
X879200D02*
D03*
X866500D02*
D03*
X1031600D02*
D03*
X1018900D02*
D03*
X1006200D02*
D03*
X993500D02*
D03*
X980800D02*
D03*
X968100D02*
D03*
X955400D02*
D03*
X1082400D02*
D03*
X1069700D02*
D03*
X1057000D02*
D03*
X1044300D02*
D03*
X777600Y107500D02*
D03*
X790300D02*
D03*
X803000D02*
D03*
X815700D02*
D03*
X828400D02*
D03*
X841100D02*
D03*
X853800D02*
D03*
X942700D02*
D03*
X930000D02*
D03*
X917300D02*
D03*
X904600D02*
D03*
X891900D02*
D03*
X879200D02*
D03*
X866500D02*
D03*
X1031600D02*
D03*
X1018900D02*
D03*
X1006200D02*
D03*
X993500D02*
D03*
X980800D02*
D03*
X968100D02*
D03*
X955400D02*
D03*
X1082400D02*
D03*
X1069700D02*
D03*
X1057000D02*
D03*
X1044300D02*
D03*
X777600Y947500D02*
D03*
X790300D02*
D03*
X803000D02*
D03*
X815700D02*
D03*
X828400D02*
D03*
X841100D02*
D03*
X853800D02*
D03*
X942700D02*
D03*
X930000D02*
D03*
X917300D02*
D03*
X904600D02*
D03*
X891900D02*
D03*
X879200D02*
D03*
X866500D02*
D03*
X1031600D02*
D03*
X1018900D02*
D03*
X1006200D02*
D03*
X993500D02*
D03*
X980800D02*
D03*
X968100D02*
D03*
X955400D02*
D03*
X1082400D02*
D03*
X1069700D02*
D03*
X1057000D02*
D03*
X1044300D02*
D03*
Y892500D02*
D03*
X1057000D02*
D03*
X1069700D02*
D03*
X1082400D02*
D03*
X955400D02*
D03*
X968100D02*
D03*
X980800D02*
D03*
X993500D02*
D03*
X1006200D02*
D03*
X1018900D02*
D03*
X1031600D02*
D03*
X866500D02*
D03*
X879200D02*
D03*
X891900D02*
D03*
X904600D02*
D03*
X917300D02*
D03*
X930000D02*
D03*
X942700D02*
D03*
X853800D02*
D03*
X841100D02*
D03*
X828400D02*
D03*
X815700D02*
D03*
X803000D02*
D03*
X790300D02*
D03*
X777600D02*
D03*
X1380000Y200000D02*
D03*
X1375000D02*
D03*
X680000Y225000D02*
D03*
Y200000D02*
D03*
Y175000D02*
D03*
Y150000D02*
D03*
X835000Y140000D02*
D03*
X840000Y165000D02*
D03*
X760000D02*
D03*
X845000Y190000D02*
D03*
X850000Y215000D02*
D03*
X760000D02*
D03*
X780000Y225000D02*
D03*
X760000Y190000D02*
D03*
X780000Y200000D02*
D03*
Y175000D02*
D03*
Y150000D02*
D03*
X760000Y140000D02*
D03*
X950000Y620000D02*
D03*
X920000D02*
D03*
X1050000Y480000D02*
D03*
Y510000D02*
D03*
X1030000Y530000D02*
D03*
Y510000D02*
D03*
X1000000Y380000D02*
D03*
X970000D02*
D03*
X930000D02*
D03*
X900000D02*
D03*
X920000Y600000D02*
D03*
Y400000D02*
D03*
X810000Y560000D02*
D03*
Y530000D02*
D03*
X810000Y470000D02*
D03*
Y500000D02*
D03*
X880000Y480000D02*
D03*
X930000Y500000D02*
D03*
X1370000Y200000D02*
D03*
X722000Y575000D02*
D03*
Y590000D02*
D03*
X820000D02*
D03*
X462000Y850000D02*
D03*
X392000Y959000D02*
D03*
X491000Y525000D02*
D03*
X110000Y841000D02*
D03*
Y756000D02*
D03*
Y670000D02*
D03*
X370000Y750000D02*
D03*
Y850000D02*
D03*
X419000Y632000D02*
D03*
X406300D02*
D03*
X393600D02*
D03*
X380900D02*
D03*
X101000Y866000D02*
D03*
X87000D02*
D03*
X101000Y781000D02*
D03*
X87000D02*
D03*
X101000Y695000D02*
D03*
X87000D02*
D03*
X406000Y787000D02*
D03*
X378000D02*
D03*
X406000Y887000D02*
D03*
X378000Y887000D02*
D03*
X364000Y959000D02*
D03*
X436000D02*
D03*
X175000Y547000D02*
D03*
X175000Y533000D02*
D03*
Y519000D02*
D03*
Y505000D02*
D03*
X175000Y638700D02*
D03*
X175000Y624700D02*
D03*
Y610700D02*
D03*
Y596700D02*
D03*
X821000Y358000D02*
D03*
X841000D02*
D03*
X825000Y642000D02*
D03*
X845000D02*
D03*
X860000Y470000D02*
D03*
X860000Y480000D02*
D03*
X262999Y538000D02*
D03*
X243000D02*
D03*
X224000D02*
D03*
X208000D02*
D03*
X270000Y506000D02*
D03*
X315000Y470000D02*
D03*
X214000Y482000D02*
D03*
Y496000D02*
D03*
X332500Y470000D02*
D03*
X337500Y465000D02*
D03*
X276000Y313000D02*
D03*
Y297000D02*
D03*
X418000Y385000D02*
D03*
X390000Y467500D02*
D03*
X395000Y462500D02*
D03*
X345000Y415000D02*
D03*
X350000Y420000D02*
D03*
X355000Y425000D02*
D03*
X360000Y430000D02*
D03*
X399000Y331000D02*
D03*
X371000D02*
D03*
X385000D02*
D03*
X348000Y333000D02*
D03*
X390000Y437500D02*
D03*
X327500Y410240D02*
D03*
X307500Y385000D02*
D03*
X362500Y410240D02*
D03*
X335000Y538000D02*
D03*
X351000Y530000D02*
D03*
X362500Y495000D02*
D03*
X379000Y498000D02*
D03*
X287000D02*
D03*
X292620Y473000D02*
D03*
X398000Y385000D02*
D03*
X259000Y398000D02*
D03*
X257000Y370000D02*
D03*
Y363000D02*
D03*
X243000Y370000D02*
D03*
Y384000D02*
D03*
X207000Y361000D02*
D03*
X214500Y334000D02*
D03*
Y348000D02*
D03*
X242500Y426000D02*
D03*
X200000Y86000D02*
D03*
Y80000D02*
D03*
Y74000D02*
D03*
X685000Y60000D02*
D03*
X675000D02*
D03*
X665000D02*
D03*
X655000D02*
D03*
X571000Y145000D02*
D03*
X626970Y121000D02*
D03*
X621970D02*
D03*
X616970D02*
D03*
X635970Y120906D02*
D03*
X608000Y121000D02*
D03*
X233500Y49000D02*
D03*
X247000Y103000D02*
D03*
X235500D02*
D03*
X210000Y44996D02*
D03*
X220500D02*
D03*
X113000Y99000D02*
D03*
X920000Y440000D02*
D03*
X232000Y185000D02*
D03*
X216000D02*
D03*
X95000Y263000D02*
D03*
Y243000D02*
D03*
Y223000D02*
D03*
Y203000D02*
D03*
X105000Y141000D02*
D03*
X129000Y131000D02*
D03*
X166000Y95000D02*
D03*
X152000D02*
D03*
X113000Y131000D02*
D03*
X208000Y127000D02*
D03*
X222000D02*
D03*
X102000Y74000D02*
D03*
Y88000D02*
D03*
X1012000Y306000D02*
D03*
X1137000Y396000D02*
D03*
X1097000Y386800D02*
D03*
X891900Y94800D02*
D03*
Y65200D02*
D03*
X853800Y94800D02*
D03*
Y65200D02*
D03*
X1006200D02*
D03*
Y92300D02*
D03*
X1038000Y269000D02*
D03*
X1012000Y294000D02*
D03*
X1021000Y269000D02*
D03*
X1109000D02*
D03*
X1110000Y344000D02*
D03*
X1082000D02*
D03*
X1094000D02*
D03*
X1097000Y405000D02*
D03*
X1040000Y420000D02*
D03*
X960000Y590000D02*
D03*
X980000Y580000D02*
D03*
X1020000Y510000D02*
D03*
X1010000D02*
D03*
X1000000D02*
D03*
X990000D02*
D03*
X980000D02*
D03*
X910000D02*
D03*
X900000D02*
D03*
X890000D02*
D03*
X880000D02*
D03*
X860000D02*
D03*
X840000D02*
D03*
X830000D02*
D03*
X840000Y520000D02*
D03*
X910000D02*
D03*
X940000D02*
D03*
X950000D02*
D03*
X960000D02*
D03*
X970000D02*
D03*
X990000D02*
D03*
X1010000D02*
D03*
X1020000D02*
D03*
X830000Y530000D02*
D03*
X840000D02*
D03*
X860000D02*
D03*
X890000D02*
D03*
X910000D02*
D03*
X950000D02*
D03*
X960000D02*
D03*
X1020000D02*
D03*
X840000Y540000D02*
D03*
X860000D02*
D03*
X880000D02*
D03*
X940000D02*
D03*
X950000D02*
D03*
X960000D02*
D03*
X980000D02*
D03*
X1020000D02*
D03*
X830000Y550000D02*
D03*
X840000D02*
D03*
X860000D02*
D03*
X910000D02*
D03*
X960000D02*
D03*
X970000D02*
D03*
X980000D02*
D03*
X990000D02*
D03*
X1000000D02*
D03*
X1020000D02*
D03*
X1030000D02*
D03*
X840000Y560000D02*
D03*
X850000D02*
D03*
X870000D02*
D03*
X920000D02*
D03*
X960000D02*
D03*
X970000D02*
D03*
X990000D02*
D03*
X1000000D02*
D03*
X1020000D02*
D03*
X830000Y570000D02*
D03*
X850000D02*
D03*
X860000D02*
D03*
X880000D02*
D03*
X900000D02*
D03*
X920000D02*
D03*
X950000D02*
D03*
X970000D02*
D03*
X990000D02*
D03*
X1000000D02*
D03*
X1010000D02*
D03*
X1020000D02*
D03*
X1030000D02*
D03*
X820000Y580000D02*
D03*
X840000D02*
D03*
X850000D02*
D03*
X860000D02*
D03*
X870000D02*
D03*
X880000D02*
D03*
X890000D02*
D03*
X960000D02*
D03*
X1000000D02*
D03*
X1010000D02*
D03*
X1020000D02*
D03*
X830000Y590000D02*
D03*
X840000D02*
D03*
X850000D02*
D03*
X870000D02*
D03*
X880000D02*
D03*
X890000D02*
D03*
X900000D02*
D03*
X910000D02*
D03*
X950000D02*
D03*
X970000D02*
D03*
X980000D02*
D03*
X990000D02*
D03*
X1000000D02*
D03*
X1010000D02*
D03*
X1020000D02*
D03*
X1030000D02*
D03*
X850000Y600000D02*
D03*
X860000D02*
D03*
X880000D02*
D03*
X900000D02*
D03*
X950000D02*
D03*
X970000D02*
D03*
X990000D02*
D03*
X1010000D02*
D03*
X820000Y610000D02*
D03*
X1010000D02*
D03*
X1040000D02*
D03*
Y390000D02*
D03*
X820000D02*
D03*
X1010000Y400000D02*
D03*
X990000D02*
D03*
X970000D02*
D03*
X960000D02*
D03*
X950000D02*
D03*
X900000D02*
D03*
X880000D02*
D03*
X860000D02*
D03*
X840000D02*
D03*
X820000D02*
D03*
X1010000Y410000D02*
D03*
X1030000Y420000D02*
D03*
X1020000D02*
D03*
X1010000D02*
D03*
X980000D02*
D03*
X880000D02*
D03*
X860000D02*
D03*
X840000D02*
D03*
X830000D02*
D03*
X1020000Y430000D02*
D03*
X980000D02*
D03*
X960000D02*
D03*
X890000D02*
D03*
X860000D02*
D03*
X850000D02*
D03*
X840000D02*
D03*
X1020000Y440000D02*
D03*
X1010000D02*
D03*
X970000D02*
D03*
X860000D02*
D03*
X850000D02*
D03*
X840000D02*
D03*
X830000D02*
D03*
X1010000Y450000D02*
D03*
X900000D02*
D03*
X880000D02*
D03*
X870000D02*
D03*
X850000D02*
D03*
X840000D02*
D03*
X1030000Y460000D02*
D03*
X1020000D02*
D03*
X1010000D02*
D03*
X1000000D02*
D03*
X990000D02*
D03*
X960000D02*
D03*
X950000D02*
D03*
X940000D02*
D03*
X900000D02*
D03*
X850000D02*
D03*
X840000D02*
D03*
X830000D02*
D03*
X1010000Y470000D02*
D03*
X1000000D02*
D03*
X990000D02*
D03*
X980000D02*
D03*
X970000D02*
D03*
X950000D02*
D03*
X940000D02*
D03*
X900000D02*
D03*
X870000D02*
D03*
X850000D02*
D03*
X840000D02*
D03*
X1030000Y480000D02*
D03*
X1010000D02*
D03*
X990000D02*
D03*
X980000D02*
D03*
X970000D02*
D03*
X950000D02*
D03*
X940000D02*
D03*
X910000D02*
D03*
X900000D02*
D03*
X890000D02*
D03*
X840000D02*
D03*
X830000D02*
D03*
X840000Y490000D02*
D03*
X900000D02*
D03*
X910000D02*
D03*
X940000D02*
D03*
X950000D02*
D03*
X960000D02*
D03*
X980000D02*
D03*
X1000000D02*
D03*
X1010000D02*
D03*
X1020000D02*
D03*
X960000Y510000D02*
D03*
X920000Y490000D02*
D03*
Y480000D02*
D03*
X960000Y470000D02*
D03*
Y480000D02*
D03*
X900000Y520000D02*
D03*
X950000Y510000D02*
D03*
X940000D02*
D03*
X990000Y490000D02*
D03*
X920000Y530000D02*
D03*
Y520000D02*
D03*
X930000Y520000D02*
D03*
X970000Y490000D02*
D03*
Y510000D02*
D03*
X900000Y530000D02*
D03*
Y540000D02*
D03*
X910000Y470000D02*
D03*
Y460000D02*
D03*
X920000D02*
D03*
X970000Y580000D02*
D03*
X870000Y460000D02*
D03*
X880000Y440000D02*
D03*
X970000Y530000D02*
D03*
Y540000D02*
D03*
X990000Y580000D02*
D03*
X910000Y540000D02*
D03*
X900000Y560000D02*
D03*
X950000D02*
D03*
X1000000Y480000D02*
D03*
Y520000D02*
D03*
Y530000D02*
D03*
Y450000D02*
D03*
Y440000D02*
D03*
X1010000Y560000D02*
D03*
X940000Y430000D02*
D03*
X920000D02*
D03*
X950000Y450000D02*
D03*
X830000Y580000D02*
D03*
Y470000D02*
D03*
X1030000Y440000D02*
D03*
D97*
X163000Y176000D02*
D03*
Y156000D02*
D03*
X183000D02*
D03*
Y176000D02*
D03*
X173000Y166000D02*
D03*
M02*
