G04*
G04 #@! TF.GenerationSoftware,Altium Limited,Altium Designer,19.0.10 (269)*
G04*
G04 Layer_Color=32896*
%FSLAX44Y44*%
%MOMM*%
G71*
G01*
G75*
%ADD10C,0.1500*%
D10*
X819000Y479000D02*
Y491000D01*
X801000Y479000D02*
Y491000D01*
X740000Y879000D02*
X1120000D01*
X740000Y961000D02*
X1120000D01*
X740000Y879000D02*
Y961000D01*
X1120000Y879000D02*
Y961000D01*
X740000Y39000D02*
X1120000D01*
X740000Y121000D02*
X1120000D01*
X740000Y39000D02*
Y121000D01*
X1120000Y39000D02*
Y121000D01*
X966000Y498000D02*
Y502000D01*
X974000Y498000D02*
Y502000D01*
X928000Y456000D02*
X932000D01*
X928000Y464000D02*
X932000D01*
X946000Y498000D02*
Y502000D01*
X954000Y498000D02*
Y502000D01*
X884000Y498000D02*
Y502000D01*
X876000Y498000D02*
Y502000D01*
X928000Y426000D02*
X932000D01*
X928000Y434000D02*
X932000D01*
X928000Y546000D02*
X932000D01*
X928000Y554000D02*
X932000D01*
X986000Y498000D02*
Y502000D01*
X994000Y498000D02*
Y502000D01*
X914000Y498000D02*
Y502000D01*
X906000Y498000D02*
Y502000D01*
X928000Y476000D02*
X932000D01*
X928000Y484000D02*
X932000D01*
X909000Y389000D02*
X921000D01*
X909000Y371000D02*
X921000D01*
X819000Y539000D02*
Y551000D01*
X801000Y539000D02*
Y551000D01*
X1041000Y489000D02*
Y501000D01*
X1059000Y489000D02*
Y501000D01*
X929000Y611000D02*
X941000D01*
X929000Y629000D02*
X941000D01*
X978000Y371000D02*
X990000D01*
X978000Y389000D02*
X990000D01*
X939000Y513000D02*
Y525000D01*
X921000Y513000D02*
Y525000D01*
X0Y0D02*
X1600000D01*
Y1000000D01*
X0D02*
X1600000D01*
X0Y0D02*
Y1000000D01*
X-11500Y99900D02*
Y103900D01*
Y141900D02*
Y145900D01*
M02*
