G04*
G04 #@! TF.GenerationSoftware,Altium Limited,Altium Designer,19.0.10 (269)*
G04*
G04 Layer_Color=8388736*
%FSLAX44Y44*%
%MOMM*%
G71*
G01*
G75*
%ADD10C,0.1500*%
G04:AMPARAMS|DCode=20|XSize=0.9532mm|YSize=1.1032mm|CornerRadius=0.1954mm|HoleSize=0mm|Usage=FLASHONLY|Rotation=0.000|XOffset=0mm|YOffset=0mm|HoleType=Round|Shape=RoundedRectangle|*
%AMROUNDEDRECTD20*
21,1,0.9532,0.7125,0,0,0.0*
21,1,0.5625,1.1032,0,0,0.0*
1,1,0.3907,0.2813,-0.3563*
1,1,0.3907,-0.2813,-0.3563*
1,1,0.3907,-0.2813,0.3563*
1,1,0.3907,0.2813,0.3563*
%
%ADD20ROUNDEDRECTD20*%
G04:AMPARAMS|DCode=21|XSize=0.8032mm|YSize=1.6032mm|CornerRadius=0.2516mm|HoleSize=0mm|Usage=FLASHONLY|Rotation=0.000|XOffset=0mm|YOffset=0mm|HoleType=Round|Shape=RoundedRectangle|*
%AMROUNDEDRECTD21*
21,1,0.8032,1.1000,0,0,0.0*
21,1,0.3000,1.6032,0,0,0.0*
1,1,0.5032,0.1500,-0.5500*
1,1,0.5032,-0.1500,-0.5500*
1,1,0.5032,-0.1500,0.5500*
1,1,0.5032,0.1500,0.5500*
%
%ADD21ROUNDEDRECTD21*%
G04:AMPARAMS|DCode=22|XSize=1.2032mm|YSize=1.6032mm|CornerRadius=0.3516mm|HoleSize=0mm|Usage=FLASHONLY|Rotation=180.000|XOffset=0mm|YOffset=0mm|HoleType=Round|Shape=RoundedRectangle|*
%AMROUNDEDRECTD22*
21,1,1.2032,0.9000,0,0,180.0*
21,1,0.5000,1.6032,0,0,180.0*
1,1,0.7032,-0.2500,0.4500*
1,1,0.7032,0.2500,0.4500*
1,1,0.7032,0.2500,-0.4500*
1,1,0.7032,-0.2500,-0.4500*
%
%ADD22ROUNDEDRECTD22*%
G04:AMPARAMS|DCode=23|XSize=0.9532mm|YSize=1.1032mm|CornerRadius=0.1954mm|HoleSize=0mm|Usage=FLASHONLY|Rotation=90.000|XOffset=0mm|YOffset=0mm|HoleType=Round|Shape=RoundedRectangle|*
%AMROUNDEDRECTD23*
21,1,0.9532,0.7125,0,0,90.0*
21,1,0.5625,1.1032,0,0,90.0*
1,1,0.3907,0.3563,0.2813*
1,1,0.3907,0.3563,-0.2813*
1,1,0.3907,-0.3563,-0.2813*
1,1,0.3907,-0.3563,0.2813*
%
%ADD23ROUNDEDRECTD23*%
%ADD24R,1.3532X0.8032*%
G04:AMPARAMS|DCode=25|XSize=2.3032mm|YSize=1.8032mm|CornerRadius=0.3016mm|HoleSize=0mm|Usage=FLASHONLY|Rotation=0.000|XOffset=0mm|YOffset=0mm|HoleType=Round|Shape=RoundedRectangle|*
%AMROUNDEDRECTD25*
21,1,2.3032,1.2000,0,0,0.0*
21,1,1.7000,1.8032,0,0,0.0*
1,1,0.6032,0.8500,-0.6000*
1,1,0.6032,-0.8500,-0.6000*
1,1,0.6032,-0.8500,0.6000*
1,1,0.6032,0.8500,0.6000*
%
%ADD25ROUNDEDRECTD25*%
%ADD26R,1.0032X1.5032*%
%ADD27R,5.1032X2.4032*%
%ADD28R,1.2032X0.8032*%
G04:AMPARAMS|DCode=29|XSize=1.3032mm|YSize=1.5532mm|CornerRadius=0.2391mm|HoleSize=0mm|Usage=FLASHONLY|Rotation=180.000|XOffset=0mm|YOffset=0mm|HoleType=Round|Shape=RoundedRectangle|*
%AMROUNDEDRECTD29*
21,1,1.3032,1.0750,0,0,180.0*
21,1,0.8250,1.5532,0,0,180.0*
1,1,0.4782,-0.4125,0.5375*
1,1,0.4782,0.4125,0.5375*
1,1,0.4782,0.4125,-0.5375*
1,1,0.4782,-0.4125,-0.5375*
%
%ADD29ROUNDEDRECTD29*%
G04:AMPARAMS|DCode=30|XSize=1.3032mm|YSize=1.5532mm|CornerRadius=0.2391mm|HoleSize=0mm|Usage=FLASHONLY|Rotation=270.000|XOffset=0mm|YOffset=0mm|HoleType=Round|Shape=RoundedRectangle|*
%AMROUNDEDRECTD30*
21,1,1.3032,1.0750,0,0,270.0*
21,1,0.8250,1.5532,0,0,270.0*
1,1,0.4782,-0.5375,-0.4125*
1,1,0.4782,-0.5375,0.4125*
1,1,0.4782,0.5375,0.4125*
1,1,0.4782,0.5375,-0.4125*
%
%ADD30ROUNDEDRECTD30*%
%ADD31R,1.0160X0.5080*%
%ADD32R,1.7018X2.4384*%
%ADD33R,2.4032X5.1032*%
G04:AMPARAMS|DCode=34|XSize=2.0032mm|YSize=1.8032mm|CornerRadius=0.3016mm|HoleSize=0mm|Usage=FLASHONLY|Rotation=270.000|XOffset=0mm|YOffset=0mm|HoleType=Round|Shape=RoundedRectangle|*
%AMROUNDEDRECTD34*
21,1,2.0032,1.2000,0,0,270.0*
21,1,1.4000,1.8032,0,0,270.0*
1,1,0.6032,-0.6000,-0.7000*
1,1,0.6032,-0.6000,0.7000*
1,1,0.6032,0.6000,0.7000*
1,1,0.6032,0.6000,-0.7000*
%
%ADD34ROUNDEDRECTD34*%
G04:AMPARAMS|DCode=35|XSize=0.8032mm|YSize=1.6532mm|CornerRadius=0.2516mm|HoleSize=0mm|Usage=FLASHONLY|Rotation=90.000|XOffset=0mm|YOffset=0mm|HoleType=Round|Shape=RoundedRectangle|*
%AMROUNDEDRECTD35*
21,1,0.8032,1.1500,0,0,90.0*
21,1,0.3000,1.6532,0,0,90.0*
1,1,0.5032,0.5750,0.1500*
1,1,0.5032,0.5750,-0.1500*
1,1,0.5032,-0.5750,-0.1500*
1,1,0.5032,-0.5750,0.1500*
%
%ADD35ROUNDEDRECTD35*%
%ADD36R,1.6782X0.5032*%
%ADD37R,0.5032X1.6782*%
G04:AMPARAMS|DCode=38|XSize=0.8032mm|YSize=0.8032mm|CornerRadius=0.1766mm|HoleSize=0mm|Usage=FLASHONLY|Rotation=270.000|XOffset=0mm|YOffset=0mm|HoleType=Round|Shape=RoundedRectangle|*
%AMROUNDEDRECTD38*
21,1,0.8032,0.4500,0,0,270.0*
21,1,0.4500,0.8032,0,0,270.0*
1,1,0.3532,-0.2250,-0.2250*
1,1,0.3532,-0.2250,0.2250*
1,1,0.3532,0.2250,0.2250*
1,1,0.3532,0.2250,-0.2250*
%
%ADD38ROUNDEDRECTD38*%
%ADD39R,3.4032X3.4032*%
G04:AMPARAMS|DCode=40|XSize=1.1032mm|YSize=0.4832mm|CornerRadius=0.1716mm|HoleSize=0mm|Usage=FLASHONLY|Rotation=0.000|XOffset=0mm|YOffset=0mm|HoleType=Round|Shape=RoundedRectangle|*
%AMROUNDEDRECTD40*
21,1,1.1032,0.1400,0,0,0.0*
21,1,0.7600,0.4832,0,0,0.0*
1,1,0.3432,0.3800,-0.0700*
1,1,0.3432,-0.3800,-0.0700*
1,1,0.3432,-0.3800,0.0700*
1,1,0.3432,0.3800,0.0700*
%
%ADD40ROUNDEDRECTD40*%
G04:AMPARAMS|DCode=41|XSize=1.1032mm|YSize=0.4832mm|CornerRadius=0.1716mm|HoleSize=0mm|Usage=FLASHONLY|Rotation=90.000|XOffset=0mm|YOffset=0mm|HoleType=Round|Shape=RoundedRectangle|*
%AMROUNDEDRECTD41*
21,1,1.1032,0.1400,0,0,90.0*
21,1,0.7600,0.4832,0,0,90.0*
1,1,0.3432,0.0700,0.3800*
1,1,0.3432,0.0700,-0.3800*
1,1,0.3432,-0.0700,-0.3800*
1,1,0.3432,-0.0700,0.3800*
%
%ADD41ROUNDEDRECTD41*%
%ADD42C,0.7432*%
%ADD43R,1.4032X2.9032*%
G04:AMPARAMS|DCode=44|XSize=1.0032mm|YSize=1.3032mm|CornerRadius=0.2016mm|HoleSize=0mm|Usage=FLASHONLY|Rotation=180.000|XOffset=0mm|YOffset=0mm|HoleType=Round|Shape=RoundedRectangle|*
%AMROUNDEDRECTD44*
21,1,1.0032,0.9000,0,0,180.0*
21,1,0.6000,1.3032,0,0,180.0*
1,1,0.4032,-0.3000,0.4500*
1,1,0.4032,0.3000,0.4500*
1,1,0.4032,0.3000,-0.4500*
1,1,0.4032,-0.3000,-0.4500*
%
%ADD44ROUNDEDRECTD44*%
%ADD45C,2.7032*%
%ADD46C,2.2032*%
%ADD47C,3.2032*%
%ADD48C,1.9032*%
%ADD49C,1.7032*%
%ADD50C,2.0032*%
%ADD51C,1.8032*%
G04:AMPARAMS|DCode=52|XSize=1.4224mm|YSize=1.9304mm|CornerRadius=0.4064mm|HoleSize=0mm|Usage=FLASHONLY|Rotation=270.000|XOffset=0mm|YOffset=0mm|HoleType=Round|Shape=RoundedRectangle|*
%AMROUNDEDRECTD52*
21,1,1.4224,1.1176,0,0,270.0*
21,1,0.6096,1.9304,0,0,270.0*
1,1,0.8128,-0.5588,-0.3048*
1,1,0.8128,-0.5588,0.3048*
1,1,0.8128,0.5588,0.3048*
1,1,0.8128,0.5588,-0.3048*
%
%ADD52ROUNDEDRECTD52*%
G04:AMPARAMS|DCode=53|XSize=1.4224mm|YSize=1.9304mm|CornerRadius=0mm|HoleSize=0mm|Usage=FLASHONLY|Rotation=270.000|XOffset=0mm|YOffset=0mm|HoleType=Round|Shape=Octagon|*
%AMOCTAGOND53*
4,1,8,0.9652,0.3556,0.9652,-0.3556,0.6096,-0.7112,-0.6096,-0.7112,-0.9652,-0.3556,-0.9652,0.3556,-0.6096,0.7112,0.6096,0.7112,0.9652,0.3556,0.0*
%
%ADD53OCTAGOND53*%

%ADD54O,2.2032X1.2032*%
%ADD55C,0.9532*%
%ADD56C,0.8032*%
G36*
X772001Y142001D02*
Y158001D01*
X748000D01*
Y142001D01*
X772001Y142001D01*
D02*
G37*
G36*
Y167001D02*
Y183001D01*
X748000D01*
Y167001D01*
X772001Y167001D01*
D02*
G37*
G36*
Y192001D02*
Y208001D01*
X748000D01*
Y192001D01*
X772001Y192001D01*
D02*
G37*
G36*
Y217001D02*
Y233001D01*
X748000D01*
Y217001D01*
X772001Y217001D01*
D02*
G37*
D10*
X0Y0D02*
X1600000D01*
Y1000000D01*
X0D02*
X1600000D01*
X0Y0D02*
Y1000000D01*
X-11500Y99900D02*
Y103900D01*
Y141900D02*
Y145900D01*
D20*
X207000Y412000D02*
D03*
X191000D02*
D03*
X728000Y150000D02*
D03*
X712000D02*
D03*
X728000Y175000D02*
D03*
X712000D02*
D03*
X728000Y200000D02*
D03*
X712000D02*
D03*
X728001Y225001D02*
D03*
X712001D02*
D03*
X436000Y950000D02*
D03*
X420000D02*
D03*
X380000D02*
D03*
X364000D02*
D03*
X394000Y878000D02*
D03*
X378000D02*
D03*
X394000Y778000D02*
D03*
X378000D02*
D03*
X422000Y878000D02*
D03*
X406000D02*
D03*
X422000Y778000D02*
D03*
X406000D02*
D03*
X654000Y108000D02*
D03*
X670000D02*
D03*
X232000Y194000D02*
D03*
X216000D02*
D03*
X1110000Y335000D02*
D03*
X1094000D02*
D03*
X167000Y519000D02*
D03*
X151000D02*
D03*
X167000Y610700D02*
D03*
X151000D02*
D03*
X167000Y505000D02*
D03*
X151000D02*
D03*
X167000Y596700D02*
D03*
X151000D02*
D03*
X167000Y533000D02*
D03*
X151000D02*
D03*
X167000Y624700D02*
D03*
X151000D02*
D03*
X167000Y547000D02*
D03*
X151000D02*
D03*
X167000Y638700D02*
D03*
X151000D02*
D03*
X1439000Y173000D02*
D03*
X1423000D02*
D03*
X604000Y130000D02*
D03*
X620000D02*
D03*
X690000Y91000D02*
D03*
X706000D02*
D03*
X262000Y125000D02*
D03*
X278000D02*
D03*
X1066000Y335000D02*
D03*
X1082000D02*
D03*
X407999Y949999D02*
D03*
X391999D02*
D03*
X219000Y398000D02*
D03*
X235000D02*
D03*
X219000Y440000D02*
D03*
X235000D02*
D03*
Y412000D02*
D03*
X219000D02*
D03*
X235000Y426000D02*
D03*
X219000D02*
D03*
X191000Y398000D02*
D03*
X207000D02*
D03*
X191000Y426000D02*
D03*
X207000D02*
D03*
X191000Y440000D02*
D03*
X207000D02*
D03*
X191000Y384000D02*
D03*
X207000D02*
D03*
X191000Y370000D02*
D03*
X207000D02*
D03*
X207000Y482000D02*
D03*
X191000D02*
D03*
X207000Y496000D02*
D03*
X191000D02*
D03*
X207000Y334000D02*
D03*
X191000D02*
D03*
Y348000D02*
D03*
X207000D02*
D03*
X283000Y366000D02*
D03*
X267000D02*
D03*
X235000Y370000D02*
D03*
X219000D02*
D03*
X235000Y384000D02*
D03*
X219000D02*
D03*
X267000Y398000D02*
D03*
X283000D02*
D03*
X412000Y412200D02*
D03*
X396000D02*
D03*
X71000Y203000D02*
D03*
X87000D02*
D03*
X71000Y223000D02*
D03*
X87000D02*
D03*
X71000Y243000D02*
D03*
X87000D02*
D03*
X71000Y263000D02*
D03*
X87000D02*
D03*
X1469000Y206000D02*
D03*
X1453000D02*
D03*
X1469000Y192000D02*
D03*
X1453000D02*
D03*
X1519000Y81000D02*
D03*
X1503000D02*
D03*
X78000Y74000D02*
D03*
X94000D02*
D03*
X113000Y108000D02*
D03*
X129000D02*
D03*
X78000Y88000D02*
D03*
X94000D02*
D03*
X113000Y141000D02*
D03*
X129000D02*
D03*
Y122000D02*
D03*
X113000D02*
D03*
D21*
X747000Y150000D02*
D03*
X773000D02*
D03*
X747000Y175000D02*
D03*
X773000D02*
D03*
X747000Y200000D02*
D03*
X773000D02*
D03*
X747000Y225000D02*
D03*
X773000D02*
D03*
D22*
X760000Y150000D02*
D03*
Y175000D02*
D03*
Y200000D02*
D03*
Y225000D02*
D03*
D23*
X87000Y841000D02*
D03*
Y857000D02*
D03*
Y670000D02*
D03*
Y686000D02*
D03*
Y756000D02*
D03*
Y772000D02*
D03*
X166000Y103000D02*
D03*
Y119000D02*
D03*
X152000Y103000D02*
D03*
Y119000D02*
D03*
X222000Y103000D02*
D03*
Y119000D02*
D03*
X208000Y103000D02*
D03*
Y119000D02*
D03*
X731000Y574000D02*
D03*
Y590000D02*
D03*
X101000Y857000D02*
D03*
Y841000D02*
D03*
Y686000D02*
D03*
Y670000D02*
D03*
Y772000D02*
D03*
Y756000D02*
D03*
X1109000Y306000D02*
D03*
Y322000D02*
D03*
X1021000Y322000D02*
D03*
Y306000D02*
D03*
Y294000D02*
D03*
Y278000D02*
D03*
X1109000D02*
D03*
Y294000D02*
D03*
X208000Y514000D02*
D03*
Y530000D02*
D03*
X285000Y313000D02*
D03*
Y297000D02*
D03*
X399000Y355000D02*
D03*
Y339000D02*
D03*
X371000D02*
D03*
Y355000D02*
D03*
X385000Y339000D02*
D03*
Y355000D02*
D03*
X319000Y522000D02*
D03*
Y506000D02*
D03*
X287000Y506000D02*
D03*
Y522000D02*
D03*
X365000D02*
D03*
Y506000D02*
D03*
X351000Y522000D02*
D03*
Y506000D02*
D03*
X379000D02*
D03*
Y522000D02*
D03*
X180001Y118999D02*
D03*
Y102999D02*
D03*
X194000Y119000D02*
D03*
Y103000D02*
D03*
D24*
X258500Y74700D02*
D03*
Y55700D02*
D03*
X233500D02*
D03*
Y65200D02*
D03*
Y74700D02*
D03*
D25*
X446500Y750000D02*
D03*
X353500D02*
D03*
X446500Y850000D02*
D03*
X353500D02*
D03*
D26*
X419050Y620000D02*
D03*
X406350D02*
D03*
Y680000D02*
D03*
X419050D02*
D03*
X393650D02*
D03*
X380950D02*
D03*
Y620000D02*
D03*
X393650D02*
D03*
D27*
X1391000Y127000D02*
D03*
Y163000D02*
D03*
X295000Y47200D02*
D03*
Y83200D02*
D03*
D28*
X1455000Y155500D02*
D03*
Y136500D02*
D03*
X1427000D02*
D03*
Y146000D02*
D03*
Y155500D02*
D03*
D29*
X1473000Y173000D02*
D03*
X1453000D02*
D03*
X239000Y92000D02*
D03*
X259000D02*
D03*
X1087000Y387000D02*
D03*
X1067000D02*
D03*
X845000Y631000D02*
D03*
X825000D02*
D03*
X1067000Y405000D02*
D03*
X1087000D02*
D03*
X1107000Y386800D02*
D03*
X1127000D02*
D03*
Y405000D02*
D03*
X1107000D02*
D03*
X821000Y369000D02*
D03*
X841000D02*
D03*
X263000Y382000D02*
D03*
X283000D02*
D03*
X418000Y396000D02*
D03*
X398000D02*
D03*
D30*
X1472000Y156000D02*
D03*
Y136000D02*
D03*
X571000Y115000D02*
D03*
Y135000D02*
D03*
X589000D02*
D03*
Y115000D02*
D03*
X675000Y71000D02*
D03*
Y91000D02*
D03*
X657000Y71000D02*
D03*
Y91000D02*
D03*
X216000Y57200D02*
D03*
Y77200D02*
D03*
X224000Y528000D02*
D03*
Y508000D02*
D03*
X303000D02*
D03*
Y528000D02*
D03*
X335000D02*
D03*
Y508000D02*
D03*
D31*
X608030Y114906D02*
D03*
Y110080D02*
D03*
Y105000D02*
D03*
Y99920D02*
D03*
Y95094D02*
D03*
X635970D02*
D03*
Y99920D02*
D03*
Y105000D02*
D03*
Y110080D02*
D03*
Y114906D02*
D03*
D32*
X622000Y105000D02*
D03*
D33*
X593000Y60000D02*
D03*
X629000D02*
D03*
D34*
X752000Y589400D02*
D03*
X794000Y538600D02*
D03*
Y589400D02*
D03*
X752000Y538600D02*
D03*
X348000Y296600D02*
D03*
X306000Y347400D02*
D03*
Y296600D02*
D03*
X348000Y347400D02*
D03*
D35*
X1092250Y280950D02*
D03*
Y293650D02*
D03*
Y306350D02*
D03*
Y319050D02*
D03*
X1037750Y280950D02*
D03*
Y293650D02*
D03*
Y306350D02*
D03*
Y319050D02*
D03*
D36*
X292620Y467500D02*
D03*
Y462500D02*
D03*
Y457500D02*
D03*
Y452500D02*
D03*
Y447500D02*
D03*
Y442500D02*
D03*
Y437500D02*
D03*
Y432500D02*
D03*
Y427500D02*
D03*
Y422500D02*
D03*
Y417500D02*
D03*
Y412500D02*
D03*
X377380D02*
D03*
Y417500D02*
D03*
Y422500D02*
D03*
Y427500D02*
D03*
Y432500D02*
D03*
Y437500D02*
D03*
Y442500D02*
D03*
Y447500D02*
D03*
Y452500D02*
D03*
Y457500D02*
D03*
Y462500D02*
D03*
Y467500D02*
D03*
D37*
X307500Y397620D02*
D03*
X312500D02*
D03*
X317500D02*
D03*
X322500D02*
D03*
X327500D02*
D03*
X332500D02*
D03*
X337500D02*
D03*
X342500D02*
D03*
X347500D02*
D03*
X352500D02*
D03*
X357500D02*
D03*
X362500D02*
D03*
Y482380D02*
D03*
X357500D02*
D03*
X352500D02*
D03*
X347500D02*
D03*
X342500D02*
D03*
X337500D02*
D03*
X332500D02*
D03*
X327500D02*
D03*
X322500D02*
D03*
X317500D02*
D03*
X312500D02*
D03*
X307500D02*
D03*
D38*
X242999Y530000D02*
D03*
Y506000D02*
D03*
X262999Y530000D02*
D03*
Y506000D02*
D03*
D39*
X173000Y166000D02*
D03*
D40*
X198500Y168500D02*
D03*
Y173500D02*
D03*
X147500Y168500D02*
D03*
Y173500D02*
D03*
X198500Y163500D02*
D03*
Y158500D02*
D03*
Y153500D02*
D03*
Y148500D02*
D03*
X147500Y163500D02*
D03*
Y148500D02*
D03*
Y153500D02*
D03*
Y158500D02*
D03*
X198500Y183500D02*
D03*
Y178500D02*
D03*
X147500D02*
D03*
Y183500D02*
D03*
D41*
X160500Y140500D02*
D03*
Y191500D02*
D03*
X165500Y140500D02*
D03*
X190500D02*
D03*
X185500D02*
D03*
X180500D02*
D03*
X175500D02*
D03*
X170500D02*
D03*
X155500D02*
D03*
X165500Y191500D02*
D03*
X170500D02*
D03*
X175500D02*
D03*
X180500D02*
D03*
X185500D02*
D03*
X190500D02*
D03*
X155500D02*
D03*
D42*
X1035000Y585000D02*
D03*
X1025000D02*
D03*
X1015000D02*
D03*
X1005000D02*
D03*
X995000D02*
D03*
X985000D02*
D03*
X975000D02*
D03*
X965000D02*
D03*
X955000D02*
D03*
X945000D02*
D03*
X935000D02*
D03*
X925000D02*
D03*
X915000D02*
D03*
X905000D02*
D03*
X895000D02*
D03*
X885000D02*
D03*
X875000D02*
D03*
X865000D02*
D03*
X855000D02*
D03*
X845000D02*
D03*
X835000D02*
D03*
X825000D02*
D03*
X1035000Y595000D02*
D03*
X1025000D02*
D03*
X1015000D02*
D03*
X1005000D02*
D03*
X995000D02*
D03*
X985000D02*
D03*
X975000D02*
D03*
X965000D02*
D03*
X955000D02*
D03*
X945000D02*
D03*
X935000D02*
D03*
X925000D02*
D03*
X915000D02*
D03*
X905000D02*
D03*
X895000D02*
D03*
X885000D02*
D03*
X875000D02*
D03*
X865000D02*
D03*
X855000D02*
D03*
X845000D02*
D03*
X835000D02*
D03*
X825000D02*
D03*
Y605000D02*
D03*
X835000D02*
D03*
X845000D02*
D03*
X855000D02*
D03*
X865000D02*
D03*
X875000D02*
D03*
X885000D02*
D03*
X895000D02*
D03*
X905000D02*
D03*
X915000D02*
D03*
X925000D02*
D03*
X935000D02*
D03*
X945000D02*
D03*
X955000D02*
D03*
X965000D02*
D03*
X975000D02*
D03*
X985000D02*
D03*
X995000D02*
D03*
X1005000D02*
D03*
X1015000D02*
D03*
X1025000D02*
D03*
X1035000D02*
D03*
X825000Y575000D02*
D03*
X835000D02*
D03*
X845000D02*
D03*
X855000D02*
D03*
X865000D02*
D03*
X875000D02*
D03*
X885000D02*
D03*
X895000D02*
D03*
X905000D02*
D03*
X915000D02*
D03*
X925000D02*
D03*
X935000D02*
D03*
X945000D02*
D03*
X955000D02*
D03*
X965000D02*
D03*
X975000D02*
D03*
X985000D02*
D03*
X995000D02*
D03*
X1005000D02*
D03*
X1015000D02*
D03*
X1025000D02*
D03*
X1035000D02*
D03*
X825000Y565000D02*
D03*
X835000D02*
D03*
X845000D02*
D03*
X855000D02*
D03*
X865000D02*
D03*
X875000D02*
D03*
X885000D02*
D03*
X895000D02*
D03*
X905000D02*
D03*
X915000D02*
D03*
X925000D02*
D03*
X935000D02*
D03*
X945000D02*
D03*
X955000D02*
D03*
X965000D02*
D03*
X975000D02*
D03*
X985000D02*
D03*
X995000D02*
D03*
X1005000D02*
D03*
X1015000D02*
D03*
X1025000D02*
D03*
X1035000D02*
D03*
X825000Y555000D02*
D03*
X835000D02*
D03*
X845000D02*
D03*
X855000D02*
D03*
X865000D02*
D03*
X875000D02*
D03*
X885000D02*
D03*
X895000D02*
D03*
X905000D02*
D03*
X915000D02*
D03*
X925000D02*
D03*
X935000D02*
D03*
X945000D02*
D03*
X955000D02*
D03*
X965000D02*
D03*
X975000D02*
D03*
X985000D02*
D03*
X995000D02*
D03*
X1005000D02*
D03*
X1015000D02*
D03*
X1025000D02*
D03*
X1035000D02*
D03*
X825000Y545000D02*
D03*
X835000D02*
D03*
X845000D02*
D03*
X855000D02*
D03*
X865000D02*
D03*
X875000D02*
D03*
X885000D02*
D03*
X895000D02*
D03*
X905000D02*
D03*
X915000D02*
D03*
X925000D02*
D03*
X935000D02*
D03*
X945000D02*
D03*
X955000D02*
D03*
X965000D02*
D03*
X975000D02*
D03*
X985000D02*
D03*
X995000D02*
D03*
X1005000D02*
D03*
X1015000D02*
D03*
X1025000D02*
D03*
X1035000D02*
D03*
X825000Y535000D02*
D03*
X835000D02*
D03*
X845000D02*
D03*
X855000D02*
D03*
X865000D02*
D03*
X875000D02*
D03*
X885000D02*
D03*
X895000D02*
D03*
X905000D02*
D03*
X915000D02*
D03*
X925000D02*
D03*
X935000D02*
D03*
X945000D02*
D03*
X955000D02*
D03*
X965000D02*
D03*
X975000D02*
D03*
X985000D02*
D03*
X995000D02*
D03*
X1005000D02*
D03*
X1015000D02*
D03*
X1025000D02*
D03*
X1035000D02*
D03*
X825000Y525000D02*
D03*
X835000D02*
D03*
X845000D02*
D03*
X855000D02*
D03*
X865000D02*
D03*
X875000D02*
D03*
X885000D02*
D03*
X895000D02*
D03*
X905000D02*
D03*
X915000D02*
D03*
X925000D02*
D03*
X935000D02*
D03*
X945000D02*
D03*
X955000D02*
D03*
X965000D02*
D03*
X975000D02*
D03*
X985000D02*
D03*
X995000D02*
D03*
X1005000D02*
D03*
X1015000D02*
D03*
X1025000D02*
D03*
X1035000D02*
D03*
X825000Y515000D02*
D03*
X835000D02*
D03*
X845000D02*
D03*
X855000D02*
D03*
X865000D02*
D03*
X875000D02*
D03*
X885000D02*
D03*
X895000D02*
D03*
X905000D02*
D03*
X915000D02*
D03*
X925000D02*
D03*
X935000D02*
D03*
X945000D02*
D03*
X955000D02*
D03*
X965000D02*
D03*
X975000D02*
D03*
X985000D02*
D03*
X995000D02*
D03*
X1005000D02*
D03*
X1015000D02*
D03*
X1025000D02*
D03*
X1035000D02*
D03*
X825000Y505000D02*
D03*
X835000D02*
D03*
X845000D02*
D03*
X855000D02*
D03*
X865000D02*
D03*
X875000D02*
D03*
X885000D02*
D03*
X895000D02*
D03*
X905000D02*
D03*
X915000D02*
D03*
X925000D02*
D03*
X935000D02*
D03*
X945000D02*
D03*
X955000D02*
D03*
X965000D02*
D03*
X975000D02*
D03*
X985000D02*
D03*
X995000D02*
D03*
X1005000D02*
D03*
X1015000D02*
D03*
X1025000D02*
D03*
X1035000D02*
D03*
X825000Y495000D02*
D03*
X835000D02*
D03*
X845000D02*
D03*
X855000D02*
D03*
X865000D02*
D03*
X875000D02*
D03*
X885000D02*
D03*
X895000D02*
D03*
X905000D02*
D03*
X915000D02*
D03*
X925000D02*
D03*
X935000D02*
D03*
X945000D02*
D03*
X955000D02*
D03*
X965000D02*
D03*
X975000D02*
D03*
X985000D02*
D03*
X995000D02*
D03*
X1005000D02*
D03*
X1015000D02*
D03*
X1025000D02*
D03*
X1035000D02*
D03*
X825000Y485000D02*
D03*
X835000D02*
D03*
X845000D02*
D03*
X855000D02*
D03*
X865000D02*
D03*
X875000D02*
D03*
X885000D02*
D03*
X895000D02*
D03*
X905000D02*
D03*
X915000D02*
D03*
X925000D02*
D03*
X935000D02*
D03*
X945000D02*
D03*
X955000D02*
D03*
X965000D02*
D03*
X975000D02*
D03*
X985000D02*
D03*
X995000D02*
D03*
X1005000D02*
D03*
X1015000D02*
D03*
X1025000D02*
D03*
X1035000D02*
D03*
X825000Y475000D02*
D03*
X835000D02*
D03*
X845000D02*
D03*
X855000D02*
D03*
X865000D02*
D03*
X875000D02*
D03*
X885000D02*
D03*
X895000D02*
D03*
X905000D02*
D03*
X915000D02*
D03*
X925000D02*
D03*
X935000D02*
D03*
X945000D02*
D03*
X955000D02*
D03*
X965000D02*
D03*
X975000D02*
D03*
X985000D02*
D03*
X995000D02*
D03*
X1005000D02*
D03*
X1015000D02*
D03*
X1025000D02*
D03*
X1035000D02*
D03*
X825000Y465000D02*
D03*
X835000D02*
D03*
X845000D02*
D03*
X855000D02*
D03*
X865000D02*
D03*
X875000D02*
D03*
X885000D02*
D03*
X895000D02*
D03*
X905000D02*
D03*
X915000D02*
D03*
X925000D02*
D03*
X935000D02*
D03*
X945000D02*
D03*
X955000D02*
D03*
X965000D02*
D03*
X975000D02*
D03*
X985000D02*
D03*
X995000D02*
D03*
X1005000D02*
D03*
X1015000D02*
D03*
X1025000D02*
D03*
X1035000D02*
D03*
X825000Y455000D02*
D03*
X835000D02*
D03*
X845000D02*
D03*
X855000D02*
D03*
X865000D02*
D03*
X875000D02*
D03*
X885000D02*
D03*
X895000D02*
D03*
X905000D02*
D03*
X915000D02*
D03*
X925000D02*
D03*
X935000D02*
D03*
X945000D02*
D03*
X955000D02*
D03*
X965000D02*
D03*
X975000D02*
D03*
X985000D02*
D03*
X995000D02*
D03*
X1005000D02*
D03*
X1015000D02*
D03*
X1025000D02*
D03*
X1035000D02*
D03*
X825000Y445000D02*
D03*
X835000D02*
D03*
X845000D02*
D03*
X855000D02*
D03*
X865000D02*
D03*
X875000D02*
D03*
X885000D02*
D03*
X895000D02*
D03*
X905000D02*
D03*
X915000D02*
D03*
X925000D02*
D03*
X935000D02*
D03*
X945000D02*
D03*
X955000D02*
D03*
X965000D02*
D03*
X975000D02*
D03*
X985000D02*
D03*
X995000D02*
D03*
X1005000D02*
D03*
X1015000D02*
D03*
X1025000D02*
D03*
X1035000D02*
D03*
X825000Y435000D02*
D03*
X835000D02*
D03*
X845000D02*
D03*
X855000D02*
D03*
X865000D02*
D03*
X875000D02*
D03*
X885000D02*
D03*
X895000D02*
D03*
X905000D02*
D03*
X915000D02*
D03*
X925000D02*
D03*
X935000D02*
D03*
X945000D02*
D03*
X955000D02*
D03*
X965000D02*
D03*
X975000D02*
D03*
X985000D02*
D03*
X995000D02*
D03*
X1005000D02*
D03*
X1015000D02*
D03*
X1025000D02*
D03*
X1035000D02*
D03*
X825000Y425000D02*
D03*
X835000D02*
D03*
X845000D02*
D03*
X855000D02*
D03*
X865000D02*
D03*
X875000D02*
D03*
X885000D02*
D03*
X895000D02*
D03*
X905000D02*
D03*
X915000D02*
D03*
X925000D02*
D03*
X935000D02*
D03*
X945000D02*
D03*
X955000D02*
D03*
X965000D02*
D03*
X975000D02*
D03*
X985000D02*
D03*
X995000D02*
D03*
X1005000D02*
D03*
X1015000D02*
D03*
X1025000D02*
D03*
X1035000D02*
D03*
X825000Y415000D02*
D03*
X835000D02*
D03*
X845000D02*
D03*
X855000D02*
D03*
X865000D02*
D03*
X875000D02*
D03*
X885000D02*
D03*
X895000D02*
D03*
X905000D02*
D03*
X915000D02*
D03*
X925000D02*
D03*
X935000D02*
D03*
X945000D02*
D03*
X955000D02*
D03*
X965000D02*
D03*
X975000D02*
D03*
X985000D02*
D03*
X995000D02*
D03*
X1005000D02*
D03*
X1015000D02*
D03*
X1025000D02*
D03*
X1035000D02*
D03*
X825000Y405000D02*
D03*
X835000D02*
D03*
X845000D02*
D03*
X855000D02*
D03*
X865000D02*
D03*
X875000D02*
D03*
X885000D02*
D03*
X895000D02*
D03*
X905000D02*
D03*
X915000D02*
D03*
X925000D02*
D03*
X935000D02*
D03*
X945000D02*
D03*
X955000D02*
D03*
X965000D02*
D03*
X975000D02*
D03*
X985000D02*
D03*
X995000D02*
D03*
X1005000D02*
D03*
X1015000D02*
D03*
X1025000D02*
D03*
X1035000D02*
D03*
X825000Y395000D02*
D03*
X835000D02*
D03*
X845000D02*
D03*
X855000D02*
D03*
X865000D02*
D03*
X875000D02*
D03*
X885000D02*
D03*
X895000D02*
D03*
X905000D02*
D03*
X915000D02*
D03*
X925000D02*
D03*
X935000D02*
D03*
X945000D02*
D03*
X955000D02*
D03*
X965000D02*
D03*
X975000D02*
D03*
X985000D02*
D03*
X995000D02*
D03*
X1005000D02*
D03*
X1015000D02*
D03*
X1025000D02*
D03*
X1035000D02*
D03*
D43*
X752500Y944500D02*
D03*
Y895500D02*
D03*
X1107500Y944500D02*
D03*
Y895500D02*
D03*
X752500Y104500D02*
D03*
Y55500D02*
D03*
X1107500Y104500D02*
D03*
Y55500D02*
D03*
D44*
X1082400Y892500D02*
D03*
Y947500D02*
D03*
X1069700D02*
D03*
X1031600D02*
D03*
X1069700Y892500D02*
D03*
X1057000D02*
D03*
X1044300D02*
D03*
X1031600D02*
D03*
X1057000Y947500D02*
D03*
X1044300D02*
D03*
X1018900D02*
D03*
X1006200D02*
D03*
X993500D02*
D03*
X980800D02*
D03*
X968100D02*
D03*
X955400D02*
D03*
X942700D02*
D03*
X930000D02*
D03*
X917300D02*
D03*
X904600D02*
D03*
X891900D02*
D03*
X879200D02*
D03*
X866500D02*
D03*
X853800D02*
D03*
X841100D02*
D03*
X828400D02*
D03*
X815700D02*
D03*
X803000D02*
D03*
X790300D02*
D03*
X777600D02*
D03*
D03*
X1018900Y892500D02*
D03*
X1006200D02*
D03*
X993500D02*
D03*
X980800D02*
D03*
X968100D02*
D03*
X955400D02*
D03*
X942700D02*
D03*
X930000D02*
D03*
X917300D02*
D03*
X904600D02*
D03*
X891900D02*
D03*
X879200D02*
D03*
X866500D02*
D03*
X853800D02*
D03*
X841100D02*
D03*
X828400D02*
D03*
X815700D02*
D03*
X803000D02*
D03*
X790300D02*
D03*
X777600D02*
D03*
D03*
X1082400Y52500D02*
D03*
Y107500D02*
D03*
X1069700D02*
D03*
X1031600D02*
D03*
X1069700Y52500D02*
D03*
X1057000D02*
D03*
X1044300D02*
D03*
X1031600D02*
D03*
X1057000Y107500D02*
D03*
X1044300D02*
D03*
X1018900D02*
D03*
X1006200D02*
D03*
X993500D02*
D03*
X980800D02*
D03*
X968100D02*
D03*
X955400D02*
D03*
X942700D02*
D03*
X930000D02*
D03*
X917300D02*
D03*
X904600D02*
D03*
X891900D02*
D03*
X879200D02*
D03*
X866500D02*
D03*
X853800D02*
D03*
X841100D02*
D03*
X828400D02*
D03*
X815700D02*
D03*
X803000D02*
D03*
X790300D02*
D03*
X777600D02*
D03*
D03*
X1018900Y52500D02*
D03*
X1006200D02*
D03*
X993500D02*
D03*
X980800D02*
D03*
X968100D02*
D03*
X955400D02*
D03*
X942700D02*
D03*
X930000D02*
D03*
X917300D02*
D03*
X904600D02*
D03*
X891900D02*
D03*
X879200D02*
D03*
X866500D02*
D03*
X853800D02*
D03*
X841100D02*
D03*
X828400D02*
D03*
X815700D02*
D03*
X803000D02*
D03*
X790300D02*
D03*
X777600D02*
D03*
D03*
D45*
X541000Y90000D02*
D03*
X455000Y45000D02*
D03*
X410000Y44996D02*
D03*
X97480Y471890D02*
D03*
Y314410D02*
D03*
X1450000Y80000D02*
D03*
X410000Y90000D02*
D03*
X710000Y45000D02*
D03*
X500000Y90000D02*
D03*
X455000Y136000D02*
D03*
X410000D02*
D03*
X455000Y91000D02*
D03*
D46*
Y200000D02*
D03*
X455000Y225400D02*
D03*
Y174600D02*
D03*
X500000Y200000D02*
D03*
X500000Y225400D02*
D03*
Y174600D02*
D03*
X410000Y199600D02*
D03*
X410000Y225000D02*
D03*
Y174200D02*
D03*
X17978Y456396D02*
D03*
X33218Y329904D02*
D03*
Y430996D02*
D03*
X17978Y355304D02*
D03*
D47*
X160000Y50000D02*
D03*
X35000Y945000D02*
D03*
Y55000D02*
D03*
D48*
X55000Y539000D02*
D03*
Y513600D02*
D03*
X80400D02*
D03*
Y539000D02*
D03*
X131200D02*
D03*
Y513600D02*
D03*
X105800D02*
D03*
Y539000D02*
D03*
X55000Y630700D02*
D03*
Y605300D02*
D03*
X80400D02*
D03*
Y630700D02*
D03*
X131200D02*
D03*
Y605300D02*
D03*
X105800D02*
D03*
Y630700D02*
D03*
X1549000Y894000D02*
D03*
X1498200D02*
D03*
X1549000Y868600D02*
D03*
Y843200D02*
D03*
Y817800D02*
D03*
Y792400D02*
D03*
Y767000D02*
D03*
Y741600D02*
D03*
Y716200D02*
D03*
Y690800D02*
D03*
Y665400D02*
D03*
Y640000D02*
D03*
Y614600D02*
D03*
Y589200D02*
D03*
Y563800D02*
D03*
Y538400D02*
D03*
Y513000D02*
D03*
Y487600D02*
D03*
Y462200D02*
D03*
Y436800D02*
D03*
Y411400D02*
D03*
Y386000D02*
D03*
Y360600D02*
D03*
Y335200D02*
D03*
Y309800D02*
D03*
Y284400D02*
D03*
Y259000D02*
D03*
Y233600D02*
D03*
Y208200D02*
D03*
Y182800D02*
D03*
Y157400D02*
D03*
Y132000D02*
D03*
Y106600D02*
D03*
X1523600Y894000D02*
D03*
Y868600D02*
D03*
Y843200D02*
D03*
Y817800D02*
D03*
Y792400D02*
D03*
Y767000D02*
D03*
Y741600D02*
D03*
Y716200D02*
D03*
Y690800D02*
D03*
Y665400D02*
D03*
Y640000D02*
D03*
Y614600D02*
D03*
Y589200D02*
D03*
Y563800D02*
D03*
Y538400D02*
D03*
Y513000D02*
D03*
Y487600D02*
D03*
Y462200D02*
D03*
Y436800D02*
D03*
Y411400D02*
D03*
Y386000D02*
D03*
Y360600D02*
D03*
Y335200D02*
D03*
Y309800D02*
D03*
Y284400D02*
D03*
Y259000D02*
D03*
Y233600D02*
D03*
Y208200D02*
D03*
Y182800D02*
D03*
Y157400D02*
D03*
Y132000D02*
D03*
Y106600D02*
D03*
X1498200Y868600D02*
D03*
Y843200D02*
D03*
Y817800D02*
D03*
Y792400D02*
D03*
Y767000D02*
D03*
Y741600D02*
D03*
Y716200D02*
D03*
Y690800D02*
D03*
Y665400D02*
D03*
Y640000D02*
D03*
Y614600D02*
D03*
Y589200D02*
D03*
Y563800D02*
D03*
Y538400D02*
D03*
Y513000D02*
D03*
Y487600D02*
D03*
Y462200D02*
D03*
Y436800D02*
D03*
Y411400D02*
D03*
Y386000D02*
D03*
Y360600D02*
D03*
Y335200D02*
D03*
Y309800D02*
D03*
Y284400D02*
D03*
Y259000D02*
D03*
Y233600D02*
D03*
Y208200D02*
D03*
Y182800D02*
D03*
Y157400D02*
D03*
Y132000D02*
D03*
Y106600D02*
D03*
D49*
X42000Y885500D02*
D03*
Y840500D02*
D03*
Y714500D02*
D03*
Y669500D02*
D03*
Y800500D02*
D03*
Y755500D02*
D03*
D50*
X67000Y898000D02*
D03*
Y828000D02*
D03*
Y727000D02*
D03*
Y657000D02*
D03*
Y813000D02*
D03*
Y743000D02*
D03*
X155900Y399500D02*
D03*
X130500Y386800D02*
D03*
X155900Y424900D02*
D03*
X130500Y437600D02*
D03*
Y412200D02*
D03*
X155900Y374100D02*
D03*
Y348700D02*
D03*
X130500Y361400D02*
D03*
D51*
X1104500Y920000D02*
D03*
X755500D02*
D03*
X1104500Y80000D02*
D03*
X755500D02*
D03*
Y920000D02*
D03*
X1104500D02*
D03*
X755500Y80000D02*
D03*
X1104500D02*
D03*
D52*
X41000Y243000D02*
D03*
X21000D02*
D03*
X41000Y263000D02*
D03*
Y203000D02*
D03*
Y223000D02*
D03*
X21000Y263000D02*
D03*
Y203000D02*
D03*
Y223000D02*
D03*
Y183000D02*
D03*
D53*
X41000D02*
D03*
D54*
X86500Y108600D02*
D03*
X38500D02*
D03*
Y137200D02*
D03*
X86500D02*
D03*
D55*
X33000Y119000D02*
D03*
X42000D02*
D03*
X51000D02*
D03*
X60000D02*
D03*
X69000D02*
D03*
X37500Y126800D02*
D03*
X46500D02*
D03*
X55500D02*
D03*
X64500D02*
D03*
X73500D02*
D03*
X78000Y119000D02*
D03*
X82500Y126800D02*
D03*
X87000Y119000D02*
D03*
X91500Y126800D02*
D03*
D56*
X163000Y176000D02*
D03*
Y156000D02*
D03*
X183000D02*
D03*
Y176000D02*
D03*
X173000Y166000D02*
D03*
M02*
