G04*
G04 #@! TF.GenerationSoftware,Altium Limited,Altium Designer,19.0.10 (269)*
G04*
G04 Layer_Physical_Order=6*
G04 Layer_Color=16711680*
%FSLAX44Y44*%
%MOMM*%
G71*
G01*
G75*
%ADD10C,0.1500*%
G04:AMPARAMS|DCode=57|XSize=0.75mm|YSize=0.9mm|CornerRadius=0.0938mm|HoleSize=0mm|Usage=FLASHONLY|Rotation=0.000|XOffset=0mm|YOffset=0mm|HoleType=Round|Shape=RoundedRectangle|*
%AMROUNDEDRECTD57*
21,1,0.7500,0.7125,0,0,0.0*
21,1,0.5625,0.9000,0,0,0.0*
1,1,0.1875,0.2813,-0.3563*
1,1,0.1875,-0.2813,-0.3563*
1,1,0.1875,-0.2813,0.3563*
1,1,0.1875,0.2813,0.3563*
%
%ADD57ROUNDEDRECTD57*%
G04:AMPARAMS|DCode=60|XSize=0.75mm|YSize=0.9mm|CornerRadius=0.0938mm|HoleSize=0mm|Usage=FLASHONLY|Rotation=90.000|XOffset=0mm|YOffset=0mm|HoleType=Round|Shape=RoundedRectangle|*
%AMROUNDEDRECTD60*
21,1,0.7500,0.7125,0,0,90.0*
21,1,0.5625,0.9000,0,0,90.0*
1,1,0.1875,0.3563,0.2813*
1,1,0.1875,0.3563,-0.2813*
1,1,0.1875,-0.3563,-0.2813*
1,1,0.1875,-0.3563,0.2813*
%
%ADD60ROUNDEDRECTD60*%
G04:AMPARAMS|DCode=75|XSize=0.6mm|YSize=0.6mm|CornerRadius=0.075mm|HoleSize=0mm|Usage=FLASHONLY|Rotation=270.000|XOffset=0mm|YOffset=0mm|HoleType=Round|Shape=RoundedRectangle|*
%AMROUNDEDRECTD75*
21,1,0.6000,0.4500,0,0,270.0*
21,1,0.4500,0.6000,0,0,270.0*
1,1,0.1500,-0.2250,-0.2250*
1,1,0.1500,-0.2250,0.2250*
1,1,0.1500,0.2250,0.2250*
1,1,0.1500,0.2250,-0.2250*
%
%ADD75ROUNDEDRECTD75*%
%ADD80R,1.2000X2.7000*%
G04:AMPARAMS|DCode=81|XSize=0.8mm|YSize=1.1mm|CornerRadius=0.1mm|HoleSize=0mm|Usage=FLASHONLY|Rotation=180.000|XOffset=0mm|YOffset=0mm|HoleType=Round|Shape=RoundedRectangle|*
%AMROUNDEDRECTD81*
21,1,0.8000,0.9000,0,0,180.0*
21,1,0.6000,1.1000,0,0,180.0*
1,1,0.2000,-0.3000,0.4500*
1,1,0.2000,0.3000,0.4500*
1,1,0.2000,0.3000,-0.4500*
1,1,0.2000,-0.3000,-0.4500*
%
%ADD81ROUNDEDRECTD81*%
%ADD82C,0.3500*%
%ADD83C,0.8000*%
%ADD84C,2.5000*%
%ADD85C,2.0000*%
%ADD86C,3.0000*%
%ADD87C,1.7000*%
%ADD88C,1.5000*%
%ADD89C,1.8000*%
%ADD90C,3.2000*%
%ADD91C,1.6000*%
G04:AMPARAMS|DCode=92|XSize=1.2192mm|YSize=1.7272mm|CornerRadius=0.3048mm|HoleSize=0mm|Usage=FLASHONLY|Rotation=270.000|XOffset=0mm|YOffset=0mm|HoleType=Round|Shape=RoundedRectangle|*
%AMROUNDEDRECTD92*
21,1,1.2192,1.1176,0,0,270.0*
21,1,0.6096,1.7272,0,0,270.0*
1,1,0.6096,-0.5588,-0.3048*
1,1,0.6096,-0.5588,0.3048*
1,1,0.6096,0.5588,0.3048*
1,1,0.6096,0.5588,-0.3048*
%
%ADD92ROUNDEDRECTD92*%
G04:AMPARAMS|DCode=93|XSize=1.2192mm|YSize=1.7272mm|CornerRadius=0mm|HoleSize=0mm|Usage=FLASHONLY|Rotation=270.000|XOffset=0mm|YOffset=0mm|HoleType=Round|Shape=Octagon|*
%AMOCTAGOND93*
4,1,8,0.8636,0.3048,0.8636,-0.3048,0.5588,-0.6096,-0.5588,-0.6096,-0.8636,-0.3048,-0.8636,0.3048,-0.5588,0.6096,0.5588,0.6096,0.8636,0.3048,0.0*
%
%ADD93OCTAGOND93*%

%ADD94O,2.0000X1.0000*%
%ADD95C,0.7500*%
%ADD96C,0.5000*%
%ADD97C,0.6000*%
G04:AMPARAMS|DCode=110|XSize=1.75mm|YSize=1.35mm|CornerRadius=0.1688mm|HoleSize=0mm|Usage=FLASHONLY|Rotation=180.000|XOffset=0mm|YOffset=0mm|HoleType=Round|Shape=RoundedRectangle|*
%AMROUNDEDRECTD110*
21,1,1.7500,1.0125,0,0,180.0*
21,1,1.4125,1.3500,0,0,180.0*
1,1,0.3375,-0.7063,0.5063*
1,1,0.3375,0.7063,0.5063*
1,1,0.3375,0.7063,-0.5063*
1,1,0.3375,-0.7063,-0.5063*
%
%ADD110ROUNDEDRECTD110*%
G04:AMPARAMS|DCode=111|XSize=1.75mm|YSize=1.35mm|CornerRadius=0.1688mm|HoleSize=0mm|Usage=FLASHONLY|Rotation=90.000|XOffset=0mm|YOffset=0mm|HoleType=Round|Shape=RoundedRectangle|*
%AMROUNDEDRECTD111*
21,1,1.7500,1.0125,0,0,90.0*
21,1,1.4125,1.3500,0,0,90.0*
1,1,0.3375,0.5063,0.7063*
1,1,0.3375,0.5063,-0.7063*
1,1,0.3375,-0.5063,-0.7063*
1,1,0.3375,-0.5063,0.7063*
%
%ADD111ROUNDEDRECTD111*%
D10*
X160654Y374100D02*
G03*
X172000Y385446I0J11346D01*
G01*
X269000Y404500D02*
G03*
X282000Y417500I0J13000D01*
G01*
X177000Y404500D02*
G03*
X172000Y399500I0J-5000D01*
G01*
X269003Y412200D02*
G03*
X274304Y417501I0J5301D01*
G01*
X130500Y437600D02*
X176150D01*
X180000Y433750D01*
X172000Y385446D02*
Y399500D01*
X155900Y374100D02*
X160654D01*
X130500Y412200D02*
X269003D01*
X177000Y404500D02*
X269000D01*
X274209Y423183D02*
X275000Y424000D01*
X282000Y417500D02*
Y426500D01*
X274209Y423183D02*
X274304Y417501D01*
X880000Y480000D02*
Y492000D01*
X45500Y126800D02*
X46500D01*
X42000Y119000D02*
X43000Y118000D01*
X42000Y119000D02*
Y119000D01*
X0Y0D02*
X1600000D01*
Y1000000D01*
X0D02*
X1600000D01*
X0Y0D02*
Y1000000D01*
X-11500Y99900D02*
Y103900D01*
Y141900D02*
Y145900D01*
D57*
X922000Y460000D02*
D03*
X938000D02*
D03*
X922000Y430000D02*
D03*
X938000D02*
D03*
X922000Y550000D02*
D03*
X938000D02*
D03*
X922000Y480000D02*
D03*
X938000D02*
D03*
D60*
X970000Y508000D02*
D03*
Y492000D02*
D03*
X950000Y508000D02*
D03*
Y492000D02*
D03*
X880000D02*
D03*
Y508000D02*
D03*
X990000Y508000D02*
D03*
Y492000D02*
D03*
X910000Y492000D02*
D03*
Y508000D02*
D03*
D75*
X830000Y590000D02*
D03*
X830000Y580000D02*
D03*
X960000Y530000D02*
D03*
X960000Y520000D02*
D03*
X1000000Y440000D02*
D03*
X1000000Y450000D02*
D03*
X910000Y530000D02*
D03*
X910000Y520000D02*
D03*
X950000Y470000D02*
D03*
X950000Y480000D02*
D03*
X990000Y570000D02*
D03*
X990000Y580000D02*
D03*
X860000Y530000D02*
D03*
X860000Y540000D02*
D03*
X1010000Y570000D02*
D03*
X1010000Y560000D02*
D03*
X1000000Y530000D02*
D03*
X1000000Y520000D02*
D03*
X950000Y570000D02*
D03*
X950000Y560000D02*
D03*
X830000Y460000D02*
D03*
X830000Y470000D02*
D03*
X910000Y550000D02*
D03*
X910000Y540000D02*
D03*
X900000Y570000D02*
D03*
X900000Y560000D02*
D03*
X950000Y520000D02*
D03*
X950000Y530000D02*
D03*
X900000Y450000D02*
D03*
X900000Y460000D02*
D03*
X900000Y470000D02*
D03*
X900000Y480000D02*
D03*
X860000Y420000D02*
D03*
X860000Y430000D02*
D03*
X910000Y460000D02*
D03*
X910000Y470000D02*
D03*
X880000Y440000D02*
D03*
X880000Y450000D02*
D03*
X900000Y540000D02*
D03*
X900000Y530000D02*
D03*
X1010000Y400000D02*
D03*
X1010000Y410000D02*
D03*
X950000Y450000D02*
D03*
X950000Y460000D02*
D03*
X860000Y480000D02*
D03*
X860000Y470000D02*
D03*
X1000000Y480000D02*
D03*
X1000000Y470000D02*
D03*
X970000Y580000D02*
D03*
X970000Y570000D02*
D03*
X960000Y470000D02*
D03*
X960000Y480000D02*
D03*
D80*
X752500Y895500D02*
D03*
Y944500D02*
D03*
X1107500Y895500D02*
D03*
Y944500D02*
D03*
X752500Y55500D02*
D03*
Y104500D02*
D03*
X1107500Y55500D02*
D03*
Y104500D02*
D03*
D81*
X777600Y892500D02*
D03*
D03*
X790300D02*
D03*
X803000D02*
D03*
X815700D02*
D03*
X828400D02*
D03*
X841100D02*
D03*
X853800D02*
D03*
X866500D02*
D03*
X879200D02*
D03*
X891900D02*
D03*
X904600D02*
D03*
X917300D02*
D03*
X930000D02*
D03*
X942700D02*
D03*
X955400D02*
D03*
X968100D02*
D03*
X980800D02*
D03*
X993500D02*
D03*
X1006200D02*
D03*
X1018900D02*
D03*
X777600Y947500D02*
D03*
D03*
X790300D02*
D03*
X803000D02*
D03*
X815700D02*
D03*
X828400D02*
D03*
X841100D02*
D03*
X853800D02*
D03*
X866500D02*
D03*
X879200D02*
D03*
X891900D02*
D03*
X904600D02*
D03*
X917300D02*
D03*
X930000D02*
D03*
X942700D02*
D03*
X955400D02*
D03*
X968100D02*
D03*
X980800D02*
D03*
X993500D02*
D03*
X1006200D02*
D03*
X1018900D02*
D03*
X1044300D02*
D03*
X1057000D02*
D03*
X1031600Y892500D02*
D03*
X1044300D02*
D03*
X1057000D02*
D03*
X1069700D02*
D03*
X1031600Y947500D02*
D03*
X1069700D02*
D03*
X1082400D02*
D03*
Y892500D02*
D03*
X777600Y52500D02*
D03*
D03*
X790300D02*
D03*
X803000D02*
D03*
X815700D02*
D03*
X828400D02*
D03*
X841100D02*
D03*
X853800D02*
D03*
X866500D02*
D03*
X879200D02*
D03*
X891900D02*
D03*
X904600D02*
D03*
X917300D02*
D03*
X930000D02*
D03*
X942700D02*
D03*
X955400D02*
D03*
X968100D02*
D03*
X980800D02*
D03*
X993500D02*
D03*
X1006200D02*
D03*
X1018900D02*
D03*
X777600Y107500D02*
D03*
D03*
X790300D02*
D03*
X803000D02*
D03*
X815700D02*
D03*
X828400D02*
D03*
X841100D02*
D03*
X853800D02*
D03*
X866500D02*
D03*
X879200D02*
D03*
X891900D02*
D03*
X904600D02*
D03*
X917300D02*
D03*
X930000D02*
D03*
X942700D02*
D03*
X955400D02*
D03*
X968100D02*
D03*
X980800D02*
D03*
X993500D02*
D03*
X1006200D02*
D03*
X1018900D02*
D03*
X1044300D02*
D03*
X1057000D02*
D03*
X1031600Y52500D02*
D03*
X1044300D02*
D03*
X1057000D02*
D03*
X1069700D02*
D03*
X1031600Y107500D02*
D03*
X1069700D02*
D03*
X1082400D02*
D03*
Y52500D02*
D03*
D82*
X143200Y399500D02*
X155900D01*
X130500Y386800D02*
X143200Y399500D01*
X45500Y126800D02*
X66700Y148000D01*
X73000Y113000D02*
X78500Y118500D01*
X113000Y131000D02*
Y144000D01*
X109000Y148000D02*
X113000Y144000D01*
X66700Y148000D02*
X109000D01*
X98000Y314000D02*
Y471370D01*
X97480Y471890D02*
X98000Y471370D01*
X97590Y314410D02*
X98000Y314000D01*
X97480Y314410D02*
X97590D01*
X628936Y128000D02*
X636000Y120936D01*
X591000Y145000D02*
X608000Y128000D01*
X571000Y145000D02*
X591000D01*
X608000Y128000D02*
X628936D01*
X608000Y121000D02*
Y128000D01*
X635970Y120906D02*
X636000Y120936D01*
X78000Y119000D02*
X82500Y126800D01*
X79000Y99000D02*
X113000D01*
X73000Y105000D02*
X79000Y99000D01*
X73000Y105000D02*
Y113000D01*
X113000Y99000D02*
Y131000D01*
X42000Y119000D02*
X46500Y126800D01*
X78000Y119000D02*
X78000D01*
D83*
X875000Y825000D02*
X1037400D01*
X605000Y555000D02*
X875000Y825000D01*
X605000Y445000D02*
Y555000D01*
X428000Y18000D02*
X455000Y45000D01*
X217000Y18000D02*
X428000D01*
X200000Y35000D02*
X217000Y18000D01*
X1375000Y200000D02*
X1380000D01*
X1370000D02*
X1375000D01*
X1153000D02*
X1370000D01*
X1037400Y825000D02*
X1082400Y870000D01*
X433000Y113000D02*
X455000Y91000D01*
X433000Y113000D02*
Y200000D01*
X455000D01*
X433000D02*
Y273000D01*
X1082400Y870000D02*
Y892500D01*
X433000Y273000D02*
X605000Y445000D01*
X1058000Y241000D02*
X1167000Y132000D01*
X515600Y241000D02*
X1058000D01*
X500000Y225400D02*
X515600Y241000D01*
X1093000Y260000D02*
X1153000Y200000D01*
X489600Y260000D02*
X1093000D01*
X455000Y225400D02*
X489600Y260000D01*
X1523600Y132000D02*
X1549000D01*
X1498200D02*
X1523600D01*
X1167000D02*
X1498200D01*
X1549000Y106600D02*
Y132000D01*
X409000Y224000D02*
X410000Y225000D01*
X388000Y152200D02*
X410000Y174200D01*
X388000Y66996D02*
Y152200D01*
Y66996D02*
X410000Y44996D01*
X477000Y67000D02*
Y174600D01*
X455000D02*
X477000D01*
X478000Y174200D02*
X478400Y174600D01*
X500000D01*
X455000Y45000D02*
X477000Y67000D01*
X200000Y80000D02*
Y86000D01*
Y74000D02*
Y80000D01*
Y35000D02*
Y74000D01*
D84*
X541000Y90000D02*
D03*
X455000Y45000D02*
D03*
X410000Y44996D02*
D03*
X97480Y471890D02*
D03*
Y314410D02*
D03*
X1450000Y80000D02*
D03*
X410000Y90000D02*
D03*
X710000Y45000D02*
D03*
X500000Y90000D02*
D03*
X455000Y136000D02*
D03*
X410000D02*
D03*
X455000Y91000D02*
D03*
D85*
Y200000D02*
D03*
X455000Y225400D02*
D03*
Y174600D02*
D03*
X500000Y200000D02*
D03*
X500000Y225400D02*
D03*
Y174600D02*
D03*
X410000Y199600D02*
D03*
X410000Y225000D02*
D03*
Y174200D02*
D03*
X17978Y456396D02*
D03*
X33218Y329904D02*
D03*
Y430996D02*
D03*
X17978Y355304D02*
D03*
D86*
X160000Y50000D02*
D03*
X35000Y945000D02*
D03*
Y55000D02*
D03*
X1575000Y55500D02*
D03*
Y944500D02*
D03*
D87*
X55000Y539000D02*
D03*
Y513600D02*
D03*
X80400D02*
D03*
Y539000D02*
D03*
X131200D02*
D03*
Y513600D02*
D03*
X105800D02*
D03*
Y539000D02*
D03*
X55000Y630700D02*
D03*
Y605300D02*
D03*
X80400D02*
D03*
Y630700D02*
D03*
X131200D02*
D03*
Y605300D02*
D03*
X105800D02*
D03*
Y630700D02*
D03*
X1549000Y894000D02*
D03*
X1498200D02*
D03*
X1549000Y868600D02*
D03*
Y843200D02*
D03*
Y817800D02*
D03*
Y792400D02*
D03*
Y767000D02*
D03*
Y741600D02*
D03*
Y716200D02*
D03*
Y690800D02*
D03*
Y665400D02*
D03*
Y640000D02*
D03*
Y614600D02*
D03*
Y589200D02*
D03*
Y563800D02*
D03*
Y538400D02*
D03*
Y513000D02*
D03*
Y487600D02*
D03*
Y462200D02*
D03*
Y436800D02*
D03*
Y411400D02*
D03*
Y386000D02*
D03*
Y360600D02*
D03*
Y335200D02*
D03*
Y309800D02*
D03*
Y284400D02*
D03*
Y259000D02*
D03*
Y233600D02*
D03*
Y208200D02*
D03*
Y182800D02*
D03*
Y157400D02*
D03*
Y132000D02*
D03*
Y106600D02*
D03*
X1523600Y894000D02*
D03*
Y868600D02*
D03*
Y843200D02*
D03*
Y817800D02*
D03*
Y792400D02*
D03*
Y767000D02*
D03*
Y741600D02*
D03*
Y716200D02*
D03*
Y690800D02*
D03*
Y665400D02*
D03*
Y640000D02*
D03*
Y614600D02*
D03*
Y589200D02*
D03*
Y563800D02*
D03*
Y538400D02*
D03*
Y513000D02*
D03*
Y487600D02*
D03*
Y462200D02*
D03*
Y436800D02*
D03*
Y411400D02*
D03*
Y386000D02*
D03*
Y360600D02*
D03*
Y335200D02*
D03*
Y309800D02*
D03*
Y284400D02*
D03*
Y259000D02*
D03*
Y233600D02*
D03*
Y208200D02*
D03*
Y182800D02*
D03*
Y157400D02*
D03*
Y132000D02*
D03*
Y106600D02*
D03*
X1498200Y868600D02*
D03*
Y843200D02*
D03*
Y817800D02*
D03*
Y792400D02*
D03*
Y767000D02*
D03*
Y741600D02*
D03*
Y716200D02*
D03*
Y690800D02*
D03*
Y665400D02*
D03*
Y640000D02*
D03*
Y614600D02*
D03*
Y589200D02*
D03*
Y563800D02*
D03*
Y538400D02*
D03*
Y513000D02*
D03*
Y487600D02*
D03*
Y462200D02*
D03*
Y436800D02*
D03*
Y411400D02*
D03*
Y386000D02*
D03*
Y360600D02*
D03*
Y335200D02*
D03*
Y309800D02*
D03*
Y284400D02*
D03*
Y259000D02*
D03*
Y233600D02*
D03*
Y208200D02*
D03*
Y182800D02*
D03*
Y157400D02*
D03*
Y132000D02*
D03*
Y106600D02*
D03*
D88*
X42000Y885500D02*
D03*
Y840500D02*
D03*
Y714500D02*
D03*
Y669500D02*
D03*
Y800500D02*
D03*
Y755500D02*
D03*
D89*
X67000Y898000D02*
D03*
Y828000D02*
D03*
Y727000D02*
D03*
Y657000D02*
D03*
Y813000D02*
D03*
Y743000D02*
D03*
X155900Y399500D02*
D03*
X130500Y386800D02*
D03*
X155900Y424900D02*
D03*
X130500Y437600D02*
D03*
Y412200D02*
D03*
X155900Y374100D02*
D03*
Y348700D02*
D03*
X130500Y361400D02*
D03*
D90*
X67000Y450300D02*
D03*
Y336000D02*
D03*
D91*
X1104500Y920000D02*
D03*
X755500D02*
D03*
X1104500Y80000D02*
D03*
X755500D02*
D03*
Y920000D02*
D03*
X1104500D02*
D03*
X755500Y80000D02*
D03*
X1104500D02*
D03*
D92*
X41000Y243000D02*
D03*
X21000D02*
D03*
X41000Y263000D02*
D03*
Y203000D02*
D03*
Y223000D02*
D03*
X21000Y263000D02*
D03*
Y203000D02*
D03*
Y223000D02*
D03*
Y183000D02*
D03*
D93*
X41000D02*
D03*
D94*
X86500Y108600D02*
D03*
X38500D02*
D03*
Y137200D02*
D03*
X86500D02*
D03*
D95*
X33000Y119000D02*
D03*
X42000D02*
D03*
X51000D02*
D03*
X60000D02*
D03*
X69000D02*
D03*
X37500Y126800D02*
D03*
X46500D02*
D03*
X55500D02*
D03*
X64500D02*
D03*
X73500D02*
D03*
X78000Y119000D02*
D03*
X82500Y126800D02*
D03*
X87000Y119000D02*
D03*
X91500Y126800D02*
D03*
D96*
X180000Y433750D02*
D03*
X281000Y427500D02*
D03*
X275000Y424000D02*
D03*
X940000Y550000D02*
D03*
X920000D02*
D03*
X70000Y74000D02*
D03*
X920000Y470000D02*
D03*
X1445000Y192000D02*
D03*
X777600Y52500D02*
D03*
X790300D02*
D03*
X803000D02*
D03*
X815700D02*
D03*
X828400D02*
D03*
X841100D02*
D03*
X853800D02*
D03*
X942700D02*
D03*
X930000D02*
D03*
X917300D02*
D03*
X904600D02*
D03*
X891900D02*
D03*
X879200D02*
D03*
X866500D02*
D03*
X1031600D02*
D03*
X1018900D02*
D03*
X1006200D02*
D03*
X993500D02*
D03*
X980800D02*
D03*
X968100D02*
D03*
X955400D02*
D03*
X1082400D02*
D03*
X1069700D02*
D03*
X1057000D02*
D03*
X1044300D02*
D03*
X777600Y107500D02*
D03*
X790300D02*
D03*
X803000D02*
D03*
X815700D02*
D03*
X828400D02*
D03*
X841100D02*
D03*
X853800D02*
D03*
X942700D02*
D03*
X930000D02*
D03*
X917300D02*
D03*
X904600D02*
D03*
X891900D02*
D03*
X879200D02*
D03*
X866500D02*
D03*
X1031600D02*
D03*
X1018900D02*
D03*
X1006200D02*
D03*
X993500D02*
D03*
X980800D02*
D03*
X968100D02*
D03*
X955400D02*
D03*
X1082400D02*
D03*
X1069700D02*
D03*
X1057000D02*
D03*
X1044300D02*
D03*
X777600Y947500D02*
D03*
X790300D02*
D03*
X803000D02*
D03*
X815700D02*
D03*
X828400D02*
D03*
X841100D02*
D03*
X853800D02*
D03*
X942700D02*
D03*
X930000D02*
D03*
X917300D02*
D03*
X904600D02*
D03*
X891900D02*
D03*
X879200D02*
D03*
X866500D02*
D03*
X1031600D02*
D03*
X1018900D02*
D03*
X1006200D02*
D03*
X993500D02*
D03*
X980800D02*
D03*
X968100D02*
D03*
X955400D02*
D03*
X1082400D02*
D03*
X1069700D02*
D03*
X1057000D02*
D03*
X1044300D02*
D03*
Y892500D02*
D03*
X1057000D02*
D03*
X1069700D02*
D03*
X1082400D02*
D03*
X955400D02*
D03*
X968100D02*
D03*
X980800D02*
D03*
X993500D02*
D03*
X1006200D02*
D03*
X1018900D02*
D03*
X1031600D02*
D03*
X866500D02*
D03*
X879200D02*
D03*
X891900D02*
D03*
X904600D02*
D03*
X917300D02*
D03*
X930000D02*
D03*
X942700D02*
D03*
X853800D02*
D03*
X841100D02*
D03*
X828400D02*
D03*
X815700D02*
D03*
X803000D02*
D03*
X790300D02*
D03*
X777600D02*
D03*
X1380000Y200000D02*
D03*
X1375000D02*
D03*
X680000Y225000D02*
D03*
Y200000D02*
D03*
Y175000D02*
D03*
Y150000D02*
D03*
X835000Y140000D02*
D03*
X840000Y165000D02*
D03*
X760000D02*
D03*
X845000Y190000D02*
D03*
X850000Y215000D02*
D03*
X760000D02*
D03*
X780000Y225000D02*
D03*
X760000Y190000D02*
D03*
X780000Y200000D02*
D03*
Y175000D02*
D03*
Y150000D02*
D03*
X760000Y140000D02*
D03*
X950000Y620000D02*
D03*
X920000D02*
D03*
X1050000Y480000D02*
D03*
Y510000D02*
D03*
X1030000Y530000D02*
D03*
Y510000D02*
D03*
X1000000Y380000D02*
D03*
X970000D02*
D03*
X930000D02*
D03*
X900000D02*
D03*
X920000Y600000D02*
D03*
Y400000D02*
D03*
X810000Y560000D02*
D03*
Y530000D02*
D03*
X810000Y470000D02*
D03*
Y500000D02*
D03*
X880000Y480000D02*
D03*
X930000Y500000D02*
D03*
X1370000Y200000D02*
D03*
X722000Y575000D02*
D03*
Y590000D02*
D03*
X820000D02*
D03*
X462000Y850000D02*
D03*
X392000Y959000D02*
D03*
X491000Y525000D02*
D03*
X110000Y841000D02*
D03*
Y756000D02*
D03*
Y670000D02*
D03*
X370000Y750000D02*
D03*
Y850000D02*
D03*
X419000Y632000D02*
D03*
X406300D02*
D03*
X393600D02*
D03*
X380900D02*
D03*
X101000Y866000D02*
D03*
X87000D02*
D03*
X101000Y781000D02*
D03*
X87000D02*
D03*
X101000Y695000D02*
D03*
X87000D02*
D03*
X406000Y787000D02*
D03*
X378000D02*
D03*
X406000Y887000D02*
D03*
X378000Y887000D02*
D03*
X364000Y959000D02*
D03*
X436000D02*
D03*
X175000Y547000D02*
D03*
X175000Y533000D02*
D03*
Y519000D02*
D03*
Y505000D02*
D03*
X175000Y638700D02*
D03*
X175000Y624700D02*
D03*
Y610700D02*
D03*
Y596700D02*
D03*
X821000Y358000D02*
D03*
X841000D02*
D03*
X825000Y642000D02*
D03*
X845000D02*
D03*
X860000Y470000D02*
D03*
X860000Y480000D02*
D03*
X262999Y538000D02*
D03*
X243000D02*
D03*
X224000D02*
D03*
X208000D02*
D03*
X270000Y506000D02*
D03*
X315000Y470000D02*
D03*
X214000Y482000D02*
D03*
Y496000D02*
D03*
X332500Y470000D02*
D03*
X337500Y465000D02*
D03*
X276000Y313000D02*
D03*
Y297000D02*
D03*
X418000Y385000D02*
D03*
X390000Y467500D02*
D03*
X395000Y462500D02*
D03*
X345000Y415000D02*
D03*
X350000Y420000D02*
D03*
X355000Y425000D02*
D03*
X360000Y430000D02*
D03*
X399000Y331000D02*
D03*
X371000D02*
D03*
X385000D02*
D03*
X348000Y333000D02*
D03*
X390000Y437500D02*
D03*
X327500Y410240D02*
D03*
X307500Y385000D02*
D03*
X362500Y410240D02*
D03*
X335000Y538000D02*
D03*
X351000Y530000D02*
D03*
X362500Y495000D02*
D03*
X379000Y498000D02*
D03*
X287000D02*
D03*
X292620Y473000D02*
D03*
X398000Y385000D02*
D03*
X259000Y398000D02*
D03*
X257000Y370000D02*
D03*
Y363000D02*
D03*
X243000Y370000D02*
D03*
Y384000D02*
D03*
X207000Y361000D02*
D03*
X214500Y334000D02*
D03*
Y348000D02*
D03*
X242500Y426000D02*
D03*
X200000Y86000D02*
D03*
Y80000D02*
D03*
Y74000D02*
D03*
X685000Y60000D02*
D03*
X675000D02*
D03*
X665000D02*
D03*
X655000D02*
D03*
X571000Y145000D02*
D03*
X626970Y121000D02*
D03*
X621970D02*
D03*
X616970D02*
D03*
X635970Y120906D02*
D03*
X608000Y121000D02*
D03*
X233500Y49000D02*
D03*
X247000Y103000D02*
D03*
X235500D02*
D03*
X210000Y44996D02*
D03*
X220500D02*
D03*
X113000Y99000D02*
D03*
X920000Y440000D02*
D03*
X232000Y185000D02*
D03*
X216000D02*
D03*
X95000Y263000D02*
D03*
Y243000D02*
D03*
Y223000D02*
D03*
Y203000D02*
D03*
X105000Y141000D02*
D03*
X129000Y131000D02*
D03*
X166000Y95000D02*
D03*
X152000D02*
D03*
X113000Y131000D02*
D03*
X208000Y127000D02*
D03*
X222000D02*
D03*
X102000Y74000D02*
D03*
Y88000D02*
D03*
X1012000Y306000D02*
D03*
X1137000Y396000D02*
D03*
X1097000Y386800D02*
D03*
X891900Y94800D02*
D03*
Y65200D02*
D03*
X853800Y94800D02*
D03*
Y65200D02*
D03*
X1006200D02*
D03*
Y92300D02*
D03*
X1038000Y269000D02*
D03*
X1012000Y294000D02*
D03*
X1021000Y269000D02*
D03*
X1109000D02*
D03*
X1110000Y344000D02*
D03*
X1082000D02*
D03*
X1094000D02*
D03*
X1097000Y405000D02*
D03*
X1040000Y420000D02*
D03*
X960000Y590000D02*
D03*
X980000Y580000D02*
D03*
X1020000Y510000D02*
D03*
X1010000D02*
D03*
X1000000D02*
D03*
X990000D02*
D03*
X980000D02*
D03*
X910000D02*
D03*
X900000D02*
D03*
X890000D02*
D03*
X880000D02*
D03*
X860000D02*
D03*
X840000D02*
D03*
X830000D02*
D03*
X840000Y520000D02*
D03*
X910000D02*
D03*
X940000D02*
D03*
X950000D02*
D03*
X960000D02*
D03*
X970000D02*
D03*
X990000D02*
D03*
X1010000D02*
D03*
X1020000D02*
D03*
X830000Y530000D02*
D03*
X840000D02*
D03*
X860000D02*
D03*
X890000D02*
D03*
X910000D02*
D03*
X950000D02*
D03*
X960000D02*
D03*
X1020000D02*
D03*
X840000Y540000D02*
D03*
X860000D02*
D03*
X880000D02*
D03*
X940000D02*
D03*
X950000D02*
D03*
X960000D02*
D03*
X980000D02*
D03*
X1020000D02*
D03*
X830000Y550000D02*
D03*
X840000D02*
D03*
X860000D02*
D03*
X910000D02*
D03*
X960000D02*
D03*
X970000D02*
D03*
X980000D02*
D03*
X990000D02*
D03*
X1000000D02*
D03*
X1020000D02*
D03*
X1030000D02*
D03*
X840000Y560000D02*
D03*
X850000D02*
D03*
X870000D02*
D03*
X920000D02*
D03*
X960000D02*
D03*
X970000D02*
D03*
X990000D02*
D03*
X1000000D02*
D03*
X1020000D02*
D03*
X830000Y570000D02*
D03*
X850000D02*
D03*
X860000D02*
D03*
X880000D02*
D03*
X900000D02*
D03*
X920000D02*
D03*
X950000D02*
D03*
X970000D02*
D03*
X990000D02*
D03*
X1000000D02*
D03*
X1010000D02*
D03*
X1020000D02*
D03*
X1030000D02*
D03*
X820000Y580000D02*
D03*
X840000D02*
D03*
X850000D02*
D03*
X860000D02*
D03*
X870000D02*
D03*
X880000D02*
D03*
X890000D02*
D03*
X960000D02*
D03*
X1000000D02*
D03*
X1010000D02*
D03*
X1020000D02*
D03*
X830000Y590000D02*
D03*
X840000D02*
D03*
X850000D02*
D03*
X870000D02*
D03*
X880000D02*
D03*
X890000D02*
D03*
X900000D02*
D03*
X910000D02*
D03*
X950000D02*
D03*
X970000D02*
D03*
X980000D02*
D03*
X990000D02*
D03*
X1000000D02*
D03*
X1010000D02*
D03*
X1020000D02*
D03*
X1030000D02*
D03*
X850000Y600000D02*
D03*
X860000D02*
D03*
X880000D02*
D03*
X900000D02*
D03*
X950000D02*
D03*
X970000D02*
D03*
X990000D02*
D03*
X1010000D02*
D03*
X820000Y610000D02*
D03*
X1010000D02*
D03*
X1040000D02*
D03*
Y390000D02*
D03*
X820000D02*
D03*
X1010000Y400000D02*
D03*
X990000D02*
D03*
X970000D02*
D03*
X960000D02*
D03*
X950000D02*
D03*
X900000D02*
D03*
X880000D02*
D03*
X860000D02*
D03*
X840000D02*
D03*
X820000D02*
D03*
X1010000Y410000D02*
D03*
X1030000Y420000D02*
D03*
X1020000D02*
D03*
X1010000D02*
D03*
X980000D02*
D03*
X880000D02*
D03*
X860000D02*
D03*
X840000D02*
D03*
X830000D02*
D03*
X1020000Y430000D02*
D03*
X980000D02*
D03*
X960000D02*
D03*
X890000D02*
D03*
X860000D02*
D03*
X850000D02*
D03*
X840000D02*
D03*
X1020000Y440000D02*
D03*
X1010000D02*
D03*
X970000D02*
D03*
X860000D02*
D03*
X850000D02*
D03*
X840000D02*
D03*
X830000D02*
D03*
X1010000Y450000D02*
D03*
X900000D02*
D03*
X880000D02*
D03*
X870000D02*
D03*
X850000D02*
D03*
X840000D02*
D03*
X1030000Y460000D02*
D03*
X1020000D02*
D03*
X1010000D02*
D03*
X1000000D02*
D03*
X990000D02*
D03*
X960000D02*
D03*
X950000D02*
D03*
X940000D02*
D03*
X900000D02*
D03*
X850000D02*
D03*
X840000D02*
D03*
X830000D02*
D03*
X1010000Y470000D02*
D03*
X1000000D02*
D03*
X990000D02*
D03*
X980000D02*
D03*
X970000D02*
D03*
X950000D02*
D03*
X940000D02*
D03*
X900000D02*
D03*
X870000D02*
D03*
X850000D02*
D03*
X840000D02*
D03*
X1030000Y480000D02*
D03*
X1010000D02*
D03*
X990000D02*
D03*
X980000D02*
D03*
X970000D02*
D03*
X950000D02*
D03*
X940000D02*
D03*
X910000D02*
D03*
X900000D02*
D03*
X890000D02*
D03*
X840000D02*
D03*
X830000D02*
D03*
X840000Y490000D02*
D03*
X900000D02*
D03*
X910000D02*
D03*
X940000D02*
D03*
X950000D02*
D03*
X960000D02*
D03*
X980000D02*
D03*
X1000000D02*
D03*
X1010000D02*
D03*
X1020000D02*
D03*
X960000Y510000D02*
D03*
X920000Y490000D02*
D03*
Y480000D02*
D03*
X960000Y470000D02*
D03*
Y480000D02*
D03*
X900000Y520000D02*
D03*
X950000Y510000D02*
D03*
X940000D02*
D03*
X990000Y490000D02*
D03*
X920000Y530000D02*
D03*
Y520000D02*
D03*
X930000Y520000D02*
D03*
X970000Y490000D02*
D03*
Y510000D02*
D03*
X900000Y530000D02*
D03*
Y540000D02*
D03*
X910000Y470000D02*
D03*
Y460000D02*
D03*
X920000D02*
D03*
X970000Y580000D02*
D03*
X870000Y460000D02*
D03*
X880000Y440000D02*
D03*
X970000Y530000D02*
D03*
Y540000D02*
D03*
X990000Y580000D02*
D03*
X910000Y540000D02*
D03*
X900000Y560000D02*
D03*
X950000D02*
D03*
X1000000Y480000D02*
D03*
Y520000D02*
D03*
Y530000D02*
D03*
Y450000D02*
D03*
Y440000D02*
D03*
X1010000Y560000D02*
D03*
X940000Y430000D02*
D03*
X920000D02*
D03*
X950000Y450000D02*
D03*
X830000Y580000D02*
D03*
Y470000D02*
D03*
X1030000Y440000D02*
D03*
D97*
X163000Y176000D02*
D03*
Y156000D02*
D03*
X183000D02*
D03*
Y176000D02*
D03*
X173000Y166000D02*
D03*
D110*
X810000Y470000D02*
D03*
Y500000D02*
D03*
X810000Y530000D02*
D03*
Y560000D02*
D03*
X1050000Y510000D02*
D03*
Y480000D02*
D03*
X930000Y504000D02*
D03*
Y534000D02*
D03*
D111*
X930000Y380000D02*
D03*
X900000D02*
D03*
X920000Y620000D02*
D03*
X950000D02*
D03*
X969000Y380000D02*
D03*
X999000D02*
D03*
M02*
