G04*
G04 #@! TF.GenerationSoftware,Altium Limited,Altium Designer,19.0.10 (269)*
G04*
G04 Layer_Color=65535*
%FSLAX44Y44*%
%MOMM*%
G71*
G01*
G75*
%ADD10C,0.1500*%
%ADD11C,0.4000*%
%ADD12C,0.2540*%
%ADD13C,0.2500*%
%ADD14C,0.5000*%
%ADD15C,0.2000*%
%ADD16C,1.0000*%
%ADD17C,0.1524*%
%ADD18C,0.3000*%
%ADD19R,1.4000X0.6250*%
G36*
X38500Y145500D02*
X51500D01*
X51500Y158500D01*
X38500Y145500D01*
D02*
G37*
G36*
X375000Y184600D02*
Y164600D01*
X355000Y174600D01*
X375000Y184600D01*
D02*
G37*
G36*
X396030Y238970D02*
X406190D01*
X396030Y228810D01*
X396030Y238970D01*
D02*
G37*
G36*
X441030Y239370D02*
X451190D01*
X441030Y229210D01*
X441030Y239370D01*
D02*
G37*
G36*
X486030D02*
X496190D01*
X486030Y229210D01*
X486030Y239370D01*
D02*
G37*
G36*
X555000Y225000D02*
X535000Y215000D01*
Y235000D01*
X555000Y225000D01*
D02*
G37*
G36*
X1267730Y103686D02*
X1268286Y103658D01*
X1268896Y103602D01*
X1269535Y103519D01*
X1270118Y103408D01*
X1270396Y103325D01*
X1270646Y103241D01*
X1270673D01*
X1270701Y103214D01*
X1270868Y103158D01*
X1271090Y103047D01*
X1271367Y102908D01*
X1271701Y102714D01*
X1272061Y102464D01*
X1272395Y102159D01*
X1272728Y101826D01*
X1272756Y101770D01*
X1272867Y101659D01*
X1273005Y101437D01*
X1273200Y101159D01*
X1273394Y100826D01*
X1273616Y100410D01*
X1273811Y99938D01*
X1273977Y99410D01*
X1269452Y98605D01*
Y98633D01*
X1269396Y98744D01*
X1269313Y98911D01*
X1269230Y99105D01*
X1269091Y99299D01*
X1268924Y99521D01*
X1268702Y99716D01*
X1268480Y99910D01*
X1268452Y99938D01*
X1268369Y99993D01*
X1268203Y100049D01*
X1268008Y100160D01*
X1267758Y100243D01*
X1267481Y100299D01*
X1267148Y100354D01*
X1266759Y100382D01*
X1266620D01*
X1266509Y100354D01*
X1266231Y100326D01*
X1265871Y100243D01*
X1265482Y100132D01*
X1265065Y99938D01*
X1264649Y99660D01*
X1264288Y99299D01*
X1264260Y99244D01*
X1264149Y99105D01*
X1264010Y98827D01*
X1263844Y98466D01*
X1263650Y97994D01*
X1263594Y97717D01*
X1263511Y97411D01*
X1263455Y97078D01*
X1263400Y96717D01*
X1263372Y96329D01*
Y95912D01*
Y95885D01*
Y95801D01*
Y95690D01*
X1263400Y95524D01*
Y95302D01*
X1263427Y95079D01*
X1263483Y94552D01*
X1263594Y93969D01*
X1263761Y93386D01*
X1263983Y92831D01*
X1264121Y92608D01*
X1264288Y92386D01*
X1264343Y92331D01*
X1264455Y92220D01*
X1264677Y92053D01*
X1264982Y91859D01*
X1265343Y91665D01*
X1265787Y91498D01*
X1266315Y91387D01*
X1266898Y91332D01*
X1267175D01*
X1267370Y91359D01*
X1267619Y91387D01*
X1267869Y91415D01*
X1268397Y91554D01*
X1268425D01*
X1268536Y91609D01*
X1268674Y91665D01*
X1268869Y91748D01*
X1269119Y91831D01*
X1269396Y91970D01*
X1269729Y92137D01*
X1270063Y92331D01*
Y93774D01*
X1266898D01*
Y96939D01*
X1274171D01*
Y90443D01*
X1274144Y90415D01*
X1274088Y90388D01*
X1273977Y90304D01*
X1273811Y90221D01*
X1273644Y90110D01*
X1273422Y89971D01*
X1272922Y89666D01*
X1272339Y89360D01*
X1271701Y89027D01*
X1271062Y88722D01*
X1270451Y88500D01*
X1270424D01*
X1270368Y88472D01*
X1270285Y88444D01*
X1270174Y88416D01*
X1270007Y88389D01*
X1269840Y88333D01*
X1269618Y88305D01*
X1269396Y88250D01*
X1268841Y88167D01*
X1268175Y88083D01*
X1267453Y88028D01*
X1266648Y88000D01*
X1266398D01*
X1266204Y88028D01*
X1265954D01*
X1265704Y88055D01*
X1265398Y88083D01*
X1265065Y88111D01*
X1264371Y88222D01*
X1263622Y88389D01*
X1262900Y88611D01*
X1262206Y88916D01*
X1262178D01*
X1262123Y88972D01*
X1262039Y89027D01*
X1261928Y89083D01*
X1261623Y89305D01*
X1261234Y89610D01*
X1260818Y89971D01*
X1260374Y90443D01*
X1259957Y90998D01*
X1259568Y91637D01*
Y91665D01*
X1259541Y91720D01*
X1259485Y91831D01*
X1259430Y91970D01*
X1259346Y92137D01*
X1259291Y92331D01*
X1259208Y92581D01*
X1259124Y92858D01*
X1259013Y93136D01*
X1258930Y93469D01*
X1258791Y94191D01*
X1258680Y94996D01*
X1258652Y95857D01*
Y95885D01*
Y95968D01*
Y96107D01*
X1258680Y96273D01*
Y96495D01*
X1258708Y96745D01*
X1258736Y97023D01*
X1258791Y97328D01*
X1258902Y97994D01*
X1259097Y98716D01*
X1259346Y99438D01*
X1259679Y100160D01*
Y100188D01*
X1259735Y100243D01*
X1259790Y100326D01*
X1259874Y100465D01*
X1260096Y100798D01*
X1260429Y101215D01*
X1260873Y101659D01*
X1261373Y102131D01*
X1261984Y102575D01*
X1262678Y102964D01*
X1262706D01*
X1262761Y102992D01*
X1262844Y103047D01*
X1262955Y103075D01*
X1263122Y103130D01*
X1263316Y103214D01*
X1263538Y103269D01*
X1263788Y103352D01*
X1264066Y103408D01*
X1264399Y103463D01*
X1264732Y103547D01*
X1265093Y103602D01*
X1265510Y103658D01*
X1265926Y103686D01*
X1266870Y103713D01*
X1267508D01*
X1267730Y103686D01*
D02*
G37*
G36*
X1213678D02*
X1213927D01*
X1214205Y103658D01*
X1214510Y103630D01*
X1214844Y103575D01*
X1215593Y103436D01*
X1216343Y103214D01*
X1217065Y102936D01*
X1217398Y102742D01*
X1217731Y102547D01*
X1217759D01*
X1217814Y102492D01*
X1217897Y102436D01*
X1218008Y102325D01*
X1218147Y102214D01*
X1218314Y102048D01*
X1218480Y101881D01*
X1218675Y101659D01*
X1218869Y101437D01*
X1219063Y101159D01*
X1219286Y100882D01*
X1219480Y100548D01*
X1219674Y100188D01*
X1219868Y99827D01*
X1220035Y99410D01*
X1220202Y98966D01*
X1216037Y98050D01*
Y98078D01*
X1216010Y98161D01*
X1215954Y98300D01*
X1215899Y98439D01*
X1215732Y98772D01*
X1215649Y98911D01*
X1215565Y99049D01*
X1215538Y99077D01*
X1215510Y99133D01*
X1215399Y99244D01*
X1215288Y99355D01*
X1214982Y99632D01*
X1214594Y99882D01*
X1214566Y99910D01*
X1214510Y99938D01*
X1214372Y99993D01*
X1214233Y100049D01*
X1214038Y100104D01*
X1213816Y100132D01*
X1213567Y100188D01*
X1213150D01*
X1213067Y100160D01*
X1212761Y100132D01*
X1212401Y100021D01*
X1212012Y99882D01*
X1211595Y99632D01*
X1211207Y99327D01*
X1211040Y99105D01*
X1210873Y98883D01*
X1210846Y98827D01*
X1210762Y98716D01*
X1210679Y98466D01*
X1210568Y98161D01*
X1210429Y97745D01*
X1210346Y97245D01*
X1210263Y96634D01*
X1210235Y95912D01*
Y95885D01*
Y95801D01*
Y95662D01*
Y95496D01*
X1210263Y95302D01*
Y95052D01*
X1210318Y94524D01*
X1210429Y93969D01*
X1210540Y93386D01*
X1210735Y92858D01*
X1210846Y92636D01*
X1210985Y92442D01*
X1211012Y92414D01*
X1211123Y92303D01*
X1211318Y92164D01*
X1211540Y91998D01*
X1211845Y91803D01*
X1212234Y91665D01*
X1212650Y91554D01*
X1213150Y91526D01*
X1213372D01*
X1213622Y91554D01*
X1213927Y91609D01*
X1214260Y91720D01*
X1214594Y91831D01*
X1214927Y92025D01*
X1215204Y92275D01*
X1215232Y92303D01*
X1215315Y92414D01*
X1215454Y92581D01*
X1215593Y92831D01*
X1215760Y93136D01*
X1215926Y93525D01*
X1216093Y93969D01*
X1216232Y94496D01*
X1220340Y93219D01*
Y93191D01*
X1220313Y93136D01*
X1220285Y93053D01*
X1220257Y92942D01*
X1220174Y92608D01*
X1220007Y92220D01*
X1219841Y91748D01*
X1219591Y91276D01*
X1219341Y90804D01*
X1219008Y90332D01*
X1218980Y90276D01*
X1218841Y90138D01*
X1218647Y89943D01*
X1218397Y89666D01*
X1218064Y89388D01*
X1217703Y89110D01*
X1217259Y88833D01*
X1216787Y88583D01*
X1216759D01*
X1216731Y88555D01*
X1216648Y88527D01*
X1216565Y88500D01*
X1216259Y88389D01*
X1215871Y88305D01*
X1215399Y88194D01*
X1214816Y88083D01*
X1214149Y88028D01*
X1213428Y88000D01*
X1213011D01*
X1212789Y88028D01*
X1212567D01*
X1212289Y88055D01*
X1211984Y88083D01*
X1211346Y88167D01*
X1210651Y88305D01*
X1209985Y88472D01*
X1209347Y88694D01*
X1209319D01*
X1209291Y88722D01*
X1209208Y88777D01*
X1209097Y88833D01*
X1208791Y89027D01*
X1208430Y89277D01*
X1208014Y89638D01*
X1207542Y90054D01*
X1207098Y90582D01*
X1206654Y91220D01*
Y91248D01*
X1206598Y91304D01*
X1206543Y91415D01*
X1206487Y91553D01*
X1206404Y91720D01*
X1206293Y91942D01*
X1206182Y92192D01*
X1206098Y92498D01*
X1205987Y92803D01*
X1205876Y93164D01*
X1205793Y93552D01*
X1205682Y93969D01*
X1205627Y94413D01*
X1205571Y94885D01*
X1205515Y95884D01*
Y95940D01*
Y96051D01*
X1205543Y96245D01*
Y96495D01*
X1205571Y96828D01*
X1205627Y97189D01*
X1205682Y97578D01*
X1205765Y98022D01*
X1205876Y98494D01*
X1206015Y98966D01*
X1206154Y99438D01*
X1206348Y99938D01*
X1206598Y100410D01*
X1206848Y100854D01*
X1207153Y101298D01*
X1207514Y101687D01*
X1207542Y101714D01*
X1207598Y101770D01*
X1207736Y101881D01*
X1207875Y101992D01*
X1208097Y102159D01*
X1208347Y102325D01*
X1208625Y102520D01*
X1208986Y102714D01*
X1209347Y102880D01*
X1209791Y103075D01*
X1210263Y103241D01*
X1210762Y103408D01*
X1211318Y103519D01*
X1211901Y103630D01*
X1212539Y103686D01*
X1213206Y103713D01*
X1213483D01*
X1213678Y103686D01*
D02*
G37*
G36*
X1291995Y88250D02*
X1287053D01*
X1286303Y90749D01*
X1280973D01*
X1280224Y88250D01*
X1275421D01*
X1281112Y103463D01*
X1286276D01*
X1291995Y88250D01*
D02*
G37*
G36*
X1252073Y103436D02*
X1252295D01*
X1252545Y103408D01*
X1253100Y103325D01*
X1253711Y103158D01*
X1254349Y102936D01*
X1254960Y102658D01*
X1255238Y102464D01*
X1255487Y102242D01*
X1255515D01*
X1255543Y102186D01*
X1255599Y102103D01*
X1255682Y102020D01*
X1255904Y101742D01*
X1256126Y101354D01*
X1256348Y100854D01*
X1256570Y100271D01*
X1256709Y99577D01*
X1256765Y99216D01*
Y98799D01*
Y98772D01*
Y98688D01*
Y98577D01*
X1256737Y98411D01*
Y98216D01*
X1256681Y97994D01*
X1256598Y97495D01*
X1256431Y96912D01*
X1256181Y96301D01*
X1256015Y95996D01*
X1255848Y95718D01*
X1255626Y95440D01*
X1255376Y95190D01*
X1255349D01*
X1255321Y95135D01*
X1255238Y95079D01*
X1255126Y94996D01*
X1254960Y94885D01*
X1254793Y94774D01*
X1254571Y94663D01*
X1254321Y94552D01*
X1254044Y94441D01*
X1253738Y94330D01*
X1253378Y94219D01*
X1252989Y94108D01*
X1252572Y94024D01*
X1252128Y93969D01*
X1251656Y93941D01*
X1251129Y93913D01*
X1248575D01*
Y88250D01*
X1243855D01*
Y103463D01*
X1251906D01*
X1252073Y103436D01*
D02*
G37*
G36*
X1241356Y100188D02*
X1234444D01*
Y97550D01*
X1240357D01*
Y94469D01*
X1234444D01*
Y88250D01*
X1229724D01*
Y103463D01*
X1241356D01*
Y100188D01*
D02*
G37*
G36*
X1202711Y88250D02*
X1197992D01*
Y103463D01*
X1202711D01*
Y88250D01*
D02*
G37*
G36*
X1195660Y99716D02*
X1190857D01*
Y88250D01*
X1186165D01*
Y99716D01*
X1181362D01*
Y103463D01*
X1195660D01*
Y99716D01*
D02*
G37*
G36*
X1179697Y100215D02*
X1171812D01*
Y97800D01*
X1179114D01*
Y94691D01*
X1171812D01*
Y91692D01*
X1179919D01*
Y88250D01*
X1167093D01*
Y103463D01*
X1179697D01*
Y100215D01*
D02*
G37*
G36*
X1142218Y103436D02*
X1142440D01*
X1142690Y103408D01*
X1143245Y103325D01*
X1143856Y103158D01*
X1144494Y102936D01*
X1145105Y102658D01*
X1145383Y102464D01*
X1145632Y102242D01*
X1145660D01*
X1145688Y102186D01*
X1145743Y102103D01*
X1145827Y102020D01*
X1146049Y101742D01*
X1146271Y101354D01*
X1146493Y100854D01*
X1146715Y100271D01*
X1146854Y99577D01*
X1146909Y99216D01*
Y98799D01*
Y98772D01*
Y98688D01*
Y98577D01*
X1146882Y98411D01*
Y98216D01*
X1146826Y97994D01*
X1146743Y97495D01*
X1146576Y96912D01*
X1146326Y96301D01*
X1146160Y95996D01*
X1145993Y95718D01*
X1145771Y95440D01*
X1145521Y95190D01*
X1145494D01*
X1145466Y95135D01*
X1145383Y95079D01*
X1145272Y94996D01*
X1145105Y94885D01*
X1144938Y94774D01*
X1144716Y94663D01*
X1144466Y94552D01*
X1144189Y94441D01*
X1143883Y94330D01*
X1143522Y94219D01*
X1143134Y94108D01*
X1142717Y94024D01*
X1142273Y93969D01*
X1141801Y93941D01*
X1141274Y93913D01*
X1138720D01*
Y88250D01*
X1134000D01*
Y103463D01*
X1142051D01*
X1142218Y103436D01*
D02*
G37*
G36*
X1157265Y103686D02*
X1157598Y103658D01*
X1157959Y103602D01*
X1158375Y103547D01*
X1158792Y103463D01*
X1159264Y103352D01*
X1159736Y103214D01*
X1160235Y103047D01*
X1160707Y102853D01*
X1161179Y102603D01*
X1161651Y102325D01*
X1162068Y102020D01*
X1162484Y101659D01*
X1162512Y101631D01*
X1162567Y101576D01*
X1162678Y101437D01*
X1162817Y101298D01*
X1162956Y101076D01*
X1163150Y100826D01*
X1163345Y100521D01*
X1163539Y100188D01*
X1163733Y99799D01*
X1163900Y99382D01*
X1164094Y98911D01*
X1164233Y98411D01*
X1164372Y97856D01*
X1164483Y97273D01*
X1164538Y96634D01*
X1164566Y95968D01*
Y95940D01*
Y95857D01*
Y95718D01*
Y95524D01*
X1164538Y95301D01*
X1164511Y95024D01*
X1164483Y94746D01*
X1164455Y94413D01*
X1164344Y93719D01*
X1164177Y92997D01*
X1163955Y92275D01*
X1163650Y91581D01*
Y91553D01*
X1163622Y91498D01*
X1163567Y91415D01*
X1163484Y91304D01*
X1163289Y90998D01*
X1162984Y90610D01*
X1162623Y90193D01*
X1162179Y89749D01*
X1161679Y89333D01*
X1161068Y88944D01*
X1161040D01*
X1160985Y88916D01*
X1160902Y88861D01*
X1160763Y88805D01*
X1160596Y88722D01*
X1160402Y88638D01*
X1160180Y88555D01*
X1159902Y88472D01*
X1159597Y88389D01*
X1159291Y88305D01*
X1158570Y88139D01*
X1157737Y88028D01*
X1156821Y88000D01*
X1156404D01*
X1156182Y88028D01*
X1155932Y88055D01*
X1155655D01*
X1155321Y88111D01*
X1154655Y88194D01*
X1153961Y88333D01*
X1153239Y88527D01*
X1152573Y88805D01*
X1152545D01*
X1152490Y88833D01*
X1152406Y88888D01*
X1152295Y88972D01*
X1151990Y89166D01*
X1151601Y89444D01*
X1151157Y89777D01*
X1150713Y90249D01*
X1150241Y90776D01*
X1149825Y91387D01*
Y91415D01*
X1149769Y91470D01*
X1149741Y91581D01*
X1149658Y91720D01*
X1149575Y91887D01*
X1149491Y92081D01*
X1149408Y92331D01*
X1149325Y92608D01*
X1149214Y92914D01*
X1149130Y93247D01*
X1149047Y93608D01*
X1148964Y94024D01*
X1148853Y94885D01*
X1148797Y95829D01*
Y95884D01*
Y95996D01*
X1148825Y96190D01*
Y96440D01*
X1148853Y96745D01*
X1148908Y97106D01*
X1148964Y97522D01*
X1149047Y97939D01*
X1149158Y98411D01*
X1149297Y98883D01*
X1149464Y99355D01*
X1149658Y99854D01*
X1149908Y100326D01*
X1150185Y100798D01*
X1150491Y101215D01*
X1150852Y101631D01*
X1150879Y101659D01*
X1150963Y101714D01*
X1151074Y101826D01*
X1151240Y101964D01*
X1151462Y102103D01*
X1151712Y102297D01*
X1152018Y102492D01*
X1152351Y102686D01*
X1152739Y102880D01*
X1153184Y103047D01*
X1153656Y103241D01*
X1154183Y103380D01*
X1154738Y103519D01*
X1155349Y103630D01*
X1155988Y103686D01*
X1156654Y103713D01*
X1157015D01*
X1157265Y103686D01*
D02*
G37*
G36*
X1237581Y40686D02*
X1237831D01*
X1238108Y40658D01*
X1238414Y40630D01*
X1238747Y40574D01*
X1239469Y40436D01*
X1240218Y40241D01*
X1240912Y39964D01*
X1241245Y39797D01*
X1241551Y39603D01*
X1241579D01*
X1241606Y39547D01*
X1241801Y39409D01*
X1242050Y39131D01*
X1242356Y38770D01*
X1242522Y38548D01*
X1242661Y38298D01*
X1242828Y37993D01*
X1242967Y37687D01*
X1243105Y37354D01*
X1243216Y36993D01*
X1243300Y36577D01*
X1243383Y36160D01*
X1238941Y35910D01*
Y35966D01*
X1238913Y36077D01*
X1238858Y36271D01*
X1238774Y36493D01*
X1238663Y36716D01*
X1238552Y36965D01*
X1238386Y37215D01*
X1238192Y37410D01*
X1238164Y37437D01*
X1238081Y37493D01*
X1237969Y37548D01*
X1237803Y37659D01*
X1237581Y37743D01*
X1237303Y37798D01*
X1236998Y37854D01*
X1236637Y37882D01*
X1236498D01*
X1236359Y37854D01*
X1236165Y37826D01*
X1235748Y37743D01*
X1235554Y37632D01*
X1235387Y37521D01*
X1235360Y37493D01*
X1235332Y37465D01*
X1235193Y37299D01*
X1235054Y37021D01*
X1235027Y36854D01*
X1234999Y36688D01*
Y36660D01*
Y36632D01*
X1235054Y36466D01*
X1235138Y36244D01*
X1235221Y36133D01*
X1235332Y36021D01*
X1235360D01*
X1235415Y35966D01*
X1235499Y35910D01*
X1235665Y35827D01*
X1235860Y35744D01*
X1236137Y35661D01*
X1236470Y35550D01*
X1236887Y35466D01*
X1236914D01*
X1237026Y35438D01*
X1237192Y35411D01*
X1237386Y35355D01*
X1237636Y35300D01*
X1237942Y35216D01*
X1238275Y35133D01*
X1238608Y35050D01*
X1239330Y34855D01*
X1240079Y34606D01*
X1240746Y34356D01*
X1241051Y34245D01*
X1241329Y34106D01*
X1241356D01*
X1241384Y34078D01*
X1241551Y33995D01*
X1241773Y33856D01*
X1242078Y33662D01*
X1242384Y33412D01*
X1242717Y33134D01*
X1243022Y32801D01*
X1243272Y32440D01*
X1243300Y32385D01*
X1243355Y32274D01*
X1243466Y32051D01*
X1243577Y31774D01*
X1243688Y31441D01*
X1243800Y31080D01*
X1243855Y30636D01*
X1243883Y30192D01*
Y30164D01*
Y30136D01*
Y30053D01*
Y29942D01*
X1243827Y29664D01*
X1243772Y29303D01*
X1243688Y28887D01*
X1243522Y28415D01*
X1243327Y27943D01*
X1243050Y27471D01*
X1243022Y27415D01*
X1242911Y27276D01*
X1242717Y27054D01*
X1242467Y26777D01*
X1242134Y26471D01*
X1241745Y26166D01*
X1241301Y25888D01*
X1240773Y25611D01*
X1240746D01*
X1240718Y25583D01*
X1240635Y25555D01*
X1240524Y25527D01*
X1240385Y25472D01*
X1240190Y25416D01*
X1239996Y25361D01*
X1239774Y25305D01*
X1239247Y25194D01*
X1238608Y25083D01*
X1237914Y25028D01*
X1237109Y25000D01*
X1236748D01*
X1236470Y25028D01*
X1236165Y25055D01*
X1235804Y25083D01*
X1235415Y25111D01*
X1234971Y25194D01*
X1234083Y25361D01*
X1233194Y25611D01*
X1232778Y25777D01*
X1232389Y25999D01*
X1232028Y26221D01*
X1231723Y26471D01*
X1231695Y26499D01*
X1231667Y26555D01*
X1231584Y26638D01*
X1231501Y26749D01*
X1231390Y26888D01*
X1231251Y27054D01*
X1231112Y27276D01*
X1230973Y27499D01*
X1230668Y28054D01*
X1230390Y28720D01*
X1230196Y29442D01*
X1230113Y29858D01*
X1230057Y30275D01*
X1234527Y30580D01*
Y30525D01*
X1234555Y30386D01*
X1234582Y30192D01*
X1234666Y29969D01*
X1234832Y29414D01*
X1234971Y29137D01*
X1235110Y28914D01*
X1235138Y28887D01*
X1235249Y28776D01*
X1235415Y28637D01*
X1235637Y28470D01*
X1235943Y28276D01*
X1236304Y28137D01*
X1236720Y28026D01*
X1237192Y27998D01*
X1237359D01*
X1237525Y28026D01*
X1237775Y28054D01*
X1238025Y28109D01*
X1238275Y28193D01*
X1238525Y28304D01*
X1238747Y28442D01*
X1238774Y28470D01*
X1238830Y28526D01*
X1238913Y28637D01*
X1239024Y28748D01*
X1239135Y28914D01*
X1239219Y29109D01*
X1239274Y29331D01*
X1239302Y29553D01*
Y29581D01*
Y29664D01*
X1239274Y29775D01*
X1239247Y29914D01*
X1239163Y30080D01*
X1239080Y30247D01*
X1238941Y30441D01*
X1238774Y30608D01*
X1238747Y30636D01*
X1238663Y30691D01*
X1238497Y30775D01*
X1238275Y30886D01*
X1237942Y31024D01*
X1237525Y31191D01*
X1237275Y31274D01*
X1236998Y31330D01*
X1236692Y31413D01*
X1236359Y31496D01*
X1236331D01*
X1236220Y31524D01*
X1236054Y31580D01*
X1235860Y31607D01*
X1235610Y31691D01*
X1235304Y31774D01*
X1234999Y31857D01*
X1234666Y31968D01*
X1233916Y32246D01*
X1233194Y32551D01*
X1232528Y32912D01*
X1232223Y33107D01*
X1231945Y33329D01*
Y33356D01*
X1231889Y33384D01*
X1231751Y33523D01*
X1231529Y33773D01*
X1231307Y34134D01*
X1231057Y34550D01*
X1230835Y35050D01*
X1230696Y35605D01*
X1230668Y35910D01*
X1230640Y36244D01*
Y36271D01*
Y36299D01*
Y36438D01*
X1230668Y36688D01*
X1230723Y36965D01*
X1230807Y37299D01*
X1230918Y37687D01*
X1231084Y38076D01*
X1231307Y38465D01*
X1231334Y38520D01*
X1231445Y38631D01*
X1231612Y38826D01*
X1231834Y39075D01*
X1232112Y39325D01*
X1232473Y39603D01*
X1232889Y39853D01*
X1233361Y40103D01*
X1233389D01*
X1233416Y40130D01*
X1233500Y40158D01*
X1233611Y40186D01*
X1233750Y40241D01*
X1233916Y40297D01*
X1234110Y40352D01*
X1234333Y40408D01*
X1234582Y40464D01*
X1234888Y40519D01*
X1235526Y40630D01*
X1236276Y40686D01*
X1237109Y40713D01*
X1237386D01*
X1237581Y40686D01*
D02*
G37*
G36*
X1205127Y40686D02*
X1205682Y40658D01*
X1206293Y40602D01*
X1206931Y40519D01*
X1207514Y40408D01*
X1207792Y40325D01*
X1208042Y40241D01*
X1208070D01*
X1208097Y40214D01*
X1208264Y40158D01*
X1208486Y40047D01*
X1208764Y39908D01*
X1209097Y39714D01*
X1209458Y39464D01*
X1209791Y39159D01*
X1210124Y38826D01*
X1210152Y38770D01*
X1210263Y38659D01*
X1210402Y38437D01*
X1210596Y38159D01*
X1210790Y37826D01*
X1211012Y37410D01*
X1211207Y36938D01*
X1211373Y36410D01*
X1206848Y35605D01*
Y35633D01*
X1206793Y35744D01*
X1206709Y35910D01*
X1206626Y36105D01*
X1206487Y36299D01*
X1206320Y36521D01*
X1206098Y36716D01*
X1205876Y36910D01*
X1205848Y36938D01*
X1205765Y36993D01*
X1205599Y37049D01*
X1205404Y37160D01*
X1205154Y37243D01*
X1204877Y37299D01*
X1204544Y37354D01*
X1204155Y37382D01*
X1204016D01*
X1203905Y37354D01*
X1203628Y37326D01*
X1203267Y37243D01*
X1202878Y37132D01*
X1202462Y36938D01*
X1202045Y36660D01*
X1201684Y36299D01*
X1201656Y36244D01*
X1201545Y36105D01*
X1201407Y35827D01*
X1201240Y35466D01*
X1201046Y34994D01*
X1200990Y34717D01*
X1200907Y34411D01*
X1200851Y34078D01*
X1200796Y33717D01*
X1200768Y33329D01*
Y32912D01*
Y32884D01*
Y32801D01*
Y32690D01*
X1200796Y32524D01*
Y32301D01*
X1200824Y32079D01*
X1200879Y31552D01*
X1200990Y30969D01*
X1201157Y30386D01*
X1201379Y29831D01*
X1201518Y29608D01*
X1201684Y29386D01*
X1201740Y29331D01*
X1201851Y29220D01*
X1202073Y29053D01*
X1202378Y28859D01*
X1202739Y28665D01*
X1203183Y28498D01*
X1203711Y28387D01*
X1204294Y28331D01*
X1204572D01*
X1204766Y28359D01*
X1205016Y28387D01*
X1205266Y28415D01*
X1205793Y28554D01*
X1205821D01*
X1205932Y28609D01*
X1206071Y28665D01*
X1206265Y28748D01*
X1206515Y28831D01*
X1206793Y28970D01*
X1207126Y29137D01*
X1207459Y29331D01*
Y30775D01*
X1204294Y30775D01*
Y33939D01*
X1211568Y33939D01*
Y27443D01*
X1211540Y27415D01*
X1211484Y27387D01*
X1211373Y27304D01*
X1211207Y27221D01*
X1211040Y27110D01*
X1210818Y26971D01*
X1210318Y26666D01*
X1209735Y26360D01*
X1209097Y26027D01*
X1208458Y25722D01*
X1207847Y25500D01*
X1207820D01*
X1207764Y25472D01*
X1207681Y25444D01*
X1207570Y25416D01*
X1207403Y25389D01*
X1207237Y25333D01*
X1207015Y25305D01*
X1206793Y25250D01*
X1206237Y25166D01*
X1205571Y25083D01*
X1204849Y25028D01*
X1204044Y25000D01*
X1203794D01*
X1203600Y25028D01*
X1203350D01*
X1203100Y25055D01*
X1202795Y25083D01*
X1202462Y25111D01*
X1201768Y25222D01*
X1201018Y25389D01*
X1200296Y25611D01*
X1199602Y25916D01*
X1199574D01*
X1199519Y25972D01*
X1199436Y26027D01*
X1199324Y26083D01*
X1199019Y26305D01*
X1198630Y26610D01*
X1198214Y26971D01*
X1197770Y27443D01*
X1197353Y27998D01*
X1196965Y28637D01*
Y28665D01*
X1196937Y28720D01*
X1196881Y28831D01*
X1196826Y28970D01*
X1196742Y29137D01*
X1196687Y29331D01*
X1196604Y29581D01*
X1196520Y29858D01*
X1196409Y30136D01*
X1196326Y30469D01*
X1196187Y31191D01*
X1196076Y31996D01*
X1196049Y32857D01*
Y32884D01*
Y32968D01*
Y33107D01*
X1196076Y33273D01*
Y33495D01*
X1196104Y33745D01*
X1196132Y34023D01*
X1196187Y34328D01*
X1196298Y34994D01*
X1196493Y35716D01*
X1196742Y36438D01*
X1197076Y37160D01*
Y37188D01*
X1197131Y37243D01*
X1197187Y37326D01*
X1197270Y37465D01*
X1197492Y37798D01*
X1197825Y38215D01*
X1198270Y38659D01*
X1198769Y39131D01*
X1199380Y39575D01*
X1200074Y39964D01*
X1200102D01*
X1200157Y39992D01*
X1200241Y40047D01*
X1200352Y40075D01*
X1200518Y40130D01*
X1200713Y40214D01*
X1200935Y40269D01*
X1201184Y40352D01*
X1201462Y40408D01*
X1201795Y40464D01*
X1202128Y40547D01*
X1202489Y40602D01*
X1202906Y40658D01*
X1203322Y40686D01*
X1204266Y40713D01*
X1204905D01*
X1205127Y40686D01*
D02*
G37*
G36*
X1156987D02*
X1157237D01*
X1157515Y40658D01*
X1157820Y40630D01*
X1158153Y40574D01*
X1158903Y40436D01*
X1159652Y40214D01*
X1160374Y39936D01*
X1160707Y39742D01*
X1161040Y39547D01*
X1161068D01*
X1161124Y39492D01*
X1161207Y39436D01*
X1161318Y39325D01*
X1161457Y39214D01*
X1161623Y39048D01*
X1161790Y38881D01*
X1161984Y38659D01*
X1162179Y38437D01*
X1162373Y38159D01*
X1162595Y37882D01*
X1162789Y37548D01*
X1162984Y37188D01*
X1163178Y36827D01*
X1163345Y36410D01*
X1163511Y35966D01*
X1159347Y35050D01*
Y35078D01*
X1159319Y35161D01*
X1159264Y35300D01*
X1159208Y35438D01*
X1159042Y35772D01*
X1158958Y35910D01*
X1158875Y36049D01*
X1158847Y36077D01*
X1158819Y36133D01*
X1158708Y36244D01*
X1158597Y36355D01*
X1158292Y36632D01*
X1157903Y36882D01*
X1157876Y36910D01*
X1157820Y36938D01*
X1157681Y36993D01*
X1157542Y37049D01*
X1157348Y37104D01*
X1157126Y37132D01*
X1156876Y37188D01*
X1156460D01*
X1156376Y37160D01*
X1156071Y37132D01*
X1155710Y37021D01*
X1155321Y36882D01*
X1154905Y36632D01*
X1154516Y36327D01*
X1154350Y36105D01*
X1154183Y35883D01*
X1154155Y35827D01*
X1154072Y35716D01*
X1153989Y35466D01*
X1153878Y35161D01*
X1153739Y34745D01*
X1153656Y34245D01*
X1153572Y33634D01*
X1153545Y32912D01*
Y32884D01*
Y32801D01*
Y32662D01*
Y32496D01*
X1153572Y32301D01*
Y32051D01*
X1153628Y31524D01*
X1153739Y30969D01*
X1153850Y30386D01*
X1154044Y29858D01*
X1154155Y29636D01*
X1154294Y29442D01*
X1154322Y29414D01*
X1154433Y29303D01*
X1154627Y29164D01*
X1154849Y28998D01*
X1155155Y28803D01*
X1155543Y28665D01*
X1155960Y28554D01*
X1156460Y28526D01*
X1156682D01*
X1156932Y28554D01*
X1157237Y28609D01*
X1157570Y28720D01*
X1157903Y28831D01*
X1158236Y29025D01*
X1158514Y29275D01*
X1158542Y29303D01*
X1158625Y29414D01*
X1158764Y29581D01*
X1158903Y29831D01*
X1159069Y30136D01*
X1159236Y30525D01*
X1159402Y30969D01*
X1159541Y31496D01*
X1163650Y30219D01*
Y30192D01*
X1163622Y30136D01*
X1163595Y30053D01*
X1163567Y29942D01*
X1163483Y29608D01*
X1163317Y29220D01*
X1163150Y28748D01*
X1162900Y28276D01*
X1162651Y27804D01*
X1162317Y27332D01*
X1162290Y27276D01*
X1162151Y27138D01*
X1161956Y26943D01*
X1161707Y26666D01*
X1161374Y26388D01*
X1161013Y26110D01*
X1160568Y25833D01*
X1160096Y25583D01*
X1160069D01*
X1160041Y25555D01*
X1159958Y25527D01*
X1159874Y25500D01*
X1159569Y25389D01*
X1159180Y25305D01*
X1158708Y25194D01*
X1158125Y25083D01*
X1157459Y25028D01*
X1156737Y25000D01*
X1156321D01*
X1156099Y25028D01*
X1155877D01*
X1155599Y25055D01*
X1155294Y25083D01*
X1154655Y25166D01*
X1153961Y25305D01*
X1153295Y25472D01*
X1152656Y25694D01*
X1152628D01*
X1152601Y25722D01*
X1152517Y25777D01*
X1152406Y25833D01*
X1152101Y26027D01*
X1151740Y26277D01*
X1151324Y26638D01*
X1150852Y27054D01*
X1150407Y27582D01*
X1149963Y28220D01*
Y28248D01*
X1149908Y28304D01*
X1149852Y28415D01*
X1149797Y28554D01*
X1149713Y28720D01*
X1149602Y28942D01*
X1149491Y29192D01*
X1149408Y29497D01*
X1149297Y29803D01*
X1149186Y30164D01*
X1149103Y30552D01*
X1148992Y30969D01*
X1148936Y31413D01*
X1148880Y31885D01*
X1148825Y32884D01*
Y32940D01*
Y33051D01*
X1148853Y33245D01*
Y33495D01*
X1148880Y33828D01*
X1148936Y34189D01*
X1148992Y34578D01*
X1149075Y35022D01*
X1149186Y35494D01*
X1149325Y35966D01*
X1149464Y36438D01*
X1149658Y36938D01*
X1149908Y37410D01*
X1150158Y37854D01*
X1150463Y38298D01*
X1150824Y38687D01*
X1150852Y38714D01*
X1150907Y38770D01*
X1151046Y38881D01*
X1151185Y38992D01*
X1151407Y39159D01*
X1151657Y39325D01*
X1151934Y39520D01*
X1152295Y39714D01*
X1152656Y39880D01*
X1153100Y40075D01*
X1153572Y40241D01*
X1154072Y40408D01*
X1154627Y40519D01*
X1155210Y40630D01*
X1155849Y40686D01*
X1156515Y40713D01*
X1156793D01*
X1156987Y40686D01*
D02*
G37*
G36*
X1186720Y32024D02*
X1182195D01*
Y36271D01*
X1186720D01*
Y32024D01*
D02*
G37*
G36*
X1229391Y25250D02*
X1224449D01*
X1223700Y27748D01*
X1218369D01*
X1217620Y25250D01*
X1212817D01*
X1218508Y40464D01*
X1223672D01*
X1229391Y25250D01*
D02*
G37*
G36*
X1186720Y25250D02*
X1182195D01*
Y29497D01*
X1186720D01*
Y25250D01*
D02*
G37*
G36*
X1175088Y40436D02*
X1175282D01*
X1175477Y40408D01*
X1175976Y40325D01*
X1176532Y40186D01*
X1177087Y39992D01*
X1177614Y39714D01*
X1178114Y39353D01*
X1178142D01*
X1178170Y39297D01*
X1178308Y39159D01*
X1178503Y38937D01*
X1178725Y38603D01*
X1178919Y38215D01*
X1179113Y37771D01*
X1179252Y37243D01*
X1179308Y36965D01*
Y36660D01*
Y36632D01*
Y36604D01*
Y36438D01*
X1179252Y36188D01*
X1179197Y35883D01*
X1179086Y35522D01*
X1178947Y35133D01*
X1178725Y34745D01*
X1178447Y34356D01*
X1178419Y34328D01*
X1178336Y34245D01*
X1178225Y34134D01*
X1178031Y33995D01*
X1177809Y33828D01*
X1177531Y33662D01*
X1177198Y33495D01*
X1176809Y33329D01*
X1176837D01*
X1176893Y33301D01*
X1176976D01*
X1177087Y33245D01*
X1177365Y33162D01*
X1177725Y33023D01*
X1178114Y32829D01*
X1178531Y32579D01*
X1178891Y32301D01*
X1179225Y31968D01*
X1179252Y31913D01*
X1179336Y31802D01*
X1179474Y31580D01*
X1179613Y31302D01*
X1179752Y30969D01*
X1179891Y30552D01*
X1179974Y30080D01*
X1180002Y29553D01*
Y29497D01*
Y29359D01*
X1179974Y29137D01*
X1179946Y28859D01*
X1179863Y28526D01*
X1179780Y28165D01*
X1179641Y27804D01*
X1179447Y27443D01*
X1179419Y27415D01*
X1179336Y27276D01*
X1179225Y27110D01*
X1179058Y26916D01*
X1178836Y26666D01*
X1178558Y26416D01*
X1178253Y26166D01*
X1177920Y25944D01*
X1177892D01*
X1177809Y25888D01*
X1177670Y25833D01*
X1177476Y25749D01*
X1177226Y25666D01*
X1176920Y25583D01*
X1176559Y25527D01*
X1176143Y25444D01*
X1176087D01*
X1176004Y25416D01*
X1175893D01*
X1175615Y25389D01*
X1175282Y25361D01*
X1174921Y25305D01*
X1174588Y25278D01*
X1174283Y25250D01*
X1165927D01*
Y40464D01*
X1174949D01*
X1175088Y40436D01*
D02*
G37*
G36*
X1142218D02*
X1142440D01*
X1142690Y40408D01*
X1143245Y40325D01*
X1143856Y40158D01*
X1144494Y39936D01*
X1145105Y39658D01*
X1145383Y39464D01*
X1145632Y39242D01*
X1145660D01*
X1145688Y39186D01*
X1145743Y39103D01*
X1145827Y39020D01*
X1146049Y38742D01*
X1146271Y38354D01*
X1146493Y37854D01*
X1146715Y37271D01*
X1146854Y36577D01*
X1146909Y36216D01*
Y35799D01*
Y35772D01*
Y35688D01*
Y35577D01*
X1146882Y35411D01*
Y35216D01*
X1146826Y34994D01*
X1146743Y34495D01*
X1146576Y33912D01*
X1146326Y33301D01*
X1146160Y32995D01*
X1145993Y32718D01*
X1145771Y32440D01*
X1145521Y32190D01*
X1145493D01*
X1145466Y32135D01*
X1145383Y32079D01*
X1145271Y31996D01*
X1145105Y31885D01*
X1144938Y31774D01*
X1144716Y31663D01*
X1144466Y31552D01*
X1144189Y31441D01*
X1143883Y31330D01*
X1143522Y31219D01*
X1143134Y31108D01*
X1142717Y31024D01*
X1142273Y30969D01*
X1141801Y30941D01*
X1141274Y30913D01*
X1138719D01*
Y25250D01*
X1134000D01*
Y40464D01*
X1142051D01*
X1142218Y40436D01*
D02*
G37*
G36*
X1159958Y79076D02*
X1153128D01*
X1152767Y76800D01*
X1152795Y76828D01*
X1152878Y76856D01*
X1153045Y76911D01*
X1153211Y76994D01*
X1153434Y77078D01*
X1153683Y77161D01*
X1154183Y77300D01*
X1154211D01*
X1154294Y77327D01*
X1154433Y77355D01*
X1154627Y77383D01*
X1154822Y77411D01*
X1155044Y77439D01*
X1155544Y77466D01*
X1155766D01*
X1155932Y77439D01*
X1156126D01*
X1156349Y77383D01*
X1156848Y77300D01*
X1157459Y77133D01*
X1158070Y76883D01*
X1158375Y76717D01*
X1158681Y76550D01*
X1158958Y76328D01*
X1159236Y76078D01*
X1159264Y76050D01*
X1159291Y76023D01*
X1159375Y75939D01*
X1159458Y75828D01*
X1159569Y75690D01*
X1159680Y75523D01*
X1159958Y75134D01*
X1160235Y74634D01*
X1160457Y74024D01*
X1160624Y73358D01*
X1160652Y72997D01*
X1160679Y72608D01*
Y72580D01*
Y72552D01*
Y72469D01*
Y72358D01*
X1160652Y72080D01*
X1160596Y71692D01*
X1160485Y71275D01*
X1160374Y70803D01*
X1160180Y70276D01*
X1159930Y69776D01*
Y69748D01*
X1159902Y69721D01*
X1159791Y69554D01*
X1159624Y69304D01*
X1159402Y68999D01*
X1159097Y68666D01*
X1158736Y68333D01*
X1158320Y67999D01*
X1157848Y67694D01*
X1157820D01*
X1157792Y67666D01*
X1157709Y67639D01*
X1157598Y67583D01*
X1157487Y67527D01*
X1157320Y67472D01*
X1156932Y67361D01*
X1156432Y67222D01*
X1155821Y67111D01*
X1155155Y67028D01*
X1154405Y67000D01*
X1154155D01*
X1153878Y67028D01*
X1153517D01*
X1153128Y67056D01*
X1152684Y67111D01*
X1152240Y67194D01*
X1151823Y67278D01*
X1151768Y67305D01*
X1151657Y67333D01*
X1151462Y67389D01*
X1151213Y67500D01*
X1150907Y67611D01*
X1150602Y67750D01*
X1149991Y68110D01*
X1149963Y68138D01*
X1149880Y68222D01*
X1149741Y68333D01*
X1149547Y68499D01*
X1149352Y68666D01*
X1149158Y68888D01*
X1148770Y69387D01*
X1148742Y69415D01*
X1148686Y69526D01*
X1148603Y69665D01*
X1148520Y69887D01*
X1148381Y70137D01*
X1148270Y70443D01*
X1148131Y70803D01*
X1148020Y71192D01*
X1152295Y71664D01*
Y71609D01*
X1152323Y71497D01*
X1152379Y71303D01*
X1152434Y71081D01*
X1152517Y70831D01*
X1152656Y70581D01*
X1152795Y70331D01*
X1152989Y70109D01*
X1153017Y70082D01*
X1153100Y70026D01*
X1153211Y69943D01*
X1153378Y69859D01*
X1153572Y69748D01*
X1153822Y69665D01*
X1154100Y69610D01*
X1154377Y69582D01*
X1154516D01*
X1154683Y69610D01*
X1154905Y69665D01*
X1155127Y69748D01*
X1155377Y69859D01*
X1155627Y70026D01*
X1155849Y70248D01*
X1155877Y70276D01*
X1155932Y70387D01*
X1156043Y70526D01*
X1156154Y70748D01*
X1156237Y71026D01*
X1156349Y71359D01*
X1156404Y71747D01*
X1156432Y72219D01*
Y72247D01*
Y72275D01*
Y72441D01*
X1156404Y72691D01*
X1156349Y72969D01*
X1156293Y73302D01*
X1156182Y73635D01*
X1156043Y73941D01*
X1155849Y74218D01*
X1155821Y74246D01*
X1155738Y74329D01*
X1155627Y74412D01*
X1155432Y74551D01*
X1155210Y74662D01*
X1154960Y74746D01*
X1154627Y74829D01*
X1154294Y74857D01*
X1154183D01*
X1154072Y74829D01*
X1153905D01*
X1153545Y74718D01*
X1153323Y74662D01*
X1153100Y74551D01*
X1153073D01*
X1153017Y74496D01*
X1152934Y74440D01*
X1152823Y74357D01*
X1152684Y74246D01*
X1152517Y74107D01*
X1152351Y73941D01*
X1152157Y73746D01*
X1148575Y74274D01*
X1149908Y82464D01*
X1159958D01*
Y79076D01*
D02*
G37*
G36*
X1257070Y67250D02*
X1252794D01*
Y77355D01*
X1252739Y77327D01*
X1252628Y77217D01*
X1252406Y77078D01*
X1252156Y76883D01*
X1251851Y76689D01*
X1251490Y76467D01*
X1251129Y76245D01*
X1250768Y76050D01*
X1250712Y76023D01*
X1250601Y75967D01*
X1250379Y75884D01*
X1250101Y75773D01*
X1249741Y75634D01*
X1249352Y75467D01*
X1248880Y75329D01*
X1248353Y75162D01*
Y78605D01*
X1248380D01*
X1248436Y78632D01*
X1248547Y78688D01*
X1248713Y78716D01*
X1248880Y78799D01*
X1249102Y78882D01*
X1249574Y79076D01*
X1250101Y79326D01*
X1250657Y79604D01*
X1251212Y79909D01*
X1251684Y80270D01*
X1251712D01*
X1251740Y80326D01*
X1251878Y80437D01*
X1252100Y80659D01*
X1252378Y80964D01*
X1252683Y81298D01*
X1252989Y81714D01*
X1253294Y82186D01*
X1253572Y82713D01*
X1257070D01*
Y67250D01*
D02*
G37*
G36*
X1239968Y82686D02*
X1240190D01*
X1240690Y82658D01*
X1241245Y82575D01*
X1241828Y82491D01*
X1242384Y82353D01*
X1242883Y82186D01*
X1242911D01*
X1242939Y82158D01*
X1243078Y82103D01*
X1243327Y81964D01*
X1243605Y81797D01*
X1243911Y81575D01*
X1244244Y81325D01*
X1244577Y80992D01*
X1244855Y80631D01*
X1244882Y80576D01*
X1244966Y80437D01*
X1245077Y80243D01*
X1245215Y79937D01*
X1245354Y79604D01*
X1245465Y79188D01*
X1245548Y78743D01*
X1245576Y78271D01*
Y78244D01*
Y78216D01*
Y78133D01*
Y78049D01*
X1245521Y77772D01*
X1245465Y77411D01*
X1245382Y77022D01*
X1245215Y76550D01*
X1245021Y76078D01*
X1244743Y75606D01*
X1244716Y75551D01*
X1244577Y75384D01*
X1244382Y75134D01*
X1244077Y74801D01*
X1243661Y74385D01*
X1243411Y74163D01*
X1243161Y73913D01*
X1242856Y73663D01*
X1242522Y73385D01*
X1242161Y73108D01*
X1241773Y72830D01*
X1241717Y72802D01*
X1241579Y72691D01*
X1241356Y72525D01*
X1241079Y72330D01*
X1240801Y72136D01*
X1240496Y71942D01*
X1240246Y71747D01*
X1240052Y71581D01*
X1240024Y71553D01*
X1239968Y71525D01*
X1239885Y71442D01*
X1239774Y71359D01*
X1239469Y71053D01*
X1239052Y70692D01*
X1245687D01*
Y67250D01*
X1232972D01*
Y67278D01*
Y67333D01*
X1233000Y67444D01*
X1233028Y67555D01*
X1233055Y67722D01*
X1233083Y67916D01*
X1233222Y68388D01*
X1233389Y68916D01*
X1233611Y69499D01*
X1233916Y70137D01*
X1234277Y70748D01*
X1234305Y70776D01*
X1234333Y70831D01*
X1234388Y70914D01*
X1234499Y71053D01*
X1234638Y71192D01*
X1234777Y71386D01*
X1234999Y71609D01*
X1235221Y71858D01*
X1235471Y72136D01*
X1235776Y72441D01*
X1236109Y72747D01*
X1236498Y73108D01*
X1236915Y73469D01*
X1237386Y73857D01*
X1237886Y74246D01*
X1238441Y74662D01*
X1238469Y74690D01*
X1238525Y74718D01*
X1238608Y74801D01*
X1238747Y74884D01*
X1239052Y75134D01*
X1239441Y75440D01*
X1239829Y75801D01*
X1240246Y76134D01*
X1240579Y76467D01*
X1240718Y76634D01*
X1240829Y76772D01*
X1240857Y76800D01*
X1240912Y76883D01*
X1240995Y77022D01*
X1241107Y77217D01*
X1241190Y77411D01*
X1241273Y77661D01*
X1241329Y77883D01*
X1241356Y78133D01*
Y78160D01*
Y78244D01*
X1241329Y78383D01*
X1241301Y78549D01*
X1241218Y78743D01*
X1241134Y78938D01*
X1240995Y79132D01*
X1240829Y79326D01*
X1240801Y79354D01*
X1240746Y79410D01*
X1240635Y79493D01*
X1240468Y79576D01*
X1240274Y79660D01*
X1240052Y79743D01*
X1239802Y79798D01*
X1239524Y79826D01*
X1239385D01*
X1239247Y79798D01*
X1239052Y79771D01*
X1238858Y79687D01*
X1238636Y79604D01*
X1238414Y79465D01*
X1238192Y79299D01*
X1238164Y79271D01*
X1238108Y79215D01*
X1238025Y79076D01*
X1237914Y78882D01*
X1237803Y78632D01*
X1237692Y78327D01*
X1237608Y77966D01*
X1237525Y77522D01*
X1233278Y77855D01*
Y77883D01*
Y77938D01*
X1233305Y78022D01*
X1233333Y78160D01*
X1233389Y78466D01*
X1233472Y78882D01*
X1233611Y79326D01*
X1233750Y79771D01*
X1233944Y80215D01*
X1234166Y80631D01*
X1234194Y80687D01*
X1234277Y80798D01*
X1234444Y80964D01*
X1234666Y81187D01*
X1234916Y81436D01*
X1235249Y81686D01*
X1235610Y81936D01*
X1236054Y82158D01*
X1236082D01*
X1236109Y82186D01*
X1236276Y82241D01*
X1236554Y82325D01*
X1236942Y82436D01*
X1237414Y82547D01*
X1237997Y82630D01*
X1238663Y82686D01*
X1239413Y82713D01*
X1239774D01*
X1239968Y82686D01*
D02*
G37*
G36*
X1211595D02*
X1211817D01*
X1212317Y82658D01*
X1212872Y82575D01*
X1213455Y82491D01*
X1214011Y82353D01*
X1214510Y82186D01*
X1214538D01*
X1214566Y82158D01*
X1214705Y82103D01*
X1214955Y81964D01*
X1215232Y81797D01*
X1215538Y81575D01*
X1215871Y81325D01*
X1216204Y80992D01*
X1216481Y80631D01*
X1216509Y80576D01*
X1216592Y80437D01*
X1216704Y80243D01*
X1216842Y79937D01*
X1216981Y79604D01*
X1217092Y79188D01*
X1217176Y78743D01*
X1217203Y78271D01*
Y78244D01*
Y78216D01*
Y78133D01*
Y78049D01*
X1217148Y77772D01*
X1217092Y77411D01*
X1217009Y77022D01*
X1216842Y76550D01*
X1216648Y76078D01*
X1216370Y75606D01*
X1216343Y75551D01*
X1216204Y75384D01*
X1216010Y75134D01*
X1215704Y74801D01*
X1215288Y74385D01*
X1215038Y74163D01*
X1214788Y73913D01*
X1214483Y73663D01*
X1214149Y73385D01*
X1213789Y73108D01*
X1213400Y72830D01*
X1213344Y72802D01*
X1213205Y72691D01*
X1212983Y72525D01*
X1212706Y72330D01*
X1212428Y72136D01*
X1212123Y71942D01*
X1211873Y71747D01*
X1211679Y71581D01*
X1211651Y71553D01*
X1211595Y71525D01*
X1211512Y71442D01*
X1211401Y71359D01*
X1211096Y71053D01*
X1210679Y70692D01*
X1217314D01*
Y67250D01*
X1204599Y67250D01*
Y67278D01*
Y67333D01*
X1204627Y67444D01*
X1204655Y67555D01*
X1204683Y67722D01*
X1204710Y67916D01*
X1204849Y68388D01*
X1205016Y68916D01*
X1205238Y69499D01*
X1205543Y70137D01*
X1205904Y70748D01*
X1205932Y70776D01*
X1205960Y70831D01*
X1206015Y70914D01*
X1206126Y71053D01*
X1206265Y71192D01*
X1206404Y71386D01*
X1206626Y71609D01*
X1206848Y71858D01*
X1207098Y72136D01*
X1207403Y72441D01*
X1207736Y72747D01*
X1208125Y73108D01*
X1208541Y73469D01*
X1209014Y73857D01*
X1209513Y74246D01*
X1210068Y74662D01*
X1210096Y74690D01*
X1210152Y74718D01*
X1210235Y74801D01*
X1210374Y74884D01*
X1210679Y75134D01*
X1211068Y75440D01*
X1211457Y75801D01*
X1211873Y76134D01*
X1212206Y76467D01*
X1212345Y76634D01*
X1212456Y76772D01*
X1212484Y76800D01*
X1212539Y76883D01*
X1212623Y77022D01*
X1212734Y77217D01*
X1212817Y77411D01*
X1212900Y77661D01*
X1212956Y77883D01*
X1212983Y78133D01*
Y78160D01*
Y78244D01*
X1212956Y78383D01*
X1212928Y78549D01*
X1212845Y78743D01*
X1212761Y78938D01*
X1212623Y79132D01*
X1212456Y79326D01*
X1212428Y79354D01*
X1212373Y79410D01*
X1212262Y79493D01*
X1212095Y79576D01*
X1211901Y79660D01*
X1211679Y79743D01*
X1211429Y79798D01*
X1211151Y79826D01*
X1211012D01*
X1210873Y79798D01*
X1210679Y79771D01*
X1210485Y79687D01*
X1210263Y79604D01*
X1210041Y79465D01*
X1209819Y79299D01*
X1209791Y79271D01*
X1209735Y79215D01*
X1209652Y79076D01*
X1209541Y78882D01*
X1209430Y78632D01*
X1209319Y78327D01*
X1209236Y77966D01*
X1209152Y77522D01*
X1204905Y77855D01*
Y77883D01*
Y77938D01*
X1204932Y78021D01*
X1204960Y78160D01*
X1205016Y78466D01*
X1205099Y78882D01*
X1205238Y79326D01*
X1205377Y79771D01*
X1205571Y80215D01*
X1205793Y80631D01*
X1205821Y80687D01*
X1205904Y80798D01*
X1206071Y80964D01*
X1206293Y81186D01*
X1206543Y81436D01*
X1206876Y81686D01*
X1207237Y81936D01*
X1207681Y82158D01*
X1207709D01*
X1207736Y82186D01*
X1207903Y82241D01*
X1208181Y82325D01*
X1208569Y82436D01*
X1209041Y82547D01*
X1209624Y82630D01*
X1210291Y82686D01*
X1211040Y82713D01*
X1211401D01*
X1211595Y82686D01*
D02*
G37*
G36*
X1202767Y67250D02*
X1198242D01*
Y71497D01*
X1202767D01*
Y67250D01*
D02*
G37*
G36*
X1196076Y79576D02*
X1196049Y79549D01*
X1195993Y79521D01*
X1195910Y79437D01*
X1195799Y79326D01*
X1195493Y79021D01*
X1195132Y78632D01*
X1194688Y78188D01*
X1194244Y77633D01*
X1193772Y77050D01*
X1193356Y76439D01*
X1193328Y76411D01*
X1193300Y76356D01*
X1193244Y76245D01*
X1193133Y76078D01*
X1193022Y75884D01*
X1192911Y75662D01*
X1192773Y75384D01*
X1192606Y75107D01*
X1192439Y74773D01*
X1192273Y74412D01*
X1191940Y73635D01*
X1191607Y72775D01*
X1191301Y71858D01*
Y71831D01*
X1191273Y71775D01*
X1191246Y71664D01*
X1191190Y71525D01*
X1191162Y71331D01*
X1191107Y71109D01*
X1191024Y70859D01*
X1190968Y70553D01*
X1190912Y70220D01*
X1190829Y69887D01*
X1190718Y69082D01*
X1190579Y68222D01*
X1190496Y67250D01*
X1186276D01*
Y67305D01*
X1186304Y67416D01*
X1186332Y67611D01*
X1186359Y67861D01*
X1186415Y68194D01*
X1186471Y68555D01*
X1186554Y68971D01*
X1186637Y69415D01*
X1186748Y69915D01*
X1186859Y70415D01*
X1187137Y71442D01*
X1187442Y72497D01*
X1187637Y72997D01*
X1187831Y73468D01*
Y73496D01*
X1187886Y73580D01*
X1187942Y73718D01*
X1188025Y73913D01*
X1188164Y74135D01*
X1188303Y74412D01*
X1188469Y74746D01*
X1188664Y75107D01*
X1188886Y75495D01*
X1189136Y75912D01*
X1189413Y76356D01*
X1189719Y76828D01*
X1190052Y77300D01*
X1190413Y77827D01*
X1190801Y78355D01*
X1191218Y78882D01*
X1183722D01*
Y82464D01*
X1196076D01*
Y79576D01*
D02*
G37*
G36*
X1167315Y67250D02*
X1162789D01*
Y71497D01*
X1167315D01*
Y67250D01*
D02*
G37*
G36*
X1225948Y82686D02*
X1226309Y82658D01*
X1226698Y82630D01*
X1227114Y82547D01*
X1227531Y82464D01*
X1227919Y82325D01*
X1227975Y82297D01*
X1228086Y82269D01*
X1228280Y82158D01*
X1228503Y82047D01*
X1228752Y81908D01*
X1229030Y81742D01*
X1229280Y81547D01*
X1229530Y81325D01*
X1229557Y81298D01*
X1229641Y81214D01*
X1229752Y81103D01*
X1229891Y80937D01*
X1230057Y80770D01*
X1230224Y80548D01*
X1230529Y80048D01*
X1230557Y80020D01*
X1230585Y79937D01*
X1230668Y79798D01*
X1230751Y79604D01*
X1230835Y79382D01*
X1230918Y79104D01*
X1231029Y78827D01*
X1231112Y78493D01*
Y78466D01*
X1231140Y78410D01*
X1231168Y78327D01*
X1231196Y78188D01*
X1231223Y78049D01*
X1231251Y77855D01*
X1231334Y77411D01*
X1231418Y76883D01*
X1231501Y76300D01*
X1231529Y75634D01*
X1231556Y74968D01*
Y74912D01*
Y74773D01*
Y74579D01*
X1231529Y74301D01*
X1231501Y73941D01*
X1231473Y73552D01*
X1231445Y73135D01*
X1231390Y72663D01*
X1231223Y71664D01*
X1230973Y70665D01*
X1230807Y70193D01*
X1230612Y69721D01*
X1230390Y69304D01*
X1230141Y68916D01*
X1230113Y68888D01*
X1230085Y68832D01*
X1230002Y68749D01*
X1229863Y68610D01*
X1229696Y68471D01*
X1229502Y68305D01*
X1229280Y68138D01*
X1229002Y67972D01*
X1228697Y67777D01*
X1228336Y67611D01*
X1227947Y67444D01*
X1227503Y67305D01*
X1227031Y67167D01*
X1226504Y67083D01*
X1225921Y67028D01*
X1225310Y67000D01*
X1224977D01*
X1224810Y67028D01*
X1224644D01*
X1224199Y67083D01*
X1223700Y67139D01*
X1223172Y67250D01*
X1222645Y67416D01*
X1222173Y67611D01*
X1222117Y67639D01*
X1221978Y67722D01*
X1221756Y67861D01*
X1221506Y68055D01*
X1221173Y68305D01*
X1220868Y68610D01*
X1220535Y68971D01*
X1220229Y69387D01*
X1220202Y69415D01*
X1220146Y69554D01*
X1220035Y69721D01*
X1219924Y69998D01*
X1219785Y70304D01*
X1219646Y70692D01*
X1219508Y71164D01*
X1219397Y71664D01*
Y71692D01*
Y71719D01*
X1219369Y71803D01*
X1219341Y71914D01*
X1219313Y72219D01*
X1219258Y72636D01*
X1219202Y73108D01*
X1219147Y73663D01*
X1219119Y74274D01*
X1219091Y74912D01*
Y74968D01*
Y75107D01*
Y75329D01*
X1219119Y75606D01*
X1219147Y75967D01*
X1219174Y76384D01*
X1219230Y76828D01*
X1219286Y77300D01*
X1219480Y78299D01*
X1219757Y79299D01*
X1219924Y79771D01*
X1220146Y80215D01*
X1220368Y80603D01*
X1220646Y80964D01*
X1220674Y80992D01*
X1220729Y81048D01*
X1220812Y81131D01*
X1220951Y81242D01*
X1221118Y81381D01*
X1221312Y81520D01*
X1221562Y81686D01*
X1221840Y81853D01*
X1222145Y81992D01*
X1222506Y82158D01*
X1222895Y82297D01*
X1223311Y82436D01*
X1223783Y82547D01*
X1224283Y82630D01*
X1224838Y82686D01*
X1225421Y82713D01*
X1225671D01*
X1225948Y82686D01*
D02*
G37*
G36*
X1176310Y82686D02*
X1176671Y82658D01*
X1177059Y82630D01*
X1177476Y82547D01*
X1177892Y82464D01*
X1178281Y82325D01*
X1178336Y82297D01*
X1178447Y82269D01*
X1178642Y82158D01*
X1178864Y82047D01*
X1179114Y81908D01*
X1179391Y81742D01*
X1179641Y81547D01*
X1179891Y81325D01*
X1179919Y81298D01*
X1180002Y81214D01*
X1180113Y81103D01*
X1180252Y80937D01*
X1180418Y80770D01*
X1180585Y80548D01*
X1180890Y80048D01*
X1180918Y80020D01*
X1180946Y79937D01*
X1181029Y79798D01*
X1181112Y79604D01*
X1181196Y79382D01*
X1181279Y79104D01*
X1181390Y78827D01*
X1181473Y78493D01*
Y78466D01*
X1181501Y78410D01*
X1181529Y78327D01*
X1181557Y78188D01*
X1181584Y78049D01*
X1181612Y77855D01*
X1181695Y77411D01*
X1181779Y76883D01*
X1181862Y76300D01*
X1181890Y75634D01*
X1181917Y74968D01*
Y74912D01*
Y74773D01*
Y74579D01*
X1181890Y74301D01*
X1181862Y73941D01*
X1181834Y73552D01*
X1181806Y73135D01*
X1181751Y72663D01*
X1181584Y71664D01*
X1181335Y70665D01*
X1181168Y70193D01*
X1180974Y69721D01*
X1180751Y69304D01*
X1180502Y68916D01*
X1180474Y68888D01*
X1180446Y68832D01*
X1180363Y68749D01*
X1180224Y68610D01*
X1180058Y68471D01*
X1179863Y68305D01*
X1179641Y68138D01*
X1179363Y67972D01*
X1179058Y67777D01*
X1178697Y67611D01*
X1178308Y67444D01*
X1177864Y67305D01*
X1177392Y67167D01*
X1176865Y67083D01*
X1176282Y67028D01*
X1175671Y67000D01*
X1175338D01*
X1175171Y67028D01*
X1175005D01*
X1174561Y67083D01*
X1174061Y67139D01*
X1173533Y67250D01*
X1173006Y67416D01*
X1172534Y67611D01*
X1172478Y67639D01*
X1172340Y67722D01*
X1172117Y67861D01*
X1171868Y68055D01*
X1171535Y68305D01*
X1171229Y68610D01*
X1170896Y68971D01*
X1170591Y69387D01*
X1170563Y69415D01*
X1170507Y69554D01*
X1170396Y69721D01*
X1170285Y69998D01*
X1170146Y70304D01*
X1170008Y70692D01*
X1169869Y71164D01*
X1169758Y71664D01*
Y71692D01*
Y71719D01*
X1169730Y71803D01*
X1169702Y71914D01*
X1169674Y72219D01*
X1169619Y72636D01*
X1169563Y73108D01*
X1169508Y73663D01*
X1169480Y74274D01*
X1169452Y74912D01*
Y74968D01*
Y75107D01*
Y75329D01*
X1169480Y75606D01*
X1169508Y75967D01*
X1169536Y76384D01*
X1169591Y76828D01*
X1169647Y77300D01*
X1169841Y78299D01*
X1170119Y79299D01*
X1170285Y79771D01*
X1170507Y80215D01*
X1170729Y80603D01*
X1171007Y80964D01*
X1171035Y80992D01*
X1171090Y81048D01*
X1171174Y81131D01*
X1171312Y81242D01*
X1171479Y81381D01*
X1171673Y81520D01*
X1171923Y81686D01*
X1172201Y81853D01*
X1172506Y81992D01*
X1172867Y82158D01*
X1173256Y82297D01*
X1173672Y82436D01*
X1174144Y82547D01*
X1174644Y82630D01*
X1175199Y82686D01*
X1175782Y82713D01*
X1176032D01*
X1176310Y82686D01*
D02*
G37*
G36*
X1140857D02*
X1141218Y82658D01*
X1141607Y82630D01*
X1142023Y82547D01*
X1142440Y82464D01*
X1142828Y82325D01*
X1142884Y82297D01*
X1142995Y82269D01*
X1143189Y82158D01*
X1143411Y82047D01*
X1143661Y81908D01*
X1143939Y81742D01*
X1144189Y81547D01*
X1144439Y81325D01*
X1144466Y81298D01*
X1144550Y81214D01*
X1144661Y81103D01*
X1144799Y80937D01*
X1144966Y80770D01*
X1145133Y80548D01*
X1145438Y80048D01*
X1145466Y80020D01*
X1145493Y79937D01*
X1145577Y79798D01*
X1145660Y79604D01*
X1145743Y79382D01*
X1145827Y79104D01*
X1145938Y78827D01*
X1146021Y78493D01*
Y78466D01*
X1146049Y78410D01*
X1146077Y78327D01*
X1146104Y78188D01*
X1146132Y78049D01*
X1146160Y77855D01*
X1146243Y77411D01*
X1146326Y76883D01*
X1146410Y76300D01*
X1146438Y75634D01*
X1146465Y74968D01*
Y74912D01*
Y74773D01*
Y74579D01*
X1146438Y74301D01*
X1146410Y73941D01*
X1146382Y73552D01*
X1146354Y73135D01*
X1146299Y72663D01*
X1146132Y71664D01*
X1145882Y70665D01*
X1145716Y70193D01*
X1145521Y69721D01*
X1145299Y69304D01*
X1145049Y68916D01*
X1145022Y68888D01*
X1144994Y68832D01*
X1144911Y68749D01*
X1144772Y68610D01*
X1144605Y68471D01*
X1144411Y68305D01*
X1144189Y68138D01*
X1143911Y67972D01*
X1143606Y67777D01*
X1143245Y67611D01*
X1142856Y67444D01*
X1142412Y67305D01*
X1141940Y67167D01*
X1141413Y67083D01*
X1140829Y67028D01*
X1140219Y67000D01*
X1139886D01*
X1139719Y67028D01*
X1139552D01*
X1139108Y67083D01*
X1138608Y67139D01*
X1138081Y67250D01*
X1137554Y67416D01*
X1137082Y67611D01*
X1137026Y67639D01*
X1136887Y67722D01*
X1136665Y67861D01*
X1136415Y68055D01*
X1136082Y68305D01*
X1135777Y68610D01*
X1135444Y68971D01*
X1135138Y69387D01*
X1135110Y69415D01*
X1135055Y69554D01*
X1134944Y69721D01*
X1134833Y69998D01*
X1134694Y70304D01*
X1134555Y70692D01*
X1134416Y71164D01*
X1134305Y71664D01*
Y71692D01*
Y71719D01*
X1134278Y71803D01*
X1134250Y71914D01*
X1134222Y72219D01*
X1134167Y72636D01*
X1134111Y73108D01*
X1134055Y73663D01*
X1134028Y74274D01*
X1134000Y74912D01*
Y74968D01*
Y75107D01*
Y75329D01*
X1134028Y75606D01*
X1134055Y75967D01*
X1134083Y76384D01*
X1134139Y76828D01*
X1134194Y77300D01*
X1134389Y78299D01*
X1134666Y79299D01*
X1134833Y79771D01*
X1135055Y80215D01*
X1135277Y80603D01*
X1135555Y80964D01*
X1135582Y80992D01*
X1135638Y81048D01*
X1135721Y81131D01*
X1135860Y81242D01*
X1136027Y81381D01*
X1136221Y81520D01*
X1136471Y81686D01*
X1136749Y81853D01*
X1137054Y81992D01*
X1137415Y82158D01*
X1137803Y82297D01*
X1138220Y82436D01*
X1138692Y82547D01*
X1139192Y82630D01*
X1139747Y82686D01*
X1140330Y82713D01*
X1140580D01*
X1140857Y82686D01*
D02*
G37*
G36*
X1141524Y61686D02*
X1141773D01*
X1142051Y61658D01*
X1142356Y61630D01*
X1142690Y61575D01*
X1143411Y61436D01*
X1144161Y61241D01*
X1144855Y60964D01*
X1145188Y60797D01*
X1145494Y60603D01*
X1145521D01*
X1145549Y60547D01*
X1145743Y60409D01*
X1145993Y60131D01*
X1146299Y59770D01*
X1146465Y59548D01*
X1146604Y59298D01*
X1146771Y58993D01*
X1146909Y58687D01*
X1147048Y58354D01*
X1147159Y57993D01*
X1147243Y57577D01*
X1147326Y57160D01*
X1142884Y56911D01*
Y56966D01*
X1142856Y57077D01*
X1142801Y57271D01*
X1142717Y57494D01*
X1142606Y57716D01*
X1142495Y57965D01*
X1142329Y58215D01*
X1142134Y58410D01*
X1142107Y58437D01*
X1142023Y58493D01*
X1141912Y58548D01*
X1141746Y58660D01*
X1141524Y58743D01*
X1141246Y58798D01*
X1140941Y58854D01*
X1140580Y58882D01*
X1140441D01*
X1140302Y58854D01*
X1140108Y58826D01*
X1139691Y58743D01*
X1139497Y58632D01*
X1139330Y58521D01*
X1139303Y58493D01*
X1139275Y58465D01*
X1139136Y58299D01*
X1138997Y58021D01*
X1138969Y57854D01*
X1138942Y57688D01*
Y57660D01*
Y57632D01*
X1138997Y57466D01*
X1139081Y57244D01*
X1139164Y57133D01*
X1139275Y57021D01*
X1139303D01*
X1139358Y56966D01*
X1139441Y56911D01*
X1139608Y56827D01*
X1139802Y56744D01*
X1140080Y56661D01*
X1140413Y56550D01*
X1140829Y56466D01*
X1140857D01*
X1140968Y56438D01*
X1141135Y56411D01*
X1141329Y56355D01*
X1141579Y56300D01*
X1141885Y56216D01*
X1142218Y56133D01*
X1142551Y56050D01*
X1143273Y55855D01*
X1144022Y55606D01*
X1144688Y55356D01*
X1144994Y55245D01*
X1145272Y55106D01*
X1145299D01*
X1145327Y55078D01*
X1145494Y54995D01*
X1145716Y54856D01*
X1146021Y54662D01*
X1146326Y54412D01*
X1146660Y54134D01*
X1146965Y53801D01*
X1147215Y53440D01*
X1147243Y53385D01*
X1147298Y53274D01*
X1147409Y53052D01*
X1147520Y52774D01*
X1147631Y52441D01*
X1147742Y52080D01*
X1147798Y51636D01*
X1147826Y51191D01*
Y51164D01*
Y51136D01*
Y51053D01*
Y50942D01*
X1147770Y50664D01*
X1147714Y50303D01*
X1147631Y49887D01*
X1147465Y49415D01*
X1147270Y48943D01*
X1146993Y48471D01*
X1146965Y48415D01*
X1146854Y48276D01*
X1146660Y48054D01*
X1146410Y47777D01*
X1146077Y47471D01*
X1145688Y47166D01*
X1145244Y46888D01*
X1144716Y46611D01*
X1144688D01*
X1144661Y46583D01*
X1144577Y46555D01*
X1144466Y46527D01*
X1144328Y46472D01*
X1144133Y46416D01*
X1143939Y46361D01*
X1143717Y46305D01*
X1143189Y46194D01*
X1142551Y46083D01*
X1141857Y46028D01*
X1141052Y46000D01*
X1140691D01*
X1140413Y46028D01*
X1140108Y46055D01*
X1139747Y46083D01*
X1139358Y46111D01*
X1138914Y46194D01*
X1138026Y46361D01*
X1137137Y46611D01*
X1136721Y46777D01*
X1136332Y46999D01*
X1135971Y47221D01*
X1135666Y47471D01*
X1135638Y47499D01*
X1135610Y47555D01*
X1135527Y47638D01*
X1135444Y47749D01*
X1135333Y47888D01*
X1135194Y48054D01*
X1135055Y48276D01*
X1134916Y48499D01*
X1134611Y49054D01*
X1134333Y49720D01*
X1134139Y50442D01*
X1134055Y50858D01*
X1134000Y51275D01*
X1138470Y51580D01*
Y51525D01*
X1138497Y51386D01*
X1138525Y51191D01*
X1138608Y50969D01*
X1138775Y50414D01*
X1138914Y50136D01*
X1139053Y49914D01*
X1139081Y49887D01*
X1139192Y49776D01*
X1139358Y49637D01*
X1139580Y49470D01*
X1139886Y49276D01*
X1140247Y49137D01*
X1140663Y49026D01*
X1141135Y48998D01*
X1141301D01*
X1141468Y49026D01*
X1141718Y49054D01*
X1141968Y49109D01*
X1142218Y49193D01*
X1142467Y49304D01*
X1142690Y49442D01*
X1142717Y49470D01*
X1142773Y49526D01*
X1142856Y49637D01*
X1142967Y49748D01*
X1143078Y49914D01*
X1143161Y50109D01*
X1143217Y50331D01*
X1143245Y50553D01*
Y50581D01*
Y50664D01*
X1143217Y50775D01*
X1143189Y50914D01*
X1143106Y51080D01*
X1143023Y51247D01*
X1142884Y51441D01*
X1142717Y51608D01*
X1142690Y51636D01*
X1142606Y51691D01*
X1142440Y51774D01*
X1142218Y51885D01*
X1141885Y52024D01*
X1141468Y52191D01*
X1141218Y52274D01*
X1140941Y52330D01*
X1140635Y52413D01*
X1140302Y52496D01*
X1140274D01*
X1140163Y52524D01*
X1139997Y52579D01*
X1139802Y52607D01*
X1139553Y52691D01*
X1139247Y52774D01*
X1138942Y52857D01*
X1138608Y52968D01*
X1137859Y53246D01*
X1137137Y53551D01*
X1136471Y53912D01*
X1136165Y54106D01*
X1135888Y54329D01*
Y54356D01*
X1135832Y54384D01*
X1135694Y54523D01*
X1135471Y54773D01*
X1135249Y55134D01*
X1134999Y55550D01*
X1134777Y56050D01*
X1134639Y56605D01*
X1134611Y56911D01*
X1134583Y57244D01*
Y57271D01*
Y57299D01*
Y57438D01*
X1134611Y57688D01*
X1134666Y57965D01*
X1134750Y58299D01*
X1134861Y58687D01*
X1135027Y59076D01*
X1135249Y59465D01*
X1135277Y59520D01*
X1135388Y59631D01*
X1135555Y59826D01*
X1135777Y60075D01*
X1136054Y60325D01*
X1136415Y60603D01*
X1136832Y60853D01*
X1137304Y61102D01*
X1137331D01*
X1137359Y61130D01*
X1137442Y61158D01*
X1137554Y61186D01*
X1137692Y61241D01*
X1137859Y61297D01*
X1138053Y61352D01*
X1138275Y61408D01*
X1138525Y61463D01*
X1138831Y61519D01*
X1139469Y61630D01*
X1140219Y61686D01*
X1141052Y61713D01*
X1141329D01*
X1141524Y61686D01*
D02*
G37*
G36*
X1181335Y46250D02*
X1176615D01*
Y52413D01*
X1171451D01*
Y46250D01*
X1166759D01*
Y61463D01*
X1171451D01*
Y56161D01*
X1176615D01*
Y61463D01*
X1181335D01*
Y46250D01*
D02*
G37*
G36*
X1157792Y61686D02*
X1158042D01*
X1158320Y61658D01*
X1158625Y61630D01*
X1158958Y61575D01*
X1159708Y61436D01*
X1160457Y61214D01*
X1161179Y60936D01*
X1161512Y60742D01*
X1161845Y60547D01*
X1161873D01*
X1161929Y60492D01*
X1162012Y60436D01*
X1162123Y60325D01*
X1162262Y60214D01*
X1162429Y60048D01*
X1162595Y59881D01*
X1162789Y59659D01*
X1162984Y59437D01*
X1163178Y59159D01*
X1163400Y58882D01*
X1163595Y58548D01*
X1163789Y58187D01*
X1163983Y57827D01*
X1164150Y57410D01*
X1164316Y56966D01*
X1160152Y56050D01*
Y56078D01*
X1160124Y56161D01*
X1160069Y56300D01*
X1160013Y56438D01*
X1159847Y56772D01*
X1159763Y56911D01*
X1159680Y57049D01*
X1159652Y57077D01*
X1159624Y57133D01*
X1159513Y57244D01*
X1159402Y57355D01*
X1159097Y57632D01*
X1158708Y57882D01*
X1158681Y57910D01*
X1158625Y57938D01*
X1158486Y57993D01*
X1158347Y58049D01*
X1158153Y58104D01*
X1157931Y58132D01*
X1157681Y58187D01*
X1157265D01*
X1157181Y58160D01*
X1156876Y58132D01*
X1156515Y58021D01*
X1156126Y57882D01*
X1155710Y57632D01*
X1155321Y57327D01*
X1155155Y57105D01*
X1154988Y56883D01*
X1154960Y56827D01*
X1154877Y56716D01*
X1154794Y56466D01*
X1154683Y56161D01*
X1154544Y55744D01*
X1154461Y55245D01*
X1154378Y54634D01*
X1154350Y53912D01*
Y53884D01*
Y53801D01*
Y53662D01*
Y53496D01*
X1154378Y53301D01*
Y53052D01*
X1154433Y52524D01*
X1154544Y51969D01*
X1154655Y51386D01*
X1154849Y50858D01*
X1154960Y50636D01*
X1155099Y50442D01*
X1155127Y50414D01*
X1155238Y50303D01*
X1155432Y50164D01*
X1155655Y49998D01*
X1155960Y49803D01*
X1156349Y49665D01*
X1156765Y49553D01*
X1157265Y49526D01*
X1157487D01*
X1157737Y49553D01*
X1158042Y49609D01*
X1158375Y49720D01*
X1158708Y49831D01*
X1159042Y50025D01*
X1159319Y50275D01*
X1159347Y50303D01*
X1159430Y50414D01*
X1159569Y50581D01*
X1159708Y50830D01*
X1159874Y51136D01*
X1160041Y51525D01*
X1160208Y51969D01*
X1160346Y52496D01*
X1164455Y51219D01*
Y51191D01*
X1164427Y51136D01*
X1164400Y51053D01*
X1164372Y50942D01*
X1164289Y50608D01*
X1164122Y50220D01*
X1163955Y49748D01*
X1163706Y49276D01*
X1163456Y48804D01*
X1163123Y48332D01*
X1163095Y48276D01*
X1162956Y48138D01*
X1162762Y47943D01*
X1162512Y47666D01*
X1162179Y47388D01*
X1161818Y47110D01*
X1161374Y46833D01*
X1160902Y46583D01*
X1160874D01*
X1160846Y46555D01*
X1160763Y46527D01*
X1160679Y46500D01*
X1160374Y46389D01*
X1159985Y46305D01*
X1159513Y46194D01*
X1158931Y46083D01*
X1158264Y46028D01*
X1157542Y46000D01*
X1157126D01*
X1156904Y46028D01*
X1156682D01*
X1156404Y46055D01*
X1156099Y46083D01*
X1155460Y46167D01*
X1154766Y46305D01*
X1154100Y46472D01*
X1153461Y46694D01*
X1153434D01*
X1153406Y46722D01*
X1153323Y46777D01*
X1153212Y46833D01*
X1152906Y47027D01*
X1152545Y47277D01*
X1152129Y47638D01*
X1151657Y48054D01*
X1151213Y48582D01*
X1150768Y49220D01*
Y49248D01*
X1150713Y49304D01*
X1150657Y49415D01*
X1150602Y49553D01*
X1150518Y49720D01*
X1150407Y49942D01*
X1150296Y50192D01*
X1150213Y50497D01*
X1150102Y50803D01*
X1149991Y51164D01*
X1149908Y51552D01*
X1149797Y51969D01*
X1149741Y52413D01*
X1149686Y52885D01*
X1149630Y53884D01*
Y53940D01*
Y54051D01*
X1149658Y54245D01*
Y54495D01*
X1149686Y54828D01*
X1149741Y55189D01*
X1149797Y55578D01*
X1149880Y56022D01*
X1149991Y56494D01*
X1150130Y56966D01*
X1150269Y57438D01*
X1150463Y57938D01*
X1150713Y58410D01*
X1150963Y58854D01*
X1151268Y59298D01*
X1151629Y59687D01*
X1151657Y59714D01*
X1151712Y59770D01*
X1151851Y59881D01*
X1151990Y59992D01*
X1152212Y60159D01*
X1152462Y60325D01*
X1152739Y60519D01*
X1153100Y60714D01*
X1153461Y60880D01*
X1153905Y61075D01*
X1154378Y61241D01*
X1154877Y61408D01*
X1155432Y61519D01*
X1156015Y61630D01*
X1156654Y61686D01*
X1157320Y61713D01*
X1157598D01*
X1157792Y61686D01*
D02*
G37*
G36*
X1397963Y57494D02*
X1398296Y57466D01*
X1398685Y57382D01*
X1399129Y57271D01*
X1399573Y57077D01*
X1400017Y56827D01*
X1400434Y56466D01*
X1400489Y56411D01*
X1400600Y56272D01*
X1400739Y56022D01*
X1400934Y55661D01*
X1401128Y55217D01*
X1401267Y54662D01*
X1401378Y53995D01*
X1401433Y53246D01*
Y46250D01*
X1397186D01*
Y52302D01*
Y52358D01*
Y52469D01*
X1397158Y52663D01*
X1397130Y52885D01*
X1397019Y53357D01*
X1396936Y53579D01*
X1396797Y53773D01*
X1396769Y53801D01*
X1396714Y53857D01*
X1396630Y53912D01*
X1396519Y53995D01*
X1396353Y54079D01*
X1396186Y54162D01*
X1395964Y54190D01*
X1395714Y54218D01*
X1395576D01*
X1395437Y54190D01*
X1395270Y54134D01*
X1395076Y54079D01*
X1394854Y53968D01*
X1394659Y53829D01*
X1394465Y53635D01*
X1394437Y53607D01*
X1394382Y53524D01*
X1394326Y53357D01*
X1394243Y53163D01*
X1394132Y52857D01*
X1394076Y52496D01*
X1394021Y52052D01*
X1393993Y51525D01*
Y46250D01*
X1389773D01*
Y57271D01*
X1393688D01*
Y55467D01*
X1393715Y55522D01*
X1393854Y55661D01*
X1394021Y55855D01*
X1394243Y56078D01*
X1394521Y56355D01*
X1394826Y56605D01*
X1395131Y56855D01*
X1395464Y57049D01*
X1395520Y57077D01*
X1395631Y57133D01*
X1395825Y57188D01*
X1396075Y57299D01*
X1396408Y57382D01*
X1396797Y57438D01*
X1397213Y57494D01*
X1397685Y57521D01*
X1397852D01*
X1397963Y57494D01*
D02*
G37*
G36*
X1334138Y57494D02*
X1334471Y57466D01*
X1334859Y57382D01*
X1335304Y57271D01*
X1335748Y57077D01*
X1336192Y56827D01*
X1336609Y56466D01*
X1336664Y56411D01*
X1336775Y56272D01*
X1336914Y56022D01*
X1337108Y55661D01*
X1337303Y55217D01*
X1337441Y54662D01*
X1337552Y53995D01*
X1337608Y53246D01*
Y46250D01*
X1333360D01*
Y52302D01*
Y52358D01*
Y52469D01*
X1333333Y52663D01*
X1333305Y52885D01*
X1333194Y53357D01*
X1333111Y53579D01*
X1332972Y53773D01*
X1332944Y53801D01*
X1332888Y53857D01*
X1332805Y53912D01*
X1332694Y53995D01*
X1332527Y54079D01*
X1332361Y54162D01*
X1332139Y54190D01*
X1331889Y54218D01*
X1331750D01*
X1331611Y54190D01*
X1331445Y54134D01*
X1331250Y54079D01*
X1331028Y53968D01*
X1330834Y53829D01*
X1330640Y53635D01*
X1330612Y53607D01*
X1330556Y53524D01*
X1330501Y53357D01*
X1330418Y53163D01*
X1330307Y52857D01*
X1330251Y52496D01*
X1330195Y52052D01*
X1330168Y51525D01*
Y46250D01*
X1325948D01*
Y57271D01*
X1329862D01*
Y55467D01*
X1329890Y55522D01*
X1330029Y55661D01*
X1330195Y55855D01*
X1330418Y56078D01*
X1330695Y56355D01*
X1331001Y56605D01*
X1331306Y56855D01*
X1331639Y57049D01*
X1331695Y57077D01*
X1331806Y57133D01*
X1332000Y57188D01*
X1332250Y57299D01*
X1332583Y57382D01*
X1332972Y57438D01*
X1333388Y57494D01*
X1333860Y57521D01*
X1334027D01*
X1334138Y57494D01*
D02*
G37*
G36*
X1277392D02*
X1277725Y57466D01*
X1278114Y57382D01*
X1278558Y57271D01*
X1279002Y57077D01*
X1279446Y56827D01*
X1279863Y56466D01*
X1279918Y56411D01*
X1280029Y56272D01*
X1280168Y56022D01*
X1280362Y55661D01*
X1280557Y55217D01*
X1280695Y54662D01*
X1280806Y53995D01*
X1280862Y53246D01*
Y46250D01*
X1276614D01*
Y52302D01*
Y52358D01*
Y52469D01*
X1276587Y52663D01*
X1276559Y52885D01*
X1276448Y53357D01*
X1276365Y53579D01*
X1276226Y53773D01*
X1276198Y53801D01*
X1276143Y53857D01*
X1276059Y53912D01*
X1275948Y53995D01*
X1275782Y54079D01*
X1275615Y54162D01*
X1275393Y54190D01*
X1275143Y54218D01*
X1275004D01*
X1274865Y54190D01*
X1274699Y54134D01*
X1274504Y54079D01*
X1274282Y53968D01*
X1274088Y53829D01*
X1273894Y53635D01*
X1273866Y53607D01*
X1273811Y53524D01*
X1273755Y53357D01*
X1273672Y53163D01*
X1273561Y52857D01*
X1273505Y52496D01*
X1273449Y52052D01*
X1273422Y51525D01*
Y46250D01*
X1269202D01*
Y57271D01*
X1273116D01*
Y55467D01*
X1273144Y55522D01*
X1273283Y55661D01*
X1273449Y55855D01*
X1273672Y56078D01*
X1273949Y56355D01*
X1274255Y56605D01*
X1274560Y56855D01*
X1274893Y57049D01*
X1274949Y57077D01*
X1275060Y57133D01*
X1275254Y57188D01*
X1275504Y57299D01*
X1275837Y57382D01*
X1276226Y57438D01*
X1276642Y57494D01*
X1277114Y57521D01*
X1277281D01*
X1277392Y57494D01*
D02*
G37*
G36*
X1289746D02*
X1289968D01*
X1290218Y57466D01*
X1290523Y57438D01*
X1290829Y57410D01*
X1291495Y57271D01*
X1292161Y57105D01*
X1292828Y56883D01*
X1293133Y56716D01*
X1293411Y56550D01*
X1293438D01*
X1293466Y56494D01*
X1293633Y56383D01*
X1293882Y56133D01*
X1294188Y55828D01*
X1294521Y55439D01*
X1294854Y54939D01*
X1295160Y54384D01*
X1295409Y53718D01*
X1291440Y53190D01*
Y53218D01*
X1291412Y53301D01*
X1291356Y53440D01*
X1291273Y53579D01*
X1291078Y53940D01*
X1290912Y54106D01*
X1290745Y54245D01*
X1290718Y54273D01*
X1290662Y54301D01*
X1290551Y54356D01*
X1290385Y54440D01*
X1290190Y54523D01*
X1289968Y54578D01*
X1289718Y54606D01*
X1289413Y54634D01*
X1289246D01*
X1289052Y54606D01*
X1288802Y54551D01*
X1288524Y54440D01*
X1288247Y54329D01*
X1287969Y54134D01*
X1287719Y53884D01*
X1287692Y53857D01*
X1287608Y53746D01*
X1287525Y53579D01*
X1287414Y53329D01*
X1287275Y52996D01*
X1287192Y52607D01*
X1287109Y52135D01*
X1287081Y51608D01*
Y51580D01*
Y51552D01*
Y51386D01*
X1287109Y51136D01*
X1287164Y50831D01*
X1287247Y50497D01*
X1287358Y50164D01*
X1287497Y49831D01*
X1287719Y49553D01*
X1287747Y49526D01*
X1287830Y49442D01*
X1287969Y49331D01*
X1288163Y49220D01*
X1288413Y49082D01*
X1288691Y48970D01*
X1288996Y48887D01*
X1289357Y48859D01*
X1289496D01*
X1289663Y48887D01*
X1289857Y48915D01*
X1290051Y48970D01*
X1290301Y49026D01*
X1290523Y49137D01*
X1290745Y49276D01*
X1290773Y49304D01*
X1290829Y49359D01*
X1290940Y49442D01*
X1291051Y49609D01*
X1291190Y49776D01*
X1291356Y49998D01*
X1291495Y50275D01*
X1291606Y50581D01*
X1295632Y50136D01*
X1295604Y50081D01*
X1295576Y49914D01*
X1295493Y49692D01*
X1295382Y49387D01*
X1295215Y49026D01*
X1295021Y48665D01*
X1294799Y48276D01*
X1294521Y47916D01*
X1294493Y47888D01*
X1294382Y47777D01*
X1294216Y47610D01*
X1293994Y47388D01*
X1293716Y47166D01*
X1293383Y46944D01*
X1292994Y46694D01*
X1292578Y46500D01*
X1292522Y46472D01*
X1292356Y46416D01*
X1292106Y46333D01*
X1291773Y46250D01*
X1291328Y46167D01*
X1290829Y46083D01*
X1290246Y46028D01*
X1289607Y46000D01*
X1289330D01*
X1288996Y46028D01*
X1288580D01*
X1288108Y46083D01*
X1287636Y46139D01*
X1287136Y46194D01*
X1286664Y46305D01*
X1286609Y46333D01*
X1286470Y46361D01*
X1286248Y46444D01*
X1285970Y46555D01*
X1285665Y46722D01*
X1285332Y46888D01*
X1284999Y47110D01*
X1284666Y47360D01*
X1284638Y47388D01*
X1284527Y47499D01*
X1284388Y47638D01*
X1284194Y47860D01*
X1283971Y48110D01*
X1283777Y48415D01*
X1283555Y48721D01*
X1283361Y49082D01*
X1283333Y49137D01*
X1283277Y49276D01*
X1283222Y49470D01*
X1283139Y49776D01*
X1283027Y50164D01*
X1282972Y50609D01*
X1282917Y51108D01*
X1282889Y51691D01*
Y51719D01*
Y51775D01*
Y51858D01*
Y51969D01*
X1282917Y52302D01*
X1282972Y52691D01*
X1283027Y53135D01*
X1283111Y53607D01*
X1283250Y54079D01*
X1283444Y54523D01*
X1283472Y54551D01*
X1283527Y54662D01*
X1283611Y54828D01*
X1283749Y55023D01*
X1283916Y55245D01*
X1284138Y55495D01*
X1284360Y55772D01*
X1284610Y56022D01*
X1284638Y56050D01*
X1284749Y56133D01*
X1284888Y56244D01*
X1285082Y56383D01*
X1285304Y56550D01*
X1285582Y56716D01*
X1285859Y56855D01*
X1286137Y56994D01*
X1286165D01*
X1286192Y57021D01*
X1286359Y57077D01*
X1286637Y57160D01*
X1286998Y57271D01*
X1287442Y57355D01*
X1287997Y57438D01*
X1288608Y57494D01*
X1289302Y57521D01*
X1289552D01*
X1289746Y57494D01*
D02*
G37*
G36*
X1252184Y46250D02*
X1247742D01*
X1242023Y54634D01*
Y46250D01*
X1237608D01*
Y61463D01*
X1241967D01*
X1247742Y53024D01*
Y61463D01*
X1252184D01*
Y46250D01*
D02*
G37*
G36*
X1188692Y53024D02*
X1184166D01*
Y57271D01*
X1188692D01*
Y53024D01*
D02*
G37*
G36*
X1358541Y53190D02*
Y53163D01*
Y53079D01*
Y52941D01*
Y52774D01*
Y52552D01*
X1358513Y52302D01*
X1358485Y51719D01*
X1358430Y51080D01*
X1358346Y50414D01*
X1358235Y49776D01*
X1358152Y49498D01*
X1358069Y49220D01*
Y49193D01*
X1358041Y49165D01*
X1357985Y48998D01*
X1357847Y48748D01*
X1357652Y48415D01*
X1357402Y48054D01*
X1357097Y47666D01*
X1356681Y47277D01*
X1356209Y46916D01*
X1356181D01*
X1356153Y46888D01*
X1356070Y46833D01*
X1355959Y46777D01*
X1355820Y46694D01*
X1355653Y46638D01*
X1355237Y46472D01*
X1354737Y46278D01*
X1354126Y46139D01*
X1353405Y46028D01*
X1352627Y46000D01*
X1352239D01*
X1352044Y46028D01*
X1351822Y46028D01*
X1351322Y46083D01*
X1350739Y46139D01*
X1350157Y46250D01*
X1349574Y46416D01*
X1349046Y46611D01*
X1348990Y46638D01*
X1348852Y46722D01*
X1348602Y46861D01*
X1348324Y47055D01*
X1348019Y47333D01*
X1347713Y47638D01*
X1347380Y47999D01*
X1347103Y48415D01*
Y48443D01*
X1347075Y48471D01*
X1346992Y48637D01*
X1346881Y48887D01*
X1346742Y49248D01*
X1346603Y49692D01*
X1346464Y50192D01*
X1346353Y50775D01*
X1346298Y51414D01*
X1350795Y52024D01*
Y51969D01*
Y51858D01*
Y51663D01*
X1350823Y51441D01*
X1350878Y50942D01*
X1350906Y50719D01*
X1350962Y50497D01*
Y50470D01*
X1350989Y50414D01*
X1351045Y50331D01*
X1351100Y50220D01*
X1351267Y49970D01*
X1351517Y49748D01*
X1351572Y49720D01*
X1351711Y49665D01*
X1351961Y49581D01*
X1352294Y49553D01*
X1352433D01*
X1352572Y49581D01*
X1352738Y49637D01*
X1352905Y49692D01*
X1353099Y49803D01*
X1353294Y49942D01*
X1353432Y50136D01*
X1353460Y50164D01*
X1353488Y50248D01*
X1353544Y50386D01*
X1353627Y50609D01*
X1353710Y50886D01*
X1353766Y51219D01*
X1353793Y51636D01*
X1353821Y52108D01*
Y61463D01*
X1358541D01*
Y53190D01*
D02*
G37*
G36*
X1382194Y57494D02*
X1382666Y57466D01*
X1383194Y57438D01*
X1383693Y57382D01*
X1384137Y57299D01*
X1384193D01*
X1384332Y57244D01*
X1384554Y57188D01*
X1384832Y57105D01*
X1385137Y56994D01*
X1385442Y56827D01*
X1385775Y56633D01*
X1386081Y56411D01*
X1386109Y56383D01*
X1386164Y56328D01*
X1386275Y56216D01*
X1386386Y56078D01*
X1386525Y55883D01*
X1386664Y55661D01*
X1386803Y55384D01*
X1386914Y55078D01*
X1386941Y55050D01*
X1386969Y54939D01*
X1387025Y54773D01*
X1387080Y54551D01*
X1387136Y54301D01*
X1387191Y54023D01*
X1387247Y53746D01*
Y53440D01*
Y48582D01*
Y48554D01*
Y48443D01*
Y48304D01*
Y48138D01*
X1387275Y47749D01*
X1387302Y47555D01*
X1387330Y47360D01*
Y47333D01*
X1387358Y47277D01*
X1387386Y47194D01*
X1387441Y47055D01*
X1387497Y46888D01*
X1387552Y46694D01*
X1387774Y46250D01*
X1383804D01*
Y46278D01*
X1383777Y46333D01*
X1383665Y46500D01*
X1383554Y46694D01*
X1383471Y46888D01*
Y46944D01*
X1383443Y47055D01*
X1383388Y47277D01*
X1383332Y47582D01*
X1383305Y47555D01*
X1383194Y47444D01*
X1383027Y47305D01*
X1382805Y47138D01*
X1382555Y46944D01*
X1382277Y46777D01*
X1382000Y46583D01*
X1381694Y46444D01*
X1381639Y46416D01*
X1381500Y46389D01*
X1381250Y46305D01*
X1380945Y46222D01*
X1380556Y46139D01*
X1380112Y46083D01*
X1379612Y46028D01*
X1379085Y46000D01*
X1378890D01*
X1378752Y46028D01*
X1378585D01*
X1378391Y46055D01*
X1377946Y46111D01*
X1377475Y46222D01*
X1376975Y46389D01*
X1376475Y46583D01*
X1376059Y46888D01*
X1376003Y46944D01*
X1375892Y47055D01*
X1375753Y47249D01*
X1375559Y47527D01*
X1375365Y47860D01*
X1375226Y48249D01*
X1375115Y48665D01*
X1375059Y49165D01*
Y49193D01*
Y49220D01*
Y49387D01*
X1375087Y49609D01*
X1375143Y49887D01*
X1375226Y50220D01*
X1375365Y50553D01*
X1375531Y50914D01*
X1375781Y51219D01*
X1375809Y51247D01*
X1375920Y51358D01*
X1376114Y51497D01*
X1376392Y51663D01*
X1376781Y51858D01*
X1377252Y52052D01*
X1377808Y52246D01*
X1378141Y52330D01*
X1378502Y52413D01*
X1378530D01*
X1378613Y52441D01*
X1378724Y52469D01*
X1378890Y52496D01*
X1379085Y52524D01*
X1379307Y52580D01*
X1379779Y52663D01*
X1380306Y52774D01*
X1380806Y52885D01*
X1381250Y52996D01*
X1381445Y53052D01*
X1381583Y53079D01*
X1381611D01*
X1381722Y53107D01*
X1381861Y53163D01*
X1382055Y53218D01*
X1382277Y53301D01*
X1382527Y53385D01*
X1383110Y53607D01*
Y53635D01*
Y53718D01*
X1383082Y53857D01*
Y54023D01*
X1382971Y54356D01*
X1382888Y54523D01*
X1382777Y54662D01*
X1382749Y54689D01*
X1382722Y54717D01*
X1382638Y54773D01*
X1382500Y54828D01*
X1382361Y54884D01*
X1382166Y54939D01*
X1381917Y54995D01*
X1381472D01*
X1381278Y54967D01*
X1381056D01*
X1380556Y54856D01*
X1380306Y54773D01*
X1380084Y54662D01*
X1380056D01*
X1380029Y54606D01*
X1379945Y54551D01*
X1379862Y54440D01*
X1379751Y54301D01*
X1379640Y54134D01*
X1379529Y53940D01*
X1379446Y53690D01*
X1375392Y54106D01*
Y54162D01*
X1375448Y54273D01*
X1375476Y54467D01*
X1375559Y54717D01*
X1375642Y54967D01*
X1375753Y55245D01*
X1375892Y55522D01*
X1376031Y55772D01*
X1376059Y55800D01*
X1376114Y55883D01*
X1376225Y55994D01*
X1376364Y56133D01*
X1376531Y56300D01*
X1376753Y56466D01*
X1377003Y56661D01*
X1377280Y56827D01*
X1377308Y56855D01*
X1377391Y56883D01*
X1377530Y56938D01*
X1377697Y57022D01*
X1377919Y57105D01*
X1378196Y57188D01*
X1378502Y57271D01*
X1378863Y57327D01*
X1378918D01*
X1379029Y57355D01*
X1379251Y57382D01*
X1379529Y57438D01*
X1379862Y57466D01*
X1380223Y57494D01*
X1380639Y57521D01*
X1381750D01*
X1382194Y57494D01*
D02*
G37*
G36*
X1301795Y55855D02*
X1301823Y55883D01*
X1301934Y55994D01*
X1302100Y56161D01*
X1302322Y56355D01*
X1302600Y56550D01*
X1302878Y56772D01*
X1303183Y56966D01*
X1303488Y57133D01*
X1303516Y57160D01*
X1303655Y57188D01*
X1303821Y57244D01*
X1304071Y57327D01*
X1304349Y57410D01*
X1304710Y57466D01*
X1305099Y57494D01*
X1305515Y57521D01*
X1305681D01*
X1305793Y57494D01*
X1306126Y57466D01*
X1306514Y57382D01*
X1306931Y57271D01*
X1307403Y57077D01*
X1307819Y56827D01*
X1308236Y56466D01*
X1308291Y56411D01*
X1308402Y56272D01*
X1308541Y56022D01*
X1308735Y55661D01*
X1308930Y55217D01*
X1309068Y54662D01*
X1309180Y53995D01*
X1309235Y53246D01*
Y46250D01*
X1304987D01*
Y52302D01*
Y52358D01*
Y52469D01*
X1304960Y52663D01*
X1304932Y52885D01*
X1304821Y53357D01*
X1304738Y53579D01*
X1304599Y53773D01*
X1304571Y53801D01*
X1304516Y53857D01*
X1304432Y53912D01*
X1304321Y53995D01*
X1304155Y54079D01*
X1303988Y54162D01*
X1303766Y54190D01*
X1303516Y54218D01*
X1303377D01*
X1303238Y54190D01*
X1303072Y54134D01*
X1302878Y54079D01*
X1302655Y53968D01*
X1302461Y53829D01*
X1302267Y53635D01*
X1302239Y53607D01*
X1302183Y53524D01*
X1302128Y53357D01*
X1302045Y53163D01*
X1301934Y52857D01*
X1301878Y52496D01*
X1301823Y52052D01*
X1301795Y51525D01*
Y46250D01*
X1297575D01*
Y61463D01*
X1301795D01*
Y55855D01*
D02*
G37*
G36*
X1261623Y57494D02*
X1262095Y57466D01*
X1262622Y57438D01*
X1263122Y57382D01*
X1263566Y57299D01*
X1263622D01*
X1263761Y57244D01*
X1263983Y57188D01*
X1264260Y57105D01*
X1264566Y56994D01*
X1264871Y56827D01*
X1265204Y56633D01*
X1265510Y56411D01*
X1265537Y56383D01*
X1265593Y56328D01*
X1265704Y56216D01*
X1265815Y56078D01*
X1265954Y55883D01*
X1266093Y55661D01*
X1266231Y55384D01*
X1266342Y55078D01*
X1266370Y55050D01*
X1266398Y54939D01*
X1266453Y54773D01*
X1266509Y54551D01*
X1266564Y54301D01*
X1266620Y54023D01*
X1266676Y53746D01*
Y53440D01*
Y48582D01*
Y48554D01*
Y48443D01*
Y48304D01*
Y48138D01*
X1266703Y47749D01*
X1266731Y47555D01*
X1266759Y47360D01*
Y47333D01*
X1266787Y47277D01*
X1266814Y47194D01*
X1266870Y47055D01*
X1266925Y46888D01*
X1266981Y46694D01*
X1267203Y46250D01*
X1263233D01*
Y46278D01*
X1263205Y46333D01*
X1263094Y46500D01*
X1262983Y46694D01*
X1262900Y46888D01*
Y46944D01*
X1262872Y47055D01*
X1262817Y47277D01*
X1262761Y47582D01*
X1262733Y47555D01*
X1262622Y47444D01*
X1262456Y47305D01*
X1262234Y47138D01*
X1261984Y46944D01*
X1261706Y46777D01*
X1261429Y46583D01*
X1261123Y46444D01*
X1261068Y46416D01*
X1260929Y46389D01*
X1260679Y46305D01*
X1260374Y46222D01*
X1259985Y46139D01*
X1259541Y46083D01*
X1259041Y46028D01*
X1258513Y46000D01*
X1258319D01*
X1258180Y46028D01*
X1258014D01*
X1257819Y46055D01*
X1257375Y46111D01*
X1256903Y46222D01*
X1256404Y46389D01*
X1255904Y46583D01*
X1255487Y46888D01*
X1255432Y46944D01*
X1255321Y47055D01*
X1255182Y47249D01*
X1254988Y47527D01*
X1254793Y47860D01*
X1254654Y48249D01*
X1254544Y48665D01*
X1254488Y49165D01*
Y49193D01*
Y49220D01*
Y49387D01*
X1254516Y49609D01*
X1254571Y49887D01*
X1254654Y50220D01*
X1254793Y50553D01*
X1254960Y50914D01*
X1255210Y51219D01*
X1255238Y51247D01*
X1255349Y51358D01*
X1255543Y51497D01*
X1255821Y51663D01*
X1256209Y51858D01*
X1256681Y52052D01*
X1257236Y52246D01*
X1257570Y52330D01*
X1257931Y52413D01*
X1257958D01*
X1258042Y52441D01*
X1258153Y52469D01*
X1258319Y52496D01*
X1258513Y52524D01*
X1258736Y52580D01*
X1259208Y52663D01*
X1259735Y52774D01*
X1260235Y52885D01*
X1260679Y52996D01*
X1260873Y53052D01*
X1261012Y53079D01*
X1261040D01*
X1261151Y53107D01*
X1261290Y53163D01*
X1261484Y53218D01*
X1261706Y53301D01*
X1261956Y53385D01*
X1262539Y53607D01*
Y53635D01*
Y53718D01*
X1262511Y53857D01*
Y54023D01*
X1262400Y54356D01*
X1262317Y54523D01*
X1262206Y54662D01*
X1262178Y54689D01*
X1262150Y54717D01*
X1262067Y54773D01*
X1261928Y54828D01*
X1261789Y54884D01*
X1261595Y54939D01*
X1261345Y54995D01*
X1260901D01*
X1260707Y54967D01*
X1260485D01*
X1259985Y54856D01*
X1259735Y54773D01*
X1259513Y54662D01*
X1259485D01*
X1259457Y54606D01*
X1259374Y54551D01*
X1259291Y54440D01*
X1259180Y54301D01*
X1259069Y54134D01*
X1258958Y53940D01*
X1258874Y53690D01*
X1254821Y54106D01*
Y54162D01*
X1254877Y54273D01*
X1254904Y54467D01*
X1254988Y54717D01*
X1255071Y54967D01*
X1255182Y55245D01*
X1255321Y55522D01*
X1255460Y55772D01*
X1255487Y55800D01*
X1255543Y55883D01*
X1255654Y55994D01*
X1255793Y56133D01*
X1255959Y56300D01*
X1256181Y56466D01*
X1256431Y56661D01*
X1256709Y56827D01*
X1256737Y56855D01*
X1256820Y56883D01*
X1256959Y56938D01*
X1257125Y57021D01*
X1257347Y57105D01*
X1257625Y57188D01*
X1257931Y57271D01*
X1258291Y57327D01*
X1258347D01*
X1258458Y57355D01*
X1258680Y57382D01*
X1258958Y57438D01*
X1259291Y57466D01*
X1259652Y57494D01*
X1260068Y57521D01*
X1261179D01*
X1261623Y57494D01*
D02*
G37*
G36*
X1221507Y61436D02*
X1221701D01*
X1222173Y61380D01*
X1222728Y61325D01*
X1223283Y61214D01*
X1223839Y61075D01*
X1224338Y60880D01*
X1224366D01*
X1224394Y60853D01*
X1224560Y60769D01*
X1224782Y60658D01*
X1225088Y60464D01*
X1225421Y60242D01*
X1225782Y59964D01*
X1226115Y59631D01*
X1226448Y59270D01*
X1226476Y59215D01*
X1226587Y59076D01*
X1226726Y58882D01*
X1226920Y58576D01*
X1227114Y58215D01*
X1227309Y57799D01*
X1227475Y57327D01*
X1227642Y56827D01*
Y56799D01*
X1227670Y56772D01*
Y56688D01*
X1227697Y56577D01*
X1227753Y56300D01*
X1227836Y55939D01*
X1227919Y55495D01*
X1227975Y54995D01*
X1228003Y54467D01*
X1228031Y53884D01*
Y53857D01*
Y53773D01*
Y53662D01*
Y53496D01*
X1228003Y53274D01*
Y53052D01*
X1227947Y52496D01*
X1227892Y51913D01*
X1227781Y51275D01*
X1227642Y50664D01*
X1227448Y50109D01*
Y50081D01*
X1227420Y50053D01*
X1227337Y49887D01*
X1227225Y49637D01*
X1227059Y49331D01*
X1226837Y48970D01*
X1226559Y48610D01*
X1226254Y48221D01*
X1225893Y47860D01*
X1225837Y47832D01*
X1225726Y47721D01*
X1225532Y47555D01*
X1225282Y47360D01*
X1224949Y47166D01*
X1224616Y46972D01*
X1224227Y46777D01*
X1223811Y46638D01*
X1223783D01*
X1223755Y46611D01*
X1223672D01*
X1223561Y46583D01*
X1223255Y46527D01*
X1222867Y46444D01*
X1222450Y46361D01*
X1221951Y46305D01*
X1221479Y46278D01*
X1220979Y46250D01*
X1214011D01*
Y61463D01*
X1221312D01*
X1221507Y61436D01*
D02*
G37*
G36*
X1211817Y57716D02*
X1207015D01*
Y46250D01*
X1202323Y46250D01*
Y57716D01*
X1197520D01*
Y61463D01*
X1211817Y61463D01*
Y57716D01*
D02*
G37*
G36*
X1188692Y46250D02*
X1184166D01*
Y50497D01*
X1188692D01*
Y46250D01*
D02*
G37*
G36*
X1367675Y57494D02*
X1367924D01*
X1368452Y57438D01*
X1369035Y57355D01*
X1369646Y57216D01*
X1370256Y57049D01*
X1370812Y56800D01*
X1370839D01*
X1370867Y56772D01*
X1371034Y56661D01*
X1371284Y56494D01*
X1371589Y56272D01*
X1371950Y55967D01*
X1372283Y55606D01*
X1372616Y55189D01*
X1372921Y54717D01*
Y54689D01*
X1372949Y54662D01*
X1372977Y54578D01*
X1373033Y54467D01*
X1373088Y54329D01*
X1373144Y54162D01*
X1373282Y53773D01*
X1373421Y53246D01*
X1373532Y52663D01*
X1373616Y51969D01*
X1373643Y51192D01*
Y50719D01*
X1365176D01*
Y50664D01*
X1365204Y50553D01*
X1365231Y50359D01*
X1365287Y50136D01*
X1365453Y49637D01*
X1365565Y49415D01*
X1365703Y49193D01*
X1365731Y49165D01*
X1365814Y49082D01*
X1365953Y48970D01*
X1366147Y48832D01*
X1366370Y48693D01*
X1366647Y48582D01*
X1366953Y48499D01*
X1367314Y48471D01*
X1367425D01*
X1367536Y48499D01*
X1367702D01*
X1368063Y48610D01*
X1368257Y48665D01*
X1368480Y48776D01*
X1368507D01*
X1368535Y48804D01*
X1368702Y48943D01*
X1368813Y49026D01*
X1368924Y49165D01*
X1369090Y49304D01*
X1369229Y49498D01*
X1373394Y49109D01*
Y49082D01*
X1373338Y49026D01*
X1373282Y48943D01*
X1373227Y48832D01*
X1373005Y48554D01*
X1372727Y48193D01*
X1372394Y47804D01*
X1372005Y47388D01*
X1371561Y47027D01*
X1371061Y46722D01*
X1371034D01*
X1371006Y46694D01*
X1370923Y46666D01*
X1370812Y46611D01*
X1370673Y46555D01*
X1370506Y46500D01*
X1370312Y46416D01*
X1370090Y46361D01*
X1369812Y46305D01*
X1369534Y46222D01*
X1369229Y46167D01*
X1368868Y46111D01*
X1368507Y46055D01*
X1368091Y46028D01*
X1367675Y46000D01*
X1366842D01*
X1366647Y46028D01*
X1366453D01*
X1365953Y46083D01*
X1365398Y46139D01*
X1364815Y46250D01*
X1364260Y46416D01*
X1363760Y46611D01*
X1363705Y46638D01*
X1363566Y46722D01*
X1363316Y46888D01*
X1363038Y47083D01*
X1362705Y47360D01*
X1362344Y47694D01*
X1362011Y48082D01*
X1361678Y48554D01*
Y48582D01*
X1361650Y48610D01*
X1361595Y48693D01*
X1361567Y48804D01*
X1361428Y49082D01*
X1361289Y49470D01*
X1361123Y49914D01*
X1361012Y50470D01*
X1360901Y51053D01*
X1360873Y51719D01*
Y51747D01*
Y51830D01*
Y51969D01*
X1360901Y52135D01*
X1360928Y52358D01*
X1360956Y52635D01*
X1361012Y52913D01*
X1361067Y53218D01*
X1361261Y53884D01*
X1361400Y54218D01*
X1361567Y54578D01*
X1361761Y54939D01*
X1361983Y55272D01*
X1362233Y55606D01*
X1362511Y55911D01*
X1362538Y55939D01*
X1362594Y55994D01*
X1362677Y56050D01*
X1362816Y56161D01*
X1362983Y56272D01*
X1363205Y56411D01*
X1363427Y56577D01*
X1363705Y56716D01*
X1364010Y56855D01*
X1364371Y57022D01*
X1364732Y57160D01*
X1365148Y57271D01*
X1365592Y57382D01*
X1366064Y57466D01*
X1366564Y57494D01*
X1367091Y57521D01*
X1367480D01*
X1367675Y57494D01*
D02*
G37*
G36*
X1318036Y57494D02*
X1318286D01*
X1318813Y57438D01*
X1319396Y57355D01*
X1320007Y57216D01*
X1320618Y57049D01*
X1321173Y56799D01*
X1321201D01*
X1321228Y56772D01*
X1321395Y56661D01*
X1321645Y56494D01*
X1321950Y56272D01*
X1322311Y55967D01*
X1322644Y55606D01*
X1322977Y55189D01*
X1323283Y54717D01*
Y54689D01*
X1323311Y54662D01*
X1323338Y54578D01*
X1323394Y54467D01*
X1323449Y54329D01*
X1323505Y54162D01*
X1323644Y53773D01*
X1323782Y53246D01*
X1323893Y52663D01*
X1323977Y51969D01*
X1324005Y51192D01*
Y50719D01*
X1315537D01*
Y50664D01*
X1315565Y50553D01*
X1315593Y50359D01*
X1315648Y50136D01*
X1315815Y49637D01*
X1315926Y49415D01*
X1316064Y49193D01*
X1316092Y49165D01*
X1316176Y49082D01*
X1316314Y48970D01*
X1316509Y48832D01*
X1316731Y48693D01*
X1317008Y48582D01*
X1317314Y48499D01*
X1317675Y48471D01*
X1317786D01*
X1317897Y48499D01*
X1318063D01*
X1318424Y48610D01*
X1318619Y48665D01*
X1318841Y48776D01*
X1318869D01*
X1318896Y48804D01*
X1319063Y48943D01*
X1319174Y49026D01*
X1319285Y49165D01*
X1319451Y49304D01*
X1319590Y49498D01*
X1323755Y49109D01*
Y49082D01*
X1323699Y49026D01*
X1323644Y48943D01*
X1323588Y48832D01*
X1323366Y48554D01*
X1323088Y48193D01*
X1322755Y47804D01*
X1322366Y47388D01*
X1321922Y47027D01*
X1321423Y46722D01*
X1321395D01*
X1321367Y46694D01*
X1321284Y46666D01*
X1321173Y46611D01*
X1321034Y46555D01*
X1320867Y46500D01*
X1320673Y46416D01*
X1320451Y46361D01*
X1320173Y46305D01*
X1319896Y46222D01*
X1319590Y46167D01*
X1319229Y46111D01*
X1318869Y46055D01*
X1318452Y46028D01*
X1318036Y46000D01*
X1317203D01*
X1317008Y46028D01*
X1316814D01*
X1316314Y46083D01*
X1315759Y46139D01*
X1315176Y46250D01*
X1314621Y46416D01*
X1314121Y46611D01*
X1314066Y46638D01*
X1313927Y46722D01*
X1313677Y46888D01*
X1313399Y47083D01*
X1313066Y47360D01*
X1312705Y47693D01*
X1312372Y48082D01*
X1312039Y48554D01*
Y48582D01*
X1312011Y48610D01*
X1311956Y48693D01*
X1311928Y48804D01*
X1311789Y49082D01*
X1311650Y49470D01*
X1311484Y49914D01*
X1311373Y50470D01*
X1311262Y51053D01*
X1311234Y51719D01*
Y51747D01*
Y51830D01*
Y51969D01*
X1311262Y52135D01*
X1311289Y52358D01*
X1311317Y52635D01*
X1311373Y52913D01*
X1311428Y53218D01*
X1311623Y53884D01*
X1311761Y54218D01*
X1311928Y54578D01*
X1312122Y54939D01*
X1312344Y55272D01*
X1312594Y55606D01*
X1312872Y55911D01*
X1312900Y55939D01*
X1312955Y55994D01*
X1313038Y56050D01*
X1313177Y56161D01*
X1313344Y56272D01*
X1313566Y56411D01*
X1313788Y56577D01*
X1314066Y56716D01*
X1314371Y56855D01*
X1314732Y57021D01*
X1315093Y57160D01*
X1315509Y57271D01*
X1315954Y57382D01*
X1316425Y57466D01*
X1316925Y57494D01*
X1317453Y57521D01*
X1317841D01*
X1318036Y57494D01*
D02*
G37*
%LPC*%
G36*
X1283638Y99494D02*
X1281973Y94052D01*
X1285304D01*
X1283638Y99494D01*
D02*
G37*
G36*
X1249907Y100382D02*
X1248575D01*
Y96995D01*
X1249935D01*
X1250185Y97023D01*
X1250462Y97051D01*
X1250768Y97106D01*
X1251101Y97189D01*
X1251379Y97300D01*
X1251628Y97439D01*
X1251656Y97467D01*
X1251712Y97522D01*
X1251795Y97633D01*
X1251906Y97772D01*
X1252017Y97939D01*
X1252100Y98161D01*
X1252156Y98383D01*
X1252184Y98661D01*
Y98688D01*
Y98772D01*
X1252156Y98911D01*
X1252128Y99077D01*
X1252073Y99271D01*
X1251962Y99494D01*
X1251851Y99688D01*
X1251684Y99882D01*
X1251656Y99910D01*
X1251601Y99965D01*
X1251462Y100049D01*
X1251295Y100132D01*
X1251046Y100215D01*
X1250740Y100299D01*
X1250351Y100354D01*
X1249907Y100382D01*
D02*
G37*
G36*
X1140052Y100382D02*
X1138720D01*
Y96995D01*
X1140080D01*
X1140330Y97023D01*
X1140607Y97051D01*
X1140913Y97106D01*
X1141246Y97189D01*
X1141524Y97300D01*
X1141773Y97439D01*
X1141801Y97467D01*
X1141857Y97522D01*
X1141940Y97633D01*
X1142051Y97772D01*
X1142162Y97939D01*
X1142245Y98161D01*
X1142301Y98383D01*
X1142329Y98661D01*
Y98688D01*
Y98772D01*
X1142301Y98911D01*
X1142273Y99077D01*
X1142218Y99271D01*
X1142107Y99494D01*
X1141995Y99688D01*
X1141829Y99882D01*
X1141801Y99910D01*
X1141746Y99965D01*
X1141607Y100049D01*
X1141440Y100132D01*
X1141190Y100215D01*
X1140885Y100299D01*
X1140496Y100354D01*
X1140052Y100382D01*
D02*
G37*
G36*
X1156626Y100160D02*
X1156571D01*
X1156404Y100132D01*
X1156126Y100104D01*
X1155821Y100021D01*
X1155460Y99910D01*
X1155071Y99716D01*
X1154683Y99466D01*
X1154350Y99133D01*
X1154322Y99077D01*
X1154211Y98938D01*
X1154072Y98688D01*
X1153933Y98355D01*
X1153850Y98133D01*
X1153767Y97883D01*
X1153683Y97606D01*
X1153628Y97328D01*
X1153572Y96995D01*
X1153517Y96634D01*
X1153489Y96245D01*
Y95829D01*
Y95801D01*
Y95718D01*
Y95607D01*
X1153517Y95468D01*
Y95274D01*
X1153545Y95052D01*
X1153600Y94552D01*
X1153683Y94024D01*
X1153850Y93469D01*
X1154044Y92942D01*
X1154183Y92720D01*
X1154322Y92525D01*
X1154350Y92470D01*
X1154489Y92359D01*
X1154683Y92220D01*
X1154933Y92025D01*
X1155266Y91831D01*
X1155682Y91692D01*
X1156154Y91581D01*
X1156682Y91526D01*
X1156821D01*
X1156932Y91553D01*
X1157209Y91581D01*
X1157542Y91637D01*
X1157903Y91776D01*
X1158292Y91942D01*
X1158681Y92164D01*
X1159014Y92498D01*
X1159042Y92553D01*
X1159153Y92692D01*
X1159208Y92803D01*
X1159291Y92942D01*
X1159375Y93108D01*
X1159458Y93303D01*
X1159513Y93525D01*
X1159597Y93774D01*
X1159680Y94080D01*
X1159736Y94385D01*
X1159791Y94746D01*
X1159847Y95135D01*
X1159874Y95551D01*
Y96023D01*
Y96051D01*
Y96107D01*
Y96218D01*
Y96384D01*
X1159847Y96551D01*
X1159819Y96745D01*
X1159763Y97217D01*
X1159652Y97717D01*
X1159513Y98244D01*
X1159291Y98744D01*
X1158986Y99160D01*
X1158958Y99216D01*
X1158819Y99327D01*
X1158625Y99466D01*
X1158375Y99660D01*
X1158042Y99854D01*
X1157626Y99993D01*
X1157154Y100104D01*
X1156626Y100160D01*
D02*
G37*
G36*
X1221034Y36493D02*
X1219369Y31052D01*
X1222700D01*
X1221034Y36493D01*
D02*
G37*
G36*
X1172756Y37382D02*
X1170674D01*
Y34495D01*
X1172895D01*
X1173089Y34522D01*
X1173339Y34550D01*
X1173839Y34661D01*
X1174061Y34745D01*
X1174255Y34855D01*
X1174283Y34883D01*
X1174338Y34939D01*
X1174394Y35022D01*
X1174477Y35133D01*
X1174560Y35300D01*
X1174644Y35494D01*
X1174672Y35716D01*
X1174699Y35966D01*
Y35994D01*
Y36077D01*
X1174672Y36188D01*
X1174644Y36355D01*
X1174588Y36521D01*
X1174505Y36688D01*
X1174394Y36854D01*
X1174255Y36993D01*
X1174227Y37021D01*
X1174172Y37049D01*
X1174061Y37104D01*
X1173894Y37188D01*
X1173700Y37271D01*
X1173450Y37326D01*
X1173117Y37354D01*
X1172756Y37382D01*
D02*
G37*
G36*
X1173034Y31607D02*
X1170674D01*
Y28526D01*
X1173256D01*
X1173478Y28554D01*
X1173728Y28581D01*
X1174033Y28637D01*
X1174311Y28692D01*
X1174560Y28803D01*
X1174783Y28942D01*
X1174810Y28970D01*
X1174866Y29025D01*
X1174949Y29109D01*
X1175033Y29248D01*
X1175116Y29414D01*
X1175199Y29636D01*
X1175255Y29858D01*
X1175282Y30108D01*
Y30136D01*
Y30219D01*
X1175255Y30330D01*
X1175227Y30497D01*
X1175171Y30663D01*
X1175060Y30858D01*
X1174949Y31024D01*
X1174783Y31191D01*
X1174755Y31219D01*
X1174699Y31246D01*
X1174560Y31330D01*
X1174366Y31413D01*
X1174144Y31469D01*
X1173839Y31552D01*
X1173478Y31580D01*
X1173034Y31607D01*
D02*
G37*
G36*
X1140052Y37382D02*
X1138719D01*
Y33995D01*
X1140080D01*
X1140330Y34023D01*
X1140607Y34050D01*
X1140913Y34106D01*
X1141246Y34189D01*
X1141524Y34300D01*
X1141773Y34439D01*
X1141801Y34467D01*
X1141857Y34522D01*
X1141940Y34633D01*
X1142051Y34772D01*
X1142162Y34939D01*
X1142245Y35161D01*
X1142301Y35383D01*
X1142329Y35661D01*
Y35688D01*
Y35772D01*
X1142301Y35910D01*
X1142273Y36077D01*
X1142218Y36271D01*
X1142106Y36493D01*
X1141995Y36688D01*
X1141829Y36882D01*
X1141801Y36910D01*
X1141746Y36965D01*
X1141607Y37049D01*
X1141440Y37132D01*
X1141190Y37215D01*
X1140885Y37299D01*
X1140496Y37354D01*
X1140052Y37382D01*
D02*
G37*
G36*
X1225282Y79909D02*
X1225227D01*
X1225116Y79882D01*
X1224921Y79854D01*
X1224699Y79771D01*
X1224449Y79660D01*
X1224199Y79465D01*
X1223950Y79188D01*
X1223755Y78827D01*
X1223727Y78771D01*
X1223700Y78716D01*
X1223672Y78605D01*
X1223644Y78493D01*
X1223616Y78355D01*
X1223561Y78160D01*
X1223533Y77938D01*
X1223478Y77688D01*
X1223422Y77411D01*
X1223394Y77078D01*
X1223366Y76744D01*
X1223339Y76328D01*
X1223311Y75912D01*
X1223283Y75440D01*
Y74912D01*
Y74884D01*
Y74773D01*
Y74635D01*
Y74440D01*
X1223311Y74218D01*
Y73941D01*
X1223339Y73330D01*
X1223394Y72663D01*
X1223505Y71997D01*
X1223561Y71692D01*
X1223616Y71414D01*
X1223700Y71164D01*
X1223783Y70942D01*
X1223811Y70887D01*
X1223894Y70776D01*
X1224005Y70609D01*
X1224172Y70415D01*
X1224394Y70220D01*
X1224644Y70054D01*
X1224949Y69943D01*
X1225282Y69887D01*
X1225393D01*
X1225532Y69915D01*
X1225671Y69943D01*
X1225865Y69998D01*
X1226032Y70082D01*
X1226226Y70193D01*
X1226420Y70331D01*
X1226448Y70359D01*
X1226504Y70415D01*
X1226587Y70526D01*
X1226698Y70665D01*
X1226809Y70887D01*
X1226920Y71109D01*
X1227031Y71414D01*
X1227114Y71747D01*
Y71803D01*
X1227142Y71942D01*
X1227198Y72164D01*
X1227253Y72497D01*
X1227281Y72913D01*
X1227337Y73441D01*
X1227364Y74052D01*
Y74773D01*
Y74801D01*
Y74912D01*
Y75051D01*
Y75273D01*
X1227337Y75495D01*
Y75801D01*
X1227309Y76411D01*
X1227225Y77105D01*
X1227142Y77772D01*
X1227087Y78077D01*
X1227003Y78383D01*
X1226920Y78632D01*
X1226837Y78854D01*
X1226809Y78910D01*
X1226726Y79021D01*
X1226615Y79188D01*
X1226448Y79382D01*
X1226226Y79576D01*
X1225948Y79743D01*
X1225643Y79854D01*
X1225282Y79909D01*
D02*
G37*
G36*
X1175643Y79909D02*
X1175588D01*
X1175477Y79882D01*
X1175282Y79854D01*
X1175060Y79771D01*
X1174810Y79660D01*
X1174561Y79465D01*
X1174311Y79187D01*
X1174116Y78827D01*
X1174089Y78771D01*
X1174061Y78716D01*
X1174033Y78604D01*
X1174005Y78493D01*
X1173978Y78355D01*
X1173922Y78160D01*
X1173894Y77938D01*
X1173839Y77688D01*
X1173783Y77411D01*
X1173755Y77078D01*
X1173728Y76744D01*
X1173700Y76328D01*
X1173672Y75912D01*
X1173644Y75440D01*
Y74912D01*
Y74884D01*
Y74773D01*
Y74634D01*
Y74440D01*
X1173672Y74218D01*
Y73941D01*
X1173700Y73330D01*
X1173755Y72663D01*
X1173867Y71997D01*
X1173922Y71692D01*
X1173978Y71414D01*
X1174061Y71164D01*
X1174144Y70942D01*
X1174172Y70887D01*
X1174255Y70776D01*
X1174366Y70609D01*
X1174533Y70415D01*
X1174755Y70220D01*
X1175005Y70054D01*
X1175310Y69943D01*
X1175643Y69887D01*
X1175754D01*
X1175893Y69915D01*
X1176032Y69943D01*
X1176226Y69998D01*
X1176393Y70082D01*
X1176587Y70193D01*
X1176781Y70331D01*
X1176809Y70359D01*
X1176865Y70415D01*
X1176948Y70526D01*
X1177059Y70665D01*
X1177170Y70887D01*
X1177281Y71109D01*
X1177392Y71414D01*
X1177476Y71747D01*
Y71803D01*
X1177503Y71942D01*
X1177559Y72164D01*
X1177614Y72497D01*
X1177642Y72913D01*
X1177698Y73441D01*
X1177726Y74051D01*
Y74773D01*
Y74801D01*
Y74912D01*
Y75051D01*
Y75273D01*
X1177698Y75495D01*
Y75801D01*
X1177670Y76411D01*
X1177587Y77105D01*
X1177503Y77772D01*
X1177448Y78077D01*
X1177365Y78382D01*
X1177281Y78632D01*
X1177198Y78854D01*
X1177170Y78910D01*
X1177087Y79021D01*
X1176976Y79187D01*
X1176809Y79382D01*
X1176587Y79576D01*
X1176310Y79743D01*
X1176004Y79854D01*
X1175643Y79909D01*
D02*
G37*
G36*
X1140191D02*
X1140135D01*
X1140024Y79882D01*
X1139830Y79854D01*
X1139608Y79771D01*
X1139358Y79660D01*
X1139108Y79465D01*
X1138858Y79187D01*
X1138664Y78827D01*
X1138636Y78771D01*
X1138608Y78716D01*
X1138581Y78604D01*
X1138553Y78493D01*
X1138525Y78355D01*
X1138470Y78160D01*
X1138442Y77938D01*
X1138386Y77688D01*
X1138331Y77411D01*
X1138303Y77078D01*
X1138275Y76744D01*
X1138248Y76328D01*
X1138220Y75912D01*
X1138192Y75440D01*
Y74912D01*
Y74884D01*
Y74773D01*
Y74634D01*
Y74440D01*
X1138220Y74218D01*
Y73941D01*
X1138248Y73330D01*
X1138303Y72663D01*
X1138414Y71997D01*
X1138470Y71692D01*
X1138525Y71414D01*
X1138608Y71164D01*
X1138692Y70942D01*
X1138720Y70887D01*
X1138803Y70776D01*
X1138914Y70609D01*
X1139081Y70415D01*
X1139303Y70220D01*
X1139552Y70054D01*
X1139858Y69943D01*
X1140191Y69887D01*
X1140302D01*
X1140441Y69915D01*
X1140580Y69943D01*
X1140774Y69998D01*
X1140940Y70082D01*
X1141135Y70193D01*
X1141329Y70331D01*
X1141357Y70359D01*
X1141413Y70415D01*
X1141496Y70526D01*
X1141607Y70665D01*
X1141718Y70887D01*
X1141829Y71109D01*
X1141940Y71414D01*
X1142023Y71747D01*
Y71803D01*
X1142051Y71942D01*
X1142107Y72164D01*
X1142162Y72497D01*
X1142190Y72913D01*
X1142245Y73441D01*
X1142273Y74051D01*
Y74773D01*
Y74801D01*
Y74912D01*
Y75051D01*
Y75273D01*
X1142245Y75495D01*
Y75801D01*
X1142218Y76411D01*
X1142134Y77105D01*
X1142051Y77772D01*
X1141995Y78077D01*
X1141912Y78382D01*
X1141829Y78632D01*
X1141746Y78854D01*
X1141718Y78910D01*
X1141635Y79021D01*
X1141524Y79187D01*
X1141357Y79382D01*
X1141135Y79576D01*
X1140857Y79743D01*
X1140552Y79854D01*
X1140191Y79909D01*
D02*
G37*
G36*
X1383110Y51469D02*
X1383082D01*
X1382971Y51414D01*
X1382777Y51358D01*
X1382555Y51275D01*
X1382277Y51192D01*
X1381972Y51108D01*
X1381278Y50914D01*
X1381222Y50886D01*
X1381084Y50858D01*
X1380862Y50803D01*
X1380584Y50719D01*
X1380306Y50609D01*
X1380056Y50497D01*
X1379807Y50386D01*
X1379640Y50248D01*
Y50220D01*
X1379584Y50192D01*
X1379473Y50026D01*
X1379362Y49776D01*
X1379335Y49637D01*
X1379307Y49470D01*
Y49443D01*
Y49387D01*
X1379335Y49304D01*
X1379362Y49193D01*
X1379446Y48915D01*
X1379529Y48776D01*
X1379640Y48665D01*
X1379668D01*
X1379695Y48610D01*
X1379779Y48582D01*
X1379918Y48526D01*
X1380056Y48471D01*
X1380223Y48415D01*
X1380445Y48387D01*
X1380667Y48360D01*
X1380778D01*
X1380917Y48387D01*
X1381084Y48415D01*
X1381278Y48443D01*
X1381500Y48499D01*
X1381750Y48582D01*
X1381972Y48693D01*
X1382000Y48721D01*
X1382083Y48748D01*
X1382166Y48832D01*
X1382305Y48915D01*
X1382583Y49165D01*
X1382722Y49331D01*
X1382833Y49498D01*
Y49526D01*
X1382888Y49581D01*
X1382916Y49692D01*
X1382971Y49859D01*
X1383027Y50026D01*
X1383055Y50248D01*
X1383110Y50497D01*
Y50775D01*
Y51469D01*
D02*
G37*
G36*
X1262539Y51469D02*
X1262511D01*
X1262400Y51414D01*
X1262206Y51358D01*
X1261984Y51275D01*
X1261706Y51192D01*
X1261401Y51108D01*
X1260707Y50914D01*
X1260651Y50886D01*
X1260512Y50858D01*
X1260290Y50803D01*
X1260013Y50719D01*
X1259735Y50609D01*
X1259485Y50497D01*
X1259235Y50386D01*
X1259069Y50248D01*
Y50220D01*
X1259013Y50192D01*
X1258902Y50026D01*
X1258791Y49776D01*
X1258763Y49637D01*
X1258736Y49470D01*
Y49442D01*
Y49387D01*
X1258763Y49304D01*
X1258791Y49193D01*
X1258874Y48915D01*
X1258958Y48776D01*
X1259069Y48665D01*
X1259097D01*
X1259124Y48610D01*
X1259208Y48582D01*
X1259346Y48526D01*
X1259485Y48471D01*
X1259652Y48415D01*
X1259874Y48387D01*
X1260096Y48360D01*
X1260207D01*
X1260346Y48387D01*
X1260512Y48415D01*
X1260707Y48443D01*
X1260929Y48499D01*
X1261179Y48582D01*
X1261401Y48693D01*
X1261429Y48721D01*
X1261512Y48748D01*
X1261595Y48832D01*
X1261734Y48915D01*
X1262011Y49165D01*
X1262150Y49331D01*
X1262261Y49498D01*
Y49526D01*
X1262317Y49581D01*
X1262345Y49692D01*
X1262400Y49859D01*
X1262456Y50026D01*
X1262484Y50248D01*
X1262539Y50497D01*
Y50775D01*
Y51469D01*
D02*
G37*
G36*
X1219868Y58021D02*
X1218702D01*
Y49720D01*
X1220091D01*
X1220340Y49748D01*
X1220674D01*
X1221007Y49803D01*
X1221368Y49859D01*
X1221673Y49914D01*
X1221951Y50026D01*
X1221978Y50053D01*
X1222062Y50081D01*
X1222173Y50164D01*
X1222312Y50303D01*
X1222478Y50442D01*
X1222645Y50636D01*
X1222811Y50886D01*
X1222950Y51164D01*
X1222978Y51192D01*
X1223006Y51330D01*
X1223061Y51525D01*
X1223144Y51802D01*
X1223200Y52163D01*
X1223255Y52635D01*
X1223283Y53163D01*
X1223311Y53801D01*
Y53829D01*
Y53912D01*
Y54023D01*
Y54190D01*
X1223283Y54384D01*
Y54606D01*
X1223200Y55134D01*
X1223117Y55661D01*
X1222978Y56216D01*
X1222784Y56716D01*
X1222645Y56911D01*
X1222506Y57105D01*
X1222478Y57133D01*
X1222339Y57244D01*
X1222145Y57382D01*
X1221867Y57577D01*
X1221507Y57743D01*
X1221062Y57882D01*
X1220507Y57993D01*
X1219868Y58021D01*
D02*
G37*
G36*
X1367258Y55023D02*
X1367091D01*
X1366897Y54995D01*
X1366675Y54912D01*
X1366425Y54828D01*
X1366147Y54689D01*
X1365898Y54495D01*
X1365648Y54218D01*
X1365620Y54190D01*
X1365592Y54134D01*
X1365537Y53995D01*
X1365453Y53857D01*
X1365370Y53635D01*
X1365287Y53385D01*
X1365231Y53079D01*
X1365176Y52746D01*
X1369340D01*
Y52774D01*
Y52802D01*
X1369312Y52941D01*
X1369257Y53163D01*
X1369201Y53412D01*
X1369118Y53690D01*
X1369007Y53968D01*
X1368868Y54245D01*
X1368674Y54467D01*
X1368646Y54495D01*
X1368591Y54551D01*
X1368452Y54634D01*
X1368313Y54745D01*
X1368091Y54856D01*
X1367869Y54939D01*
X1367563Y54995D01*
X1367258Y55023D01*
D02*
G37*
G36*
X1317619Y55023D02*
X1317453D01*
X1317258Y54995D01*
X1317036Y54912D01*
X1316786Y54828D01*
X1316509Y54689D01*
X1316259Y54495D01*
X1316009Y54218D01*
X1315981Y54190D01*
X1315954Y54134D01*
X1315898Y53995D01*
X1315815Y53857D01*
X1315731Y53635D01*
X1315648Y53385D01*
X1315593Y53079D01*
X1315537Y52746D01*
X1319701D01*
Y52774D01*
Y52802D01*
X1319674Y52941D01*
X1319618Y53163D01*
X1319563Y53412D01*
X1319479Y53690D01*
X1319368Y53968D01*
X1319229Y54245D01*
X1319035Y54467D01*
X1319007Y54495D01*
X1318952Y54551D01*
X1318813Y54634D01*
X1318674Y54745D01*
X1318452Y54856D01*
X1318230Y54939D01*
X1317925Y54995D01*
X1317619Y55023D01*
D02*
G37*
%LPD*%
D10*
X556000Y90000D02*
G03*
X556000Y90000I-15000J0D01*
G01*
X470000Y45000D02*
G03*
X470000Y45000I-15000J0D01*
G01*
X425000Y44996D02*
G03*
X425000Y44996I-15000J0D01*
G01*
X1465000Y80000D02*
G03*
X1465000Y80000I-15000J0D01*
G01*
X425000Y90000D02*
G03*
X425000Y90000I-15000J0D01*
G01*
X725000Y45000D02*
G03*
X725000Y45000I-15000J0D01*
G01*
X515000Y90000D02*
G03*
X515000Y90000I-15000J0D01*
G01*
X470000Y136000D02*
G03*
X470000Y136000I-15000J0D01*
G01*
X425000D02*
G03*
X425000Y136000I-15000J0D01*
G01*
X470000Y91000D02*
G03*
X470000Y91000I-15000J0D01*
G01*
X197000Y408000D02*
X201000D01*
X197000Y416000D02*
X201000D01*
X718000Y146000D02*
X722000D01*
X718000Y154000D02*
X722000D01*
X718000Y171000D02*
X722000D01*
X718000Y179000D02*
X722000D01*
X718000Y196000D02*
X722000D01*
X718000Y204000D02*
X722000D01*
X718001Y221001D02*
X722001D01*
X718001Y229001D02*
X722001D01*
X426000Y946000D02*
X430000D01*
X426000Y954000D02*
X430000D01*
X370000Y946000D02*
X374000D01*
X370000Y954000D02*
X374000D01*
X384000Y874000D02*
X388000D01*
X384000Y882000D02*
X388000D01*
X384000Y774000D02*
X388000D01*
X384000Y782000D02*
X388000D01*
X412000Y874000D02*
X416000D01*
X412000Y882000D02*
X416000D01*
X412000Y774000D02*
X416000D01*
X412000Y782000D02*
X416000D01*
X83000Y847000D02*
Y851000D01*
X91000Y847000D02*
Y851000D01*
X83000Y676000D02*
Y680000D01*
X91000Y676000D02*
Y680000D01*
X83000Y762000D02*
Y766000D01*
X91000Y762000D02*
Y766000D01*
X660000Y112000D02*
X664000D01*
X660000Y104000D02*
X664000D01*
X222000Y190000D02*
X226000D01*
X222000Y198000D02*
X226000D01*
X162000Y109000D02*
Y113000D01*
X170000Y109000D02*
Y113000D01*
X148000Y109000D02*
Y113000D01*
X156000Y109000D02*
Y113000D01*
X218000Y109000D02*
Y113000D01*
X226000Y109000D02*
Y113000D01*
X204000Y109000D02*
Y113000D01*
X212000Y109000D02*
Y113000D01*
X727000Y580000D02*
Y584000D01*
X735000Y580000D02*
Y584000D01*
X1100000Y331000D02*
X1104000D01*
X1100000Y339000D02*
X1104000D01*
X369000Y732000D02*
Y768000D01*
X431000Y732000D02*
Y768000D01*
X369000Y732000D02*
X431000D01*
X369000Y768000D02*
X431000D01*
X369000Y832000D02*
Y868000D01*
X431000Y832000D02*
Y868000D01*
X369000Y832000D02*
X431000D01*
X369000Y868000D02*
X431000D01*
X157000Y515000D02*
X161000D01*
X157000Y523000D02*
X161000D01*
X157000Y606700D02*
X161000D01*
X157000Y614700D02*
X161000D01*
X157000Y501000D02*
X161000D01*
X157000Y509000D02*
X161000D01*
X157000Y592700D02*
X161000D01*
X157000Y600700D02*
X161000D01*
X157000Y529000D02*
X161000D01*
X157000Y537000D02*
X161000D01*
X157000Y620700D02*
X161000D01*
X157000Y628700D02*
X161000D01*
X157000Y543000D02*
X161000D01*
X157000Y551000D02*
X161000D01*
X157000Y634700D02*
X161000D01*
X157000Y642700D02*
X161000D01*
X105000Y847000D02*
Y851000D01*
X97000Y847000D02*
Y851000D01*
X105000Y676000D02*
Y680000D01*
X97000Y676000D02*
Y680000D01*
X105000Y762000D02*
Y766000D01*
X97000Y762000D02*
Y766000D01*
X368000Y629000D02*
Y671000D01*
X432000Y629000D02*
Y671000D01*
X368000D02*
X432000D01*
X368000Y629000D02*
X432000D01*
X1366000Y140000D02*
Y150000D01*
X1416000Y140000D02*
Y150000D01*
X1429000Y169000D02*
X1433000D01*
X1429000Y177000D02*
X1433000D01*
X1461000Y179000D02*
X1465000D01*
X1461000Y167000D02*
X1465000D01*
X1466000Y144000D02*
Y148000D01*
X1478000Y144000D02*
Y148000D01*
X468970Y160630D02*
Y239370D01*
X441030Y160630D02*
X468970D01*
X441030D02*
Y239370D01*
X468970D01*
X610000Y134000D02*
X614000D01*
X610000Y126000D02*
X614000D01*
X513970Y160630D02*
Y239370D01*
X486030Y160630D02*
X513970D01*
X486030D02*
Y239370D01*
X513970D01*
X565000Y123000D02*
Y127000D01*
X577000Y123000D02*
Y127000D01*
X696000Y95000D02*
X700000D01*
X696000Y87000D02*
X700000D01*
X606000Y85000D02*
X616000D01*
X606000Y35000D02*
X616000D01*
X583000Y123000D02*
Y127000D01*
X595000Y123000D02*
Y127000D01*
X681000Y79000D02*
Y83000D01*
X669000Y79000D02*
Y83000D01*
X663000Y79000D02*
Y83000D01*
X651000Y79000D02*
Y83000D01*
X268000Y129000D02*
X272000D01*
X268000Y121000D02*
X272000D01*
X270000Y60200D02*
Y70200D01*
X320000Y60200D02*
Y70200D01*
X247000Y86000D02*
X251000D01*
X247000Y98000D02*
X251000D01*
X222000Y65200D02*
Y69200D01*
X210000Y65200D02*
Y69200D01*
X423970Y160230D02*
Y238970D01*
X396030Y160230D02*
X423970D01*
X396030D02*
Y238970D01*
X423970D01*
X1105000Y312000D02*
Y316000D01*
X1113000Y312000D02*
Y316000D01*
X1072000Y339000D02*
X1076000D01*
X1072000Y331000D02*
X1076000D01*
X1025000Y312000D02*
Y316000D01*
X1017000Y312000D02*
Y316000D01*
X1025000Y284000D02*
Y288000D01*
X1017000Y284000D02*
Y288000D01*
X763000Y600000D02*
X783000D01*
X763000Y528000D02*
X783000D01*
X747000Y551000D02*
Y577000D01*
X799000Y551000D02*
Y577000D01*
X1048000Y275000D02*
X1082000D01*
X1048000Y325000D02*
X1082000D01*
X1048000Y275000D02*
Y325000D01*
X1082000Y275000D02*
Y325000D01*
X402000Y946000D02*
Y954000D01*
X401000Y946000D02*
Y954000D01*
X400000Y946000D02*
Y954000D01*
X398000Y946000D02*
X401999D01*
X398000Y954000D02*
X402000D01*
X1105000Y284000D02*
Y288000D01*
X1113000Y284000D02*
Y288000D01*
X1075000Y381000D02*
X1079000D01*
X1075000Y393000D02*
X1079000D01*
X833000Y625000D02*
X837000D01*
X833000Y637000D02*
X837000D01*
X1075000Y411000D02*
X1079000D01*
X1075000Y399000D02*
X1079000D01*
X1115000Y392800D02*
X1119000D01*
X1115000Y380800D02*
X1119000D01*
X1115000Y399000D02*
X1119000D01*
X1115000Y411000D02*
X1119000D01*
X829000Y375000D02*
X833000D01*
X829000Y363000D02*
X833000D01*
X317000Y286000D02*
X337000D01*
X317000Y358000D02*
X337000D01*
X353000Y309000D02*
Y335000D01*
X301000Y309000D02*
Y335000D01*
X204000Y520000D02*
Y524000D01*
X212000Y520000D02*
Y524000D01*
X236000Y510000D02*
Y525000D01*
X250000Y510000D02*
Y525000D01*
X289000Y303000D02*
Y307000D01*
X281000Y303000D02*
Y307000D01*
X256000Y510000D02*
Y525000D01*
X270000Y510000D02*
Y525000D01*
X225000Y402000D02*
X229000D01*
X225000Y394000D02*
X229000D01*
X225000Y444000D02*
X229000D01*
X225000Y436000D02*
X229000D01*
X218000Y516000D02*
Y520000D01*
X230000Y516000D02*
Y520000D01*
X225000Y408000D02*
X229000D01*
X225000Y416000D02*
X229000D01*
X225000Y422000D02*
X229000D01*
X225000Y430000D02*
X229000D01*
X403000Y345000D02*
Y349000D01*
X395000Y345000D02*
Y349000D01*
X197000Y402000D02*
X201000D01*
X197000Y394000D02*
X201000D01*
X197000Y430000D02*
X201000D01*
X197000Y422000D02*
X201000D01*
X197000Y444000D02*
X201000D01*
X197000Y436000D02*
X201000D01*
X197000Y388000D02*
X201000D01*
X197000Y380000D02*
X201000D01*
X367000Y345000D02*
Y349000D01*
X375000Y345000D02*
Y349000D01*
X381000Y345000D02*
Y349000D01*
X389000Y345000D02*
Y349000D01*
X197000Y374000D02*
X201000D01*
X197000Y366000D02*
X201000D01*
X197000Y478000D02*
X201000D01*
X197000Y486000D02*
X201000D01*
X197000Y492000D02*
X201000D01*
X197000Y500000D02*
X201000D01*
X197000Y330000D02*
X201000D01*
X197000Y338000D02*
X201000D01*
X197000Y352000D02*
X201000D01*
X197000Y344000D02*
X201000D01*
X323000Y512000D02*
Y516000D01*
X315000Y512000D02*
Y516000D01*
X283000Y512000D02*
Y516000D01*
X291000Y512000D02*
Y516000D01*
X309000Y516000D02*
Y520000D01*
X297000Y516000D02*
Y520000D01*
X273000Y362000D02*
X277000D01*
X273000Y370000D02*
X277000D01*
X225000Y366000D02*
X229000D01*
X225000Y374000D02*
X229000D01*
X225000Y380000D02*
X229000D01*
X225000Y388000D02*
X229000D01*
X273000Y402000D02*
X277000D01*
X273000Y394000D02*
X277000D01*
X271000Y376000D02*
X275000D01*
X271000Y388000D02*
X275000D01*
X402000Y408200D02*
X406000D01*
X402000Y416200D02*
X406000D01*
Y402000D02*
X410000D01*
X406000Y390000D02*
X410000D01*
X369000Y512000D02*
Y516000D01*
X361000Y512000D02*
Y516000D01*
X355000Y512000D02*
Y516000D01*
X347000Y512000D02*
Y516000D01*
X329000Y516000D02*
Y520000D01*
X341000Y516000D02*
Y520000D01*
X375000Y512000D02*
Y516000D01*
X383000Y512000D02*
Y516000D01*
X77000Y207000D02*
X81000D01*
X77000Y199000D02*
X81000D01*
X77000Y227000D02*
X81000D01*
X77000Y219000D02*
X81000D01*
X77000Y247000D02*
X81000D01*
X77000Y239000D02*
X81000D01*
X77000Y267000D02*
X81000D01*
X77000Y259000D02*
X81000D01*
X1459000Y202000D02*
X1463000D01*
X1459000Y210000D02*
X1463000D01*
X1459000Y188000D02*
X1463000D01*
X1459000Y196000D02*
X1463000D01*
X1509000Y77000D02*
X1513000D01*
X1509000Y85000D02*
X1513000D01*
X84000Y78000D02*
X88000D01*
X84000Y70000D02*
X88000D01*
X146000Y187000D02*
Y193000D01*
X152000D01*
X146000Y139000D02*
X152000D01*
X146000D02*
Y145000D01*
X200000Y139000D02*
Y145000D01*
X194000Y139000D02*
X200000D01*
X194000Y193000D02*
X200000Y187000D01*
X119000Y112000D02*
X123000D01*
X119000Y104000D02*
X123000D01*
X176000Y113000D02*
X184000D01*
X176000Y112000D02*
X184000D01*
X176000Y111000D02*
X184000D01*
Y109000D02*
Y112999D01*
X176000Y109000D02*
Y113000D01*
X189999Y113001D02*
X197999D01*
X189999Y112001D02*
X197999D01*
X189999Y111001D02*
X197999D01*
Y109001D02*
Y113000D01*
X189999Y109001D02*
Y113001D01*
X84000Y92000D02*
X88000D01*
X84000Y84000D02*
X88000D01*
X119000Y145000D02*
X123000D01*
X119000Y137000D02*
X123000D01*
X119000Y118000D02*
X123000D01*
X119000Y126000D02*
X123000D01*
X-19000Y504300D02*
X143001D01*
Y548301D01*
X-19000D02*
X143001D01*
X-19000Y504300D02*
Y548301D01*
Y596000D02*
X143001D01*
Y640001D01*
X-19000D02*
X143001D01*
X-19000Y596000D02*
Y640001D01*
X16000Y827000D02*
X53000D01*
X16000Y899000D02*
X53000D01*
Y827000D02*
Y899000D01*
X16000Y827000D02*
Y899000D01*
Y656000D02*
X53000D01*
X16000Y728000D02*
X53000D01*
Y656000D02*
Y728000D01*
X16000Y656000D02*
Y728000D01*
Y742000D02*
X53000D01*
X16000Y814000D02*
X53000D01*
Y742000D02*
Y814000D01*
X16000Y742000D02*
Y814000D01*
X1047000Y383000D02*
Y617000D01*
X813000Y383000D02*
X1047000D01*
X813000D02*
Y617000D01*
X1047000D01*
X-43000Y310150D02*
Y476150D01*
X177000Y310150D02*
Y476150D01*
X113000Y310150D02*
X177000D01*
X-43000D02*
X83000D01*
X113000Y476150D02*
X177000D01*
X-43000D02*
X83000D01*
X1678000Y59000D02*
Y941000D01*
X1628000Y59000D02*
X1678000D01*
X1628000Y28000D02*
Y59000D01*
X1547000Y28000D02*
X1628000D01*
X1547000D02*
Y95000D01*
X1487000D02*
X1547000D01*
X1487000D02*
Y906000D01*
X1548000D01*
Y972000D01*
X1628000D01*
Y941000D02*
Y972000D01*
Y941000D02*
X1678000D01*
X1119000Y879000D02*
Y961000D01*
X740000Y879000D02*
Y961000D01*
Y879000D02*
X1119000D01*
X740000Y961000D02*
X1119000D01*
Y39000D02*
Y121000D01*
X740000Y39000D02*
Y121000D01*
Y39000D02*
X1119000D01*
X740000Y121000D02*
X1119000D01*
X-44000Y301000D02*
X52000D01*
X-44000Y145000D02*
X52000D01*
X-44000D02*
Y301000D01*
X52000Y145000D02*
Y301000D01*
X-11500Y99900D02*
X106500D01*
Y145900D01*
X-11500D02*
X106500D01*
X0Y0D02*
X1600000D01*
Y1000000D01*
X0D02*
X1600000D01*
X0Y0D02*
Y1000000D01*
X-11500Y99900D02*
Y103900D01*
Y141900D02*
Y145900D01*
D11*
X768000Y589000D02*
G03*
X768000Y589000I-2000J0D01*
G01*
X336000Y297000D02*
G03*
X336000Y297000I-2000J0D01*
G01*
D12*
X1054000Y318950D02*
G03*
X1054000Y318950I-1000J0D01*
G01*
X188575Y50000D02*
G03*
X188575Y50000I-28575J0D01*
G01*
X63575Y945000D02*
G03*
X63575Y945000I-28575J0D01*
G01*
Y55000D02*
G03*
X63575Y55000I-28575J0D01*
G01*
D13*
X289000Y475000D02*
G03*
X289000Y475000I-1250J0D01*
G01*
X810250Y614000D02*
G03*
X810250Y614000I-1250J0D01*
G01*
D14*
X1450000Y32004D02*
Y55000D01*
Y32004D02*
X1460000Y34004D01*
X1440000Y30004D02*
X1450000Y32004D01*
X531000Y45004D02*
X541000Y47004D01*
X551000Y49004D01*
X541000Y47004D02*
Y70000D01*
D15*
X580000Y20000D02*
X1539000Y20000D01*
X65000D02*
X580000D01*
X227750Y80200D02*
X239250D01*
X242750Y50450D02*
Y79950D01*
Y50450D02*
X249250D01*
Y79950D01*
X242750D02*
X249250D01*
X1422000Y161000D02*
X1432000D01*
X1435500Y131500D02*
Y160500D01*
Y131500D02*
X1446500D01*
Y160500D01*
X1435500D02*
X1446500D01*
X303500Y471500D02*
X366500D01*
Y408500D02*
Y471500D01*
X303500Y408500D02*
X366500D01*
X303500D02*
Y471500D01*
X1539000Y20000D02*
X1547000Y28000D01*
X1540000Y980000D02*
X1548000Y972000D01*
X65000Y907000D02*
Y980000D01*
X1540000D01*
X16000Y93000D02*
Y907000D01*
X65000D01*
X16000Y93000D02*
X65000D01*
Y20000D02*
Y93000D01*
X376998Y667997D02*
X373666D01*
X372000Y666331D01*
Y659666D01*
X373666Y658000D01*
X376998D01*
X378665Y659666D01*
Y666331D01*
X376998Y667997D01*
X381997Y658000D02*
Y667997D01*
X388661Y658000D01*
Y667997D01*
D16*
X370000Y174600D02*
X500000Y174600D01*
X410000Y225000D02*
X540000Y225000D01*
D17*
X607014Y90014D02*
X636986D01*
X607014Y119986D02*
X636986D01*
D18*
X570997Y261188D02*
X561000D01*
Y253690D01*
X565998D01*
X561000D01*
Y246192D01*
X575995Y256189D02*
Y246192D01*
Y251191D01*
X578494Y253690D01*
X580993Y256189D01*
X583493D01*
X593489Y246192D02*
X598488D01*
X600987Y248692D01*
Y253690D01*
X598488Y256189D01*
X593489D01*
X590990Y253690D01*
Y248692D01*
X593489Y246192D01*
X605985D02*
Y256189D01*
X608485D01*
X610984Y253690D01*
Y246192D01*
Y253690D01*
X613483Y256189D01*
X615982Y253690D01*
Y246192D01*
X561000Y235993D02*
Y220998D01*
X568498D01*
X570997Y223498D01*
Y225997D01*
X568498Y228496D01*
X561000D01*
X568498D01*
X570997Y230995D01*
Y233494D01*
X568498Y235993D01*
X561000D01*
X578494Y230995D02*
X583493D01*
X585992Y228496D01*
Y220998D01*
X578494D01*
X575995Y223498D01*
X578494Y225997D01*
X585992D01*
X600987Y230995D02*
X593489D01*
X590990Y228496D01*
Y223498D01*
X593489Y220998D01*
X600987D01*
X605985D02*
Y235993D01*
Y225997D02*
X613483Y230995D01*
X605985Y225997D02*
X613483Y220998D01*
X620981Y216000D02*
Y230995D01*
X628478D01*
X630977Y228496D01*
Y223498D01*
X628478Y220998D01*
X620981D01*
X635976D02*
X640974D01*
X638475D01*
Y235993D01*
X635976D01*
X650971Y230995D02*
X655969D01*
X658468Y228496D01*
Y220998D01*
X650971D01*
X648472Y223498D01*
X650971Y225997D01*
X658468D01*
X663467Y220998D02*
Y230995D01*
X670964D01*
X673464Y228496D01*
Y220998D01*
X685959D02*
X680961D01*
X678462Y223498D01*
Y228496D01*
X680961Y230995D01*
X685959D01*
X688459Y228496D01*
Y225997D01*
X678462D01*
X309997Y208189D02*
X300000D01*
Y200692D01*
X304998D01*
X300000D01*
Y193194D01*
X314995Y203191D02*
Y193194D01*
Y198193D01*
X317494Y200692D01*
X319993Y203191D01*
X322493D01*
X332490Y193194D02*
X337488D01*
X339987Y195693D01*
Y200692D01*
X337488Y203191D01*
X332490D01*
X329990Y200692D01*
Y195693D01*
X332490Y193194D01*
X344985D02*
Y203191D01*
X347485D01*
X349984Y200692D01*
Y193194D01*
Y200692D01*
X352483Y203191D01*
X354982Y200692D01*
Y193194D01*
X300000Y182995D02*
Y170499D01*
X302499Y168000D01*
X307498D01*
X309997Y170499D01*
Y182995D01*
X324992Y180496D02*
X322493Y182995D01*
X317494D01*
X314995Y180496D01*
Y177997D01*
X317494Y175498D01*
X322493D01*
X324992Y172998D01*
Y170499D01*
X322493Y168000D01*
X317494D01*
X314995Y170499D01*
X329990Y182995D02*
Y168000D01*
X337488D01*
X339987Y170499D01*
Y172998D01*
X337488Y175498D01*
X329990D01*
X337488D01*
X339987Y177997D01*
Y180496D01*
X337488Y182995D01*
X329990D01*
X792997Y157995D02*
X787998D01*
X790498D01*
Y145499D01*
X787998Y143000D01*
X785499D01*
X783000Y145499D01*
X797995Y143000D02*
Y157995D01*
X805493D01*
X807992Y155496D01*
Y150498D01*
X805493Y147998D01*
X797995D01*
X820488Y143000D02*
Y157995D01*
X812990Y150498D01*
X822987D01*
X792997Y182995D02*
X787998D01*
X790498D01*
Y170499D01*
X787998Y168000D01*
X785499D01*
X783000Y170499D01*
X797995Y168000D02*
Y182995D01*
X805493D01*
X807992Y180496D01*
Y175498D01*
X805493Y172998D01*
X797995D01*
X812990Y180496D02*
X815490Y182995D01*
X820488D01*
X822987Y180496D01*
Y177997D01*
X820488Y175498D01*
X817989D01*
X820488D01*
X822987Y172998D01*
Y170499D01*
X820488Y168000D01*
X815490D01*
X812990Y170499D01*
X792997Y207995D02*
X787998D01*
X790498D01*
Y195499D01*
X787998Y193000D01*
X785499D01*
X783000Y195499D01*
X797995Y193000D02*
Y207995D01*
X805493D01*
X807992Y205496D01*
Y200498D01*
X805493Y197998D01*
X797995D01*
X822987Y193000D02*
X812990D01*
X822987Y202997D01*
Y205496D01*
X820488Y207995D01*
X815490D01*
X812990Y205496D01*
X792997Y232995D02*
X787998D01*
X790498D01*
Y220499D01*
X787998Y218000D01*
X785499D01*
X783000Y220499D01*
X797995Y218000D02*
Y232995D01*
X805493D01*
X807992Y230496D01*
Y225498D01*
X805493Y222998D01*
X797995D01*
X812990Y218000D02*
X817989D01*
X815490D01*
Y232995D01*
X812990Y230496D01*
X327500Y604995D02*
Y592499D01*
X329999Y590000D01*
X334998D01*
X337497Y592499D01*
Y604995D01*
X352492Y602496D02*
X349993Y604995D01*
X344994D01*
X342495Y602496D01*
Y599997D01*
X344994Y597498D01*
X349993D01*
X352492Y594998D01*
Y592499D01*
X349993Y590000D01*
X344994D01*
X342495Y592499D01*
X367487Y604995D02*
X357490D01*
Y590000D01*
X367487D01*
X357490Y597498D02*
X362489D01*
X372485Y590000D02*
Y604995D01*
X379983D01*
X382482Y602496D01*
Y597498D01*
X379983Y594998D01*
X372485D01*
X377484D02*
X382482Y590000D01*
X412472Y602496D02*
X409973Y604995D01*
X404975D01*
X402476Y602496D01*
Y599997D01*
X404975Y597498D01*
X409973D01*
X412472Y594998D01*
Y592499D01*
X409973Y590000D01*
X404975D01*
X402476Y592499D01*
X417471Y604995D02*
Y590000D01*
X422469Y594998D01*
X427468Y590000D01*
Y604995D01*
X432466D02*
X437464D01*
X434965D01*
Y590000D01*
X432466D01*
X437464D01*
X444962Y604995D02*
X454959D01*
X449960D01*
Y590000D01*
X469954Y602496D02*
X467455Y604995D01*
X462456D01*
X459957Y602496D01*
Y592499D01*
X462456Y590000D01*
X467455D01*
X469954Y592499D01*
X474952Y604995D02*
Y590000D01*
Y597498D01*
X484949D01*
Y604995D01*
Y590000D01*
X337497Y934995D02*
X327500D01*
Y927498D01*
X332498D01*
X327500D01*
Y920000D01*
X342495D02*
Y934995D01*
X349993D01*
X352492Y932496D01*
Y927498D01*
X349993Y924998D01*
X342495D01*
X367487Y932496D02*
X364988Y934995D01*
X359990D01*
X357490Y932496D01*
Y922499D01*
X359990Y920000D01*
X364988D01*
X367487Y922499D01*
Y927498D01*
X362489D01*
X372485Y920000D02*
Y929997D01*
X377484Y934995D01*
X382482Y929997D01*
Y920000D01*
Y927498D01*
X372485D01*
X402476Y934995D02*
Y920000D01*
X409973D01*
X412472Y922499D01*
Y932496D01*
X409973Y934995D01*
X402476D01*
X424968D02*
X419970D01*
X417471Y932496D01*
Y922499D01*
X419970Y920000D01*
X424968D01*
X427468Y922499D01*
Y932496D01*
X424968Y934995D01*
X432466Y920000D02*
Y934995D01*
X442463Y920000D01*
Y934995D01*
X457458D02*
X447461D01*
Y920000D01*
X457458D01*
X447461Y927498D02*
X452459D01*
X337497Y822496D02*
X334998Y824995D01*
X329999D01*
X327500Y822496D01*
Y819997D01*
X329999Y817498D01*
X334998D01*
X337497Y814998D01*
Y812499D01*
X334998Y810000D01*
X329999D01*
X327500Y812499D01*
X349993Y824995D02*
X344994D01*
X342495Y822496D01*
Y812499D01*
X344994Y810000D01*
X349993D01*
X352492Y812499D01*
Y822496D01*
X349993Y824995D01*
X367487D02*
X357490D01*
Y817498D01*
X362489D01*
X357490D01*
Y810000D01*
X372485Y824995D02*
X382482D01*
X377484D01*
Y810000D01*
X402476D02*
Y824995D01*
X409973D01*
X412472Y822496D01*
Y817498D01*
X409973Y814998D01*
X402476D01*
X407474D02*
X412472Y810000D01*
X427468Y824995D02*
X417471D01*
Y810000D01*
X427468D01*
X417471Y817498D02*
X422469D01*
X442463Y822496D02*
X439964Y824995D01*
X434965D01*
X432466Y822496D01*
Y819997D01*
X434965Y817498D01*
X439964D01*
X442463Y814998D01*
Y812499D01*
X439964Y810000D01*
X434965D01*
X432466Y812499D01*
X457458Y824995D02*
X447461D01*
Y810000D01*
X457458D01*
X447461Y817498D02*
X452459D01*
X462456Y824995D02*
X472453D01*
X467455D01*
Y810000D01*
X327500Y724995D02*
Y710000D01*
Y717498D01*
X337497D01*
Y724995D01*
Y710000D01*
X342495D02*
Y719997D01*
X347494Y724995D01*
X352492Y719997D01*
Y710000D01*
Y717498D01*
X342495D01*
X357490Y710000D02*
Y724995D01*
X364988D01*
X367487Y722496D01*
Y717498D01*
X364988Y714998D01*
X357490D01*
X362489D02*
X367487Y710000D01*
X372485Y724995D02*
Y710000D01*
X379983D01*
X382482Y712499D01*
Y722496D01*
X379983Y724995D01*
X372485D01*
X402476Y710000D02*
Y724995D01*
X409973D01*
X412472Y722496D01*
Y717498D01*
X409973Y714998D01*
X402476D01*
X407474D02*
X412472Y710000D01*
X427468Y724995D02*
X417471D01*
Y710000D01*
X427468D01*
X417471Y717498D02*
X422469D01*
X442463Y722496D02*
X439964Y724995D01*
X434965D01*
X432466Y722496D01*
Y719997D01*
X434965Y717498D01*
X439964D01*
X442463Y714998D01*
Y712499D01*
X439964Y710000D01*
X434965D01*
X432466Y712499D01*
X457458Y724995D02*
X447461D01*
Y710000D01*
X457458D01*
X447461Y717498D02*
X452459D01*
X462456Y724995D02*
X472453D01*
X467455D01*
Y710000D01*
X652000Y37000D02*
X656998D01*
X654499D01*
Y51995D01*
X652000Y49496D01*
X664496Y51995D02*
Y41998D01*
X669494Y37000D01*
X674493Y41998D01*
Y51995D01*
X689488Y37000D02*
X679491D01*
X689488Y46997D01*
Y49496D01*
X686989Y51995D01*
X681990D01*
X679491Y49496D01*
X495504Y255997D02*
X493005Y253498D01*
Y248499D01*
X495504Y246000D01*
X505501D01*
X508000Y248499D01*
Y253498D01*
X505501Y255997D01*
X493005Y268493D02*
Y263494D01*
X495504Y260995D01*
X505501D01*
X508000Y263494D01*
Y268493D01*
X505501Y270992D01*
X495504D01*
X493005Y268493D01*
X508000Y275990D02*
X493005D01*
Y283488D01*
X495504Y285987D01*
X500502D01*
X503002Y283488D01*
Y275990D01*
Y280989D02*
X508000Y285987D01*
X493005Y300982D02*
Y290985D01*
X508000D01*
Y300982D01*
X500502Y290985D02*
Y295984D01*
X447005Y255997D02*
Y246000D01*
X454502D01*
X452003Y250998D01*
Y253498D01*
X454502Y255997D01*
X459501D01*
X462000Y253498D01*
Y248499D01*
X459501Y246000D01*
X447005Y260995D02*
X457002D01*
X462000Y265993D01*
X457002Y270992D01*
X447005D01*
X404504Y246000D02*
X402005Y248499D01*
Y253498D01*
X404504Y255997D01*
X407003D01*
X409502Y253498D01*
Y250998D01*
Y253498D01*
X412002Y255997D01*
X414501D01*
X417000Y253498D01*
Y248499D01*
X414501Y246000D01*
X402005Y260995D02*
X412002D01*
X417000Y265993D01*
X412002Y270992D01*
X402005D01*
X404504Y275990D02*
X402005Y278489D01*
Y283488D01*
X404504Y285987D01*
X407003D01*
X409502Y283488D01*
Y280989D01*
Y283488D01*
X412002Y285987D01*
X414501D01*
X417000Y283488D01*
Y278489D01*
X414501Y275990D01*
D19*
X243000Y522625D02*
D03*
X263000Y522625D02*
D03*
M02*
