M48
;Layer_Color=9474304
;FILE_FORMAT=4:4
METRIC,LZ
;TYPE=PLATED
T1F00S00C0.1500
T2F00S00C0.2500
T3F00S00C0.4000
T5F00S00C0.8000
T6F00S00C0.9000
T7F00S00C1.0000
T8F00S00C1.1000
T9F00S00C1.2000
T10F00S00C1.6002
T11F00S00C3.0000
;TYPE=NON_PLATED
T12F00S00C1.6000
T13F00S00C3.2000
%
T01
X0007Y00074
X00102
Y00088
X00113Y00099
Y00131
X00129
X00105Y00141
X00152Y00095
X00166
X002Y00086
Y0008
Y00074
X0021Y00044996
X002205
X002335Y00049
X002355Y00103
X00247
X00222Y00127
X00208
X00608Y00121
X0061697
X0062197
X0062697
X0063597Y00120906
X00655Y0006
X00665
X00675
X00685
X007776Y000525
X007903
X00803
X008157
X008284
X008411
X008538
X008665
X008792
X008919
X009046
X009173
X0093
X008919Y000652
Y000948
Y001075
X009046
X009173
X0093
X008792
X008665
X008538
X008411
X008284
X008157
X00803
X007903
X007776
X0076Y0014
X00835
X008538Y000948
Y000652
X009427Y000525
X009554
X009681
X009808
X009935
X010062
X010189
X010316
X010443
X01057
X010697
X010824
Y001075
X010697
X01057
X010443
X010316
X010189
X010062
X009935
X009808
X009681
X009554
X009427
X010062Y000923
Y000652
X0137Y002
X01375
X0138
X01445Y00192
X01109Y00269
X01038
X01021
X01012Y00294
Y00306
X01Y0038
X0101Y004
Y0041
Y0042
X0102
X0103
X0104Y0042
X0102Y0043
Y0044
X0103
X0101
Y0045
X01
Y0044
Y0046
X0101
X0102
X0103
Y0048
X0101
X01
Y0047
X0101
X0099
X0098
X0097
Y0048
X0098
X0099
Y0049
X0098
X0097
X0096
X0095
Y0048
X0096
Y0047
X0095
Y0046
X0096
X0095Y0045
X0094Y0046
Y0047
Y0048
Y0049
Y0051
Y0052
X0095
X0096
X0097
Y0051
X0098
X0099
Y0052
X01
X0101
Y0051
X01
X0102
X0103
X0102Y0052
Y0053
X0103
X01
X0097
X0096
X0095
Y0051
X0096
X01Y0049
X0101
X0102
X0105Y0048
Y0051
X0099Y0046
X0098Y0043
Y0042
X0099Y004
X0097
X0096
X0095
X0097Y0038
X0096Y0043
X0097Y0044
X0094Y0043
X0104Y0039
X01097Y003868
Y00405
X01137Y00396
X0111Y00344
X01094
X01082
X0093Y0038
X009
X009Y004
X0092
Y0043
Y0044
Y0046
Y0047
Y0048
Y0049
X0091
X009
Y0048
X0091
Y0047
X009
Y0046
X0091
X009Y0045
X0088
X0087
Y0046
Y0047
X0086
X0085
Y0046
Y0045
Y0044
X0086
Y0043
X0085
X0084
Y0042
X0083
Y0044
X0084
Y0045
Y0046
X0083
Y0047
X0084
Y0048
X0083
X0084Y0049
Y0051
X0083
X0084Y0052
Y0053
X0083
X0081
X0081Y005
Y0047
X0086Y0048
X0088
X0089
Y0051
X009
X0091
Y0052
X009
Y0053
X0091
X0092
Y0052
X0093Y0052
X0093Y005
X0088Y0051
X0086
Y0053
X0089
Y0043
X0088Y0044
Y0042
Y004
X0086
X0084
X0082
Y0039
X00821Y00358
X00841
X0086Y0042
X0085Y00215
X00845Y0019
X0084Y00165
X0078Y00175
Y002
Y00225
X0076Y00215
Y0019
Y00165
X0078Y0015
X0068
Y00175
Y002
Y00225
X00571Y00145
X00399Y00331
X00385
X00371
X00348Y00333
X00345Y00415
X0035Y0042
X00355Y00425
X0036Y0043
X003625Y0041024
X003275
X003075Y00385
X00259Y00398
X00257Y0037
Y00363
X00243Y0037
Y00384
X002425Y00426
X00275Y00424
X00281Y004275
X0029262Y00473
X00315Y0047
X003325Y0047
X003375Y00465
X0039Y004675
X00395Y004625
X0039Y004375
X00398Y00385
X00418
X00379Y00498
X003625Y00495
X00351Y0053
X00335Y00538
X00262999
X00243
X00224
X00208
X00175Y00533
Y00519
Y00505
X00214Y00496
Y00482
X0027Y00506
X00287Y00498
X0018Y0043375
X00207Y00361
X002145Y00348
Y00334
X00276Y00313
Y00297
X00232Y00185
X00216
X00491Y00525
X00095Y00263
Y00243
Y00223
Y00203
X0011Y0067
X00101Y00695
X00087
X0011Y00756
X00101Y00781
X00087
X0011Y00841
X00101Y00866
X00087
X0037Y0085
X00378Y00887
X00406Y00887
X00462Y0085
X00406Y00787
X00378
X0037Y0075
X003809Y00632
X003936
X004063
X00419
X00175Y006387
X00175Y006247
Y006107
Y005967
X00175Y00547
X00722Y00575
Y0059
X0082
X0082Y0058
X0083
X0084
X0085
X0086
Y0057
X0085
Y0056
X0084
Y0055
X0083
X0084Y0054
X0086
Y0055
X0087Y0056
X0088Y0057
Y0058
X0087
Y0059
X0088
Y006
X0089Y0059
Y0058
X009Y0057
Y0056
X0091Y0055
X0092
Y0056
Y0057
Y006
X0092Y0062
X0091Y0059
X009
Y006
X0086
X0085
Y0059
X0084
X0083
Y0057
X0081Y0056
X0082Y0061
X00825Y00642
X00845
X0088Y0054
X009
X0091
X009046Y008925
X008919
X008792
X008665
X008538
X008411
X008284
X008157
X00803
X007903
X007776
X009173
X0093
X009427
X009554
X009681
X009808
X009935
X010062
X010189
X010316
X010443
X01057
X010697
X010824
X0104Y0061
X0103Y0059
X0102
Y0058
Y0057
X0103
Y0055
X0102
Y0056
X0101
X01
Y0055
X0099
X0098
Y0054
X0097
X0096
X0095
X0094
Y0055
X0096
Y0056
X0095
Y0057
X0097
Y0058
X0098
X0099Y0058
Y0057
Y0056
X0097
Y0055
X0096Y0058
X0096Y0059
X0097
Y006
X0098Y0059
X0099
Y006
X01Y0059
X0101
Y006
Y0061
Y0058
X01
Y0057
X0101
X0102Y0054
X0095Y0059
Y006
X0095Y0062
X009554Y009475
X009427
X009681
X009808
X009935
X010062
X010189
X010316
X010443
X01057
X010697
X010824
X0093
X009173
X009046
X008919
X008792
X008665
X008538
X008411
X008284
X008157
X00803
X007903
X007776
X00436Y00959
X00392
X00364
T02
X00163Y00156
Y00176
X00183
Y00156
X00173Y00166
T03
X00033Y00119
X00042
X00051
X0006
X00069
X00078
X00087
X000915Y001268
X000825
X000735
X000645
X000555
X000465
X000375
T05
X00021Y00183
X00041
Y00203
Y00223
Y00243
Y00263
X00021
Y00243
Y00223
Y00203
T06
X00042Y006695
Y007145
Y007555
Y008005
Y008405
Y008855
T07
X0041Y00044996
Y0009
Y00136
X00455
Y00091
Y00045
X005Y0009
X00541
X0071Y00045
X0145Y0008
X014982Y001066
X015236
X01549
Y00132
X015236
X014982
Y001574
X015236
X01549
Y001828
Y002082
Y002336
Y00259
Y002844
Y003098
Y003352
Y003606
Y00386
Y004114
Y004368
Y004622
Y004876
Y00513
Y005384
X015236
Y00513
Y004876
Y004622
Y004368
Y004114
Y00386
Y003606
Y003352
Y003098
Y002844
Y00259
Y002336
Y002082
Y001828
X014982
Y002082
Y002336
Y00259
Y002844
Y003098
Y003352
Y003606
Y00386
Y004114
Y004368
Y004622
Y004876
Y00513
Y005384
X005Y002254
X005Y002
X005Y001746
X00455
X00455Y002
X00455Y002254
X0041Y00225
X0041Y001996
X0041Y001742
X001312Y005136
Y00539
X001058
X000804
X00055
Y005136
X000804
X001058
Y006053
X000804
X00055
Y006307
X000804
X001058
X001312
Y006053
X014982Y006146
X015236
X01549
Y0064
Y006654
Y006908
Y007162
Y007416
Y00767
Y007924
Y008178
Y008432
Y008686
Y00894
X015236
X014982
Y008686
X015236
Y008432
Y008178
Y007924
Y00767
Y007416
Y007162
Y006908
Y006654
Y0064
X014982
Y006654
Y006908
Y007162
Y007416
Y00767
Y007924
Y008178
Y008432
Y005892
X015236
X01549
Y005638
X015236
X014982
T08
X001559Y003487
Y003741
Y003995
Y004249
X001305Y004376
Y004122
Y003868
Y003614
T09
X00033218Y00329904
X00017978Y00355304
X00033218Y00430996
X00017978Y00456396
X00067Y00657
Y00727
Y00743
Y00813
Y00828
Y00898
T10
X0009748Y0031441
Y0047189
T11
X00035Y00055
X0016Y0005
X01575Y000555
Y009445
X00035Y00945
T12
X007555Y0008
X011045
X007555Y0092
X011045
T13
X00067Y00336
Y004503
M30
