M48
;FILE_FORMAT=4:2
METRIC,0000.00
;TYPE=PLATED
T01C0.15
T02C0.80
T03C0.90
T04C1.00
T05C1.30
T06C1.60
T07C1.60
T08C3.00
T09C3.20
%
T01
X+007048Y+008192
Y+007938
Y+007684
Y+008446
X+007260Y+010300
Y+011280
X+007330Y+012330
Y+014340
X+007938Y+007938
Y+007684
X+008150Y+009050
X+008300Y+009250
Y+009450
Y+009650
Y+009850
X+007680Y+010300
X+008285Y+010250
Y+010600
X+007680Y+011280
X+008150Y+010750
X+008220Y+011000
X+008155Y+010950
X+008140Y+012600
Y+012420
Y+014000
Y+013820
X+008720Y+006650
Y+006350
X+008500
X+008720Y+007190
Y+007010
X+008500Y+009850
X+008600Y+009650
X+008450Y+009450
X+008550Y+009250
X+008790Y+009780
Y+009560
Y+009345
X+008740Y+009280
X+008480Y+010250
X+008700Y+010600
X+008610Y+010250
X+008675Y+010200
X+008805Y+011350
X+008625Y+011000
X+009779Y+005874
X+009398Y+006318
X+009250Y+009670
Y+009490
X+009470
Y+009670
Y+009310
X+009250
Y+009850
X+009470
X+009200Y+010900
X+009210Y+012870
Y+012690
Y+012510
Y+012330
X+009850Y+012510
Y+012330
Y+012870
Y+012690
X+009700Y+013310
Y+013520
Y+013100
X+009850Y+013930
X+009210
Y+014300
X+009850
Y+014120
X+009210
X+010160Y+006318
X+009950Y+009475
Y+009345
X+010270Y+012400
X+010050Y+012760
Y+012400
X+010550Y+012600
Y+012450
X+010460Y+013650
Y+013430
X+010210Y+013100
Y+013520
X+010270Y+014330
Y+014150
X+010610Y+014030
Y+014120
X+010050Y+014330
Y+014150
X+010480Y+014720
X+011200Y+006320
X+010980
X+010750Y+011850
X+010950
X+011310
Y+012070
X+011200Y+012650
X+010870Y+012380
X+011050
Y+012600
X+010870
X+011080Y+013900
X+011300
X+011030Y+014720
X+012065Y+006429
Y+006652
X+012129Y+006731
X+012065Y+006556
X+012002Y+006731
X+012065Y+006334
X+012002Y+006985
X+012065Y+007557
X+012002Y+007239
Y+007366
Y+007493
X+012065Y+007684
Y+007811
Y+007938
X+012129Y+008001
X+012065Y+008334
Y+008192
X+012129Y+008255
Y+008128
X+012065Y+008065
X+012002Y+008001
Y+008255
Y+008128
X+012129Y+007874
X+012002
X+012065Y+008430
Y+008557
Y+008652
X+011621Y+009017
X+011684Y+008954
X+011748Y+008890
Y+009017
X+011621Y+008890
X+011875Y+009366
Y+009462
Y+009271
X+012033Y+009366
Y+009271
Y+009462
X+012065Y+009843
Y+009970
X+011850Y+011500
Y+011700
X+011900Y+011650
X+011850Y+011600
X+011480Y+012700
Y+012880
X+011700
Y+012700
X+011900Y+012550
X+011850Y+012600
Y+012500
X+011900Y+012450
X+011850Y+012400
X+011900Y+012350
X+011850Y+013150
X+011900Y+013100
X+011850Y+013050
Y+013500
X+011900Y+013450
Y+013000
Y+013250
X+011850Y+013300
X+011900Y+014400
X+011850Y+014250
X+011900Y+014200
X+011850Y+014100
X+011900Y+014050
X+011850Y+014550
X+011900Y+014600
X+011850Y+014650
X+012891Y+005715
Y+005588
X+012383Y+006429
X+012637Y+006604
Y+006731
X+012383Y+006652
X+012319Y+006795
X+012383Y+006731
X+012256
X+012541Y+006604
X+012510Y+006731
X+012383Y+006556
X+012859Y+006604
X+012891Y+006731
X+012764Y+006604
Y+006731
X+012383Y+006334
X+012637Y+006985
X+012319Y+006922
X+012383Y+006985
X+012256
X+012319Y+007048
X+012764Y+006985
X+012319Y+007176
X+012383Y+007239
X+012256
X+012700Y+007557
X+012573Y+007366
X+012256Y+007493
X+012319Y+007430
Y+007557
X+012446
X+012383Y+007493
X+012319Y+007303
X+012827Y+007366
X+012764Y+007239
X+012637Y+007112
X+012383
X+012764
X+012319Y+007684
X+012446
X+012383Y+007747
X+012510
X+012827
X+012446Y+007811
X+012637Y+008001
X+012256
X+012446Y+007938
X+012383Y+008001
X+012637Y+008255
Y+008128
X+012383Y+008334
X+012256Y+008255
Y+008128
X+012446Y+008192
X+012383Y+008255
Y+008128
X+012510Y+008001
Y+008255
Y+008128
X+012446Y+008065
X+012891Y+008255
Y+008128
X+012764Y+008001
Y+008128
Y+008255
X+012637Y+007874
X+012256
X+012383
X+012510
X+012891
X+012383Y+008430
Y+008557
Y+008652
X+012319Y+009017
X+012446Y+008890
Y+009017
X+012319Y+008890
X+012383Y+008954
X+012637Y+009843
X+012510
X+012764
X+012319
X+012637Y+009970
X+012764
X+012510
X+012319
X+013335Y+006429
X+013018
X+013335Y+006652
X+013399Y+006731
X+013018Y+006652
X+013145Y+006731
X+013018
X+013272
X+013335Y+006556
X+013018
X+013335Y+006334
X+013018
X+013399Y+006985
X+013145
X+013018
X+013399Y+007239
X+013145
X+013018
X+013399Y+007366
X+013335Y+007557
X+013399Y+007493
X+013208Y+007557
X+013081
X+013335Y+007684
X+013399Y+007747
X+013208Y+007684
X+013081
X+013272Y+007747
X+013081Y+007811
X+013335Y+007938
X+013399Y+008001
X+013081Y+007938
X+013145Y+008001
X+013018
X+013335Y+008334
Y+008192
X+013399Y+008255
Y+008128
X+013018Y+008334
X+013081Y+008192
X+013145Y+008255
Y+008128
X+013018Y+008255
Y+008128
X+013272Y+008001
Y+008128
Y+008255
X+013335Y+008065
X+013081
X+013399Y+007874
X+013145
X+013018
X+013272
X+013335Y+008430
X+013018
X+013335Y+008557
X+013018
X+013335Y+008652
X+013018
Y+008954
X+013653Y+009017
Y+008890
X+013081
Y+009017
X+013208Y+009366
Y+009462
Y+009271
X+013526Y+009462
Y+009366
Y+009271
X+013367Y+009366
Y+009271
Y+009462
X+013526Y+009843
X+013399
X+013653
X+013526Y+009970
X+013653
X+013399
X+014192Y+007461
X+013970
Y+007969
X+014097
X+013970Y+008096
X+014097
X+013780Y+008890
Y+009017
X+014900Y+007500
X+015050Y+008450
X+015870Y+007500
X+015650
Y+006950
X+015350Y+007750
X+015900Y+007850
X+015800Y+008150
X+015750Y+008000
X+015700Y+007950
X+015850
X+015350Y+008050
X+015650Y+007700
X+015870
X+015400Y+008450
X+015800Y+012910
Y+012700
Y+013120
X+016100Y+007300
X+016050Y+007250
X+016500Y+007450
X+016450Y+007050
X+016660Y+007400
Y+006950
Y+007150
X+016500Y+007000
X+016150Y+008200
X+016250Y+008250
X+016350Y+008100
X+016400Y+007900
X+016300Y+007800
X+016200Y+008300
X+016660Y+007850
X+016680Y+010750
Y+012550
X+016600Y+012750
X+016310Y+012700
X+016680Y+013120
X+016310
X+016891Y+005937
X+017145
X+017018
X+017399
X+017272
X+016891Y+006239
X+017145
X+017018
X+017399
X+017272
X+017080Y+006950
X+017300
X+017080Y+007150
X+017300
X+017080Y+007400
X+017300
X+016880Y+006950
Y+007400
Y+007150
X+016910Y+007570
X+017080Y+008050
X+017300
X+017080Y+008300
X+017300
Y+007850
X+017080
X+016880
X+016910Y+007700
X+017250Y+010180
X+017450Y+010260
X+017150Y+010550
X+017250
X+017450Y+010400
X+017250
X+017050
Y+010550
X+017350
X+016830Y+010400
X+017050Y+010100
X+016830
X+017250Y+010950
X+017350Y+010850
X+017250
Y+010750
X+016900Y+010950
X+017350
X+017150Y+010750
Y+010950
X+017450Y+010850
X+017350Y+011250
X+017250
X+017350Y+011150
X+017150
X+017450
Y+011350
X+017150
X+017350Y+011050
X+017250
X+017450Y+010950
Y+010750
X+016900
X+017350Y+011350
X+017450Y+011250
Y+011050
X+017250Y+011150
Y+011350
X+017150Y+011250
X+017050
Y+011350
X+016900Y+011650
X+017150Y+011550
X+017450
X+016900Y+011950
X+017150Y+012050
X+017450
Y+011850
X+017150
X+017250Y+012050
X+017350
X+017250Y+011550
Y+011850
X+017350Y+011950
X+017450
X+017350Y+011850
Y+011750
X+017450
X+017250
X+017350Y+011550
X+017450Y+012450
Y+012350
X+016900
X+017150Y+012450
X+017450Y+012250
X+017150
X+017350Y+012450
X+017250Y+012750
X+016900
X+017350Y+012650
X+017050
X+017450Y+012550
X+016900
X+017150
X+017350
Y+012350
X+017250Y+012450
Y+012350
Y+012250
X+017350
X+017050Y+012450
X+017450Y+013250
Y+013150
X+016891Y+014335
X+017145
X+017018
X+017399
X+017272
X+016891Y+014637
X+017145
X+017018
X+017399
X+017272
X+017653Y+005937
X+017907
X+018161
X+018034
X+017780
X+017653Y+006239
X+017907
X+018161
X+018034
X+017780
X+018150Y+007450
X+017700Y+007350
X+018200Y+007300
X+017650Y+007250
X+017600Y+007050
Y+006950
X+017850Y+007550
X+018000Y+008200
X+017950Y+008150
X+018050Y+008100
X+017800Y+008050
X+018100Y+008000
X+017750Y+007950
X+017900Y+007850
X+018150Y+010260
Y+010400
X+017950
Y+010260
X+017750Y+010390
Y+010100
X+017650Y+010950
Y+010750
X+017750Y+010850
Y+010750
X+017850Y+010850
Y+010750
X+018150
X+017650Y+010850
X+018150
X+017950
X+017750Y+011250
X+018150Y+011350
X+017950
X+017750
X+017650Y+011050
X+017850
X+017750Y+011150
X+017650Y+011350
Y+011250
Y+011150
Y+011550
X+017750Y+011750
X+017950Y+011650
X+018150
X+017650Y+012050
X+017750
X+017950
X+017650Y+011950
X+018050Y+012050
X+018150Y+011950
X+017950
X+017750
Y+011850
X+017650
Y+011750
X+017750Y+011550
X+017650Y+012250
X+017850Y+012450
X+017950Y+012350
Y+012450
X+018050
X+017750Y+012350
X+017850Y+012250
X+017950
X+017650Y+012350
Y+012450
X+018050Y+012350
X+017850
X+017750Y+012250
Y+012650
X+017950
X+018150Y+012900
X+017950
X+017750Y+012550
X+017850
X+018050
X+017950
X+018150Y+013250
Y+013150
Y+013040
X+017950
Y+013150
X+017653Y+014335
X+017907
X+017780
X+018161
X+018034
X+017653Y+014637
X+017907
X+017780
X+018161
X+018034
X+018415Y+005937
X+018669
X+018542
X+018923
X+018796
X+018415Y+006239
X+018669
X+018542
X+018923
X+018796
X+018490Y+006920
Y+007560
X+018850Y+006920
Y+007000
Y+007080
Y+007160
Y+007240
Y+007480
Y+007400
Y+007320
X+018400Y+007200
X+018490Y+007960
Y+008120
X+018850Y+007720
Y+007960
Y+008200
Y+008280
Y+007880
Y+008040
Y+007800
X+018490Y+009000
Y+008840
Y+008600
X+018850Y+008440
Y+008830
Y+009010
Y+008760
Y+008920
Y+008680
Y+008520
Y+010260
X+018350
X+018850Y+010400
X+018350
X+018550
Y+010100
X+018350Y+010750
X+018850
X+018750Y+010850
Y+010750
X+018650
X+018450
Y+010850
X+018550
Y+010750
X+018650Y+010850
X+018850Y+010950
X+018750
X+018850Y+010850
X+018950Y+010950
Y+010750
Y+010850
X+018350
X+018750Y+011150
X+018850
X+018650Y+011250
X+018850Y+011350
X+018350
X+018850Y+011050
X+018550
X+018750
X+018950
X+018650Y+011150
Y+011050
X+018750Y+011350
X+018650
X+018950Y+011150
Y+011250
Y+011350
X+018550Y+011250
X+018750Y+011750
X+018850
X+018950
X+018550Y+011550
X+018850
X+018650
X+018350Y+011650
X+018450Y+012050
X+018550
X+018650
X+018850Y+011950
X+018750
X+018550
X+018950
Y+012050
X+018850
X+018750
X+018350
Y+011950
X+018850Y+011850
X+018650
X+018750
X+018950
X+018550
X+018750Y+011550
X+018950
X+018450Y+012250
Y+012350
Y+012450
X+018350
X+018850Y+012250
X+018650Y+012350
X+018550Y+012450
X+018750Y+012250
X+018850Y+012350
X+018950Y+012250
Y+012450
X+018650
Y+012250
X+018950Y+012350
X+018750
X+018550
X+018850Y+012450
X+018350Y+012350
X+018650Y+012750
X+018450Y+012650
X+018850
X+018650
X+018550Y+012900
X+018950
X+018350Y+012550
X+018450
X+018550
X+018950
X+018650
X+018750Y+013250
Y+013150
X+018950Y+013040
X+018550
X+018750Y+013350
X+018415Y+014335
X+018669
X+018542
X+018796
X+018923
X+018669Y+014637
X+018542
X+018796
X+018923
X+018415
X+019177Y+005937
X+019431
X+019685
X+019558
X+019304
X+019177Y+006239
X+019431
X+019685
X+019558
X+019304
X+019500Y+007320
Y+007160
Y+007080
Y+007000
Y+007240
Y+007560
Y+007480
Y+007400
Y+007800
Y+007720
Y+008280
Y+008200
Y+008120
Y+008040
Y+008520
Y+008440
Y+008920
Y+008760
Y+008680
Y+008600
X+019400Y+010550
X+019250
X+019400Y+010400
X+019700Y+010550
X+019350Y+010100
Y+010250
X+019550Y+010100
Y+010250
X+019750Y+010100
Y+010250
X+019650Y+010950
X+019150
Y+010750
X+019400Y+010950
Y+010750
X+019620
X+019540Y+010950
X+019750Y+011150
X+019150
X+019750Y+010950
X+019650Y+011150
X+019400Y+011650
X+019540
X+019400Y+011950
X+019150Y+012050
X+019650Y+011950
X+019750
X+019540
X+019150Y+011850
X+019650Y+011650
X+019400Y+012350
X+019150Y+012450
X+019650Y+012350
X+019150Y+012250
X+019540Y+012350
X+019150Y+012750
X+019250
Y+012650
X+019400Y+012550
X+019620
X+019150Y+012900
X+019350
X+019150Y+013250
Y+013120
X+019350Y+013200
X+019177Y+014335
X+019304
X+019431
X+019558
X+019685
X+019177Y+014637
X+019304
X+019431
X+019558
X+019685
X+019860Y+006920
Y+008120
Y+007960
Y+009000
Y+008840
Y+008600
X+007330Y+013730
X+007880Y+010630
X+007910Y+012940
X+008720Y+006830
X+009779Y+006096
X+009210Y+013750
X+009850
X+010050
Y+014510
X+010480Y+014500
X+010050Y+012940
X+010980Y+006100
X+011200
X+011130Y+012200
X+010950
X+011050
X+012002Y+006858
X+012129Y+007620
X+012002
X+011850Y+012200
X+011900Y+011450
Y+014500
X+011850Y+014450
X+012637Y+006858
X+012383
X+012764
X+012256Y+007620
X+012383
X+012637Y+008382
X+012541
X+012859
X+012764
X+013399Y+006858
Y+007620
X+013018
X+013145
X+013272
X+014192Y+007588
X+013970
X+016600Y+007635
X+017080Y+007650
X+017300
X+017150Y+010650
X+017250
X+017450
X+017350
X+016900Y+011450
X+017450Y+012150
X+017350
X+017450Y+011450
X+017350
X+017250
X+017750Y+010650
X+017950
X+017750Y+011450
X+017650Y+012150
X+017750
X+017850
X+017950
X+017650Y+011450
X+018490Y+008360
X+018850Y+007640
Y+008360
X+018350Y+007600
X+018450Y+010650
X+018850
X+018650
X+018950
X+018550Y+012150
X+018650
X+018950
X+018450
X+018750
X+018550Y+011450
X+018650
X+018950
X+018850
X+018750
X+019500Y+007640
X+019400Y+011450
X+019540
X+019750Y+012150
X+019620
X+019650Y+011450
X+019750
X+019150
X+019860Y+008360
X+009150Y+011050
Y+010950
Y+010750
X+008360Y+012600
Y+012420
Y+014000
Y+013820
X+012192Y+007557
Y+007366
Y+007112
Y+007684
Y+007811
Y+007938
Y+008192
Y+008065
X+009900Y+009410
Y+009280
X+012192Y+009462
Y+009366
Y+009271
Y+009843
Y+009970
X+010700Y+011800
X+010690Y+012380
Y+012600
X+010650Y+013650
Y+013430
X+009920Y+013310
X+010700Y+014030
Y+014120
X+010660Y+014720
X+012954Y+007366
Y+007112
X+013748Y+007461
X+015200Y+008050
X+012954Y+007684
Y+008192
Y+008065
X+013748Y+007811
X+012954Y+009017
Y+008890
X+013716Y+008954
X+017526Y+005937
X+018288
X+016764
X+017526Y+006239
X+018288
X+016764
X+018250Y+007500
X+016000Y+007100
X+018300Y+007900
X+017550Y+010850
Y+010750
X+018250
Y+010850
Y+010950
X+017550
X+016760
X+017550Y+011050
Y+011350
Y+011150
Y+011250
X+016760Y+011650
X+018250Y+012050
X+017550
X+016760Y+011950
X+017550Y+011850
Y+011950
Y+011750
Y+011550
Y+012250
Y+012350
Y+012450
X+018250Y+012350
Y+012450
Y+012250
X+016760Y+012350
X+018250Y+012650
X+017550
Y+012900
Y+012550
X+016020Y+012910
X+017550Y+013250
Y+013150
Y+013040
X+016764Y+014335
X+017526
X+018288
X+016764Y+014637
X+017526
X+018288
X+019050Y+005937
X+019812
X+019050Y+006239
X+019812
X+019050Y+010180
Y+010400
Y+010950
Y+010850
Y+010750
Y+011150
Y+011050
X+019850Y+010950
X+019050Y+011250
Y+011350
Y+011750
X+019850Y+011950
X+019050
Y+012050
Y+011850
Y+011550
Y+012250
Y+012350
Y+012450
Y+012650
Y+012550
Y+014335
X+019812
Y+014637
X+019050
X+009150Y+010650
X+009900Y+009150
X+012192Y+006858
X+012954
X+013748Y+007588
X+018250Y+010650
X+017550
X+016760Y+011450
X+017550Y+012150
X+018250
X+017550Y+011450
X+019850Y+012150
X+019050
X+019850Y+011450
X+019050
T02
X+020900Y+009300
Y+009100
Y+009500
Y+008900
Y+008700
Y+008500
Y+008100
Y+007900
Y+007700
Y+007300
Y+007100
X+021100Y+009300
Y+009100
Y+009500
Y+008900
Y+008700
Y+008500
Y+008100
Y+007900
Y+007700
Y+007300
Y+007100
X+020900Y+008300
Y+007500
X+021100Y+008300
Y+007500
X+020900Y+013300
Y+013100
Y+013500
Y+012900
Y+012700
Y+012500
Y+012100
Y+011900
Y+011700
Y+011300
Y+011100
X+021100Y+013300
Y+013100
Y+013500
Y+012900
Y+012700
Y+012500
Y+012100
Y+011900
Y+011700
Y+011300
Y+011100
X+020900Y+012300
Y+011500
X+021100Y+012300
Y+011500
X+007700Y+009450
Y+009050
Y+009250
Y+009850
X+007500Y+009450
Y+009050
Y+009250
Y+009850
X+007700Y+009650
X+007500
X+007731Y+006754
X+007477
X+008239
X+007731Y+007089
X+007477
X+008239
X+007985Y+006754
Y+007089
T03
X+007450Y+011010
Y+010570
X+010554Y+009188
Y+008934
Y+009950
Y+009696
X+010300Y+009188
Y+008934
Y+009950
Y+009696
X+010554Y+009442
X+010300
X+008573Y+014097
Y+013843
Y+014351
X+008827Y+014224
Y+013970
X+008573Y+013589
X+008827Y+013462
X+008573Y+012700
Y+012446
X+008827Y+012827
Y+012573
Y+012319
Y+012065
X+008573Y+012954
X+008827Y+013716
X+008573Y+012192
X+022352Y+006350
X+022098
X+022352Y+007112
Y+006858
X+022098
Y+007112
Y+007874
X+022352Y+007620
Y+007874
X+022098Y+007620
Y+008636
Y+008382
X+022352
Y+008636
Y+009144
Y+009398
X+022098Y+009144
Y+009398
X+022352Y+009906
Y+010160
X+022098Y+009906
Y+010160
X+022352Y+010668
Y+010922
X+022098Y+010668
Y+010922
X+022352Y+011430
Y+011684
X+022098Y+011430
Y+011684
Y+012446
X+022352Y+012192
Y+012446
X+022098Y+012192
Y+012954
Y+013208
X+022352Y+012954
Y+013208
Y+013970
Y+013716
X+022098Y+013970
Y+013716
X+022352Y+007366
Y+006604
X+022098
Y+007366
X+022352Y+009652
Y+010414
X+022098Y+009652
Y+010414
Y+008890
Y+008128
X+022352
Y+008890
X+022098Y+012700
Y+013462
X+022352Y+011176
Y+011938
Y+012700
Y+013462
X+022098Y+011176
Y+011938
Y+014224
X+021844Y+006350
Y+007112
Y+006858
Y+007620
Y+007874
Y+008636
Y+008382
Y+009398
Y+009144
Y+010160
Y+009906
Y+010922
Y+010668
Y+011684
Y+011430
Y+012192
Y+012446
Y+012954
Y+013208
Y+013970
Y+013716
Y+007366
Y+006604
Y+010414
Y+009652
Y+008890
Y+008128
Y+011938
Y+011176
Y+012700
Y+013462
Y+014224
T04
X+007525Y+014303
Y+013510
X+007715Y+013160
X+007525Y+013256
Y+011859
X+007715Y+012906
X+007525Y+014557
Y+012113
X+022352Y+014224
X+012446Y+006096
X+012954
X+012700
X+007747Y+005842
Y+006350
X+008255Y+005842
Y+006350
Y+006096
T05
X+011811Y+009747
X+012637Y+009335
X+014351Y+007874
X+014500Y+006100
X+013145Y+009747
X+014500Y+014500
X+009350Y+013300
X+015450Y+012900
T06
X+020033Y+014487
X+016543
X+020033
X+016543
X+020033Y+006087
X+016543
X+020033
X+016543
T07
X+008242Y+014755
X+008966Y+013208
X+008242Y+011661
T08
X+020788Y+006087
Y+014487
X+022606Y+014732
Y+005842
X+015788Y+006087
Y+014487
T09
X+007938Y+011938
Y+014478
T00
M30
