G04*
G04 #@! TF.GenerationSoftware,Altium Limited,Altium Designer,19.0.10 (269)*
G04*
G04 Layer_Physical_Order=2*
G04 Layer_Color=32768*
%FSLAX44Y44*%
%MOMM*%
G71*
G01*
G75*
%ADD11C,0.2500*%
%ADD49C,0.5000*%
%ADD57C,1.0160*%
%ADD58C,2.6160*%
%ADD59C,2.0160*%
G04:AMPARAMS|DCode=60|XSize=2mm|YSize=2mm|CornerRadius=0mm|HoleSize=0mm|Usage=FLASHONLY|Rotation=0.000|XOffset=0mm|YOffset=0mm|HoleType=Round|Shape=Relief|Width=0.2mm|Gap=0.25mm|Entries=4|*
%AMTHD60*
7,0,0,2.0000,1.5000,0.2000,45*
%
%ADD60THD60*%
%ADD61C,2.5160*%
G04:AMPARAMS|DCode=62|XSize=2.5mm|YSize=2.5mm|CornerRadius=0mm|HoleSize=0mm|Usage=FLASHONLY|Rotation=0.000|XOffset=0mm|YOffset=0mm|HoleType=Round|Shape=Relief|Width=0.2mm|Gap=0.25mm|Entries=4|*
%AMTHD62*
7,0,0,2.5000,2.0000,0.2000,45*
%
%ADD62THD62*%
G04:AMPARAMS|DCode=63|XSize=1.15mm|YSize=1.15mm|CornerRadius=0mm|HoleSize=0mm|Usage=FLASHONLY|Rotation=0.000|XOffset=0mm|YOffset=0mm|HoleType=Round|Shape=Relief|Width=0.2mm|Gap=0.25mm|Entries=4|*
%AMTHD63*
7,0,0,1.1500,0.6500,0.2000,45*
%
%ADD63THD63*%
%ADD64C,1.1660*%
D11*
X0Y0D02*
X1332000D01*
Y1000000D01*
X0D02*
X1332000D01*
X0Y0D02*
Y1000000D01*
D49*
X930000Y145000D02*
X1018000D01*
X930000D02*
Y220000D01*
X909000D02*
X930000D01*
X909000Y145000D02*
Y220000D01*
X814000Y145000D02*
Y220000D01*
X835000D01*
Y145000D02*
Y220000D01*
X740000Y145000D02*
X814000D01*
X835000D02*
X909000D01*
X740000D02*
Y235000D01*
X620000D02*
X740000D01*
X1018000Y0D02*
Y145000D01*
X265000Y235000D02*
X620000D01*
X240000Y210000D02*
X265000Y235000D01*
X210000Y180000D02*
X240000Y210000D01*
X210000Y0D02*
Y180000D01*
D57*
X0Y0D02*
Y1000000D01*
X1332000D01*
Y0D02*
Y1000000D01*
X0Y0D02*
X1332000D01*
D58*
X1104500Y920000D02*
D03*
X755500D02*
D03*
X1104500Y80000D02*
D03*
X755500D02*
D03*
D59*
X299200Y92700D02*
D03*
X350000D02*
D03*
X324600D02*
D03*
X400800D02*
D03*
X299200Y67300D02*
D03*
X350000D02*
D03*
X324600D02*
D03*
X375400Y92700D02*
D03*
Y67300D02*
D03*
X467402Y907002D02*
D03*
X518200Y907000D02*
D03*
X492800D02*
D03*
X569000D02*
D03*
X619800D02*
D03*
X594400D02*
D03*
X670600D02*
D03*
X696000D02*
D03*
X467400Y881600D02*
D03*
X518200D02*
D03*
X492800D02*
D03*
X569000D02*
D03*
X619800D02*
D03*
X594400D02*
D03*
X670600D02*
D03*
X696000D02*
D03*
X543600Y907000D02*
D03*
X645200D02*
D03*
X543600Y881600D02*
D03*
X645200D02*
D03*
X134202Y907002D02*
D03*
X185000Y907000D02*
D03*
X159600D02*
D03*
X235800D02*
D03*
X286600D02*
D03*
X261200D02*
D03*
X337400D02*
D03*
X362800D02*
D03*
X134200Y881600D02*
D03*
X185000D02*
D03*
X159600D02*
D03*
X235800D02*
D03*
X286600D02*
D03*
X261200D02*
D03*
X337400D02*
D03*
X362800D02*
D03*
X210400Y907000D02*
D03*
X312000D02*
D03*
X210400Y881600D02*
D03*
X312000D02*
D03*
X1150000Y845000D02*
D03*
Y902000D02*
D03*
X1059000Y685000D02*
D03*
X681000Y219000D02*
D03*
X795000Y220000D02*
D03*
D60*
X400800Y67300D02*
D03*
X715000Y220000D02*
D03*
X760000D02*
D03*
D61*
X44000Y891000D02*
D03*
Y771000D02*
D03*
Y651000D02*
D03*
Y531000D02*
D03*
Y411000D02*
D03*
Y291000D02*
D03*
Y171000D02*
D03*
Y51000D02*
D03*
D62*
X18500Y865500D02*
D03*
Y916500D02*
D03*
X69500Y865500D02*
D03*
Y916500D02*
D03*
X18500Y745500D02*
D03*
Y796500D02*
D03*
X69500Y745500D02*
D03*
Y796500D02*
D03*
X18500Y625500D02*
D03*
Y676500D02*
D03*
X69500Y625500D02*
D03*
Y676500D02*
D03*
X18500Y505500D02*
D03*
Y556500D02*
D03*
X69500Y505500D02*
D03*
Y556500D02*
D03*
X18500Y385500D02*
D03*
Y436500D02*
D03*
X69500Y385500D02*
D03*
Y436500D02*
D03*
X18500Y265500D02*
D03*
Y316500D02*
D03*
X69500Y265500D02*
D03*
Y316500D02*
D03*
X18500Y145500D02*
D03*
Y196500D02*
D03*
X69500Y145500D02*
D03*
Y196500D02*
D03*
X18500Y25500D02*
D03*
Y76500D02*
D03*
X69500Y25500D02*
D03*
Y76500D02*
D03*
D63*
X1208000Y550000D02*
D03*
X1026000Y134000D02*
D03*
X1061000D02*
D03*
X825000Y230000D02*
D03*
X846000Y192000D02*
D03*
X825000Y175000D02*
D03*
X920000Y230000D02*
D03*
Y175000D02*
D03*
X941000Y192000D02*
D03*
X650000Y80000D02*
D03*
X630000D02*
D03*
X679998Y79998D02*
D03*
X620001Y24001D02*
D03*
X600001D02*
D03*
X580000Y24000D02*
D03*
X559999Y23999D02*
D03*
X539998Y23998D02*
D03*
X1196000Y610000D02*
D03*
X1186000Y644000D02*
D03*
Y626000D02*
D03*
X1229000Y675000D02*
D03*
X1166000Y701000D02*
D03*
X1127000Y655000D02*
D03*
X1111000Y661000D02*
D03*
X1161000Y952000D02*
D03*
X1229000Y920000D02*
D03*
X953000Y131000D02*
D03*
X858000Y131000D02*
D03*
X775000Y129000D02*
D03*
X715000Y147000D02*
D03*
X730000Y162000D02*
D03*
X267000Y152000D02*
D03*
X482000Y219000D02*
D03*
X239000Y193000D02*
D03*
X1006200Y95000D02*
D03*
Y65000D02*
D03*
X891900D02*
D03*
Y95000D02*
D03*
X658000Y797000D02*
D03*
X775000Y963000D02*
D03*
X420000Y769000D02*
D03*
X82000Y703000D02*
D03*
X819000Y902000D02*
D03*
X854000D02*
D03*
X889000D02*
D03*
X924000D02*
D03*
X959000D02*
D03*
X994000D02*
D03*
X1029000D02*
D03*
X1064000D02*
D03*
X1064000Y972000D02*
D03*
X1029000D02*
D03*
X994000D02*
D03*
X959000D02*
D03*
X924000D02*
D03*
X889000D02*
D03*
X854000D02*
D03*
X819000D02*
D03*
X784000Y902000D02*
D03*
X732000Y583000D02*
D03*
X740000Y611000D02*
D03*
X730000D02*
D03*
Y597000D02*
D03*
X732000Y797000D02*
D03*
X740000Y769000D02*
D03*
X730000D02*
D03*
Y783000D02*
D03*
X818000Y583000D02*
D03*
X810000Y611000D02*
D03*
X820000D02*
D03*
Y597000D02*
D03*
Y783000D02*
D03*
Y769000D02*
D03*
X810000D02*
D03*
X818000Y797000D02*
D03*
X712000Y699000D02*
D03*
X872000D02*
D03*
X978000Y797000D02*
D03*
X970000Y769000D02*
D03*
X980000D02*
D03*
Y783000D02*
D03*
Y597000D02*
D03*
Y611000D02*
D03*
X970000D02*
D03*
X978000Y583000D02*
D03*
X890000Y783000D02*
D03*
Y769000D02*
D03*
X900000D02*
D03*
X892000Y797000D02*
D03*
X890000Y597000D02*
D03*
Y611000D02*
D03*
X900000D02*
D03*
X892000Y583000D02*
D03*
X572000D02*
D03*
X580000Y611000D02*
D03*
X570000D02*
D03*
Y597000D02*
D03*
X572000Y797000D02*
D03*
X580000Y769000D02*
D03*
X570000D02*
D03*
Y783000D02*
D03*
X658000Y583000D02*
D03*
X650000Y611000D02*
D03*
X660000D02*
D03*
Y597000D02*
D03*
Y783000D02*
D03*
Y769000D02*
D03*
X650000D02*
D03*
X552000Y699000D02*
D03*
X392000D02*
D03*
X232000Y698000D02*
D03*
X498000Y797000D02*
D03*
X490000Y769000D02*
D03*
X500000D02*
D03*
Y783000D02*
D03*
Y597000D02*
D03*
Y611000D02*
D03*
X490000D02*
D03*
X498000Y583000D02*
D03*
X410000Y783000D02*
D03*
Y769000D02*
D03*
X412000Y797000D02*
D03*
X410000Y597000D02*
D03*
Y611000D02*
D03*
X420000D02*
D03*
X412000Y583000D02*
D03*
X252000D02*
D03*
X260000Y611000D02*
D03*
X250000D02*
D03*
Y597000D02*
D03*
X252000Y797000D02*
D03*
X260000Y769000D02*
D03*
X250000D02*
D03*
Y783000D02*
D03*
X338000Y583000D02*
D03*
X330000Y611000D02*
D03*
X340000D02*
D03*
Y597000D02*
D03*
Y783000D02*
D03*
Y769000D02*
D03*
X330000D02*
D03*
X338000Y797000D02*
D03*
X136000Y633000D02*
D03*
X154000D02*
D03*
Y789000D02*
D03*
X136000D02*
D03*
X209000Y223000D02*
D03*
X136000Y309000D02*
D03*
X154000D02*
D03*
Y153000D02*
D03*
X136000D02*
D03*
D64*
X1042000Y134000D02*
D03*
X1077000D02*
D03*
X1077000Y85000D02*
D03*
X1067000D02*
D03*
X1057000D02*
D03*
X1042000D02*
D03*
X1032000D02*
D03*
X1022000D02*
D03*
X825000Y210000D02*
D03*
X920000D02*
D03*
X526000Y176000D02*
D03*
X679998Y135998D02*
D03*
X815000Y95000D02*
D03*
X803000D02*
D03*
X790000D02*
D03*
X1166000Y717000D02*
D03*
X1224000Y550000D02*
D03*
X1060000Y923000D02*
D03*
X1025000D02*
D03*
X990000D02*
D03*
X955000D02*
D03*
X920000D02*
D03*
X885000D02*
D03*
X850000D02*
D03*
X780000Y923000D02*
D03*
X815000Y923000D02*
D03*
X1060000Y853000D02*
D03*
X1025000Y853000D02*
D03*
X990000D02*
D03*
X955000Y853000D02*
D03*
X920000D02*
D03*
X885000D02*
D03*
X850000D02*
D03*
X815000Y853000D02*
D03*
X780000Y853000D02*
D03*
X1059000Y560000D02*
D03*
Y820000D02*
D03*
X945000Y583000D02*
D03*
X785000D02*
D03*
X625000D02*
D03*
X465000D02*
D03*
X305000D02*
D03*
X945000Y797000D02*
D03*
X785000D02*
D03*
X625000D02*
D03*
X465000D02*
D03*
X305000D02*
D03*
X969000Y131000D02*
D03*
X874000D02*
D03*
X930000Y120000D02*
D03*
X879200D02*
D03*
X866500D02*
D03*
X841100D02*
D03*
X904600D02*
D03*
X917300D02*
D03*
X795000Y129000D02*
D03*
X695000Y147000D02*
D03*
X680000Y162000D02*
D03*
X960000Y325000D02*
D03*
X955000Y315000D02*
D03*
X950000Y305000D02*
D03*
X910000Y335000D02*
D03*
X905000Y295000D02*
D03*
X900000Y285000D02*
D03*
X895000Y275000D02*
D03*
X888000Y265000D02*
D03*
X519998Y23998D02*
D03*
X519997Y79997D02*
D03*
X539997D02*
D03*
X559997Y79998D02*
D03*
X579998Y79998D02*
D03*
X599999Y79999D02*
D03*
X619999D02*
D03*
X640000Y80000D02*
D03*
X660000D02*
D03*
X503000Y219000D02*
D03*
X260000Y194000D02*
D03*
X853800Y65000D02*
D03*
Y95000D02*
D03*
X1070000Y923000D02*
D03*
X1080000D02*
D03*
X1035000D02*
D03*
X1045000D02*
D03*
X1000000D02*
D03*
X1010000D02*
D03*
X965000D02*
D03*
X975000D02*
D03*
X930000D02*
D03*
X940000D02*
D03*
X895000D02*
D03*
X905000D02*
D03*
X860000D02*
D03*
X870000D02*
D03*
X825000D02*
D03*
X835000D02*
D03*
X790000D02*
D03*
X800000D02*
D03*
X1070000Y853000D02*
D03*
X1080000D02*
D03*
X1035000Y853000D02*
D03*
X1045000D02*
D03*
X1000000D02*
D03*
X1010000D02*
D03*
X965000Y853000D02*
D03*
X975000D02*
D03*
X930000D02*
D03*
X940000D02*
D03*
X895000D02*
D03*
X905000D02*
D03*
X860000D02*
D03*
X870000D02*
D03*
X825000Y853000D02*
D03*
X835000D02*
D03*
X443000Y620000D02*
D03*
X792000Y970000D02*
D03*
X800000Y853000D02*
D03*
X790000D02*
D03*
X443000Y760000D02*
D03*
X923000Y620000D02*
D03*
X909000D02*
D03*
X961000Y620000D02*
D03*
X947000D02*
D03*
X763000D02*
D03*
X749000D02*
D03*
X801000Y620000D02*
D03*
X787000D02*
D03*
X603000Y620000D02*
D03*
X589000D02*
D03*
X641000Y620000D02*
D03*
X627000D02*
D03*
X467000D02*
D03*
X481000D02*
D03*
X429000Y620000D02*
D03*
X307000Y620000D02*
D03*
X321000D02*
D03*
X283000D02*
D03*
X269000D02*
D03*
X179000Y815000D02*
D03*
X82000Y719000D02*
D03*
X835000Y902000D02*
D03*
X870000D02*
D03*
X905000D02*
D03*
X940000D02*
D03*
X975000D02*
D03*
X1010000D02*
D03*
X1045000D02*
D03*
X1080000D02*
D03*
X1080000Y972000D02*
D03*
X1045000D02*
D03*
X1010000D02*
D03*
X975000D02*
D03*
X940000D02*
D03*
X905000D02*
D03*
X870000D02*
D03*
X835000D02*
D03*
X800000Y902000D02*
D03*
X763000Y760000D02*
D03*
X749000D02*
D03*
X801000D02*
D03*
X787000D02*
D03*
X712000Y683000D02*
D03*
X872000D02*
D03*
X947000Y760000D02*
D03*
X961000D02*
D03*
X909000D02*
D03*
X923000D02*
D03*
X603000D02*
D03*
X589000D02*
D03*
X641000D02*
D03*
X627000D02*
D03*
X552000Y683000D02*
D03*
X392000D02*
D03*
X232000Y682000D02*
D03*
X467000Y760000D02*
D03*
X481000D02*
D03*
X429000D02*
D03*
X283000D02*
D03*
X269000D02*
D03*
X321000D02*
D03*
X307000D02*
D03*
X183000Y127000D02*
D03*
X111000D02*
D03*
X129000Y335000D02*
D03*
X201000D02*
D03*
X129000Y815000D02*
D03*
X183000Y607000D02*
D03*
X111000D02*
D03*
X209000Y239000D02*
D03*
M02*
