G04*
G04 #@! TF.GenerationSoftware,Altium Limited,Altium Designer,19.0.10 (269)*
G04*
G04 Layer_Color=65535*
%FSLAX44Y44*%
%MOMM*%
G71*
G01*
G75*
%ADD10C,0.2540*%
%ADD11C,0.2500*%
%ADD12C,0.1500*%
%ADD13C,0.1524*%
G36*
X246980Y50790D02*
Y34130D01*
X263640Y34130D01*
X246980Y50790D01*
D02*
G37*
G36*
X717499Y118499D02*
Y131499D01*
X704499Y131499D01*
X717499Y118499D01*
D02*
G37*
G36*
X82130Y885560D02*
Y868900D01*
X98790Y868900D01*
X82130Y885560D01*
D02*
G37*
G36*
X415330D02*
Y868900D01*
X431990Y868900D01*
X415330Y885560D01*
D02*
G37*
G36*
X801906Y306577D02*
X799408Y305827D01*
Y300497D01*
X801906Y299747D01*
Y294944D01*
X786693Y300636D01*
Y305799D01*
X801906Y311518D01*
Y306577D01*
D02*
G37*
G36*
X804572Y284172D02*
X803517D01*
Y295028D01*
X804572D01*
Y284172D01*
D02*
G37*
G36*
X797548Y283395D02*
X797881Y283340D01*
X798297Y283256D01*
X798714Y283118D01*
X799158Y282951D01*
X799630Y282701D01*
X799685Y282673D01*
X799824Y282562D01*
X800046Y282423D01*
X800324Y282201D01*
X800629Y281896D01*
X800935Y281563D01*
X801240Y281174D01*
X801518Y280702D01*
Y280674D01*
X801545Y280647D01*
X801573Y280563D01*
X801629Y280452D01*
X801656Y280341D01*
X801712Y280175D01*
X801823Y279786D01*
X801962Y279286D01*
X802045Y278703D01*
X802128Y278009D01*
X802156Y277260D01*
Y276927D01*
X802128Y276760D01*
Y276538D01*
X802101Y276094D01*
X802045Y275566D01*
X801962Y275011D01*
X801851Y274484D01*
X801684Y273984D01*
X801656Y273928D01*
X801601Y273790D01*
X801490Y273567D01*
X801323Y273290D01*
X801129Y272984D01*
X800879Y272651D01*
X800602Y272318D01*
X800268Y272013D01*
X800213Y271985D01*
X800102Y271874D01*
X799908Y271735D01*
X799630Y271569D01*
X799269Y271374D01*
X798880Y271208D01*
X798408Y271013D01*
X797909Y270847D01*
X797326Y275067D01*
X797381D01*
X797520Y275122D01*
X797742Y275178D01*
X798020Y275261D01*
X798603Y275483D01*
X798880Y275650D01*
X799102Y275816D01*
X799130Y275844D01*
X799186Y275899D01*
X799241Y276038D01*
X799324Y276177D01*
X799436Y276371D01*
X799491Y276621D01*
X799547Y276871D01*
X799574Y277176D01*
Y277315D01*
X799547Y277482D01*
X799491Y277676D01*
X799436Y277898D01*
X799324Y278148D01*
X799158Y278370D01*
X798964Y278592D01*
X798936Y278620D01*
X798852Y278676D01*
X798714Y278787D01*
X798519Y278898D01*
X798297Y278981D01*
X797992Y279092D01*
X797659Y279148D01*
X797298Y279175D01*
X797242D01*
X797131D01*
X796937Y279148D01*
X796687Y279120D01*
X796437Y279037D01*
X796160Y278953D01*
X795910Y278814D01*
X795660Y278620D01*
X795632Y278592D01*
X795577Y278509D01*
X795465Y278398D01*
X795355Y278231D01*
X795271Y278009D01*
X795160Y277759D01*
X795105Y277454D01*
X795077Y277121D01*
Y276927D01*
X795105Y276760D01*
X795132Y276566D01*
X795188Y276344D01*
X795243Y276066D01*
X795327Y275761D01*
X792328Y275955D01*
Y276149D01*
X792356Y276344D01*
Y276649D01*
X792328Y276815D01*
X792301Y277010D01*
X792245Y277204D01*
X792134Y277454D01*
X792023Y277676D01*
X791856Y277898D01*
X791829Y277926D01*
X791773Y277982D01*
X791662Y278093D01*
X791496Y278204D01*
X791329Y278287D01*
X791107Y278398D01*
X790857Y278454D01*
X790607Y278481D01*
X790579D01*
X790496D01*
X790357Y278454D01*
X790219Y278426D01*
X790024Y278370D01*
X789858Y278315D01*
X789663Y278204D01*
X789497Y278065D01*
X789469Y278037D01*
X789441Y277982D01*
X789358Y277898D01*
X789275Y277759D01*
X789219Y277593D01*
X789136Y277399D01*
X789108Y277176D01*
X789080Y276899D01*
Y276788D01*
X789108Y276649D01*
X789136Y276455D01*
X789191Y276260D01*
X789275Y276066D01*
X789386Y275872D01*
X789552Y275677D01*
X789580Y275650D01*
X789635Y275594D01*
X789746Y275539D01*
X789913Y275427D01*
X790135Y275344D01*
X790385Y275233D01*
X790718Y275150D01*
X791107Y275067D01*
X790413Y271069D01*
X790385D01*
X790330Y271096D01*
X790219Y271124D01*
X790107Y271152D01*
X789941Y271235D01*
X789746Y271291D01*
X789330Y271485D01*
X788858Y271735D01*
X788358Y272068D01*
X787886Y272457D01*
X787470Y272957D01*
Y272984D01*
X787414Y273012D01*
X787387Y273095D01*
X787303Y273234D01*
X787220Y273373D01*
X787137Y273540D01*
X787054Y273762D01*
X786943Y274012D01*
X786859Y274261D01*
X786776Y274567D01*
X786693Y274900D01*
X786609Y275261D01*
X786526Y275650D01*
X786498Y276066D01*
X786443Y276982D01*
Y277260D01*
X786471Y277482D01*
Y277732D01*
X786498Y278009D01*
X786526Y278315D01*
X786582Y278648D01*
X786720Y279370D01*
X786915Y280064D01*
X787192Y280758D01*
X787359Y281035D01*
X787553Y281313D01*
Y281341D01*
X787609Y281369D01*
X787748Y281535D01*
X787998Y281730D01*
X788331Y281979D01*
X788719Y282229D01*
X789191Y282451D01*
X789746Y282590D01*
X790052Y282618D01*
X790357Y282646D01*
X790413D01*
X790524D01*
X790718Y282618D01*
X790940Y282590D01*
X791218Y282507D01*
X791523Y282423D01*
X791829Y282285D01*
X792134Y282090D01*
X792162Y282063D01*
X792273Y281979D01*
X792412Y281868D01*
X792606Y281702D01*
X792800Y281480D01*
X793050Y281202D01*
X793300Y280869D01*
X793522Y280480D01*
Y280508D01*
X793550Y280619D01*
X793605Y280786D01*
X793661Y280980D01*
X793828Y281396D01*
X793911Y281618D01*
X794022Y281813D01*
X794050Y281840D01*
X794105Y281924D01*
X794216Y282063D01*
X794355Y282229D01*
X794522Y282423D01*
X794744Y282618D01*
X794994Y282812D01*
X795271Y282979D01*
X795299Y283006D01*
X795410Y283062D01*
X795577Y283118D01*
X795771Y283201D01*
X796049Y283284D01*
X796354Y283367D01*
X796687Y283395D01*
X797076Y283423D01*
X797104D01*
X797131D01*
X797298D01*
X797548Y283395D01*
D02*
G37*
G36*
X801906Y264434D02*
Y259353D01*
X786693Y253606D01*
Y258520D01*
X797659Y261935D01*
X786693Y265322D01*
Y270097D01*
X801906Y264434D01*
D02*
G37*
G36*
X797548Y252662D02*
X797881Y252607D01*
X798297Y252524D01*
X798714Y252385D01*
X799158Y252218D01*
X799630Y251968D01*
X799685Y251941D01*
X799824Y251830D01*
X800046Y251691D01*
X800324Y251469D01*
X800629Y251163D01*
X800935Y250830D01*
X801240Y250441D01*
X801518Y249970D01*
Y249942D01*
X801545Y249914D01*
X801573Y249831D01*
X801629Y249720D01*
X801656Y249609D01*
X801712Y249442D01*
X801823Y249053D01*
X801962Y248554D01*
X802045Y247971D01*
X802128Y247277D01*
X802156Y246527D01*
Y246194D01*
X802128Y246027D01*
Y245805D01*
X802101Y245361D01*
X802045Y244834D01*
X801962Y244278D01*
X801851Y243751D01*
X801684Y243251D01*
X801656Y243195D01*
X801601Y243057D01*
X801490Y242835D01*
X801323Y242557D01*
X801129Y242252D01*
X800879Y241919D01*
X800602Y241585D01*
X800268Y241280D01*
X800213Y241252D01*
X800102Y241141D01*
X799908Y241002D01*
X799630Y240836D01*
X799269Y240641D01*
X798880Y240475D01*
X798408Y240280D01*
X797909Y240114D01*
X797326Y244334D01*
X797381D01*
X797520Y244389D01*
X797742Y244445D01*
X798020Y244528D01*
X798603Y244750D01*
X798880Y244917D01*
X799102Y245083D01*
X799130Y245111D01*
X799186Y245167D01*
X799241Y245306D01*
X799324Y245444D01*
X799436Y245639D01*
X799491Y245889D01*
X799547Y246138D01*
X799574Y246444D01*
Y246583D01*
X799547Y246749D01*
X799491Y246943D01*
X799436Y247166D01*
X799324Y247415D01*
X799158Y247638D01*
X798964Y247860D01*
X798936Y247887D01*
X798852Y247943D01*
X798714Y248054D01*
X798519Y248165D01*
X798297Y248248D01*
X797992Y248359D01*
X797659Y248415D01*
X797298Y248443D01*
X797242D01*
X797131D01*
X796937Y248415D01*
X796687Y248387D01*
X796437Y248304D01*
X796160Y248221D01*
X795910Y248082D01*
X795660Y247887D01*
X795632Y247860D01*
X795577Y247776D01*
X795465Y247665D01*
X795355Y247499D01*
X795271Y247277D01*
X795160Y247027D01*
X795105Y246721D01*
X795077Y246388D01*
Y246194D01*
X795105Y246027D01*
X795132Y245833D01*
X795188Y245611D01*
X795243Y245333D01*
X795327Y245028D01*
X792328Y245222D01*
Y245417D01*
X792356Y245611D01*
Y245916D01*
X792328Y246083D01*
X792301Y246277D01*
X792245Y246472D01*
X792134Y246721D01*
X792023Y246943D01*
X791856Y247166D01*
X791829Y247193D01*
X791773Y247249D01*
X791662Y247360D01*
X791496Y247471D01*
X791329Y247554D01*
X791107Y247665D01*
X790857Y247721D01*
X790607Y247749D01*
X790579D01*
X790496D01*
X790357Y247721D01*
X790219Y247693D01*
X790024Y247638D01*
X789858Y247582D01*
X789663Y247471D01*
X789497Y247332D01*
X789469Y247304D01*
X789441Y247249D01*
X789358Y247166D01*
X789275Y247027D01*
X789219Y246860D01*
X789136Y246666D01*
X789108Y246444D01*
X789080Y246166D01*
Y246055D01*
X789108Y245916D01*
X789136Y245722D01*
X789191Y245528D01*
X789275Y245333D01*
X789386Y245139D01*
X789552Y244944D01*
X789580Y244917D01*
X789635Y244861D01*
X789746Y244806D01*
X789913Y244695D01*
X790135Y244611D01*
X790385Y244500D01*
X790718Y244417D01*
X791107Y244334D01*
X790413Y240336D01*
X790385D01*
X790330Y240364D01*
X790219Y240392D01*
X790107Y240419D01*
X789941Y240503D01*
X789746Y240558D01*
X789330Y240753D01*
X788858Y241002D01*
X788358Y241336D01*
X787886Y241724D01*
X787470Y242224D01*
Y242252D01*
X787414Y242279D01*
X787387Y242363D01*
X787303Y242502D01*
X787220Y242640D01*
X787137Y242807D01*
X787054Y243029D01*
X786943Y243279D01*
X786859Y243529D01*
X786776Y243834D01*
X786693Y244167D01*
X786609Y244528D01*
X786526Y244917D01*
X786498Y245333D01*
X786443Y246249D01*
Y246527D01*
X786471Y246749D01*
Y246999D01*
X786498Y247277D01*
X786526Y247582D01*
X786582Y247915D01*
X786720Y248637D01*
X786915Y249331D01*
X787192Y250025D01*
X787359Y250303D01*
X787553Y250580D01*
Y250608D01*
X787609Y250636D01*
X787748Y250802D01*
X787998Y250997D01*
X788331Y251247D01*
X788719Y251496D01*
X789191Y251719D01*
X789746Y251857D01*
X790052Y251885D01*
X790357Y251913D01*
X790413D01*
X790524D01*
X790718Y251885D01*
X790940Y251857D01*
X791218Y251774D01*
X791523Y251691D01*
X791829Y251552D01*
X792134Y251358D01*
X792162Y251330D01*
X792273Y251247D01*
X792412Y251136D01*
X792606Y250969D01*
X792800Y250747D01*
X793050Y250469D01*
X793300Y250136D01*
X793522Y249747D01*
Y249775D01*
X793550Y249886D01*
X793605Y250053D01*
X793661Y250247D01*
X793828Y250664D01*
X793911Y250886D01*
X794022Y251080D01*
X794050Y251108D01*
X794105Y251191D01*
X794216Y251330D01*
X794355Y251496D01*
X794522Y251691D01*
X794744Y251885D01*
X794994Y252079D01*
X795271Y252246D01*
X795299Y252274D01*
X795410Y252329D01*
X795577Y252385D01*
X795771Y252468D01*
X796049Y252551D01*
X796354Y252635D01*
X796687Y252662D01*
X797076Y252690D01*
X797104D01*
X797131D01*
X797298D01*
X797548Y252662D01*
D02*
G37*
G36*
X1161784Y812250D02*
X1156704D01*
X1150957Y827464D01*
X1155871D01*
X1159286Y816497D01*
X1162673Y827464D01*
X1167448D01*
X1161784Y812250D01*
D02*
G37*
G36*
X1149347Y824077D02*
X1142517D01*
X1142157Y821800D01*
X1142184Y821828D01*
X1142268Y821856D01*
X1142434Y821911D01*
X1142601Y821994D01*
X1142823Y822078D01*
X1143073Y822161D01*
X1143572Y822300D01*
X1143600D01*
X1143683Y822327D01*
X1143822Y822355D01*
X1144017Y822383D01*
X1144211Y822411D01*
X1144433Y822439D01*
X1144933Y822466D01*
X1145155D01*
X1145321Y822439D01*
X1145516D01*
X1145738Y822383D01*
X1146237Y822300D01*
X1146848Y822133D01*
X1147459Y821883D01*
X1147765Y821717D01*
X1148070Y821550D01*
X1148347Y821328D01*
X1148625Y821078D01*
X1148653Y821050D01*
X1148681Y821023D01*
X1148764Y820939D01*
X1148847Y820828D01*
X1148958Y820690D01*
X1149069Y820523D01*
X1149347Y820134D01*
X1149624Y819635D01*
X1149847Y819024D01*
X1150013Y818357D01*
X1150041Y817997D01*
X1150069Y817608D01*
Y817580D01*
Y817552D01*
Y817469D01*
Y817358D01*
X1150041Y817081D01*
X1149985Y816692D01*
X1149874Y816275D01*
X1149763Y815803D01*
X1149569Y815276D01*
X1149319Y814776D01*
Y814749D01*
X1149291Y814721D01*
X1149180Y814554D01*
X1149014Y814304D01*
X1148792Y813999D01*
X1148486Y813666D01*
X1148125Y813333D01*
X1147709Y812999D01*
X1147237Y812694D01*
X1147209D01*
X1147181Y812666D01*
X1147098Y812638D01*
X1146987Y812583D01*
X1146876Y812527D01*
X1146710Y812472D01*
X1146321Y812361D01*
X1145821Y812222D01*
X1145210Y812111D01*
X1144544Y812028D01*
X1143794Y812000D01*
X1143545D01*
X1143267Y812028D01*
X1142906D01*
X1142517Y812056D01*
X1142073Y812111D01*
X1141629Y812194D01*
X1141213Y812278D01*
X1141157Y812305D01*
X1141046Y812333D01*
X1140852Y812389D01*
X1140602Y812500D01*
X1140296Y812611D01*
X1139991Y812750D01*
X1139380Y813111D01*
X1139352Y813138D01*
X1139269Y813222D01*
X1139130Y813333D01*
X1138936Y813499D01*
X1138742Y813666D01*
X1138547Y813888D01*
X1138159Y814388D01*
X1138131Y814415D01*
X1138075Y814526D01*
X1137992Y814665D01*
X1137909Y814887D01*
X1137770Y815137D01*
X1137659Y815443D01*
X1137520Y815803D01*
X1137409Y816192D01*
X1141684Y816664D01*
Y816609D01*
X1141712Y816497D01*
X1141768Y816303D01*
X1141823Y816081D01*
X1141907Y815831D01*
X1142045Y815581D01*
X1142184Y815331D01*
X1142379Y815109D01*
X1142406Y815082D01*
X1142490Y815026D01*
X1142601Y814943D01*
X1142767Y814859D01*
X1142962Y814749D01*
X1143212Y814665D01*
X1143489Y814610D01*
X1143767Y814582D01*
X1143905D01*
X1144072Y814610D01*
X1144294Y814665D01*
X1144516Y814749D01*
X1144766Y814859D01*
X1145016Y815026D01*
X1145238Y815248D01*
X1145266Y815276D01*
X1145321Y815387D01*
X1145432Y815526D01*
X1145544Y815748D01*
X1145627Y816025D01*
X1145738Y816359D01*
X1145793Y816747D01*
X1145821Y817219D01*
Y817247D01*
Y817275D01*
Y817441D01*
X1145793Y817691D01*
X1145738Y817969D01*
X1145682Y818302D01*
X1145571Y818635D01*
X1145432Y818941D01*
X1145238Y819218D01*
X1145210Y819246D01*
X1145127Y819329D01*
X1145016Y819413D01*
X1144822Y819551D01*
X1144600Y819662D01*
X1144350Y819746D01*
X1144017Y819829D01*
X1143683Y819857D01*
X1143572D01*
X1143461Y819829D01*
X1143295D01*
X1142934Y819718D01*
X1142712Y819662D01*
X1142490Y819551D01*
X1142462D01*
X1142406Y819496D01*
X1142323Y819440D01*
X1142212Y819357D01*
X1142073Y819246D01*
X1141907Y819107D01*
X1141740Y818941D01*
X1141546Y818746D01*
X1137964Y819274D01*
X1139297Y827464D01*
X1149347D01*
Y824077D01*
D02*
G37*
G36*
X1131329Y821522D02*
X1135327D01*
Y818163D01*
X1131329D01*
Y814193D01*
X1127970D01*
Y818163D01*
X1124000D01*
Y821522D01*
X1127970D01*
Y825520D01*
X1131329D01*
Y821522D01*
D02*
G37*
G36*
X1249750Y327619D02*
X1234536D01*
X1234536Y340223D01*
X1237785D01*
X1237785Y332339D01*
X1240200D01*
X1240200Y339640D01*
X1243309D01*
X1243309Y332339D01*
X1246308D01*
X1246308Y340445D01*
X1249750D01*
X1249750Y327619D01*
D02*
G37*
G36*
Y320068D02*
X1241366Y314349D01*
X1249750D01*
Y309935D01*
X1234536D01*
Y314293D01*
X1242976Y320068D01*
X1234536D01*
Y324510D01*
X1249750D01*
Y320068D01*
D02*
G37*
G36*
Y301828D02*
X1234536D01*
Y306548D01*
X1249750D01*
Y301828D01*
D02*
G37*
G36*
Y294083D02*
X1241366Y288363D01*
X1249750D01*
Y283949D01*
X1234536D01*
Y288308D01*
X1242976Y294083D01*
X1234536D01*
Y298524D01*
X1249750D01*
Y294083D01*
D02*
G37*
G36*
Y277481D02*
X1247252Y276731D01*
Y271401D01*
X1249750Y270651D01*
Y265848D01*
X1234536Y271540D01*
Y276703D01*
X1249750Y282422D01*
Y277481D01*
D02*
G37*
G36*
Y250829D02*
X1246613D01*
X1237785Y259269D01*
Y251662D01*
X1234536D01*
Y264960D01*
X1237590D01*
X1246474Y256409D01*
Y265265D01*
X1249750D01*
Y250829D01*
D02*
G37*
G36*
Y235476D02*
X1246613D01*
X1237785Y243916D01*
Y236309D01*
X1234536D01*
Y249607D01*
X1237590D01*
X1246474Y241057D01*
Y249913D01*
X1249750D01*
Y235476D01*
D02*
G37*
G36*
Y221318D02*
X1234536D01*
Y233922D01*
X1237785D01*
Y226037D01*
X1240200D01*
Y233339D01*
X1243309D01*
Y226037D01*
X1246308D01*
Y234144D01*
X1249750D01*
Y221318D01*
D02*
G37*
G36*
Y214461D02*
X1238146D01*
X1249750Y211490D01*
Y207992D01*
X1238146Y205049D01*
X1249750D01*
Y201190D01*
X1234536D01*
Y207381D01*
X1243809Y209741D01*
X1234536Y212129D01*
Y218319D01*
X1249750D01*
Y214461D01*
D02*
G37*
G36*
X1245336Y191751D02*
X1245697Y191695D01*
X1246113Y191612D01*
X1246585Y191446D01*
X1247057Y191251D01*
X1247529Y190974D01*
X1247585Y190946D01*
X1247723Y190835D01*
X1247946Y190641D01*
X1248223Y190391D01*
X1248529Y190058D01*
X1248834Y189669D01*
X1249112Y189225D01*
X1249389Y188697D01*
Y188669D01*
X1249417Y188642D01*
X1249445Y188558D01*
X1249473Y188447D01*
X1249528Y188309D01*
X1249584Y188114D01*
X1249639Y187920D01*
X1249695Y187698D01*
X1249806Y187170D01*
X1249917Y186532D01*
X1249972Y185838D01*
X1250000Y185033D01*
Y184672D01*
X1249972Y184394D01*
X1249945Y184089D01*
X1249917Y183728D01*
X1249889Y183339D01*
X1249806Y182895D01*
X1249639Y182006D01*
X1249389Y181118D01*
X1249223Y180702D01*
X1249001Y180313D01*
X1248779Y179952D01*
X1248529Y179647D01*
X1248501Y179619D01*
X1248445Y179591D01*
X1248362Y179508D01*
X1248251Y179425D01*
X1248112Y179314D01*
X1247946Y179175D01*
X1247723Y179036D01*
X1247501Y178897D01*
X1246946Y178592D01*
X1246280Y178314D01*
X1245558Y178120D01*
X1245142Y178036D01*
X1244725Y177981D01*
X1244420Y182451D01*
X1244475D01*
X1244614Y182478D01*
X1244809Y182506D01*
X1245031Y182589D01*
X1245586Y182756D01*
X1245863Y182895D01*
X1246086Y183034D01*
X1246113Y183061D01*
X1246224Y183172D01*
X1246363Y183339D01*
X1246530Y183561D01*
X1246724Y183867D01*
X1246863Y184227D01*
X1246974Y184644D01*
X1247002Y185116D01*
Y185282D01*
X1246974Y185449D01*
X1246946Y185699D01*
X1246891Y185949D01*
X1246807Y186199D01*
X1246696Y186448D01*
X1246557Y186670D01*
X1246530Y186698D01*
X1246474Y186754D01*
X1246363Y186837D01*
X1246252Y186948D01*
X1246086Y187059D01*
X1245891Y187143D01*
X1245669Y187198D01*
X1245447Y187226D01*
X1245419D01*
X1245336D01*
X1245225Y187198D01*
X1245086Y187170D01*
X1244920Y187087D01*
X1244753Y187004D01*
X1244559Y186865D01*
X1244392Y186698D01*
X1244364Y186670D01*
X1244309Y186587D01*
X1244225Y186421D01*
X1244114Y186199D01*
X1243976Y185865D01*
X1243809Y185449D01*
X1243726Y185199D01*
X1243670Y184921D01*
X1243587Y184616D01*
X1243504Y184283D01*
Y184255D01*
X1243476Y184144D01*
X1243420Y183978D01*
X1243393Y183783D01*
X1243309Y183533D01*
X1243226Y183228D01*
X1243143Y182923D01*
X1243032Y182589D01*
X1242754Y181840D01*
X1242449Y181118D01*
X1242088Y180452D01*
X1241893Y180146D01*
X1241671Y179869D01*
X1241644D01*
X1241616Y179813D01*
X1241477Y179674D01*
X1241227Y179452D01*
X1240866Y179230D01*
X1240450Y178980D01*
X1239950Y178758D01*
X1239395Y178619D01*
X1239089Y178592D01*
X1238756Y178564D01*
X1238728D01*
X1238701D01*
X1238562D01*
X1238312Y178592D01*
X1238035Y178647D01*
X1237701Y178731D01*
X1237313Y178842D01*
X1236924Y179008D01*
X1236535Y179230D01*
X1236480Y179258D01*
X1236369Y179369D01*
X1236174Y179536D01*
X1235925Y179758D01*
X1235675Y180035D01*
X1235397Y180396D01*
X1235147Y180813D01*
X1234897Y181285D01*
Y181312D01*
X1234870Y181340D01*
X1234842Y181423D01*
X1234814Y181535D01*
X1234759Y181673D01*
X1234703Y181840D01*
X1234648Y182034D01*
X1234592Y182256D01*
X1234536Y182506D01*
X1234481Y182812D01*
X1234370Y183450D01*
X1234314Y184200D01*
X1234287Y185033D01*
Y185310D01*
X1234314Y185504D01*
Y185754D01*
X1234342Y186032D01*
X1234370Y186337D01*
X1234425Y186670D01*
X1234564Y187392D01*
X1234759Y188142D01*
X1235036Y188836D01*
X1235203Y189169D01*
X1235397Y189475D01*
Y189502D01*
X1235453Y189530D01*
X1235591Y189724D01*
X1235869Y189974D01*
X1236230Y190280D01*
X1236452Y190446D01*
X1236702Y190585D01*
X1237007Y190752D01*
X1237313Y190890D01*
X1237646Y191029D01*
X1238007Y191140D01*
X1238423Y191224D01*
X1238840Y191307D01*
X1239089Y186865D01*
X1239034D01*
X1238923Y186837D01*
X1238728Y186782D01*
X1238506Y186698D01*
X1238284Y186587D01*
X1238035Y186476D01*
X1237785Y186310D01*
X1237590Y186115D01*
X1237562Y186087D01*
X1237507Y186004D01*
X1237451Y185893D01*
X1237340Y185727D01*
X1237257Y185504D01*
X1237202Y185227D01*
X1237146Y184921D01*
X1237118Y184561D01*
Y184422D01*
X1237146Y184283D01*
X1237174Y184089D01*
X1237257Y183672D01*
X1237368Y183478D01*
X1237479Y183311D01*
X1237507Y183284D01*
X1237535Y183256D01*
X1237701Y183117D01*
X1237979Y182978D01*
X1238146Y182950D01*
X1238312Y182923D01*
X1238340D01*
X1238368D01*
X1238534Y182978D01*
X1238756Y183061D01*
X1238867Y183145D01*
X1238978Y183256D01*
Y183284D01*
X1239034Y183339D01*
X1239089Y183422D01*
X1239173Y183589D01*
X1239256Y183783D01*
X1239339Y184061D01*
X1239450Y184394D01*
X1239534Y184811D01*
Y184838D01*
X1239561Y184949D01*
X1239589Y185116D01*
X1239645Y185310D01*
X1239700Y185560D01*
X1239783Y185865D01*
X1239867Y186199D01*
X1239950Y186532D01*
X1240144Y187253D01*
X1240394Y188003D01*
X1240644Y188669D01*
X1240755Y188975D01*
X1240894Y189252D01*
Y189280D01*
X1240922Y189308D01*
X1241005Y189475D01*
X1241144Y189697D01*
X1241338Y190002D01*
X1241588Y190307D01*
X1241866Y190641D01*
X1242199Y190946D01*
X1242560Y191196D01*
X1242615Y191224D01*
X1242726Y191279D01*
X1242948Y191390D01*
X1243226Y191501D01*
X1243559Y191612D01*
X1243920Y191723D01*
X1244364Y191779D01*
X1244809Y191807D01*
X1244836D01*
X1244864D01*
X1244947D01*
X1245058D01*
X1245336Y191751D01*
D02*
G37*
G36*
X1245863Y176315D02*
X1246141Y176287D01*
X1246474Y176204D01*
X1246835Y176121D01*
X1247196Y175982D01*
X1247557Y175788D01*
X1247585Y175760D01*
X1247723Y175677D01*
X1247890Y175566D01*
X1248084Y175399D01*
X1248334Y175177D01*
X1248584Y174899D01*
X1248834Y174594D01*
X1249056Y174261D01*
Y174233D01*
X1249112Y174150D01*
X1249167Y174011D01*
X1249250Y173817D01*
X1249334Y173567D01*
X1249417Y173261D01*
X1249473Y172901D01*
X1249556Y172484D01*
Y172428D01*
X1249584Y172345D01*
Y172234D01*
X1249611Y171957D01*
X1249639Y171623D01*
X1249695Y171262D01*
X1249722Y170929D01*
X1249750Y170624D01*
Y162267D01*
X1234536D01*
Y171290D01*
X1234564Y171429D01*
Y171623D01*
X1234592Y171818D01*
X1234675Y172318D01*
X1234814Y172873D01*
X1235008Y173428D01*
X1235286Y173955D01*
X1235647Y174455D01*
Y174483D01*
X1235703Y174511D01*
X1235841Y174650D01*
X1236063Y174844D01*
X1236396Y175066D01*
X1236785Y175260D01*
X1237229Y175455D01*
X1237757Y175593D01*
X1238035Y175649D01*
X1238340D01*
X1238368D01*
X1238395D01*
X1238562D01*
X1238812Y175593D01*
X1239117Y175538D01*
X1239478Y175427D01*
X1239867Y175288D01*
X1240256Y175066D01*
X1240644Y174788D01*
X1240672Y174760D01*
X1240755Y174677D01*
X1240866Y174566D01*
X1241005Y174372D01*
X1241172Y174150D01*
X1241338Y173872D01*
X1241505Y173539D01*
X1241671Y173150D01*
Y173178D01*
X1241699Y173234D01*
Y173317D01*
X1241755Y173428D01*
X1241838Y173706D01*
X1241977Y174067D01*
X1242171Y174455D01*
X1242421Y174872D01*
X1242699Y175233D01*
X1243032Y175566D01*
X1243087Y175593D01*
X1243198Y175677D01*
X1243420Y175816D01*
X1243698Y175954D01*
X1244031Y176093D01*
X1244447Y176232D01*
X1244920Y176315D01*
X1245447Y176343D01*
X1245502D01*
X1245641D01*
X1245863Y176315D01*
D02*
G37*
G36*
X1249750Y146915D02*
X1234536D01*
Y159519D01*
X1237785D01*
Y151635D01*
X1240200D01*
Y158936D01*
X1243309D01*
Y151635D01*
X1246308D01*
Y159741D01*
X1249750D01*
Y146915D01*
D02*
G37*
G36*
X1247585Y137032D02*
X1247612Y136976D01*
X1247696Y136865D01*
X1247779Y136699D01*
X1247890Y136532D01*
X1248029Y136310D01*
X1248334Y135810D01*
X1248640Y135227D01*
X1248973Y134589D01*
X1249278Y133950D01*
X1249500Y133339D01*
Y133312D01*
X1249528Y133256D01*
X1249556Y133173D01*
X1249584Y133062D01*
X1249611Y132895D01*
X1249667Y132729D01*
X1249695Y132507D01*
X1249750Y132284D01*
X1249833Y131729D01*
X1249917Y131063D01*
X1249972Y130341D01*
X1250000Y129536D01*
Y129286D01*
X1249972Y129092D01*
Y128842D01*
X1249945Y128592D01*
X1249917Y128287D01*
X1249889Y127954D01*
X1249778Y127259D01*
X1249611Y126510D01*
X1249389Y125788D01*
X1249084Y125094D01*
Y125066D01*
X1249028Y125011D01*
X1248973Y124927D01*
X1248917Y124816D01*
X1248695Y124511D01*
X1248390Y124122D01*
X1248029Y123706D01*
X1247557Y123262D01*
X1247002Y122845D01*
X1246363Y122457D01*
X1246335D01*
X1246280Y122429D01*
X1246169Y122373D01*
X1246030Y122318D01*
X1245863Y122234D01*
X1245669Y122179D01*
X1245419Y122096D01*
X1245142Y122012D01*
X1244864Y121901D01*
X1244531Y121818D01*
X1243809Y121679D01*
X1243004Y121568D01*
X1242143Y121540D01*
X1242115D01*
X1242032D01*
X1241893D01*
X1241727Y121568D01*
X1241505D01*
X1241255Y121596D01*
X1240977Y121624D01*
X1240672Y121679D01*
X1240006Y121790D01*
X1239284Y121985D01*
X1238562Y122234D01*
X1237840Y122568D01*
X1237812D01*
X1237757Y122623D01*
X1237674Y122679D01*
X1237535Y122762D01*
X1237202Y122984D01*
X1236785Y123317D01*
X1236341Y123761D01*
X1235869Y124261D01*
X1235425Y124872D01*
X1235036Y125566D01*
Y125594D01*
X1235008Y125649D01*
X1234953Y125732D01*
X1234925Y125843D01*
X1234870Y126010D01*
X1234786Y126204D01*
X1234731Y126426D01*
X1234648Y126676D01*
X1234592Y126954D01*
X1234536Y127287D01*
X1234453Y127620D01*
X1234398Y127981D01*
X1234342Y128398D01*
X1234314Y128814D01*
X1234287Y129758D01*
Y130396D01*
X1234314Y130619D01*
X1234342Y131174D01*
X1234398Y131785D01*
X1234481Y132423D01*
X1234592Y133006D01*
X1234675Y133284D01*
X1234759Y133534D01*
Y133561D01*
X1234786Y133589D01*
X1234842Y133756D01*
X1234953Y133978D01*
X1235092Y134256D01*
X1235286Y134589D01*
X1235536Y134950D01*
X1235841Y135283D01*
X1236174Y135616D01*
X1236230Y135644D01*
X1236341Y135755D01*
X1236563Y135893D01*
X1236841Y136088D01*
X1237174Y136282D01*
X1237590Y136504D01*
X1238062Y136699D01*
X1238590Y136865D01*
X1239395Y132340D01*
X1239367D01*
X1239256Y132284D01*
X1239089Y132201D01*
X1238895Y132118D01*
X1238701Y131979D01*
X1238479Y131812D01*
X1238284Y131590D01*
X1238090Y131368D01*
X1238062Y131341D01*
X1238007Y131257D01*
X1237951Y131091D01*
X1237840Y130896D01*
X1237757Y130646D01*
X1237701Y130369D01*
X1237646Y130036D01*
X1237618Y129647D01*
Y129508D01*
X1237646Y129397D01*
X1237674Y129120D01*
X1237757Y128759D01*
X1237868Y128370D01*
X1238062Y127954D01*
X1238340Y127537D01*
X1238701Y127176D01*
X1238756Y127148D01*
X1238895Y127037D01*
X1239173Y126898D01*
X1239534Y126732D01*
X1240006Y126538D01*
X1240283Y126482D01*
X1240589Y126399D01*
X1240922Y126343D01*
X1241283Y126288D01*
X1241671Y126260D01*
X1242088D01*
X1242115D01*
X1242199D01*
X1242310D01*
X1242476Y126288D01*
X1242699D01*
X1242921Y126315D01*
X1243448Y126371D01*
X1244031Y126482D01*
X1244614Y126649D01*
X1245169Y126871D01*
X1245391Y127010D01*
X1245614Y127176D01*
X1245669Y127232D01*
X1245780Y127343D01*
X1245947Y127565D01*
X1246141Y127870D01*
X1246335Y128231D01*
X1246502Y128675D01*
X1246613Y129203D01*
X1246668Y129786D01*
Y130063D01*
X1246641Y130258D01*
X1246613Y130508D01*
X1246585Y130757D01*
X1246446Y131285D01*
Y131313D01*
X1246391Y131424D01*
X1246335Y131563D01*
X1246252Y131757D01*
X1246169Y132007D01*
X1246030Y132284D01*
X1245863Y132618D01*
X1245669Y132951D01*
X1244225D01*
Y129786D01*
X1241061D01*
Y137059D01*
X1247557D01*
X1247585Y137032D01*
D02*
G37*
G36*
X1242699Y119569D02*
X1242976Y119542D01*
X1243254Y119514D01*
X1243587Y119486D01*
X1244281Y119375D01*
X1245003Y119208D01*
X1245725Y118986D01*
X1246419Y118681D01*
X1246446D01*
X1246502Y118653D01*
X1246585Y118598D01*
X1246696Y118514D01*
X1247002Y118320D01*
X1247390Y118015D01*
X1247807Y117654D01*
X1248251Y117210D01*
X1248667Y116710D01*
X1249056Y116099D01*
Y116071D01*
X1249084Y116016D01*
X1249139Y115932D01*
X1249195Y115794D01*
X1249278Y115627D01*
X1249361Y115433D01*
X1249445Y115211D01*
X1249528Y114933D01*
X1249611Y114628D01*
X1249695Y114322D01*
X1249861Y113600D01*
X1249972Y112767D01*
X1250000Y111851D01*
Y111435D01*
X1249972Y111213D01*
X1249945Y110963D01*
Y110685D01*
X1249889Y110352D01*
X1249806Y109686D01*
X1249667Y108992D01*
X1249473Y108270D01*
X1249195Y107604D01*
Y107576D01*
X1249167Y107521D01*
X1249112Y107437D01*
X1249028Y107326D01*
X1248834Y107021D01*
X1248556Y106632D01*
X1248223Y106188D01*
X1247751Y105744D01*
X1247224Y105272D01*
X1246613Y104855D01*
X1246585D01*
X1246530Y104800D01*
X1246419Y104772D01*
X1246280Y104689D01*
X1246113Y104606D01*
X1245919Y104522D01*
X1245669Y104439D01*
X1245391Y104356D01*
X1245086Y104244D01*
X1244753Y104161D01*
X1244392Y104078D01*
X1243976Y103995D01*
X1243115Y103884D01*
X1242171Y103828D01*
X1242115D01*
X1242004D01*
X1241810Y103856D01*
X1241560D01*
X1241255Y103884D01*
X1240894Y103939D01*
X1240478Y103995D01*
X1240061Y104078D01*
X1239589Y104189D01*
X1239117Y104328D01*
X1238645Y104494D01*
X1238146Y104689D01*
X1237674Y104939D01*
X1237202Y105216D01*
X1236785Y105522D01*
X1236369Y105883D01*
X1236341Y105910D01*
X1236285Y105994D01*
X1236174Y106105D01*
X1236036Y106271D01*
X1235897Y106493D01*
X1235703Y106743D01*
X1235508Y107049D01*
X1235314Y107382D01*
X1235119Y107770D01*
X1234953Y108215D01*
X1234759Y108687D01*
X1234620Y109214D01*
X1234481Y109769D01*
X1234370Y110380D01*
X1234314Y111018D01*
X1234287Y111685D01*
Y112046D01*
X1234314Y112296D01*
X1234342Y112629D01*
X1234398Y112990D01*
X1234453Y113406D01*
X1234536Y113822D01*
X1234648Y114295D01*
X1234786Y114766D01*
X1234953Y115266D01*
X1235147Y115738D01*
X1235397Y116210D01*
X1235675Y116682D01*
X1235980Y117098D01*
X1236341Y117515D01*
X1236369Y117543D01*
X1236424Y117598D01*
X1236563Y117709D01*
X1236702Y117848D01*
X1236924Y117987D01*
X1237174Y118181D01*
X1237479Y118376D01*
X1237812Y118570D01*
X1238201Y118764D01*
X1238617Y118931D01*
X1239089Y119125D01*
X1239589Y119264D01*
X1240144Y119403D01*
X1240727Y119514D01*
X1241366Y119569D01*
X1242032Y119597D01*
X1242060D01*
X1242143D01*
X1242282D01*
X1242476D01*
X1242699Y119569D01*
D02*
G37*
G36*
X1249750Y97193D02*
X1234536D01*
Y101441D01*
X1249750D01*
Y97193D01*
D02*
G37*
G36*
Y90891D02*
X1247252Y90141D01*
Y84811D01*
X1249750Y84061D01*
Y79259D01*
X1234536Y84950D01*
Y90114D01*
X1249750Y95833D01*
Y90891D01*
D02*
G37*
G36*
Y73234D02*
X1241366Y67515D01*
X1249750D01*
Y63101D01*
X1234536D01*
Y67460D01*
X1242976Y73234D01*
X1234536D01*
Y77676D01*
X1249750D01*
Y73234D01*
D02*
G37*
G36*
Y56632D02*
X1247252Y55883D01*
Y50553D01*
X1249750Y49803D01*
Y45000D01*
X1234536Y50691D01*
Y55855D01*
X1249750Y61574D01*
Y56632D01*
D02*
G37*
G36*
X1081503Y662694D02*
X1074591D01*
Y660057D01*
X1080504D01*
Y656975D01*
X1074591D01*
Y650756D01*
X1069871D01*
Y665970D01*
X1081503D01*
Y662694D01*
D02*
G37*
G36*
X1067095Y662722D02*
X1059210D01*
Y660306D01*
X1066512D01*
Y657197D01*
X1059210D01*
Y654199D01*
X1067317D01*
Y650756D01*
X1054491D01*
Y665970D01*
X1067095D01*
Y662722D01*
D02*
G37*
G36*
X1046579Y665942D02*
X1047078Y665914D01*
X1047606Y665887D01*
X1048161Y665803D01*
X1048689Y665720D01*
X1049160Y665581D01*
X1049216Y665553D01*
X1049355Y665498D01*
X1049577Y665415D01*
X1049827Y665276D01*
X1050132Y665081D01*
X1050437Y664832D01*
X1050743Y664554D01*
X1051021Y664193D01*
X1051048Y664137D01*
X1051132Y664026D01*
X1051243Y663804D01*
X1051381Y663499D01*
X1051520Y663138D01*
X1051631Y662722D01*
X1051714Y662250D01*
X1051742Y661722D01*
Y661667D01*
Y661500D01*
X1051714Y661278D01*
X1051687Y660973D01*
X1051603Y660639D01*
X1051520Y660279D01*
X1051381Y659890D01*
X1051187Y659529D01*
X1051159Y659501D01*
X1051104Y659390D01*
X1050965Y659224D01*
X1050798Y659001D01*
X1050576Y658779D01*
X1050326Y658530D01*
X1050021Y658280D01*
X1049688Y658058D01*
X1049660Y658030D01*
X1049577Y658002D01*
X1049438Y657919D01*
X1049271Y657835D01*
X1049022Y657752D01*
X1048744Y657641D01*
X1048411Y657558D01*
X1048050Y657447D01*
X1048078D01*
X1048189Y657391D01*
X1048327Y657336D01*
X1048522Y657280D01*
X1048911Y657086D01*
X1049105Y657003D01*
X1049271Y656892D01*
X1049327Y656864D01*
X1049382Y656808D01*
X1049466Y656725D01*
X1049577Y656614D01*
X1049688Y656475D01*
X1049855Y656309D01*
X1050021Y656087D01*
X1050049Y656059D01*
X1050104Y655975D01*
X1050188Y655864D01*
X1050299Y655753D01*
X1050521Y655420D01*
X1050604Y655281D01*
X1050687Y655143D01*
X1052992Y650756D01*
X1047661D01*
X1045135Y655392D01*
X1045107Y655420D01*
X1045052Y655531D01*
X1044968Y655698D01*
X1044857Y655864D01*
X1044580Y656253D01*
X1044413Y656420D01*
X1044274Y656559D01*
X1044247Y656586D01*
X1044191Y656614D01*
X1044080Y656669D01*
X1043941Y656753D01*
X1043774Y656808D01*
X1043580Y656864D01*
X1043358Y656892D01*
X1043108Y656919D01*
X1042720D01*
Y650756D01*
X1038000D01*
Y665970D01*
X1046384D01*
X1046579Y665942D01*
D02*
G37*
G36*
X1061320Y632250D02*
X1056240D01*
X1050493Y647464D01*
X1055407D01*
X1058822Y636497D01*
X1062209Y647464D01*
X1066984D01*
X1061320Y632250D01*
D02*
G37*
G36*
X1079615Y644077D02*
X1072786D01*
X1072425Y641800D01*
X1072453Y641828D01*
X1072536Y641856D01*
X1072703Y641911D01*
X1072869Y641994D01*
X1073091Y642078D01*
X1073341Y642161D01*
X1073841Y642300D01*
X1073869D01*
X1073952Y642327D01*
X1074091Y642355D01*
X1074285Y642383D01*
X1074480Y642411D01*
X1074702Y642439D01*
X1075201Y642466D01*
X1075424D01*
X1075590Y642439D01*
X1075784D01*
X1076006Y642383D01*
X1076506Y642300D01*
X1077117Y642133D01*
X1077728Y641883D01*
X1078033Y641717D01*
X1078338Y641550D01*
X1078616Y641328D01*
X1078894Y641078D01*
X1078922Y641050D01*
X1078949Y641023D01*
X1079033Y640939D01*
X1079116Y640828D01*
X1079227Y640690D01*
X1079338Y640523D01*
X1079615Y640134D01*
X1079893Y639635D01*
X1080115Y639024D01*
X1080282Y638358D01*
X1080310Y637997D01*
X1080337Y637608D01*
Y637580D01*
Y637552D01*
Y637469D01*
Y637358D01*
X1080310Y637080D01*
X1080254Y636692D01*
X1080143Y636275D01*
X1080032Y635803D01*
X1079838Y635276D01*
X1079588Y634776D01*
Y634748D01*
X1079560Y634721D01*
X1079449Y634554D01*
X1079282Y634304D01*
X1079060Y633999D01*
X1078755Y633666D01*
X1078394Y633333D01*
X1077978Y632999D01*
X1077506Y632694D01*
X1077478D01*
X1077450Y632666D01*
X1077367Y632639D01*
X1077256Y632583D01*
X1077145Y632528D01*
X1076978Y632472D01*
X1076590Y632361D01*
X1076090Y632222D01*
X1075479Y632111D01*
X1074813Y632028D01*
X1074063Y632000D01*
X1073813D01*
X1073536Y632028D01*
X1073175D01*
X1072786Y632056D01*
X1072342Y632111D01*
X1071898Y632194D01*
X1071481Y632278D01*
X1071426Y632305D01*
X1071315Y632333D01*
X1071120Y632389D01*
X1070871Y632500D01*
X1070565Y632611D01*
X1070260Y632750D01*
X1069649Y633111D01*
X1069621Y633138D01*
X1069538Y633222D01*
X1069399Y633333D01*
X1069205Y633499D01*
X1069010Y633666D01*
X1068816Y633888D01*
X1068427Y634388D01*
X1068400Y634415D01*
X1068344Y634526D01*
X1068261Y634665D01*
X1068177Y634887D01*
X1068039Y635137D01*
X1067928Y635443D01*
X1067789Y635803D01*
X1067678Y636192D01*
X1071953Y636664D01*
Y636609D01*
X1071981Y636497D01*
X1072037Y636303D01*
X1072092Y636081D01*
X1072175Y635831D01*
X1072314Y635581D01*
X1072453Y635331D01*
X1072647Y635109D01*
X1072675Y635082D01*
X1072758Y635026D01*
X1072869Y634943D01*
X1073036Y634860D01*
X1073230Y634748D01*
X1073480Y634665D01*
X1073758Y634610D01*
X1074035Y634582D01*
X1074174D01*
X1074341Y634610D01*
X1074563Y634665D01*
X1074785Y634748D01*
X1075035Y634860D01*
X1075285Y635026D01*
X1075507Y635248D01*
X1075535Y635276D01*
X1075590Y635387D01*
X1075701Y635526D01*
X1075812Y635748D01*
X1075895Y636026D01*
X1076006Y636359D01*
X1076062Y636747D01*
X1076090Y637219D01*
Y637247D01*
Y637275D01*
Y637441D01*
X1076062Y637691D01*
X1076006Y637969D01*
X1075951Y638302D01*
X1075840Y638635D01*
X1075701Y638941D01*
X1075507Y639218D01*
X1075479Y639246D01*
X1075396Y639329D01*
X1075285Y639412D01*
X1075090Y639551D01*
X1074868Y639662D01*
X1074618Y639746D01*
X1074285Y639829D01*
X1073952Y639857D01*
X1073841D01*
X1073730Y639829D01*
X1073563D01*
X1073203Y639718D01*
X1072980Y639662D01*
X1072758Y639551D01*
X1072730D01*
X1072675Y639496D01*
X1072592Y639440D01*
X1072481Y639357D01*
X1072342Y639246D01*
X1072175Y639107D01*
X1072009Y638941D01*
X1071814Y638746D01*
X1068233Y639274D01*
X1069566Y647464D01*
X1079615D01*
Y644077D01*
D02*
G37*
G36*
X1046717Y632250D02*
X1042442D01*
Y642355D01*
X1042386Y642327D01*
X1042275Y642216D01*
X1042053Y642078D01*
X1041803Y641883D01*
X1041498Y641689D01*
X1041137Y641467D01*
X1040776Y641245D01*
X1040415Y641050D01*
X1040360Y641023D01*
X1040249Y640967D01*
X1040027Y640884D01*
X1039749Y640773D01*
X1039388Y640634D01*
X1038999Y640468D01*
X1038528Y640329D01*
X1038000Y640162D01*
Y643605D01*
X1038028D01*
X1038083Y643632D01*
X1038194Y643688D01*
X1038361Y643716D01*
X1038528Y643799D01*
X1038750Y643882D01*
X1039221Y644077D01*
X1039749Y644326D01*
X1040304Y644604D01*
X1040860Y644909D01*
X1041331Y645270D01*
X1041359D01*
X1041387Y645326D01*
X1041526Y645437D01*
X1041748Y645659D01*
X1042026Y645964D01*
X1042331Y646298D01*
X1042636Y646714D01*
X1042942Y647186D01*
X1043219Y647713D01*
X1046717D01*
Y632250D01*
D02*
G37*
G36*
X766906Y313991D02*
X764408Y313242D01*
Y307911D01*
X766906Y307162D01*
Y302359D01*
X751693Y308050D01*
Y313214D01*
X766906Y318933D01*
Y313991D01*
D02*
G37*
G36*
X769572Y291587D02*
X768516D01*
Y302442D01*
X769572D01*
Y291587D01*
D02*
G37*
G36*
X759883Y290754D02*
X760105D01*
X760660Y290699D01*
X761243Y290643D01*
X761881Y290532D01*
X762492Y290394D01*
X763047Y290199D01*
X763075D01*
X763103Y290171D01*
X763270Y290088D01*
X763519Y289977D01*
X763825Y289811D01*
X764186Y289588D01*
X764547Y289311D01*
X764935Y289005D01*
X765296Y288645D01*
X765324Y288589D01*
X765435Y288478D01*
X765602Y288284D01*
X765796Y288034D01*
X765990Y287701D01*
X766184Y287367D01*
X766379Y286979D01*
X766518Y286562D01*
Y286535D01*
X766545Y286507D01*
Y286423D01*
X766573Y286313D01*
X766629Y286007D01*
X766712Y285618D01*
X766795Y285202D01*
X766851Y284702D01*
X766879Y284230D01*
X766906Y283731D01*
Y276762D01*
X751693D01*
Y284064D01*
X751720Y284258D01*
Y284452D01*
X751776Y284924D01*
X751832Y285480D01*
X751943Y286035D01*
X752081Y286590D01*
X752276Y287090D01*
Y287118D01*
X752303Y287145D01*
X752387Y287312D01*
X752498Y287534D01*
X752692Y287839D01*
X752914Y288173D01*
X753192Y288533D01*
X753525Y288867D01*
X753886Y289200D01*
X753941Y289228D01*
X754080Y289339D01*
X754275Y289477D01*
X754580Y289672D01*
X754941Y289866D01*
X755357Y290060D01*
X755829Y290227D01*
X756329Y290394D01*
X756357D01*
X756385Y290421D01*
X756468D01*
X756579Y290449D01*
X756856Y290505D01*
X757217Y290588D01*
X757662Y290671D01*
X758161Y290727D01*
X758689Y290754D01*
X759272Y290782D01*
X759299D01*
X759383D01*
X759494D01*
X759660D01*
X759883Y290754D01*
D02*
G37*
G36*
X766906Y269155D02*
X758522Y263436D01*
X766906D01*
Y259022D01*
X751693D01*
Y263381D01*
X760132Y269155D01*
X751693D01*
Y273597D01*
X766906D01*
Y269155D01*
D02*
G37*
G36*
X764741Y256190D02*
X764769Y256135D01*
X764852Y256024D01*
X764935Y255857D01*
X765046Y255691D01*
X765185Y255469D01*
X765490Y254969D01*
X765796Y254386D01*
X766129Y253747D01*
X766434Y253109D01*
X766656Y252498D01*
Y252470D01*
X766684Y252415D01*
X766712Y252332D01*
X766740Y252220D01*
X766768Y252054D01*
X766823Y251887D01*
X766851Y251665D01*
X766906Y251443D01*
X766990Y250888D01*
X767073Y250222D01*
X767128Y249500D01*
X767156Y248695D01*
Y248445D01*
X767128Y248251D01*
Y248001D01*
X767101Y247751D01*
X767073Y247445D01*
X767045Y247112D01*
X766934Y246418D01*
X766768Y245669D01*
X766545Y244947D01*
X766240Y244253D01*
Y244225D01*
X766184Y244170D01*
X766129Y244086D01*
X766074Y243975D01*
X765851Y243670D01*
X765546Y243281D01*
X765185Y242865D01*
X764713Y242420D01*
X764158Y242004D01*
X763519Y241615D01*
X763492D01*
X763436Y241588D01*
X763325Y241532D01*
X763186Y241476D01*
X763020Y241393D01*
X762825Y241338D01*
X762575Y241254D01*
X762298Y241171D01*
X762020Y241060D01*
X761687Y240977D01*
X760965Y240838D01*
X760160Y240727D01*
X759299Y240699D01*
X759272D01*
X759188D01*
X759050D01*
X758883Y240727D01*
X758661D01*
X758411Y240755D01*
X758133Y240783D01*
X757828Y240838D01*
X757162Y240949D01*
X756440Y241143D01*
X755718Y241393D01*
X754996Y241726D01*
X754969D01*
X754913Y241782D01*
X754830Y241837D01*
X754691Y241921D01*
X754358Y242143D01*
X753941Y242476D01*
X753497Y242920D01*
X753025Y243420D01*
X752581Y244031D01*
X752192Y244725D01*
Y244753D01*
X752165Y244808D01*
X752109Y244891D01*
X752081Y245002D01*
X752026Y245169D01*
X751943Y245363D01*
X751887Y245585D01*
X751804Y245835D01*
X751748Y246113D01*
X751693Y246446D01*
X751609Y246779D01*
X751554Y247140D01*
X751498Y247556D01*
X751471Y247973D01*
X751443Y248917D01*
Y249555D01*
X751471Y249777D01*
X751498Y250333D01*
X751554Y250943D01*
X751637Y251582D01*
X751748Y252165D01*
X751832Y252443D01*
X751915Y252693D01*
Y252720D01*
X751943Y252748D01*
X751998Y252915D01*
X752109Y253137D01*
X752248Y253414D01*
X752442Y253747D01*
X752692Y254108D01*
X752998Y254442D01*
X753331Y254775D01*
X753386Y254802D01*
X753497Y254913D01*
X753719Y255052D01*
X753997Y255247D01*
X754330Y255441D01*
X754746Y255663D01*
X755219Y255857D01*
X755746Y256024D01*
X756551Y251499D01*
X756523D01*
X756412Y251443D01*
X756246Y251360D01*
X756051Y251277D01*
X755857Y251138D01*
X755635Y250971D01*
X755441Y250749D01*
X755246Y250527D01*
X755219Y250499D01*
X755163Y250416D01*
X755107Y250249D01*
X754996Y250055D01*
X754913Y249805D01*
X754857Y249528D01*
X754802Y249194D01*
X754774Y248806D01*
Y248667D01*
X754802Y248556D01*
X754830Y248278D01*
X754913Y247917D01*
X755024Y247529D01*
X755219Y247112D01*
X755496Y246696D01*
X755857Y246335D01*
X755912Y246307D01*
X756051Y246196D01*
X756329Y246057D01*
X756690Y245891D01*
X757162Y245696D01*
X757439Y245641D01*
X757745Y245558D01*
X758078Y245502D01*
X758439Y245446D01*
X758828Y245419D01*
X759244D01*
X759272D01*
X759355D01*
X759466D01*
X759633Y245446D01*
X759855D01*
X760077Y245474D01*
X760604Y245530D01*
X761187Y245641D01*
X761770Y245807D01*
X762326Y246029D01*
X762548Y246168D01*
X762770Y246335D01*
X762825Y246390D01*
X762936Y246502D01*
X763103Y246724D01*
X763297Y247029D01*
X763492Y247390D01*
X763658Y247834D01*
X763769Y248362D01*
X763825Y248945D01*
Y249222D01*
X763797Y249417D01*
X763769Y249666D01*
X763741Y249916D01*
X763603Y250444D01*
Y250471D01*
X763547Y250583D01*
X763492Y250721D01*
X763408Y250916D01*
X763325Y251166D01*
X763186Y251443D01*
X763020Y251776D01*
X762825Y252110D01*
X761382D01*
Y248945D01*
X758217D01*
Y256218D01*
X764713D01*
X764741Y256190D01*
D02*
G37*
G36*
X1270750Y163794D02*
X1260645D01*
X1260673Y163739D01*
X1260783Y163628D01*
X1260922Y163406D01*
X1261117Y163156D01*
X1261311Y162851D01*
X1261533Y162490D01*
X1261755Y162129D01*
X1261949Y161768D01*
X1261977Y161712D01*
X1262033Y161601D01*
X1262116Y161379D01*
X1262227Y161101D01*
X1262366Y160741D01*
X1262533Y160352D01*
X1262671Y159880D01*
X1262838Y159353D01*
X1259395D01*
Y159380D01*
X1259368Y159436D01*
X1259312Y159547D01*
X1259284Y159713D01*
X1259201Y159880D01*
X1259118Y160102D01*
X1258923Y160574D01*
X1258674Y161101D01*
X1258396Y161657D01*
X1258091Y162212D01*
X1257730Y162684D01*
Y162712D01*
X1257674Y162740D01*
X1257563Y162878D01*
X1257341Y163100D01*
X1257036Y163378D01*
X1256702Y163683D01*
X1256286Y163989D01*
X1255814Y164294D01*
X1255287Y164572D01*
Y168070D01*
X1270750D01*
Y163794D01*
D02*
G37*
G36*
Y143972D02*
X1270722D01*
X1270667D01*
X1270556Y144000D01*
X1270445Y144028D01*
X1270278Y144056D01*
X1270084Y144083D01*
X1269612Y144222D01*
X1269084Y144389D01*
X1268501Y144611D01*
X1267863Y144916D01*
X1267252Y145277D01*
X1267224Y145305D01*
X1267169Y145333D01*
X1267085Y145388D01*
X1266947Y145499D01*
X1266808Y145638D01*
X1266614Y145777D01*
X1266392Y145999D01*
X1266142Y146221D01*
X1265864Y146471D01*
X1265559Y146776D01*
X1265253Y147109D01*
X1264892Y147498D01*
X1264531Y147914D01*
X1264143Y148386D01*
X1263754Y148886D01*
X1263338Y149441D01*
X1263310Y149469D01*
X1263282Y149525D01*
X1263199Y149608D01*
X1263115Y149747D01*
X1262866Y150052D01*
X1262560Y150441D01*
X1262199Y150829D01*
X1261866Y151246D01*
X1261533Y151579D01*
X1261367Y151718D01*
X1261228Y151829D01*
X1261200Y151857D01*
X1261117Y151912D01*
X1260978Y151995D01*
X1260783Y152107D01*
X1260589Y152190D01*
X1260339Y152273D01*
X1260117Y152329D01*
X1259867Y152356D01*
X1259840D01*
X1259756D01*
X1259617Y152329D01*
X1259451Y152301D01*
X1259257Y152218D01*
X1259062Y152134D01*
X1258868Y151995D01*
X1258674Y151829D01*
X1258646Y151801D01*
X1258590Y151746D01*
X1258507Y151635D01*
X1258424Y151468D01*
X1258340Y151274D01*
X1258257Y151052D01*
X1258202Y150802D01*
X1258174Y150524D01*
Y150385D01*
X1258202Y150246D01*
X1258229Y150052D01*
X1258313Y149858D01*
X1258396Y149636D01*
X1258535Y149414D01*
X1258701Y149192D01*
X1258729Y149164D01*
X1258785Y149108D01*
X1258923Y149025D01*
X1259118Y148914D01*
X1259368Y148803D01*
X1259673Y148692D01*
X1260034Y148609D01*
X1260478Y148525D01*
X1260145Y144278D01*
X1260117D01*
X1260062D01*
X1259978Y144305D01*
X1259840Y144333D01*
X1259534Y144389D01*
X1259118Y144472D01*
X1258674Y144611D01*
X1258229Y144750D01*
X1257785Y144944D01*
X1257369Y145166D01*
X1257313Y145194D01*
X1257202Y145277D01*
X1257036Y145444D01*
X1256814Y145666D01*
X1256564Y145916D01*
X1256314Y146249D01*
X1256064Y146610D01*
X1255842Y147054D01*
Y147082D01*
X1255814Y147109D01*
X1255759Y147276D01*
X1255675Y147554D01*
X1255564Y147942D01*
X1255453Y148414D01*
X1255370Y148997D01*
X1255314Y149663D01*
X1255287Y150413D01*
Y150774D01*
X1255314Y150968D01*
Y151190D01*
X1255342Y151690D01*
X1255425Y152245D01*
X1255509Y152828D01*
X1255648Y153384D01*
X1255814Y153883D01*
Y153911D01*
X1255842Y153939D01*
X1255897Y154078D01*
X1256036Y154328D01*
X1256203Y154605D01*
X1256425Y154911D01*
X1256675Y155244D01*
X1257008Y155577D01*
X1257369Y155855D01*
X1257424Y155882D01*
X1257563Y155965D01*
X1257757Y156077D01*
X1258063Y156215D01*
X1258396Y156354D01*
X1258812Y156465D01*
X1259257Y156549D01*
X1259728Y156576D01*
X1259756D01*
X1259784D01*
X1259867D01*
X1259951D01*
X1260228Y156521D01*
X1260589Y156465D01*
X1260978Y156382D01*
X1261450Y156215D01*
X1261922Y156021D01*
X1262394Y155743D01*
X1262449Y155716D01*
X1262616Y155577D01*
X1262866Y155382D01*
X1263199Y155077D01*
X1263615Y154661D01*
X1263837Y154411D01*
X1264087Y154161D01*
X1264337Y153856D01*
X1264615Y153523D01*
X1264892Y153161D01*
X1265170Y152773D01*
X1265198Y152717D01*
X1265309Y152578D01*
X1265475Y152356D01*
X1265670Y152079D01*
X1265864Y151801D01*
X1266058Y151496D01*
X1266253Y151246D01*
X1266419Y151052D01*
X1266447Y151024D01*
X1266475Y150968D01*
X1266558Y150885D01*
X1266641Y150774D01*
X1266947Y150469D01*
X1267308Y150052D01*
Y156687D01*
X1270750D01*
Y143972D01*
D02*
G37*
G36*
X1263699Y142529D02*
X1264059Y142501D01*
X1264448Y142473D01*
X1264865Y142445D01*
X1265337Y142390D01*
X1266336Y142223D01*
X1267335Y141973D01*
X1267807Y141807D01*
X1268279Y141613D01*
X1268696Y141390D01*
X1269084Y141140D01*
X1269112Y141113D01*
X1269168Y141085D01*
X1269251Y141002D01*
X1269390Y140863D01*
X1269529Y140696D01*
X1269695Y140502D01*
X1269862Y140280D01*
X1270028Y140002D01*
X1270223Y139697D01*
X1270389Y139336D01*
X1270556Y138947D01*
X1270695Y138503D01*
X1270833Y138031D01*
X1270917Y137504D01*
X1270972Y136921D01*
X1271000Y136310D01*
Y135977D01*
X1270972Y135810D01*
Y135644D01*
X1270917Y135199D01*
X1270861Y134700D01*
X1270750Y134172D01*
X1270584Y133645D01*
X1270389Y133173D01*
X1270361Y133117D01*
X1270278Y132978D01*
X1270139Y132756D01*
X1269945Y132507D01*
X1269695Y132173D01*
X1269390Y131868D01*
X1269029Y131535D01*
X1268612Y131229D01*
X1268585Y131202D01*
X1268446Y131146D01*
X1268279Y131035D01*
X1268002Y130924D01*
X1267696Y130785D01*
X1267308Y130646D01*
X1266836Y130508D01*
X1266336Y130396D01*
X1266308D01*
X1266280D01*
X1266197Y130369D01*
X1266086Y130341D01*
X1265781Y130313D01*
X1265364Y130258D01*
X1264892Y130202D01*
X1264337Y130147D01*
X1263726Y130119D01*
X1263088Y130091D01*
X1263032D01*
X1262893D01*
X1262671D01*
X1262394Y130119D01*
X1262033Y130147D01*
X1261616Y130174D01*
X1261172Y130230D01*
X1260700Y130286D01*
X1259701Y130480D01*
X1258701Y130757D01*
X1258229Y130924D01*
X1257785Y131146D01*
X1257396Y131368D01*
X1257036Y131646D01*
X1257008Y131674D01*
X1256952Y131729D01*
X1256869Y131812D01*
X1256758Y131951D01*
X1256619Y132118D01*
X1256480Y132312D01*
X1256314Y132562D01*
X1256147Y132840D01*
X1256008Y133145D01*
X1255842Y133506D01*
X1255703Y133895D01*
X1255564Y134311D01*
X1255453Y134783D01*
X1255370Y135283D01*
X1255314Y135838D01*
X1255287Y136421D01*
Y136671D01*
X1255314Y136948D01*
X1255342Y137309D01*
X1255370Y137698D01*
X1255453Y138114D01*
X1255536Y138531D01*
X1255675Y138919D01*
X1255703Y138975D01*
X1255731Y139086D01*
X1255842Y139280D01*
X1255953Y139502D01*
X1256092Y139752D01*
X1256258Y140030D01*
X1256453Y140280D01*
X1256675Y140530D01*
X1256702Y140557D01*
X1256786Y140641D01*
X1256897Y140752D01*
X1257063Y140891D01*
X1257230Y141057D01*
X1257452Y141224D01*
X1257952Y141529D01*
X1257980Y141557D01*
X1258063Y141585D01*
X1258202Y141668D01*
X1258396Y141751D01*
X1258618Y141835D01*
X1258896Y141918D01*
X1259173Y142029D01*
X1259506Y142112D01*
X1259534D01*
X1259590Y142140D01*
X1259673Y142168D01*
X1259812Y142196D01*
X1259951Y142223D01*
X1260145Y142251D01*
X1260589Y142334D01*
X1261117Y142418D01*
X1261700Y142501D01*
X1262366Y142529D01*
X1263032Y142556D01*
X1263088D01*
X1263227D01*
X1263421D01*
X1263699Y142529D01*
D02*
G37*
G36*
X1270750Y115599D02*
X1270722D01*
X1270667D01*
X1270556Y115627D01*
X1270445Y115655D01*
X1270278Y115683D01*
X1270084Y115710D01*
X1269612Y115849D01*
X1269084Y116016D01*
X1268501Y116238D01*
X1267863Y116543D01*
X1267252Y116904D01*
X1267224Y116932D01*
X1267169Y116960D01*
X1267085Y117015D01*
X1266947Y117126D01*
X1266808Y117265D01*
X1266614Y117404D01*
X1266392Y117626D01*
X1266142Y117848D01*
X1265864Y118098D01*
X1265559Y118403D01*
X1265253Y118736D01*
X1264892Y119125D01*
X1264531Y119542D01*
X1264143Y120014D01*
X1263754Y120513D01*
X1263338Y121068D01*
X1263310Y121096D01*
X1263282Y121152D01*
X1263199Y121235D01*
X1263115Y121374D01*
X1262866Y121679D01*
X1262560Y122068D01*
X1262199Y122457D01*
X1261866Y122873D01*
X1261533Y123206D01*
X1261367Y123345D01*
X1261228Y123456D01*
X1261200Y123484D01*
X1261117Y123539D01*
X1260978Y123623D01*
X1260783Y123734D01*
X1260589Y123817D01*
X1260339Y123900D01*
X1260117Y123956D01*
X1259867Y123983D01*
X1259840D01*
X1259756D01*
X1259617Y123956D01*
X1259451Y123928D01*
X1259257Y123845D01*
X1259062Y123761D01*
X1258868Y123623D01*
X1258674Y123456D01*
X1258646Y123428D01*
X1258590Y123373D01*
X1258507Y123262D01*
X1258424Y123095D01*
X1258340Y122901D01*
X1258257Y122679D01*
X1258202Y122429D01*
X1258174Y122151D01*
Y122012D01*
X1258202Y121874D01*
X1258229Y121679D01*
X1258313Y121485D01*
X1258396Y121263D01*
X1258535Y121041D01*
X1258701Y120819D01*
X1258729Y120791D01*
X1258785Y120735D01*
X1258923Y120652D01*
X1259118Y120541D01*
X1259368Y120430D01*
X1259673Y120319D01*
X1260034Y120236D01*
X1260478Y120152D01*
X1260145Y115905D01*
X1260117D01*
X1260062D01*
X1259978Y115932D01*
X1259840Y115960D01*
X1259534Y116016D01*
X1259118Y116099D01*
X1258674Y116238D01*
X1258229Y116377D01*
X1257785Y116571D01*
X1257369Y116793D01*
X1257313Y116821D01*
X1257202Y116904D01*
X1257036Y117071D01*
X1256814Y117293D01*
X1256564Y117543D01*
X1256314Y117876D01*
X1256064Y118237D01*
X1255842Y118681D01*
Y118709D01*
X1255814Y118736D01*
X1255759Y118903D01*
X1255675Y119181D01*
X1255564Y119569D01*
X1255453Y120041D01*
X1255370Y120624D01*
X1255314Y121291D01*
X1255287Y122040D01*
Y122401D01*
X1255314Y122595D01*
Y122817D01*
X1255342Y123317D01*
X1255425Y123872D01*
X1255509Y124455D01*
X1255648Y125011D01*
X1255814Y125510D01*
Y125538D01*
X1255842Y125566D01*
X1255897Y125705D01*
X1256036Y125955D01*
X1256203Y126232D01*
X1256425Y126538D01*
X1256675Y126871D01*
X1257008Y127204D01*
X1257369Y127481D01*
X1257424Y127509D01*
X1257563Y127593D01*
X1257757Y127704D01*
X1258063Y127842D01*
X1258396Y127981D01*
X1258812Y128092D01*
X1259257Y128176D01*
X1259728Y128203D01*
X1259756D01*
X1259784D01*
X1259867D01*
X1259951D01*
X1260228Y128148D01*
X1260589Y128092D01*
X1260978Y128009D01*
X1261450Y127842D01*
X1261922Y127648D01*
X1262394Y127371D01*
X1262449Y127343D01*
X1262616Y127204D01*
X1262866Y127010D01*
X1263199Y126704D01*
X1263615Y126288D01*
X1263837Y126038D01*
X1264087Y125788D01*
X1264337Y125483D01*
X1264615Y125149D01*
X1264892Y124789D01*
X1265170Y124400D01*
X1265198Y124344D01*
X1265309Y124206D01*
X1265475Y123983D01*
X1265670Y123706D01*
X1265864Y123428D01*
X1266058Y123123D01*
X1266253Y122873D01*
X1266419Y122679D01*
X1266447Y122651D01*
X1266475Y122595D01*
X1266558Y122512D01*
X1266641Y122401D01*
X1266947Y122096D01*
X1267308Y121679D01*
Y128314D01*
X1270750D01*
Y115599D01*
D02*
G37*
G36*
Y109242D02*
X1266503D01*
Y113767D01*
X1270750D01*
Y109242D01*
D02*
G37*
G36*
X1266280Y107187D02*
X1266669Y107132D01*
X1267085Y107049D01*
X1267558Y106910D01*
X1268029Y106743D01*
X1268501Y106493D01*
X1268557Y106466D01*
X1268696Y106355D01*
X1268918Y106188D01*
X1269195Y105966D01*
X1269501Y105688D01*
X1269834Y105355D01*
X1270112Y104939D01*
X1270389Y104494D01*
X1270417Y104439D01*
X1270472Y104272D01*
X1270584Y103995D01*
X1270695Y103634D01*
X1270806Y103190D01*
X1270917Y102634D01*
X1270972Y102024D01*
X1271000Y101357D01*
Y100969D01*
X1270972Y100774D01*
X1270945Y100552D01*
X1270889Y100052D01*
X1270806Y99469D01*
X1270667Y98859D01*
X1270472Y98248D01*
X1270223Y97693D01*
Y97665D01*
X1270195Y97637D01*
X1270084Y97471D01*
X1269890Y97221D01*
X1269612Y96888D01*
X1269279Y96554D01*
X1268862Y96166D01*
X1268335Y95805D01*
X1267752Y95472D01*
X1267724D01*
X1267669Y95444D01*
X1267585Y95388D01*
X1267446Y95361D01*
X1267280Y95277D01*
X1267058Y95222D01*
X1266836Y95139D01*
X1266558Y95083D01*
X1266253Y95000D01*
X1265892Y94916D01*
X1265531Y94861D01*
X1265114Y94805D01*
X1264698Y94750D01*
X1264226Y94694D01*
X1263754Y94667D01*
X1263227D01*
X1263171D01*
X1263032D01*
X1262838D01*
X1262560Y94694D01*
X1262227Y94722D01*
X1261839Y94750D01*
X1261394Y94805D01*
X1260922Y94889D01*
X1259951Y95083D01*
X1259451Y95222D01*
X1258951Y95388D01*
X1258479Y95583D01*
X1258007Y95833D01*
X1257591Y96082D01*
X1257202Y96388D01*
X1257174Y96416D01*
X1257119Y96471D01*
X1257036Y96554D01*
X1256897Y96693D01*
X1256758Y96888D01*
X1256591Y97110D01*
X1256425Y97360D01*
X1256230Y97637D01*
X1256064Y97970D01*
X1255897Y98331D01*
X1255731Y98720D01*
X1255592Y99136D01*
X1255453Y99608D01*
X1255370Y100108D01*
X1255314Y100635D01*
X1255287Y101191D01*
Y101496D01*
X1255314Y101829D01*
X1255342Y102218D01*
X1255398Y102690D01*
X1255481Y103162D01*
X1255592Y103634D01*
X1255731Y104050D01*
X1255759Y104106D01*
X1255814Y104217D01*
X1255897Y104411D01*
X1256036Y104661D01*
X1256203Y104939D01*
X1256425Y105244D01*
X1256675Y105522D01*
X1256952Y105799D01*
X1256980Y105827D01*
X1257091Y105910D01*
X1257286Y106049D01*
X1257508Y106188D01*
X1257813Y106382D01*
X1258146Y106549D01*
X1258562Y106715D01*
X1259007Y106882D01*
X1259506Y102690D01*
X1259479D01*
X1259368Y102662D01*
X1259201Y102607D01*
X1259035Y102551D01*
X1258618Y102357D01*
X1258452Y102246D01*
X1258285Y102107D01*
X1258257Y102079D01*
X1258229Y102051D01*
X1258174Y101968D01*
X1258091Y101857D01*
X1257952Y101552D01*
X1257924Y101357D01*
X1257896Y101163D01*
Y101107D01*
X1257924Y100996D01*
X1257952Y100802D01*
X1258035Y100580D01*
X1258146Y100302D01*
X1258340Y100052D01*
X1258590Y99775D01*
X1258951Y99553D01*
X1258979Y99525D01*
X1259118Y99497D01*
X1259312Y99414D01*
X1259451Y99358D01*
X1259617Y99331D01*
X1259840Y99275D01*
X1260062Y99220D01*
X1260312Y99164D01*
X1260617Y99108D01*
X1260950Y99081D01*
X1261311Y99025D01*
X1261700Y98970D01*
X1262144Y98942D01*
X1262116Y98970D01*
X1262005Y99081D01*
X1261866Y99220D01*
X1261700Y99414D01*
X1261533Y99664D01*
X1261339Y99914D01*
X1261144Y100191D01*
X1261006Y100497D01*
X1260978Y100524D01*
X1260950Y100635D01*
X1260895Y100802D01*
X1260811Y101024D01*
X1260728Y101302D01*
X1260673Y101607D01*
X1260645Y101968D01*
X1260617Y102329D01*
Y102523D01*
X1260645Y102662D01*
X1260673Y102856D01*
X1260700Y103051D01*
X1260811Y103523D01*
X1260978Y104078D01*
X1261228Y104661D01*
X1261394Y104966D01*
X1261589Y105244D01*
X1261839Y105522D01*
X1262088Y105799D01*
X1262116Y105827D01*
X1262144Y105855D01*
X1262227Y105938D01*
X1262338Y106021D01*
X1262477Y106132D01*
X1262671Y106243D01*
X1262866Y106382D01*
X1263088Y106521D01*
X1263615Y106771D01*
X1264254Y106993D01*
X1264948Y107160D01*
X1265337Y107187D01*
X1265753Y107215D01*
X1265781D01*
X1265808D01*
X1265892D01*
X1266003D01*
X1266280Y107187D01*
D02*
G37*
G36*
X1263699Y92890D02*
X1264059Y92862D01*
X1264448Y92834D01*
X1264865Y92807D01*
X1265337Y92751D01*
X1266336Y92584D01*
X1267335Y92335D01*
X1267807Y92168D01*
X1268279Y91974D01*
X1268696Y91752D01*
X1269084Y91502D01*
X1269112Y91474D01*
X1269168Y91446D01*
X1269251Y91363D01*
X1269390Y91224D01*
X1269529Y91058D01*
X1269695Y90863D01*
X1269862Y90641D01*
X1270028Y90363D01*
X1270223Y90058D01*
X1270389Y89697D01*
X1270556Y89309D01*
X1270695Y88864D01*
X1270833Y88392D01*
X1270917Y87865D01*
X1270972Y87282D01*
X1271000Y86671D01*
Y86338D01*
X1270972Y86171D01*
Y86005D01*
X1270917Y85561D01*
X1270861Y85061D01*
X1270750Y84533D01*
X1270584Y84006D01*
X1270389Y83534D01*
X1270361Y83478D01*
X1270278Y83340D01*
X1270139Y83118D01*
X1269945Y82868D01*
X1269695Y82535D01*
X1269390Y82229D01*
X1269029Y81896D01*
X1268612Y81591D01*
X1268585Y81563D01*
X1268446Y81507D01*
X1268279Y81396D01*
X1268002Y81285D01*
X1267696Y81146D01*
X1267308Y81008D01*
X1266836Y80869D01*
X1266336Y80758D01*
X1266308D01*
X1266280D01*
X1266197Y80730D01*
X1266086Y80702D01*
X1265781Y80674D01*
X1265364Y80619D01*
X1264892Y80563D01*
X1264337Y80508D01*
X1263726Y80480D01*
X1263088Y80452D01*
X1263032D01*
X1262893D01*
X1262671D01*
X1262394Y80480D01*
X1262033Y80508D01*
X1261616Y80536D01*
X1261172Y80591D01*
X1260700Y80647D01*
X1259701Y80841D01*
X1258701Y81119D01*
X1258229Y81285D01*
X1257785Y81507D01*
X1257396Y81729D01*
X1257036Y82007D01*
X1257008Y82035D01*
X1256952Y82090D01*
X1256869Y82174D01*
X1256758Y82312D01*
X1256619Y82479D01*
X1256480Y82673D01*
X1256314Y82923D01*
X1256147Y83201D01*
X1256008Y83506D01*
X1255842Y83867D01*
X1255703Y84256D01*
X1255564Y84672D01*
X1255453Y85144D01*
X1255370Y85644D01*
X1255314Y86199D01*
X1255287Y86782D01*
Y87032D01*
X1255314Y87310D01*
X1255342Y87670D01*
X1255370Y88059D01*
X1255453Y88476D01*
X1255536Y88892D01*
X1255675Y89281D01*
X1255703Y89336D01*
X1255731Y89447D01*
X1255842Y89642D01*
X1255953Y89864D01*
X1256092Y90114D01*
X1256258Y90391D01*
X1256453Y90641D01*
X1256675Y90891D01*
X1256702Y90919D01*
X1256786Y91002D01*
X1256897Y91113D01*
X1257063Y91252D01*
X1257230Y91418D01*
X1257452Y91585D01*
X1257952Y91890D01*
X1257980Y91918D01*
X1258063Y91946D01*
X1258202Y92029D01*
X1258396Y92113D01*
X1258618Y92196D01*
X1258896Y92279D01*
X1259173Y92390D01*
X1259506Y92473D01*
X1259534D01*
X1259590Y92501D01*
X1259673Y92529D01*
X1259812Y92557D01*
X1259951Y92584D01*
X1260145Y92612D01*
X1260589Y92696D01*
X1261117Y92779D01*
X1261700Y92862D01*
X1262366Y92890D01*
X1263032Y92918D01*
X1263088D01*
X1263227D01*
X1263421D01*
X1263699Y92890D01*
D02*
G37*
G36*
X1270750Y73789D02*
X1266503D01*
Y78315D01*
X1270750D01*
Y73789D01*
D02*
G37*
G36*
X1263754Y71568D02*
X1264087Y71541D01*
X1264476Y71513D01*
X1264920Y71457D01*
X1265392Y71374D01*
X1266364Y71180D01*
X1266863Y71041D01*
X1267363Y70847D01*
X1267835Y70652D01*
X1268307Y70430D01*
X1268724Y70153D01*
X1269112Y69847D01*
X1269140Y69819D01*
X1269195Y69764D01*
X1269279Y69681D01*
X1269418Y69542D01*
X1269556Y69348D01*
X1269695Y69153D01*
X1269890Y68903D01*
X1270056Y68598D01*
X1270223Y68292D01*
X1270389Y67932D01*
X1270556Y67543D01*
X1270695Y67099D01*
X1270833Y66655D01*
X1270917Y66155D01*
X1270972Y65627D01*
X1271000Y65072D01*
Y64767D01*
X1270972Y64434D01*
X1270945Y64017D01*
X1270889Y63573D01*
X1270833Y63073D01*
X1270722Y62601D01*
X1270584Y62185D01*
X1270556Y62129D01*
X1270500Y62018D01*
X1270417Y61824D01*
X1270278Y61574D01*
X1270112Y61324D01*
X1269890Y61019D01*
X1269640Y60741D01*
X1269362Y60464D01*
X1269334Y60436D01*
X1269223Y60353D01*
X1269029Y60214D01*
X1268807Y60075D01*
X1268501Y59908D01*
X1268168Y59714D01*
X1267780Y59547D01*
X1267335Y59409D01*
X1266780Y63601D01*
X1266808D01*
X1266919Y63628D01*
X1267085Y63656D01*
X1267280Y63712D01*
X1267669Y63878D01*
X1267863Y63989D01*
X1268029Y64128D01*
X1268057Y64156D01*
X1268085Y64212D01*
X1268140Y64295D01*
X1268196Y64406D01*
X1268335Y64711D01*
X1268363Y64906D01*
X1268390Y65100D01*
Y65155D01*
X1268363Y65266D01*
X1268335Y65461D01*
X1268251Y65683D01*
X1268140Y65933D01*
X1267974Y66210D01*
X1267724Y66460D01*
X1267391Y66682D01*
X1267363Y66710D01*
X1267224Y66766D01*
X1267002Y66821D01*
X1266863Y66877D01*
X1266697Y66932D01*
X1266503Y66960D01*
X1266253Y67015D01*
X1266003Y67071D01*
X1265697Y67126D01*
X1265364Y67182D01*
X1265003Y67238D01*
X1264615Y67265D01*
X1264171Y67321D01*
X1264198Y67293D01*
X1264309Y67182D01*
X1264448Y67043D01*
X1264615Y66821D01*
X1264781Y66599D01*
X1264976Y66321D01*
X1265142Y66044D01*
X1265309Y65738D01*
X1265337Y65711D01*
X1265364Y65600D01*
X1265420Y65433D01*
X1265475Y65211D01*
X1265559Y64961D01*
X1265614Y64628D01*
X1265642Y64295D01*
X1265670Y63906D01*
Y63712D01*
X1265642Y63573D01*
X1265614Y63406D01*
X1265586Y63184D01*
X1265475Y62712D01*
X1265309Y62185D01*
X1265059Y61602D01*
X1264892Y61296D01*
X1264698Y61019D01*
X1264476Y60741D01*
X1264226Y60464D01*
X1264198Y60436D01*
X1264171Y60408D01*
X1264087Y60325D01*
X1263976Y60241D01*
X1263810Y60130D01*
X1263643Y60019D01*
X1263449Y59908D01*
X1263227Y59770D01*
X1262699Y59520D01*
X1262061Y59297D01*
X1261367Y59131D01*
X1260978Y59103D01*
X1260561Y59075D01*
X1260534D01*
X1260506D01*
X1260423D01*
X1260312D01*
X1260034Y59103D01*
X1259645Y59159D01*
X1259229Y59242D01*
X1258757Y59381D01*
X1258285Y59547D01*
X1257813Y59770D01*
X1257785D01*
X1257757Y59797D01*
X1257619Y59908D01*
X1257396Y60075D01*
X1257119Y60297D01*
X1256814Y60575D01*
X1256480Y60908D01*
X1256175Y61296D01*
X1255925Y61741D01*
Y61768D01*
X1255897Y61796D01*
X1255814Y61963D01*
X1255731Y62240D01*
X1255592Y62601D01*
X1255481Y63073D01*
X1255398Y63601D01*
X1255314Y64212D01*
X1255287Y64906D01*
Y65294D01*
X1255314Y65489D01*
Y65711D01*
X1255398Y66210D01*
X1255481Y66793D01*
X1255620Y67404D01*
X1255814Y67987D01*
X1256092Y68542D01*
Y68570D01*
X1256120Y68598D01*
X1256230Y68765D01*
X1256425Y69014D01*
X1256702Y69348D01*
X1257036Y69708D01*
X1257480Y70069D01*
X1257980Y70430D01*
X1258590Y70763D01*
X1258618D01*
X1258674Y70791D01*
X1258757Y70847D01*
X1258896Y70902D01*
X1259062Y70958D01*
X1259284Y71041D01*
X1259506Y71097D01*
X1259784Y71180D01*
X1260089Y71263D01*
X1260423Y71346D01*
X1260811Y71402D01*
X1261200Y71457D01*
X1261644Y71513D01*
X1262088Y71568D01*
X1263088Y71596D01*
X1263143D01*
X1263254D01*
X1263476D01*
X1263754Y71568D01*
D02*
G37*
G36*
X1263699Y57438D02*
X1264059Y57410D01*
X1264448Y57382D01*
X1264865Y57354D01*
X1265337Y57299D01*
X1266336Y57132D01*
X1267335Y56882D01*
X1267807Y56716D01*
X1268279Y56521D01*
X1268696Y56299D01*
X1269084Y56049D01*
X1269112Y56022D01*
X1269168Y55994D01*
X1269251Y55911D01*
X1269390Y55772D01*
X1269529Y55605D01*
X1269695Y55411D01*
X1269862Y55189D01*
X1270028Y54911D01*
X1270223Y54606D01*
X1270389Y54245D01*
X1270556Y53856D01*
X1270695Y53412D01*
X1270833Y52940D01*
X1270917Y52413D01*
X1270972Y51830D01*
X1271000Y51219D01*
Y50886D01*
X1270972Y50719D01*
Y50553D01*
X1270917Y50108D01*
X1270861Y49608D01*
X1270750Y49081D01*
X1270584Y48554D01*
X1270389Y48082D01*
X1270361Y48026D01*
X1270278Y47887D01*
X1270139Y47665D01*
X1269945Y47415D01*
X1269695Y47082D01*
X1269390Y46777D01*
X1269029Y46444D01*
X1268612Y46138D01*
X1268585Y46111D01*
X1268446Y46055D01*
X1268279Y45944D01*
X1268002Y45833D01*
X1267696Y45694D01*
X1267308Y45555D01*
X1266836Y45416D01*
X1266336Y45305D01*
X1266308D01*
X1266280D01*
X1266197Y45278D01*
X1266086Y45250D01*
X1265781Y45222D01*
X1265364Y45167D01*
X1264892Y45111D01*
X1264337Y45055D01*
X1263726Y45028D01*
X1263088Y45000D01*
X1263032D01*
X1262893D01*
X1262671D01*
X1262394Y45028D01*
X1262033Y45055D01*
X1261616Y45083D01*
X1261172Y45139D01*
X1260700Y45194D01*
X1259701Y45389D01*
X1258701Y45666D01*
X1258229Y45833D01*
X1257785Y46055D01*
X1257396Y46277D01*
X1257036Y46555D01*
X1257008Y46582D01*
X1256952Y46638D01*
X1256869Y46721D01*
X1256758Y46860D01*
X1256619Y47027D01*
X1256480Y47221D01*
X1256314Y47471D01*
X1256147Y47748D01*
X1256008Y48054D01*
X1255842Y48415D01*
X1255703Y48803D01*
X1255564Y49220D01*
X1255453Y49692D01*
X1255370Y50191D01*
X1255314Y50747D01*
X1255287Y51330D01*
Y51580D01*
X1255314Y51857D01*
X1255342Y52218D01*
X1255370Y52607D01*
X1255453Y53023D01*
X1255536Y53440D01*
X1255675Y53828D01*
X1255703Y53884D01*
X1255731Y53995D01*
X1255842Y54189D01*
X1255953Y54411D01*
X1256092Y54661D01*
X1256258Y54939D01*
X1256453Y55189D01*
X1256675Y55439D01*
X1256702Y55466D01*
X1256786Y55550D01*
X1256897Y55661D01*
X1257063Y55799D01*
X1257230Y55966D01*
X1257452Y56133D01*
X1257952Y56438D01*
X1257980Y56466D01*
X1258063Y56494D01*
X1258202Y56577D01*
X1258396Y56660D01*
X1258618Y56743D01*
X1258896Y56827D01*
X1259173Y56938D01*
X1259506Y57021D01*
X1259534D01*
X1259590Y57049D01*
X1259673Y57077D01*
X1259812Y57104D01*
X1259951Y57132D01*
X1260145Y57160D01*
X1260589Y57243D01*
X1261117Y57326D01*
X1261700Y57410D01*
X1262366Y57438D01*
X1263032Y57465D01*
X1263088D01*
X1263227D01*
X1263421D01*
X1263699Y57438D01*
D02*
G37*
G36*
X1308336Y154827D02*
X1308697Y154772D01*
X1309113Y154689D01*
X1309585Y154522D01*
X1310057Y154328D01*
X1310529Y154050D01*
X1310585Y154022D01*
X1310724Y153911D01*
X1310946Y153717D01*
X1311223Y153467D01*
X1311529Y153134D01*
X1311834Y152745D01*
X1312112Y152301D01*
X1312389Y151773D01*
Y151746D01*
X1312417Y151718D01*
X1312445Y151635D01*
X1312473Y151524D01*
X1312528Y151385D01*
X1312584Y151190D01*
X1312639Y150996D01*
X1312695Y150774D01*
X1312806Y150246D01*
X1312917Y149608D01*
X1312972Y148914D01*
X1313000Y148109D01*
Y147748D01*
X1312972Y147470D01*
X1312944Y147165D01*
X1312917Y146804D01*
X1312889Y146415D01*
X1312806Y145971D01*
X1312639Y145083D01*
X1312389Y144194D01*
X1312223Y143778D01*
X1312001Y143389D01*
X1311779Y143028D01*
X1311529Y142723D01*
X1311501Y142695D01*
X1311445Y142667D01*
X1311362Y142584D01*
X1311251Y142501D01*
X1311112Y142390D01*
X1310946Y142251D01*
X1310724Y142112D01*
X1310501Y141973D01*
X1309946Y141668D01*
X1309280Y141390D01*
X1308558Y141196D01*
X1308142Y141113D01*
X1307725Y141057D01*
X1307420Y145527D01*
X1307475D01*
X1307614Y145555D01*
X1307809Y145583D01*
X1308031Y145666D01*
X1308586Y145832D01*
X1308863Y145971D01*
X1309086Y146110D01*
X1309113Y146138D01*
X1309224Y146249D01*
X1309363Y146415D01*
X1309530Y146637D01*
X1309724Y146943D01*
X1309863Y147304D01*
X1309974Y147720D01*
X1310002Y148192D01*
Y148359D01*
X1309974Y148525D01*
X1309946Y148775D01*
X1309891Y149025D01*
X1309807Y149275D01*
X1309696Y149525D01*
X1309557Y149747D01*
X1309530Y149775D01*
X1309474Y149830D01*
X1309363Y149913D01*
X1309252Y150024D01*
X1309086Y150135D01*
X1308891Y150219D01*
X1308669Y150274D01*
X1308447Y150302D01*
X1308419D01*
X1308336D01*
X1308225Y150274D01*
X1308086Y150246D01*
X1307919Y150163D01*
X1307753Y150080D01*
X1307559Y149941D01*
X1307392Y149775D01*
X1307364Y149747D01*
X1307309Y149663D01*
X1307225Y149497D01*
X1307114Y149275D01*
X1306976Y148942D01*
X1306809Y148525D01*
X1306726Y148275D01*
X1306670Y147998D01*
X1306587Y147692D01*
X1306504Y147359D01*
Y147331D01*
X1306476Y147220D01*
X1306420Y147054D01*
X1306393Y146860D01*
X1306309Y146610D01*
X1306226Y146304D01*
X1306143Y145999D01*
X1306032Y145666D01*
X1305754Y144916D01*
X1305449Y144194D01*
X1305088Y143528D01*
X1304893Y143223D01*
X1304671Y142945D01*
X1304644D01*
X1304616Y142889D01*
X1304477Y142751D01*
X1304227Y142529D01*
X1303866Y142306D01*
X1303450Y142057D01*
X1302950Y141835D01*
X1302395Y141696D01*
X1302089Y141668D01*
X1301756Y141640D01*
X1301729D01*
X1301701D01*
X1301562D01*
X1301312Y141668D01*
X1301035Y141723D01*
X1300701Y141807D01*
X1300313Y141918D01*
X1299924Y142084D01*
X1299535Y142306D01*
X1299480Y142334D01*
X1299369Y142445D01*
X1299174Y142612D01*
X1298925Y142834D01*
X1298675Y143112D01*
X1298397Y143472D01*
X1298147Y143889D01*
X1297897Y144361D01*
Y144389D01*
X1297870Y144416D01*
X1297842Y144500D01*
X1297814Y144611D01*
X1297758Y144750D01*
X1297703Y144916D01*
X1297648Y145111D01*
X1297592Y145333D01*
X1297536Y145583D01*
X1297481Y145888D01*
X1297370Y146526D01*
X1297314Y147276D01*
X1297287Y148109D01*
Y148386D01*
X1297314Y148581D01*
Y148831D01*
X1297342Y149108D01*
X1297370Y149414D01*
X1297425Y149747D01*
X1297564Y150469D01*
X1297758Y151218D01*
X1298036Y151912D01*
X1298203Y152245D01*
X1298397Y152551D01*
Y152578D01*
X1298453Y152606D01*
X1298591Y152801D01*
X1298869Y153050D01*
X1299230Y153356D01*
X1299452Y153523D01*
X1299702Y153661D01*
X1300007Y153828D01*
X1300313Y153967D01*
X1300646Y154106D01*
X1301007Y154216D01*
X1301423Y154300D01*
X1301840Y154383D01*
X1302089Y149941D01*
X1302034D01*
X1301923Y149913D01*
X1301729Y149858D01*
X1301506Y149775D01*
X1301284Y149663D01*
X1301035Y149552D01*
X1300785Y149386D01*
X1300590Y149192D01*
X1300562Y149164D01*
X1300507Y149080D01*
X1300452Y148969D01*
X1300340Y148803D01*
X1300257Y148581D01*
X1300202Y148303D01*
X1300146Y147998D01*
X1300118Y147637D01*
Y147498D01*
X1300146Y147359D01*
X1300174Y147165D01*
X1300257Y146749D01*
X1300368Y146554D01*
X1300479Y146388D01*
X1300507Y146360D01*
X1300535Y146332D01*
X1300701Y146193D01*
X1300979Y146054D01*
X1301145Y146027D01*
X1301312Y145999D01*
X1301340D01*
X1301368D01*
X1301534Y146054D01*
X1301756Y146138D01*
X1301867Y146221D01*
X1301978Y146332D01*
Y146360D01*
X1302034Y146415D01*
X1302089Y146499D01*
X1302173Y146665D01*
X1302256Y146860D01*
X1302339Y147137D01*
X1302450Y147470D01*
X1302534Y147887D01*
Y147914D01*
X1302561Y148026D01*
X1302589Y148192D01*
X1302645Y148386D01*
X1302700Y148636D01*
X1302784Y148942D01*
X1302867Y149275D01*
X1302950Y149608D01*
X1303144Y150330D01*
X1303394Y151079D01*
X1303644Y151746D01*
X1303755Y152051D01*
X1303894Y152329D01*
Y152356D01*
X1303922Y152384D01*
X1304005Y152551D01*
X1304144Y152773D01*
X1304338Y153078D01*
X1304588Y153384D01*
X1304866Y153717D01*
X1305199Y154022D01*
X1305560Y154272D01*
X1305615Y154300D01*
X1305726Y154355D01*
X1305948Y154466D01*
X1306226Y154577D01*
X1306559Y154689D01*
X1306920Y154799D01*
X1307364Y154855D01*
X1307809Y154883D01*
X1307836D01*
X1307864D01*
X1307947D01*
X1308058D01*
X1308336Y154827D01*
D02*
G37*
G36*
X1312750Y135449D02*
X1310251Y134700D01*
Y129369D01*
X1312750Y128620D01*
Y123817D01*
X1297536Y129508D01*
Y134672D01*
X1312750Y140391D01*
Y135449D01*
D02*
G37*
G36*
X1310585Y122540D02*
X1310612Y122484D01*
X1310696Y122373D01*
X1310779Y122207D01*
X1310890Y122040D01*
X1311029Y121818D01*
X1311334Y121318D01*
X1311640Y120735D01*
X1311973Y120097D01*
X1312278Y119458D01*
X1312500Y118848D01*
Y118820D01*
X1312528Y118764D01*
X1312556Y118681D01*
X1312584Y118570D01*
X1312611Y118403D01*
X1312667Y118237D01*
X1312695Y118015D01*
X1312750Y117793D01*
X1312833Y117237D01*
X1312917Y116571D01*
X1312972Y115849D01*
X1313000Y115044D01*
Y114794D01*
X1312972Y114600D01*
Y114350D01*
X1312944Y114100D01*
X1312917Y113795D01*
X1312889Y113462D01*
X1312778Y112767D01*
X1312611Y112018D01*
X1312389Y111296D01*
X1312084Y110602D01*
Y110574D01*
X1312028Y110519D01*
X1311973Y110435D01*
X1311917Y110324D01*
X1311695Y110019D01*
X1311390Y109630D01*
X1311029Y109214D01*
X1310557Y108770D01*
X1310002Y108353D01*
X1309363Y107965D01*
X1309335D01*
X1309280Y107937D01*
X1309169Y107881D01*
X1309030Y107826D01*
X1308863Y107743D01*
X1308669Y107687D01*
X1308419Y107604D01*
X1308142Y107521D01*
X1307864Y107409D01*
X1307531Y107326D01*
X1306809Y107187D01*
X1306004Y107076D01*
X1305143Y107049D01*
X1305116D01*
X1305032D01*
X1304893D01*
X1304727Y107076D01*
X1304505D01*
X1304255Y107104D01*
X1303977Y107132D01*
X1303672Y107187D01*
X1303006Y107298D01*
X1302284Y107493D01*
X1301562Y107743D01*
X1300840Y108076D01*
X1300812D01*
X1300757Y108131D01*
X1300674Y108187D01*
X1300535Y108270D01*
X1300202Y108492D01*
X1299785Y108825D01*
X1299341Y109270D01*
X1298869Y109769D01*
X1298425Y110380D01*
X1298036Y111074D01*
Y111102D01*
X1298008Y111157D01*
X1297953Y111241D01*
X1297925Y111352D01*
X1297870Y111518D01*
X1297786Y111713D01*
X1297731Y111935D01*
X1297648Y112184D01*
X1297592Y112462D01*
X1297536Y112795D01*
X1297453Y113128D01*
X1297398Y113489D01*
X1297342Y113906D01*
X1297314Y114322D01*
X1297287Y115266D01*
Y115905D01*
X1297314Y116127D01*
X1297342Y116682D01*
X1297398Y117293D01*
X1297481Y117931D01*
X1297592Y118514D01*
X1297675Y118792D01*
X1297758Y119042D01*
Y119070D01*
X1297786Y119097D01*
X1297842Y119264D01*
X1297953Y119486D01*
X1298092Y119764D01*
X1298286Y120097D01*
X1298536Y120458D01*
X1298841Y120791D01*
X1299174Y121124D01*
X1299230Y121152D01*
X1299341Y121263D01*
X1299563Y121402D01*
X1299841Y121596D01*
X1300174Y121790D01*
X1300590Y122012D01*
X1301062Y122207D01*
X1301590Y122373D01*
X1302395Y117848D01*
X1302367D01*
X1302256Y117793D01*
X1302089Y117709D01*
X1301895Y117626D01*
X1301701Y117487D01*
X1301479Y117320D01*
X1301284Y117098D01*
X1301090Y116876D01*
X1301062Y116849D01*
X1301007Y116765D01*
X1300951Y116599D01*
X1300840Y116404D01*
X1300757Y116154D01*
X1300701Y115877D01*
X1300646Y115544D01*
X1300618Y115155D01*
Y115016D01*
X1300646Y114905D01*
X1300674Y114628D01*
X1300757Y114267D01*
X1300868Y113878D01*
X1301062Y113462D01*
X1301340Y113045D01*
X1301701Y112684D01*
X1301756Y112656D01*
X1301895Y112545D01*
X1302173Y112407D01*
X1302534Y112240D01*
X1303006Y112046D01*
X1303283Y111990D01*
X1303589Y111907D01*
X1303922Y111851D01*
X1304283Y111796D01*
X1304671Y111768D01*
X1305088D01*
X1305116D01*
X1305199D01*
X1305310D01*
X1305476Y111796D01*
X1305699D01*
X1305921Y111824D01*
X1306448Y111879D01*
X1307031Y111990D01*
X1307614Y112157D01*
X1308169Y112379D01*
X1308392Y112518D01*
X1308614Y112684D01*
X1308669Y112740D01*
X1308780Y112851D01*
X1308947Y113073D01*
X1309141Y113378D01*
X1309335Y113739D01*
X1309502Y114183D01*
X1309613Y114711D01*
X1309668Y115294D01*
Y115571D01*
X1309641Y115766D01*
X1309613Y116016D01*
X1309585Y116266D01*
X1309446Y116793D01*
Y116821D01*
X1309391Y116932D01*
X1309335Y117071D01*
X1309252Y117265D01*
X1309169Y117515D01*
X1309030Y117793D01*
X1308863Y118126D01*
X1308669Y118459D01*
X1307225D01*
Y115294D01*
X1304061D01*
Y122568D01*
X1310557D01*
X1310585Y122540D01*
D02*
G37*
G36*
X1312750Y93195D02*
X1308503D01*
Y97720D01*
X1312750D01*
Y93195D01*
D02*
G37*
G36*
X1305976D02*
X1301729D01*
Y97720D01*
X1305976D01*
Y93195D01*
D02*
G37*
G36*
X1308863Y90974D02*
X1309141Y90947D01*
X1309474Y90863D01*
X1309835Y90780D01*
X1310196Y90641D01*
X1310557Y90447D01*
X1310585Y90419D01*
X1310724Y90336D01*
X1310890Y90225D01*
X1311084Y90058D01*
X1311334Y89836D01*
X1311584Y89558D01*
X1311834Y89253D01*
X1312056Y88920D01*
Y88892D01*
X1312112Y88809D01*
X1312167Y88670D01*
X1312250Y88476D01*
X1312334Y88226D01*
X1312417Y87920D01*
X1312473Y87559D01*
X1312556Y87143D01*
Y87087D01*
X1312584Y87004D01*
Y86893D01*
X1312611Y86615D01*
X1312639Y86282D01*
X1312695Y85921D01*
X1312722Y85588D01*
X1312750Y85283D01*
Y76926D01*
X1297536D01*
Y85949D01*
X1297564Y86088D01*
Y86282D01*
X1297592Y86477D01*
X1297675Y86976D01*
X1297814Y87532D01*
X1298008Y88087D01*
X1298286Y88614D01*
X1298647Y89114D01*
Y89142D01*
X1298703Y89170D01*
X1298841Y89309D01*
X1299063Y89503D01*
X1299397Y89725D01*
X1299785Y89919D01*
X1300229Y90114D01*
X1300757Y90252D01*
X1301035Y90308D01*
X1301340D01*
X1301368D01*
X1301395D01*
X1301562D01*
X1301812Y90252D01*
X1302117Y90197D01*
X1302478Y90086D01*
X1302867Y89947D01*
X1303255Y89725D01*
X1303644Y89447D01*
X1303672Y89419D01*
X1303755Y89336D01*
X1303866Y89225D01*
X1304005Y89031D01*
X1304172Y88809D01*
X1304338Y88531D01*
X1304505Y88198D01*
X1304671Y87809D01*
Y87837D01*
X1304699Y87893D01*
Y87976D01*
X1304755Y88087D01*
X1304838Y88365D01*
X1304977Y88726D01*
X1305171Y89114D01*
X1305421Y89531D01*
X1305699Y89892D01*
X1306032Y90225D01*
X1306087Y90252D01*
X1306198Y90336D01*
X1306420Y90475D01*
X1306698Y90613D01*
X1307031Y90752D01*
X1307448Y90891D01*
X1307919Y90974D01*
X1308447Y91002D01*
X1308503D01*
X1308641D01*
X1308863Y90974D01*
D02*
G37*
G36*
X1307864Y74622D02*
X1307947Y74594D01*
X1308058Y74567D01*
X1308392Y74483D01*
X1308780Y74317D01*
X1309252Y74150D01*
X1309724Y73900D01*
X1310196Y73651D01*
X1310668Y73317D01*
X1310724Y73290D01*
X1310862Y73151D01*
X1311057Y72957D01*
X1311334Y72707D01*
X1311612Y72373D01*
X1311889Y72013D01*
X1312167Y71568D01*
X1312417Y71097D01*
Y71069D01*
X1312445Y71041D01*
X1312473Y70958D01*
X1312500Y70874D01*
X1312611Y70569D01*
X1312695Y70180D01*
X1312806Y69708D01*
X1312917Y69125D01*
X1312972Y68459D01*
X1313000Y67737D01*
Y67321D01*
X1312972Y67099D01*
Y66877D01*
X1312944Y66599D01*
X1312917Y66294D01*
X1312833Y65655D01*
X1312695Y64961D01*
X1312528Y64295D01*
X1312306Y63656D01*
Y63628D01*
X1312278Y63601D01*
X1312223Y63517D01*
X1312167Y63406D01*
X1311973Y63101D01*
X1311723Y62740D01*
X1311362Y62324D01*
X1310946Y61852D01*
X1310418Y61407D01*
X1309780Y60963D01*
X1309752D01*
X1309696Y60908D01*
X1309585Y60852D01*
X1309446Y60797D01*
X1309280Y60713D01*
X1309058Y60602D01*
X1308808Y60491D01*
X1308503Y60408D01*
X1308197Y60297D01*
X1307836Y60186D01*
X1307448Y60103D01*
X1307031Y59992D01*
X1306587Y59936D01*
X1306115Y59881D01*
X1305116Y59825D01*
X1305060D01*
X1304949D01*
X1304755Y59853D01*
X1304505D01*
X1304172Y59881D01*
X1303811Y59936D01*
X1303422Y59992D01*
X1302978Y60075D01*
X1302506Y60186D01*
X1302034Y60325D01*
X1301562Y60464D01*
X1301062Y60658D01*
X1300590Y60908D01*
X1300146Y61158D01*
X1299702Y61463D01*
X1299313Y61824D01*
X1299285Y61852D01*
X1299230Y61907D01*
X1299119Y62046D01*
X1299008Y62185D01*
X1298841Y62407D01*
X1298675Y62657D01*
X1298480Y62934D01*
X1298286Y63295D01*
X1298120Y63656D01*
X1297925Y64100D01*
X1297758Y64572D01*
X1297592Y65072D01*
X1297481Y65627D01*
X1297370Y66210D01*
X1297314Y66849D01*
X1297287Y67515D01*
Y67793D01*
X1297314Y67987D01*
Y68237D01*
X1297342Y68515D01*
X1297370Y68820D01*
X1297425Y69153D01*
X1297564Y69903D01*
X1297786Y70652D01*
X1298064Y71374D01*
X1298258Y71707D01*
X1298453Y72040D01*
Y72068D01*
X1298508Y72124D01*
X1298564Y72207D01*
X1298675Y72318D01*
X1298786Y72457D01*
X1298952Y72623D01*
X1299119Y72790D01*
X1299341Y72984D01*
X1299563Y73179D01*
X1299841Y73373D01*
X1300118Y73595D01*
X1300452Y73789D01*
X1300812Y73984D01*
X1301173Y74178D01*
X1301590Y74345D01*
X1302034Y74511D01*
X1302950Y70347D01*
X1302922D01*
X1302839Y70319D01*
X1302700Y70264D01*
X1302561Y70208D01*
X1302228Y70041D01*
X1302089Y69958D01*
X1301951Y69875D01*
X1301923Y69847D01*
X1301867Y69819D01*
X1301756Y69708D01*
X1301645Y69597D01*
X1301368Y69292D01*
X1301118Y68903D01*
X1301090Y68875D01*
X1301062Y68820D01*
X1301007Y68681D01*
X1300951Y68542D01*
X1300896Y68348D01*
X1300868Y68126D01*
X1300812Y67876D01*
Y67460D01*
X1300840Y67376D01*
X1300868Y67071D01*
X1300979Y66710D01*
X1301118Y66321D01*
X1301368Y65905D01*
X1301673Y65516D01*
X1301895Y65350D01*
X1302117Y65183D01*
X1302173Y65155D01*
X1302284Y65072D01*
X1302534Y64989D01*
X1302839Y64878D01*
X1303255Y64739D01*
X1303755Y64656D01*
X1304366Y64572D01*
X1305088Y64545D01*
X1305116D01*
X1305199D01*
X1305338D01*
X1305504D01*
X1305699Y64572D01*
X1305948D01*
X1306476Y64628D01*
X1307031Y64739D01*
X1307614Y64850D01*
X1308142Y65044D01*
X1308364Y65155D01*
X1308558Y65294D01*
X1308586Y65322D01*
X1308697Y65433D01*
X1308836Y65627D01*
X1309002Y65849D01*
X1309197Y66155D01*
X1309335Y66543D01*
X1309446Y66960D01*
X1309474Y67460D01*
Y67682D01*
X1309446Y67932D01*
X1309391Y68237D01*
X1309280Y68570D01*
X1309169Y68903D01*
X1308974Y69236D01*
X1308725Y69514D01*
X1308697Y69542D01*
X1308586Y69625D01*
X1308419Y69764D01*
X1308169Y69903D01*
X1307864Y70069D01*
X1307475Y70236D01*
X1307031Y70402D01*
X1306504Y70541D01*
X1307781Y74650D01*
X1307809D01*
X1307864Y74622D01*
D02*
G37*
G36*
X1302589Y57882D02*
X1302784D01*
X1303006Y57826D01*
X1303505Y57743D01*
X1304088Y57576D01*
X1304699Y57326D01*
X1305004Y57160D01*
X1305282Y56993D01*
X1305560Y56771D01*
X1305810Y56521D01*
Y56494D01*
X1305865Y56466D01*
X1305921Y56382D01*
X1306004Y56272D01*
X1306115Y56105D01*
X1306226Y55938D01*
X1306337Y55716D01*
X1306448Y55466D01*
X1306559Y55189D01*
X1306670Y54883D01*
X1306781Y54522D01*
X1306892Y54134D01*
X1306976Y53717D01*
X1307031Y53273D01*
X1307059Y52801D01*
X1307087Y52274D01*
Y49720D01*
X1312750D01*
Y45000D01*
X1297536D01*
Y53051D01*
X1297564Y53218D01*
Y53440D01*
X1297592Y53690D01*
X1297675Y54245D01*
X1297842Y54856D01*
X1298064Y55494D01*
X1298342Y56105D01*
X1298536Y56382D01*
X1298758Y56632D01*
Y56660D01*
X1298813Y56688D01*
X1298897Y56743D01*
X1298980Y56827D01*
X1299258Y57049D01*
X1299646Y57271D01*
X1300146Y57493D01*
X1300729Y57715D01*
X1301423Y57854D01*
X1301784Y57909D01*
X1302200D01*
X1302228D01*
X1302312D01*
X1302423D01*
X1302589Y57882D01*
D02*
G37*
G36*
X1291750Y308186D02*
X1285698D01*
X1285643D01*
X1285531D01*
X1285337Y308158D01*
X1285115Y308130D01*
X1284643Y308019D01*
X1284421Y307936D01*
X1284227Y307797D01*
X1284199Y307769D01*
X1284143Y307714D01*
X1284088Y307630D01*
X1284005Y307519D01*
X1283921Y307353D01*
X1283838Y307186D01*
X1283810Y306964D01*
X1283782Y306714D01*
Y306576D01*
X1283810Y306437D01*
X1283866Y306270D01*
X1283921Y306076D01*
X1284032Y305854D01*
X1284171Y305659D01*
X1284365Y305465D01*
X1284393Y305437D01*
X1284476Y305382D01*
X1284643Y305326D01*
X1284837Y305243D01*
X1285143Y305132D01*
X1285504Y305076D01*
X1285948Y305021D01*
X1286475Y304993D01*
X1291750D01*
Y300773D01*
X1280729D01*
Y304688D01*
X1282533D01*
X1282478Y304715D01*
X1282339Y304854D01*
X1282144Y305021D01*
X1281922Y305243D01*
X1281645Y305520D01*
X1281395Y305826D01*
X1281145Y306131D01*
X1280951Y306464D01*
X1280923Y306520D01*
X1280867Y306631D01*
X1280812Y306825D01*
X1280701Y307075D01*
X1280618Y307408D01*
X1280562Y307797D01*
X1280506Y308213D01*
X1280479Y308685D01*
Y308852D01*
X1280506Y308963D01*
X1280534Y309296D01*
X1280618Y309685D01*
X1280729Y310129D01*
X1280923Y310573D01*
X1281173Y311017D01*
X1281534Y311434D01*
X1281589Y311489D01*
X1281728Y311600D01*
X1281978Y311739D01*
X1282339Y311934D01*
X1282783Y312128D01*
X1283338Y312267D01*
X1284005Y312378D01*
X1284754Y312433D01*
X1291750D01*
Y308186D01*
D02*
G37*
G36*
Y294804D02*
X1291722D01*
X1291667Y294776D01*
X1291500Y294666D01*
X1291306Y294554D01*
X1291112Y294471D01*
X1291056D01*
X1290945Y294443D01*
X1290723Y294388D01*
X1290418Y294332D01*
X1290445Y294305D01*
X1290556Y294193D01*
X1290695Y294027D01*
X1290862Y293805D01*
X1291056Y293555D01*
X1291223Y293277D01*
X1291417Y293000D01*
X1291556Y292694D01*
X1291584Y292639D01*
X1291611Y292500D01*
X1291695Y292250D01*
X1291778Y291945D01*
X1291861Y291556D01*
X1291917Y291112D01*
X1291972Y290612D01*
X1292000Y290085D01*
Y289890D01*
X1291972Y289752D01*
Y289585D01*
X1291944Y289391D01*
X1291889Y288946D01*
X1291778Y288475D01*
X1291611Y287975D01*
X1291417Y287475D01*
X1291112Y287059D01*
X1291056Y287003D01*
X1290945Y286892D01*
X1290751Y286753D01*
X1290473Y286559D01*
X1290140Y286365D01*
X1289751Y286226D01*
X1289335Y286115D01*
X1288835Y286059D01*
X1288807D01*
X1288780D01*
X1288613D01*
X1288391Y286087D01*
X1288113Y286143D01*
X1287780Y286226D01*
X1287447Y286365D01*
X1287086Y286531D01*
X1286781Y286781D01*
X1286753Y286809D01*
X1286642Y286920D01*
X1286503Y287114D01*
X1286337Y287392D01*
X1286142Y287780D01*
X1285948Y288252D01*
X1285753Y288808D01*
X1285670Y289141D01*
X1285587Y289502D01*
Y289529D01*
X1285559Y289613D01*
X1285531Y289724D01*
X1285504Y289890D01*
X1285476Y290085D01*
X1285420Y290307D01*
X1285337Y290779D01*
X1285226Y291306D01*
X1285115Y291806D01*
X1285004Y292250D01*
X1284948Y292444D01*
X1284921Y292583D01*
Y292611D01*
X1284893Y292722D01*
X1284837Y292861D01*
X1284782Y293055D01*
X1284698Y293277D01*
X1284615Y293527D01*
X1284393Y294110D01*
X1284365D01*
X1284282D01*
X1284143Y294083D01*
X1283977D01*
X1283644Y293971D01*
X1283477Y293888D01*
X1283338Y293777D01*
X1283310Y293749D01*
X1283283Y293722D01*
X1283227Y293638D01*
X1283172Y293500D01*
X1283116Y293361D01*
X1283061Y293166D01*
X1283005Y292917D01*
Y292472D01*
X1283033Y292278D01*
Y292056D01*
X1283144Y291556D01*
X1283227Y291306D01*
X1283338Y291084D01*
Y291056D01*
X1283394Y291029D01*
X1283449Y290945D01*
X1283560Y290862D01*
X1283699Y290751D01*
X1283866Y290640D01*
X1284060Y290529D01*
X1284310Y290446D01*
X1283893Y286392D01*
X1283838D01*
X1283727Y286448D01*
X1283533Y286476D01*
X1283283Y286559D01*
X1283033Y286642D01*
X1282755Y286753D01*
X1282478Y286892D01*
X1282228Y287031D01*
X1282200Y287059D01*
X1282117Y287114D01*
X1282006Y287225D01*
X1281867Y287364D01*
X1281700Y287531D01*
X1281534Y287753D01*
X1281339Y288002D01*
X1281173Y288280D01*
X1281145Y288308D01*
X1281117Y288391D01*
X1281062Y288530D01*
X1280978Y288697D01*
X1280895Y288919D01*
X1280812Y289196D01*
X1280729Y289502D01*
X1280673Y289863D01*
Y289918D01*
X1280645Y290029D01*
X1280618Y290251D01*
X1280562Y290529D01*
X1280534Y290862D01*
X1280506Y291223D01*
X1280479Y291639D01*
Y292750D01*
X1280506Y293194D01*
X1280534Y293666D01*
X1280562Y294193D01*
X1280618Y294693D01*
X1280701Y295137D01*
Y295193D01*
X1280756Y295332D01*
X1280812Y295554D01*
X1280895Y295832D01*
X1281006Y296137D01*
X1281173Y296442D01*
X1281367Y296775D01*
X1281589Y297081D01*
X1281617Y297108D01*
X1281673Y297164D01*
X1281783Y297275D01*
X1281922Y297386D01*
X1282117Y297525D01*
X1282339Y297664D01*
X1282616Y297803D01*
X1282922Y297914D01*
X1282950Y297941D01*
X1283061Y297969D01*
X1283227Y298025D01*
X1283449Y298080D01*
X1283699Y298136D01*
X1283977Y298191D01*
X1284254Y298247D01*
X1284560D01*
X1289418D01*
X1289446D01*
X1289557D01*
X1289696D01*
X1289862D01*
X1290251Y298275D01*
X1290445Y298302D01*
X1290640Y298330D01*
X1290667D01*
X1290723Y298358D01*
X1290806Y298386D01*
X1290945Y298441D01*
X1291112Y298497D01*
X1291306Y298552D01*
X1291750Y298774D01*
Y294804D01*
D02*
G37*
G36*
X1287280Y276176D02*
X1287336D01*
X1287447Y276204D01*
X1287641Y276231D01*
X1287863Y276287D01*
X1288363Y276453D01*
X1288585Y276565D01*
X1288807Y276703D01*
X1288835Y276731D01*
X1288918Y276814D01*
X1289030Y276953D01*
X1289168Y277148D01*
X1289307Y277370D01*
X1289418Y277647D01*
X1289501Y277953D01*
X1289529Y278314D01*
Y278425D01*
X1289501Y278536D01*
Y278702D01*
X1289390Y279063D01*
X1289335Y279258D01*
X1289224Y279480D01*
Y279507D01*
X1289196Y279535D01*
X1289057Y279702D01*
X1288974Y279813D01*
X1288835Y279924D01*
X1288696Y280090D01*
X1288502Y280229D01*
X1288891Y284394D01*
X1288918D01*
X1288974Y284338D01*
X1289057Y284282D01*
X1289168Y284227D01*
X1289446Y284005D01*
X1289807Y283727D01*
X1290195Y283394D01*
X1290612Y283005D01*
X1290973Y282561D01*
X1291278Y282061D01*
Y282034D01*
X1291306Y282006D01*
X1291334Y281923D01*
X1291389Y281812D01*
X1291445Y281673D01*
X1291500Y281506D01*
X1291584Y281312D01*
X1291639Y281090D01*
X1291695Y280812D01*
X1291778Y280534D01*
X1291833Y280229D01*
X1291889Y279868D01*
X1291944Y279507D01*
X1291972Y279091D01*
X1292000Y278674D01*
Y277842D01*
X1291972Y277647D01*
Y277453D01*
X1291917Y276953D01*
X1291861Y276398D01*
X1291750Y275815D01*
X1291584Y275260D01*
X1291389Y274760D01*
X1291362Y274704D01*
X1291278Y274566D01*
X1291112Y274316D01*
X1290917Y274038D01*
X1290640Y273705D01*
X1290307Y273344D01*
X1289918Y273011D01*
X1289446Y272678D01*
X1289418D01*
X1289390Y272650D01*
X1289307Y272595D01*
X1289196Y272567D01*
X1288918Y272428D01*
X1288530Y272289D01*
X1288085Y272123D01*
X1287530Y272012D01*
X1286947Y271901D01*
X1286281Y271873D01*
X1286253D01*
X1286170D01*
X1286031D01*
X1285865Y271901D01*
X1285643Y271928D01*
X1285365Y271956D01*
X1285087Y272012D01*
X1284782Y272067D01*
X1284115Y272261D01*
X1283782Y272400D01*
X1283421Y272567D01*
X1283061Y272761D01*
X1282727Y272983D01*
X1282394Y273233D01*
X1282089Y273511D01*
X1282061Y273538D01*
X1282006Y273594D01*
X1281950Y273677D01*
X1281839Y273816D01*
X1281728Y273983D01*
X1281589Y274205D01*
X1281423Y274427D01*
X1281284Y274704D01*
X1281145Y275010D01*
X1280978Y275371D01*
X1280840Y275732D01*
X1280729Y276148D01*
X1280618Y276592D01*
X1280534Y277064D01*
X1280506Y277564D01*
X1280479Y278091D01*
Y278480D01*
X1280506Y278674D01*
Y278924D01*
X1280562Y279452D01*
X1280645Y280035D01*
X1280784Y280646D01*
X1280951Y281256D01*
X1281201Y281812D01*
Y281839D01*
X1281228Y281867D01*
X1281339Y282034D01*
X1281506Y282283D01*
X1281728Y282589D01*
X1282033Y282950D01*
X1282394Y283283D01*
X1282811Y283616D01*
X1283283Y283922D01*
X1283310D01*
X1283338Y283949D01*
X1283421Y283977D01*
X1283533Y284033D01*
X1283671Y284088D01*
X1283838Y284144D01*
X1284227Y284282D01*
X1284754Y284421D01*
X1285337Y284532D01*
X1286031Y284616D01*
X1286808Y284643D01*
X1287280D01*
Y276176D01*
D02*
G37*
G36*
X1285698Y269513D02*
X1286281Y269485D01*
X1286920Y269430D01*
X1287586Y269346D01*
X1288224Y269235D01*
X1288502Y269152D01*
X1288780Y269069D01*
X1288807D01*
X1288835Y269041D01*
X1289002Y268985D01*
X1289252Y268847D01*
X1289585Y268652D01*
X1289946Y268402D01*
X1290334Y268097D01*
X1290723Y267681D01*
X1291084Y267209D01*
Y267181D01*
X1291112Y267153D01*
X1291167Y267070D01*
X1291223Y266959D01*
X1291306Y266820D01*
X1291362Y266653D01*
X1291528Y266237D01*
X1291722Y265737D01*
X1291861Y265126D01*
X1291972Y264405D01*
X1292000Y263627D01*
Y263239D01*
X1291972Y263044D01*
Y262822D01*
X1291917Y262323D01*
X1291861Y261740D01*
X1291750Y261157D01*
X1291584Y260574D01*
X1291389Y260046D01*
X1291362Y259991D01*
X1291278Y259852D01*
X1291139Y259602D01*
X1290945Y259324D01*
X1290667Y259019D01*
X1290362Y258713D01*
X1290001Y258380D01*
X1289585Y258103D01*
X1289557D01*
X1289529Y258075D01*
X1289363Y257992D01*
X1289113Y257881D01*
X1288752Y257742D01*
X1288308Y257603D01*
X1287808Y257464D01*
X1287225Y257353D01*
X1286586Y257298D01*
X1285976Y261795D01*
X1286031D01*
X1286142D01*
X1286337D01*
X1286559Y261823D01*
X1287058Y261878D01*
X1287280Y261906D01*
X1287502Y261962D01*
X1287530D01*
X1287586Y261989D01*
X1287669Y262045D01*
X1287780Y262100D01*
X1288030Y262267D01*
X1288252Y262517D01*
X1288280Y262572D01*
X1288335Y262711D01*
X1288419Y262961D01*
X1288446Y263294D01*
Y263433D01*
X1288419Y263572D01*
X1288363Y263738D01*
X1288308Y263905D01*
X1288197Y264099D01*
X1288058Y264294D01*
X1287863Y264432D01*
X1287836Y264460D01*
X1287752Y264488D01*
X1287614Y264543D01*
X1287392Y264627D01*
X1287114Y264710D01*
X1286781Y264766D01*
X1286364Y264793D01*
X1285892Y264821D01*
X1276536D01*
Y269541D01*
X1284810D01*
X1284837D01*
X1284921D01*
X1285060D01*
X1285226D01*
X1285448D01*
X1285698Y269513D01*
D02*
G37*
G36*
X1291750Y244360D02*
X1285698D01*
X1285643D01*
X1285531D01*
X1285337Y244333D01*
X1285115Y244305D01*
X1284643Y244194D01*
X1284421Y244111D01*
X1284227Y243972D01*
X1284199Y243944D01*
X1284143Y243888D01*
X1284088Y243805D01*
X1284005Y243694D01*
X1283921Y243528D01*
X1283838Y243361D01*
X1283810Y243139D01*
X1283782Y242889D01*
Y242750D01*
X1283810Y242611D01*
X1283866Y242445D01*
X1283921Y242250D01*
X1284032Y242028D01*
X1284171Y241834D01*
X1284365Y241640D01*
X1284393Y241612D01*
X1284476Y241556D01*
X1284643Y241501D01*
X1284837Y241418D01*
X1285143Y241306D01*
X1285504Y241251D01*
X1285948Y241196D01*
X1286475Y241168D01*
X1291750D01*
Y236948D01*
X1280729D01*
Y240862D01*
X1282533D01*
X1282478Y240890D01*
X1282339Y241029D01*
X1282144Y241196D01*
X1281922Y241418D01*
X1281645Y241695D01*
X1281395Y242001D01*
X1281145Y242306D01*
X1280951Y242639D01*
X1280923Y242695D01*
X1280867Y242806D01*
X1280812Y243000D01*
X1280701Y243250D01*
X1280618Y243583D01*
X1280562Y243972D01*
X1280506Y244388D01*
X1280479Y244860D01*
Y245027D01*
X1280506Y245138D01*
X1280534Y245471D01*
X1280618Y245860D01*
X1280729Y246304D01*
X1280923Y246748D01*
X1281173Y247192D01*
X1281534Y247609D01*
X1281589Y247664D01*
X1281728Y247775D01*
X1281978Y247914D01*
X1282339Y248108D01*
X1282783Y248303D01*
X1283338Y248441D01*
X1284005Y248552D01*
X1284754Y248608D01*
X1291750D01*
Y244360D01*
D02*
G37*
G36*
X1287280Y226537D02*
X1287336D01*
X1287447Y226565D01*
X1287641Y226593D01*
X1287863Y226648D01*
X1288363Y226815D01*
X1288585Y226926D01*
X1288807Y227064D01*
X1288835Y227092D01*
X1288918Y227176D01*
X1289030Y227314D01*
X1289168Y227509D01*
X1289307Y227731D01*
X1289418Y228008D01*
X1289501Y228314D01*
X1289529Y228675D01*
Y228786D01*
X1289501Y228897D01*
Y229063D01*
X1289390Y229424D01*
X1289335Y229619D01*
X1289224Y229841D01*
Y229869D01*
X1289196Y229896D01*
X1289057Y230063D01*
X1288974Y230174D01*
X1288835Y230285D01*
X1288696Y230452D01*
X1288502Y230590D01*
X1288891Y234755D01*
X1288918D01*
X1288974Y234699D01*
X1289057Y234644D01*
X1289168Y234588D01*
X1289446Y234366D01*
X1289807Y234088D01*
X1290195Y233755D01*
X1290612Y233367D01*
X1290973Y232922D01*
X1291278Y232423D01*
Y232395D01*
X1291306Y232367D01*
X1291334Y232284D01*
X1291389Y232173D01*
X1291445Y232034D01*
X1291500Y231867D01*
X1291584Y231673D01*
X1291639Y231451D01*
X1291695Y231173D01*
X1291778Y230896D01*
X1291833Y230590D01*
X1291889Y230229D01*
X1291944Y229869D01*
X1291972Y229452D01*
X1292000Y229036D01*
Y228203D01*
X1291972Y228008D01*
Y227814D01*
X1291917Y227314D01*
X1291861Y226759D01*
X1291750Y226176D01*
X1291584Y225621D01*
X1291389Y225121D01*
X1291362Y225066D01*
X1291278Y224927D01*
X1291112Y224677D01*
X1290917Y224399D01*
X1290640Y224066D01*
X1290307Y223705D01*
X1289918Y223372D01*
X1289446Y223039D01*
X1289418D01*
X1289390Y223011D01*
X1289307Y222956D01*
X1289196Y222928D01*
X1288918Y222789D01*
X1288530Y222650D01*
X1288085Y222484D01*
X1287530Y222373D01*
X1286947Y222262D01*
X1286281Y222234D01*
X1286253D01*
X1286170D01*
X1286031D01*
X1285865Y222262D01*
X1285643Y222289D01*
X1285365Y222317D01*
X1285087Y222373D01*
X1284782Y222428D01*
X1284115Y222623D01*
X1283782Y222761D01*
X1283421Y222928D01*
X1283061Y223122D01*
X1282727Y223344D01*
X1282394Y223594D01*
X1282089Y223872D01*
X1282061Y223900D01*
X1282006Y223955D01*
X1281950Y224038D01*
X1281839Y224177D01*
X1281728Y224344D01*
X1281589Y224566D01*
X1281423Y224788D01*
X1281284Y225066D01*
X1281145Y225371D01*
X1280978Y225732D01*
X1280840Y226093D01*
X1280729Y226509D01*
X1280618Y226954D01*
X1280534Y227425D01*
X1280506Y227925D01*
X1280479Y228453D01*
Y228841D01*
X1280506Y229036D01*
Y229286D01*
X1280562Y229813D01*
X1280645Y230396D01*
X1280784Y231007D01*
X1280951Y231618D01*
X1281201Y232173D01*
Y232201D01*
X1281228Y232228D01*
X1281339Y232395D01*
X1281506Y232645D01*
X1281728Y232950D01*
X1282033Y233311D01*
X1282394Y233644D01*
X1282811Y233977D01*
X1283283Y234283D01*
X1283310D01*
X1283338Y234310D01*
X1283421Y234338D01*
X1283533Y234394D01*
X1283671Y234449D01*
X1283838Y234505D01*
X1284227Y234644D01*
X1284754Y234782D01*
X1285337Y234893D01*
X1286031Y234977D01*
X1286808Y235005D01*
X1287280D01*
Y226537D01*
D02*
G37*
G36*
X1291750Y215987D02*
X1285698D01*
X1285643D01*
X1285531D01*
X1285337Y215960D01*
X1285115Y215932D01*
X1284643Y215821D01*
X1284421Y215737D01*
X1284227Y215599D01*
X1284199Y215571D01*
X1284143Y215515D01*
X1284088Y215432D01*
X1284005Y215321D01*
X1283921Y215154D01*
X1283838Y214988D01*
X1283810Y214766D01*
X1283782Y214516D01*
Y214377D01*
X1283810Y214238D01*
X1283866Y214072D01*
X1283921Y213878D01*
X1284032Y213655D01*
X1284171Y213461D01*
X1284365Y213267D01*
X1284393Y213239D01*
X1284476Y213183D01*
X1284643Y213128D01*
X1284837Y213045D01*
X1285143Y212934D01*
X1285504Y212878D01*
X1285948Y212822D01*
X1286475Y212795D01*
X1291750D01*
Y208575D01*
X1276536D01*
Y212795D01*
X1282144D01*
X1282117Y212822D01*
X1282006Y212934D01*
X1281839Y213100D01*
X1281645Y213322D01*
X1281450Y213600D01*
X1281228Y213878D01*
X1281034Y214183D01*
X1280867Y214488D01*
X1280840Y214516D01*
X1280812Y214655D01*
X1280756Y214821D01*
X1280673Y215071D01*
X1280590Y215349D01*
X1280534Y215710D01*
X1280506Y216098D01*
X1280479Y216515D01*
Y216681D01*
X1280506Y216793D01*
X1280534Y217126D01*
X1280618Y217514D01*
X1280729Y217931D01*
X1280923Y218403D01*
X1281173Y218819D01*
X1281534Y219236D01*
X1281589Y219291D01*
X1281728Y219402D01*
X1281978Y219541D01*
X1282339Y219735D01*
X1282783Y219930D01*
X1283338Y220068D01*
X1284005Y220180D01*
X1284754Y220235D01*
X1291750D01*
Y215987D01*
D02*
G37*
G36*
X1287919Y206604D02*
X1288085Y206576D01*
X1288308Y206493D01*
X1288613Y206382D01*
X1288974Y206215D01*
X1289335Y206021D01*
X1289724Y205799D01*
X1290084Y205521D01*
X1290112Y205493D01*
X1290223Y205382D01*
X1290390Y205216D01*
X1290612Y204994D01*
X1290834Y204716D01*
X1291056Y204383D01*
X1291306Y203994D01*
X1291500Y203578D01*
X1291528Y203522D01*
X1291584Y203356D01*
X1291667Y203106D01*
X1291750Y202773D01*
X1291833Y202328D01*
X1291917Y201829D01*
X1291972Y201246D01*
X1292000Y200607D01*
Y200329D01*
X1291972Y199996D01*
Y199580D01*
X1291917Y199108D01*
X1291861Y198636D01*
X1291806Y198136D01*
X1291695Y197664D01*
X1291667Y197609D01*
X1291639Y197470D01*
X1291556Y197248D01*
X1291445Y196970D01*
X1291278Y196665D01*
X1291112Y196332D01*
X1290889Y195999D01*
X1290640Y195665D01*
X1290612Y195638D01*
X1290501Y195527D01*
X1290362Y195388D01*
X1290140Y195194D01*
X1289890Y194971D01*
X1289585Y194777D01*
X1289279Y194555D01*
X1288918Y194361D01*
X1288863Y194333D01*
X1288724Y194277D01*
X1288530Y194222D01*
X1288224Y194139D01*
X1287836Y194028D01*
X1287392Y193972D01*
X1286892Y193916D01*
X1286309Y193889D01*
X1286281D01*
X1286225D01*
X1286142D01*
X1286031D01*
X1285698Y193916D01*
X1285309Y193972D01*
X1284865Y194028D01*
X1284393Y194111D01*
X1283921Y194250D01*
X1283477Y194444D01*
X1283449Y194472D01*
X1283338Y194527D01*
X1283172Y194611D01*
X1282977Y194749D01*
X1282755Y194916D01*
X1282505Y195138D01*
X1282228Y195360D01*
X1281978Y195610D01*
X1281950Y195638D01*
X1281867Y195749D01*
X1281756Y195888D01*
X1281617Y196082D01*
X1281450Y196304D01*
X1281284Y196582D01*
X1281145Y196859D01*
X1281006Y197137D01*
Y197165D01*
X1280978Y197192D01*
X1280923Y197359D01*
X1280840Y197637D01*
X1280729Y197997D01*
X1280645Y198442D01*
X1280562Y198997D01*
X1280506Y199608D01*
X1280479Y200302D01*
Y200552D01*
X1280506Y200746D01*
Y200968D01*
X1280534Y201218D01*
X1280562Y201523D01*
X1280590Y201829D01*
X1280729Y202495D01*
X1280895Y203161D01*
X1281117Y203828D01*
X1281284Y204133D01*
X1281450Y204411D01*
Y204438D01*
X1281506Y204466D01*
X1281617Y204633D01*
X1281867Y204883D01*
X1282172Y205188D01*
X1282561Y205521D01*
X1283061Y205854D01*
X1283616Y206160D01*
X1284282Y206409D01*
X1284810Y202439D01*
X1284782D01*
X1284698Y202412D01*
X1284560Y202356D01*
X1284421Y202273D01*
X1284060Y202078D01*
X1283893Y201912D01*
X1283755Y201745D01*
X1283727Y201718D01*
X1283699Y201662D01*
X1283644Y201551D01*
X1283560Y201385D01*
X1283477Y201190D01*
X1283421Y200968D01*
X1283394Y200718D01*
X1283366Y200413D01*
Y200246D01*
X1283394Y200052D01*
X1283449Y199802D01*
X1283560Y199524D01*
X1283671Y199247D01*
X1283866Y198969D01*
X1284115Y198719D01*
X1284143Y198692D01*
X1284254Y198608D01*
X1284421Y198525D01*
X1284671Y198414D01*
X1285004Y198275D01*
X1285393Y198192D01*
X1285865Y198109D01*
X1286392Y198081D01*
X1286420D01*
X1286448D01*
X1286614D01*
X1286864Y198109D01*
X1287169Y198164D01*
X1287502Y198247D01*
X1287836Y198358D01*
X1288169Y198497D01*
X1288446Y198719D01*
X1288474Y198747D01*
X1288557Y198830D01*
X1288669Y198969D01*
X1288780Y199163D01*
X1288918Y199413D01*
X1289030Y199691D01*
X1289113Y199996D01*
X1289140Y200357D01*
Y200496D01*
X1289113Y200663D01*
X1289085Y200857D01*
X1289030Y201051D01*
X1288974Y201301D01*
X1288863Y201523D01*
X1288724Y201745D01*
X1288696Y201773D01*
X1288641Y201829D01*
X1288557Y201940D01*
X1288391Y202051D01*
X1288224Y202190D01*
X1288002Y202356D01*
X1287725Y202495D01*
X1287419Y202606D01*
X1287863Y206632D01*
X1287919Y206604D01*
D02*
G37*
G36*
X1291750Y187614D02*
X1285698D01*
X1285643D01*
X1285531D01*
X1285337Y187587D01*
X1285115Y187559D01*
X1284643Y187448D01*
X1284421Y187365D01*
X1284227Y187226D01*
X1284199Y187198D01*
X1284143Y187143D01*
X1284088Y187059D01*
X1284005Y186948D01*
X1283921Y186782D01*
X1283838Y186615D01*
X1283810Y186393D01*
X1283782Y186143D01*
Y186004D01*
X1283810Y185865D01*
X1283866Y185699D01*
X1283921Y185504D01*
X1284032Y185282D01*
X1284171Y185088D01*
X1284365Y184894D01*
X1284393Y184866D01*
X1284476Y184811D01*
X1284643Y184755D01*
X1284837Y184672D01*
X1285143Y184561D01*
X1285504Y184505D01*
X1285948Y184450D01*
X1286475Y184422D01*
X1291750D01*
Y180202D01*
X1280729D01*
Y184116D01*
X1282533D01*
X1282478Y184144D01*
X1282339Y184283D01*
X1282144Y184450D01*
X1281922Y184672D01*
X1281645Y184949D01*
X1281395Y185255D01*
X1281145Y185560D01*
X1280951Y185893D01*
X1280923Y185949D01*
X1280867Y186060D01*
X1280812Y186254D01*
X1280701Y186504D01*
X1280618Y186837D01*
X1280562Y187226D01*
X1280506Y187642D01*
X1280479Y188114D01*
Y188281D01*
X1280506Y188392D01*
X1280534Y188725D01*
X1280618Y189114D01*
X1280729Y189558D01*
X1280923Y190002D01*
X1281173Y190446D01*
X1281534Y190863D01*
X1281589Y190918D01*
X1281728Y191029D01*
X1281978Y191168D01*
X1282339Y191362D01*
X1282783Y191557D01*
X1283338Y191695D01*
X1284005Y191807D01*
X1284754Y191862D01*
X1291750D01*
Y187614D01*
D02*
G37*
G36*
Y174233D02*
X1291722D01*
X1291667Y174205D01*
X1291500Y174094D01*
X1291306Y173983D01*
X1291112Y173900D01*
X1291056D01*
X1290945Y173872D01*
X1290723Y173817D01*
X1290418Y173761D01*
X1290445Y173733D01*
X1290556Y173622D01*
X1290695Y173456D01*
X1290862Y173234D01*
X1291056Y172984D01*
X1291223Y172706D01*
X1291417Y172428D01*
X1291556Y172123D01*
X1291584Y172068D01*
X1291611Y171929D01*
X1291695Y171679D01*
X1291778Y171374D01*
X1291861Y170985D01*
X1291917Y170541D01*
X1291972Y170041D01*
X1292000Y169513D01*
Y169319D01*
X1291972Y169180D01*
Y169014D01*
X1291944Y168819D01*
X1291889Y168375D01*
X1291778Y167903D01*
X1291611Y167404D01*
X1291417Y166904D01*
X1291112Y166487D01*
X1291056Y166432D01*
X1290945Y166321D01*
X1290751Y166182D01*
X1290473Y165988D01*
X1290140Y165793D01*
X1289751Y165655D01*
X1289335Y165543D01*
X1288835Y165488D01*
X1288807D01*
X1288780D01*
X1288613D01*
X1288391Y165516D01*
X1288113Y165571D01*
X1287780Y165655D01*
X1287447Y165793D01*
X1287086Y165960D01*
X1286781Y166210D01*
X1286753Y166238D01*
X1286642Y166349D01*
X1286503Y166543D01*
X1286337Y166821D01*
X1286142Y167209D01*
X1285948Y167681D01*
X1285753Y168236D01*
X1285670Y168570D01*
X1285587Y168930D01*
Y168958D01*
X1285559Y169042D01*
X1285531Y169153D01*
X1285504Y169319D01*
X1285476Y169513D01*
X1285420Y169736D01*
X1285337Y170208D01*
X1285226Y170735D01*
X1285115Y171235D01*
X1285004Y171679D01*
X1284948Y171873D01*
X1284921Y172012D01*
Y172040D01*
X1284893Y172151D01*
X1284837Y172290D01*
X1284782Y172484D01*
X1284698Y172706D01*
X1284615Y172956D01*
X1284393Y173539D01*
X1284365D01*
X1284282D01*
X1284143Y173511D01*
X1283977D01*
X1283644Y173400D01*
X1283477Y173317D01*
X1283338Y173206D01*
X1283310Y173178D01*
X1283283Y173150D01*
X1283227Y173067D01*
X1283172Y172928D01*
X1283116Y172789D01*
X1283061Y172595D01*
X1283005Y172345D01*
Y171901D01*
X1283033Y171707D01*
Y171485D01*
X1283144Y170985D01*
X1283227Y170735D01*
X1283338Y170513D01*
Y170485D01*
X1283394Y170457D01*
X1283449Y170374D01*
X1283560Y170291D01*
X1283699Y170180D01*
X1283866Y170069D01*
X1284060Y169958D01*
X1284310Y169874D01*
X1283893Y165821D01*
X1283838D01*
X1283727Y165877D01*
X1283533Y165904D01*
X1283283Y165988D01*
X1283033Y166071D01*
X1282755Y166182D01*
X1282478Y166321D01*
X1282228Y166460D01*
X1282200Y166487D01*
X1282117Y166543D01*
X1282006Y166654D01*
X1281867Y166793D01*
X1281700Y166959D01*
X1281534Y167181D01*
X1281339Y167431D01*
X1281173Y167709D01*
X1281145Y167737D01*
X1281117Y167820D01*
X1281062Y167959D01*
X1280978Y168125D01*
X1280895Y168347D01*
X1280812Y168625D01*
X1280729Y168930D01*
X1280673Y169291D01*
Y169347D01*
X1280645Y169458D01*
X1280618Y169680D01*
X1280562Y169958D01*
X1280534Y170291D01*
X1280506Y170652D01*
X1280479Y171068D01*
Y172179D01*
X1280506Y172623D01*
X1280534Y173095D01*
X1280562Y173622D01*
X1280618Y174122D01*
X1280701Y174566D01*
Y174622D01*
X1280756Y174760D01*
X1280812Y174983D01*
X1280895Y175260D01*
X1281006Y175566D01*
X1281173Y175871D01*
X1281367Y176204D01*
X1281589Y176510D01*
X1281617Y176537D01*
X1281673Y176593D01*
X1281783Y176704D01*
X1281922Y176815D01*
X1282117Y176954D01*
X1282339Y177093D01*
X1282616Y177231D01*
X1282922Y177342D01*
X1282950Y177370D01*
X1283061Y177398D01*
X1283227Y177453D01*
X1283449Y177509D01*
X1283699Y177565D01*
X1283977Y177620D01*
X1284254Y177676D01*
X1284560D01*
X1289418D01*
X1289446D01*
X1289557D01*
X1289696D01*
X1289862D01*
X1290251Y177703D01*
X1290445Y177731D01*
X1290640Y177759D01*
X1290667D01*
X1290723Y177787D01*
X1290806Y177814D01*
X1290945Y177870D01*
X1291112Y177925D01*
X1291306Y177981D01*
X1291750Y178203D01*
Y174233D01*
D02*
G37*
G36*
Y158742D02*
X1283366Y153023D01*
X1291750D01*
Y148609D01*
X1276536D01*
Y152967D01*
X1284976Y158742D01*
X1276536D01*
Y163184D01*
X1291750D01*
Y158742D01*
D02*
G37*
G36*
X1284726Y139003D02*
X1284948D01*
X1285504Y138947D01*
X1286087Y138892D01*
X1286725Y138781D01*
X1287336Y138642D01*
X1287891Y138448D01*
X1287919D01*
X1287947Y138420D01*
X1288113Y138336D01*
X1288363Y138225D01*
X1288669Y138059D01*
X1289030Y137837D01*
X1289390Y137559D01*
X1289779Y137254D01*
X1290140Y136893D01*
X1290168Y136837D01*
X1290279Y136726D01*
X1290445Y136532D01*
X1290640Y136282D01*
X1290834Y135949D01*
X1291028Y135616D01*
X1291223Y135227D01*
X1291362Y134811D01*
Y134783D01*
X1291389Y134755D01*
Y134672D01*
X1291417Y134561D01*
X1291472Y134256D01*
X1291556Y133867D01*
X1291639Y133450D01*
X1291695Y132951D01*
X1291722Y132479D01*
X1291750Y131979D01*
Y125011D01*
X1276536D01*
Y132312D01*
X1276564Y132507D01*
Y132701D01*
X1276620Y133173D01*
X1276675Y133728D01*
X1276786Y134283D01*
X1276925Y134838D01*
X1277120Y135338D01*
Y135366D01*
X1277147Y135394D01*
X1277231Y135560D01*
X1277342Y135782D01*
X1277536Y136088D01*
X1277758Y136421D01*
X1278036Y136782D01*
X1278369Y137115D01*
X1278730Y137448D01*
X1278785Y137476D01*
X1278924Y137587D01*
X1279118Y137726D01*
X1279424Y137920D01*
X1279785Y138114D01*
X1280201Y138309D01*
X1280673Y138475D01*
X1281173Y138642D01*
X1281201D01*
X1281228Y138670D01*
X1281312D01*
X1281423Y138697D01*
X1281700Y138753D01*
X1282061Y138836D01*
X1282505Y138919D01*
X1283005Y138975D01*
X1283533Y139003D01*
X1284115Y139031D01*
X1284143D01*
X1284227D01*
X1284338D01*
X1284504D01*
X1284726Y139003D01*
D02*
G37*
G36*
X1280284Y118015D02*
X1291750D01*
Y113323D01*
X1280284D01*
Y108520D01*
X1276536D01*
Y122817D01*
X1280284D01*
Y118015D01*
D02*
G37*
G36*
X1291750Y95166D02*
X1287502D01*
Y99691D01*
X1291750D01*
Y95166D01*
D02*
G37*
G36*
X1284976D02*
X1280729D01*
Y99691D01*
X1284976D01*
Y95166D01*
D02*
G37*
G36*
X1291750Y87615D02*
X1285587D01*
Y82451D01*
X1291750D01*
Y77759D01*
X1276536D01*
Y82451D01*
X1281839D01*
Y87615D01*
X1276536D01*
Y92335D01*
X1291750D01*
Y87615D01*
D02*
G37*
G36*
X1286864Y75427D02*
X1286947Y75400D01*
X1287058Y75372D01*
X1287392Y75289D01*
X1287780Y75122D01*
X1288252Y74955D01*
X1288724Y74706D01*
X1289196Y74456D01*
X1289668Y74123D01*
X1289724Y74095D01*
X1289862Y73956D01*
X1290057Y73762D01*
X1290334Y73512D01*
X1290612Y73179D01*
X1290889Y72818D01*
X1291167Y72373D01*
X1291417Y71902D01*
Y71874D01*
X1291445Y71846D01*
X1291472Y71763D01*
X1291500Y71680D01*
X1291611Y71374D01*
X1291695Y70985D01*
X1291806Y70514D01*
X1291917Y69931D01*
X1291972Y69264D01*
X1292000Y68542D01*
Y68126D01*
X1291972Y67904D01*
Y67682D01*
X1291944Y67404D01*
X1291917Y67099D01*
X1291833Y66460D01*
X1291695Y65766D01*
X1291528Y65100D01*
X1291306Y64461D01*
Y64434D01*
X1291278Y64406D01*
X1291223Y64323D01*
X1291167Y64212D01*
X1290973Y63906D01*
X1290723Y63545D01*
X1290362Y63129D01*
X1289946Y62657D01*
X1289418Y62213D01*
X1288780Y61768D01*
X1288752D01*
X1288696Y61713D01*
X1288585Y61657D01*
X1288446Y61602D01*
X1288280Y61519D01*
X1288058Y61407D01*
X1287808Y61296D01*
X1287502Y61213D01*
X1287197Y61102D01*
X1286836Y60991D01*
X1286448Y60908D01*
X1286031Y60797D01*
X1285587Y60741D01*
X1285115Y60686D01*
X1284115Y60630D01*
X1284060D01*
X1283949D01*
X1283755Y60658D01*
X1283505D01*
X1283172Y60686D01*
X1282811Y60741D01*
X1282422Y60797D01*
X1281978Y60880D01*
X1281506Y60991D01*
X1281034Y61130D01*
X1280562Y61269D01*
X1280062Y61463D01*
X1279590Y61713D01*
X1279146Y61963D01*
X1278702Y62268D01*
X1278313Y62629D01*
X1278286Y62657D01*
X1278230Y62712D01*
X1278119Y62851D01*
X1278008Y62990D01*
X1277841Y63212D01*
X1277675Y63462D01*
X1277480Y63740D01*
X1277286Y64100D01*
X1277120Y64461D01*
X1276925Y64906D01*
X1276759Y65377D01*
X1276592Y65877D01*
X1276481Y66432D01*
X1276370Y67015D01*
X1276314Y67654D01*
X1276287Y68320D01*
Y68598D01*
X1276314Y68792D01*
Y69042D01*
X1276342Y69320D01*
X1276370Y69625D01*
X1276425Y69958D01*
X1276564Y70708D01*
X1276786Y71457D01*
X1277064Y72179D01*
X1277258Y72512D01*
X1277453Y72846D01*
Y72873D01*
X1277508Y72929D01*
X1277564Y73012D01*
X1277675Y73123D01*
X1277786Y73262D01*
X1277952Y73429D01*
X1278119Y73595D01*
X1278341Y73789D01*
X1278563Y73984D01*
X1278841Y74178D01*
X1279118Y74400D01*
X1279452Y74594D01*
X1279812Y74789D01*
X1280173Y74983D01*
X1280590Y75150D01*
X1281034Y75316D01*
X1281950Y71152D01*
X1281922D01*
X1281839Y71124D01*
X1281700Y71069D01*
X1281561Y71013D01*
X1281228Y70847D01*
X1281089Y70763D01*
X1280951Y70680D01*
X1280923Y70652D01*
X1280867Y70624D01*
X1280756Y70514D01*
X1280645Y70402D01*
X1280368Y70097D01*
X1280118Y69708D01*
X1280090Y69681D01*
X1280062Y69625D01*
X1280007Y69486D01*
X1279951Y69348D01*
X1279896Y69153D01*
X1279868Y68931D01*
X1279812Y68681D01*
Y68265D01*
X1279840Y68181D01*
X1279868Y67876D01*
X1279979Y67515D01*
X1280118Y67126D01*
X1280368Y66710D01*
X1280673Y66321D01*
X1280895Y66155D01*
X1281117Y65988D01*
X1281173Y65960D01*
X1281284Y65877D01*
X1281534Y65794D01*
X1281839Y65683D01*
X1282256Y65544D01*
X1282755Y65461D01*
X1283366Y65377D01*
X1284088Y65350D01*
X1284115D01*
X1284199D01*
X1284338D01*
X1284504D01*
X1284698Y65377D01*
X1284948D01*
X1285476Y65433D01*
X1286031Y65544D01*
X1286614Y65655D01*
X1287142Y65849D01*
X1287364Y65960D01*
X1287558Y66099D01*
X1287586Y66127D01*
X1287697Y66238D01*
X1287836Y66432D01*
X1288002Y66655D01*
X1288197Y66960D01*
X1288335Y67349D01*
X1288446Y67765D01*
X1288474Y68265D01*
Y68487D01*
X1288446Y68737D01*
X1288391Y69042D01*
X1288280Y69375D01*
X1288169Y69708D01*
X1287975Y70041D01*
X1287725Y70319D01*
X1287697Y70347D01*
X1287586Y70430D01*
X1287419Y70569D01*
X1287169Y70708D01*
X1286864Y70874D01*
X1286475Y71041D01*
X1286031Y71207D01*
X1285504Y71346D01*
X1286781Y75455D01*
X1286808D01*
X1286864Y75427D01*
D02*
G37*
G36*
X1287336Y58770D02*
X1287697Y58714D01*
X1288113Y58631D01*
X1288585Y58465D01*
X1289057Y58270D01*
X1289529Y57993D01*
X1289585Y57965D01*
X1289724Y57854D01*
X1289946Y57660D01*
X1290223Y57410D01*
X1290529Y57077D01*
X1290834Y56688D01*
X1291112Y56244D01*
X1291389Y55716D01*
Y55689D01*
X1291417Y55661D01*
X1291445Y55577D01*
X1291472Y55466D01*
X1291528Y55328D01*
X1291584Y55133D01*
X1291639Y54939D01*
X1291695Y54717D01*
X1291806Y54189D01*
X1291917Y53551D01*
X1291972Y52857D01*
X1292000Y52052D01*
Y51691D01*
X1291972Y51413D01*
X1291944Y51108D01*
X1291917Y50747D01*
X1291889Y50358D01*
X1291806Y49914D01*
X1291639Y49026D01*
X1291389Y48137D01*
X1291223Y47721D01*
X1291001Y47332D01*
X1290779Y46971D01*
X1290529Y46666D01*
X1290501Y46638D01*
X1290445Y46610D01*
X1290362Y46527D01*
X1290251Y46444D01*
X1290112Y46333D01*
X1289946Y46194D01*
X1289724Y46055D01*
X1289501Y45916D01*
X1288946Y45611D01*
X1288280Y45333D01*
X1287558Y45139D01*
X1287142Y45055D01*
X1286725Y45000D01*
X1286420Y49470D01*
X1286475D01*
X1286614Y49497D01*
X1286808Y49525D01*
X1287031Y49608D01*
X1287586Y49775D01*
X1287863Y49914D01*
X1288085Y50053D01*
X1288113Y50080D01*
X1288224Y50191D01*
X1288363Y50358D01*
X1288530Y50580D01*
X1288724Y50886D01*
X1288863Y51247D01*
X1288974Y51663D01*
X1289002Y52135D01*
Y52302D01*
X1288974Y52468D01*
X1288946Y52718D01*
X1288891Y52968D01*
X1288807Y53218D01*
X1288696Y53467D01*
X1288557Y53690D01*
X1288530Y53717D01*
X1288474Y53773D01*
X1288363Y53856D01*
X1288252Y53967D01*
X1288085Y54078D01*
X1287891Y54162D01*
X1287669Y54217D01*
X1287447Y54245D01*
X1287419D01*
X1287336D01*
X1287225Y54217D01*
X1287086Y54189D01*
X1286920Y54106D01*
X1286753Y54023D01*
X1286559Y53884D01*
X1286392Y53717D01*
X1286364Y53690D01*
X1286309Y53606D01*
X1286225Y53440D01*
X1286114Y53218D01*
X1285976Y52884D01*
X1285809Y52468D01*
X1285726Y52218D01*
X1285670Y51941D01*
X1285587Y51635D01*
X1285504Y51302D01*
Y51274D01*
X1285476Y51163D01*
X1285420Y50997D01*
X1285393Y50802D01*
X1285309Y50553D01*
X1285226Y50247D01*
X1285143Y49942D01*
X1285032Y49608D01*
X1284754Y48859D01*
X1284449Y48137D01*
X1284088Y47471D01*
X1283893Y47165D01*
X1283671Y46888D01*
X1283644D01*
X1283616Y46832D01*
X1283477Y46694D01*
X1283227Y46471D01*
X1282866Y46249D01*
X1282450Y45999D01*
X1281950Y45777D01*
X1281395Y45638D01*
X1281089Y45611D01*
X1280756Y45583D01*
X1280729D01*
X1280701D01*
X1280562D01*
X1280312Y45611D01*
X1280034Y45666D01*
X1279701Y45750D01*
X1279313Y45861D01*
X1278924Y46027D01*
X1278535Y46249D01*
X1278480Y46277D01*
X1278369Y46388D01*
X1278174Y46555D01*
X1277925Y46777D01*
X1277675Y47054D01*
X1277397Y47415D01*
X1277147Y47832D01*
X1276897Y48304D01*
Y48331D01*
X1276870Y48359D01*
X1276842Y48443D01*
X1276814Y48554D01*
X1276759Y48692D01*
X1276703Y48859D01*
X1276647Y49053D01*
X1276592Y49275D01*
X1276536Y49525D01*
X1276481Y49831D01*
X1276370Y50469D01*
X1276314Y51219D01*
X1276287Y52052D01*
Y52329D01*
X1276314Y52524D01*
Y52773D01*
X1276342Y53051D01*
X1276370Y53356D01*
X1276425Y53690D01*
X1276564Y54411D01*
X1276759Y55161D01*
X1277036Y55855D01*
X1277203Y56188D01*
X1277397Y56494D01*
Y56521D01*
X1277453Y56549D01*
X1277591Y56743D01*
X1277869Y56993D01*
X1278230Y57299D01*
X1278452Y57465D01*
X1278702Y57604D01*
X1279007Y57771D01*
X1279313Y57909D01*
X1279646Y58048D01*
X1280007Y58159D01*
X1280423Y58243D01*
X1280840Y58326D01*
X1281089Y53884D01*
X1281034D01*
X1280923Y53856D01*
X1280729Y53801D01*
X1280506Y53717D01*
X1280284Y53606D01*
X1280034Y53495D01*
X1279785Y53329D01*
X1279590Y53134D01*
X1279563Y53107D01*
X1279507Y53023D01*
X1279452Y52912D01*
X1279340Y52746D01*
X1279257Y52524D01*
X1279202Y52246D01*
X1279146Y51941D01*
X1279118Y51580D01*
Y51441D01*
X1279146Y51302D01*
X1279174Y51108D01*
X1279257Y50691D01*
X1279368Y50497D01*
X1279479Y50330D01*
X1279507Y50303D01*
X1279535Y50275D01*
X1279701Y50136D01*
X1279979Y49997D01*
X1280146Y49969D01*
X1280312Y49942D01*
X1280340D01*
X1280368D01*
X1280534Y49997D01*
X1280756Y50080D01*
X1280867Y50164D01*
X1280978Y50275D01*
Y50303D01*
X1281034Y50358D01*
X1281089Y50441D01*
X1281173Y50608D01*
X1281256Y50802D01*
X1281339Y51080D01*
X1281450Y51413D01*
X1281534Y51830D01*
Y51857D01*
X1281561Y51968D01*
X1281589Y52135D01*
X1281645Y52329D01*
X1281700Y52579D01*
X1281783Y52884D01*
X1281867Y53218D01*
X1281950Y53551D01*
X1282144Y54273D01*
X1282394Y55022D01*
X1282644Y55689D01*
X1282755Y55994D01*
X1282894Y56272D01*
Y56299D01*
X1282922Y56327D01*
X1283005Y56494D01*
X1283144Y56716D01*
X1283338Y57021D01*
X1283588Y57326D01*
X1283866Y57660D01*
X1284199Y57965D01*
X1284560Y58215D01*
X1284615Y58243D01*
X1284726Y58298D01*
X1284948Y58409D01*
X1285226Y58520D01*
X1285559Y58631D01*
X1285920Y58742D01*
X1286364Y58798D01*
X1286808Y58826D01*
X1286836D01*
X1286864D01*
X1286947D01*
X1287058D01*
X1287336Y58770D01*
D02*
G37*
G36*
X715882Y317419D02*
X716105D01*
X716660Y317364D01*
X717243Y317308D01*
X717881Y317197D01*
X718492Y317059D01*
X719047Y316864D01*
X719075D01*
X719103Y316836D01*
X719269Y316753D01*
X719519Y316642D01*
X719825Y316476D01*
X720186Y316254D01*
X720547Y315976D01*
X720935Y315671D01*
X721296Y315310D01*
X721324Y315254D01*
X721435Y315143D01*
X721601Y314949D01*
X721796Y314699D01*
X721990Y314366D01*
X722185Y314032D01*
X722379Y313644D01*
X722518Y313227D01*
Y313200D01*
X722545Y313172D01*
Y313089D01*
X722573Y312978D01*
X722629Y312672D01*
X722712Y312283D01*
X722795Y311867D01*
X722851Y311367D01*
X722879Y310895D01*
X722906Y310396D01*
Y303427D01*
X707693D01*
Y310729D01*
X707720Y310923D01*
Y311117D01*
X707776Y311589D01*
X707831Y312145D01*
X707943Y312700D01*
X708081Y313255D01*
X708276Y313755D01*
Y313783D01*
X708303Y313810D01*
X708387Y313977D01*
X708498Y314199D01*
X708692Y314505D01*
X708914Y314838D01*
X709192Y315198D01*
X709525Y315532D01*
X709886Y315865D01*
X709941Y315893D01*
X710080Y316004D01*
X710275Y316142D01*
X710580Y316337D01*
X710941Y316531D01*
X711357Y316725D01*
X711829Y316892D01*
X712329Y317059D01*
X712357D01*
X712384Y317086D01*
X712468D01*
X712579Y317114D01*
X712856Y317170D01*
X713217Y317253D01*
X713661Y317336D01*
X714161Y317392D01*
X714689Y317419D01*
X715272Y317447D01*
X715300D01*
X715383D01*
X715494D01*
X715660D01*
X715882Y317419D01*
D02*
G37*
G36*
X725572Y291073D02*
X724517D01*
Y301928D01*
X725572D01*
Y291073D01*
D02*
G37*
G36*
X715882Y290240D02*
X716105D01*
X716660Y290185D01*
X717243Y290129D01*
X717881Y290018D01*
X718492Y289879D01*
X719047Y289685D01*
X719075D01*
X719103Y289657D01*
X719269Y289574D01*
X719519Y289463D01*
X719825Y289296D01*
X720186Y289074D01*
X720547Y288797D01*
X720935Y288491D01*
X721296Y288130D01*
X721324Y288075D01*
X721435Y287964D01*
X721601Y287770D01*
X721796Y287520D01*
X721990Y287186D01*
X722185Y286853D01*
X722379Y286465D01*
X722518Y286048D01*
Y286020D01*
X722545Y285993D01*
Y285909D01*
X722573Y285798D01*
X722629Y285493D01*
X722712Y285104D01*
X722795Y284688D01*
X722851Y284188D01*
X722879Y283716D01*
X722906Y283216D01*
Y276248D01*
X707693D01*
Y283550D01*
X707720Y283744D01*
Y283938D01*
X707776Y284410D01*
X707831Y284965D01*
X707943Y285521D01*
X708081Y286076D01*
X708276Y286576D01*
Y286603D01*
X708303Y286631D01*
X708387Y286798D01*
X708498Y287020D01*
X708692Y287325D01*
X708914Y287658D01*
X709192Y288019D01*
X709525Y288353D01*
X709886Y288686D01*
X709941Y288713D01*
X710080Y288824D01*
X710275Y288963D01*
X710580Y289158D01*
X710941Y289352D01*
X711357Y289546D01*
X711829Y289713D01*
X712329Y289879D01*
X712357D01*
X712384Y289907D01*
X712468D01*
X712579Y289935D01*
X712856Y289990D01*
X713217Y290074D01*
X713661Y290157D01*
X714161Y290212D01*
X714689Y290240D01*
X715272Y290268D01*
X715300D01*
X715383D01*
X715494D01*
X715660D01*
X715882Y290240D01*
D02*
G37*
G36*
X722906Y268641D02*
X714522Y262922D01*
X722906D01*
Y258508D01*
X707693D01*
Y262867D01*
X716132Y268641D01*
X707693D01*
Y273083D01*
X722906D01*
Y268641D01*
D02*
G37*
G36*
X720741Y255676D02*
X720769Y255621D01*
X720852Y255510D01*
X720935Y255343D01*
X721046Y255177D01*
X721185Y254954D01*
X721490Y254455D01*
X721796Y253872D01*
X722129Y253233D01*
X722434Y252595D01*
X722656Y251984D01*
Y251956D01*
X722684Y251901D01*
X722712Y251817D01*
X722740Y251706D01*
X722767Y251540D01*
X722823Y251373D01*
X722851Y251151D01*
X722906Y250929D01*
X722990Y250374D01*
X723073Y249708D01*
X723128Y248986D01*
X723156Y248181D01*
Y247931D01*
X723128Y247736D01*
Y247486D01*
X723101Y247237D01*
X723073Y246931D01*
X723045Y246598D01*
X722934Y245904D01*
X722767Y245154D01*
X722545Y244433D01*
X722240Y243739D01*
Y243711D01*
X722185Y243655D01*
X722129Y243572D01*
X722074Y243461D01*
X721851Y243156D01*
X721546Y242767D01*
X721185Y242351D01*
X720713Y241906D01*
X720158Y241490D01*
X719519Y241101D01*
X719492D01*
X719436Y241073D01*
X719325Y241018D01*
X719186Y240962D01*
X719020Y240879D01*
X718825Y240824D01*
X718575Y240740D01*
X718298Y240657D01*
X718020Y240546D01*
X717687Y240463D01*
X716965Y240324D01*
X716160Y240213D01*
X715300Y240185D01*
X715272D01*
X715189D01*
X715050D01*
X714883Y240213D01*
X714661D01*
X714411Y240241D01*
X714134Y240268D01*
X713828Y240324D01*
X713162Y240435D01*
X712440Y240629D01*
X711718Y240879D01*
X710996Y241212D01*
X710969D01*
X710913Y241268D01*
X710830Y241323D01*
X710691Y241407D01*
X710358Y241629D01*
X709941Y241962D01*
X709497Y242406D01*
X709025Y242906D01*
X708581Y243517D01*
X708192Y244211D01*
Y244238D01*
X708165Y244294D01*
X708109Y244377D01*
X708081Y244488D01*
X708026Y244655D01*
X707943Y244849D01*
X707887Y245071D01*
X707804Y245321D01*
X707748Y245599D01*
X707693Y245932D01*
X707609Y246265D01*
X707554Y246626D01*
X707498Y247042D01*
X707471Y247459D01*
X707443Y248403D01*
Y249041D01*
X707471Y249263D01*
X707498Y249818D01*
X707554Y250429D01*
X707637Y251068D01*
X707748Y251651D01*
X707831Y251929D01*
X707915Y252178D01*
Y252206D01*
X707943Y252234D01*
X707998Y252400D01*
X708109Y252623D01*
X708248Y252900D01*
X708442Y253233D01*
X708692Y253594D01*
X708997Y253927D01*
X709331Y254261D01*
X709386Y254288D01*
X709497Y254399D01*
X709719Y254538D01*
X709997Y254732D01*
X710330Y254927D01*
X710747Y255149D01*
X711218Y255343D01*
X711746Y255510D01*
X712551Y250984D01*
X712523D01*
X712412Y250929D01*
X712246Y250846D01*
X712051Y250762D01*
X711857Y250624D01*
X711635Y250457D01*
X711441Y250235D01*
X711246Y250013D01*
X711218Y249985D01*
X711163Y249902D01*
X711107Y249735D01*
X710996Y249541D01*
X710913Y249291D01*
X710858Y249013D01*
X710802Y248680D01*
X710774Y248292D01*
Y248153D01*
X710802Y248042D01*
X710830Y247764D01*
X710913Y247403D01*
X711024Y247015D01*
X711218Y246598D01*
X711496Y246182D01*
X711857Y245821D01*
X711913Y245793D01*
X712051Y245682D01*
X712329Y245543D01*
X712690Y245377D01*
X713162Y245182D01*
X713439Y245127D01*
X713745Y245043D01*
X714078Y244988D01*
X714439Y244932D01*
X714828Y244905D01*
X715244D01*
X715272D01*
X715355D01*
X715466D01*
X715633Y244932D01*
X715855D01*
X716077Y244960D01*
X716604Y245016D01*
X717187Y245127D01*
X717770Y245293D01*
X718326Y245515D01*
X718548Y245654D01*
X718770Y245821D01*
X718825Y245876D01*
X718936Y245987D01*
X719103Y246209D01*
X719297Y246515D01*
X719492Y246876D01*
X719658Y247320D01*
X719769Y247847D01*
X719825Y248430D01*
Y248708D01*
X719797Y248902D01*
X719769Y249152D01*
X719742Y249402D01*
X719603Y249930D01*
Y249957D01*
X719547Y250068D01*
X719492Y250207D01*
X719408Y250401D01*
X719325Y250651D01*
X719186Y250929D01*
X719020Y251262D01*
X718825Y251595D01*
X717382D01*
Y248430D01*
X714217D01*
Y255704D01*
X720713D01*
X720741Y255676D01*
D02*
G37*
G36*
X1119635Y884686D02*
X1119885D01*
X1120163Y884658D01*
X1120468Y884630D01*
X1120801Y884575D01*
X1121523Y884436D01*
X1122217Y884241D01*
X1122911Y883964D01*
X1123189Y883797D01*
X1123466Y883603D01*
X1123494D01*
X1123522Y883547D01*
X1123689Y883409D01*
X1123883Y883159D01*
X1124133Y882826D01*
X1124382Y882437D01*
X1124605Y881965D01*
X1124743Y881410D01*
X1124771Y881104D01*
X1124799Y880799D01*
Y880743D01*
Y880632D01*
X1124771Y880438D01*
X1124743Y880216D01*
X1124660Y879938D01*
X1124577Y879633D01*
X1124438Y879327D01*
X1124244Y879022D01*
X1124216Y878994D01*
X1124133Y878883D01*
X1124022Y878745D01*
X1123855Y878550D01*
X1123633Y878356D01*
X1123355Y878106D01*
X1123022Y877856D01*
X1122634Y877634D01*
X1122661D01*
X1122772Y877606D01*
X1122939Y877551D01*
X1123133Y877495D01*
X1123550Y877329D01*
X1123772Y877245D01*
X1123966Y877134D01*
X1123994Y877107D01*
X1124077Y877051D01*
X1124216Y876940D01*
X1124382Y876801D01*
X1124577Y876635D01*
X1124771Y876413D01*
X1124966Y876163D01*
X1125132Y875885D01*
X1125160Y875857D01*
X1125215Y875746D01*
X1125271Y875580D01*
X1125354Y875385D01*
X1125437Y875108D01*
X1125521Y874802D01*
X1125548Y874469D01*
X1125576Y874081D01*
Y874053D01*
Y874025D01*
Y873858D01*
X1125548Y873608D01*
X1125493Y873275D01*
X1125410Y872859D01*
X1125271Y872442D01*
X1125104Y871998D01*
X1124855Y871526D01*
X1124827Y871471D01*
X1124716Y871332D01*
X1124577Y871110D01*
X1124355Y870832D01*
X1124049Y870527D01*
X1123716Y870221D01*
X1123327Y869916D01*
X1122856Y869639D01*
X1122828D01*
X1122800Y869611D01*
X1122717Y869583D01*
X1122606Y869528D01*
X1122495Y869500D01*
X1122328Y869444D01*
X1121939Y869333D01*
X1121440Y869194D01*
X1120857Y869111D01*
X1120163Y869028D01*
X1119413Y869000D01*
X1119080D01*
X1118913Y869028D01*
X1118691D01*
X1118247Y869055D01*
X1117720Y869111D01*
X1117164Y869194D01*
X1116637Y869305D01*
X1116137Y869472D01*
X1116082Y869500D01*
X1115943Y869555D01*
X1115721Y869666D01*
X1115443Y869833D01*
X1115138Y870027D01*
X1114805Y870277D01*
X1114471Y870555D01*
X1114166Y870888D01*
X1114138Y870943D01*
X1114027Y871054D01*
X1113888Y871249D01*
X1113722Y871526D01*
X1113528Y871887D01*
X1113361Y872276D01*
X1113167Y872748D01*
X1113000Y873248D01*
X1117220Y873831D01*
Y873775D01*
X1117275Y873636D01*
X1117331Y873414D01*
X1117414Y873137D01*
X1117636Y872554D01*
X1117803Y872276D01*
X1117969Y872054D01*
X1117997Y872026D01*
X1118053Y871971D01*
X1118192Y871915D01*
X1118330Y871832D01*
X1118525Y871721D01*
X1118774Y871665D01*
X1119024Y871610D01*
X1119330Y871582D01*
X1119469D01*
X1119635Y871610D01*
X1119829Y871665D01*
X1120052Y871721D01*
X1120302Y871832D01*
X1120524Y871998D01*
X1120746Y872193D01*
X1120773Y872220D01*
X1120829Y872304D01*
X1120940Y872442D01*
X1121051Y872637D01*
X1121134Y872859D01*
X1121245Y873164D01*
X1121301Y873497D01*
X1121329Y873858D01*
Y873914D01*
Y874025D01*
X1121301Y874219D01*
X1121273Y874469D01*
X1121190Y874719D01*
X1121107Y874997D01*
X1120968Y875247D01*
X1120773Y875496D01*
X1120746Y875524D01*
X1120662Y875580D01*
X1120551Y875691D01*
X1120385Y875802D01*
X1120163Y875885D01*
X1119913Y875996D01*
X1119607Y876052D01*
X1119274Y876079D01*
X1119080D01*
X1118913Y876052D01*
X1118719Y876024D01*
X1118497Y875968D01*
X1118219Y875913D01*
X1117914Y875829D01*
X1118108Y878828D01*
X1118303D01*
X1118497Y878800D01*
X1118802D01*
X1118969Y878828D01*
X1119163Y878856D01*
X1119358Y878911D01*
X1119607Y879022D01*
X1119829Y879133D01*
X1120052Y879300D01*
X1120079Y879327D01*
X1120135Y879383D01*
X1120246Y879494D01*
X1120357Y879661D01*
X1120440Y879827D01*
X1120551Y880049D01*
X1120607Y880299D01*
X1120635Y880549D01*
Y880577D01*
Y880660D01*
X1120607Y880799D01*
X1120579Y880938D01*
X1120524Y881132D01*
X1120468Y881299D01*
X1120357Y881493D01*
X1120218Y881660D01*
X1120190Y881687D01*
X1120135Y881715D01*
X1120052Y881798D01*
X1119913Y881882D01*
X1119746Y881937D01*
X1119552Y882020D01*
X1119330Y882048D01*
X1119052Y882076D01*
X1118941D01*
X1118802Y882048D01*
X1118608Y882020D01*
X1118414Y881965D01*
X1118219Y881882D01*
X1118025Y881771D01*
X1117831Y881604D01*
X1117803Y881576D01*
X1117747Y881521D01*
X1117692Y881410D01*
X1117581Y881243D01*
X1117497Y881021D01*
X1117386Y880771D01*
X1117303Y880438D01*
X1117220Y880049D01*
X1113222Y880743D01*
Y880771D01*
X1113250Y880827D01*
X1113278Y880938D01*
X1113305Y881049D01*
X1113389Y881215D01*
X1113444Y881410D01*
X1113639Y881826D01*
X1113888Y882298D01*
X1114221Y882798D01*
X1114610Y883270D01*
X1115110Y883686D01*
X1115138D01*
X1115165Y883742D01*
X1115249Y883770D01*
X1115388Y883853D01*
X1115526Y883936D01*
X1115693Y884019D01*
X1115915Y884103D01*
X1116165Y884214D01*
X1116415Y884297D01*
X1116720Y884380D01*
X1117053Y884464D01*
X1117414Y884547D01*
X1117803Y884630D01*
X1118219Y884658D01*
X1119136Y884713D01*
X1119413D01*
X1119635Y884686D01*
D02*
G37*
G36*
X1137320Y869250D02*
X1132239D01*
X1126492Y884464D01*
X1131406D01*
X1134821Y873497D01*
X1138208Y884464D01*
X1142983D01*
X1137320Y869250D01*
D02*
G37*
G36*
X1188097Y881188D02*
X1181184Y881188D01*
Y878550D01*
X1187097Y878550D01*
Y875469D01*
X1181184Y875469D01*
Y869250D01*
X1176464D01*
Y884464D01*
X1188097Y884464D01*
Y881188D01*
D02*
G37*
G36*
X1173688Y881215D02*
X1165804D01*
Y878800D01*
X1173105D01*
Y875691D01*
X1165804D01*
Y872692D01*
X1173910D01*
Y869250D01*
X1161084D01*
Y884464D01*
X1173688D01*
Y881215D01*
D02*
G37*
G36*
X1153172Y884436D02*
X1153672Y884408D01*
X1154199Y884380D01*
X1154754Y884297D01*
X1155282Y884214D01*
X1155754Y884075D01*
X1155809Y884047D01*
X1155948Y883992D01*
X1156170Y883908D01*
X1156420Y883770D01*
X1156725Y883575D01*
X1157031Y883325D01*
X1157336Y883048D01*
X1157614Y882687D01*
X1157642Y882631D01*
X1157725Y882520D01*
X1157836Y882298D01*
X1157975Y881993D01*
X1158114Y881632D01*
X1158225Y881215D01*
X1158308Y880743D01*
X1158336Y880216D01*
Y880160D01*
Y879994D01*
X1158308Y879772D01*
X1158280Y879466D01*
X1158197Y879133D01*
X1158114Y878772D01*
X1157975Y878384D01*
X1157780Y878023D01*
X1157753Y877995D01*
X1157697Y877884D01*
X1157558Y877717D01*
X1157392Y877495D01*
X1157170Y877273D01*
X1156920Y877023D01*
X1156614Y876773D01*
X1156281Y876551D01*
X1156254Y876524D01*
X1156170Y876496D01*
X1156031Y876413D01*
X1155865Y876329D01*
X1155615Y876246D01*
X1155337Y876135D01*
X1155004Y876052D01*
X1154643Y875940D01*
X1154671D01*
X1154782Y875885D01*
X1154921Y875829D01*
X1155115Y875774D01*
X1155504Y875580D01*
X1155698Y875496D01*
X1155865Y875385D01*
X1155920Y875358D01*
X1155976Y875302D01*
X1156059Y875219D01*
X1156170Y875108D01*
X1156281Y874969D01*
X1156448Y874802D01*
X1156614Y874580D01*
X1156642Y874552D01*
X1156698Y874469D01*
X1156781Y874358D01*
X1156892Y874247D01*
X1157114Y873914D01*
X1157197Y873775D01*
X1157281Y873636D01*
X1159585Y869250D01*
X1154255D01*
X1151728Y873886D01*
X1151701Y873914D01*
X1151645Y874025D01*
X1151562Y874192D01*
X1151451Y874358D01*
X1151173Y874747D01*
X1151006Y874913D01*
X1150868Y875052D01*
X1150840Y875080D01*
X1150784Y875108D01*
X1150673Y875163D01*
X1150535Y875247D01*
X1150368Y875302D01*
X1150174Y875358D01*
X1149951Y875385D01*
X1149702Y875413D01*
X1149313D01*
Y869250D01*
X1144593D01*
Y884464D01*
X1152978D01*
X1153172Y884436D01*
D02*
G37*
G36*
X683883Y311005D02*
X684105D01*
X684660Y310949D01*
X685243Y310894D01*
X685881Y310783D01*
X686492Y310644D01*
X687047Y310450D01*
X687075D01*
X687103Y310422D01*
X687270Y310338D01*
X687519Y310227D01*
X687825Y310061D01*
X688186Y309839D01*
X688547Y309561D01*
X688935Y309256D01*
X689296Y308895D01*
X689324Y308839D01*
X689435Y308728D01*
X689602Y308534D01*
X689796Y308284D01*
X689990Y307951D01*
X690184Y307618D01*
X690379Y307229D01*
X690518Y306813D01*
Y306785D01*
X690545Y306757D01*
Y306674D01*
X690573Y306563D01*
X690629Y306257D01*
X690712Y305869D01*
X690795Y305452D01*
X690851Y304953D01*
X690879Y304481D01*
X690906Y303981D01*
Y297013D01*
X675693D01*
Y304314D01*
X675720Y304508D01*
Y304703D01*
X675776Y305175D01*
X675832Y305730D01*
X675943Y306285D01*
X676081Y306840D01*
X676276Y307340D01*
Y307368D01*
X676303Y307396D01*
X676387Y307562D01*
X676498Y307784D01*
X676692Y308090D01*
X676914Y308423D01*
X677192Y308784D01*
X677525Y309117D01*
X677886Y309450D01*
X677941Y309478D01*
X678080Y309589D01*
X678275Y309728D01*
X678580Y309922D01*
X678941Y310116D01*
X679357Y310311D01*
X679829Y310477D01*
X680329Y310644D01*
X680357D01*
X680385Y310672D01*
X680468D01*
X680579Y310699D01*
X680856Y310755D01*
X681217Y310838D01*
X681662Y310921D01*
X682161Y310977D01*
X682689Y311005D01*
X683272Y311033D01*
X683299D01*
X683383D01*
X683494D01*
X683660D01*
X683883Y311005D01*
D02*
G37*
G36*
X693571Y284658D02*
X692516D01*
Y295513D01*
X693571D01*
Y284658D01*
D02*
G37*
G36*
X686548Y283881D02*
X686881Y283825D01*
X687297Y283742D01*
X687714Y283603D01*
X688158Y283437D01*
X688630Y283187D01*
X688685Y283159D01*
X688824Y283048D01*
X689046Y282909D01*
X689324Y282687D01*
X689629Y282382D01*
X689935Y282049D01*
X690240Y281660D01*
X690518Y281188D01*
Y281160D01*
X690545Y281133D01*
X690573Y281049D01*
X690629Y280938D01*
X690657Y280827D01*
X690712Y280661D01*
X690823Y280272D01*
X690962Y279772D01*
X691045Y279189D01*
X691128Y278495D01*
X691156Y277746D01*
Y277412D01*
X691128Y277246D01*
Y277024D01*
X691101Y276580D01*
X691045Y276052D01*
X690962Y275497D01*
X690851Y274969D01*
X690684Y274470D01*
X690657Y274414D01*
X690601Y274275D01*
X690490Y274053D01*
X690323Y273776D01*
X690129Y273470D01*
X689879Y273137D01*
X689602Y272804D01*
X689268Y272498D01*
X689213Y272471D01*
X689102Y272360D01*
X688907Y272221D01*
X688630Y272054D01*
X688269Y271860D01*
X687880Y271693D01*
X687408Y271499D01*
X686909Y271332D01*
X686326Y275552D01*
X686381D01*
X686520Y275608D01*
X686742Y275663D01*
X687020Y275747D01*
X687603Y275969D01*
X687880Y276135D01*
X688102Y276302D01*
X688130Y276330D01*
X688186Y276385D01*
X688241Y276524D01*
X688325Y276663D01*
X688436Y276857D01*
X688491Y277107D01*
X688547Y277357D01*
X688574Y277662D01*
Y277801D01*
X688547Y277968D01*
X688491Y278162D01*
X688436Y278384D01*
X688325Y278634D01*
X688158Y278856D01*
X687963Y279078D01*
X687936Y279106D01*
X687852Y279161D01*
X687714Y279272D01*
X687519Y279384D01*
X687297Y279467D01*
X686992Y279578D01*
X686659Y279633D01*
X686298Y279661D01*
X686242D01*
X686131D01*
X685937Y279633D01*
X685687Y279606D01*
X685437Y279522D01*
X685160Y279439D01*
X684910Y279300D01*
X684660Y279106D01*
X684632Y279078D01*
X684577Y278995D01*
X684465Y278884D01*
X684354Y278717D01*
X684271Y278495D01*
X684160Y278245D01*
X684105Y277940D01*
X684077Y277607D01*
Y277412D01*
X684105Y277246D01*
X684132Y277052D01*
X684188Y276829D01*
X684243Y276552D01*
X684327Y276246D01*
X681328Y276441D01*
Y276635D01*
X681356Y276829D01*
Y277135D01*
X681328Y277301D01*
X681301Y277496D01*
X681245Y277690D01*
X681134Y277940D01*
X681023Y278162D01*
X680856Y278384D01*
X680829Y278412D01*
X680773Y278467D01*
X680662Y278578D01*
X680496Y278689D01*
X680329Y278773D01*
X680107Y278884D01*
X679857Y278939D01*
X679607Y278967D01*
X679579D01*
X679496D01*
X679357Y278939D01*
X679219Y278912D01*
X679024Y278856D01*
X678857Y278801D01*
X678663Y278689D01*
X678497Y278551D01*
X678469Y278523D01*
X678441Y278467D01*
X678358Y278384D01*
X678275Y278245D01*
X678219Y278079D01*
X678136Y277884D01*
X678108Y277662D01*
X678080Y277385D01*
Y277274D01*
X678108Y277135D01*
X678136Y276940D01*
X678191Y276746D01*
X678275Y276552D01*
X678386Y276357D01*
X678552Y276163D01*
X678580Y276135D01*
X678635Y276080D01*
X678746Y276024D01*
X678913Y275913D01*
X679135Y275830D01*
X679385Y275719D01*
X679718Y275636D01*
X680107Y275552D01*
X679413Y271555D01*
X679385D01*
X679330Y271582D01*
X679219Y271610D01*
X679107Y271638D01*
X678941Y271721D01*
X678746Y271777D01*
X678330Y271971D01*
X677858Y272221D01*
X677358Y272554D01*
X676886Y272943D01*
X676470Y273442D01*
Y273470D01*
X676414Y273498D01*
X676387Y273581D01*
X676303Y273720D01*
X676220Y273859D01*
X676137Y274025D01*
X676054Y274248D01*
X675943Y274497D01*
X675859Y274747D01*
X675776Y275053D01*
X675693Y275386D01*
X675609Y275747D01*
X675526Y276135D01*
X675498Y276552D01*
X675443Y277468D01*
Y277746D01*
X675471Y277968D01*
Y278218D01*
X675498Y278495D01*
X675526Y278801D01*
X675582Y279134D01*
X675720Y279855D01*
X675915Y280550D01*
X676192Y281244D01*
X676359Y281521D01*
X676553Y281799D01*
Y281827D01*
X676609Y281854D01*
X676748Y282021D01*
X676998Y282215D01*
X677331Y282465D01*
X677719Y282715D01*
X678191Y282937D01*
X678746Y283076D01*
X679052Y283104D01*
X679357Y283132D01*
X679413D01*
X679524D01*
X679718Y283104D01*
X679940Y283076D01*
X680218Y282993D01*
X680523Y282909D01*
X680829Y282771D01*
X681134Y282576D01*
X681162Y282549D01*
X681273Y282465D01*
X681412Y282354D01*
X681606Y282188D01*
X681800Y281966D01*
X682050Y281688D01*
X682300Y281355D01*
X682522Y280966D01*
Y280994D01*
X682550Y281105D01*
X682605Y281271D01*
X682661Y281466D01*
X682828Y281882D01*
X682911Y282104D01*
X683022Y282299D01*
X683050Y282326D01*
X683105Y282410D01*
X683216Y282549D01*
X683355Y282715D01*
X683522Y282909D01*
X683744Y283104D01*
X683994Y283298D01*
X684271Y283465D01*
X684299Y283492D01*
X684410Y283548D01*
X684577Y283603D01*
X684771Y283687D01*
X685049Y283770D01*
X685354Y283853D01*
X685687Y283881D01*
X686076Y283909D01*
X686104D01*
X686131D01*
X686298D01*
X686548Y283881D01*
D02*
G37*
G36*
X690906Y264919D02*
Y259839D01*
X675693Y254092D01*
Y259006D01*
X686659Y262421D01*
X675693Y265808D01*
Y270583D01*
X690906Y264919D01*
D02*
G37*
G36*
X686548Y253148D02*
X686881Y253093D01*
X687297Y253009D01*
X687714Y252871D01*
X688158Y252704D01*
X688630Y252454D01*
X688685Y252426D01*
X688824Y252315D01*
X689046Y252177D01*
X689324Y251954D01*
X689629Y251649D01*
X689935Y251316D01*
X690240Y250927D01*
X690518Y250455D01*
Y250428D01*
X690545Y250400D01*
X690573Y250317D01*
X690629Y250205D01*
X690657Y250094D01*
X690712Y249928D01*
X690823Y249539D01*
X690962Y249039D01*
X691045Y248456D01*
X691128Y247762D01*
X691156Y247013D01*
Y246680D01*
X691128Y246513D01*
Y246291D01*
X691101Y245847D01*
X691045Y245319D01*
X690962Y244764D01*
X690851Y244237D01*
X690684Y243737D01*
X690657Y243681D01*
X690601Y243543D01*
X690490Y243321D01*
X690323Y243043D01*
X690129Y242738D01*
X689879Y242404D01*
X689602Y242071D01*
X689268Y241766D01*
X689213Y241738D01*
X689102Y241627D01*
X688907Y241488D01*
X688630Y241322D01*
X688269Y241127D01*
X687880Y240961D01*
X687408Y240766D01*
X686909Y240600D01*
X686326Y244820D01*
X686381D01*
X686520Y244875D01*
X686742Y244931D01*
X687020Y245014D01*
X687603Y245236D01*
X687880Y245403D01*
X688102Y245569D01*
X688130Y245597D01*
X688186Y245653D01*
X688241Y245791D01*
X688325Y245930D01*
X688436Y246124D01*
X688491Y246374D01*
X688547Y246624D01*
X688574Y246930D01*
Y247068D01*
X688547Y247235D01*
X688491Y247429D01*
X688436Y247651D01*
X688325Y247901D01*
X688158Y248123D01*
X687963Y248345D01*
X687936Y248373D01*
X687852Y248429D01*
X687714Y248540D01*
X687519Y248651D01*
X687297Y248734D01*
X686992Y248845D01*
X686659Y248901D01*
X686298Y248928D01*
X686242D01*
X686131D01*
X685937Y248901D01*
X685687Y248873D01*
X685437Y248790D01*
X685160Y248706D01*
X684910Y248568D01*
X684660Y248373D01*
X684632Y248345D01*
X684577Y248262D01*
X684465Y248151D01*
X684354Y247985D01*
X684271Y247762D01*
X684160Y247513D01*
X684105Y247207D01*
X684077Y246874D01*
Y246680D01*
X684105Y246513D01*
X684132Y246319D01*
X684188Y246097D01*
X684243Y245819D01*
X684327Y245514D01*
X681328Y245708D01*
Y245902D01*
X681356Y246097D01*
Y246402D01*
X681328Y246569D01*
X681301Y246763D01*
X681245Y246957D01*
X681134Y247207D01*
X681023Y247429D01*
X680856Y247651D01*
X680829Y247679D01*
X680773Y247735D01*
X680662Y247846D01*
X680496Y247957D01*
X680329Y248040D01*
X680107Y248151D01*
X679857Y248207D01*
X679607Y248234D01*
X679579D01*
X679496D01*
X679357Y248207D01*
X679219Y248179D01*
X679024Y248123D01*
X678857Y248068D01*
X678663Y247957D01*
X678497Y247818D01*
X678469Y247790D01*
X678441Y247735D01*
X678358Y247651D01*
X678275Y247513D01*
X678219Y247346D01*
X678136Y247152D01*
X678108Y246930D01*
X678080Y246652D01*
Y246541D01*
X678108Y246402D01*
X678136Y246208D01*
X678191Y246013D01*
X678275Y245819D01*
X678386Y245625D01*
X678552Y245430D01*
X678580Y245403D01*
X678635Y245347D01*
X678746Y245292D01*
X678913Y245180D01*
X679135Y245097D01*
X679385Y244986D01*
X679718Y244903D01*
X680107Y244820D01*
X679413Y240822D01*
X679385D01*
X679330Y240850D01*
X679219Y240877D01*
X679107Y240905D01*
X678941Y240988D01*
X678746Y241044D01*
X678330Y241238D01*
X677858Y241488D01*
X677358Y241821D01*
X676886Y242210D01*
X676470Y242710D01*
Y242738D01*
X676414Y242765D01*
X676387Y242848D01*
X676303Y242987D01*
X676220Y243126D01*
X676137Y243293D01*
X676054Y243515D01*
X675943Y243765D01*
X675859Y244014D01*
X675776Y244320D01*
X675693Y244653D01*
X675609Y245014D01*
X675526Y245403D01*
X675498Y245819D01*
X675443Y246735D01*
Y247013D01*
X675471Y247235D01*
Y247485D01*
X675498Y247762D01*
X675526Y248068D01*
X675582Y248401D01*
X675720Y249123D01*
X675915Y249817D01*
X676192Y250511D01*
X676359Y250788D01*
X676553Y251066D01*
Y251094D01*
X676609Y251122D01*
X676748Y251288D01*
X676998Y251483D01*
X677331Y251732D01*
X677719Y251982D01*
X678191Y252204D01*
X678746Y252343D01*
X679052Y252371D01*
X679357Y252399D01*
X679413D01*
X679524D01*
X679718Y252371D01*
X679940Y252343D01*
X680218Y252260D01*
X680523Y252177D01*
X680829Y252038D01*
X681134Y251843D01*
X681162Y251816D01*
X681273Y251732D01*
X681412Y251621D01*
X681606Y251455D01*
X681800Y251233D01*
X682050Y250955D01*
X682300Y250622D01*
X682522Y250233D01*
Y250261D01*
X682550Y250372D01*
X682605Y250539D01*
X682661Y250733D01*
X682828Y251149D01*
X682911Y251371D01*
X683022Y251566D01*
X683050Y251594D01*
X683105Y251677D01*
X683216Y251816D01*
X683355Y251982D01*
X683522Y252177D01*
X683744Y252371D01*
X683994Y252565D01*
X684271Y252732D01*
X684299Y252760D01*
X684410Y252815D01*
X684577Y252871D01*
X684771Y252954D01*
X685049Y253037D01*
X685354Y253120D01*
X685687Y253148D01*
X686076Y253176D01*
X686104D01*
X686131D01*
X686298D01*
X686548Y253148D01*
D02*
G37*
%LPC*%
G36*
X796104Y304828D02*
X790663Y303162D01*
X796104Y301496D01*
Y304828D01*
D02*
G37*
G36*
X1243948Y275732D02*
X1238506Y274066D01*
X1243948Y272400D01*
Y275732D01*
D02*
G37*
G36*
X1244892Y171623D02*
X1244864D01*
X1244781D01*
X1244670Y171596D01*
X1244503Y171568D01*
X1244336Y171512D01*
X1244142Y171401D01*
X1243976Y171290D01*
X1243809Y171124D01*
X1243781Y171096D01*
X1243754Y171040D01*
X1243670Y170902D01*
X1243587Y170707D01*
X1243531Y170485D01*
X1243448Y170180D01*
X1243420Y169819D01*
X1243393Y169375D01*
Y167015D01*
X1246474D01*
Y169597D01*
X1246446Y169819D01*
X1246419Y170069D01*
X1246363Y170374D01*
X1246308Y170652D01*
X1246197Y170902D01*
X1246058Y171124D01*
X1246030Y171151D01*
X1245975Y171207D01*
X1245891Y171290D01*
X1245752Y171374D01*
X1245586Y171457D01*
X1245364Y171540D01*
X1245142Y171596D01*
X1244892Y171623D01*
D02*
G37*
G36*
X1239034Y171040D02*
X1239006D01*
X1238923D01*
X1238812Y171013D01*
X1238645Y170985D01*
X1238479Y170929D01*
X1238312Y170846D01*
X1238146Y170735D01*
X1238007Y170596D01*
X1237979Y170568D01*
X1237951Y170513D01*
X1237896Y170402D01*
X1237812Y170235D01*
X1237729Y170041D01*
X1237674Y169791D01*
X1237646Y169458D01*
X1237618Y169097D01*
Y167015D01*
X1240505D01*
Y169236D01*
X1240478Y169430D01*
X1240450Y169680D01*
X1240339Y170180D01*
X1240256Y170402D01*
X1240144Y170596D01*
X1240117Y170624D01*
X1240061Y170679D01*
X1239978Y170735D01*
X1239867Y170818D01*
X1239700Y170902D01*
X1239506Y170985D01*
X1239284Y171013D01*
X1239034Y171040D01*
D02*
G37*
G36*
X1242449Y114905D02*
X1241977D01*
X1241949D01*
X1241893D01*
X1241782D01*
X1241616D01*
X1241449Y114878D01*
X1241255Y114850D01*
X1240783Y114794D01*
X1240283Y114683D01*
X1239756Y114544D01*
X1239256Y114322D01*
X1238840Y114017D01*
X1238784Y113989D01*
X1238673Y113850D01*
X1238534Y113656D01*
X1238340Y113406D01*
X1238146Y113073D01*
X1238007Y112656D01*
X1237896Y112184D01*
X1237840Y111657D01*
Y111601D01*
X1237868Y111435D01*
X1237896Y111157D01*
X1237979Y110852D01*
X1238090Y110491D01*
X1238284Y110102D01*
X1238534Y109714D01*
X1238867Y109381D01*
X1238923Y109353D01*
X1239062Y109242D01*
X1239312Y109103D01*
X1239645Y108964D01*
X1239867Y108881D01*
X1240117Y108798D01*
X1240394Y108714D01*
X1240672Y108659D01*
X1241005Y108603D01*
X1241366Y108548D01*
X1241755Y108520D01*
X1242171D01*
X1242199D01*
X1242282D01*
X1242393D01*
X1242532Y108548D01*
X1242726D01*
X1242948Y108575D01*
X1243448Y108631D01*
X1243976Y108714D01*
X1244531Y108881D01*
X1245058Y109075D01*
X1245280Y109214D01*
X1245475Y109353D01*
X1245530Y109381D01*
X1245641Y109519D01*
X1245780Y109714D01*
X1245975Y109964D01*
X1246169Y110297D01*
X1246308Y110713D01*
X1246419Y111185D01*
X1246474Y111713D01*
Y111851D01*
X1246446Y111962D01*
X1246419Y112240D01*
X1246363Y112573D01*
X1246224Y112934D01*
X1246058Y113323D01*
X1245836Y113712D01*
X1245502Y114045D01*
X1245447Y114072D01*
X1245308Y114183D01*
X1245197Y114239D01*
X1245058Y114322D01*
X1244892Y114405D01*
X1244697Y114489D01*
X1244475Y114544D01*
X1244225Y114628D01*
X1243920Y114711D01*
X1243615Y114766D01*
X1243254Y114822D01*
X1242865Y114878D01*
X1242449Y114905D01*
D02*
G37*
G36*
X1243948Y89142D02*
X1238506Y87476D01*
X1243948Y85810D01*
Y89142D01*
D02*
G37*
G36*
Y54883D02*
X1238506Y53218D01*
X1243948Y51552D01*
Y54883D01*
D02*
G37*
G36*
X1044774Y662888D02*
X1042720D01*
Y659807D01*
X1044857D01*
X1044968Y659834D01*
X1045135Y659862D01*
X1045357Y659890D01*
X1045635Y659945D01*
X1045940Y660001D01*
X1045968D01*
X1046023Y660029D01*
X1046107Y660057D01*
X1046218Y660084D01*
X1046468Y660223D01*
X1046606Y660334D01*
X1046717Y660473D01*
X1046745Y660501D01*
X1046773Y660556D01*
X1046828Y660612D01*
X1046884Y660723D01*
X1046967Y661000D01*
X1047023Y661167D01*
Y661361D01*
Y661389D01*
Y661472D01*
X1046995Y661611D01*
X1046967Y661778D01*
X1046912Y661944D01*
X1046828Y662139D01*
X1046717Y662305D01*
X1046551Y662472D01*
X1046523Y662500D01*
X1046468Y662527D01*
X1046329Y662611D01*
X1046162Y662694D01*
X1045912Y662749D01*
X1045607Y662833D01*
X1045218Y662860D01*
X1044774Y662888D01*
D02*
G37*
G36*
X761104Y312242D02*
X755663Y310577D01*
X761104Y308911D01*
Y312242D01*
D02*
G37*
G36*
X759355Y286063D02*
X759327D01*
X759244D01*
X759133D01*
X758966D01*
X758772Y286035D01*
X758550D01*
X758022Y285952D01*
X757495Y285868D01*
X756940Y285730D01*
X756440Y285535D01*
X756246Y285396D01*
X756051Y285257D01*
X756024Y285230D01*
X755912Y285091D01*
X755774Y284897D01*
X755579Y284619D01*
X755413Y284258D01*
X755274Y283814D01*
X755163Y283259D01*
X755135Y282620D01*
Y281454D01*
X763436D01*
Y282842D01*
X763408Y283092D01*
Y283425D01*
X763353Y283758D01*
X763297Y284119D01*
X763242Y284425D01*
X763131Y284702D01*
X763103Y284730D01*
X763075Y284813D01*
X762992Y284924D01*
X762853Y285063D01*
X762714Y285230D01*
X762520Y285396D01*
X762270Y285563D01*
X761992Y285702D01*
X761965Y285730D01*
X761826Y285757D01*
X761631Y285813D01*
X761354Y285896D01*
X760993Y285952D01*
X760521Y286007D01*
X759994Y286035D01*
X759355Y286063D01*
D02*
G37*
G36*
X1263948Y138364D02*
X1263227D01*
X1263199D01*
X1263088D01*
X1262949D01*
X1262727D01*
X1262505Y138336D01*
X1262199D01*
X1261589Y138309D01*
X1260895Y138225D01*
X1260228Y138142D01*
X1259923Y138087D01*
X1259617Y138003D01*
X1259368Y137920D01*
X1259146Y137837D01*
X1259090Y137809D01*
X1258979Y137726D01*
X1258812Y137615D01*
X1258618Y137448D01*
X1258424Y137226D01*
X1258257Y136948D01*
X1258146Y136643D01*
X1258091Y136282D01*
Y136227D01*
X1258118Y136116D01*
X1258146Y135921D01*
X1258229Y135699D01*
X1258340Y135449D01*
X1258535Y135199D01*
X1258812Y134950D01*
X1259173Y134755D01*
X1259229Y134727D01*
X1259284Y134700D01*
X1259395Y134672D01*
X1259506Y134644D01*
X1259645Y134616D01*
X1259840Y134561D01*
X1260062Y134533D01*
X1260312Y134478D01*
X1260589Y134422D01*
X1260922Y134394D01*
X1261255Y134367D01*
X1261672Y134339D01*
X1262088Y134311D01*
X1262560Y134283D01*
X1263088D01*
X1263115D01*
X1263227D01*
X1263365D01*
X1263560D01*
X1263782Y134311D01*
X1264059D01*
X1264670Y134339D01*
X1265337Y134394D01*
X1266003Y134505D01*
X1266308Y134561D01*
X1266586Y134616D01*
X1266836Y134700D01*
X1267058Y134783D01*
X1267113Y134811D01*
X1267224Y134894D01*
X1267391Y135005D01*
X1267585Y135172D01*
X1267780Y135394D01*
X1267946Y135644D01*
X1268057Y135949D01*
X1268113Y136282D01*
Y136393D01*
X1268085Y136532D01*
X1268057Y136671D01*
X1268002Y136865D01*
X1267918Y137032D01*
X1267807Y137226D01*
X1267669Y137420D01*
X1267641Y137448D01*
X1267585Y137504D01*
X1267474Y137587D01*
X1267335Y137698D01*
X1267113Y137809D01*
X1266891Y137920D01*
X1266586Y138031D01*
X1266253Y138114D01*
X1266197D01*
X1266058Y138142D01*
X1265836Y138198D01*
X1265503Y138253D01*
X1265087Y138281D01*
X1264559Y138336D01*
X1263948Y138364D01*
D02*
G37*
G36*
X1265864Y103217D02*
X1265836D01*
X1265808D01*
X1265642D01*
X1265420Y103190D01*
X1265142Y103134D01*
X1264837Y103078D01*
X1264504Y102968D01*
X1264198Y102801D01*
X1263921Y102607D01*
X1263893Y102579D01*
X1263810Y102495D01*
X1263699Y102385D01*
X1263560Y102218D01*
X1263449Y101996D01*
X1263338Y101746D01*
X1263254Y101468D01*
X1263227Y101163D01*
Y101024D01*
X1263254Y100858D01*
X1263310Y100635D01*
X1263393Y100413D01*
X1263504Y100163D01*
X1263671Y99914D01*
X1263893Y99664D01*
X1263921Y99636D01*
X1264004Y99580D01*
X1264171Y99469D01*
X1264365Y99386D01*
X1264615Y99275D01*
X1264948Y99164D01*
X1265309Y99108D01*
X1265753Y99081D01*
X1265808D01*
X1265947D01*
X1266169Y99108D01*
X1266447Y99164D01*
X1266752Y99220D01*
X1267085Y99331D01*
X1267391Y99497D01*
X1267669Y99691D01*
X1267696Y99719D01*
X1267780Y99803D01*
X1267891Y99941D01*
X1268002Y100136D01*
X1268140Y100358D01*
X1268251Y100608D01*
X1268335Y100913D01*
X1268363Y101246D01*
Y101385D01*
X1268335Y101552D01*
X1268279Y101746D01*
X1268224Y101940D01*
X1268113Y102190D01*
X1267946Y102412D01*
X1267752Y102634D01*
X1267724Y102662D01*
X1267641Y102718D01*
X1267474Y102829D01*
X1267280Y102940D01*
X1267002Y103023D01*
X1266697Y103134D01*
X1266308Y103190D01*
X1265864Y103217D01*
D02*
G37*
G36*
X1263948Y88726D02*
X1263227D01*
X1263199D01*
X1263088D01*
X1262949D01*
X1262727D01*
X1262505Y88698D01*
X1262199D01*
X1261589Y88670D01*
X1260895Y88587D01*
X1260228Y88503D01*
X1259923Y88448D01*
X1259617Y88365D01*
X1259368Y88281D01*
X1259146Y88198D01*
X1259090Y88170D01*
X1258979Y88087D01*
X1258812Y87976D01*
X1258618Y87809D01*
X1258424Y87587D01*
X1258257Y87310D01*
X1258146Y87004D01*
X1258091Y86643D01*
Y86588D01*
X1258118Y86477D01*
X1258146Y86282D01*
X1258229Y86060D01*
X1258340Y85810D01*
X1258535Y85561D01*
X1258812Y85311D01*
X1259173Y85116D01*
X1259229Y85089D01*
X1259284Y85061D01*
X1259395Y85033D01*
X1259506Y85005D01*
X1259645Y84978D01*
X1259840Y84922D01*
X1260062Y84894D01*
X1260312Y84839D01*
X1260589Y84783D01*
X1260922Y84755D01*
X1261255Y84728D01*
X1261672Y84700D01*
X1262088Y84672D01*
X1262560Y84644D01*
X1263088D01*
X1263115D01*
X1263227D01*
X1263365D01*
X1263560D01*
X1263782Y84672D01*
X1264059D01*
X1264670Y84700D01*
X1265337Y84755D01*
X1266003Y84867D01*
X1266308Y84922D01*
X1266586Y84978D01*
X1266836Y85061D01*
X1267058Y85144D01*
X1267113Y85172D01*
X1267224Y85255D01*
X1267391Y85366D01*
X1267585Y85533D01*
X1267780Y85755D01*
X1267946Y86005D01*
X1268057Y86310D01*
X1268113Y86643D01*
Y86754D01*
X1268085Y86893D01*
X1268057Y87032D01*
X1268002Y87226D01*
X1267918Y87393D01*
X1267807Y87587D01*
X1267669Y87782D01*
X1267641Y87809D01*
X1267585Y87865D01*
X1267474Y87948D01*
X1267335Y88059D01*
X1267113Y88170D01*
X1266891Y88281D01*
X1266586Y88392D01*
X1266253Y88476D01*
X1266197D01*
X1266058Y88503D01*
X1265836Y88559D01*
X1265503Y88614D01*
X1265087Y88642D01*
X1264559Y88698D01*
X1263948Y88726D01*
D02*
G37*
G36*
X1260561Y67154D02*
X1260534D01*
X1260506D01*
X1260367D01*
X1260145Y67126D01*
X1259867Y67071D01*
X1259562Y66988D01*
X1259229Y66877D01*
X1258923Y66738D01*
X1258646Y66516D01*
X1258618Y66488D01*
X1258535Y66405D01*
X1258424Y66266D01*
X1258285Y66099D01*
X1258146Y65877D01*
X1258035Y65627D01*
X1257952Y65350D01*
X1257924Y65017D01*
Y64878D01*
X1257952Y64711D01*
X1258007Y64545D01*
X1258091Y64323D01*
X1258202Y64073D01*
X1258340Y63850D01*
X1258562Y63628D01*
X1258590Y63601D01*
X1258674Y63545D01*
X1258840Y63462D01*
X1259035Y63379D01*
X1259312Y63267D01*
X1259617Y63184D01*
X1260006Y63129D01*
X1260450Y63101D01*
X1260506D01*
X1260673D01*
X1260895Y63129D01*
X1261172Y63184D01*
X1261478Y63240D01*
X1261811Y63323D01*
X1262116Y63462D01*
X1262394Y63656D01*
X1262421Y63684D01*
X1262505Y63767D01*
X1262616Y63878D01*
X1262727Y64045D01*
X1262838Y64267D01*
X1262949Y64517D01*
X1263032Y64795D01*
X1263060Y65100D01*
Y65239D01*
X1263032Y65405D01*
X1262977Y65627D01*
X1262893Y65849D01*
X1262782Y66099D01*
X1262644Y66349D01*
X1262421Y66571D01*
X1262394Y66599D01*
X1262310Y66655D01*
X1262144Y66766D01*
X1261949Y66877D01*
X1261700Y66960D01*
X1261367Y67071D01*
X1260978Y67126D01*
X1260561Y67154D01*
D02*
G37*
G36*
X1263948Y53273D02*
X1263227D01*
X1263199D01*
X1263088D01*
X1262949D01*
X1262727D01*
X1262505Y53245D01*
X1262199D01*
X1261589Y53218D01*
X1260895Y53134D01*
X1260228Y53051D01*
X1259923Y52996D01*
X1259617Y52912D01*
X1259368Y52829D01*
X1259146Y52746D01*
X1259090Y52718D01*
X1258979Y52635D01*
X1258812Y52524D01*
X1258618Y52357D01*
X1258424Y52135D01*
X1258257Y51857D01*
X1258146Y51552D01*
X1258091Y51191D01*
Y51136D01*
X1258118Y51024D01*
X1258146Y50830D01*
X1258229Y50608D01*
X1258340Y50358D01*
X1258535Y50108D01*
X1258812Y49858D01*
X1259173Y49664D01*
X1259229Y49636D01*
X1259284Y49608D01*
X1259395Y49581D01*
X1259506Y49553D01*
X1259645Y49525D01*
X1259840Y49470D01*
X1260062Y49442D01*
X1260312Y49386D01*
X1260589Y49331D01*
X1260922Y49303D01*
X1261255Y49275D01*
X1261672Y49248D01*
X1262088Y49220D01*
X1262560Y49192D01*
X1263088D01*
X1263115D01*
X1263227D01*
X1263365D01*
X1263560D01*
X1263782Y49220D01*
X1264059D01*
X1264670Y49248D01*
X1265337Y49303D01*
X1266003Y49414D01*
X1266308Y49470D01*
X1266586Y49525D01*
X1266836Y49608D01*
X1267058Y49692D01*
X1267113Y49720D01*
X1267224Y49803D01*
X1267391Y49914D01*
X1267585Y50080D01*
X1267780Y50303D01*
X1267946Y50553D01*
X1268057Y50858D01*
X1268113Y51191D01*
Y51302D01*
X1268085Y51441D01*
X1268057Y51580D01*
X1268002Y51774D01*
X1267918Y51941D01*
X1267807Y52135D01*
X1267669Y52329D01*
X1267641Y52357D01*
X1267585Y52413D01*
X1267474Y52496D01*
X1267335Y52607D01*
X1267113Y52718D01*
X1266891Y52829D01*
X1266586Y52940D01*
X1266253Y53023D01*
X1266197D01*
X1266058Y53051D01*
X1265836Y53107D01*
X1265503Y53162D01*
X1265087Y53190D01*
X1264559Y53245D01*
X1263948Y53273D01*
D02*
G37*
G36*
X1306948Y133700D02*
X1301506Y132035D01*
X1306948Y130369D01*
Y133700D01*
D02*
G37*
G36*
X1307892Y86282D02*
X1307864D01*
X1307781D01*
X1307670Y86255D01*
X1307503Y86227D01*
X1307336Y86171D01*
X1307142Y86060D01*
X1306976Y85949D01*
X1306809Y85783D01*
X1306781Y85755D01*
X1306754Y85699D01*
X1306670Y85561D01*
X1306587Y85366D01*
X1306531Y85144D01*
X1306448Y84839D01*
X1306420Y84478D01*
X1306393Y84034D01*
Y81674D01*
X1309474D01*
Y84256D01*
X1309446Y84478D01*
X1309419Y84728D01*
X1309363Y85033D01*
X1309308Y85311D01*
X1309197Y85561D01*
X1309058Y85783D01*
X1309030Y85810D01*
X1308974Y85866D01*
X1308891Y85949D01*
X1308752Y86032D01*
X1308586Y86116D01*
X1308364Y86199D01*
X1308142Y86255D01*
X1307892Y86282D01*
D02*
G37*
G36*
X1302034Y85699D02*
X1302006D01*
X1301923D01*
X1301812Y85672D01*
X1301645Y85644D01*
X1301479Y85588D01*
X1301312Y85505D01*
X1301145Y85394D01*
X1301007Y85255D01*
X1300979Y85227D01*
X1300951Y85172D01*
X1300896Y85061D01*
X1300812Y84894D01*
X1300729Y84700D01*
X1300674Y84450D01*
X1300646Y84117D01*
X1300618Y83756D01*
Y81674D01*
X1303505D01*
Y83895D01*
X1303478Y84089D01*
X1303450Y84339D01*
X1303339Y84839D01*
X1303255Y85061D01*
X1303144Y85255D01*
X1303117Y85283D01*
X1303061Y85338D01*
X1302978Y85394D01*
X1302867Y85477D01*
X1302700Y85561D01*
X1302506Y85644D01*
X1302284Y85672D01*
X1302034Y85699D01*
D02*
G37*
G36*
X1302339Y53329D02*
X1302312D01*
X1302228D01*
X1302089Y53301D01*
X1301923Y53273D01*
X1301729Y53218D01*
X1301506Y53107D01*
X1301312Y52996D01*
X1301118Y52829D01*
X1301090Y52801D01*
X1301035Y52746D01*
X1300951Y52607D01*
X1300868Y52440D01*
X1300785Y52190D01*
X1300701Y51885D01*
X1300646Y51496D01*
X1300618Y51052D01*
Y49720D01*
X1304005D01*
Y51080D01*
X1303977Y51330D01*
X1303949Y51607D01*
X1303894Y51913D01*
X1303811Y52246D01*
X1303700Y52524D01*
X1303561Y52773D01*
X1303533Y52801D01*
X1303478Y52857D01*
X1303367Y52940D01*
X1303228Y53051D01*
X1303061Y53162D01*
X1302839Y53245D01*
X1302617Y53301D01*
X1302339Y53329D01*
D02*
G37*
G36*
X1287502Y294110D02*
X1287225D01*
X1286531D01*
Y294083D01*
X1286586Y293971D01*
X1286642Y293777D01*
X1286725Y293555D01*
X1286808Y293277D01*
X1286892Y292972D01*
X1287086Y292278D01*
X1287114Y292222D01*
X1287142Y292084D01*
X1287197Y291861D01*
X1287280Y291584D01*
X1287392Y291306D01*
X1287502Y291056D01*
X1287614Y290807D01*
X1287752Y290640D01*
X1287780D01*
X1287808Y290584D01*
X1287975Y290473D01*
X1288224Y290362D01*
X1288363Y290335D01*
X1288530Y290307D01*
X1288557D01*
X1288613D01*
X1288696Y290335D01*
X1288807Y290362D01*
X1289085Y290446D01*
X1289224Y290529D01*
X1289335Y290640D01*
Y290668D01*
X1289390Y290695D01*
X1289418Y290779D01*
X1289474Y290918D01*
X1289529Y291056D01*
X1289585Y291223D01*
X1289612Y291445D01*
X1289640Y291667D01*
Y291778D01*
X1289612Y291917D01*
X1289585Y292084D01*
X1289557Y292278D01*
X1289501Y292500D01*
X1289418Y292750D01*
X1289307Y292972D01*
X1289279Y293000D01*
X1289252Y293083D01*
X1289168Y293166D01*
X1289085Y293305D01*
X1288835Y293583D01*
X1288669Y293722D01*
X1288502Y293833D01*
X1288474D01*
X1288419Y293888D01*
X1288308Y293916D01*
X1288141Y293971D01*
X1287975Y294027D01*
X1287752Y294055D01*
X1287502Y294110D01*
D02*
G37*
G36*
X1285254Y280340D02*
X1285226D01*
X1285198D01*
X1285060Y280312D01*
X1284837Y280257D01*
X1284588Y280201D01*
X1284310Y280118D01*
X1284032Y280007D01*
X1283755Y279868D01*
X1283533Y279674D01*
X1283505Y279646D01*
X1283449Y279591D01*
X1283366Y279452D01*
X1283255Y279313D01*
X1283144Y279091D01*
X1283061Y278869D01*
X1283005Y278563D01*
X1282977Y278258D01*
Y278091D01*
X1283005Y277897D01*
X1283088Y277675D01*
X1283172Y277425D01*
X1283310Y277148D01*
X1283505Y276898D01*
X1283782Y276648D01*
X1283810Y276620D01*
X1283866Y276592D01*
X1284005Y276537D01*
X1284143Y276453D01*
X1284365Y276370D01*
X1284615Y276287D01*
X1284921Y276231D01*
X1285254Y276176D01*
Y280340D01*
D02*
G37*
G36*
Y230701D02*
X1285226D01*
X1285198D01*
X1285060Y230674D01*
X1284837Y230618D01*
X1284588Y230563D01*
X1284310Y230479D01*
X1284032Y230368D01*
X1283755Y230229D01*
X1283533Y230035D01*
X1283505Y230007D01*
X1283449Y229952D01*
X1283366Y229813D01*
X1283255Y229674D01*
X1283144Y229452D01*
X1283061Y229230D01*
X1283005Y228925D01*
X1282977Y228619D01*
Y228453D01*
X1283005Y228258D01*
X1283088Y228036D01*
X1283172Y227786D01*
X1283310Y227509D01*
X1283505Y227259D01*
X1283782Y227009D01*
X1283810Y226981D01*
X1283866Y226954D01*
X1284005Y226898D01*
X1284143Y226815D01*
X1284365Y226731D01*
X1284615Y226648D01*
X1284921Y226593D01*
X1285254Y226537D01*
Y230701D01*
D02*
G37*
G36*
X1287502Y173539D02*
X1287225D01*
X1286531D01*
Y173511D01*
X1286586Y173400D01*
X1286642Y173206D01*
X1286725Y172984D01*
X1286808Y172706D01*
X1286892Y172401D01*
X1287086Y171707D01*
X1287114Y171651D01*
X1287142Y171512D01*
X1287197Y171290D01*
X1287280Y171013D01*
X1287392Y170735D01*
X1287502Y170485D01*
X1287614Y170235D01*
X1287752Y170069D01*
X1287780D01*
X1287808Y170013D01*
X1287975Y169902D01*
X1288224Y169791D01*
X1288363Y169763D01*
X1288530Y169736D01*
X1288557D01*
X1288613D01*
X1288696Y169763D01*
X1288807Y169791D01*
X1289085Y169874D01*
X1289224Y169958D01*
X1289335Y170069D01*
Y170096D01*
X1289390Y170124D01*
X1289418Y170208D01*
X1289474Y170346D01*
X1289529Y170485D01*
X1289585Y170652D01*
X1289612Y170874D01*
X1289640Y171096D01*
Y171207D01*
X1289612Y171346D01*
X1289585Y171512D01*
X1289557Y171707D01*
X1289501Y171929D01*
X1289418Y172179D01*
X1289307Y172401D01*
X1289279Y172428D01*
X1289252Y172512D01*
X1289168Y172595D01*
X1289085Y172734D01*
X1288835Y173011D01*
X1288669Y173150D01*
X1288502Y173261D01*
X1288474D01*
X1288419Y173317D01*
X1288308Y173345D01*
X1288141Y173400D01*
X1287975Y173456D01*
X1287752Y173484D01*
X1287502Y173539D01*
D02*
G37*
G36*
X1284199Y134311D02*
X1284171D01*
X1284088D01*
X1283977D01*
X1283810D01*
X1283616Y134283D01*
X1283394D01*
X1282866Y134200D01*
X1282339Y134117D01*
X1281783Y133978D01*
X1281284Y133784D01*
X1281089Y133645D01*
X1280895Y133506D01*
X1280867Y133478D01*
X1280756Y133339D01*
X1280618Y133145D01*
X1280423Y132867D01*
X1280257Y132507D01*
X1280118Y132062D01*
X1280007Y131507D01*
X1279979Y130869D01*
Y129703D01*
X1288280D01*
Y131091D01*
X1288252Y131341D01*
Y131674D01*
X1288197Y132007D01*
X1288141Y132368D01*
X1288085Y132673D01*
X1287975Y132951D01*
X1287947Y132978D01*
X1287919Y133062D01*
X1287836Y133173D01*
X1287697Y133312D01*
X1287558Y133478D01*
X1287364Y133645D01*
X1287114Y133811D01*
X1286836Y133950D01*
X1286808Y133978D01*
X1286670Y134006D01*
X1286475Y134061D01*
X1286198Y134144D01*
X1285837Y134200D01*
X1285365Y134256D01*
X1284837Y134283D01*
X1284199Y134311D01*
D02*
G37*
G36*
X715355Y312728D02*
X715327D01*
X715244D01*
X715133D01*
X714966D01*
X714772Y312700D01*
X714550D01*
X714022Y312617D01*
X713495Y312533D01*
X712940Y312395D01*
X712440Y312200D01*
X712246Y312061D01*
X712051Y311923D01*
X712024Y311895D01*
X711913Y311756D01*
X711774Y311562D01*
X711579Y311284D01*
X711413Y310923D01*
X711274Y310479D01*
X711163Y309924D01*
X711135Y309285D01*
Y308119D01*
X719436D01*
Y309507D01*
X719408Y309757D01*
Y310090D01*
X719353Y310423D01*
X719297Y310784D01*
X719242Y311090D01*
X719131Y311367D01*
X719103Y311395D01*
X719075Y311478D01*
X718992Y311589D01*
X718853Y311728D01*
X718714Y311895D01*
X718520Y312061D01*
X718270Y312228D01*
X717992Y312367D01*
X717965Y312395D01*
X717826Y312422D01*
X717632Y312478D01*
X717354Y312561D01*
X716993Y312617D01*
X716521Y312672D01*
X715994Y312700D01*
X715355Y312728D01*
D02*
G37*
G36*
Y285548D02*
X715327D01*
X715244D01*
X715133D01*
X714966D01*
X714772Y285521D01*
X714550D01*
X714022Y285437D01*
X713495Y285354D01*
X712940Y285215D01*
X712440Y285021D01*
X712246Y284882D01*
X712051Y284743D01*
X712024Y284716D01*
X711913Y284577D01*
X711774Y284382D01*
X711579Y284105D01*
X711413Y283744D01*
X711274Y283300D01*
X711163Y282745D01*
X711135Y282106D01*
Y280940D01*
X719436D01*
Y282328D01*
X719408Y282578D01*
Y282911D01*
X719353Y283244D01*
X719297Y283605D01*
X719242Y283911D01*
X719131Y284188D01*
X719103Y284216D01*
X719075Y284299D01*
X718992Y284410D01*
X718853Y284549D01*
X718714Y284716D01*
X718520Y284882D01*
X718270Y285049D01*
X717992Y285188D01*
X717965Y285215D01*
X717826Y285243D01*
X717632Y285299D01*
X717354Y285382D01*
X716993Y285437D01*
X716521Y285493D01*
X715994Y285521D01*
X715355Y285548D01*
D02*
G37*
G36*
X1151367Y881382D02*
X1149313D01*
Y878300D01*
X1151451D01*
X1151562Y878328D01*
X1151728Y878356D01*
X1151950Y878384D01*
X1152228Y878439D01*
X1152533Y878495D01*
X1152561D01*
X1152617Y878522D01*
X1152700Y878550D01*
X1152811Y878578D01*
X1153061Y878717D01*
X1153200Y878828D01*
X1153311Y878967D01*
X1153338Y878994D01*
X1153366Y879050D01*
X1153422Y879105D01*
X1153477Y879217D01*
X1153561Y879494D01*
X1153616Y879661D01*
Y879855D01*
Y879883D01*
Y879966D01*
X1153588Y880105D01*
X1153561Y880271D01*
X1153505Y880438D01*
X1153422Y880632D01*
X1153311Y880799D01*
X1153144Y880965D01*
X1153116Y880993D01*
X1153061Y881021D01*
X1152922Y881104D01*
X1152756Y881188D01*
X1152506Y881243D01*
X1152200Y881326D01*
X1151812Y881354D01*
X1151367Y881382D01*
D02*
G37*
G36*
X683355Y306313D02*
X683327D01*
X683244D01*
X683133D01*
X682966D01*
X682772Y306285D01*
X682550D01*
X682022Y306202D01*
X681495Y306119D01*
X680940Y305980D01*
X680440Y305785D01*
X680246Y305647D01*
X680051Y305508D01*
X680024Y305480D01*
X679912Y305341D01*
X679774Y305147D01*
X679579Y304869D01*
X679413Y304508D01*
X679274Y304064D01*
X679163Y303509D01*
X679135Y302870D01*
Y301704D01*
X687436D01*
Y303092D01*
X687408Y303342D01*
Y303675D01*
X687353Y304009D01*
X687297Y304370D01*
X687242Y304675D01*
X687131Y304953D01*
X687103Y304980D01*
X687075Y305064D01*
X686992Y305175D01*
X686853Y305313D01*
X686714Y305480D01*
X686520Y305647D01*
X686270Y305813D01*
X685992Y305952D01*
X685965Y305980D01*
X685826Y306007D01*
X685631Y306063D01*
X685354Y306146D01*
X684993Y306202D01*
X684521Y306257D01*
X683994Y306285D01*
X683355Y306313D01*
D02*
G37*
%LPD*%
D10*
X1088000Y872000D02*
G03*
X1088000Y872000I-1000J0D01*
G01*
X1053000Y872000D02*
G03*
X1053000Y872000I-1000J0D01*
G01*
X1018000D02*
G03*
X1018000Y872000I-1000J0D01*
G01*
X983000Y872000D02*
G03*
X983000Y872000I-1000J0D01*
G01*
X948000D02*
G03*
X948000Y872000I-1000J0D01*
G01*
X913000D02*
G03*
X913000Y872000I-1000J0D01*
G01*
X878000D02*
G03*
X878000Y872000I-1000J0D01*
G01*
X843000Y872000D02*
G03*
X843000Y872000I-1000J0D01*
G01*
X808000Y872000D02*
G03*
X808000Y872000I-1000J0D01*
G01*
X1088000Y942000D02*
G03*
X1088000Y942000I-1000J0D01*
G01*
X1053000D02*
G03*
X1053000Y942000I-1000J0D01*
G01*
X1018000D02*
G03*
X1018000Y942000I-1000J0D01*
G01*
X983000D02*
G03*
X983000Y942000I-1000J0D01*
G01*
X948000D02*
G03*
X948000Y942000I-1000J0D01*
G01*
X913000D02*
G03*
X913000Y942000I-1000J0D01*
G01*
X878000D02*
G03*
X878000Y942000I-1000J0D01*
G01*
X843000D02*
G03*
X843000Y942000I-1000J0D01*
G01*
X808000D02*
G03*
X808000Y942000I-1000J0D01*
G01*
X1192000Y922000D02*
G03*
X1192000Y922000I-1000J0D01*
G01*
X1192050Y678000D02*
G03*
X1192050Y678000I-1000J0D01*
G01*
X1085000Y104000D02*
G03*
X1085000Y104000I-1000J0D01*
G01*
X1050000D02*
G03*
X1050000Y104000I-1000J0D01*
G01*
X898000Y678000D02*
G03*
X898000Y678000I-1000J0D01*
G01*
X578000D02*
G03*
X578000Y678000I-1000J0D01*
G01*
X475000Y188950D02*
G03*
X475000Y188950I-1000J0D01*
G01*
X258000Y678000D02*
G03*
X258000Y678000I-1000J0D01*
G01*
X418000D02*
G03*
X418000Y678000I-1000J0D01*
G01*
X738000D02*
G03*
X738000Y678000I-1000J0D01*
G01*
X298000Y195000D02*
G03*
X298000Y195000I-1000J0D01*
G01*
X184000Y723000D02*
G03*
X184000Y723000I-1000J0D01*
G01*
Y243000D02*
G03*
X184000Y243000I-1000J0D01*
G01*
D11*
X968250Y155000D02*
G03*
X968250Y155000I-1250J0D01*
G01*
X873250Y155000D02*
G03*
X873250Y155000I-1250J0D01*
G01*
X294997Y24995D02*
X289998D01*
X292498D01*
Y12499D01*
X289998Y10000D01*
X287499D01*
X285000Y12499D01*
X309992Y24995D02*
X304993Y22496D01*
X299995Y17498D01*
Y12499D01*
X302494Y10000D01*
X307493D01*
X309992Y12499D01*
Y14998D01*
X307493Y17498D01*
X299995D01*
X514997Y22995D02*
X509998D01*
X512498D01*
Y10499D01*
X509998Y8000D01*
X507499D01*
X505000Y10499D01*
X529992Y22995D02*
X519995D01*
Y15498D01*
X524994Y17997D01*
X527493D01*
X529992Y15498D01*
Y10499D01*
X527493Y8000D01*
X522494D01*
X519995Y10499D01*
X19997Y949995D02*
X14998D01*
X17498D01*
Y937499D01*
X14998Y935000D01*
X12499D01*
X10000Y937499D01*
X24995Y949995D02*
X34992D01*
Y947496D01*
X24995Y937499D01*
Y935000D01*
X19997Y829995D02*
X14998D01*
X17498D01*
Y817499D01*
X14998Y815000D01*
X12499D01*
X10000Y817499D01*
X24995Y827496D02*
X27494Y829995D01*
X32493D01*
X34992Y827496D01*
Y824997D01*
X32493Y822498D01*
X34992Y819998D01*
Y817499D01*
X32493Y815000D01*
X27494D01*
X24995Y817499D01*
Y819998D01*
X27494Y822498D01*
X24995Y824997D01*
Y827496D01*
X27494Y822498D02*
X32493D01*
X19997Y709995D02*
X14998D01*
X17498D01*
Y697499D01*
X14998Y695000D01*
X12499D01*
X10000Y697499D01*
X24995D02*
X27494Y695000D01*
X32493D01*
X34992Y697499D01*
Y707496D01*
X32493Y709995D01*
X27494D01*
X24995Y707496D01*
Y704997D01*
X27494Y702498D01*
X34992D01*
X19997Y589995D02*
X14998D01*
X17498D01*
Y577499D01*
X14998Y575000D01*
X12499D01*
X10000Y577499D01*
X24995Y575000D02*
X29994D01*
X27494D01*
Y589995D01*
X24995Y587496D01*
X37491D02*
X39990Y589995D01*
X44989D01*
X47488Y587496D01*
Y577499D01*
X44989Y575000D01*
X39990D01*
X37491Y577499D01*
Y587496D01*
X19997Y469995D02*
X14998D01*
X17498D01*
Y457499D01*
X14998Y455000D01*
X12499D01*
X10000Y457499D01*
X24995Y455000D02*
X29994D01*
X27494D01*
Y469995D01*
X24995Y467496D01*
X37491Y455000D02*
X42490D01*
X39990D01*
Y469995D01*
X37491Y467496D01*
X19997Y349995D02*
X14998D01*
X17498D01*
Y337499D01*
X14998Y335000D01*
X12499D01*
X10000Y337499D01*
X24995Y335000D02*
X29994D01*
X27494D01*
Y349995D01*
X24995Y347496D01*
X47488Y335000D02*
X37491D01*
X47488Y344997D01*
Y347496D01*
X44989Y349995D01*
X39990D01*
X37491Y347496D01*
X19997Y229995D02*
X14998D01*
X17498D01*
Y217499D01*
X14998Y215000D01*
X12499D01*
X10000Y217499D01*
X24995Y215000D02*
X29994D01*
X27494D01*
Y229995D01*
X24995Y227496D01*
X37491D02*
X39990Y229995D01*
X44989D01*
X47488Y227496D01*
Y224997D01*
X44989Y222498D01*
X42490D01*
X44989D01*
X47488Y219998D01*
Y217499D01*
X44989Y215000D01*
X39990D01*
X37491Y217499D01*
X19997Y109995D02*
X14998D01*
X17498D01*
Y97499D01*
X14998Y95000D01*
X12499D01*
X10000Y97499D01*
X24995Y95000D02*
X29994D01*
X27494D01*
Y109995D01*
X24995Y107496D01*
X44989Y95000D02*
Y109995D01*
X37491Y102498D01*
X47488D01*
X129997Y860995D02*
X124998D01*
X127498D01*
Y848499D01*
X124998Y846000D01*
X122499D01*
X120000Y848499D01*
X134995Y846000D02*
X139993D01*
X137494D01*
Y860995D01*
X134995Y858496D01*
X464997Y859995D02*
X459998D01*
X462498D01*
Y847499D01*
X459998Y845000D01*
X457499D01*
X455000Y847499D01*
X479992Y845000D02*
X469995D01*
X479992Y854997D01*
Y857496D01*
X477493Y859995D01*
X472494D01*
X469995Y857496D01*
X0Y0D02*
X1332000D01*
Y1000000D01*
X0D02*
X1332000D01*
X0Y0D02*
Y1000000D01*
D12*
X730000Y220000D02*
G03*
X730000Y220000I-15000J0D01*
G01*
X775000D02*
G03*
X775000Y220000I-15000J0D01*
G01*
X1165000Y845000D02*
G03*
X1165000Y845000I-15000J0D01*
G01*
Y902000D02*
G03*
X1165000Y902000I-15000J0D01*
G01*
X1074000Y685000D02*
G03*
X1074000Y685000I-15000J0D01*
G01*
X696000Y219000D02*
G03*
X696000Y219000I-15000J0D01*
G01*
X810000Y220000D02*
G03*
X810000Y220000I-15000J0D01*
G01*
X481999Y27999D02*
X717999D01*
X481999Y131999D02*
X717999D01*
X481999Y27998D02*
Y131998D01*
X717999Y27999D02*
Y131999D01*
X247130Y34280D02*
Y125720D01*
X452870Y34280D02*
Y125720D01*
X247130Y34280D02*
X452870D01*
X247130Y125720D02*
X452870D01*
X748070Y868900D02*
Y1000980D01*
X415330Y868900D02*
Y1000980D01*
X748070D01*
X415330Y868900D02*
X748070D01*
X414870D02*
Y1000980D01*
X82130Y868900D02*
Y1000980D01*
X414870D01*
X82130Y868900D02*
X414870D01*
X1055000Y849000D02*
X1085000D01*
X1055000Y857000D02*
X1085000D01*
X1055000Y849000D02*
Y857000D01*
X1085000Y849000D02*
Y857000D01*
X1020000Y849000D02*
X1050000D01*
X1020000Y857000D02*
X1050000D01*
X1020000Y849000D02*
Y857000D01*
X1050000Y849000D02*
Y857000D01*
X985000Y849000D02*
X1015000D01*
X985000Y857000D02*
X1015000D01*
X985000Y849000D02*
Y857000D01*
X1015000Y849000D02*
Y857000D01*
X950000Y849000D02*
X980000D01*
X950000Y857000D02*
X980000D01*
X950000Y849000D02*
Y857000D01*
X980000Y849000D02*
Y857000D01*
X915000Y849000D02*
X945000D01*
X915000Y857000D02*
X945000D01*
X915000Y849000D02*
Y857000D01*
X945000Y849000D02*
Y857000D01*
X880000Y849000D02*
X910000D01*
X880000Y857000D02*
X910000D01*
X880000Y849000D02*
Y857000D01*
X910000Y849000D02*
Y857000D01*
X845000Y849000D02*
X875000D01*
X845000Y857000D02*
X875000D01*
X845000Y849000D02*
Y857000D01*
X875000Y849000D02*
Y857000D01*
X810000Y849000D02*
X840000D01*
X810000Y857000D02*
X840000D01*
X810000Y849000D02*
Y857000D01*
X840000Y849000D02*
Y857000D01*
X775000Y849000D02*
X805000D01*
X775000Y857000D02*
X805000D01*
X775000Y849000D02*
Y857000D01*
X805000Y849000D02*
Y857000D01*
X1070000Y875000D02*
X1074000D01*
X1070000Y883000D02*
X1074000D01*
X1070000Y889000D02*
X1074000D01*
X1070000Y897000D02*
X1074000D01*
X1035000Y875000D02*
X1039000D01*
X1035000Y883000D02*
X1039000D01*
X1035000Y889000D02*
X1039000D01*
X1035000Y897000D02*
X1039000D01*
X1000000Y875000D02*
X1004000D01*
X1000000Y883000D02*
X1004000D01*
X1000000Y889000D02*
X1004000D01*
X1000000Y897000D02*
X1004000D01*
X965000Y875000D02*
X969000D01*
X965000Y883000D02*
X969000D01*
X965000Y889000D02*
X969000D01*
X965000Y897000D02*
X969000D01*
X930000Y875000D02*
X934000D01*
X930000Y883000D02*
X934000D01*
X930000Y889000D02*
X934000D01*
X930000Y897000D02*
X934000D01*
X895000Y875000D02*
X899000D01*
X895000Y883000D02*
X899000D01*
X895000Y889000D02*
X899000D01*
X895000Y897000D02*
X899000D01*
X860000Y875000D02*
X864000D01*
X860000Y883000D02*
X864000D01*
X860000Y889000D02*
X864000D01*
X860000Y897000D02*
X864000D01*
X825000Y875000D02*
X829000D01*
X825000Y883000D02*
X829000D01*
X825000Y889000D02*
X829000D01*
X825000Y897000D02*
X829000D01*
X790000Y875000D02*
X794000D01*
X790000Y883000D02*
X794000D01*
X790000Y889000D02*
X794000D01*
X790000Y897000D02*
X794000D01*
X1055000Y919000D02*
X1085000D01*
X1055000Y927000D02*
X1085000D01*
X1055000Y919000D02*
Y927000D01*
X1085000Y919000D02*
Y927000D01*
X1020000Y919000D02*
X1050000D01*
X1020000Y927000D02*
X1050000D01*
X1020000Y919000D02*
Y927000D01*
X1050000Y919000D02*
Y927000D01*
X985000Y919000D02*
X1015000D01*
X985000Y927000D02*
X1015000D01*
X985000Y919000D02*
Y927000D01*
X1015000Y919000D02*
Y927000D01*
X950000Y919000D02*
X980000D01*
X950000Y927000D02*
X980000D01*
X950000Y919000D02*
Y927000D01*
X980000Y919000D02*
Y927000D01*
X915000Y919000D02*
X945000D01*
X915000Y927000D02*
X945000D01*
X915000Y919000D02*
Y927000D01*
X945000Y919000D02*
Y927000D01*
X910000Y919000D02*
Y927000D01*
X880000Y919000D02*
Y927000D01*
X910000D01*
X880000Y919000D02*
X910000D01*
X845000D02*
X875000D01*
X845000Y927000D02*
X875000D01*
X845000Y919000D02*
Y927000D01*
X875000Y919000D02*
Y927000D01*
X810000Y919000D02*
X840000D01*
X810000Y927000D02*
X840000D01*
X810000Y919000D02*
Y927000D01*
X840000Y919000D02*
Y927000D01*
X775000Y919000D02*
X805000D01*
X775000Y927000D02*
X805000D01*
X775000Y919000D02*
Y927000D01*
X805000Y919000D02*
Y927000D01*
X1070000Y945000D02*
X1074000D01*
X1070000Y953000D02*
X1074000D01*
X1070000Y959000D02*
X1074000D01*
X1070000Y967000D02*
X1074000D01*
X1035000Y945000D02*
X1039000D01*
X1035000Y953000D02*
X1039000D01*
X1035000Y959000D02*
X1039000D01*
X1035000Y967000D02*
X1039000D01*
X1000000Y945000D02*
X1004000D01*
X1000000Y953000D02*
X1004000D01*
X1000000Y959000D02*
X1004000D01*
X1000000Y967000D02*
X1004000D01*
X965000Y945000D02*
X969000D01*
X965000Y953000D02*
X969000D01*
X965000Y959000D02*
X969000D01*
X965000Y967000D02*
X969000D01*
X930000Y945000D02*
X934000D01*
X930000Y953000D02*
X934000D01*
X930000Y959000D02*
X934000D01*
X930000Y967000D02*
X934000D01*
X895500Y945000D02*
X899500D01*
X895500Y953000D02*
X899500D01*
X895500Y959000D02*
X899500D01*
X895500Y967000D02*
X899500D01*
X860000Y945000D02*
X864000D01*
X860000Y953000D02*
X864000D01*
X860000Y959000D02*
X864000D01*
X860000Y967000D02*
X864000D01*
X825000Y945000D02*
X829000D01*
X825000Y953000D02*
X829000D01*
X825000Y959000D02*
X829000D01*
X825000Y967000D02*
X829000D01*
X790000Y945000D02*
X794000D01*
X790000Y953000D02*
X794000D01*
X790000Y959000D02*
X794000D01*
X790000Y967000D02*
X794000D01*
X994000Y779000D02*
X998000D01*
X994000Y787000D02*
X998000D01*
X994000Y765000D02*
X998000D01*
X994000Y773000D02*
X998000D01*
X952000Y787000D02*
X956000D01*
X952000Y779000D02*
X956000D01*
X952000Y773000D02*
X956000D01*
X952000Y765000D02*
X956000D01*
X914000Y779000D02*
X918000D01*
X914000Y787000D02*
X918000D01*
X914000Y765000D02*
X918000D01*
X914000Y773000D02*
X918000D01*
X872000Y787000D02*
X876000D01*
X872000Y779000D02*
X876000D01*
X872000Y773000D02*
X876000D01*
X872000Y765000D02*
X876000D01*
X834000Y779000D02*
X838000D01*
X834000Y787000D02*
X838000D01*
X834000Y765000D02*
X838000D01*
X834000Y773000D02*
X838000D01*
X792000Y787000D02*
X796000D01*
X792000Y779000D02*
X796000D01*
X792000Y773000D02*
X796000D01*
X792000Y765000D02*
X796000D01*
X754000Y779000D02*
X758000D01*
X754000Y787000D02*
X758000D01*
X754000Y765000D02*
X758000D01*
X754000Y773000D02*
X758000D01*
X712000Y787000D02*
X716000D01*
X712000Y779000D02*
X716000D01*
X712000Y773000D02*
X716000D01*
X712000Y765000D02*
X716000D01*
X674000Y779000D02*
X678000D01*
X674000Y787000D02*
X678000D01*
X674000Y765000D02*
X678000D01*
X674000Y773000D02*
X678000D01*
X632000Y787000D02*
X636000D01*
X632000Y779000D02*
X636000D01*
X632000Y773000D02*
X636000D01*
X632000Y765000D02*
X636000D01*
X594000Y779000D02*
X598000D01*
X594000Y787000D02*
X598000D01*
X552000D02*
X556000D01*
X552000Y779000D02*
X556000D01*
X552000Y773000D02*
X556000D01*
X552000Y765000D02*
X556000D01*
X514000Y779000D02*
X518000D01*
X514000Y787000D02*
X518000D01*
X514000Y765000D02*
X518000D01*
X514000Y773000D02*
X518000D01*
X472000Y787000D02*
X476000D01*
X472000Y779000D02*
X476000D01*
X472000Y773000D02*
X476000D01*
X472000Y765000D02*
X476000D01*
X434000Y779000D02*
X438000D01*
X434000Y787000D02*
X438000D01*
X434000Y765000D02*
X438000D01*
X434000Y773000D02*
X438000D01*
X392000Y787000D02*
X396000D01*
X392000Y779000D02*
X396000D01*
X392000Y773000D02*
X396000D01*
X392000Y765000D02*
X396000D01*
X232000Y601000D02*
X236000D01*
X232000Y593000D02*
X236000D01*
X312000Y615000D02*
X316000D01*
X312000Y607000D02*
X316000D01*
X354000D02*
X358000D01*
X354000Y615000D02*
X358000D01*
X354000Y593000D02*
X358000D01*
X354000Y601000D02*
X358000D01*
X392000Y615000D02*
X396000D01*
X392000Y607000D02*
X396000D01*
X392000Y601000D02*
X396000D01*
X392000Y593000D02*
X396000D01*
X434000Y607000D02*
X438000D01*
X434000Y615000D02*
X438000D01*
X434000Y593000D02*
X438000D01*
X434000Y601000D02*
X438000D01*
X472000Y615000D02*
X476000D01*
X472000Y607000D02*
X476000D01*
X472000Y601000D02*
X476000D01*
X472000Y593000D02*
X476000D01*
X514000Y607000D02*
X518000D01*
X514000Y615000D02*
X518000D01*
X514000Y593000D02*
X518000D01*
X514000Y601000D02*
X518000D01*
X552000Y615000D02*
X556000D01*
X552000Y607000D02*
X556000D01*
X552000Y601000D02*
X556000D01*
X552000Y593000D02*
X556000D01*
X594000Y607000D02*
X598000D01*
X594000Y615000D02*
X598000D01*
X594000Y593000D02*
X598000D01*
X594000Y601000D02*
X598000D01*
X632000Y615000D02*
X636000D01*
X632000Y607000D02*
X636000D01*
X632000Y601000D02*
X636000D01*
X632000Y593000D02*
X636000D01*
X674000Y607000D02*
X678000D01*
X674000Y615000D02*
X678000D01*
X674000Y593000D02*
X678000D01*
X674000Y601000D02*
X678000D01*
X712000Y615000D02*
X716000D01*
X712000Y607000D02*
X716000D01*
X712000Y601000D02*
X716000D01*
X712000Y593000D02*
X716000D01*
X834000Y607000D02*
X838000D01*
X834000Y615000D02*
X838000D01*
X834000Y593000D02*
X838000D01*
X834000Y601000D02*
X838000D01*
X792000Y615000D02*
X796000D01*
X792000Y607000D02*
X796000D01*
X792000Y601000D02*
X796000D01*
X792000Y593000D02*
X796000D01*
X754000Y607000D02*
X758000D01*
X754000Y615000D02*
X758000D01*
X754000Y593000D02*
X758000D01*
X754000Y601000D02*
X758000D01*
X994000Y593000D02*
X998000D01*
X994000Y601000D02*
X998000D01*
X994000Y607000D02*
X998000D01*
X994000Y615000D02*
X998000D01*
X952000D02*
X956000D01*
X952000Y607000D02*
X956000D01*
X952000Y601000D02*
X956000D01*
X952000Y593000D02*
X956000D01*
X914000D02*
X918000D01*
X914000Y601000D02*
X918000D01*
X914000Y607000D02*
X918000D01*
X914000Y615000D02*
X918000D01*
X872000Y601000D02*
X876000D01*
X872000Y593000D02*
X876000D01*
X872000Y615000D02*
X876000D01*
X872000Y607000D02*
X876000D01*
X1214000Y892000D02*
X1218000D01*
X1214000Y884000D02*
X1218000D01*
X1235000Y917000D02*
Y953000D01*
X1185000Y917000D02*
Y953000D01*
Y917000D02*
X1235000D01*
X1185000Y953000D02*
X1235000D01*
Y673000D02*
Y707000D01*
X1185000Y673000D02*
Y707000D01*
Y673000D02*
X1235000D01*
X1185000Y707000D02*
X1235000D01*
X1148000Y669000D02*
X1152000D01*
X1148000Y661000D02*
X1152000D01*
X1148000Y689000D02*
X1152000D01*
X1148000Y681000D02*
X1152000D01*
X1228000Y630000D02*
X1232000D01*
X1228000Y622000D02*
X1232000D01*
X1204000Y638000D02*
X1208000D01*
X1204000Y650000D02*
X1208000D01*
X1200000Y622000D02*
X1204000D01*
X1200000Y630000D02*
X1204000D01*
X1214000Y604000D02*
X1218000D01*
X1214000Y616000D02*
X1218000D01*
X1214000Y556000D02*
X1218000D01*
X1214000Y564000D02*
X1218000D01*
X1052000Y81000D02*
X1082000D01*
X1052000Y89000D02*
X1082000D01*
X1052000Y81000D02*
Y89000D01*
X1082000Y81000D02*
Y89000D01*
X1017000Y81000D02*
X1047000D01*
X1017000Y89000D02*
X1047000D01*
X1017000Y81000D02*
Y89000D01*
X1047000Y81000D02*
Y89000D01*
X1067000Y107000D02*
X1071000D01*
X1067000Y115000D02*
X1071000D01*
X1067000Y121000D02*
X1071000D01*
X1067000Y129000D02*
X1071000D01*
X1032000Y107000D02*
X1036000D01*
X1032000Y115000D02*
X1036000D01*
X1032000Y121000D02*
X1036000D01*
X1032000Y129000D02*
X1036000D01*
X949500Y180500D02*
X972500D01*
X949500Y149500D02*
X972500D01*
X949500D02*
Y180500D01*
X972500Y149500D02*
Y180500D01*
X959000Y186000D02*
X963000D01*
X959000Y198000D02*
X963000D01*
X945000Y216000D02*
Y224000D01*
X975000Y216000D02*
Y224000D01*
X945000Y216000D02*
X975000D01*
X945000Y224000D02*
X975000D01*
X783000Y186000D02*
X787000D01*
X783000Y174000D02*
X787000D01*
X783000Y168000D02*
X787000D01*
X783000Y156000D02*
X787000D01*
X703000Y156000D02*
X707000D01*
X703000Y168000D02*
X707000D01*
X703000Y174000D02*
X707000D01*
X703000Y186000D02*
X707000D01*
X248000Y176000D02*
X252000D01*
X248000Y188000D02*
X252000D01*
X891000Y673000D02*
X979000D01*
X891000Y707000D02*
X979000D01*
X891000Y673000D02*
Y707000D01*
X979000Y673000D02*
Y707000D01*
X367000Y634000D02*
Y638000D01*
X359000Y634000D02*
Y638000D01*
X353000Y634000D02*
Y638000D01*
X345000Y634000D02*
Y638000D01*
X354000Y779000D02*
X358000D01*
X354000Y787000D02*
X358000D01*
X354000Y765000D02*
X358000D01*
X354000Y773000D02*
X358000D01*
X359000Y742000D02*
Y746000D01*
X367000Y742000D02*
Y746000D01*
X345000Y742000D02*
Y746000D01*
X353000Y742000D02*
Y746000D01*
X331000Y742000D02*
Y746000D01*
X339000Y742000D02*
Y746000D01*
X339000Y634000D02*
Y638000D01*
X331000Y634000D02*
Y638000D01*
X594000Y765000D02*
X598000D01*
X594000Y773000D02*
X598000D01*
X274000Y607000D02*
X278000D01*
X274000Y615000D02*
X278000D01*
X317000Y634000D02*
Y638000D01*
X325000Y634000D02*
Y638000D01*
X303000Y634000D02*
Y638000D01*
X311000Y634000D02*
Y638000D01*
X312000Y601000D02*
X316000D01*
X312000Y593000D02*
X316000D01*
X274000D02*
X278000D01*
X274000Y601000D02*
X278000D01*
X265000Y634000D02*
Y638000D01*
X273000Y634000D02*
Y638000D01*
X279000Y634000D02*
Y638000D01*
X287000Y634000D02*
Y638000D01*
X232000Y615000D02*
X236000D01*
X232000Y607000D02*
X236000D01*
X312000Y773000D02*
X316000D01*
X312000Y765000D02*
X316000D01*
X312000Y787000D02*
X316000D01*
X312000Y779000D02*
X316000D01*
X325000Y742000D02*
Y746000D01*
X317000Y742000D02*
Y746000D01*
X311000Y742000D02*
Y746000D01*
X303000Y742000D02*
Y746000D01*
X287000Y742000D02*
Y746000D01*
X279000Y742000D02*
Y746000D01*
X274000Y779000D02*
X278000D01*
X274000Y787000D02*
X278000D01*
X274000Y765000D02*
X278000D01*
X274000Y773000D02*
X278000D01*
X273000Y742000D02*
Y746000D01*
X265000Y742000D02*
Y746000D01*
X237000Y742000D02*
Y746000D01*
X245000Y742000D02*
Y746000D01*
X223000Y742000D02*
Y746000D01*
X231000Y742000D02*
Y746000D01*
X232000Y773000D02*
X236000D01*
X232000Y765000D02*
X236000D01*
X232000Y787000D02*
X236000D01*
X232000Y779000D02*
X236000D01*
X251000Y742000D02*
Y746000D01*
X259000Y742000D02*
Y746000D01*
X959000Y144000D02*
X963000D01*
X959000Y136000D02*
X963000D01*
X864000Y144000D02*
X868000D01*
X864000Y136000D02*
X868000D01*
X148000Y171000D02*
Y175000D01*
X160000Y171000D02*
Y175000D01*
X94000Y135000D02*
Y139000D01*
X106000Y135000D02*
Y139000D01*
X94000Y171000D02*
Y175000D01*
X106000Y171000D02*
Y175000D01*
X130000Y171000D02*
Y175000D01*
X142000Y171000D02*
Y175000D01*
X659000Y673000D02*
Y707000D01*
X571000Y673000D02*
Y707000D01*
X659000D01*
X571000Y673000D02*
X659000D01*
X503000Y145000D02*
Y195000D01*
X469000Y145000D02*
Y195000D01*
X503000D01*
X469000Y145000D02*
X503000D01*
X405000Y742000D02*
Y746000D01*
X397000Y742000D02*
Y746000D01*
X237000Y634000D02*
Y638000D01*
X245000Y634000D02*
Y638000D01*
X565000Y742000D02*
Y746000D01*
X557000Y742000D02*
Y746000D01*
X397000Y634000D02*
Y638000D01*
X405000Y634000D02*
Y638000D01*
X557000Y634000D02*
Y638000D01*
X565000Y634000D02*
Y638000D01*
X673000Y742000D02*
Y746000D01*
X665000Y742000D02*
Y746000D01*
X505000Y634000D02*
Y638000D01*
X513000Y634000D02*
Y638000D01*
X665000Y634000D02*
Y638000D01*
X673000Y634000D02*
Y638000D01*
X513000Y742000D02*
Y746000D01*
X505000Y742000D02*
Y746000D01*
X245000Y688000D02*
Y692000D01*
X237000Y688000D02*
Y692000D01*
X405000Y689000D02*
Y693000D01*
X397000Y689000D02*
Y693000D01*
X565000Y689000D02*
Y693000D01*
X557000Y689000D02*
Y693000D01*
X717000Y634000D02*
Y638000D01*
X725000Y634000D02*
Y638000D01*
Y742000D02*
Y746000D01*
X717000Y742000D02*
Y746000D01*
X825000Y634000D02*
Y638000D01*
X833000Y634000D02*
Y638000D01*
Y742000D02*
Y746000D01*
X825000Y742000D02*
Y746000D01*
X725000Y688000D02*
Y692000D01*
X717000Y688000D02*
Y692000D01*
X885000Y688000D02*
Y692000D01*
X877000Y688000D02*
Y692000D01*
Y634000D02*
Y638000D01*
X885000Y634000D02*
Y638000D01*
Y742000D02*
Y746000D01*
X877000Y742000D02*
Y746000D01*
X985000Y634000D02*
Y638000D01*
X993000Y634000D02*
Y638000D01*
Y742000D02*
Y746000D01*
X985000Y742000D02*
Y746000D01*
X1165000Y933000D02*
Y937000D01*
X1157000Y933000D02*
Y937000D01*
X490000Y213000D02*
X494000D01*
X490000Y201000D02*
X494000D01*
X196100Y767000D02*
Y771000D01*
X184100Y767000D02*
Y771000D01*
X160000Y767000D02*
Y771000D01*
X148000Y767000D02*
Y771000D01*
X87000Y709000D02*
Y713000D01*
X95000Y709000D02*
Y713000D01*
X106000Y767000D02*
Y771000D01*
X94000Y767000D02*
Y771000D01*
X142000Y767000D02*
Y771000D01*
X130000Y767000D02*
Y771000D01*
X940000Y218000D02*
Y222000D01*
X928000Y218000D02*
Y222000D01*
X93900Y651000D02*
Y655000D01*
X105900Y651000D02*
Y655000D01*
X130000Y651000D02*
Y655000D01*
X142000Y651000D02*
Y655000D01*
X184100Y651000D02*
Y655000D01*
X196100Y651000D02*
Y655000D01*
X148000Y651000D02*
Y655000D01*
X160000Y651000D02*
Y655000D01*
X196000Y287000D02*
Y291000D01*
X184000Y287000D02*
Y291000D01*
X160000Y287000D02*
Y291000D01*
X148000Y287000D02*
Y291000D01*
X106000Y287000D02*
Y291000D01*
X94000Y287000D02*
Y291000D01*
X142000Y287000D02*
Y291000D01*
X130000Y287000D02*
Y291000D01*
X845000Y218000D02*
Y222000D01*
X833000Y218000D02*
Y222000D01*
X864000Y198000D02*
X868000D01*
X864000Y186000D02*
X868000D01*
X195000Y229000D02*
Y233000D01*
X203000Y229000D02*
Y233000D01*
X184000Y171000D02*
Y175000D01*
X196000Y171000D02*
Y175000D01*
X1121000Y673000D02*
Y677000D01*
X1133000Y673000D02*
Y677000D01*
X1179000Y673000D02*
Y677000D01*
X1167000Y673000D02*
Y677000D01*
X1171000Y707000D02*
Y711000D01*
X1179000Y707000D02*
Y711000D01*
X223000Y634000D02*
Y638000D01*
X231000Y634000D02*
Y638000D01*
X439000Y742000D02*
Y746000D01*
X447000Y742000D02*
Y746000D01*
X499000Y742000D02*
Y746000D01*
X491000Y742000D02*
Y746000D01*
X477000Y742000D02*
Y746000D01*
X485000Y742000D02*
Y746000D01*
X419000Y742000D02*
Y746000D01*
X411000Y742000D02*
Y746000D01*
X251000Y634000D02*
Y638000D01*
X259000Y634000D02*
Y638000D01*
X425000Y742000D02*
Y746000D01*
X433000Y742000D02*
Y746000D01*
X391000Y742000D02*
Y746000D01*
X383000Y742000D02*
Y746000D01*
X527000Y742000D02*
Y746000D01*
X519000Y742000D02*
Y746000D01*
X463000Y742000D02*
Y746000D01*
X471000Y742000D02*
Y746000D01*
X579000Y742000D02*
Y746000D01*
X571000Y742000D02*
Y746000D01*
X411000Y634000D02*
Y638000D01*
X419000Y634000D02*
Y638000D01*
X571000Y634000D02*
Y638000D01*
X579000Y634000D02*
Y638000D01*
X585000Y742000D02*
Y746000D01*
X593000Y742000D02*
Y746000D01*
X433000Y634000D02*
Y638000D01*
X425000Y634000D02*
Y638000D01*
X593000Y634000D02*
Y638000D01*
X585000Y634000D02*
Y638000D01*
X551000Y742000D02*
Y746000D01*
X543000Y742000D02*
Y746000D01*
X383000Y634000D02*
Y638000D01*
X391000Y634000D02*
Y638000D01*
X543000Y634000D02*
Y638000D01*
X551000Y634000D02*
Y638000D01*
X599000Y742000D02*
Y746000D01*
X607000Y742000D02*
Y746000D01*
X447000Y634000D02*
Y638000D01*
X439000Y634000D02*
Y638000D01*
X607000Y634000D02*
Y638000D01*
X599000Y634000D02*
Y638000D01*
X659000Y742000D02*
Y746000D01*
X651000Y742000D02*
Y746000D01*
X731000Y634000D02*
Y638000D01*
X739000Y634000D02*
Y638000D01*
Y742000D02*
Y746000D01*
X731000Y742000D02*
Y746000D01*
X753000Y634000D02*
Y638000D01*
X745000Y634000D02*
Y638000D01*
Y742000D02*
Y746000D01*
X753000Y742000D02*
Y746000D01*
X703000Y634000D02*
Y638000D01*
X711000Y634000D02*
Y638000D01*
Y742000D02*
Y746000D01*
X703000Y742000D02*
Y746000D01*
X767000Y634000D02*
Y638000D01*
X759000Y634000D02*
Y638000D01*
X759000Y742000D02*
Y746000D01*
X767000Y742000D02*
Y746000D01*
X811000Y634000D02*
Y638000D01*
X819000Y634000D02*
Y638000D01*
Y742000D02*
Y746000D01*
X811000Y742000D02*
Y746000D01*
X491000Y634000D02*
Y638000D01*
X499000Y634000D02*
Y638000D01*
X651000Y634000D02*
Y638000D01*
X659000Y634000D02*
Y638000D01*
X637000Y742000D02*
Y746000D01*
X645000Y742000D02*
Y746000D01*
X485000Y634000D02*
Y638000D01*
X477000Y634000D02*
Y638000D01*
X645000Y634000D02*
Y638000D01*
X637000Y634000D02*
Y638000D01*
X687000Y742000D02*
Y746000D01*
X679000Y742000D02*
Y746000D01*
X519000Y634000D02*
Y638000D01*
X527000Y634000D02*
Y638000D01*
X679000Y634000D02*
Y638000D01*
X687000Y634000D02*
Y638000D01*
X623000Y742000D02*
Y746000D01*
X631000Y742000D02*
Y746000D01*
X471000Y634000D02*
Y638000D01*
X463000Y634000D02*
Y638000D01*
X631000Y634000D02*
Y638000D01*
X623000Y634000D02*
Y638000D01*
X805000Y634000D02*
Y638000D01*
X797000Y634000D02*
Y638000D01*
Y742000D02*
Y746000D01*
X805000Y742000D02*
Y746000D01*
X839000Y634000D02*
Y638000D01*
X847000Y634000D02*
Y638000D01*
Y742000D02*
Y746000D01*
X839000Y742000D02*
Y746000D01*
X791000Y634000D02*
Y638000D01*
X783000Y634000D02*
Y638000D01*
Y742000D02*
Y746000D01*
X791000Y742000D02*
Y746000D01*
X891000Y634000D02*
Y638000D01*
X899000Y634000D02*
Y638000D01*
Y742000D02*
Y746000D01*
X891000Y742000D02*
Y746000D01*
X913000Y634000D02*
Y638000D01*
X905000Y634000D02*
Y638000D01*
X905000Y742000D02*
Y746000D01*
X913000Y742000D02*
Y746000D01*
X863000Y634000D02*
Y638000D01*
X871000Y634000D02*
Y638000D01*
Y742000D02*
Y746000D01*
X863000Y742000D02*
Y746000D01*
X927000Y634000D02*
Y638000D01*
X919000Y634000D02*
Y638000D01*
Y742000D02*
Y746000D01*
X927000Y742000D02*
Y746000D01*
X971000Y634000D02*
Y638000D01*
X979000Y634000D02*
Y638000D01*
Y742000D02*
Y746000D01*
X971000Y742000D02*
Y746000D01*
X965000Y634000D02*
Y638000D01*
X957000Y634000D02*
Y638000D01*
X957000Y742000D02*
Y746000D01*
X965000Y742000D02*
Y746000D01*
X999000Y634000D02*
Y638000D01*
X1007000Y634000D02*
Y638000D01*
X1007000Y742000D02*
Y746000D01*
X999000Y742000D02*
Y746000D01*
X951000Y634000D02*
Y638000D01*
X943000Y634000D02*
Y638000D01*
Y742000D02*
Y746000D01*
X951000Y742000D02*
Y746000D01*
X196000Y803000D02*
Y807000D01*
X184000Y803000D02*
Y807000D01*
X178000Y767000D02*
Y771000D01*
X166000Y767000D02*
Y771000D01*
X124000Y803000D02*
Y807000D01*
X112000Y803000D02*
Y807000D01*
X124000Y767000D02*
Y771000D01*
X112000Y767000D02*
Y771000D01*
X94000Y615000D02*
Y619000D01*
X106000Y615000D02*
Y619000D01*
X112000Y651000D02*
Y655000D01*
X124000Y651000D02*
Y655000D01*
X166000Y615000D02*
Y619000D01*
X178000Y615000D02*
Y619000D01*
X166000Y651000D02*
Y655000D01*
X178000Y651000D02*
Y655000D01*
X196000Y323000D02*
Y327000D01*
X184000Y323000D02*
Y327000D01*
X178000Y287000D02*
Y291000D01*
X166000Y287000D02*
Y291000D01*
X124000Y323000D02*
Y327000D01*
X112000Y323000D02*
Y327000D01*
X124000Y287000D02*
Y291000D01*
X112000Y287000D02*
Y291000D01*
X166000Y135000D02*
Y139000D01*
X178000Y135000D02*
Y139000D01*
X166000Y171000D02*
Y175000D01*
X178000Y171000D02*
Y175000D01*
X1107000Y675000D02*
Y679000D01*
X1115000Y675000D02*
Y679000D01*
X1171000Y933000D02*
Y937000D01*
X1179000Y933000D02*
Y937000D01*
X438000Y181000D02*
Y185000D01*
X446000Y181000D02*
Y185000D01*
X339000Y673000D02*
Y707000D01*
X251000Y673000D02*
Y707000D01*
X339000D01*
X251000Y673000D02*
X339000D01*
X499000D02*
Y707000D01*
X411000Y673000D02*
Y707000D01*
X499000D01*
X411000Y673000D02*
X499000D01*
X819000D02*
Y707000D01*
X731000Y673000D02*
Y707000D01*
X819000D01*
X731000Y673000D02*
X819000D01*
X292000Y150000D02*
Y200000D01*
Y150000D02*
X330000D01*
Y200000D01*
X292000D02*
X330000D01*
X101000Y694000D02*
Y728000D01*
X189000Y694000D02*
Y728000D01*
X101000Y694000D02*
X189000D01*
X101000Y728000D02*
X189000D01*
X101000Y214000D02*
Y248000D01*
X189000Y214000D02*
Y248000D01*
X101000Y214000D02*
X189000D01*
X101000Y248000D02*
X189000D01*
X877500Y149500D02*
Y180500D01*
X854500Y149500D02*
Y180500D01*
Y149500D02*
X877500D01*
X854500Y180500D02*
X877500D01*
X850000Y224000D02*
X880000D01*
X850000Y216000D02*
X880000D01*
Y224000D01*
X850000Y216000D02*
Y224000D01*
X1212000Y569000D02*
Y599000D01*
X1220000Y569000D02*
Y599000D01*
X1212000D02*
X1220000D01*
X1212000Y569000D02*
X1220000D01*
X112000Y171000D02*
Y175000D01*
X124000Y171000D02*
Y175000D01*
D13*
X81000Y854000D02*
Y928000D01*
X-75000Y854000D02*
Y928000D01*
Y854000D02*
X81000D01*
X-75000Y928000D02*
X81000D01*
Y734000D02*
Y808000D01*
X-75000Y734000D02*
Y808000D01*
Y734000D02*
X81000D01*
X-75000Y808000D02*
X81000D01*
Y614000D02*
Y688000D01*
X-75000Y614000D02*
Y688000D01*
Y614000D02*
X81000D01*
X-75000Y688000D02*
X81000D01*
Y494000D02*
Y568000D01*
X-75000Y494000D02*
Y568000D01*
Y494000D02*
X81000D01*
X-75000Y568000D02*
X81000D01*
Y374000D02*
Y448000D01*
X-75000Y374000D02*
Y448000D01*
Y374000D02*
X81000D01*
X-75000Y448000D02*
X81000D01*
Y254000D02*
Y328000D01*
X-75000Y254000D02*
Y328000D01*
Y254000D02*
X81000D01*
X-75000Y328000D02*
X81000D01*
Y134000D02*
Y208000D01*
X-75000Y134000D02*
Y208000D01*
Y134000D02*
X81000D01*
X-75000Y208000D02*
X81000D01*
Y14000D02*
Y88000D01*
X-75000Y14000D02*
Y88000D01*
Y14000D02*
X81000D01*
X-75000Y88000D02*
X81000D01*
M02*
