M48
;Layer_Color=9474304
;FILE_FORMAT=4:4
METRIC,LZ
;TYPE=PLATED
T1F00S00C0.1500
T2F00S00C1.0000
T3F00S00C1.5000
;TYPE=NON_PLATED
T4F00S00C1.6000
%
T01
X00111Y00127
X00183
X00519997Y00079997
X00519998Y00023998
X00539998
X00559999Y00023999
X0058Y00024
X00600001Y00024001
X00620001
X00619999Y00079999
X0063Y0008
X0064
X0065
X0066
X00679998Y00079998
Y00135998
X00775Y00129
X00795
X0079Y00095
X00803
X00815
X008538
Y00065
X008919
Y00095
X008792Y0012
X008665
X00874Y00131
X00858
X008411Y0012
X009046
X009173
X0093
X00599999Y00079999
X00579998Y00079998
X00559997Y00079998
X00539997Y00079997
X00953Y00131
X00969Y00131
X01026Y00134
X01042
X01061
X01077
X01077Y00085
X01067
X01057
X01042
X01032
X01022
X010062Y00095
Y00065
X00941Y00192
X0095Y00305
X00955Y00315
X0096Y00325
X0091Y00335
X00905Y00295
X009Y00285
X00895Y00275
X00888Y00265
X0092Y0023
Y0021
Y00175
X00846Y00192
X00825Y00175
Y0021
Y0023
X0073Y00162
X00715Y00147
X00695Y00147
X0068Y00162
X00526Y00176
X00503Y00219
X00482
X0026Y00194
X00239Y00193
X00209Y00223
Y00239
X00201Y00335
X00154Y00309
Y00153
X00267Y00152
X00136Y00153
X00136Y00309
X00129Y00335
X00111Y00607
X00136Y00633
X00082Y00703
Y00719
X00136Y00789
X00129Y00815
X00179Y00815
X00154Y00789
X0025Y00783
Y00769
X0026
X00269Y0076
X00283
X00307
X00321
X0033Y00769
X0034
Y00783
X00338Y00797
X00305Y00797
X00252Y00797
X00232Y00698
Y00682
X0025Y00611
X0026
X00269Y0062
X00283
X00307
X00321
X0033Y00611
X0034
Y00597
X00338Y00583
X00305Y00583
X00252Y00583
X0025Y00597
X00183Y00607
X00154Y00633
X0041Y00611
X0042
X00429Y0062
X00443
X00467Y0062
X00481
X0049Y00611
X005
Y00597
X00498Y00583
X00465Y00583
X00412Y00583
X0041Y00597
X00392Y00683
Y00699
X0041Y00769
X0042
X00429Y0076
X00443
X00467
X00481
X0049Y00769
X005
Y00783
X00498Y00797
X00465Y00797
X00412Y00797
X0041Y00783
X0057
Y00769
X0058
X00589Y0076
X00603
X00627
X00641
X0065Y00769
X0066
Y00783
X00658Y00797
X00625Y00797
X00572Y00797
X00552Y00699
Y00683
X0057Y00611
X0058
X00589Y0062
X00603
X00627Y0062
X00641
X0065Y00611
X0066
Y00597
X00658Y00583
X00625Y00583
X00572Y00583
X0057Y00597
X0073
Y00611
X0074
X00749Y0062
X00763
X00787Y0062
X00801
X0081Y00611
X0082
Y00597
X00818Y00583
X00785Y00583
X00732Y00583
X00712Y00683
Y00699
X0073Y00769
X0074
X00749Y0076
X00763
X00787
X00801
X0081Y00769
X0082
Y00783
X00818Y00797
X00785Y00797
X00732Y00797
X0073Y00783
X0078Y00853
X0079
X008
X00815Y00853
X00825
X00835
X0085Y00853
X0086
X0087
X00885
X00895
X00905
X0092
X0093
X00924Y00902
X00905
X00889
X0087
X00854
X00835
X00819
X008Y00902
X00784
X0078Y00923
X0079
X008
X00815Y00923
X00825Y00923
X00835
X0085Y00923
X0086Y00923
X0087
X00885Y00923
X00895Y00923
X00905
X0092Y00923
X0093Y00923
X00892Y00797
X0089Y00783
Y00769
X009
X00909Y0076
X00923
X00872Y00699
Y00683
X0089Y00611
X009
X00909Y0062
X00923
X0089Y00597
X00892Y00583
X00945Y00583
X00978Y00583
X0098Y00597
Y00611
X0097
X00961Y0062
X00947
X00947Y0076
X00961
X0097Y00769
X0098
Y00783
X00978Y00797
X00945Y00797
X0094Y00853
X00955
X00965
X00975
X0099Y00853
X01
X0101
X01025
X01035
X01045
X0106Y00853
X0107
X0108
X0108Y00902
X01064
X01045
X01029
X0101
X00994
X00975
X00959
X0094
X0094Y00923
X00955Y00923
X00965Y00923
X00975
X0099Y00923
X01Y00923
X0101
X01025Y00923
X01035Y00923
X01045
X0106Y00923
X0107Y00923
X0108
X01059Y0082
X01166Y00717
Y00701
X01186Y00644
Y00626
X01196Y0061
X01208Y0055
X01224
X01229Y00675
X01127Y00655
X01111Y00661
X01059Y0056
X01229Y0092
X01161Y00952
X0108Y00972
X01064
X01045
X01029
X0101
X00994
X00975
X00959
X0094
X00924
X00905
X00889
X0087
X00854
X00835
X00819
X00792Y0097
X00775Y00963
T02
X002992Y000673
Y000927
X003246
X0035
Y000673
X003246
X003754
X004008
Y000927
X003754
X00681Y00219
X00715Y0022
X0076
X00795
X001342Y008816
X00134202Y00907002
X001596Y00907
X00185
Y008816
X001596
X002104
X002358
Y00907
X002612
X002866
Y008816
X002612
X00312
X003374
Y00907
X003628
Y008816
X00312Y00907
X002104
X00467402Y00907002
X004928Y00907
X005182
Y008816
X004928
X004674
X005436
X00569
Y00907
X005944
X006198
Y008816
X005944
X006452
X006706
Y00907
X00696
Y008816
X006452Y00907
X005436
X0115Y00902
Y00845
X01059Y00685
T03
X000185Y000255
X00044Y00051
X000185Y000765
X000695
Y000255
Y001455
X00044Y00171
X000185Y001455
Y001965
X000695
Y002655
X00044Y00291
X000185Y002655
Y003165
X000695
Y003855
X00044Y00411
X000185Y003855
Y004365
X000695
Y005055
X00044Y00531
X000185Y005055
Y005565
X000695
Y006255
X00044Y00651
X000185Y006255
Y006765
X000695
Y007455
X00044Y00771
X000185Y007455
Y007965
X000695
Y008655
X00044Y00891
X000185Y008655
Y009165
X000695
T04
X007555Y0008
X011045
X007555Y0092
X011045
M30
