G04*
G04 #@! TF.GenerationSoftware,Altium Limited,Altium Designer,19.0.10 (269)*
G04*
G04 Layer_Physical_Order=1*
G04 Layer_Color=255*
%FSLAX44Y44*%
%MOMM*%
G71*
G01*
G75*
%ADD11C,0.2500*%
%ADD12C,0.1500*%
G04:AMPARAMS|DCode=26|XSize=0.5mm|YSize=0.4mm|CornerRadius=0.05mm|HoleSize=0mm|Usage=FLASHONLY|Rotation=180.000|XOffset=0mm|YOffset=0mm|HoleType=Round|Shape=RoundedRectangle|*
%AMROUNDEDRECTD26*
21,1,0.5000,0.3000,0,0,180.0*
21,1,0.4000,0.4000,0,0,180.0*
1,1,0.1000,-0.2000,0.1500*
1,1,0.1000,0.2000,0.1500*
1,1,0.1000,0.2000,-0.1500*
1,1,0.1000,-0.2000,-0.1500*
%
%ADD26ROUNDEDRECTD26*%
G04:AMPARAMS|DCode=33|XSize=0.3mm|YSize=1mm|CornerRadius=0.075mm|HoleSize=0mm|Usage=FLASHONLY|Rotation=0.000|XOffset=0mm|YOffset=0mm|HoleType=Round|Shape=RoundedRectangle|*
%AMROUNDEDRECTD33*
21,1,0.3000,0.8500,0,0,0.0*
21,1,0.1500,1.0000,0,0,0.0*
1,1,0.1500,0.0750,-0.4250*
1,1,0.1500,-0.0750,-0.4250*
1,1,0.1500,-0.0750,0.4250*
1,1,0.1500,0.0750,0.4250*
%
%ADD33ROUNDEDRECTD33*%
%ADD34R,0.5000X1.0000*%
G04:AMPARAMS|DCode=35|XSize=1mm|YSize=4.2mm|CornerRadius=0.125mm|HoleSize=0mm|Usage=FLASHONLY|Rotation=0.000|XOffset=0mm|YOffset=0mm|HoleType=Round|Shape=RoundedRectangle|*
%AMROUNDEDRECTD35*
21,1,1.0000,3.9500,0,0,0.0*
21,1,0.7500,4.2000,0,0,0.0*
1,1,0.2500,0.3750,-1.9750*
1,1,0.2500,-0.3750,-1.9750*
1,1,0.2500,-0.3750,1.9750*
1,1,0.2500,0.3750,1.9750*
%
%ADD35ROUNDEDRECTD35*%
G04:AMPARAMS|DCode=36|XSize=1mm|YSize=4.2mm|CornerRadius=0mm|HoleSize=0mm|Usage=FLASHONLY|Rotation=0.000|XOffset=0mm|YOffset=0mm|HoleType=Round|Shape=Octagon|*
%AMOCTAGOND36*
4,1,8,-0.2500,2.1000,0.2500,2.1000,0.5000,1.8500,0.5000,-1.8500,0.2500,-2.1000,-0.2500,-2.1000,-0.5000,-1.8500,-0.5000,1.8500,-0.2500,2.1000,0.0*
%
%ADD36OCTAGOND36*%

G04:AMPARAMS|DCode=37|XSize=0.6mm|YSize=1mm|CornerRadius=0.15mm|HoleSize=0mm|Usage=FLASHONLY|Rotation=0.000|XOffset=0mm|YOffset=0mm|HoleType=Round|Shape=RoundedRectangle|*
%AMROUNDEDRECTD37*
21,1,0.6000,0.7000,0,0,0.0*
21,1,0.3000,1.0000,0,0,0.0*
1,1,0.3000,0.1500,-0.3500*
1,1,0.3000,-0.1500,-0.3500*
1,1,0.3000,-0.1500,0.3500*
1,1,0.3000,0.1500,0.3500*
%
%ADD37ROUNDEDRECTD37*%
G04:AMPARAMS|DCode=38|XSize=0.75mm|YSize=0.9mm|CornerRadius=0.0938mm|HoleSize=0mm|Usage=FLASHONLY|Rotation=0.000|XOffset=0mm|YOffset=0mm|HoleType=Round|Shape=RoundedRectangle|*
%AMROUNDEDRECTD38*
21,1,0.7500,0.7125,0,0,0.0*
21,1,0.5625,0.9000,0,0,0.0*
1,1,0.1875,0.2813,-0.3563*
1,1,0.1875,-0.2813,-0.3563*
1,1,0.1875,-0.2813,0.3563*
1,1,0.1875,0.2813,0.3563*
%
%ADD38ROUNDEDRECTD38*%
G04:AMPARAMS|DCode=39|XSize=0.6mm|YSize=1.6mm|CornerRadius=0.15mm|HoleSize=0mm|Usage=FLASHONLY|Rotation=180.000|XOffset=0mm|YOffset=0mm|HoleType=Round|Shape=RoundedRectangle|*
%AMROUNDEDRECTD39*
21,1,0.6000,1.3000,0,0,180.0*
21,1,0.3000,1.6000,0,0,180.0*
1,1,0.3000,-0.1500,0.6500*
1,1,0.3000,0.1500,0.6500*
1,1,0.3000,0.1500,-0.6500*
1,1,0.3000,-0.1500,-0.6500*
%
%ADD39ROUNDEDRECTD39*%
G04:AMPARAMS|DCode=40|XSize=0.6mm|YSize=1.45mm|CornerRadius=0.15mm|HoleSize=0mm|Usage=FLASHONLY|Rotation=180.000|XOffset=0mm|YOffset=0mm|HoleType=Round|Shape=RoundedRectangle|*
%AMROUNDEDRECTD40*
21,1,0.6000,1.1500,0,0,180.0*
21,1,0.3000,1.4500,0,0,180.0*
1,1,0.3000,-0.1500,0.5750*
1,1,0.3000,0.1500,0.5750*
1,1,0.3000,0.1500,-0.5750*
1,1,0.3000,-0.1500,-0.5750*
%
%ADD40ROUNDEDRECTD40*%
G04:AMPARAMS|DCode=41|XSize=1.1mm|YSize=1.35mm|CornerRadius=0.1375mm|HoleSize=0mm|Usage=FLASHONLY|Rotation=0.000|XOffset=0mm|YOffset=0mm|HoleType=Round|Shape=RoundedRectangle|*
%AMROUNDEDRECTD41*
21,1,1.1000,1.0750,0,0,0.0*
21,1,0.8250,1.3500,0,0,0.0*
1,1,0.2750,0.4125,-0.5375*
1,1,0.2750,-0.4125,-0.5375*
1,1,0.2750,-0.4125,0.5375*
1,1,0.2750,0.4125,0.5375*
%
%ADD41ROUNDEDRECTD41*%
G04:AMPARAMS|DCode=42|XSize=0.3mm|YSize=1.5mm|CornerRadius=0.0375mm|HoleSize=0mm|Usage=FLASHONLY|Rotation=270.000|XOffset=0mm|YOffset=0mm|HoleType=Round|Shape=RoundedRectangle|*
%AMROUNDEDRECTD42*
21,1,0.3000,1.4250,0,0,270.0*
21,1,0.2250,1.5000,0,0,270.0*
1,1,0.0750,-0.7125,-0.1125*
1,1,0.0750,-0.7125,0.1125*
1,1,0.0750,0.7125,0.1125*
1,1,0.0750,0.7125,-0.1125*
%
%ADD42ROUNDEDRECTD42*%
G04:AMPARAMS|DCode=43|XSize=0.6mm|YSize=0.9mm|CornerRadius=0.15mm|HoleSize=0mm|Usage=FLASHONLY|Rotation=180.000|XOffset=0mm|YOffset=0mm|HoleType=Round|Shape=RoundedRectangle|*
%AMROUNDEDRECTD43*
21,1,0.6000,0.6000,0,0,180.0*
21,1,0.3000,0.9000,0,0,180.0*
1,1,0.3000,-0.1500,0.3000*
1,1,0.3000,0.1500,0.3000*
1,1,0.3000,0.1500,-0.3000*
1,1,0.3000,-0.1500,-0.3000*
%
%ADD43ROUNDEDRECTD43*%
G04:AMPARAMS|DCode=44|XSize=0.75mm|YSize=0.9mm|CornerRadius=0.0938mm|HoleSize=0mm|Usage=FLASHONLY|Rotation=270.000|XOffset=0mm|YOffset=0mm|HoleType=Round|Shape=RoundedRectangle|*
%AMROUNDEDRECTD44*
21,1,0.7500,0.7125,0,0,270.0*
21,1,0.5625,0.9000,0,0,270.0*
1,1,0.1875,-0.3563,-0.2813*
1,1,0.1875,-0.3563,0.2813*
1,1,0.1875,0.3563,0.2813*
1,1,0.1875,0.3563,-0.2813*
%
%ADD44ROUNDEDRECTD44*%
G04:AMPARAMS|DCode=45|XSize=1.1mm|YSize=1.35mm|CornerRadius=0.1375mm|HoleSize=0mm|Usage=FLASHONLY|Rotation=90.000|XOffset=0mm|YOffset=0mm|HoleType=Round|Shape=RoundedRectangle|*
%AMROUNDEDRECTD45*
21,1,1.1000,1.0750,0,0,90.0*
21,1,0.8250,1.3500,0,0,90.0*
1,1,0.2750,0.5375,0.4125*
1,1,0.2750,0.5375,-0.4125*
1,1,0.2750,-0.5375,-0.4125*
1,1,0.2750,-0.5375,0.4125*
%
%ADD45ROUNDEDRECTD45*%
G04:AMPARAMS|DCode=46|XSize=0.6mm|YSize=1.45mm|CornerRadius=0.15mm|HoleSize=0mm|Usage=FLASHONLY|Rotation=90.000|XOffset=0mm|YOffset=0mm|HoleType=Round|Shape=RoundedRectangle|*
%AMROUNDEDRECTD46*
21,1,0.6000,1.1500,0,0,90.0*
21,1,0.3000,1.4500,0,0,90.0*
1,1,0.3000,0.5750,0.1500*
1,1,0.3000,0.5750,-0.1500*
1,1,0.3000,-0.5750,-0.1500*
1,1,0.3000,-0.5750,0.1500*
%
%ADD46ROUNDEDRECTD46*%
G04:AMPARAMS|DCode=47|XSize=0.45mm|YSize=1.5mm|CornerRadius=0.1125mm|HoleSize=0mm|Usage=FLASHONLY|Rotation=90.000|XOffset=0mm|YOffset=0mm|HoleType=Round|Shape=RoundedRectangle|*
%AMROUNDEDRECTD47*
21,1,0.4500,1.2750,0,0,90.0*
21,1,0.2250,1.5000,0,0,90.0*
1,1,0.2250,0.6375,0.1125*
1,1,0.2250,0.6375,-0.1125*
1,1,0.2250,-0.6375,-0.1125*
1,1,0.2250,-0.6375,0.1125*
%
%ADD47ROUNDEDRECTD47*%
G04:AMPARAMS|DCode=48|XSize=0.6mm|YSize=0.9mm|CornerRadius=0.15mm|HoleSize=0mm|Usage=FLASHONLY|Rotation=270.000|XOffset=0mm|YOffset=0mm|HoleType=Round|Shape=RoundedRectangle|*
%AMROUNDEDRECTD48*
21,1,0.6000,0.6000,0,0,270.0*
21,1,0.3000,0.9000,0,0,270.0*
1,1,0.3000,-0.3000,-0.1500*
1,1,0.3000,-0.3000,0.1500*
1,1,0.3000,0.3000,0.1500*
1,1,0.3000,0.3000,-0.1500*
%
%ADD48ROUNDEDRECTD48*%
%ADD49C,0.5000*%
%ADD50C,0.2000*%
%ADD51C,0.3810*%
%ADD52C,1.6000*%
G04:AMPARAMS|DCode=53|XSize=2mm|YSize=2mm|CornerRadius=0.5mm|HoleSize=0mm|Usage=FLASHONLY|Rotation=180.000|XOffset=0mm|YOffset=0mm|HoleType=Round|Shape=RoundedRectangle|*
%AMROUNDEDRECTD53*
21,1,2.0000,1.0000,0,0,180.0*
21,1,1.0000,2.0000,0,0,180.0*
1,1,1.0000,-0.5000,0.5000*
1,1,1.0000,0.5000,0.5000*
1,1,1.0000,0.5000,-0.5000*
1,1,1.0000,-0.5000,-0.5000*
%
%ADD53ROUNDEDRECTD53*%
%ADD54P,2.1648X8X202.5*%
%ADD55C,2.5000*%
%ADD56C,0.5000*%
G36*
X973000Y792000D02*
X966500D01*
X966500Y793000D01*
X970000Y796500D01*
X970000Y797501D01*
X966500Y801000D01*
X966500Y802000D01*
X973000D01*
Y792000D01*
D02*
G37*
G36*
X964500Y800500D02*
X968001Y797001D01*
X964500Y793500D01*
Y792000D01*
X959500D01*
Y793500D01*
X955750Y797000D01*
X959500Y800500D01*
Y802000D01*
X964500D01*
Y800500D01*
D02*
G37*
G36*
X957500Y801000D02*
X954000Y797500D01*
X954000Y796499D01*
X957499Y793000D01*
X957500Y792000D01*
X951000D01*
Y802000D01*
X957500D01*
X957500Y801000D01*
D02*
G37*
G36*
X919000Y792000D02*
X912500D01*
X912500Y793000D01*
X916000Y796500D01*
X916000Y797501D01*
X912500Y801000D01*
X912500Y802000D01*
X919000D01*
Y792000D01*
D02*
G37*
G36*
X910500Y800500D02*
X914250Y797000D01*
X910500Y793500D01*
Y792000D01*
X905500D01*
Y793500D01*
X901999Y796999D01*
X905500Y800500D01*
Y802000D01*
X910500D01*
Y800500D01*
D02*
G37*
G36*
X903500Y801000D02*
X900000Y797500D01*
X900000Y796499D01*
X903500Y793000D01*
X903500Y792000D01*
X897000D01*
Y802000D01*
X903500D01*
X903500Y801000D01*
D02*
G37*
G36*
X813000Y792000D02*
X806500D01*
X806500Y793000D01*
X810000Y796500D01*
X810000Y797501D01*
X806500Y801000D01*
X806500Y802000D01*
X813000D01*
Y792000D01*
D02*
G37*
G36*
X804500Y800500D02*
X808001Y797001D01*
X804500Y793500D01*
Y792000D01*
X799500D01*
Y793500D01*
X795750Y797000D01*
X799500Y800500D01*
Y802000D01*
X804500D01*
Y800500D01*
D02*
G37*
G36*
X797500Y801000D02*
X794000Y797500D01*
X794000Y796499D01*
X797499Y793000D01*
X797500Y792000D01*
X791000D01*
Y802000D01*
X797500D01*
X797500Y801000D01*
D02*
G37*
G36*
X759000Y792000D02*
X752500D01*
X752500Y793000D01*
X756000Y796500D01*
X756000Y797501D01*
X752500Y801000D01*
X752500Y802000D01*
X759000D01*
Y792000D01*
D02*
G37*
G36*
X750500Y800500D02*
X754250Y797000D01*
X750500Y793500D01*
Y792000D01*
X745500D01*
Y793500D01*
X741999Y796999D01*
X745500Y800500D01*
Y802000D01*
X750500D01*
Y800500D01*
D02*
G37*
G36*
X743500Y801000D02*
X740000Y797500D01*
X740000Y796499D01*
X743500Y793000D01*
X743500Y792000D01*
X737000D01*
Y802000D01*
X743500D01*
X743500Y801000D01*
D02*
G37*
G36*
X653000Y792000D02*
X646500D01*
X646500Y793000D01*
X650000Y796500D01*
X650000Y797501D01*
X646500Y801000D01*
X646500Y802000D01*
X653000D01*
Y792000D01*
D02*
G37*
G36*
X644500Y800500D02*
X648001Y797001D01*
X644500Y793500D01*
Y792000D01*
X639500D01*
Y793500D01*
X635750Y797000D01*
X639500Y800500D01*
Y802000D01*
X644500D01*
Y800500D01*
D02*
G37*
G36*
X637500Y801000D02*
X634000Y797500D01*
X634000Y796499D01*
X637500Y793000D01*
X637500Y792000D01*
X631000D01*
Y802000D01*
X637500D01*
X637500Y801000D01*
D02*
G37*
G36*
X599000Y792000D02*
X592500D01*
X592500Y793000D01*
X596000Y796500D01*
X596000Y797501D01*
X592500Y801000D01*
X592500Y802000D01*
X599000D01*
Y792000D01*
D02*
G37*
G36*
X590500Y800500D02*
X594250Y797000D01*
X590500Y793500D01*
Y792000D01*
X585500D01*
Y793500D01*
X581999Y796999D01*
X585500Y800500D01*
Y802000D01*
X590500D01*
Y800500D01*
D02*
G37*
G36*
X583500Y801000D02*
X580000Y797500D01*
X580000Y796499D01*
X583499Y793000D01*
X583500Y792000D01*
X577000D01*
Y802000D01*
X583500D01*
X583500Y801000D01*
D02*
G37*
G36*
X493000Y792000D02*
X486500D01*
X486500Y793000D01*
X490000Y796500D01*
X490000Y797501D01*
X486500Y801000D01*
X486500Y802000D01*
X493000D01*
Y792000D01*
D02*
G37*
G36*
X484500Y800500D02*
X488001Y797001D01*
X484500Y793500D01*
Y792000D01*
X479500D01*
Y793500D01*
X475750Y797000D01*
X479500Y800500D01*
Y802000D01*
X484500D01*
Y800500D01*
D02*
G37*
G36*
X477500Y801000D02*
X474000Y797500D01*
X474000Y796499D01*
X477500Y793000D01*
X477500Y792000D01*
X471000D01*
Y802000D01*
X477500D01*
X477500Y801000D01*
D02*
G37*
G36*
X439000Y792000D02*
X432500D01*
X432500Y793000D01*
X436000Y796500D01*
X436000Y797501D01*
X432500Y801000D01*
X432500Y802000D01*
X439000D01*
Y792000D01*
D02*
G37*
G36*
X430500Y800500D02*
X434250Y797000D01*
X430500Y793500D01*
Y792000D01*
X425500D01*
Y793500D01*
X421999Y796999D01*
X425500Y800500D01*
Y802000D01*
X430500D01*
Y800500D01*
D02*
G37*
G36*
X423500Y801000D02*
X420000Y797500D01*
X420000Y796499D01*
X423499Y793000D01*
X423500Y792000D01*
X417000D01*
Y802000D01*
X423500D01*
X423500Y801000D01*
D02*
G37*
G36*
X333000Y792000D02*
X326500D01*
X326500Y793000D01*
X330000Y796500D01*
X330000Y797501D01*
X326500Y801000D01*
X326500Y802000D01*
X333000D01*
Y792000D01*
D02*
G37*
G36*
X324500Y800500D02*
X328001Y797001D01*
X324500Y793500D01*
Y792000D01*
X319500D01*
Y793500D01*
X315750Y797000D01*
X319500Y800500D01*
Y802000D01*
X324500D01*
Y800500D01*
D02*
G37*
G36*
X317500Y801000D02*
X314000Y797500D01*
X314000Y796499D01*
X317500Y793000D01*
X317500Y792000D01*
X311000D01*
Y802000D01*
X317500D01*
X317500Y801000D01*
D02*
G37*
G36*
X279000Y792000D02*
X272500D01*
X272500Y793000D01*
X276000Y796500D01*
X276000Y797501D01*
X272500Y801000D01*
X272500Y802000D01*
X279000D01*
Y792000D01*
D02*
G37*
G36*
X270500Y800500D02*
X274250Y797000D01*
X270500Y793500D01*
Y792000D01*
X265500D01*
Y793500D01*
X261999Y796999D01*
X265500Y800500D01*
Y802000D01*
X270500D01*
Y800500D01*
D02*
G37*
G36*
X263500Y801000D02*
X260000Y797500D01*
X260000Y796499D01*
X263500Y793000D01*
X263500Y792000D01*
X257000D01*
Y802000D01*
X263500D01*
X263500Y801000D01*
D02*
G37*
G36*
X653000Y578000D02*
X646500D01*
X646500Y579000D01*
X650000Y582500D01*
X650000Y583501D01*
X646500Y587000D01*
X646500Y588000D01*
X653000D01*
Y578000D01*
D02*
G37*
G36*
X644500Y586500D02*
X648001Y583001D01*
X644500Y579500D01*
Y578000D01*
X639500D01*
Y579500D01*
X635750Y583000D01*
X639500Y586500D01*
Y588000D01*
X644500D01*
Y586500D01*
D02*
G37*
G36*
X637500Y587000D02*
X634000Y583500D01*
X634000Y582499D01*
X637500Y579000D01*
X637500Y578000D01*
X631000D01*
Y588000D01*
X637500D01*
X637500Y587000D01*
D02*
G37*
G36*
X333000Y578000D02*
X326500D01*
X326500Y579000D01*
X330000Y582500D01*
X330000Y583501D01*
X326500Y587000D01*
X326500Y588000D01*
X333000D01*
Y578000D01*
D02*
G37*
G36*
X324500Y586500D02*
X328001Y583001D01*
X324500Y579500D01*
Y578000D01*
X319500D01*
Y579500D01*
X315750Y583000D01*
X319500Y586500D01*
Y588000D01*
X324500D01*
Y586500D01*
D02*
G37*
G36*
X317500Y587000D02*
X314000Y583500D01*
X314000Y582499D01*
X317500Y579000D01*
X317500Y578000D01*
X311000D01*
Y588000D01*
X317500D01*
X317500Y587000D01*
D02*
G37*
G36*
X973000Y578000D02*
X966500D01*
X966500Y579000D01*
X970000Y582500D01*
X970000Y583501D01*
X966500Y587000D01*
X966500Y588000D01*
X973000D01*
Y578000D01*
D02*
G37*
G36*
X964500Y586500D02*
X968001Y583001D01*
X964500Y579500D01*
Y578000D01*
X959500D01*
Y579500D01*
X955750Y583000D01*
X959500Y586500D01*
Y588000D01*
X964500D01*
Y586500D01*
D02*
G37*
G36*
X957500Y587000D02*
X954000Y583500D01*
X954000Y582499D01*
X957499Y579000D01*
X957500Y578000D01*
X951000D01*
Y588000D01*
X957500D01*
X957500Y587000D01*
D02*
G37*
G36*
X919000Y578000D02*
X912500D01*
X912500Y579000D01*
X916000Y582500D01*
X916000Y583501D01*
X912500Y587000D01*
X912500Y588000D01*
X919000D01*
Y578000D01*
D02*
G37*
G36*
X910500Y586500D02*
X914250Y583000D01*
X910500Y579500D01*
Y578000D01*
X905500D01*
Y579500D01*
X901999Y582999D01*
X905500Y586500D01*
Y588000D01*
X910500D01*
Y586500D01*
D02*
G37*
G36*
X903500Y587000D02*
X900000Y583500D01*
X900000Y582499D01*
X903500Y579000D01*
X903500Y578000D01*
X897000D01*
Y588000D01*
X903500D01*
X903500Y587000D01*
D02*
G37*
G36*
X813000Y578000D02*
X806500D01*
X806500Y579000D01*
X810000Y582500D01*
X810000Y583501D01*
X806500Y587000D01*
X806500Y588000D01*
X813000D01*
Y578000D01*
D02*
G37*
G36*
X804500Y586500D02*
X808001Y583001D01*
X804500Y579500D01*
Y578000D01*
X799500D01*
Y579500D01*
X795750Y583000D01*
X799500Y586500D01*
Y588000D01*
X804500D01*
Y586500D01*
D02*
G37*
G36*
X797500Y587000D02*
X794000Y583500D01*
X794000Y582499D01*
X797499Y579000D01*
X797500Y578000D01*
X791000D01*
Y588000D01*
X797500D01*
X797500Y587000D01*
D02*
G37*
G36*
X759000Y578000D02*
X752500D01*
X752500Y579000D01*
X756000Y582500D01*
X756000Y583501D01*
X752500Y587000D01*
X752500Y588000D01*
X759000D01*
Y578000D01*
D02*
G37*
G36*
X750500Y586500D02*
X754250Y583000D01*
X750500Y579500D01*
Y578000D01*
X745500D01*
Y579500D01*
X741999Y582999D01*
X745500Y586500D01*
Y588000D01*
X750500D01*
Y586500D01*
D02*
G37*
G36*
X743500Y587000D02*
X740000Y583500D01*
X740000Y582499D01*
X743500Y579000D01*
X743500Y578000D01*
X737000D01*
Y588000D01*
X743500D01*
X743500Y587000D01*
D02*
G37*
G36*
X599000Y578000D02*
X592500D01*
X592500Y579000D01*
X596000Y582500D01*
X596000Y583501D01*
X592500Y587000D01*
X592500Y588000D01*
X599000D01*
Y578000D01*
D02*
G37*
G36*
X590500Y586500D02*
X594250Y583000D01*
X590500Y579500D01*
Y578000D01*
X585500D01*
Y579500D01*
X581999Y582999D01*
X585500Y586500D01*
Y588000D01*
X590500D01*
Y586500D01*
D02*
G37*
G36*
X583500Y587000D02*
X580000Y583500D01*
X580000Y582499D01*
X583499Y579000D01*
X583500Y578000D01*
X577000D01*
Y588000D01*
X583500D01*
X583500Y587000D01*
D02*
G37*
G36*
X493000Y578000D02*
X486500D01*
X486500Y579000D01*
X490000Y582500D01*
X490000Y583501D01*
X486500Y587000D01*
X486500Y588000D01*
X493000D01*
Y578000D01*
D02*
G37*
G36*
X484500Y586500D02*
X488001Y583001D01*
X484500Y579500D01*
Y578000D01*
X479500D01*
Y579500D01*
X475750Y583000D01*
X479500Y586500D01*
Y588000D01*
X484500D01*
Y586500D01*
D02*
G37*
G36*
X477500Y587000D02*
X474000Y583500D01*
X474000Y582499D01*
X477500Y579000D01*
X477500Y578000D01*
X471000D01*
Y588000D01*
X477500D01*
X477500Y587000D01*
D02*
G37*
G36*
X439000Y578000D02*
X432500D01*
X432500Y579000D01*
X436000Y582500D01*
X436000Y583501D01*
X432500Y587000D01*
X432500Y588000D01*
X439000D01*
Y578000D01*
D02*
G37*
G36*
X430500Y586500D02*
X434250Y583000D01*
X430500Y579500D01*
Y578000D01*
X425500D01*
Y579500D01*
X421999Y582999D01*
X425500Y586500D01*
Y588000D01*
X430500D01*
Y586500D01*
D02*
G37*
G36*
X423500Y587000D02*
X420000Y583500D01*
X420000Y582499D01*
X423499Y579000D01*
X423500Y578000D01*
X417000D01*
Y588000D01*
X423500D01*
X423500Y587000D01*
D02*
G37*
G36*
X279000Y578000D02*
X272500D01*
X272500Y579000D01*
X276000Y582500D01*
X276000Y583501D01*
X272500Y587000D01*
X272500Y588000D01*
X279000D01*
Y578000D01*
D02*
G37*
G36*
X270500Y586500D02*
X274250Y583000D01*
X270500Y579500D01*
Y578000D01*
X265500D01*
Y579500D01*
X261999Y582999D01*
X265500Y586500D01*
Y588000D01*
X270500D01*
Y586500D01*
D02*
G37*
G36*
X263500Y587000D02*
X260000Y583500D01*
X260000Y582499D01*
X263500Y579000D01*
X263500Y578000D01*
X257000D01*
Y588000D01*
X263500D01*
X263500Y587000D01*
D02*
G37*
G36*
X797500Y141000D02*
X792500D01*
Y147250D01*
X797500D01*
Y141000D01*
D02*
G37*
G36*
X777500Y140000D02*
X772500D01*
Y146250D01*
X777500D01*
Y140000D01*
D02*
G37*
D11*
X1208000Y550000D02*
Y560000D01*
X1042000Y111000D02*
Y134000D01*
X1042000Y134000D02*
X1042000Y134000D01*
X953000Y131000D02*
Y140000D01*
X1012000Y783000D02*
X1030000Y765000D01*
X1004000Y583000D02*
Y611000D01*
Y583000D02*
X1020000Y567000D01*
X1020000Y165000D01*
X1013000Y158000D02*
X1020000Y165000D01*
X1013000Y68000D02*
Y158000D01*
X1030000Y765000D02*
X1030000Y160000D01*
X1018000Y148000D02*
X1030000Y160000D01*
X1018000Y103000D02*
Y148000D01*
Y103000D02*
X1022000Y99000D01*
Y97000D02*
Y99000D01*
X1057000Y95000D02*
Y96000D01*
X1049000Y87000D02*
X1057000Y95000D01*
X1049000Y66000D02*
Y87000D01*
X1046000Y63000D02*
X1049000Y66000D01*
X1018000Y63000D02*
X1046000D01*
X1013000Y68000D02*
X1018000Y63000D01*
X1004000Y783000D02*
X1012000D01*
X1004000Y783000D02*
X1004000Y783000D01*
X1004000Y783000D02*
X1004000D01*
X1080000Y949000D02*
Y972000D01*
X1045000Y949000D02*
Y972000D01*
X975000Y949000D02*
Y972000D01*
X1080000Y879000D02*
Y902000D01*
X1077000Y111000D02*
Y134000D01*
X1045000Y879000D02*
Y902000D01*
X1010000Y879000D02*
Y902000D01*
X975000Y879000D02*
Y902000D01*
X940000Y949000D02*
Y972000D01*
X905000Y949000D02*
Y972000D01*
X870000Y949000D02*
Y972000D01*
X835000Y949000D02*
Y972000D01*
X792500Y970500D02*
X800000Y963000D01*
X940000Y879000D02*
Y902000D01*
X905000Y879000D02*
Y902000D01*
X870000Y879000D02*
Y902000D01*
X835000Y879000D02*
Y902000D01*
X1077000Y134000D02*
X1077000Y134000D01*
X1026000Y124000D02*
Y134000D01*
X1077000Y97000D02*
Y111000D01*
X1077000Y111000D01*
X1067000Y97000D02*
Y104000D01*
X1061000Y110000D02*
X1067000Y104000D01*
X1077000Y73000D02*
Y85000D01*
X1067000Y73000D02*
Y85000D01*
X1057000Y73000D02*
Y85000D01*
X1061000Y110000D02*
Y134000D01*
X1042000Y97000D02*
Y111000D01*
X1042000Y111000D01*
X1032000Y97000D02*
Y104000D01*
X1026000Y110000D02*
X1032000Y104000D01*
X1042000Y73000D02*
Y85000D01*
X1032000Y73000D02*
Y85000D01*
X1022000Y73000D02*
Y85000D01*
X1026000Y110000D02*
Y124000D01*
X849500Y208500D02*
X855500D01*
X825000Y230000D02*
X828000D01*
X839000Y210000D02*
X839000Y210000D01*
X848000D02*
X848000Y210000D01*
X849000Y209000D01*
X828000Y230000D02*
X839000D01*
Y210000D02*
X848000D01*
X849000Y209000D02*
Y209000D01*
X825000Y230000D02*
X828000D01*
X825000Y210000D02*
X839000D01*
X849000Y209000D02*
X849500Y208500D01*
X846000Y192000D02*
X856000D01*
X844000Y170000D02*
X864000D01*
X876000Y182000D01*
Y192000D02*
X876000Y192000D01*
X874500Y193500D02*
X876000Y192000D01*
X876000Y182000D02*
Y192000D01*
X874500Y193500D02*
Y208500D01*
X859000Y232000D02*
X864500D01*
X865000Y231500D01*
X839000Y230000D02*
X857000D01*
X859000Y232000D01*
X825000Y175000D02*
X842000D01*
X920000Y230000D02*
X934000D01*
X920000D02*
X923000D01*
X920000Y210000D02*
X934000D01*
X920000Y175000D02*
X937000D01*
X941000Y192000D02*
X951000D01*
X934000Y210000D02*
X934000Y210000D01*
X944500Y208500D02*
X950500D01*
X944000Y209000D02*
X944500Y208500D01*
X944000Y209000D02*
Y209000D01*
X943000Y210000D02*
X944000Y209000D01*
X943000Y210000D02*
X943000Y210000D01*
X934000Y210000D02*
X943000D01*
X1064000Y948000D02*
Y972000D01*
X1029000Y949000D02*
Y972000D01*
X1064000Y878000D02*
Y902000D01*
X994000Y878000D02*
Y902000D01*
X924000Y948000D02*
Y972000D01*
X889000Y948000D02*
Y972000D01*
X854000Y948000D02*
Y972000D01*
X819000Y948000D02*
Y972000D01*
X924000Y878000D02*
Y902000D01*
X889000Y879000D02*
Y902000D01*
X854000Y878000D02*
Y902000D01*
X819000Y878000D02*
Y902000D01*
X784000Y878000D02*
Y893000D01*
X872000Y699000D02*
X927000D01*
X712000D02*
X767000D01*
X959000Y948000D02*
Y972000D01*
X1029000Y878000D02*
Y902000D01*
X959000Y878000D02*
Y902000D01*
X952000Y230000D02*
X954000Y232000D01*
X934000Y230000D02*
X952000D01*
X1186000Y626000D02*
X1194000D01*
X1185000D02*
X1186000D01*
X959500Y232000D02*
X960000Y231500D01*
X954000Y232000D02*
X959500D01*
X969500Y193500D02*
Y208500D01*
Y193500D02*
X971000Y192000D01*
X971000Y192000D02*
X971000Y192000D01*
X971000Y182000D02*
Y192000D01*
X959000Y170000D02*
X971000Y182000D01*
X939000Y170000D02*
X959000D01*
X513250Y176350D02*
X513600Y176000D01*
X526000D01*
X679999Y107999D02*
Y135998D01*
X650000Y80000D02*
X650000Y80000D01*
Y55000D02*
Y80000D01*
Y55000D02*
X653000Y52000D01*
X660000D01*
X659999Y51999D02*
X660000Y52000D01*
X659999Y51999D02*
Y51999D01*
X633000Y51000D02*
X640000D01*
X630000Y54000D02*
Y80000D01*
Y54000D02*
X633000Y51000D01*
X639999Y51001D02*
X640000Y51000D01*
X639999Y51001D02*
Y51999D01*
X679999D02*
Y79998D01*
X620000Y24002D02*
Y52000D01*
X600000Y24002D02*
Y52000D01*
X579999Y24001D02*
Y51999D01*
X559998Y24000D02*
Y51998D01*
X539997Y23999D02*
Y51998D01*
X281000Y191000D02*
X304000D01*
X315000Y154000D02*
Y180000D01*
X275000Y114000D02*
X315000Y154000D01*
X275000Y55000D02*
Y114000D01*
X306000Y153000D02*
Y177000D01*
X269600Y116600D02*
X306000Y153000D01*
X269600Y45400D02*
Y116600D01*
X315000Y15000D02*
X742000D01*
X275000Y55000D02*
X315000Y15000D01*
X815000Y65000D02*
Y95000D01*
X755000Y5000D02*
X815000Y65000D01*
X295000Y5000D02*
X755000D01*
X264000Y36000D02*
X295000Y5000D01*
X264000Y36000D02*
Y119000D01*
X295000Y150000D01*
Y161000D01*
X291000Y165000D02*
X295000Y161000D01*
X298250Y184750D02*
X306000Y177000D01*
X281000Y184750D02*
X298250D01*
X803000Y63000D02*
Y95000D01*
X750000Y10000D02*
X803000Y63000D01*
X305000Y10000D02*
X750000D01*
X269600Y45400D02*
X305000Y10000D01*
X742000Y15000D02*
X790000Y63000D01*
Y95000D01*
X304000Y191000D02*
X315000Y180000D01*
X281000Y191000D02*
Y191250D01*
X282000Y165000D02*
X291000D01*
X281750Y165250D02*
X282000Y165000D01*
X281000Y165250D02*
X281750D01*
X1216000Y662400D02*
X1216350Y662750D01*
X1216000Y644000D02*
Y662400D01*
Y642000D02*
Y644000D01*
Y642000D02*
X1222000Y636000D01*
Y626000D02*
Y636000D01*
X1210000Y626000D02*
X1222000D01*
X1196000Y610000D02*
X1206000D01*
X1196000Y610000D02*
X1196000Y610000D01*
X1186000Y644000D02*
X1186000Y644000D01*
X1196000D01*
X1229000Y666000D02*
Y675000D01*
X1229000Y675000D01*
X1229050Y717250D02*
Y727950D01*
X1224000Y733000D02*
X1229050Y727950D01*
X1161000Y733000D02*
X1224000D01*
X1142000Y714000D02*
X1161000Y733000D01*
X1142000Y685000D02*
Y714000D01*
X1203650Y717250D02*
X1216350D01*
X1173000Y685000D02*
X1196000D01*
X1204000Y677000D01*
Y662750D02*
Y677000D01*
X1204000Y662750D02*
X1204000Y662750D01*
X1203650Y662750D02*
X1204000D01*
X1173000Y665000D02*
X1190950D01*
Y662750D02*
Y665000D01*
X1158000D02*
X1173000D01*
X1158000Y685000D02*
X1173000D01*
X1175000Y717250D02*
X1190950D01*
X1166000Y717000D02*
X1175000D01*
X1166000Y717000D02*
X1166000Y717000D01*
X1166000Y701000D02*
X1166000Y701000D01*
X1175000D01*
X872000Y683000D02*
X926000D01*
X712000D02*
X766000D01*
X1127000Y655000D02*
Y665000D01*
X1111000Y661000D02*
Y669000D01*
X1238000Y613000D02*
Y626000D01*
X1235000Y610000D02*
X1238000Y613000D01*
X1226000Y610000D02*
X1235000D01*
X1226000D02*
X1227500Y608500D01*
Y593500D02*
Y608500D01*
X1227000Y574000D02*
X1227500Y574500D01*
X1227000Y569000D02*
Y574000D01*
X1224000Y566000D02*
X1227000Y569000D01*
X1224000Y560000D02*
Y566000D01*
X1204500Y576500D02*
Y584000D01*
Y576500D02*
X1208000Y573000D01*
Y560000D02*
Y573000D01*
X1208000Y560000D02*
X1208000D01*
X1224000Y550000D02*
Y560000D01*
X1161000Y943000D02*
Y952000D01*
Y943000D02*
Y943000D01*
X1229000Y920000D02*
X1229050Y919950D01*
Y905790D02*
Y919950D01*
Y893050D02*
Y905790D01*
X1224000Y888000D02*
X1229050Y893050D01*
X1216000Y963860D02*
X1216350Y964210D01*
X1216000Y952000D02*
Y963860D01*
X1207000Y943000D02*
X1216000Y952000D01*
X1175000Y943000D02*
X1207000D01*
X1175000Y927000D02*
X1175000D01*
X1060000Y911000D02*
Y923000D01*
X1025000Y911000D02*
Y923000D01*
X990000Y911000D02*
Y923000D01*
X955000Y911000D02*
Y923000D01*
X920000Y911000D02*
Y923000D01*
X885000Y911000D02*
Y923000D01*
X850000Y911000D02*
Y923000D01*
X815000Y911000D02*
Y923000D01*
X780000Y911000D02*
Y923000D01*
X1060000Y841000D02*
Y853000D01*
X1025000Y841000D02*
Y853000D01*
X990000Y841000D02*
Y853000D01*
X955000Y841000D02*
Y853000D01*
X920000Y841000D02*
Y853000D01*
X885000Y841000D02*
Y853000D01*
X850000Y841000D02*
Y853000D01*
X815000Y841000D02*
Y853000D01*
X780000Y841000D02*
Y853000D01*
X918500Y797000D02*
X951500D01*
X918500Y583000D02*
X951500D01*
X758500D02*
X791500D01*
X438500D02*
X471500D01*
X598500Y583000D02*
X625000D01*
X278500D02*
X305000D01*
X945000D02*
X951500D01*
X951500Y583000D01*
X785000Y583000D02*
X791500D01*
X791500Y583000D01*
X625000Y583000D02*
X631500D01*
X465000D02*
X471500D01*
X471500Y583000D01*
X305000Y583000D02*
X311500D01*
X945000Y797000D02*
X951500D01*
X951500Y797000D01*
X785000Y797000D02*
X791000D01*
X791000Y797000D01*
X625000Y797000D02*
X631500D01*
X631500Y797000D01*
X465000Y797000D02*
X471000D01*
X471000Y797000D01*
X305000Y797000D02*
X311000D01*
X311000Y797000D01*
X962000D02*
X962000Y797000D01*
X951500Y797000D02*
X952000Y797500D01*
X802000Y797000D02*
X802000Y797000D01*
X642000Y797000D02*
X642000Y797000D01*
X832000Y165000D02*
X844000D01*
X826000Y159000D02*
X832000Y165000D01*
X826000Y117000D02*
Y159000D01*
X837000Y106000D02*
X865200D01*
X826000Y117000D02*
X837000Y106000D01*
X844000Y165000D02*
X844000Y165000D01*
X865200Y106000D02*
X879200Y120000D01*
X835000Y160000D02*
X844000D01*
X832000Y157000D02*
X835000Y160000D01*
X832000Y119000D02*
Y157000D01*
Y119000D02*
X839000Y112000D01*
X858500D01*
X866500Y120000D01*
X939000Y149000D02*
Y155000D01*
X930000Y140000D02*
X939000Y149000D01*
X930000Y120000D02*
Y140000D01*
Y160000D02*
X939000D01*
X917300Y147300D02*
X930000Y160000D01*
X917300Y120000D02*
Y147300D01*
X925000Y165000D02*
X939000D01*
X904600Y144600D02*
X925000Y165000D01*
X904600Y120000D02*
Y144600D01*
X841100Y120000D02*
Y145100D01*
X969000Y131000D02*
Y150000D01*
X503000Y207000D02*
Y219000D01*
Y191000D02*
Y207000D01*
X271000Y178000D02*
X282000D01*
X969000Y150000D02*
X974000Y155000D01*
X239000Y174000D02*
Y193000D01*
X267000Y152000D02*
X281000D01*
X874000Y140000D02*
Y150000D01*
X879000Y155000D01*
X888000D01*
X858000Y131000D02*
Y140000D01*
X858000Y140000D02*
X858000Y140000D01*
X874000Y131000D02*
Y140000D01*
X1029000Y948000D02*
Y949000D01*
X994000D02*
Y963000D01*
Y948000D02*
Y949000D01*
X889000Y878000D02*
Y879000D01*
X784000Y949000D02*
Y963000D01*
Y948000D02*
Y949000D01*
X281000Y152000D02*
Y152250D01*
X960000Y325000D02*
X1004000Y281000D01*
Y166000D02*
Y281000D01*
X955000Y315000D02*
X999000Y271000D01*
Y169000D02*
Y271000D01*
X950000Y305000D02*
X994000Y261000D01*
X983000Y175000D02*
Y262000D01*
X910000Y335000D02*
X983000Y262000D01*
X905000Y295000D02*
X909000Y291000D01*
Y166000D02*
Y291000D01*
X900000Y285000D02*
X904000Y281000D01*
Y169000D02*
Y281000D01*
X895000Y275000D02*
X899000Y271000D01*
Y172000D02*
Y271000D01*
X888000Y175000D02*
Y265000D01*
X888000Y265000D01*
X519998Y23999D02*
Y51998D01*
Y23999D02*
X519998Y23998D01*
X519996Y79998D02*
X519997Y79997D01*
X519996Y79998D02*
Y107996D01*
X539996Y79998D02*
X539997Y79997D01*
X539996Y79998D02*
Y107996D01*
X559997Y79998D02*
X559997Y79998D01*
X559997Y79998D02*
Y107997D01*
X579998Y79999D02*
X579998Y79998D01*
X579998Y79999D02*
Y107998D01*
X599998Y80000D02*
X599999Y79999D01*
X599998Y80000D02*
Y107998D01*
X619998Y80000D02*
X619999Y79999D01*
X619998Y80000D02*
Y107998D01*
X639999Y80001D02*
X640000Y80000D01*
X639999Y80001D02*
Y107999D01*
X659999Y80001D02*
Y107999D01*
Y80001D02*
X660000Y80000D01*
X503000Y191000D02*
X504950Y189050D01*
X482000Y204000D02*
Y207000D01*
X482000Y204000D02*
X482000Y204000D01*
X482000Y173000D02*
Y204000D01*
Y173000D02*
X504050Y150950D01*
X504950Y189050D02*
X513250D01*
X482000Y207000D02*
Y219000D01*
X504050Y150950D02*
X513250D01*
X260000Y194000D02*
X263000Y197000D01*
X260000Y182000D02*
Y194000D01*
Y182000D02*
X260000Y182000D01*
X267000D01*
X271000Y178000D01*
X281750Y178250D02*
X282000Y178000D01*
X281000Y178250D02*
X281750D01*
X239000Y174000D02*
X242000Y171000D01*
X281000Y171003D02*
Y171750D01*
X280997Y171000D02*
X281000Y171003D01*
X242000Y171000D02*
X280997D01*
X263000Y197000D02*
X280997D01*
X281000Y197003D01*
Y197750D01*
X844000Y148000D02*
Y155000D01*
X841100Y145100D02*
X844000Y148000D01*
X983000Y170000D02*
X992000D01*
X994000Y172000D01*
Y261000D01*
X995000Y165000D02*
X999000Y169000D01*
X983000Y165000D02*
X995000D01*
X983000Y160000D02*
X998000D01*
X1004000Y166000D01*
X903000Y160000D02*
X909000Y166000D01*
X888000Y160000D02*
X903000D01*
X888000Y165000D02*
X900000D01*
X904000Y169000D01*
X886000Y165000D02*
X888000D01*
X897000Y170000D02*
X899000Y172000D01*
X888000Y170000D02*
X897000D01*
X888000Y175000D02*
X888000D01*
X953000Y140000D02*
X953000Y140000D01*
X1070000Y911000D02*
Y923000D01*
X1080000Y911000D02*
Y923000D01*
X1035000Y911000D02*
Y923000D01*
X1045000Y911000D02*
Y923000D01*
X1000000Y911000D02*
Y923000D01*
X1010000Y911000D02*
Y923000D01*
X965000Y911000D02*
Y923000D01*
X975000Y911000D02*
Y923000D01*
X930000Y911000D02*
Y923000D01*
X940000Y911000D02*
Y923000D01*
X895000Y911000D02*
Y923000D01*
X905000Y911000D02*
Y923000D01*
X860000Y911000D02*
Y923000D01*
X870000Y911000D02*
Y923000D01*
X825000Y911000D02*
Y923000D01*
X835000Y911000D02*
Y923000D01*
X790000Y911000D02*
Y923000D01*
X800000Y911000D02*
Y923000D01*
X1070000Y841000D02*
Y853000D01*
X1080000Y841000D02*
Y853000D01*
X1035000Y841000D02*
Y853000D01*
X1045000Y841000D02*
Y853000D01*
X1000000Y841000D02*
Y853000D01*
X1010000Y841000D02*
Y853000D01*
X965000Y841000D02*
Y853000D01*
X975000Y841000D02*
Y853000D01*
X930000Y841000D02*
Y853000D01*
X940000Y841000D02*
Y853000D01*
X895000Y841000D02*
Y853000D01*
X905000Y841000D02*
Y853000D01*
X860000Y841000D02*
Y853000D01*
X870000Y841000D02*
Y853000D01*
X825000Y841000D02*
Y853000D01*
X835000Y841000D02*
Y853000D01*
X658000Y797000D02*
X659000D01*
X652500D02*
X658000D01*
X546000Y783000D02*
X546000D01*
X792000Y970000D02*
X792500Y970500D01*
X775000Y963000D02*
X784000D01*
X784000Y963000D01*
X955000Y935000D02*
Y937000D01*
X815000Y935000D02*
Y937000D01*
X850000Y935000D02*
Y937000D01*
X885000Y935000D02*
Y937000D01*
X920000Y935000D02*
Y937000D01*
X990000Y935000D02*
Y937000D01*
X1025000Y935000D02*
Y937000D01*
X1060000Y935000D02*
Y937000D01*
X815000Y934000D02*
Y935000D01*
X800000Y853000D02*
X800000Y853000D01*
Y841000D02*
Y853000D01*
X790000Y841000D02*
Y853000D01*
X386000Y597000D02*
X386000D01*
X364000D02*
X364000D01*
X420000Y769000D02*
X428000D01*
X443000Y752000D02*
Y760000D01*
X179000Y815000D02*
X190000D01*
X190000Y815000D01*
X101000Y719000D02*
X135000D01*
X145000Y729000D01*
X101000Y703000D02*
X136000D01*
X145000Y694000D01*
X199000Y223000D02*
X209000D01*
X91000Y703000D02*
X101000D01*
X82000D02*
X91000D01*
Y719000D02*
X101000D01*
X82000D02*
X91000D01*
X199000Y239000D02*
X209000D01*
X101000Y703000D02*
X101000Y703000D01*
X101000Y719000D02*
X101000Y719000D01*
X800000Y949000D02*
Y963000D01*
X835000Y902000D02*
X835000Y902000D01*
X819000Y878000D02*
X825000Y872000D01*
Y865000D02*
Y872000D01*
X835000Y879000D02*
X835000Y879000D01*
X835000Y865000D02*
Y879000D01*
X870000Y902000D02*
X870000Y902000D01*
X854000Y878000D02*
X860000Y872000D01*
Y865000D02*
Y872000D01*
X870000Y879000D02*
X870000Y879000D01*
X870000Y865000D02*
Y879000D01*
X905000Y902000D02*
X905000Y902000D01*
X889000Y878000D02*
X895000Y872000D01*
Y865000D02*
Y872000D01*
X905000Y879000D02*
X905000Y879000D01*
X905000Y865000D02*
Y879000D01*
X940000Y902000D02*
X940000Y902000D01*
X924000Y878000D02*
X930000Y872000D01*
Y865000D02*
Y872000D01*
X940000Y879000D02*
X940000Y879000D01*
X940000Y865000D02*
Y879000D01*
X975000Y902000D02*
X975000Y902000D01*
X959000Y878000D02*
X965000Y872000D01*
Y865000D02*
Y872000D01*
X975000Y879000D02*
X975000Y879000D01*
X975000Y865000D02*
Y879000D01*
X1010000Y902000D02*
X1010000Y902000D01*
X994000Y878000D02*
X1000000Y872000D01*
Y865000D02*
Y872000D01*
X1010000Y879000D02*
X1010000Y879000D01*
X1010000Y865000D02*
Y879000D01*
X1045000Y902000D02*
X1045000Y902000D01*
X1029000Y878000D02*
X1035000Y872000D01*
Y865000D02*
Y872000D01*
X1045000Y879000D02*
X1045000Y879000D01*
X1045000Y865000D02*
Y879000D01*
X1080000Y902000D02*
X1080000Y902000D01*
X1064000Y878000D02*
X1070000Y872000D01*
Y865000D02*
Y872000D01*
X1080000Y879000D02*
X1080000Y879000D01*
X1080000Y865000D02*
Y879000D01*
X1080000Y935000D02*
Y949000D01*
X1080000Y949000D01*
X1070000Y935000D02*
Y942000D01*
X1064000Y948000D02*
X1070000Y942000D01*
X1080000Y972000D02*
X1080000Y972000D01*
X1045000Y935000D02*
Y949000D01*
X1045000Y949000D01*
X1035000Y935000D02*
Y942000D01*
X1029000Y948000D02*
X1035000Y942000D01*
X1045000Y972000D02*
X1045000Y972000D01*
X1010000Y935000D02*
Y949000D01*
X1010000Y949000D01*
X1000000Y935000D02*
Y942000D01*
X994000Y948000D02*
X1000000Y942000D01*
X1010000Y963000D02*
Y972000D01*
X1010000Y972000D02*
X1010000Y972000D01*
Y949000D02*
Y963000D01*
X994000D02*
Y972000D01*
X975000Y935000D02*
Y949000D01*
X975000Y949000D01*
X965000Y935000D02*
Y942000D01*
X959000Y948000D02*
X965000Y942000D01*
X975000Y972000D02*
X975000Y972000D01*
X940000Y935000D02*
Y949000D01*
X940000Y949000D01*
X930000Y935000D02*
Y942000D01*
X924000Y948000D02*
X930000Y942000D01*
X940000Y972000D02*
X940000Y972000D01*
X905000Y935000D02*
Y949000D01*
X905000Y949000D01*
X895000Y935000D02*
Y942000D01*
X889000Y948000D02*
X895000Y942000D01*
X905000Y972000D02*
X905000Y972000D01*
X870000Y935000D02*
Y949000D01*
X870000Y949000D01*
X860000Y935000D02*
Y942000D01*
X854000Y948000D02*
X860000Y942000D01*
X870000Y972000D02*
X870000Y972000D01*
X835000Y935000D02*
Y949000D01*
X835000Y949000D01*
X825000Y935000D02*
Y942000D01*
X819000Y948000D02*
X825000Y942000D01*
X835000Y972000D02*
X835000Y972000D01*
X800000Y865000D02*
Y879000D01*
X800000Y879000D01*
X790000Y865000D02*
Y872000D01*
X784000Y878000D02*
X790000Y872000D01*
X800000Y893000D02*
Y902000D01*
X800000Y902000D02*
X800000Y902000D01*
Y879000D02*
Y893000D01*
X784000D02*
Y902000D01*
X784000Y948000D02*
X790000Y942000D01*
X935000Y717250D02*
Y718250D01*
Y707000D02*
Y717250D01*
X775000D02*
Y718250D01*
Y707000D02*
Y717250D01*
X615000D02*
Y718250D01*
Y707000D02*
Y717250D01*
X455000D02*
Y718250D01*
Y707000D02*
Y717250D01*
X790000Y935000D02*
Y942000D01*
X800000Y949000D02*
X800000Y949000D01*
X800000Y935000D02*
Y949000D01*
X707000Y644000D02*
X714000Y637000D01*
Y635000D02*
Y637000D01*
Y635000D02*
X721000Y628000D01*
X763000Y644000D02*
X769000D01*
X772000Y641000D01*
Y614000D02*
Y641000D01*
X764000Y597000D02*
Y611000D01*
X762300Y644700D02*
Y662750D01*
Y644700D02*
X763000Y644000D01*
X721000D02*
X735000D01*
X749000D01*
X718750Y662750D02*
X736900D01*
X707000Y651000D02*
X718750Y662750D01*
X707000Y644000D02*
Y651000D01*
Y620000D02*
Y628000D01*
X764000Y611000D02*
X769000D01*
X772000Y614000D01*
X731000Y583000D02*
X732000D01*
X737500D01*
X706000Y619000D02*
X707000Y620000D01*
X706000Y611000D02*
Y619000D01*
Y597000D02*
Y611000D01*
X735000Y628000D02*
X735000D01*
Y622000D02*
Y628000D01*
X733000Y620000D02*
X735000Y622000D01*
X707000Y620000D02*
X733000D01*
X749600Y644600D02*
Y662750D01*
X749000Y644000D02*
X749600Y644600D01*
X748000Y583000D02*
Y597000D01*
Y583000D02*
X748000Y583000D01*
X740000Y611000D02*
X748000D01*
X722000D02*
X730000D01*
X722000Y597000D02*
X722000Y597000D01*
X722000Y597000D02*
X730000D01*
X763000Y736000D02*
X769000D01*
X772000Y739000D01*
Y766000D01*
X763000Y752000D02*
Y760000D01*
X764000Y769000D02*
Y783000D01*
X762300Y717250D02*
Y735300D01*
X763000Y736000D01*
X721000D02*
X735000D01*
X749000D01*
X707000D02*
X714000Y743000D01*
Y745000D01*
X721000Y752000D01*
X718750Y717250D02*
X736900D01*
X707000Y729000D02*
X718750Y717250D01*
X707000Y729000D02*
Y736000D01*
Y752000D02*
Y760000D01*
X764000Y769000D02*
X769000D01*
X772000Y766000D01*
X731000Y797000D02*
X732000D01*
X737500D01*
X706000Y761000D02*
X707000Y760000D01*
X735000Y752000D02*
X735000D01*
Y758000D01*
X733000Y760000D02*
X735000Y758000D01*
X707000Y760000D02*
X733000D01*
X749600Y717250D02*
Y735400D01*
X749000Y736000D02*
X749600Y735400D01*
X748000Y783000D02*
Y797000D01*
X748000Y797000D01*
X740000Y769000D02*
X748000D01*
X722000D02*
X730000D01*
X722000Y783000D02*
X722000Y783000D01*
X722000Y783000D02*
X730000D01*
X781000Y644000D02*
X787000D01*
X778000Y641000D02*
X781000Y644000D01*
X778000Y614000D02*
Y641000D01*
X786000Y597000D02*
Y611000D01*
X787700Y644700D02*
Y662750D01*
X787000Y644000D02*
X787700Y644700D01*
X815000Y644000D02*
X829000D01*
X801000D02*
X815000D01*
X836000Y637000D02*
X843000Y644000D01*
X836000Y635000D02*
Y637000D01*
X829000Y628000D02*
X836000Y635000D01*
X813100Y662750D02*
X831250D01*
X843000Y651000D01*
Y644000D02*
Y651000D01*
Y620000D02*
Y628000D01*
X781000Y611000D02*
X786000D01*
X778000Y614000D02*
X781000Y611000D01*
X818000Y583000D02*
X819000D01*
X812500D02*
X818000D01*
X843000Y620000D02*
X844000Y619000D01*
Y611000D02*
Y619000D01*
Y597000D02*
Y611000D01*
X815000Y628000D02*
X815000D01*
X815000Y622000D02*
Y628000D01*
Y622000D02*
X817000Y620000D01*
X843000D01*
X802000Y611000D02*
X810000D01*
X820000D02*
X828000D01*
Y597000D02*
X828000Y597000D01*
X820000D02*
X828000D01*
X820000Y783000D02*
X828000D01*
X828000Y783000D02*
X828000Y783000D01*
X820000Y769000D02*
X828000D01*
X802000D02*
X810000D01*
X802000Y797000D02*
X802000Y797000D01*
Y783000D02*
Y797000D01*
X800400Y735400D02*
X801000Y736000D01*
X800400Y717250D02*
Y735400D01*
X817000Y760000D02*
X843000D01*
X815000Y758000D02*
X817000Y760000D01*
X815000Y752000D02*
Y758000D01*
Y752000D02*
X815000D01*
X843000Y760000D02*
X844000Y761000D01*
X812500Y797000D02*
X818000D01*
X819000D01*
X778000Y766000D02*
X781000Y769000D01*
X786000D01*
X843000Y752000D02*
Y760000D01*
Y729000D02*
Y736000D01*
X831250Y717250D02*
X843000Y729000D01*
X813100Y717250D02*
X831250D01*
X829000Y752000D02*
X836000Y745000D01*
Y743000D02*
Y745000D01*
Y743000D02*
X843000Y736000D01*
X801000D02*
X815000D01*
X829000D01*
X787000D02*
X787700Y735300D01*
Y717250D02*
Y735300D01*
X786000Y769000D02*
Y783000D01*
X787000Y752000D02*
Y760000D01*
X778000Y739000D02*
Y766000D01*
Y739000D02*
X781000Y736000D01*
X787000D01*
X800400Y644600D02*
X801000Y644000D01*
X800400Y644600D02*
Y662750D01*
X767000Y699000D02*
X775000Y707000D01*
X766000Y683000D02*
X775000Y674000D01*
Y664000D02*
Y674000D01*
X935000Y664000D02*
Y674000D01*
X926000Y683000D02*
X935000Y674000D01*
X927000Y699000D02*
X935000Y707000D01*
X941000Y736000D02*
X947000D01*
X938000Y739000D02*
X941000Y736000D01*
X938000Y739000D02*
Y766000D01*
X947000Y752000D02*
Y760000D01*
X946000Y769000D02*
Y783000D01*
X947700Y717250D02*
Y735300D01*
X947000Y736000D02*
X947700Y735300D01*
X1003000Y752000D02*
Y760000D01*
X941000Y769000D02*
X946000D01*
X938000Y766000D02*
X941000Y769000D01*
X978000Y797000D02*
X979000D01*
X972500D02*
X978000D01*
X1003000Y760000D02*
X1004000Y761000D01*
Y769000D01*
Y783000D01*
X975000Y752000D02*
X975000D01*
X975000D02*
Y758000D01*
X977000Y760000D01*
X1003000D01*
X962000Y783000D02*
Y797000D01*
X962000Y797000D02*
X962000Y797000D01*
Y769000D02*
X970000D01*
X980000D02*
X988000D01*
Y783000D02*
X988000Y783000D01*
X980000D02*
X988000D01*
X980000Y597000D02*
X988000D01*
X988000Y597000D02*
X988000Y597000D01*
X980000Y611000D02*
X988000D01*
X962000D02*
X970000D01*
X962000Y583000D02*
X962000Y583000D01*
Y597000D01*
X977000Y620000D02*
X1003000D01*
X975000Y622000D02*
X977000Y620000D01*
X975000Y622000D02*
Y628000D01*
X975000D01*
X1004000Y611000D02*
Y619000D01*
X1003000Y620000D02*
X1004000Y619000D01*
X972500Y583000D02*
X978000D01*
X979000D01*
X938000Y614000D02*
X941000Y611000D01*
X946000D01*
X1003000Y620000D02*
Y628000D01*
X947000Y644000D02*
X947700Y644700D01*
Y662750D01*
X946000Y597000D02*
Y611000D01*
X938000Y614000D02*
Y641000D01*
X941000Y644000D01*
X947000D01*
X882000Y783000D02*
X890000D01*
X882000D02*
X882000Y783000D01*
Y769000D02*
X890000D01*
X900000D02*
X908000D01*
Y797000D02*
X908000Y797000D01*
X908000Y783000D02*
Y797000D01*
X867000Y760000D02*
X893000D01*
X895000Y758000D01*
Y752000D02*
Y758000D01*
X895000Y752000D02*
X895000D01*
X866000Y761000D02*
X867000Y760000D01*
X892000Y797000D02*
X897500D01*
X891000D02*
X892000D01*
X929000Y769000D02*
X932000Y766000D01*
X924000Y769000D02*
X929000D01*
X867000Y752000D02*
Y760000D01*
X922300Y735300D02*
X923000Y736000D01*
X922300Y717250D02*
Y735300D01*
X924000Y769000D02*
Y783000D01*
X923000Y752000D02*
Y760000D01*
X932000Y739000D02*
Y766000D01*
X929000Y736000D02*
X932000Y739000D01*
X923000Y736000D02*
X929000D01*
X882000Y597000D02*
X890000D01*
X882000D02*
X882000Y597000D01*
Y611000D02*
X890000D01*
X900000D02*
X908000D01*
Y583000D02*
X908000Y583000D01*
X908000Y583000D02*
Y597000D01*
X867000Y620000D02*
X893000D01*
X895000Y622000D01*
Y628000D01*
X895000D02*
X895000D01*
X866000Y597000D02*
Y611000D01*
Y619000D01*
X867000Y620000D01*
X892000Y583000D02*
X897500D01*
X891000D02*
X892000D01*
X929000Y611000D02*
X932000Y614000D01*
X924000Y611000D02*
X929000D01*
X867000Y620000D02*
Y628000D01*
X922300Y644700D02*
X923000Y644000D01*
X922300Y644700D02*
Y662750D01*
X924000Y597000D02*
Y611000D01*
X932000Y614000D02*
Y641000D01*
X929000Y644000D02*
X932000Y641000D01*
X923000Y644000D02*
X929000D01*
X802000Y583000D02*
X802000Y583000D01*
Y597000D01*
X960400Y717250D02*
Y735400D01*
X909600Y717250D02*
Y735400D01*
X874000Y745000D02*
X881000Y752000D01*
X975000Y644000D02*
X989000D01*
X960400Y644600D02*
Y662750D01*
X895000Y644000D02*
X909000D01*
X867000Y729000D02*
X878750Y717250D01*
X996000Y637000D02*
X1003000Y644000D01*
X960400Y644600D02*
X961000Y644000D01*
X973100Y717250D02*
X991250D01*
X867000Y736000D02*
X874000Y743000D01*
X991250Y662750D02*
X1003000Y651000D01*
X874000Y635000D02*
X881000Y628000D01*
X867000Y651000D02*
X878750Y662750D01*
X991250Y717250D02*
X1003000Y729000D01*
X989000Y752000D02*
X996000Y745000D01*
X895000Y736000D02*
X909000D01*
X973100Y662750D02*
X991250D01*
X909000Y644000D02*
X909600Y644600D01*
X874000Y635000D02*
Y637000D01*
X1003000Y729000D02*
Y736000D01*
X996000Y743000D02*
X1003000Y736000D01*
X996000Y743000D02*
Y745000D01*
X874000Y743000D02*
Y745000D01*
X1003000Y644000D02*
Y651000D01*
X881000Y644000D02*
X895000D01*
X867000D02*
Y651000D01*
X960400Y735400D02*
X961000Y736000D01*
X975000D01*
X989000D01*
X881000D02*
X895000D01*
X989000Y628000D02*
X996000Y635000D01*
X909600Y644600D02*
Y662750D01*
X867000Y644000D02*
X874000Y637000D01*
X909000Y736000D02*
X909600Y735400D01*
X878750Y717250D02*
X896900D01*
X961000Y644000D02*
X975000D01*
X878750Y662750D02*
X896900D01*
X867000Y729000D02*
Y736000D01*
X996000Y635000D02*
Y637000D01*
X676000Y635000D02*
Y637000D01*
X547000Y729000D02*
Y736000D01*
X558750Y662750D02*
X576900D01*
X641000Y644000D02*
X655000D01*
X558750Y717250D02*
X576900D01*
X589000Y736000D02*
X589600Y735400D01*
X547000Y644000D02*
X554000Y637000D01*
X589600Y644600D02*
Y662750D01*
X669000Y628000D02*
X676000Y635000D01*
X561000Y736000D02*
X575000D01*
X655000D02*
X669000D01*
X641000D02*
X655000D01*
X640400Y735400D02*
X641000Y736000D01*
X547000Y644000D02*
Y651000D01*
X561000Y644000D02*
X575000D01*
X683000D02*
Y651000D01*
X554000Y743000D02*
Y745000D01*
X676000Y743000D02*
Y745000D01*
Y743000D02*
X683000Y736000D01*
Y729000D02*
Y736000D01*
X554000Y635000D02*
Y637000D01*
X589000Y644000D02*
X589600Y644600D01*
X653100Y662750D02*
X671250D01*
X575000Y736000D02*
X589000D01*
X669000Y752000D02*
X676000Y745000D01*
X671250Y717250D02*
X683000Y729000D01*
X547000Y651000D02*
X558750Y662750D01*
X554000Y635000D02*
X561000Y628000D01*
X671250Y662750D02*
X683000Y651000D01*
X547000Y736000D02*
X554000Y743000D01*
X653100Y717250D02*
X671250D01*
X640400Y644600D02*
X641000Y644000D01*
X676000Y637000D02*
X683000Y644000D01*
X547000Y729000D02*
X558750Y717250D01*
X575000Y644000D02*
X589000D01*
X640400Y644600D02*
Y662750D01*
X655000Y644000D02*
X669000D01*
X554000Y745000D02*
X561000Y752000D01*
X589600Y717250D02*
Y735400D01*
X640400Y717250D02*
Y735400D01*
X482000Y583000D02*
Y597000D01*
X482000Y583000D02*
X482000Y583000D01*
X603000Y644000D02*
X609000D01*
X612000Y641000D01*
Y614000D02*
Y641000D01*
X604000Y597000D02*
Y611000D01*
X602300Y644700D02*
Y662750D01*
Y644700D02*
X603000Y644000D01*
X547000Y620000D02*
Y628000D01*
X604000Y611000D02*
X609000D01*
X612000Y614000D01*
X571000Y583000D02*
X572000D01*
X577500D01*
X546000Y619000D02*
X547000Y620000D01*
X546000Y611000D02*
Y619000D01*
Y597000D02*
Y611000D01*
X575000Y628000D02*
X575000D01*
Y622000D02*
Y628000D01*
X573000Y620000D02*
X575000Y622000D01*
X547000Y620000D02*
X573000D01*
X588000Y583000D02*
Y597000D01*
Y583000D02*
X588000Y583000D01*
X580000Y611000D02*
X588000D01*
X562000D02*
X570000D01*
X562000Y597000D02*
X562000Y597000D01*
X562000Y597000D02*
X570000D01*
X603000Y736000D02*
X609000D01*
X612000Y739000D01*
Y766000D01*
X603000Y752000D02*
Y760000D01*
X604000Y769000D02*
Y783000D01*
X602300Y717250D02*
Y735300D01*
X603000Y736000D01*
X547000Y752000D02*
Y760000D01*
X604000Y769000D02*
X609000D01*
X612000Y766000D01*
X571000Y797000D02*
X572000D01*
X577500D01*
X546000Y761000D02*
X547000Y760000D01*
X575000Y752000D02*
X575000D01*
Y758000D01*
X573000Y760000D02*
X575000Y758000D01*
X547000Y760000D02*
X573000D01*
X588000Y783000D02*
Y797000D01*
X588000Y797000D01*
X580000Y769000D02*
X588000D01*
X562000D02*
X570000D01*
X562000Y783000D02*
X562000Y783000D01*
X562000Y783000D02*
X570000D01*
X621000Y644000D02*
X627000D01*
X618000Y641000D02*
X621000Y644000D01*
X618000Y614000D02*
Y641000D01*
X626000Y597000D02*
Y611000D01*
X627700Y644700D02*
Y662750D01*
X627000Y644000D02*
X627700Y644700D01*
X683000Y620000D02*
Y628000D01*
X621000Y611000D02*
X626000D01*
X618000Y614000D02*
X621000Y611000D01*
X658000Y583000D02*
X659000D01*
X652500D02*
X658000D01*
X683000Y620000D02*
X684000Y619000D01*
Y611000D02*
Y619000D01*
Y597000D02*
Y611000D01*
X655000Y628000D02*
X655000D01*
X655000Y622000D02*
Y628000D01*
Y622000D02*
X657000Y620000D01*
X683000D01*
X642000Y583000D02*
Y597000D01*
X642000Y583000D02*
X642000Y583000D01*
Y611000D02*
X650000D01*
X660000D02*
X668000D01*
Y597000D02*
X668000Y597000D01*
X660000D02*
X668000D01*
X660000Y783000D02*
X668000D01*
X668000Y783000D02*
X668000Y783000D01*
X660000Y769000D02*
X668000D01*
X642000D02*
X650000D01*
X642000Y797000D02*
X642000Y797000D01*
Y783000D02*
Y797000D01*
X657000Y760000D02*
X683000D01*
X655000Y758000D02*
X657000Y760000D01*
X655000Y752000D02*
Y758000D01*
Y752000D02*
X655000D01*
X683000Y760000D02*
X684000Y761000D01*
X618000Y766000D02*
X621000Y769000D01*
X626000D01*
X683000Y752000D02*
Y760000D01*
X627000Y736000D02*
X627700Y735300D01*
Y717250D02*
Y735300D01*
X626000Y769000D02*
Y783000D01*
X627000Y752000D02*
Y760000D01*
X618000Y739000D02*
Y766000D01*
Y739000D02*
X621000Y736000D01*
X627000D01*
X552000Y699000D02*
X561000D01*
X607000D01*
X615000Y707000D01*
X552000Y683000D02*
X561000D01*
X606000D01*
X615000Y674000D01*
Y664000D02*
Y674000D01*
X455000Y664000D02*
Y674000D01*
X446000Y683000D02*
X455000Y674000D01*
X401000Y683000D02*
X446000D01*
X392000D02*
X401000D01*
X447000Y699000D02*
X455000Y707000D01*
X401000Y699000D02*
X447000D01*
X392000D02*
X401000D01*
X232000Y698000D02*
X241000D01*
X287000D01*
X295000Y706000D01*
Y717250D01*
X232000Y682000D02*
X241000D01*
X286000D01*
X295000Y673000D01*
Y663000D02*
Y673000D01*
X295000Y663000D02*
X295000Y663000D01*
X295000Y662750D02*
Y663000D01*
X480400Y644600D02*
Y662750D01*
Y644600D02*
X481000Y644000D01*
X461000Y736000D02*
X467000D01*
X458000Y739000D02*
X461000Y736000D01*
X458000Y739000D02*
Y766000D01*
X467000Y752000D02*
Y760000D01*
X466000Y769000D02*
Y783000D01*
X467700Y717250D02*
Y735300D01*
X467000Y736000D02*
X467700Y735300D01*
X495000Y736000D02*
X509000D01*
X481000D02*
X495000D01*
X516000Y743000D02*
X523000Y736000D01*
X516000Y743000D02*
Y745000D01*
X509000Y752000D02*
X516000Y745000D01*
X493100Y717250D02*
X511250D01*
X523000Y729000D01*
Y736000D01*
Y752000D02*
Y760000D01*
X461000Y769000D02*
X466000D01*
X458000Y766000D02*
X461000Y769000D01*
X498000Y797000D02*
X499000D01*
X492500D02*
X498000D01*
X523000Y760000D02*
X524000Y761000D01*
X495000Y752000D02*
X495000D01*
X495000D02*
Y758000D01*
X497000Y760000D01*
X523000D01*
X480400Y717250D02*
Y735400D01*
X481000Y736000D01*
X482000Y783000D02*
Y797000D01*
X482000Y797000D02*
X482000Y797000D01*
Y769000D02*
X490000D01*
X500000D02*
X508000D01*
Y783000D02*
X508000Y783000D01*
X500000D02*
X508000D01*
X500000Y597000D02*
X508000D01*
X508000Y597000D02*
X508000Y597000D01*
X500000Y611000D02*
X508000D01*
X482000D02*
X490000D01*
X497000Y620000D02*
X523000D01*
X495000Y622000D02*
X497000Y620000D01*
X495000Y622000D02*
Y628000D01*
X495000D01*
X524000Y597000D02*
Y611000D01*
Y619000D01*
X523000Y620000D02*
X524000Y619000D01*
X492500Y583000D02*
X498000D01*
X499000D01*
X458000Y614000D02*
X461000Y611000D01*
X466000D01*
X523000Y620000D02*
Y628000D01*
Y644000D02*
Y651000D01*
X511250Y662750D02*
X523000Y651000D01*
X493100Y662750D02*
X511250D01*
X509000Y628000D02*
X516000Y635000D01*
Y637000D01*
X523000Y644000D01*
X481000D02*
X495000D01*
X509000D01*
X467000D02*
X467700Y644700D01*
Y662750D01*
X466000Y597000D02*
Y611000D01*
X458000Y614000D02*
Y641000D01*
X461000Y644000D01*
X467000D01*
X402000Y783000D02*
X410000D01*
X402000D02*
X402000Y783000D01*
Y769000D02*
X410000D01*
X428000Y797000D02*
X428000Y797000D01*
X428000Y783000D02*
Y797000D01*
X429000Y736000D02*
X429600Y735400D01*
Y717250D02*
Y735400D01*
X387000Y760000D02*
X413000D01*
X415000Y758000D01*
Y752000D02*
Y758000D01*
X415000Y752000D02*
X415000D01*
X386000Y761000D02*
X387000Y760000D01*
X412000Y797000D02*
X417500D01*
X411000D02*
X412000D01*
X449000Y769000D02*
X452000Y766000D01*
X444000Y769000D02*
X449000D01*
X387000Y752000D02*
Y760000D01*
Y729000D02*
Y736000D01*
Y729000D02*
X398750Y717250D01*
X416900D01*
X394000Y745000D02*
X401000Y752000D01*
X394000Y743000D02*
Y745000D01*
X387000Y736000D02*
X394000Y743000D01*
X415000Y736000D02*
X429000D01*
X401000D02*
X415000D01*
X442300Y735300D02*
X443000Y736000D01*
X442300Y717250D02*
Y735300D01*
X444000Y769000D02*
Y783000D01*
X452000Y739000D02*
Y766000D01*
X449000Y736000D02*
X452000Y739000D01*
X443000Y736000D02*
X449000D01*
X402000Y597000D02*
X410000D01*
X402000D02*
X402000Y597000D01*
Y611000D02*
X410000D01*
X420000D02*
X428000D01*
Y583000D02*
X428000Y583000D01*
X428000Y583000D02*
Y597000D01*
X429000Y644000D02*
X429600Y644600D01*
Y662750D01*
X387000Y620000D02*
X413000D01*
X415000Y622000D01*
Y628000D01*
X415000D02*
X415000D01*
X386000Y597000D02*
Y611000D01*
Y619000D01*
X387000Y620000D01*
X412000Y583000D02*
X417500D01*
X411000D02*
X412000D01*
X449000Y611000D02*
X452000Y614000D01*
X444000Y611000D02*
X449000D01*
X387000Y620000D02*
Y628000D01*
Y644000D02*
Y651000D01*
X398750Y662750D01*
X416900D01*
X415000Y644000D02*
X429000D01*
X401000D02*
X415000D01*
X442300Y644700D02*
X443000Y644000D01*
X442300Y644700D02*
Y662750D01*
X444000Y597000D02*
Y611000D01*
X452000Y614000D02*
Y641000D01*
X449000Y644000D02*
X452000Y641000D01*
X443000Y644000D02*
X449000D01*
X394000Y635000D02*
X401000Y628000D01*
X394000Y635000D02*
Y637000D01*
X387000Y644000D02*
X394000Y637000D01*
X227000Y644000D02*
X234000Y637000D01*
Y635000D02*
Y637000D01*
Y635000D02*
X241000Y628000D01*
X283000Y644000D02*
X289000D01*
X292000Y641000D01*
Y614000D02*
Y641000D01*
X284000Y597000D02*
Y611000D01*
X282300Y644700D02*
Y662750D01*
Y644700D02*
X283000Y644000D01*
X241000D02*
X255000D01*
X269000D01*
X238750Y662750D02*
X256900D01*
X227000Y651000D02*
X238750Y662750D01*
X227000Y644000D02*
Y651000D01*
Y620000D02*
Y628000D01*
X284000Y611000D02*
X289000D01*
X292000Y614000D01*
X251000Y583000D02*
X252000D01*
X257500D01*
X226000Y619000D02*
X227000Y620000D01*
X226000Y611000D02*
Y619000D01*
Y597000D02*
Y611000D01*
X255000Y628000D02*
X255000D01*
Y622000D02*
Y628000D01*
X253000Y620000D02*
X255000Y622000D01*
X227000Y620000D02*
X253000D01*
X269600Y644600D02*
Y662750D01*
X269000Y644000D02*
X269600Y644600D01*
X268000Y583000D02*
Y597000D01*
Y583000D02*
X268000Y583000D01*
X260000Y611000D02*
X268000D01*
X242000D02*
X250000D01*
X242000Y597000D02*
X242000Y597000D01*
X242000Y597000D02*
X250000D01*
X283000Y736000D02*
X289000D01*
X292000Y739000D01*
Y766000D01*
X283000Y752000D02*
Y760000D01*
X284000Y769000D02*
Y783000D01*
X282300Y717250D02*
Y735300D01*
X283000Y736000D01*
X241000D02*
X255000D01*
X269000D01*
X227000D02*
X234000Y743000D01*
Y745000D01*
X241000Y752000D01*
X238750Y717250D02*
X256900D01*
X227000Y729000D02*
X238750Y717250D01*
X227000Y729000D02*
Y736000D01*
Y752000D02*
Y760000D01*
X284000Y769000D02*
X289000D01*
X292000Y766000D01*
X251000Y797000D02*
X252000D01*
X257500D01*
X226000Y761000D02*
X227000Y760000D01*
X255000Y752000D02*
X255000D01*
Y758000D01*
X253000Y760000D02*
X255000Y758000D01*
X227000Y760000D02*
X253000D01*
X269600Y717250D02*
Y735400D01*
X269000Y736000D02*
X269600Y735400D01*
X268000Y783000D02*
Y797000D01*
X260000Y769000D02*
X268000D01*
X242000D02*
X250000D01*
X242000Y783000D02*
X242000Y783000D01*
X242000Y783000D02*
X250000D01*
X301000Y644000D02*
X307000D01*
X298000Y641000D02*
X301000Y644000D01*
X298000Y614000D02*
Y641000D01*
X306000Y597000D02*
Y611000D01*
X307700Y644700D02*
Y662750D01*
X307000Y644000D02*
X307700Y644700D01*
X335000Y644000D02*
X349000D01*
X321000D02*
X335000D01*
X356000Y637000D02*
X363000Y644000D01*
X356000Y635000D02*
Y637000D01*
X349000Y628000D02*
X356000Y635000D01*
X333100Y662750D02*
X351250D01*
X363000Y651000D01*
Y644000D02*
Y651000D01*
Y620000D02*
Y628000D01*
X301000Y611000D02*
X306000D01*
X298000Y614000D02*
X301000Y611000D01*
X338000Y583000D02*
X339000D01*
X332500D02*
X338000D01*
X363000Y620000D02*
X364000Y619000D01*
Y611000D02*
Y619000D01*
Y597000D02*
Y611000D01*
X335000Y628000D02*
X335000D01*
X335000Y622000D02*
Y628000D01*
Y622000D02*
X337000Y620000D01*
X363000D01*
X320400Y644600D02*
Y662750D01*
Y644600D02*
X321000Y644000D01*
X322000Y583000D02*
Y597000D01*
X322000Y583000D02*
X322000Y583000D01*
Y611000D02*
X330000D01*
X340000D02*
X348000D01*
Y597000D02*
X348000Y597000D01*
X340000D02*
X348000D01*
X340000Y783000D02*
X348000D01*
X348000Y783000D02*
X348000Y783000D01*
X340000Y769000D02*
X348000D01*
X322000D02*
X330000D01*
X322000Y797000D02*
X322000Y797000D01*
Y783000D02*
Y797000D01*
X320400Y735400D02*
X321000Y736000D01*
X320400Y717250D02*
Y735400D01*
X337000Y760000D02*
X363000D01*
X335000Y758000D02*
X337000Y760000D01*
X335000Y752000D02*
Y758000D01*
Y752000D02*
X335000D01*
X363000Y760000D02*
X364000Y761000D01*
X332500Y797000D02*
X338000D01*
X339000D01*
X298000Y766000D02*
X301000Y769000D01*
X306000D01*
X363000Y752000D02*
Y760000D01*
Y729000D02*
Y736000D01*
X351250Y717250D02*
X363000Y729000D01*
X333100Y717250D02*
X351250D01*
X349000Y752000D02*
X356000Y745000D01*
Y743000D02*
Y745000D01*
Y743000D02*
X363000Y736000D01*
X321000D02*
X335000D01*
X349000D01*
X307000D02*
X307700Y735300D01*
Y717250D02*
Y735300D01*
X306000Y769000D02*
Y783000D01*
X307000Y752000D02*
Y760000D01*
X298000Y739000D02*
Y766000D01*
Y739000D02*
X301000Y736000D01*
X307000D01*
X183000Y258250D02*
Y263000D01*
X200000Y345000D02*
X207000Y338000D01*
X80000Y345000D02*
X200000D01*
X44000Y381000D02*
X80000Y345000D01*
X200000Y825000D02*
X207000Y818000D01*
X80000Y825000D02*
X200000D01*
X44000Y861000D02*
X80000Y825000D01*
X172000Y127000D02*
X183000D01*
X100000D02*
X111000D01*
X118000Y335000D02*
X129000D01*
X207000Y287000D02*
Y338000D01*
X199000Y279000D02*
X207000Y287000D01*
X190000Y335000D02*
X201000D01*
X183000Y258250D02*
X183100D01*
X170400D02*
X183000D01*
X207000Y767000D02*
Y818000D01*
X199000Y759000D02*
X207000Y767000D01*
X118000Y815000D02*
X129000D01*
X172000Y607000D02*
X183000D01*
X100000D02*
X111000D01*
X974000Y155000D02*
X983000D01*
X190000Y279000D02*
X190000D01*
X199000D01*
X44000Y381000D02*
Y411000D01*
X190100Y183000D02*
Y192000D01*
X167000Y102000D02*
X202000Y137000D01*
X44000Y81000D02*
X65000Y102000D01*
X44000Y51000D02*
Y81000D01*
X65000Y102000D02*
X167000D01*
Y582000D02*
X202000Y617000D01*
X65000Y582000D02*
X167000D01*
X44000Y531000D02*
Y561000D01*
X65000Y582000D01*
X199000Y183000D02*
X202000Y180000D01*
Y137000D02*
Y180000D01*
X199000Y663000D02*
X202000Y660000D01*
Y617000D02*
Y660000D01*
X190100Y750000D02*
Y759000D01*
X199000D01*
X190000D02*
X190100D01*
X44000Y861000D02*
Y891000D01*
Y771000D02*
X78000D01*
X90000Y759000D01*
X100000D01*
X90000Y279000D02*
X100000D01*
X78000Y291000D02*
X90000Y279000D01*
X44000Y291000D02*
X78000D01*
X119350Y203750D02*
X119600Y204000D01*
X107000Y203750D02*
X119350D01*
X106900D02*
X107000D01*
Y199000D02*
Y203750D01*
X78000Y171000D02*
X90000Y183000D01*
X44000Y171000D02*
X78000D01*
X119350Y683750D02*
X119600Y684000D01*
X107000Y679000D02*
Y683750D01*
X44000Y650000D02*
X77000D01*
X90000Y663000D01*
X107000Y683750D02*
X119350D01*
X106900D02*
X107000D01*
X99900Y663000D02*
X100000D01*
X90000D02*
X99900D01*
X190100D02*
X199000D01*
X90000Y183000D02*
X100000D01*
X190100D02*
X199000D01*
X190000D02*
X190100D01*
X100000Y750000D02*
X107000Y743000D01*
X100000Y750000D02*
Y759000D01*
X183100Y738250D02*
Y743000D01*
X190100Y750000D01*
X183100Y679000D02*
Y683750D01*
X190100Y663000D02*
Y672000D01*
X183100Y679000D02*
X190100Y672000D01*
X106900Y679000D02*
Y683750D01*
X99900Y663000D02*
Y672000D01*
X106900Y679000D01*
X119600Y683750D02*
Y684000D01*
X106900Y738250D02*
X107000D01*
X119600D01*
X107000D02*
Y743000D01*
X170400Y738250D02*
X183100D01*
X170400Y683750D02*
X183100D01*
X157700Y673700D02*
Y683750D01*
X154000Y670000D02*
X157700Y673700D01*
X154000Y663000D02*
Y670000D01*
X154000Y663000D02*
X154000Y663000D01*
X154000Y663000D02*
X172000D01*
X118000D02*
X136000D01*
X136000Y663000D02*
X136000Y663000D01*
X136000Y663000D02*
Y670000D01*
X132300Y673700D02*
X136000Y670000D01*
X132300Y673700D02*
Y683750D01*
X118000Y759000D02*
X136000D01*
X136000Y759000D02*
X136000Y759000D01*
X136000Y752000D02*
Y759000D01*
X132300Y748300D02*
X136000Y752000D01*
X132300Y738250D02*
Y748300D01*
X154000Y759000D02*
X172000D01*
X154000D02*
X154000Y759000D01*
Y752000D02*
Y759000D01*
Y752000D02*
X157700Y748300D01*
Y738250D02*
Y748300D01*
X100000Y663000D02*
Y672000D01*
X107000Y679000D01*
X136000Y633000D02*
Y643000D01*
Y633000D02*
X136000Y633000D01*
X154000Y633000D02*
X154000Y633000D01*
X154000Y633000D02*
Y643000D01*
X154000Y789000D02*
X154000Y789000D01*
Y779000D02*
Y789000D01*
X136000Y789000D02*
X136000Y789000D01*
Y779000D02*
Y789000D01*
X91000Y703000D02*
X101000D01*
X91000Y719000D02*
X101000D01*
X145000Y729000D02*
Y738250D01*
Y683750D02*
Y694000D01*
X100000Y627000D02*
Y643000D01*
X118000D01*
X172000Y627000D02*
Y643000D01*
X190000D01*
X100000Y779000D02*
X118000D01*
Y795000D01*
X172000Y779000D02*
X190000D01*
Y795000D01*
Y299000D02*
Y315000D01*
X172000Y299000D02*
X190000D01*
X118000D02*
Y315000D01*
X100000Y299000D02*
X118000D01*
X172000Y163000D02*
X190000D01*
X172000Y147000D02*
Y163000D01*
X100000D02*
X118000D01*
X100000Y147000D02*
Y163000D01*
X154000Y223000D02*
X199000D01*
X145000Y214000D02*
X154000Y223000D01*
X145000Y203750D02*
Y214000D01*
X155000Y239000D02*
X199000D01*
X145000Y249000D02*
X155000Y239000D01*
X145000Y249000D02*
Y258250D01*
X136000Y299000D02*
Y309000D01*
X136000Y309000D02*
X136000Y309000D01*
X154000Y299000D02*
Y309000D01*
X154000Y309000D02*
X154000Y309000D01*
X154000Y153000D02*
Y163000D01*
Y153000D02*
X154000Y153000D01*
X136000Y153000D02*
X136000Y153000D01*
X136000Y153000D02*
Y163000D01*
X100000Y192000D02*
X107000Y199000D01*
X100000Y183000D02*
Y192000D01*
X157700Y258250D02*
Y268300D01*
X154000Y272000D02*
X157700Y268300D01*
X154000Y272000D02*
Y279000D01*
X154000Y279000D02*
X154000Y279000D01*
X154000Y279000D02*
X172000D01*
X132300Y258250D02*
Y268300D01*
X136000Y272000D01*
Y279000D01*
X136000Y279000D01*
X118000D02*
X136000D01*
X183000Y263000D02*
X190000Y270000D01*
Y279000D01*
X132300Y193700D02*
Y203750D01*
Y193700D02*
X136000Y190000D01*
Y183000D02*
Y190000D01*
Y183000D02*
X136000Y183000D01*
X118000D02*
X136000D01*
X154000D02*
X172000D01*
X154000D02*
X154000Y183000D01*
Y190000D01*
X157700Y193700D01*
Y203750D01*
X170400D02*
X183100D01*
X107000Y258250D02*
Y263000D01*
Y258250D02*
X119600D01*
X106900D02*
X107000D01*
X119600Y203750D02*
Y204000D01*
X183100Y199000D02*
X190100Y192000D01*
X183100Y199000D02*
Y203750D01*
X100000Y270000D02*
Y279000D01*
Y270000D02*
X107000Y263000D01*
X0Y0D02*
X1332000D01*
Y1000000D01*
X0D02*
X1332000D01*
X0Y0D02*
Y1000000D01*
D12*
X1022000Y96000D02*
Y97000D01*
X585000Y860000D02*
X700000D01*
X524000Y799000D02*
X585000Y860000D01*
X524000Y783000D02*
Y799000D01*
X590000Y855000D02*
X705000D01*
X532000Y797000D02*
X590000Y855000D01*
X532000Y599000D02*
Y797000D01*
X595000Y850000D02*
X760000D01*
X538000Y793000D02*
X595000Y850000D01*
X538000Y599000D02*
Y793000D01*
X601000Y845000D02*
X762000D01*
X546000Y790000D02*
X601000Y845000D01*
X546000Y783000D02*
Y790000D01*
Y769000D02*
Y783000D01*
Y761000D02*
Y769000D01*
Y753000D02*
Y761000D01*
X730000Y880000D02*
Y925000D01*
X705000Y855000D02*
X730000Y880000D01*
Y925000D02*
X781000Y976000D01*
X720000Y880000D02*
Y925000D01*
X700000Y860000D02*
X720000Y880000D01*
Y925000D02*
X774000Y979000D01*
X524000Y769000D02*
Y783000D01*
X774000Y979000D02*
X836000D01*
X1053000Y944000D02*
Y972000D01*
X1028000Y997000D02*
X1053000Y972000D01*
X764000Y997000D02*
X1028000Y997000D01*
X1018000Y944000D02*
Y972000D01*
X996000Y994000D02*
X1018000Y972000D01*
X764000Y994000D02*
X996000Y994000D01*
X983000Y944000D02*
Y972000D01*
X964000Y991000D02*
X983000Y972000D01*
X764000Y991000D02*
X964000Y991000D01*
X948000Y944000D02*
Y972000D01*
X932000Y988000D02*
X948000Y972000D01*
X764000Y988000D02*
X932000Y988000D01*
X913000Y944000D02*
Y973000D01*
X901000Y985000D02*
X913000Y973000D01*
X764000Y985000D02*
X901000Y985000D01*
X878000Y944000D02*
Y972000D01*
X868000Y982000D02*
X878000Y972000D01*
X767000Y982000D02*
X868000D01*
X524000Y761000D02*
Y769000D01*
Y753000D02*
Y761000D01*
X843000Y944000D02*
Y972000D01*
X836000Y979000D02*
X843000Y972000D01*
X808000Y944000D02*
Y970000D01*
X802000Y976000D02*
X808000Y970000D01*
X781000Y976000D02*
X802000D01*
X386000Y769000D02*
Y783000D01*
X463000Y948000D02*
X733000D01*
X445000Y930000D02*
X463000Y948000D01*
X445000Y885000D02*
Y930000D01*
X458000Y958000D02*
X733142D01*
X435000Y935000D02*
X458000Y958000D01*
X435000Y885000D02*
Y935000D01*
X453000Y968000D02*
X733000D01*
X425000Y940000D02*
X453000Y968000D01*
X425000Y885000D02*
Y940000D01*
X448000Y978000D02*
X733000D01*
X415000Y945000D02*
X448000Y978000D01*
X415000Y885000D02*
Y945000D01*
X443000Y988000D02*
X733071D01*
X405000Y950000D02*
X443000Y988000D01*
X405000Y885000D02*
Y950000D01*
X437000Y997000D02*
X764000D01*
X395000Y955000D02*
X437000Y997000D01*
X395000Y885000D02*
Y955000D01*
X386000Y783000D02*
Y826000D01*
Y761000D02*
Y769000D01*
Y753000D02*
Y761000D01*
X733000Y948000D02*
X767000Y982000D01*
X733142Y958000D02*
X760142Y985000D01*
X733000Y968000D02*
X753000Y988000D01*
X733000Y978000D02*
X746000Y991000D01*
X733071Y988000D02*
X739071Y994000D01*
X378000Y599000D02*
Y828000D01*
X372000Y599000D02*
Y832000D01*
X425000Y885000D01*
X364000Y783000D02*
Y834000D01*
Y769000D02*
Y783000D01*
Y761000D02*
Y769000D01*
Y753000D02*
Y761000D01*
Y834000D02*
X415000Y885000D01*
X226000Y783000D02*
Y826000D01*
Y769000D02*
Y783000D01*
Y761000D02*
Y769000D01*
Y753000D02*
Y761000D01*
X370000Y850000D02*
X405000Y885000D01*
X218000Y599000D02*
Y828000D01*
X365000Y855000D02*
X395000Y885000D01*
X684000Y783000D02*
Y783000D01*
Y769000D02*
Y783000D01*
X711000Y826000D02*
X800000D01*
X684000Y799000D02*
X711000Y826000D01*
X684000Y783000D02*
Y799000D01*
X692000Y599000D02*
Y797000D01*
X715000Y820000D02*
X831000D01*
X692000Y797000D02*
X715000Y820000D01*
X720000Y815000D02*
X835000D01*
X698000Y793000D02*
X720000Y815000D01*
X698000Y599000D02*
Y793000D01*
X684000Y761000D02*
Y769000D01*
Y753000D02*
Y761000D01*
X800000Y826000D02*
X808000Y834000D01*
X831000Y820000D02*
X843000Y832000D01*
X835000Y815000D02*
X850000Y830000D01*
X840000Y810000D02*
X855000Y825000D01*
X725000Y810000D02*
X840000D01*
X706000Y791000D02*
X725000Y810000D01*
X1029000D02*
X1053000Y834000D01*
X882000Y807000D02*
X900000D01*
X903000Y810000D02*
X1029000D01*
X900000Y807000D02*
X903000Y810000D01*
X999000Y815000D02*
X1018000Y834000D01*
X876000Y811000D02*
X895000D01*
X899000Y815000D02*
X999000D01*
X895000Y811000D02*
X899000Y815000D01*
X852000Y599000D02*
Y794000D01*
X895000Y820000D02*
X969000D01*
X983000Y834000D01*
X873000Y815000D02*
X890000D01*
X895000Y820000D01*
X890000Y825000D02*
X939000D01*
X885000Y820000D02*
X890000Y825000D01*
X870000Y820000D02*
X885000D01*
X878000Y833000D02*
Y857000D01*
X875000Y830000D02*
X878000Y833000D01*
X850000Y830000D02*
X875000D01*
X885000D02*
X909000D01*
X880000Y825000D02*
X885000Y830000D01*
X855000Y825000D02*
X880000D01*
X844000Y794000D02*
X870000Y820000D01*
X844000Y769000D02*
Y783000D01*
X939000Y825000D02*
X948000Y834000D01*
X909000Y830000D02*
X913000Y834000D01*
X844000Y783000D02*
Y794000D01*
Y761000D02*
Y769000D01*
Y753000D02*
Y761000D01*
X706000Y783000D02*
Y791000D01*
Y769000D02*
Y783000D01*
Y761000D02*
Y769000D01*
X858000Y599000D02*
Y793000D01*
X876000Y811000D01*
X866000Y783000D02*
Y791000D01*
Y769000D02*
Y783000D01*
Y761000D02*
Y769000D01*
Y753000D02*
Y761000D01*
Y791000D02*
X882000Y807000D01*
X250000Y850000D02*
X370000D01*
X226000Y826000D02*
X250000Y850000D01*
X245000Y855000D02*
X365000D01*
X218000Y828000D02*
X245000Y855000D01*
X852000Y794000D02*
X873000Y815000D01*
X378000Y828000D02*
X435000Y885000D01*
X739071Y994000D02*
X764000D01*
X746000Y991000D02*
X764000D01*
X753000Y988000D02*
X764000D01*
X760142Y985000D02*
X764000D01*
X386000Y826000D02*
X445000Y885000D01*
X773000Y863000D02*
Y926000D01*
X760000Y850000D02*
X773000Y863000D01*
Y926000D02*
X780000Y933000D01*
Y935000D01*
X762000Y845000D02*
X780000Y863000D01*
Y865000D01*
X1053000Y834000D02*
Y857000D01*
X1060000Y864000D01*
Y865000D01*
X1018000Y834000D02*
Y857000D01*
X1025000Y864000D01*
Y865000D01*
X983000Y834000D02*
Y857000D01*
X990000Y864000D01*
Y865000D01*
X948000Y834000D02*
Y857000D01*
X955000Y864000D01*
Y865000D01*
X913000Y834000D02*
Y857000D01*
X920000Y864000D01*
Y865000D01*
X885000Y864000D02*
Y865000D01*
X878000Y857000D02*
X885000Y864000D01*
X850000Y863000D02*
Y865000D01*
X843000Y856000D02*
X850000Y863000D01*
X843000Y832000D02*
Y856000D01*
X815000Y863000D02*
Y865000D01*
X808000Y856000D02*
X815000Y863000D01*
X808000Y834000D02*
Y856000D01*
X218000Y599000D02*
X220000Y597000D01*
X226000D01*
X759000Y994000D02*
X764000D01*
X850000Y597000D02*
X852000Y599000D01*
X844000Y597000D02*
X850000D01*
X858000Y599000D02*
X860000Y597000D01*
X866000D01*
X690000D02*
X692000Y599000D01*
X684000Y597000D02*
X690000D01*
X698000Y599000D02*
X700000Y597000D01*
X706000D01*
X530000D02*
X532000Y599000D01*
X524000Y597000D02*
X530000D01*
X538000Y599000D02*
X540000Y597000D01*
X546000D01*
X948000Y944000D02*
X955000Y937000D01*
X808000Y944000D02*
X815000Y937000D01*
X843000Y944000D02*
X850000Y937000D01*
X878000Y944000D02*
X885000Y937000D01*
X913000Y944000D02*
X920000Y937000D01*
X983000Y944000D02*
X990000Y937000D01*
X1018000Y944000D02*
X1025000Y937000D01*
X1053000Y944000D02*
X1060000Y937000D01*
X380000Y597000D02*
X386000D01*
X378000Y599000D02*
X380000Y597000D01*
X364000D02*
X370000D01*
X372000Y599000D01*
D26*
X795000Y147000D02*
D03*
Y141000D02*
D03*
X775000Y146000D02*
D03*
Y140000D02*
D03*
D33*
X257500Y797000D02*
D03*
X278500D02*
D03*
X972500D02*
D03*
X951500D02*
D03*
X972500Y583000D02*
D03*
X951500D02*
D03*
X897500Y797000D02*
D03*
X918500D02*
D03*
X897500Y583000D02*
D03*
X918500D02*
D03*
X812500Y797000D02*
D03*
X791500D02*
D03*
X812500Y583000D02*
D03*
X791500D02*
D03*
X737500Y797000D02*
D03*
X758500D02*
D03*
X737500Y583000D02*
D03*
X758500D02*
D03*
X492500D02*
D03*
X471500D02*
D03*
X652500Y583000D02*
D03*
X631500D02*
D03*
X652500Y797000D02*
D03*
X631500D02*
D03*
X577500Y583000D02*
D03*
X598500D02*
D03*
X417500D02*
D03*
X438500D02*
D03*
X577500Y797000D02*
D03*
X598500D02*
D03*
X492500D02*
D03*
X471500D02*
D03*
X332500Y583000D02*
D03*
X311500D02*
D03*
X332500Y797000D02*
D03*
X311500D02*
D03*
X417500D02*
D03*
X438500D02*
D03*
X257500Y583000D02*
D03*
X278500D02*
D03*
D34*
X268000Y797000D02*
D03*
X962000D02*
D03*
Y583000D02*
D03*
X908000Y797000D02*
D03*
Y583000D02*
D03*
X802000Y797000D02*
D03*
Y583000D02*
D03*
X748000Y797000D02*
D03*
Y583000D02*
D03*
X482000D02*
D03*
X642000Y583000D02*
D03*
X642000Y797000D02*
D03*
X588000Y583000D02*
D03*
X428000D02*
D03*
X588000Y797000D02*
D03*
X482000D02*
D03*
X322000Y583000D02*
D03*
X322000Y797000D02*
D03*
X428000D02*
D03*
X268000Y583000D02*
D03*
D35*
X519998Y51998D02*
D03*
X519996Y107996D02*
D03*
X539996D02*
D03*
X539997Y51998D02*
D03*
X559998Y51998D02*
D03*
X559997Y107997D02*
D03*
X639999Y51999D02*
D03*
Y107999D02*
D03*
X659999D02*
D03*
Y51999D02*
D03*
X679999D02*
D03*
X619998Y107998D02*
D03*
X620000Y52000D02*
D03*
X600000D02*
D03*
X599998Y107998D02*
D03*
X579998Y107998D02*
D03*
X579999Y51999D02*
D03*
D36*
X679999Y107999D02*
D03*
D37*
X1080000Y841000D02*
D03*
X1070000D02*
D03*
X1060000D02*
D03*
Y865000D02*
D03*
X1070000D02*
D03*
X1080000D02*
D03*
X1045000Y841000D02*
D03*
X1035000D02*
D03*
X1025000D02*
D03*
Y865000D02*
D03*
X1035000D02*
D03*
X1045000D02*
D03*
X1010000Y841000D02*
D03*
X1000000D02*
D03*
X990000D02*
D03*
Y865000D02*
D03*
X1000000D02*
D03*
X1010000D02*
D03*
X975000Y841000D02*
D03*
X965000D02*
D03*
X955000D02*
D03*
Y865000D02*
D03*
X965000D02*
D03*
X975000D02*
D03*
X940000Y841000D02*
D03*
X930000D02*
D03*
X920000D02*
D03*
Y865000D02*
D03*
X930000D02*
D03*
X940000D02*
D03*
X905000Y841000D02*
D03*
X895000D02*
D03*
X885000D02*
D03*
Y865000D02*
D03*
X895000D02*
D03*
X905000D02*
D03*
X870000Y841000D02*
D03*
X860000D02*
D03*
X850000D02*
D03*
Y865000D02*
D03*
X860000D02*
D03*
X870000D02*
D03*
X835000Y841000D02*
D03*
X825000D02*
D03*
X815000D02*
D03*
Y865000D02*
D03*
X825000D02*
D03*
X835000D02*
D03*
X800000Y841000D02*
D03*
X790000D02*
D03*
X780000D02*
D03*
Y865000D02*
D03*
X790000D02*
D03*
X800000D02*
D03*
X1080000Y911000D02*
D03*
X1070000D02*
D03*
X1060000D02*
D03*
Y935000D02*
D03*
X1070000D02*
D03*
X1080000D02*
D03*
X1045000Y911000D02*
D03*
X1035000D02*
D03*
X1025000D02*
D03*
Y935000D02*
D03*
X1035000D02*
D03*
X1045000D02*
D03*
X1010000Y911000D02*
D03*
X1000000D02*
D03*
X990000D02*
D03*
Y935000D02*
D03*
X1000000D02*
D03*
X1010000D02*
D03*
X975000Y911000D02*
D03*
X965000D02*
D03*
X955000D02*
D03*
Y935000D02*
D03*
X965000D02*
D03*
X975000D02*
D03*
X940000Y911000D02*
D03*
X930000D02*
D03*
X920000D02*
D03*
Y935000D02*
D03*
X930000D02*
D03*
X940000D02*
D03*
X905000D02*
D03*
X895000D02*
D03*
X885000D02*
D03*
Y911000D02*
D03*
X895000D02*
D03*
X905000D02*
D03*
X870000D02*
D03*
X860000D02*
D03*
X850000D02*
D03*
Y935000D02*
D03*
X860000D02*
D03*
X870000D02*
D03*
X835000Y911000D02*
D03*
X825000D02*
D03*
X815000D02*
D03*
Y935000D02*
D03*
X825000D02*
D03*
X835000D02*
D03*
X800000Y911000D02*
D03*
X790000D02*
D03*
X780000D02*
D03*
Y935000D02*
D03*
X790000D02*
D03*
X800000D02*
D03*
X1077000Y73000D02*
D03*
X1067000D02*
D03*
X1057000D02*
D03*
Y97000D02*
D03*
X1067000D02*
D03*
X1077000D02*
D03*
X1042000Y73000D02*
D03*
X1032000D02*
D03*
X1022000D02*
D03*
Y97000D02*
D03*
X1032000D02*
D03*
X1042000D02*
D03*
D38*
X1080000Y879000D02*
D03*
X1064000D02*
D03*
X1080000Y893000D02*
D03*
X1064000D02*
D03*
X1045000Y879000D02*
D03*
X1029000D02*
D03*
X1045000Y893000D02*
D03*
X1029000D02*
D03*
X1010000Y879000D02*
D03*
X994000D02*
D03*
X1010000Y893000D02*
D03*
X994000D02*
D03*
X975000Y879000D02*
D03*
X959000D02*
D03*
X975000Y893000D02*
D03*
X959000D02*
D03*
X940000Y879000D02*
D03*
X924000D02*
D03*
X940000Y893000D02*
D03*
X924000D02*
D03*
X905000Y879000D02*
D03*
X889000D02*
D03*
X905000Y893000D02*
D03*
X889000D02*
D03*
X870000Y879000D02*
D03*
X854000D02*
D03*
X870000Y893000D02*
D03*
X854000D02*
D03*
X835000Y879000D02*
D03*
X819000D02*
D03*
X835000Y893000D02*
D03*
X819000D02*
D03*
X800000Y879000D02*
D03*
X784000D02*
D03*
X800000Y893000D02*
D03*
X784000D02*
D03*
X1080000Y949000D02*
D03*
X1064000D02*
D03*
X1080000Y963000D02*
D03*
X1064000D02*
D03*
X1045000Y949000D02*
D03*
X1029000D02*
D03*
X1045000Y963000D02*
D03*
X1029000D02*
D03*
X1010000Y949000D02*
D03*
X994000D02*
D03*
X1010000Y963000D02*
D03*
X994000D02*
D03*
X975000Y949000D02*
D03*
X959000D02*
D03*
X975000Y963000D02*
D03*
X959000D02*
D03*
X940000Y949000D02*
D03*
X924000D02*
D03*
X940000Y963000D02*
D03*
X924000D02*
D03*
X905500Y949000D02*
D03*
X889500D02*
D03*
X905500Y963000D02*
D03*
X889500D02*
D03*
X870000Y949000D02*
D03*
X854000D02*
D03*
X870000Y963000D02*
D03*
X854000D02*
D03*
X835000Y949000D02*
D03*
X819000D02*
D03*
X835000Y963000D02*
D03*
X819000D02*
D03*
X800000Y949000D02*
D03*
X784000D02*
D03*
X800000Y963000D02*
D03*
X784000D02*
D03*
X1004000Y783000D02*
D03*
X988000D02*
D03*
X1004000Y769000D02*
D03*
X988000D02*
D03*
X946000Y783000D02*
D03*
X962000D02*
D03*
X946000Y769000D02*
D03*
X962000D02*
D03*
X924000Y783000D02*
D03*
X908000D02*
D03*
X924000Y769000D02*
D03*
X908000D02*
D03*
X866000Y783000D02*
D03*
X882000D02*
D03*
X866000Y769000D02*
D03*
X882000D02*
D03*
X844000Y783000D02*
D03*
X828000D02*
D03*
X844000Y769000D02*
D03*
X828000D02*
D03*
X786000Y783000D02*
D03*
X802000D02*
D03*
X786000Y769000D02*
D03*
X802000D02*
D03*
X764000Y783000D02*
D03*
X748000D02*
D03*
X764000Y769000D02*
D03*
X748000D02*
D03*
X706000Y783000D02*
D03*
X722000D02*
D03*
X706000Y769000D02*
D03*
X722000D02*
D03*
X684000Y783000D02*
D03*
X668000D02*
D03*
X684000Y769000D02*
D03*
X668000D02*
D03*
X626000Y783000D02*
D03*
X642000D02*
D03*
X626000Y769000D02*
D03*
X642000D02*
D03*
X604000Y783000D02*
D03*
X588000D02*
D03*
X546000D02*
D03*
X562000D02*
D03*
X546000Y769000D02*
D03*
X562000D02*
D03*
X524000Y783000D02*
D03*
X508000D02*
D03*
X524000Y769000D02*
D03*
X508000D02*
D03*
X466000Y783000D02*
D03*
X482000D02*
D03*
X466000Y769000D02*
D03*
X482000D02*
D03*
X444000Y783000D02*
D03*
X428000D02*
D03*
X444000Y769000D02*
D03*
X428000D02*
D03*
X386000Y783000D02*
D03*
X402000D02*
D03*
X386000Y769000D02*
D03*
X402000D02*
D03*
X226000Y597000D02*
D03*
X242000D02*
D03*
X306000Y611000D02*
D03*
X322000D02*
D03*
X364000D02*
D03*
X348000D02*
D03*
X364000Y597000D02*
D03*
X348000D02*
D03*
X386000Y611000D02*
D03*
X402000D02*
D03*
X386000Y597000D02*
D03*
X402000D02*
D03*
X444000Y611000D02*
D03*
X428000D02*
D03*
X444000Y597000D02*
D03*
X428000D02*
D03*
X466000Y611000D02*
D03*
X482000D02*
D03*
X466000Y597000D02*
D03*
X482000D02*
D03*
X524000Y611000D02*
D03*
X508000D02*
D03*
X524000Y597000D02*
D03*
X508000D02*
D03*
X546000Y611000D02*
D03*
X562000D02*
D03*
X546000Y597000D02*
D03*
X562000D02*
D03*
X604000Y611000D02*
D03*
X588000D02*
D03*
X604000Y597000D02*
D03*
X588000D02*
D03*
X626000Y611000D02*
D03*
X642000D02*
D03*
X626000Y597000D02*
D03*
X642000D02*
D03*
X684000Y611000D02*
D03*
X668000D02*
D03*
X684000Y597000D02*
D03*
X668000D02*
D03*
X706000Y611000D02*
D03*
X722000D02*
D03*
X706000Y597000D02*
D03*
X722000D02*
D03*
X844000Y611000D02*
D03*
X828000D02*
D03*
X844000Y597000D02*
D03*
X828000D02*
D03*
X786000Y611000D02*
D03*
X802000D02*
D03*
X786000Y597000D02*
D03*
X802000D02*
D03*
X764000Y611000D02*
D03*
X748000D02*
D03*
X764000Y597000D02*
D03*
X748000D02*
D03*
X1004000Y597000D02*
D03*
X988000D02*
D03*
X1004000Y611000D02*
D03*
X988000D02*
D03*
X946000D02*
D03*
X962000D02*
D03*
X946000Y597000D02*
D03*
X962000D02*
D03*
X924000D02*
D03*
X908000D02*
D03*
X924000Y611000D02*
D03*
X908000D02*
D03*
X866000Y597000D02*
D03*
X882000D02*
D03*
X866000Y611000D02*
D03*
X882000D02*
D03*
X1208000Y888000D02*
D03*
X1224000D02*
D03*
X1142000Y665000D02*
D03*
X1158000D02*
D03*
X1142000Y685000D02*
D03*
X1158000D02*
D03*
X1222000Y626000D02*
D03*
X1238000D02*
D03*
X1210000D02*
D03*
X1194000D02*
D03*
X1224000Y560000D02*
D03*
X1208000D02*
D03*
X1077000Y111000D02*
D03*
X1061000D02*
D03*
X1077000Y125000D02*
D03*
X1061000D02*
D03*
X1042000Y111000D02*
D03*
X1026000D02*
D03*
X1042000Y125000D02*
D03*
X1026000D02*
D03*
X364000Y783000D02*
D03*
X348000D02*
D03*
X364000Y769000D02*
D03*
X348000D02*
D03*
X604000D02*
D03*
X588000D02*
D03*
X284000Y611000D02*
D03*
X268000D02*
D03*
X306000Y597000D02*
D03*
X322000D02*
D03*
X284000D02*
D03*
X268000D02*
D03*
X226000Y611000D02*
D03*
X242000D02*
D03*
X306000Y769000D02*
D03*
X322000D02*
D03*
X306000Y783000D02*
D03*
X322000D02*
D03*
X284000D02*
D03*
X268000D02*
D03*
X284000Y769000D02*
D03*
X268000D02*
D03*
X226000D02*
D03*
X242000D02*
D03*
X226000Y783000D02*
D03*
X242000D02*
D03*
X953000Y140000D02*
D03*
X969000D02*
D03*
X858000D02*
D03*
X874000D02*
D03*
D39*
X1229050Y964210D02*
D03*
X1216350D02*
D03*
X1203650D02*
D03*
X1190950D02*
D03*
X1229050Y905790D02*
D03*
X1216350D02*
D03*
X1203650D02*
D03*
X1190950D02*
D03*
D40*
X1229050Y717250D02*
D03*
X1216350D02*
D03*
X1203650D02*
D03*
X1190950D02*
D03*
X1229050Y662750D02*
D03*
X1216350D02*
D03*
X1203650D02*
D03*
X1190950D02*
D03*
X896900Y662750D02*
D03*
X909600D02*
D03*
X922300D02*
D03*
X935000D02*
D03*
X947700D02*
D03*
X960400D02*
D03*
X973100D02*
D03*
X896900Y717250D02*
D03*
X909600D02*
D03*
X922300D02*
D03*
X935000D02*
D03*
X947700D02*
D03*
X960400D02*
D03*
X973100D02*
D03*
X653100D02*
D03*
X640400D02*
D03*
X627700D02*
D03*
X615000D02*
D03*
X602300D02*
D03*
X589600D02*
D03*
X576900D02*
D03*
X653100Y662750D02*
D03*
X640400D02*
D03*
X627700D02*
D03*
X615000D02*
D03*
X602300D02*
D03*
X589600D02*
D03*
X576900D02*
D03*
X333100Y717250D02*
D03*
X320400D02*
D03*
X307700D02*
D03*
X295000D02*
D03*
X282300D02*
D03*
X269600D02*
D03*
X256900D02*
D03*
X333100Y662750D02*
D03*
X320400D02*
D03*
X307700D02*
D03*
X295000D02*
D03*
X282300D02*
D03*
X269600D02*
D03*
X256900D02*
D03*
X493100Y717250D02*
D03*
X480400D02*
D03*
X467700D02*
D03*
X455000D02*
D03*
X442300D02*
D03*
X429600D02*
D03*
X416900D02*
D03*
X493100Y662750D02*
D03*
X480400D02*
D03*
X467700D02*
D03*
X455000D02*
D03*
X442300D02*
D03*
X429600D02*
D03*
X416900D02*
D03*
X813100Y717250D02*
D03*
X800400D02*
D03*
X787700D02*
D03*
X775000D02*
D03*
X762300D02*
D03*
X749600D02*
D03*
X736900D02*
D03*
X813100Y662750D02*
D03*
X800400D02*
D03*
X787700D02*
D03*
X775000D02*
D03*
X762300D02*
D03*
X749600D02*
D03*
X736900D02*
D03*
X106900Y683750D02*
D03*
X119600D02*
D03*
X132300D02*
D03*
X145000D02*
D03*
X157700D02*
D03*
X170400D02*
D03*
X183100D02*
D03*
X106900Y738250D02*
D03*
X119600D02*
D03*
X132300D02*
D03*
X145000D02*
D03*
X157700D02*
D03*
X170400D02*
D03*
X183100D02*
D03*
X106900Y203750D02*
D03*
X119600D02*
D03*
X132300D02*
D03*
X145000D02*
D03*
X157700D02*
D03*
X170400D02*
D03*
X183100D02*
D03*
X106900Y258250D02*
D03*
X119600D02*
D03*
X132300D02*
D03*
X145000D02*
D03*
X157700D02*
D03*
X170400D02*
D03*
X183100D02*
D03*
D41*
X1196000Y644000D02*
D03*
X1216000D02*
D03*
X1206000Y610000D02*
D03*
X1226000D02*
D03*
X951000Y192000D02*
D03*
X971000D02*
D03*
X795000Y180000D02*
D03*
X775000D02*
D03*
X795000Y162000D02*
D03*
X775000D02*
D03*
X695000Y162000D02*
D03*
X715000D02*
D03*
X695000Y180000D02*
D03*
X715000D02*
D03*
X240000Y182000D02*
D03*
X260000D02*
D03*
X502000Y207000D02*
D03*
X482000D02*
D03*
X876000Y192000D02*
D03*
X856000D02*
D03*
D42*
X939000Y175000D02*
D03*
Y170000D02*
D03*
Y165000D02*
D03*
Y160000D02*
D03*
Y155000D02*
D03*
X983000Y175000D02*
D03*
Y170000D02*
D03*
Y165000D02*
D03*
Y160000D02*
D03*
Y155000D02*
D03*
X888000Y155000D02*
D03*
Y160000D02*
D03*
Y165000D02*
D03*
Y170000D02*
D03*
Y175000D02*
D03*
X844000Y155000D02*
D03*
Y160000D02*
D03*
Y165000D02*
D03*
Y170000D02*
D03*
Y175000D02*
D03*
D43*
X960000Y231500D02*
D03*
X969500Y208500D02*
D03*
X950500D02*
D03*
X855500D02*
D03*
X874500D02*
D03*
X865000Y231500D02*
D03*
D44*
X363000Y644000D02*
D03*
Y628000D02*
D03*
X349000Y644000D02*
D03*
Y628000D02*
D03*
X363000Y736000D02*
D03*
Y752000D02*
D03*
X349000Y736000D02*
D03*
Y752000D02*
D03*
X335000Y736000D02*
D03*
Y752000D02*
D03*
X335000Y644000D02*
D03*
Y628000D02*
D03*
X321000Y628000D02*
D03*
Y644000D02*
D03*
X307000Y628000D02*
D03*
Y644000D02*
D03*
X269000Y628000D02*
D03*
Y644000D02*
D03*
X283000Y628000D02*
D03*
Y644000D02*
D03*
X321000Y752000D02*
D03*
Y736000D02*
D03*
X307000Y752000D02*
D03*
Y736000D02*
D03*
X283000Y752000D02*
D03*
Y736000D02*
D03*
X269000Y752000D02*
D03*
Y736000D02*
D03*
X241000D02*
D03*
Y752000D02*
D03*
X227000Y736000D02*
D03*
Y752000D02*
D03*
X255000Y736000D02*
D03*
Y752000D02*
D03*
X401000D02*
D03*
Y736000D02*
D03*
X241000Y628000D02*
D03*
Y644000D02*
D03*
X561000Y752000D02*
D03*
Y736000D02*
D03*
X401000Y628000D02*
D03*
Y644000D02*
D03*
X561000Y628000D02*
D03*
Y644000D02*
D03*
X669000Y752000D02*
D03*
Y736000D02*
D03*
X509000Y628000D02*
D03*
Y644000D02*
D03*
X669000Y628000D02*
D03*
Y644000D02*
D03*
X509000Y752000D02*
D03*
Y736000D02*
D03*
X241000Y698000D02*
D03*
Y682000D02*
D03*
X401000Y699000D02*
D03*
Y683000D02*
D03*
X561000Y699000D02*
D03*
Y683000D02*
D03*
X721000Y628000D02*
D03*
Y644000D02*
D03*
Y752000D02*
D03*
Y736000D02*
D03*
X829000Y628000D02*
D03*
Y644000D02*
D03*
Y752000D02*
D03*
Y736000D02*
D03*
X721000Y698000D02*
D03*
Y682000D02*
D03*
X881000Y698000D02*
D03*
Y682000D02*
D03*
Y628000D02*
D03*
Y644000D02*
D03*
Y752000D02*
D03*
Y736000D02*
D03*
X989000Y628000D02*
D03*
Y644000D02*
D03*
Y752000D02*
D03*
Y736000D02*
D03*
X1161000Y943000D02*
D03*
Y927000D02*
D03*
X91000Y703000D02*
D03*
Y719000D02*
D03*
X199000Y223000D02*
D03*
Y239000D02*
D03*
X1175000Y701000D02*
D03*
Y717000D02*
D03*
X227000Y628000D02*
D03*
Y644000D02*
D03*
X443000Y736000D02*
D03*
Y752000D02*
D03*
X495000D02*
D03*
Y736000D02*
D03*
X481000D02*
D03*
Y752000D02*
D03*
X415000D02*
D03*
Y736000D02*
D03*
X255000Y628000D02*
D03*
Y644000D02*
D03*
X429000Y736000D02*
D03*
Y752000D02*
D03*
X387000D02*
D03*
Y736000D02*
D03*
X523000Y752000D02*
D03*
Y736000D02*
D03*
X467000D02*
D03*
Y752000D02*
D03*
X575000D02*
D03*
Y736000D02*
D03*
X415000Y628000D02*
D03*
Y644000D02*
D03*
X575000Y628000D02*
D03*
Y644000D02*
D03*
X589000Y736000D02*
D03*
Y752000D02*
D03*
X429000Y644000D02*
D03*
Y628000D02*
D03*
X589000Y644000D02*
D03*
Y628000D02*
D03*
X547000Y752000D02*
D03*
Y736000D02*
D03*
X387000Y628000D02*
D03*
Y644000D02*
D03*
X547000Y628000D02*
D03*
Y644000D02*
D03*
X603000Y736000D02*
D03*
Y752000D02*
D03*
X443000Y644000D02*
D03*
Y628000D02*
D03*
X603000Y644000D02*
D03*
Y628000D02*
D03*
X655000Y752000D02*
D03*
Y736000D02*
D03*
X735000Y628000D02*
D03*
Y644000D02*
D03*
Y752000D02*
D03*
Y736000D02*
D03*
X749000Y644000D02*
D03*
Y628000D02*
D03*
Y736000D02*
D03*
Y752000D02*
D03*
X707000Y628000D02*
D03*
Y644000D02*
D03*
Y752000D02*
D03*
Y736000D02*
D03*
X763000Y644000D02*
D03*
Y628000D02*
D03*
X763000Y736000D02*
D03*
Y752000D02*
D03*
X815000Y628000D02*
D03*
Y644000D02*
D03*
Y752000D02*
D03*
Y736000D02*
D03*
X495000Y628000D02*
D03*
Y644000D02*
D03*
X655000Y628000D02*
D03*
Y644000D02*
D03*
X641000Y736000D02*
D03*
Y752000D02*
D03*
X481000Y644000D02*
D03*
Y628000D02*
D03*
X641000Y644000D02*
D03*
Y628000D02*
D03*
X683000Y752000D02*
D03*
Y736000D02*
D03*
X523000Y628000D02*
D03*
Y644000D02*
D03*
X683000Y628000D02*
D03*
Y644000D02*
D03*
X627000Y736000D02*
D03*
Y752000D02*
D03*
X467000Y644000D02*
D03*
Y628000D02*
D03*
X627000Y644000D02*
D03*
Y628000D02*
D03*
X801000Y644000D02*
D03*
Y628000D02*
D03*
Y736000D02*
D03*
Y752000D02*
D03*
X843000Y628000D02*
D03*
Y644000D02*
D03*
Y752000D02*
D03*
Y736000D02*
D03*
X787000Y644000D02*
D03*
Y628000D02*
D03*
Y736000D02*
D03*
Y752000D02*
D03*
X895000Y628000D02*
D03*
Y644000D02*
D03*
Y752000D02*
D03*
Y736000D02*
D03*
X909000Y644000D02*
D03*
Y628000D02*
D03*
X909000Y736000D02*
D03*
Y752000D02*
D03*
X867000Y628000D02*
D03*
Y644000D02*
D03*
Y752000D02*
D03*
Y736000D02*
D03*
X923000Y644000D02*
D03*
Y628000D02*
D03*
Y736000D02*
D03*
Y752000D02*
D03*
X975000Y628000D02*
D03*
Y644000D02*
D03*
Y752000D02*
D03*
Y736000D02*
D03*
X961000Y644000D02*
D03*
Y628000D02*
D03*
X961000Y736000D02*
D03*
Y752000D02*
D03*
X1003000Y628000D02*
D03*
Y644000D02*
D03*
X1003000Y752000D02*
D03*
Y736000D02*
D03*
X947000Y644000D02*
D03*
Y628000D02*
D03*
Y736000D02*
D03*
Y752000D02*
D03*
X1111000Y669000D02*
D03*
Y685000D02*
D03*
X1175000Y927000D02*
D03*
Y943000D02*
D03*
X442000Y175000D02*
D03*
Y191000D02*
D03*
D45*
X154000Y183000D02*
D03*
Y163000D02*
D03*
X100000Y127000D02*
D03*
Y147000D02*
D03*
Y183000D02*
D03*
Y163000D02*
D03*
X136000Y183000D02*
D03*
Y163000D02*
D03*
X190100Y759000D02*
D03*
Y779000D02*
D03*
X154000Y759000D02*
D03*
Y779000D02*
D03*
X100000Y759000D02*
D03*
Y779000D02*
D03*
X136000Y759000D02*
D03*
Y779000D02*
D03*
X934000Y210000D02*
D03*
Y230000D02*
D03*
X99900Y663000D02*
D03*
Y643000D02*
D03*
X136000Y663000D02*
D03*
Y643000D02*
D03*
X190100Y663000D02*
D03*
Y643000D02*
D03*
X154000Y663000D02*
D03*
Y643000D02*
D03*
X190000Y279000D02*
D03*
Y299000D02*
D03*
X154000Y279000D02*
D03*
Y299000D02*
D03*
X100000Y279000D02*
D03*
Y299000D02*
D03*
X136000Y279000D02*
D03*
Y299000D02*
D03*
X839000Y210000D02*
D03*
Y230000D02*
D03*
X190000Y183000D02*
D03*
Y163000D02*
D03*
X1127000Y685000D02*
D03*
Y665000D02*
D03*
X1173000D02*
D03*
Y685000D02*
D03*
X190000Y815000D02*
D03*
Y795000D02*
D03*
X172000Y779000D02*
D03*
Y759000D02*
D03*
X118000Y815000D02*
D03*
Y795000D02*
D03*
X118000Y779000D02*
D03*
Y759000D02*
D03*
X100000Y607000D02*
D03*
Y627000D02*
D03*
X118000Y643000D02*
D03*
Y663000D02*
D03*
X172000Y607000D02*
D03*
Y627000D02*
D03*
X172000Y643000D02*
D03*
Y663000D02*
D03*
X190000Y335000D02*
D03*
Y315000D02*
D03*
X172000Y299000D02*
D03*
Y279000D02*
D03*
X118000Y335000D02*
D03*
Y315000D02*
D03*
Y299000D02*
D03*
Y279000D02*
D03*
X172000Y127000D02*
D03*
Y147000D02*
D03*
Y163000D02*
D03*
Y183000D02*
D03*
X118000Y163000D02*
D03*
Y183000D02*
D03*
D46*
X458750Y189050D02*
D03*
Y176350D02*
D03*
Y163650D02*
D03*
Y150950D02*
D03*
X513250Y189050D02*
D03*
Y176350D02*
D03*
Y163650D02*
D03*
Y150950D02*
D03*
D47*
X341000Y152250D02*
D03*
Y158750D02*
D03*
Y165250D02*
D03*
Y171750D02*
D03*
Y178250D02*
D03*
Y184750D02*
D03*
Y191250D02*
D03*
Y197750D02*
D03*
X281000Y152250D02*
D03*
Y158750D02*
D03*
Y165250D02*
D03*
Y171750D02*
D03*
Y178250D02*
D03*
Y184750D02*
D03*
Y191250D02*
D03*
Y197750D02*
D03*
D48*
X1227500Y574500D02*
D03*
Y593500D02*
D03*
X1204500Y584000D02*
D03*
D49*
X1058000Y150000D02*
X1077000D01*
X1042000Y134000D02*
X1058000Y150000D01*
X1251000Y762000D02*
X1266000Y747000D01*
X1266000Y339000D01*
X1077000Y150000D02*
X1266000Y339000D01*
X1077000Y134000D02*
Y146000D01*
X1077000Y146000D02*
X1077000Y146000D01*
X1077000Y146000D02*
Y150000D01*
X1164000Y762000D02*
X1251000D01*
X1125000Y801000D02*
X1164000Y762000D01*
X1125000Y801000D02*
Y877000D01*
X1150000Y902000D01*
X1142000Y665000D02*
Y685000D01*
X1127000D02*
X1142000D01*
X1111000D02*
X1127000D01*
X1059000D02*
X1111000D01*
X1150000Y845000D02*
X1180000D01*
X1208000Y873000D01*
Y888000D01*
X1203650Y892350D02*
X1208000Y888000D01*
X1203650Y892350D02*
Y905790D01*
X1216350D01*
X1161000Y927000D02*
X1175000D01*
X1150000Y902000D02*
X1161000Y913000D01*
Y927000D01*
X1059000Y685000D02*
Y820000D01*
Y560000D02*
Y685000D01*
X680000Y220000D02*
X695000Y205000D01*
X695000Y147000D02*
Y180000D01*
X795000Y147000D02*
Y162000D01*
X775000Y147000D02*
Y162000D01*
X795000Y129000D02*
Y139500D01*
X695000Y180000D02*
Y205000D01*
Y162000D02*
Y180000D01*
X715000Y162000D02*
Y180000D01*
Y147000D02*
Y162000D01*
X795000Y129000D02*
X795000Y129000D01*
X775000D02*
Y139500D01*
Y129000D02*
X775000Y129000D01*
X680000Y162000D02*
X695000D01*
Y147000D02*
Y162000D01*
Y147000D02*
X695000Y147000D01*
X695000Y180000D02*
X695000Y180000D01*
X715000Y162000D02*
X730000D01*
X715000Y147000D02*
Y162000D01*
X715000Y147000D02*
X715000Y147000D01*
X715000Y180000D02*
X715000Y180000D01*
Y162000D02*
Y180000D01*
Y220000D01*
X795000Y180000D02*
Y220000D01*
Y162000D02*
Y180000D01*
X775000D02*
Y205000D01*
Y162000D02*
Y180000D01*
X760000Y220000D02*
X775000Y205000D01*
X715000Y162000D02*
X715000Y162000D01*
D50*
X758500Y797000D02*
X791000D01*
X791500D01*
X598500Y797000D02*
X625000D01*
X598500Y797000D02*
X598500Y797000D01*
X438500D02*
X465000D01*
X438500Y797000D02*
X438500Y797000D01*
X278500D02*
X305000D01*
X278500Y797000D02*
X278500Y797000D01*
X449350Y176350D02*
X458750D01*
X448000Y175000D02*
X449350Y176350D01*
X442000Y175000D02*
X448000D01*
X442000Y191000D02*
X448000D01*
X450000Y189000D01*
X457000D01*
X457050Y189050D01*
X458750D01*
X431000Y181000D02*
X436000D01*
X442000Y175000D01*
X429902Y184902D02*
X435902D01*
X442000Y191000D01*
X422902Y172902D02*
X431000Y181000D01*
X422902Y53384D02*
Y172902D01*
X419000Y174000D02*
X429902Y184902D01*
X419000Y55000D02*
Y174000D01*
X286500Y111300D02*
X308102Y132902D01*
X290402Y110202D02*
X309200Y129000D01*
X290402Y101502D02*
X299202Y92702D01*
X286500Y80000D02*
X299200Y67300D01*
X290402Y101502D02*
Y110202D01*
X286500Y80000D02*
Y111300D01*
X308102Y132902D02*
X351902D01*
X309200Y129000D02*
X353518D01*
X364902Y140384D01*
X351902Y132902D02*
X361000Y142000D01*
X364902Y140384D02*
Y163616D01*
X361000Y142000D02*
Y162000D01*
X358018Y170500D02*
X364902Y163616D01*
X356402Y166598D02*
X361000Y162000D01*
X341000Y165250D02*
X342348Y166598D01*
X341000Y171750D02*
X342250Y170500D01*
X342348Y166598D02*
X356402D01*
X342250Y170500D02*
X358018D01*
X342250Y183500D02*
X367500D01*
X379000Y172000D01*
Y132403D02*
Y172000D01*
X375098Y134019D02*
Y170384D01*
X392000Y125518D02*
Y166000D01*
X395902Y123902D02*
Y166000D01*
X392000D02*
Y175000D01*
X395902Y166000D02*
Y176616D01*
X408616Y39098D02*
X422902Y53384D01*
X407000Y43000D02*
X419000Y55000D01*
X315784Y39098D02*
X408616D01*
X317400Y43000D02*
X407000D01*
X311900Y42982D02*
X315784Y39098D01*
X315802Y44598D02*
X317400Y43000D01*
X315802Y44598D02*
Y58498D01*
X311900Y80000D02*
X324600Y92700D01*
X315802Y58498D02*
X324602Y67298D01*
X311900Y42982D02*
Y80000D01*
X365884Y179598D02*
X375098Y170384D01*
X342348Y179598D02*
X365884D01*
X341000Y184750D02*
X342250Y183500D01*
X341000Y178250D02*
X342348Y179598D01*
X344000Y118000D02*
X359079D01*
X337300Y111300D02*
X344000Y118000D01*
X337300Y80000D02*
Y111300D01*
X345000Y114000D02*
X360597D01*
X341202Y110202D02*
X345000Y114000D01*
X341202Y101502D02*
Y110202D01*
X337300Y80000D02*
X350000Y67300D01*
X341202Y101502D02*
X350002Y92702D01*
X342250Y196500D02*
X376018D01*
X342348Y192598D02*
X374402D01*
X376018Y196500D02*
X395902Y176616D01*
X374402Y192598D02*
X392000Y175000D01*
X359079Y118000D02*
X375098Y134019D01*
X360597Y114000D02*
X379000Y132403D01*
X384200Y101500D02*
Y117718D01*
X388102Y116102D02*
X395902Y123902D01*
X375402Y67298D02*
X388102Y79998D01*
X375400Y92700D02*
X384200Y101500D01*
X388102Y79998D02*
Y116102D01*
X384200Y117718D02*
X392000Y125518D01*
X341000Y191250D02*
X342348Y192598D01*
X341000Y197750D02*
X342250Y196500D01*
X443000Y620000D02*
Y628000D01*
X909000Y620000D02*
Y628000D01*
X909000Y628000D02*
X909000Y628000D01*
X923000Y620000D02*
X923000Y620000D01*
X923000Y620000D02*
Y628000D01*
X947000Y620000D02*
Y628000D01*
X947000Y628000D02*
X947000Y628000D01*
X961000Y620000D02*
X961000Y620000D01*
X961000Y620000D02*
Y628000D01*
X749000Y620000D02*
Y628000D01*
X749000Y628000D02*
X749000Y628000D01*
X763000Y620000D02*
X763000Y620000D01*
X763000Y620000D02*
Y628000D01*
X787000Y620000D02*
Y628000D01*
X787000Y628000D02*
X787000Y628000D01*
X801000Y620000D02*
X801000Y620000D01*
X801000Y620000D02*
Y628000D01*
X589000Y620000D02*
Y628000D01*
X589000Y628000D02*
X589000Y628000D01*
X603000Y620000D02*
X603000Y620000D01*
X603000Y620000D02*
Y628000D01*
X627000Y620000D02*
Y628000D01*
X627000Y628000D02*
X627000Y628000D01*
X641000Y620000D02*
X641000Y620000D01*
X641000Y620000D02*
Y628000D01*
X481000Y620000D02*
Y628000D01*
Y620000D02*
X481000Y620000D01*
X467000Y628000D02*
X467000Y628000D01*
Y620000D02*
Y628000D01*
X429000Y628000D02*
X429000Y628000D01*
Y620000D02*
Y628000D01*
X321000Y620000D02*
Y628000D01*
Y620000D02*
X321000Y620000D01*
X307000Y628000D02*
X307000Y628000D01*
Y620000D02*
Y628000D01*
X269000Y620000D02*
Y628000D01*
X269000Y628000D02*
X269000Y628000D01*
X283000Y620000D02*
X283000Y620000D01*
X283000Y620000D02*
Y628000D01*
D51*
X749000Y752000D02*
Y760000D01*
X801000Y752000D02*
Y760000D01*
X961000Y752000D02*
Y760000D01*
X909000Y752000D02*
Y760000D01*
X589000Y752000D02*
Y760000D01*
X641000Y752000D02*
Y760000D01*
X481000Y752000D02*
Y760000D01*
X429000Y752000D02*
Y760000D01*
X269000Y752000D02*
Y760000D01*
X321000Y752000D02*
Y760000D01*
D52*
X1104500Y920000D02*
D03*
X755500D02*
D03*
X1104500Y80000D02*
D03*
X755500D02*
D03*
D53*
X299200Y92700D02*
D03*
X350000D02*
D03*
X324600D02*
D03*
X400800D02*
D03*
X350000Y67300D02*
D03*
X324600D02*
D03*
X400800D02*
D03*
X375400Y92700D02*
D03*
Y67300D02*
D03*
X467402Y907002D02*
D03*
X518200Y907000D02*
D03*
X492800D02*
D03*
X569000D02*
D03*
X619800D02*
D03*
X594400D02*
D03*
X670600D02*
D03*
X696000D02*
D03*
X518200Y881600D02*
D03*
X492800D02*
D03*
X569000D02*
D03*
X619800D02*
D03*
X594400D02*
D03*
X670600D02*
D03*
X696000D02*
D03*
X543600Y907000D02*
D03*
X645200D02*
D03*
X543600Y881600D02*
D03*
X645200D02*
D03*
X134202Y907002D02*
D03*
X185000Y907000D02*
D03*
X159600D02*
D03*
X235800D02*
D03*
X286600D02*
D03*
X261200D02*
D03*
X337400D02*
D03*
X362800D02*
D03*
X185000Y881600D02*
D03*
X159600D02*
D03*
X235800D02*
D03*
X286600D02*
D03*
X261200D02*
D03*
X337400D02*
D03*
X362800D02*
D03*
X210400Y907000D02*
D03*
X312000D02*
D03*
X210400Y881600D02*
D03*
X312000D02*
D03*
D54*
X299200Y67300D02*
D03*
X467400Y881600D02*
D03*
X134200D02*
D03*
D55*
X44000Y891000D02*
D03*
X18500Y865500D02*
D03*
Y916500D02*
D03*
X69500Y865500D02*
D03*
Y916500D02*
D03*
X44000Y771000D02*
D03*
X18500Y745500D02*
D03*
Y796500D02*
D03*
X69500Y745500D02*
D03*
Y796500D02*
D03*
X44000Y651000D02*
D03*
X18500Y625500D02*
D03*
Y676500D02*
D03*
X69500Y625500D02*
D03*
Y676500D02*
D03*
X44000Y531000D02*
D03*
X18500Y505500D02*
D03*
Y556500D02*
D03*
X69500Y505500D02*
D03*
Y556500D02*
D03*
X44000Y411000D02*
D03*
X18500Y385500D02*
D03*
Y436500D02*
D03*
X69500Y385500D02*
D03*
Y436500D02*
D03*
X44000Y291000D02*
D03*
X18500Y265500D02*
D03*
Y316500D02*
D03*
X69500Y265500D02*
D03*
Y316500D02*
D03*
X44000Y171000D02*
D03*
X18500Y145500D02*
D03*
Y196500D02*
D03*
X69500Y145500D02*
D03*
Y196500D02*
D03*
X44000Y51000D02*
D03*
X18500Y25500D02*
D03*
Y76500D02*
D03*
X69500Y25500D02*
D03*
Y76500D02*
D03*
X715000Y220000D02*
D03*
X760000D02*
D03*
X1150000Y845000D02*
D03*
Y902000D02*
D03*
X1059000Y685000D02*
D03*
X681000Y219000D02*
D03*
X795000Y220000D02*
D03*
D56*
X1208000Y550000D02*
D03*
X1042000Y134000D02*
D03*
X1026000D02*
D03*
X1077000D02*
D03*
X1061000D02*
D03*
X1077000Y85000D02*
D03*
X1067000D02*
D03*
X1057000D02*
D03*
X1042000D02*
D03*
X1032000D02*
D03*
X1022000D02*
D03*
X825000Y230000D02*
D03*
Y210000D02*
D03*
X846000Y192000D02*
D03*
X825000Y175000D02*
D03*
X920000Y230000D02*
D03*
Y210000D02*
D03*
Y175000D02*
D03*
X941000Y192000D02*
D03*
X526000Y176000D02*
D03*
X679998Y135998D02*
D03*
X650000Y80000D02*
D03*
X630000D02*
D03*
X679998Y79998D02*
D03*
X620001Y24001D02*
D03*
X600001D02*
D03*
X580000Y24000D02*
D03*
X559999Y23999D02*
D03*
X539998Y23998D02*
D03*
X815000Y95000D02*
D03*
X803000D02*
D03*
X790000D02*
D03*
X1196000Y610000D02*
D03*
X1186000Y644000D02*
D03*
Y626000D02*
D03*
X1229000Y675000D02*
D03*
X1166000Y717000D02*
D03*
Y701000D02*
D03*
X1127000Y655000D02*
D03*
X1111000Y661000D02*
D03*
X1224000Y550000D02*
D03*
X1161000Y952000D02*
D03*
X1229000Y920000D02*
D03*
X1060000Y923000D02*
D03*
X1025000D02*
D03*
X990000D02*
D03*
X955000D02*
D03*
X920000D02*
D03*
X885000D02*
D03*
X850000D02*
D03*
X780000Y923000D02*
D03*
X815000Y923000D02*
D03*
X1060000Y853000D02*
D03*
X1025000Y853000D02*
D03*
X990000D02*
D03*
X955000Y853000D02*
D03*
X920000D02*
D03*
X885000D02*
D03*
X850000D02*
D03*
X815000Y853000D02*
D03*
X780000Y853000D02*
D03*
X1059000Y560000D02*
D03*
Y820000D02*
D03*
X945000Y583000D02*
D03*
X785000D02*
D03*
X625000D02*
D03*
X465000D02*
D03*
X305000D02*
D03*
X945000Y797000D02*
D03*
X785000D02*
D03*
X625000D02*
D03*
X465000D02*
D03*
X305000D02*
D03*
X969000Y131000D02*
D03*
X953000Y131000D02*
D03*
X874000Y131000D02*
D03*
X858000D02*
D03*
X930000Y120000D02*
D03*
X879200D02*
D03*
X866500D02*
D03*
X841100D02*
D03*
X904600D02*
D03*
X917300D02*
D03*
X795000Y129000D02*
D03*
X775000D02*
D03*
X695000Y147000D02*
D03*
X680000Y162000D02*
D03*
X715000Y147000D02*
D03*
X730000Y162000D02*
D03*
X267000Y152000D02*
D03*
X960000Y325000D02*
D03*
X955000Y315000D02*
D03*
X950000Y305000D02*
D03*
X910000Y335000D02*
D03*
X905000Y295000D02*
D03*
X900000Y285000D02*
D03*
X895000Y275000D02*
D03*
X888000Y265000D02*
D03*
X519998Y23998D02*
D03*
X519997Y79997D02*
D03*
X539997D02*
D03*
X559997Y79998D02*
D03*
X579998Y79998D02*
D03*
X599999Y79999D02*
D03*
X619999D02*
D03*
X640000Y80000D02*
D03*
X660000D02*
D03*
X503000Y219000D02*
D03*
X482000D02*
D03*
X260000Y194000D02*
D03*
X239000Y193000D02*
D03*
X853800Y65000D02*
D03*
Y95000D02*
D03*
X1006200D02*
D03*
Y65000D02*
D03*
X891900D02*
D03*
Y95000D02*
D03*
X1070000Y923000D02*
D03*
X1080000D02*
D03*
X1035000D02*
D03*
X1045000D02*
D03*
X1000000D02*
D03*
X1010000D02*
D03*
X965000D02*
D03*
X975000D02*
D03*
X930000D02*
D03*
X940000D02*
D03*
X895000D02*
D03*
X905000D02*
D03*
X860000D02*
D03*
X870000D02*
D03*
X825000D02*
D03*
X835000D02*
D03*
X790000D02*
D03*
X800000D02*
D03*
X1070000Y853000D02*
D03*
X1080000D02*
D03*
X1035000Y853000D02*
D03*
X1045000D02*
D03*
X1000000D02*
D03*
X1010000D02*
D03*
X965000Y853000D02*
D03*
X975000D02*
D03*
X930000D02*
D03*
X940000D02*
D03*
X895000D02*
D03*
X905000D02*
D03*
X860000D02*
D03*
X870000D02*
D03*
X825000Y853000D02*
D03*
X835000D02*
D03*
X658000Y797000D02*
D03*
X443000Y620000D02*
D03*
X792000Y970000D02*
D03*
X775000Y963000D02*
D03*
X800000Y853000D02*
D03*
X790000D02*
D03*
X420000Y769000D02*
D03*
X443000Y760000D02*
D03*
X923000Y620000D02*
D03*
X909000D02*
D03*
X961000Y620000D02*
D03*
X947000D02*
D03*
X763000D02*
D03*
X749000D02*
D03*
X801000Y620000D02*
D03*
X787000D02*
D03*
X603000Y620000D02*
D03*
X589000D02*
D03*
X641000Y620000D02*
D03*
X627000D02*
D03*
X467000D02*
D03*
X481000D02*
D03*
X429000Y620000D02*
D03*
X307000Y620000D02*
D03*
X321000D02*
D03*
X283000D02*
D03*
X269000D02*
D03*
X179000Y815000D02*
D03*
X82000Y703000D02*
D03*
Y719000D02*
D03*
X819000Y902000D02*
D03*
X835000D02*
D03*
X854000D02*
D03*
X870000D02*
D03*
X889000D02*
D03*
X905000D02*
D03*
X924000D02*
D03*
X940000D02*
D03*
X959000D02*
D03*
X975000D02*
D03*
X994000D02*
D03*
X1010000D02*
D03*
X1029000D02*
D03*
X1045000D02*
D03*
X1064000D02*
D03*
X1080000D02*
D03*
X1080000Y972000D02*
D03*
X1064000D02*
D03*
X1045000D02*
D03*
X1029000D02*
D03*
X1010000D02*
D03*
X994000D02*
D03*
X975000D02*
D03*
X959000D02*
D03*
X940000D02*
D03*
X924000D02*
D03*
X905000D02*
D03*
X889000D02*
D03*
X870000D02*
D03*
X854000D02*
D03*
X835000D02*
D03*
X819000D02*
D03*
X800000Y902000D02*
D03*
X784000D02*
D03*
X732000Y583000D02*
D03*
X740000Y611000D02*
D03*
X730000D02*
D03*
Y597000D02*
D03*
X763000Y760000D02*
D03*
X749000D02*
D03*
X732000Y797000D02*
D03*
X740000Y769000D02*
D03*
X730000D02*
D03*
Y783000D02*
D03*
X818000Y583000D02*
D03*
X810000Y611000D02*
D03*
X820000D02*
D03*
Y597000D02*
D03*
Y783000D02*
D03*
Y769000D02*
D03*
X810000D02*
D03*
X818000Y797000D02*
D03*
X801000Y760000D02*
D03*
X787000D02*
D03*
X712000Y699000D02*
D03*
Y683000D02*
D03*
X872000D02*
D03*
Y699000D02*
D03*
X947000Y760000D02*
D03*
X961000D02*
D03*
X978000Y797000D02*
D03*
X970000Y769000D02*
D03*
X980000D02*
D03*
Y783000D02*
D03*
Y597000D02*
D03*
Y611000D02*
D03*
X970000D02*
D03*
X978000Y583000D02*
D03*
X890000Y783000D02*
D03*
Y769000D02*
D03*
X900000D02*
D03*
X892000Y797000D02*
D03*
X909000Y760000D02*
D03*
X923000D02*
D03*
X890000Y597000D02*
D03*
Y611000D02*
D03*
X900000D02*
D03*
X892000Y583000D02*
D03*
X572000D02*
D03*
X580000Y611000D02*
D03*
X570000D02*
D03*
Y597000D02*
D03*
X603000Y760000D02*
D03*
X589000D02*
D03*
X572000Y797000D02*
D03*
X580000Y769000D02*
D03*
X570000D02*
D03*
Y783000D02*
D03*
X658000Y583000D02*
D03*
X650000Y611000D02*
D03*
X660000D02*
D03*
Y597000D02*
D03*
Y783000D02*
D03*
Y769000D02*
D03*
X650000D02*
D03*
X641000Y760000D02*
D03*
X627000D02*
D03*
X552000Y699000D02*
D03*
Y683000D02*
D03*
X392000D02*
D03*
Y699000D02*
D03*
X232000Y698000D02*
D03*
Y682000D02*
D03*
X467000Y760000D02*
D03*
X481000D02*
D03*
X498000Y797000D02*
D03*
X490000Y769000D02*
D03*
X500000D02*
D03*
Y783000D02*
D03*
Y597000D02*
D03*
Y611000D02*
D03*
X490000D02*
D03*
X498000Y583000D02*
D03*
X410000Y783000D02*
D03*
Y769000D02*
D03*
X412000Y797000D02*
D03*
X429000Y760000D02*
D03*
X410000Y597000D02*
D03*
Y611000D02*
D03*
X420000D02*
D03*
X412000Y583000D02*
D03*
X252000D02*
D03*
X260000Y611000D02*
D03*
X250000D02*
D03*
Y597000D02*
D03*
X283000Y760000D02*
D03*
X269000D02*
D03*
X252000Y797000D02*
D03*
X260000Y769000D02*
D03*
X250000D02*
D03*
Y783000D02*
D03*
X338000Y583000D02*
D03*
X330000Y611000D02*
D03*
X340000D02*
D03*
Y597000D02*
D03*
Y783000D02*
D03*
Y769000D02*
D03*
X330000D02*
D03*
X338000Y797000D02*
D03*
X321000Y760000D02*
D03*
X307000D02*
D03*
X183000Y127000D02*
D03*
X111000D02*
D03*
X129000Y335000D02*
D03*
X201000D02*
D03*
X129000Y815000D02*
D03*
X183000Y607000D02*
D03*
X111000D02*
D03*
X136000Y633000D02*
D03*
X154000D02*
D03*
Y789000D02*
D03*
X136000D02*
D03*
X209000Y239000D02*
D03*
Y223000D02*
D03*
X136000Y309000D02*
D03*
X154000D02*
D03*
Y153000D02*
D03*
X136000D02*
D03*
M02*
