G04*
G04 #@! TF.GenerationSoftware,Altium Limited,Altium Designer,19.0.10 (269)*
G04*
G04 Layer_Color=16711935*
%FSLAX44Y44*%
%MOMM*%
G71*
G01*
G75*
%ADD11C,0.2500*%
%ADD29C,1.8032*%
G04:AMPARAMS|DCode=30|XSize=2.2032mm|YSize=2.2032mm|CornerRadius=0.6016mm|HoleSize=0mm|Usage=FLASHONLY|Rotation=180.000|XOffset=0mm|YOffset=0mm|HoleType=Round|Shape=RoundedRectangle|*
%AMROUNDEDRECTD30*
21,1,2.2032,1.0000,0,0,180.0*
21,1,1.0000,2.2032,0,0,180.0*
1,1,1.2032,-0.5000,0.5000*
1,1,1.2032,0.5000,0.5000*
1,1,1.2032,0.5000,-0.5000*
1,1,1.2032,-0.5000,-0.5000*
%
%ADD30ROUNDEDRECTD30*%
%ADD31P,2.3848X8X202.5*%
%ADD32C,2.7032*%
%ADD67R,1.4032X2.9032*%
G04:AMPARAMS|DCode=68|XSize=1.0032mm|YSize=1.3032mm|CornerRadius=0.2016mm|HoleSize=0mm|Usage=FLASHONLY|Rotation=180.000|XOffset=0mm|YOffset=0mm|HoleType=Round|Shape=RoundedRectangle|*
%AMROUNDEDRECTD68*
21,1,1.0032,0.9000,0,0,180.0*
21,1,0.6000,1.3032,0,0,180.0*
1,1,0.4032,-0.3000,0.4500*
1,1,0.4032,0.3000,0.4500*
1,1,0.4032,0.3000,-0.4500*
1,1,0.4032,-0.3000,-0.4500*
%
%ADD68ROUNDEDRECTD68*%
D11*
X0Y0D02*
X1332000D01*
Y1000000D01*
X0D02*
X1332000D01*
X0Y0D02*
Y1000000D01*
D29*
X1104500Y920000D02*
D03*
X755500D02*
D03*
X1104500Y80000D02*
D03*
X755500D02*
D03*
D30*
X299200Y92700D02*
D03*
X350000D02*
D03*
X324600D02*
D03*
X400800D02*
D03*
X350000Y67300D02*
D03*
X324600D02*
D03*
X400800D02*
D03*
X375400Y92700D02*
D03*
Y67300D02*
D03*
X467402Y907002D02*
D03*
X518200Y907000D02*
D03*
X492800D02*
D03*
X569000D02*
D03*
X619800D02*
D03*
X594400D02*
D03*
X670600D02*
D03*
X696000D02*
D03*
X518200Y881600D02*
D03*
X492800D02*
D03*
X569000D02*
D03*
X619800D02*
D03*
X594400D02*
D03*
X670600D02*
D03*
X696000D02*
D03*
X543600Y907000D02*
D03*
X645200D02*
D03*
X543600Y881600D02*
D03*
X645200D02*
D03*
X134202Y907002D02*
D03*
X185000Y907000D02*
D03*
X159600D02*
D03*
X235800D02*
D03*
X286600D02*
D03*
X261200D02*
D03*
X337400D02*
D03*
X362800D02*
D03*
X185000Y881600D02*
D03*
X159600D02*
D03*
X235800D02*
D03*
X286600D02*
D03*
X261200D02*
D03*
X337400D02*
D03*
X362800D02*
D03*
X210400Y907000D02*
D03*
X312000D02*
D03*
X210400Y881600D02*
D03*
X312000D02*
D03*
D31*
X299200Y67300D02*
D03*
X467400Y881600D02*
D03*
X134200D02*
D03*
D32*
X44000Y891000D02*
D03*
X18500Y865500D02*
D03*
Y916500D02*
D03*
X69500Y865500D02*
D03*
Y916500D02*
D03*
X44000Y771000D02*
D03*
X18500Y745500D02*
D03*
Y796500D02*
D03*
X69500Y745500D02*
D03*
Y796500D02*
D03*
X44000Y651000D02*
D03*
X18500Y625500D02*
D03*
Y676500D02*
D03*
X69500Y625500D02*
D03*
Y676500D02*
D03*
X44000Y531000D02*
D03*
X18500Y505500D02*
D03*
Y556500D02*
D03*
X69500Y505500D02*
D03*
Y556500D02*
D03*
X44000Y411000D02*
D03*
X18500Y385500D02*
D03*
Y436500D02*
D03*
X69500Y385500D02*
D03*
Y436500D02*
D03*
X44000Y291000D02*
D03*
X18500Y265500D02*
D03*
Y316500D02*
D03*
X69500Y265500D02*
D03*
Y316500D02*
D03*
X44000Y171000D02*
D03*
X18500Y145500D02*
D03*
Y196500D02*
D03*
X69500Y145500D02*
D03*
Y196500D02*
D03*
X44000Y51000D02*
D03*
X18500Y25500D02*
D03*
Y76500D02*
D03*
X69500Y25500D02*
D03*
Y76500D02*
D03*
X715000Y220000D02*
D03*
X760000D02*
D03*
X1150000Y845000D02*
D03*
Y902000D02*
D03*
X1059000Y685000D02*
D03*
X681000Y219000D02*
D03*
X795000Y220000D02*
D03*
D67*
X1107500Y944500D02*
D03*
Y895500D02*
D03*
X752500Y944500D02*
D03*
Y895500D02*
D03*
X1107500Y104500D02*
D03*
Y55500D02*
D03*
X752500Y104500D02*
D03*
Y55500D02*
D03*
D68*
X1082400Y892500D02*
D03*
Y947500D02*
D03*
X1069700D02*
D03*
X1031600D02*
D03*
X1069700Y892500D02*
D03*
X1057000D02*
D03*
X1044300D02*
D03*
X1031600D02*
D03*
X1057000Y947500D02*
D03*
X1044300D02*
D03*
X1018900D02*
D03*
X1006200D02*
D03*
X993500D02*
D03*
X980800D02*
D03*
X968100D02*
D03*
X955400D02*
D03*
X942700D02*
D03*
X930000D02*
D03*
X917300D02*
D03*
X904600D02*
D03*
X891900D02*
D03*
X879200D02*
D03*
X866500D02*
D03*
X853800D02*
D03*
X841100D02*
D03*
X828400D02*
D03*
X815700D02*
D03*
X803000D02*
D03*
X790300D02*
D03*
X777600D02*
D03*
D03*
X1018900Y892500D02*
D03*
X1006200D02*
D03*
X993500D02*
D03*
X980800D02*
D03*
X968100D02*
D03*
X955400D02*
D03*
X942700D02*
D03*
X930000D02*
D03*
X917300D02*
D03*
X904600D02*
D03*
X891900D02*
D03*
X879200D02*
D03*
X866500D02*
D03*
X853800D02*
D03*
X841100D02*
D03*
X828400D02*
D03*
X815700D02*
D03*
X803000D02*
D03*
X790300D02*
D03*
X777600D02*
D03*
D03*
X1082400Y52500D02*
D03*
Y107500D02*
D03*
X1069700D02*
D03*
X1031600D02*
D03*
X1069700Y52500D02*
D03*
X1057000D02*
D03*
X1044300D02*
D03*
X1031600D02*
D03*
X1057000Y107500D02*
D03*
X1044300D02*
D03*
X1018900D02*
D03*
X1006200D02*
D03*
X993500D02*
D03*
X980800D02*
D03*
X968100D02*
D03*
X955400D02*
D03*
X942700D02*
D03*
X930000D02*
D03*
X917300D02*
D03*
X904600D02*
D03*
X891900D02*
D03*
X879200D02*
D03*
X866500D02*
D03*
X853800D02*
D03*
X841100D02*
D03*
X828400D02*
D03*
X815700D02*
D03*
X803000D02*
D03*
X790300D02*
D03*
X777600D02*
D03*
D03*
X1018900Y52500D02*
D03*
X1006200D02*
D03*
X993500D02*
D03*
X980800D02*
D03*
X968100D02*
D03*
X955400D02*
D03*
X942700D02*
D03*
X930000D02*
D03*
X917300D02*
D03*
X904600D02*
D03*
X891900D02*
D03*
X879200D02*
D03*
X866500D02*
D03*
X853800D02*
D03*
X841100D02*
D03*
X828400D02*
D03*
X815700D02*
D03*
X803000D02*
D03*
X790300D02*
D03*
X777600D02*
D03*
D03*
M02*
